<svg id="Layer_1" data-name="Layer 1" xmlns="http://www.w3.org/2000/svg" xmlns:xlink="http://www.w3.org/1999/xlink" viewBox="0 0 1651 758"><defs><style>.cls-1{fill:url(#linear-gradient);}.cls-2{fill:#fff;}.cls-3{fill:url(#linear-gradient-2);}.cls-4{fill:url(#linear-gradient-3);}.cls-5{fill:url(#linear-gradient-4);}</style><linearGradient id="linear-gradient" x1="367.93251" y1="694.61756" x2="478.33614" y2="68.48744" gradientUnits="userSpaceOnUse"><stop offset="0.00059" stop-color="#0be"/><stop offset="1" stop-color="#00b5ae"/></linearGradient><linearGradient id="linear-gradient-2" x1="395.66297" y1="477.68877" x2="430.47354" y2="280.26824" xlink:href="#linear-gradient"/><linearGradient id="linear-gradient-3" x1="469.3277" y1="477.69238" x2="504.12544" y2="280.34456" xlink:href="#linear-gradient"/><linearGradient id="linear-gradient-4" x1="322.08198" y1="477.67973" x2="356.90232" y2="280.20382" xlink:href="#linear-gradient"/></defs><title>mare_sm_color_light copy</title><g id="CXRvxz"><path class="cls-1" d="M407.02667,696.77169A318.19245,318.19245,0,0,1,105.93346,478.72258c-1.20294-3.62773-2.34868-7.2826-3.31657-10.97836-1.84456-7.0432-1.8108-7.57731,5.55545-9.59311,19.92276-5.452,39.95043-10.51972,59.92266-15.79227,13.32076-3.51664,26.65893-6.97833,39.912-10.73721,9.82626-2.787,9.49672-1.64247,12.50138,7.368a198.67489,198.67489,0,0,0,53.93538,84.10474c95.21269,88.43052,249.38294,60.90857,308.5527-54.76911,51.62335-100.92449,8.14806-227.96957-104.36849-272.849a182.22253,182.22253,0,0,0-64.98509-12.87229c-8.54379-.137-8.68157-.37311-8.69826-9.10092q-.09784-51.11576-.01249-102.23179c.01764-10.02877.156-10.22776,10.31374-10.01276,40.62524.85986,79.81424,8.99231,117.03566,25.21045q119.13066,51.90766,169.80458,171.86668c11.926,28.32791,18.93134,57.88579,22.02356,88.6631,6.55342,65.22859-5.92859,126.347-36.93369,183.78529-28.70827,53.18327-69.84342,94.39165-122.163,124.45393a307.044,307.044,0,0,1-102.02482,36.698A313.58107,313.58107,0,0,1,407.02667,696.77169Z"/><path class="cls-2" d="M1000.52208,496.86113c-16.656.32363-16.88461.354-19.07-16.11468-4.72859-35.63449-9.11163-71.315-13.90222-106.94088-.51114-3.8009.94323-9.60321-3.46372-10.78-2.00037-.53415-4.10545,5.68494-5.93449,8.98059-13.17928,23.74722-26.29881,47.52775-39.55916,71.22959-1.632,2.917-2.70775,7.85665-5.81189,7.89032-4.0452.04383-4.785-5.26915-6.53273-8.41026-12.83282-23.06386-25.443-46.25162-38.11454-69.40512-.91609-1.674-1.64928-3.46025-2.688-5.0502a12.34483,12.34483,0,0,0-2.43647-2.181,10.33321,10.33321,0,0,0-1.43986,2.77234c-.84273,4.89439-1.61582,9.80463-2.25082,14.7303q-5.20966,40.411-10.34389,80.83175c-1.11787,8.72593-2.53283,17.4236-3.31819,26.17849-.43217,4.81788-2.37243,6.74987-7.17453,6.62815-8.03612-.20371-16.08319.05888-24.1217-.09012-7.29579-.13529-7.64891-.42653-6.68029-8.189,2.22627-17.84072,4.71085-35.64918,7.10025-53.46946q6.63243-49.46643,13.2739-98.93158c1.52472-11.37466,3.22723-22.731,4.44518-34.1387.50672-4.74679,2.49327-6.96293,7.19521-6.805.38174.01283.76573-.01375,1.14768-.03868,22.51191-1.46886,22.54726-1.48818,33.50139,18.71554,12.03441,22.19592,23.96292,44.44931,36.00771,66.63959,3.46533,6.38425,3.85556,6.46494,7.46909-.18968,11.49816-21.17543,22.77772-42.46949,34.15869-63.70864,2.16841-4.04671,4.98781-7.84943,6.49625-12.12155,2.57891-7.304,7.17516-10.26181,14.81026-9.41932,6.04634.66715,12.84916-1.79558,18.0823,1.23247,6.1674,3.56854,3.22112,11.20683,4.10383,16.9665,3.70765,24.19359,6.884,48.47064,10.07563,72.74071,4.33893,32.99418,8.51473,66.00982,12.75911,99.01637.293,2.27863.53337,4.56483.873,6.83638.43862,2.9347-1.11064,4.43666-3.73724,4.53888C1010.47533,496.99852,1005.496,496.86113,1000.52208,496.86113Z"/><path class="cls-2" d="M1237.058,396.22928q.008-44.79255.02609-89.585c.02188-10.85433.12961-11.02381,10.688-11.06793q32.15776-.13434,64.31636.08774a127.27288,127.27288,0,0,1,21.69926,1.95457c32.77838,5.85923,48.84614,27.5708,46.12451,64.087-1.38824,18.62307-10.05347,33.38066-24.7595,44.80171-9.23332,7.17084-9.19138,7.33625-3.47305,17.81456,11.90838,21.82151,23.93865,43.5766,35.80845,65.419,3.7599,6.91885,3.40264,7.4248-4.47653,7.49865-7.27236.06817-14.56871-.45191-21.81372-.02342-6.67.3944-10.45393-2.34519-13.5167-8.13551-10.189-19.26325-21.21155-38.09311-31.09445-57.50666-3.73437-7.33566-8.3809-9.99459-16.20775-9.251-5.69154.54073-11.47635.04061-17.21754.12866-8.98505.13778-9.16978.17933-9.304,8.83-.184,11.86528-.04558,23.73547-.05821,35.60356-.00855,8.0396-.14938,16.081-.017,24.118.0721,4.36548-1.73933,6.26983-6.11669,6.21285-8.03767-.10471-16.08193-.14248-24.11595.06842-4.99707.13118-6.63414-2.00883-6.55068-6.87758.22316-13.01261.05779-26.03181.05484-39.04842Q1237.04746,423.7939,1237.058,396.22928Zm36.775-39.58252c0,8.40384.02174,16.80771-.00926,25.21145-.01557,4.22345,1.87455,6.29942,6.24111,6.20046,11.44437-.25946,22.91385.71032,34.33073-.89943,19.83663-2.797,28.74355-13.77066,27.29359-33.75065-1.10251-15.19105-7.83624-22.81962-22.81384-25.595-12.87244-2.38523-25.89525-1.41667-38.86939-1.55575-4.43908-.04759-6.1693,2.21821-6.17182,6.32373Q1273.82658,344.61416,1273.833,356.64676Z"/><path class="cls-2" d="M1417.93653,395.78312q-.01095-42.48243-.00547-84.96483c.00028-2.679.13017-5.36222.01879-8.036-.19413-4.66182,1.6476-7.27958,6.60693-7.16281,2.294.054,4.59169-.07143,6.88761-.07171q51.09358-.00626,102.18732.00487c2.29592.00053,4.59155.08,6.88761.09318,4.211.02412,6.29371,2.0482,6.26509,6.33673-.04853,7.27079-.18347,14.54971.09033,21.81113.211,5.59209-2.41289,7.33622-7.60325,7.30122-18.36971-.12382-36.741-.04057-55.11151-.031-7.27167.00378-14.54459.10344-21.81457-.00092-4.24537-.06091-6.45109,1.70953-6.44295,6.05252.01963,10.33183.06648,20.66412-.00758,30.99542-.03408,4.76749,1.87006,6.72763,6.89364,6.65739,16.45364-.23011,32.91289-.07858,49.3699-.0425,14.97759.03283,14.19069-1.151,13.84507,13.3381-.16847,7.06316,3.45,15.91866-2.11343,20.77139-4.85259,4.23264-13.247,1.30439-20.064,1.418-13.00879.21686-26.025-.04878-39.03646.07087-8.37529.077-8.69637.2851-8.8487,8.09094-.23158,11.85977-.26118,23.73112-.01192,35.58988.15092,7.18964.6197,7.57422,8.22015,7.61374,24.1109.12547,48.22279.03461,72.33439.0654,12.88535.01648,12.9026.05183,12.91593,13.35932.00533,5.35728-.1247,10.71469-.11446,16.0719.00715,3.74163-1.77412,5.66955-5.50372,5.78341-2.67632.08171-5.35363.18326-8.03065.189q-52.81511.113-105.63036.19907c-.38265.00071-.76558.01175-1.14809.00607-10.77151-.15952-10.98023-.239-11.00421-10.80422C1417.89908,456.25367,1417.94368,426.01832,1417.93653,395.78312Z"/><path class="cls-2" d="M1194.85595,497.15177c-22.76832-.50385-17.79075,3.28582-25.89084-18.27086-2.54994-6.78619-4.78414-13.69063-7.19444-20.52984-3.28116-9.31022-3.29287-9.45936-12.79558-9.53784-16.06327-.13263-32.12879-.11481-48.19262-.03272-10.489.05358-10.58993.21612-13.9939,9.77174-3.71753,10.43594-7.87067,20.74694-10.94838,31.369-1.76976,6.10792-5.00779,7.66851-10.78006,7.38131-7.6306-.37963-15.29579-.20384-22.9426-.06918-4.97112.08752-5.98365-2.082-4.41341-6.42907q7.59207-21.01778,15.04366-42.08621,24.91412-70.19171,49.80354-140.39223a34.18885,34.18885,0,0,0,1.57248-4.30621c1.43755-6.92685,5.861-9.22368,12.51336-8.49964,2.268.24687,4.5865-.00632,6.88031.04488,21.50773.47986,17.0709-3.4875,24.56341,17.342,17.58273,48.88054,34.69346,97.93091,51.98535,146.916,3.6871,10.44485,7.12424,20.98428,11.0871,31.32277,1.95044,5.08789-.09215,6.1141-4.49434,6.02457C1202.45374,497.08465,1198.24526,497.15177,1194.85595,497.15177Zm-70.37841-83.83711c4.59162,0,9.19124.17246,13.77283-.04194,6.29623-.29457,6.971-1.0017,5.03662-6.70666-5.27662-15.56161-10.8436-31.02492-16.33883-46.51183-.36961-1.04153-1.03918-2.72931-1.67284-2.7783-1.66324-.12866-2.49917,1.46308-3.0115,2.87421-3.64985,10.052-7.23273,20.1284-10.85173,30.19168-2.069,5.75347-4.27034,11.46191-6.21334,17.25728-1.27062,3.79027.14658,5.83082,4.35667,5.752C1114.52787,413.258,1119.50334,413.32921,1124.47754,413.31466Z"/><path class="cls-3" d="M449.9614,295.95042c-2.60086,27.98428-5.4683,58.39681-8.23274,88.81875-.96768,10.64908-1.42057,21.34929-2.56211,31.97744a65.74186,65.74186,0,0,1-55.32189,57.58711c-7.62541,1.12352-8.74493.2838-8.05639-7.7067,2.45877-28.53326,5.109-57.05,7.68977-85.57276,1.10076-12.165,2.55895-24.30966,3.24427-36.49784,1.68512-29.97073,22.43388-54.27169,51.97248-60.351C450.12082,281.85375,450.60488,282.24948,449.9614,295.95042Z"/><path class="cls-4" d="M523.52622,297.63014c-2.55972,27.23685-5.50277,58.01959-8.31788,88.814-.9039,9.88812-1.14467,19.84372-2.25188,29.70523a65.74311,65.74311,0,0,1-54.8558,58.082c-8.22072,1.38631-9.37155.44448-8.57307-8.13119,3.39849-36.498,6.929-72.98366,10.34659-109.47985.39132-4.17895.31189-8.39974.56125-12.59457a64.30673,64.30673,0,0,1,51.3715-59.64805C523.90569,281.81142,524.22855,282.07463,523.52622,297.63014Z"/><path class="cls-5" d="M376.47972,293.51925q-4.19742,45.6168-8.37519,91.23529c-.92622,10.26738-1.46542,20.57081-2.46048,30.83071a65.33747,65.33747,0,0,1-54.25467,58.50658c-8.99351,1.56013-9.9734.77758-9.12094-8.6247q5.01534-55.31662,10.20755-110.61728c.31573-3.42259.55895-6.85356.75452-10.28526,1.73057-30.36674,22.25159-54.25191,51.85141-60.32586C376.49529,281.8967,377.006,282.31253,376.47972,293.51925Z"/></g></svg>