<svg id="Layer_1" data-name="Layer 1" xmlns="http://www.w3.org/2000/svg" xmlns:xlink="http://www.w3.org/1999/xlink" viewBox="0 0 1651 758"><defs><style>.cls-1{fill:url(#linear-gradient);}.cls-2{fill:url(#linear-gradient-2);}.cls-3{fill:url(#linear-gradient-3);}.cls-4{fill:url(#linear-gradient-4);}</style><linearGradient id="linear-gradient" x1="367.93277" y1="694.61738" x2="478.33634" y2="68.48761" gradientUnits="userSpaceOnUse"><stop offset="0.00059" stop-color="#0be"/><stop offset="1" stop-color="#00b5ae"/></linearGradient><linearGradient id="linear-gradient-2" x1="395.66322" y1="477.68871" x2="430.47376" y2="280.2683" xlink:href="#linear-gradient"/><linearGradient id="linear-gradient-3" x1="469.3279" y1="477.69232" x2="504.12563" y2="280.34462" xlink:href="#linear-gradient"/><linearGradient id="linear-gradient-4" x1="322.08227" y1="477.67967" x2="356.90258" y2="280.20388" xlink:href="#linear-gradient"/></defs><title>mare_sm_color_dark copy</title><g id="CXRvxz"><path class="cls-1" d="M407.02691,696.77151a318.19226,318.19226,0,0,1-301.093-218.049c-1.20294-3.62773-2.34867-7.2826-3.31657-10.97836-1.84456-7.0432-1.8108-7.5773,5.55545-9.5931,19.92275-5.452,39.95041-10.51972,59.92262-15.79227,13.32076-3.51663,26.65892-6.97832,39.912-10.7372,9.82626-2.787,9.49672-1.64247,12.50137,7.368a198.67491,198.67491,0,0,0,53.93535,84.10469c95.21264,88.43047,249.3828,60.90853,308.55253-54.76908,51.62332-100.92443,8.14806-227.96944-104.36844-272.8489a182.22247,182.22247,0,0,0-64.985-12.87228c-8.54379-.137-8.68157-.37311-8.69826-9.10091q-.09785-51.11574-.01249-102.23173c.01764-10.02877.156-10.22775,10.31373-10.01276,40.62522.85987,79.8142,8.99231,117.0356,25.21044Q651.41227,138.3767,702.08616,258.33564c11.926,28.3279,18.93133,57.88576,22.02355,88.66305,6.55341,65.22855-5.92859,126.347-36.93367,183.78518-28.70825,53.18324-69.84339,94.3916-122.16293,124.45386a307.04373,307.04373,0,0,1-102.02476,36.69795A313.58167,313.58167,0,0,1,407.02691,696.77151Z"/><path d="M1000.522,496.86106c-16.656.32364-16.8846.354-19.07-16.11467-4.72859-35.63447-9.11162-71.315-13.90221-106.94082-.51114-3.80089.94323-9.6032-3.46372-10.78-2.00037-.53415-4.10545,5.68494-5.93448,8.98058-13.17928,23.74721-26.2988,47.52773-39.55915,71.22956-1.632,2.917-2.70774,7.85664-5.81188,7.89031-4.0452.04383-4.785-5.26915-6.53272-8.41025-12.83281-23.06386-25.44295-46.2516-38.11452-69.40509-.9161-1.674-1.64928-3.46025-2.688-5.05019a12.34417,12.34417,0,0,0-2.43646-2.181,10.33315,10.33315,0,0,0-1.43986,2.77233c-.84273,4.89439-1.61582,9.80463-2.25081,14.7303q-5.20968,40.411-10.34389,80.8317c-1.11787,8.72593-2.53283,17.42359-3.31819,26.17848-.43217,4.81787-2.37243,6.74986-7.17453,6.62814-8.03612-.20371-16.08318.05888-24.12168-.09012-7.29579-.13529-7.64891-.42652-6.68029-8.189,2.22627-17.84071,4.71085-35.64916,7.10025-53.46943q6.63242-49.46642,13.27389-98.93153c1.52471-11.37465,3.22722-22.731,4.44517-34.13868.50672-4.74679,2.49328-6.96292,7.19522-6.80495.38174.01284.76572-.01374,1.14767-.03867,22.5119-1.46886,22.54725-1.48818,33.50137,18.71553,12.03441,22.1959,23.96291,44.44929,36.00769,66.63955,3.46533,6.38425,3.85556,6.46494,7.46909-.18968,11.49815-21.17542,22.7777-42.46947,34.15866-63.70861,2.16841-4.04671,4.98781-7.84942,6.49626-12.12154,2.5789-7.304,7.17515-10.2618,14.81024-9.41931,6.04635.66715,12.84916-1.79558,18.08229,1.23247,6.1674,3.56853,3.22113,11.20682,4.10384,16.96649,3.70764,24.19357,6.884,48.47061,10.07562,72.74066,4.33893,32.99416,8.51472,66.00979,12.7591,99.01632.293,2.27863.53337,4.56483.873,6.83637.43862,2.9347-1.11064,4.43666-3.73724,4.53888C1010.47522,496.99846,1005.4959,496.86106,1000.522,496.86106Z"/><path d="M1237.05775,396.22927q.008-44.79252.02609-89.585c.02189-10.85433.12961-11.0238,10.688-11.06792q32.15774-.13434,64.31632.08774a127.27276,127.27276,0,0,1,21.69925,1.95457c32.77836,5.85922,48.84611,27.57078,46.12448,64.08694-1.38824,18.62306-10.05346,33.38064-24.75949,44.80168-9.23331,7.17084-9.19137,7.33625-3.473,17.81455,11.90837,21.8215,23.93863,43.57658,35.80843,65.41894,3.7599,6.91885,3.40263,7.42479-4.47653,7.49865-7.27236.06817-14.5687-.45191-21.81371-.02343-6.67.3944-10.45393-2.34518-13.51669-8.1355-10.189-19.26324-21.21154-38.09309-31.09443-57.50664-3.73437-7.33565-8.3809-9.99458-16.20774-9.25095-5.69154.54074-11.47635.04061-17.21754.12867-8.985.13777-9.16977.17933-9.304,8.83-.184,11.86528-.04559,23.73546-.05821,35.60354-.00856,8.03959-.14939,16.081-.017,24.118.0721,4.36547-1.73933,6.26983-6.11668,6.21284-8.03767-.10471-16.08192-.14248-24.11594.06842-4.99707.13118-6.63414-2.00882-6.55068-6.87758.22317-13.0126.05779-26.03179.05485-39.04839Q1237.04724,423.79388,1237.05775,396.22927Zm36.775-39.5825c0,8.40384.02174,16.80771-.00926,25.21144-.01557,4.22344,1.87455,6.29942,6.24111,6.20046,11.44436-.25946,22.91383.71032,34.33071-.89944,19.83662-2.79695,28.74353-13.77064,27.29357-33.75063-1.10251-15.191-7.83623-22.81961-22.81382-25.595-12.87244-2.38523-25.89524-1.41667-38.86937-1.55575-4.43908-.04759-6.16929,2.2182-6.17182,6.32372Q1273.82633,344.61418,1273.83278,356.64677Z"/><path d="M1417.93619,395.78311q-.01095-42.4824-.00547-84.96478c.00028-2.679.13017-5.36222.01879-8.036-.19413-4.66182,1.6476-7.27958,6.60693-7.16281,2.29395.054,4.59169-.07143,6.8876-.07171q51.09357-.00627,102.18726.00487c2.29592.00053,4.59155.08,6.88761.09317,4.211.02413,6.2937,2.0482,6.26509,6.33674-.04853,7.27078-.18347,14.54969.09033,21.81111.211,5.59209-2.4129,7.33622-7.60325,7.30122-18.3697-.12382-36.74094-.04057-55.11148-.031-7.27166.00379-14.54458.10345-21.81455-.00091-4.24537-.06091-6.45109,1.70952-6.443,6.05252.01964,10.33182.06649,20.6641-.00757,30.9954-.03409,4.76748,1.87006,6.72763,6.89363,6.65739,16.45364-.23011,32.91288-.07859,49.36988-.04251,14.97758.03283,14.19068-1.151,13.845,13.3381-.16846,7.06315,3.45005,15.91865-2.11342,20.77137-4.85259,4.23264-13.24695,1.3044-20.064,1.418-13.00878.21686-26.025-.04878-39.03644.07087-8.37529.077-8.69636.2851-8.84869,8.09093-.23159,11.85977-.26118,23.73111-.01193,35.58987.15093,7.18963.61971,7.57421,8.22016,7.61373,24.11089.12547,48.22275.03462,72.33434.0654,12.88534.01649,12.9026.05183,12.91592,13.35931.00533,5.35728-.1247,10.71469-.11446,16.07189.00716,3.74163-1.77411,5.66955-5.50371,5.78341-2.67632.08171-5.35363.18326-8.03065.189q-52.81507.113-105.63029.19908c-.38265.0007-.76559.01174-1.1481.00606-10.7715-.15952-10.98022-.239-11.0042-10.80421C1417.89874,456.25362,1417.94334,426.0183,1417.93619,395.78311Z"/><path d="M1194.85574,497.1517c-22.76831-.50385-17.79074,3.28582-25.89082-18.27085-2.54994-6.78618-4.78414-13.69062-7.19444-20.52983-3.28116-9.31021-3.29287-9.45935-12.79557-9.53783-16.06327-.13263-32.12878-.11481-48.1926-.03272-10.489.05358-10.58992.21612-13.99389,9.77173-3.71753,10.43594-7.87067,20.74693-10.94837,31.369-1.76977,6.10792-5.00779,7.66852-10.78005,7.38132-7.63061-.37964-15.29579-.20385-22.94259-.06919-4.97112.08753-5.98365-2.082-4.41341-6.42907q7.59207-21.01775,15.04365-42.08618,24.9141-70.19166,49.80351-140.39215a34.18885,34.18885,0,0,0,1.57248-4.30621c1.43755-6.92684,5.861-9.22367,12.51335-8.49964,2.268.24688,4.5865-.00631,6.88031.04489,21.50772.47986,17.07089-3.4875,24.5634,17.34195,17.58272,48.88051,34.69344,97.93085,51.98531,146.91593,3.6871,10.44485,7.12424,20.98427,11.0871,31.32276,1.95044,5.08789-.09215,6.11409-4.49434,6.02456C1202.45352,497.08458,1198.24505,497.1517,1194.85574,497.1517Zm-70.37837-83.83706c4.59162,0,9.19123.17246,13.77282-.04194,6.29623-.29457,6.971-1.0017,5.03662-6.70666-5.27662-15.56159-10.84359-31.02489-16.33882-46.5118-.36961-1.04152-1.03918-2.7293-1.67284-2.77829-1.66324-.12866-2.49917,1.46307-3.0115,2.8742-3.64985,10.052-7.23273,20.12839-10.85173,30.19167-2.069,5.75346-4.27033,11.4619-6.21333,17.25726-1.27062,3.79027.14658,5.83082,4.35667,5.752C1114.52771,413.25793,1119.50317,413.32919,1124.47737,413.31464Z"/><path class="cls-2" d="M449.96162,295.95047c-2.60086,27.98426-5.4683,58.39678-8.23274,88.81869-.96768,10.64908-1.42057,21.34928-2.56211,31.97743a65.74182,65.74182,0,0,1-55.32185,57.58708c-7.62542,1.12351-8.74493.28379-8.05639-7.7067,2.45876-28.53324,5.109-57.05,7.68976-85.57271,1.10076-12.165,2.55895-24.30965,3.24427-36.49782,1.68512-29.97071,22.43387-54.27166,51.97245-60.351C450.121,281.8538,450.6051,282.24953,449.96162,295.95047Z"/><path class="cls-3" d="M523.5264,297.63018c-2.55973,27.23684-5.50277,58.01956-8.31789,88.814-.90389,9.88812-1.14466,19.84371-2.25187,29.70522a65.74308,65.74308,0,0,1-54.85577,58.08194c-8.22071,1.38631-9.37155.44448-8.57307-8.13118,3.3985-36.49793,6.929-72.98362,10.34659-109.47979.39131-4.179.31189-8.39973.56125-12.59456a64.30668,64.30668,0,0,1,51.37147-59.648C523.90586,281.81148,524.22872,282.07469,523.5264,297.63018Z"/><path class="cls-4" d="M376.48,293.5193q-4.19742,45.61677-8.37518,91.23524c-.92623,10.26737-1.46542,20.57079-2.46049,30.83069a65.33741,65.33741,0,0,1-54.25463,58.50654c-8.99351,1.56014-9.9734.77758-9.12094-8.62468q5.01534-55.31661,10.20755-110.61723c.31572-3.42258.55895-6.85355.75452-10.28525,1.73056-30.36672,22.25157-54.25188,51.85138-60.32582C376.49555,281.89676,377.00623,282.31258,376.48,293.5193Z"/></g></svg>