<svg id="Layer_1" data-name="Layer 1" xmlns="http://www.w3.org/2000/svg" viewBox="0 0 1942 758"><title>mare_dark</title><g id="CXRvxz"><path d="M317.047,576.50854A257.8747,257.8747,0,0,1,73.03017,399.79364c-.9749-2.94-1.90345-5.90209-2.68787-8.89726-1.4949-5.70807-1.46754-6.14093,4.50234-7.77461,16.14613-4.41852,32.37728-8.52556,48.56349-12.79863,10.79563-2.85,21.60537-5.65548,32.34612-8.70182,7.96356-2.25868,7.69649-1.33112,10.13157,5.97129A161.01346,161.01346,0,0,0,209.597,435.75414c77.16382,71.6673,202.109,49.36251,250.0623-44.38688,41.83743-81.79286,6.60348-184.7548-84.584-221.12676A147.67973,147.67973,0,0,0,322.409,159.80834c-6.9242-.11107-7.03586-.30239-7.04939-7.37572q-.07929-41.42607-.01012-82.85234c.0143-8.12768.12647-8.28895,8.35863-8.11471A248.53169,248.53169,0,0,1,418.55808,81.897q96.5478,42.06786,137.61579,139.287a247.43659,247.43659,0,0,1,17.84869,71.85579c5.31113,52.86361-4.80474,102.39621-29.9324,148.94625-23.26623,43.10166-56.60365,76.49842-99.00532,100.862a248.83957,248.83957,0,0,1-82.68462,29.74137A254.13845,254.13845,0,0,1,317.047,576.50854Z"/><path d="M798.03721,414.49378c-13.49866.26228-13.6839.28686-15.455-13.05993-3.83222-28.87948-7.3844-57.79627-11.26687-86.66876-.41424-3.08038.76444-7.78279-2.80712-8.7365-1.62117-.43289-3.32721,4.60729-4.80952,7.2782-10.681,19.24561-21.31351,38.51821-32.06018,57.727-1.3226,2.364-2.19446,6.36732-4.71017,6.3946-3.27838.03553-3.87792-4.27031-5.29436-6.816-10.40018-18.6918-20.61989-37.484-30.8894-56.24843-.74244-1.35664-1.33664-2.80431-2.17848-4.09286a10.00451,10.00451,0,0,0-1.9746-1.76759,8.37445,8.37445,0,0,0-1.16692,2.2468c-.683,3.96659-1.30952,7.946-1.82414,11.938q-4.22211,32.75055-8.38307,65.509c-.906,7.07181-2.05269,14.12072-2.68918,21.216-.35024,3.90458-1.92271,5.47033-5.8145,5.37169-6.51276-.16509-13.0344.04772-19.5491-.073-5.91277-.10964-6.199-.34567-5.41395-6.63665,1.80426-14.45876,3.81785-28.89139,5.75431-43.33358q5.37514-40.0894,10.75764-80.17774c1.23569-9.21844,2.61546-18.422,3.60254-27.66724.41066-3.847,2.02063-5.643,5.83126-5.515.30938.0104.62057-.01115.93012-.03135,18.24447-1.19042,18.27311-1.20608,27.15074,15.16775,9.75312,17.98838,19.42042,36.02334,29.182,54.00714,2.80843,5.174,3.12469,5.23942,6.05322-.15372,9.31853-17.16134,18.45989-34.41882,27.68344-51.6318,1.75736-3.2796,4.0423-6.36146,5.2648-9.82374,2.09-5.91945,5.815-8.31654,12.00277-7.63375,4.90018.54068,10.41342-1.4552,14.65455.99883,4.99828,2.89208,2.61052,9.08242,3.3259,13.75027,3.00481,19.60736,5.579,39.28236,8.16565,58.95171,3.51643,26.73967,6.90064,53.49674,10.34045,80.24645.23741,1.84669.43226,3.69951.70748,5.54045.35547,2.37839-.90011,3.59563-3.0288,3.67847C806.10368,414.60512,802.06826,414.49378,798.03721,414.49378Z"/><path d="M989.73448,332.93808q.00648-36.30151.02114-72.603c.01774-8.79674.105-8.93409,8.662-8.96985q26.06181-.10887,52.12431.07111a103.14587,103.14587,0,0,1,17.58587,1.58406c26.56478,4.74853,39.58668,22.34437,37.381,51.93841-1.12508,15.09281-8.1477,27.05289-20.066,36.30892-7.483,5.81151-7.449,5.94557-2.81468,14.43757,9.651,17.68494,19.40075,35.31605,29.02047,53.0179,3.04715,5.60729,2.75761,6.01733-3.62795,6.07718-5.89378.05525-11.807-.36624-17.67863-.019-5.40565.31964-8.47224-1.90062-10.95442-6.59331-8.25751-15.61164-17.19061-30.872-25.20007-46.60549-3.02647-5.94508-6.79219-8.1-13.13535-7.49731-4.61263.43823-9.30085.03291-13.95372.10427-7.2818.11166-7.43152.14534-7.54031,7.15616-.14914,9.61606-.03694,19.23609-.04718,28.85442-.00693,6.51558-.12106,13.03264-.01375,19.54614.05843,3.53794-1.40962,5.0813-4.95719,5.03512-6.514-.08486-13.03338-.11547-19.54444.05545-4.0498.10631-5.37655-1.628-5.30891-5.57384.18086-10.54589.04684-21.09712.04445-31.64625Q989.726,355.27744,989.73448,332.93808Zm29.80383-32.07911c0,6.81077.01762,13.62158-.0075,20.43227-.01262,3.42284,1.5192,5.10528,5.058,5.02508,9.27493-.21028,18.57021.57567,27.82287-.72893,16.07633-2.26676,23.29481-11.16024,22.11971-27.35275-.89351-12.31138-6.35077-18.49385-18.48916-20.7431-10.43229-1.93308-20.98645-1.14813-31.50117-1.26084-3.59759-.03856-4.99981,1.79772-5.00186,5.125Q1019.53309,291.10731,1019.53831,300.859Z"/><path d="M1136.325,332.5765q-.00887-34.4293-.00443-68.85858c.00023-2.17115.10549-4.34574.01523-6.51266-.15733-3.77811,1.33527-5.89964,5.3545-5.805,1.8591.04379,3.72127-.05789,5.582-.05812q41.4081-.00507,82.81631.004c1.86069.00043,3.72116.06483,5.582.07551,3.41275.01955,5.10065,1.65994,5.07746,5.13552-.03934,5.89251-.14869,11.79161.07321,17.67653.171,4.532-1.95551,5.94554-6.162,5.91718-14.88748-.10035-29.77621-.03288-44.66437-.02513-5.89321.00307-11.78746.08384-17.67931-.00073-3.4406-.04937-5.2282,1.38545-5.2216,4.90518.01591,8.37329.05388,16.74694-.00614,25.11981-.02763,3.86374,1.51556,5.45231,5.58685,5.39539,13.33463-.18649,26.6738-.06369,40.01116-.03445,12.13838.02661,11.50065-.93281,11.22054,10.80968-.13653,5.72424,2.796,12.90106-1.7128,16.83389-3.93271,3.43028-10.73581,1.05713-16.2606,1.14921-10.54279.17574-21.09161-.03954-31.63656.05743-6.78764.06241-7.04785.231-7.17131,6.55719-.18768,9.61159-.21167,19.23256-.00966,28.84333.12232,5.82675.50223,6.13842,6.66191,6.17045,19.54035.10169,39.0815.02805,58.62241.053,10.44276.01335,10.45674.042,10.46754,10.82687.00432,4.34173-.10106,8.68358-.09276,13.02525.00579,3.03235-1.43781,4.59481-4.46041,4.68709-2.169.06622-4.33878.14852-6.50834.15315q-42.80328.09157-85.60666.16134c-.31012.00057-.62046.00952-.93046.00492-8.72962-.12928-8.89877-.19368-8.91821-8.75613C1136.29465,381.584,1136.3308,357.0802,1136.325,332.5765Z"/><path d="M955.53242,414.72932c-18.45227-.40834-14.41827,2.663-20.98287-14.80737-2.06657-5.49977-3.87724-11.09538-5.83064-16.63813-2.65917-7.54534-2.66867-7.6662-10.37-7.72981-13.01826-.10748-26.03834-.093-39.05705-.02651-8.50067.04342-8.58246.17515-11.34116,7.91937-3.01283,8.45767-6.37868,16.81407-8.873,25.42257-1.43429,4.95008-4.0585,6.21484-8.73655,5.98208-6.18413-.30767-12.39627-.1652-18.59352-.05607-4.02878.07094-4.84937-1.68736-3.57679-5.21035q6.1529-17.03356,12.19193-34.10819Q860.55411,318.591,880.7254,261.698a27.7086,27.7086,0,0,0,1.2744-3.48991c1.165-5.61377,4.75-7.4752,10.14128-6.88842,1.83807.20008,3.71706-.00511,5.57605.03638,17.43064.38889,13.83487-2.8264,19.90708,14.05455,14.24968,39.61456,28.11684,79.36676,42.13081,119.06607,2.98816,8.46488,5.77374,17.00642,8.98539,25.38511,1.5807,4.12341-.07469,4.95508-3.64238,4.88253C961.68994,414.67492,958.27924,414.72932,955.53242,414.72932Zm-57.03721-67.94463c3.72121,0,7.44891.13976,11.162-.034,5.1027-.23873,5.64955-.81181,4.08187-5.43532-4.27637-12.61169-8.788-25.14372-13.24158-37.69487-.29955-.84409-.84219-2.21193-1.35574-2.25164-1.34794-.10427-2.02541,1.18573-2.44062,2.32937-2.958,8.14653-5.86167,16.31278-8.79464,24.46843-1.67682,4.66282-3.46084,9.28914-5.03551,13.98592-1.02976,3.07177.11879,4.72551,3.5308,4.66162C890.43163,346.73873,894.46393,346.79648,898.49521,346.78469Z"/><path d="M351.84288,251.66845c-2.10783,22.67948-4.43171,47.3269-6.67211,71.98194-.78424,8.6304-1.15128,17.30224-2.07643,25.91567a53.27958,53.27958,0,0,1-44.83486,46.67069c-6.17991.91053-7.08721.23-6.52919-6.2458,1.99267-23.12438,4.14052-46.2354,6.23206-69.35126.8921-9.859,2.07387-19.70143,2.62928-29.57917A52.27418,52.27418,0,0,1,342.712,242.14985C351.97208,240.244,352.36438,240.56472,351.84288,251.66845Z"/><path d="M411.46248,253.02976c-2.07449,22.07373-4.45964,47.02118-6.74112,71.97809-.73254,8.0137-.92767,16.08207-1.825,24.0742a53.28061,53.28061,0,0,1-44.45713,47.07174c-6.66237,1.12351-7.595.36022-6.94793-6.58981,2.75427-29.57926,5.6155-59.1486,8.38526-88.72644.31713-3.38677.25276-6.80745.45485-10.2071a52.11649,52.11649,0,0,1,41.63333-48.34093C411.77,240.2097,412.03167,240.423,411.46248,253.02976Z"/><path d="M292.29067,249.69815q-3.40176,36.96951-6.78756,73.94038c-.75065,8.32106-1.18763,16.67133-1.99407,24.98633a52.95186,52.95186,0,0,1-43.96994,47.41585c-7.28867,1.26439-8.08281.63018-7.39195-6.98977q4.06462-44.83061,8.27257-89.64825c.25588-2.77379.453-5.55437.6115-8.33555,1.40251-24.61031,18.03349-43.96772,42.02226-48.89026C292.30329,240.27881,292.71716,240.61581,292.29067,249.69815Z"/><path d="M650.69544,662.12015c4.11637-.892,5.47761,2.09339,6.298,5.72037q2.15144,9.51056,4.30553,19.02061c.18438.81132.38747,1.80107,1.46662,1.58644.38594-.07679.754-.94723.88141-1.51159,1.43332-6.34514,2.78354-12.709,4.22953-19.05113.80683-3.53882,2.17251-5.93289,6.7358-5.92692,4.60217.006,5.93381,2.38316,6.63793,6.00343,1.06386,5.46971,1.97926,10.97011,3.15254,16.41549.30074,1.39563.72948,3.49409,2.43471,3.502,1.06006.00489.9777-2.01268,1.24666-3.20289,1.29531-5.73356,2.69424-11.4441,3.954-17.18521.85708-3.90555,2.95133-5.35382,7.137-5.488,16.0399-.51429,16.02921-.685,19.39183,14.50784.73447,3.3184,1.47077,6.63822,2.32012,9.928a8.49225,8.49225,0,0,0,1.31026,2.12994,10.99658,10.99658,0,0,0,1.25234-2.40242c1.22665-5.11839,2.2962-10.27463,3.541-15.38835.96934-3.98188.41885-9.10282,7.10413-8.7212,5.31828.30357,5.48516.25293,7.2249,8.50623,1.0837,5.14084,2.199,10.27639,3.42,15.38556.18916.79138,1.02277,1.42866,1.55837,2.13722a9.12817,9.12817,0,0,0,1.23307-2.18962c1.36755-5.71366,2.80883-11.41778,3.90373-17.18618.875-4.60956,2.83594-6.84624,8.02429-6.68391,18.69924.58522,14.3936-2.59722,18.88641,15.07477a6.71415,6.71415,0,0,1,.14318.91875,28.43637,28.43637,0,0,0,3.26588,10.25814c2.45472-3.035,2.727-6.74581,3.32078-10.39007.5477-3.361,1.28571-6.69465,2.04309-10.0168.80962-3.55155,2.186-5.93016,6.75127-5.8981,4.54527.03194,5.92288,2.30409,6.68646,5.95534,1.26644,6.05578,2.53481,12.11184,3.90868,18.14358.18387.80729.98656,1.47356,1.50254,2.20514a11.52565,11.52565,0,0,0,1.20011-2.40027c1.42616-6.0198,2.867-12.03915,4.113-18.09771.90619-4.40658,3.29441-6.11506,7.832-5.72509,3.202.27516,4.64463,1.26866,3.77863,4.53624-3.64869,13.76712-7.35814,27.51826-10.94061,41.30249-.983,3.7818-3.82666,3.33107-6.608,3.46669-3.21609.15687-5.15226-.73619-5.77835-4.36828-.99679-5.78255-2.51042-11.47854-3.89531-17.18936-.26635-1.09819-.47393-2.75437-2.18656-2.32706-.62762.15654-1.23432,1.31862-1.43275,2.12489-1.33112,5.41008-2.75324,10.81147-3.73133,16.28976-.6258,3.5042-1.68375,5.60032-5.79767,5.54741-3.86883-.04985-6.27137-.73278-7.2917-5.148-2.43732-10.54717-5.44663-20.962-8.21379-31.43325-.3162-1.19647-.55629-2.41277-.84157-3.61759-.28135-1.18852-.51218-2.60956-1.96783-2.7296-1.54922-.12783-1.91441,1.31526-2.22521,2.48377-2.54549,9.56907-5.05114,19.14883-7.57947,28.72257a50.14278,50.14278,0,0,0-1.67352,6.27757c-.54861,4.299-2.91921,5.47869-7.01688,5.45379-3.94993-.0241-5.40349-1.66107-6.01883-5.3367-.8157-4.87267-2.13113-9.66633-3.349-14.46426-.42062-1.6572-.139-4.32331-2.61353-4.16985-1.5175.09413-1.43031,2.41835-1.77407,3.87673-1.13486,4.81458-2.69686,9.57243-3.31823,14.451-.55094,4.32605-2.34269,5.64119-6.59473,5.6703-4.47007.03058-5.81631-2.0955-6.65629-5.9346-1.45412-6.64543-3.35846-13.19247-5.08166-19.77873-1.331-5.087-2.62973-10.18334-4.05731-15.24324a3.22291,3.22291,0,0,0-1.6326-2.02388c-1.76378-.55543-1.93532,1.13713-2.22617,2.20832-2.51286,9.25374-4.94843,18.5285-7.418,27.794a55.07115,55.07115,0,0,0-1.90674,7.16613c-.51348,4.11966-2.35508,5.76334-6.69294,5.8079-4.48616.046-5.92466-1.9522-6.56592-5.90816-.74147-4.57341-1.98909-9.0656-3.04374-13.58683-.40879-1.75258-.32041-4.44222-2.31183-4.589-2.47683-.18251-1.76373,2.63661-2.15762,4.21925-1.269,5.09786-2.67748,10.18652-3.49039,15.36379-.58147,3.70382-2.623,4.40818-5.77045,4.42085-3.30674.01336-5.937-.23554-6.9564-4.33514-3.28463-13.209-6.96333-26.31952-10.32379-39.5104C644.56475,662.889,645.38631,662.10264,650.69544,662.12015Z"/><path d="M845.62346,686.918c0-5.88981-.09736-11.78167.02564-17.66892.14079-6.73938,3.64385-9.60261,9.06661-6.26943,3.09724,1.90372,4.32042,1.56552,6.93048.10543,5.03961-2.81911,10.39257-2.70657,14.63176,1.408,2.82986,2.74665,4.6344,2.057,6.926-.165a9.26412,9.26412,0,0,1,2.32808-1.52216c8.03987-4.01439,17.58326.75238,18.02831,8.30008.12624,2.14159,1.10956,4.24567,1.14878,6.37709.17677,9.606.13238,19.21585.21792,28.82386.03041,3.4156-1.37085,5.07707-4.97464,5.10264-3.53455.02507-6.18071-.58339-6.19748-4.86027-.02432-6.1993-.01352-12.40019-.15852-18.5971-.08691-3.71178-.35326-7.42572-.70833-11.12244a4.54557,4.54557,0,0,0-4.01849-4.43165,5.27887,5.27887,0,0,0-5.998,3.33738,22.96857,22.96857,0,0,0-1.98648,9.94672c.04979,6.50918.07713,13.02127-.06241,19.52835-.12055,5.622-.769,5.975-5.52655,6.20538-4.953.24-5.52109-2.63445-5.4842-6.46786q.09839-10.22827-.06872-20.45853a56.67641,56.67641,0,0,0-.63307-7.386c-.39072-2.65246-1.60725-4.66321-4.70346-4.80247-2.86692-.129-4.6315,1.35863-5.82632,3.76715-1.56638,3.15737-1.69256,6.57767-1.73081,9.98991-.0764,6.819-.14733,13.63957-.078,20.45808.03666,3.60589-1.64214,4.841-5.10821,4.86914-3.58753.029-6.08817-.63444-6.03332-4.94036.08292-6.508.02171-13.01792.02171-19.527Z"/><path d="M1306.05937,694.2366c0-8.6875-.10549-17.37681.03775-26.06192.09321-5.65069,3.54086-8.37875,8.19407-5.40429,3.65193,2.33439,5.40315,1.4527,8.57717-.069,6.93657-3.32573,14.34387-.86515,18.19974,6.41267,6.04248,11.40487,5.94187,23.366.0956,34.77972-4.15393,8.10973-11.216,10.1618-19.64652,6.011-4.21362-2.07453-4.68754-.72346-4.6415,2.90869.05092,4.0323-.08469,8.06687-.03877,12.09934.03911,3.42309-2.10317,4.09374-4.86738,4.08709-2.876-.00693-5.84741.06457-5.85491-4.04793q-.028-15.3577-.00614-30.71536Zm27.80025-7.00818a20.89769,20.89769,0,0,0-1.73895-9.87908c-3.00305-6.27012-9.04393-6.656-12.89309-.93887-3.44276,5.11333-3.14436,15.926.57953,20.99913,3.51506,4.78866,8.97323,4.68527,11.96707-.4093A17.78112,17.78112,0,0,0,1333.85962,687.22842Z"/><path d="M1304.07182,486.49227c-3.96319,6.6202-4.76041,14.3204-7.27828,21.43543-1.029,2.90808-1.639,5.96262-2.48718,8.937-.60261,2.11334-1.2649,4.28944-4.00718,4.40078-3.3334.13534-3.85507-2.43352-4.52691-4.87153-2.38168-8.64441-4.81145-17.27558-7.18847-25.92125a26.82016,26.82016,0,0,0-.74539-3.61072c-.3224-.73754-1.35392-1.73274-1.95005-1.659-1.07688.13323-.77017,1.40217-.76494,2.26516.05058,8.36312.14448,16.72623.152,25.08929a35.1554,35.1554,0,0,1-.45574,6.45741c-.3233,1.73036-1.808,2.40771-3.52916,2.18751a2.47194,2.47194,0,0,1-2.26107-2.47768c-.10288-1.232-.17256-2.47075-.17324-3.70655-.00728-13.94048-.05286-27.88135.05672-41.821.01967-2.50937-1.11178-5.92283,3.18448-6.45982,3.87565-.48442,6.42751.60346,7.47654,4.90239,2.27073,9.305,4.87954,18.52929,7.45869,27.75614.82155,2.939,1.9863,5.7821,2.99407,8.669,2.686-2.08486,2.83969-5.25576,3.64181-8.2018,2.2738-8.35152,4.68379-16.66621,7.06774-24.98749a37.84691,37.84691,0,0,0,1.43463-4.3982c.599-3.86477,3.27508-3.96864,6.22823-3.71429,3.05818.26337,3.06228,2.57133,3.06489,4.76155q.02661,22.769-.01955,45.538c-.00364,1.888-.1654,3.934-2.6137,4.183-2.86618.29147-3.77561-1.63192-3.8071-4.07965-.07583-5.885-.0191-11.77205-.1255-17.65629-.07787-4.31257.59385-8.67448-.7155-12.92078l.5859-1.27223Q1304.42019,485.90452,1304.07182,486.49227Z"/><path d="M683.603,573.89677c-.00137,7.43828.02285,14.87662-.01495,22.31473-.01262,2.47632.22423,5.32017-3.584,5.07081-3.12474-.20468-2.91932-2.67071-2.92944-4.82668-.042-8.98767-.02439-17.97562-.07116-26.96323-.00586-1.11769.15539-2.66594-1.43724-2.74909-1.13281-.05923-1.05915,1.30577-1.2989,2.162q-3.00051,10.71578-5.99314,21.43372c-.582,2.08794-1.091,4.19719-1.71535,6.27205-.72215,2.39965-1.40536,4.94491-4.72551,4.72182-2.788-.1874-3.21109-2.38083-3.80637-4.52794-2.31125-8.337-4.68924-16.65563-7.077-24.97118-.59385-2.068-1.24535-4.12642-2.017-6.13285a10.34685,10.34685,0,0,0-1.534-2.14932,14.95568,14.95568,0,0,0-.46778,2.67418c.03626,8.367.1326,16.73373.19478,25.10071.01382,1.85882.05355,3.72508-.08457,5.57554-.1662,2.22674-.4974,4.569-3.58219,4.26625-2.48166-.2435-2.58574-2.35559-2.62035-4.18548-.10549-5.577-.10271-11.15637-.1097-16.73481-.01017-8.05812-.249-16.12857.13579-24.16861.16256-3.39621-2.55277-8.73257,4.20935-9.306,4.703-.39879,5.34495.40242,7.4825,8.42211q3.5802,13.4317,7.20894,26.8504a39.26772,39.26772,0,0,0,1.44957,4.39857,11.01973,11.01973,0,0,0,1.3442,1.98756,11.62356,11.62356,0,0,0,1.30872-2.31836c1.92333-6.52016,3.76578-13.06425,5.65211-19.59537,1.45929-5.05268,3.031-10.07455,4.3913-15.15337.95183-3.5536,2.96013-5.13908,6.696-4.58478,3.75054.55657,2.92671,3.44287,2.95945,5.73214C683.66881,559.63924,683.60435,566.76843,683.603,573.89677Z"/><path d="M1094.30662,685.8337a29.64117,29.64117,0,0,1,3.73833-15.50225c3.30793-5.92255,8.36061-9.05326,15.12449-9.00137a16.2695,16.2695,0,0,1,15.07392,9.08788c2.7317,5.04438,3.48857,10.51386,3.6883,16.11969.11038,3.09684-1.417,4.44933-4.51009,4.41654-5.56866-.05912-11.14563-.12909-16.70645.10486-4.29592.18064-5.29333,2.25278-3.24848,5.97985,2.69009,4.90341,7.07854,5.62652,11.193,1.73644,1.07643-1.01771,1.46953-2.91836,3.238-3.01334,2.78194-.14949,5.88435-.275,7.86042,1.87456,2.19775,2.39078-.22792,4.64673-1.40256,6.61093-3.54758,5.9321-9.18286,7.98877-15.80032,7.70486-6.69068-.287-11.77871-3.16652-14.81109-9.38657A36.27931,36.27931,0,0,1,1094.30662,685.8337Zm18.12857-3.44322c6.56484.07787,7.70208-.38531,7.65274-3.02368-.07366-3.9451-3.40752-7.31829-7.01921-7.1023a7.194,7.194,0,0,0-6.429,6.81236C1106.48434,683.71854,1110.28053,681.92935,1112.43519,682.39048Z"/><path d="M1009.34781,690.96658a47.95407,47.95407,0,0,0-6.21368.05314c-2.2181.31813-5.475-1.27917-6.30678,2.05043-.73425,2.939,1.14827,5.46845,3.48039,7.09343a5.89334,5.89334,0,0,0,7.68343-.24838c.90329-.78678,1.24694-2.22379,2.15978-2.99038,3.18335-2.67355,6.75036-1.38472,9.42942.40231,2.78388,1.85683.34627,4.49167-.79006,6.49174-3.40855,5.99916-8.91287,8.30434-15.5683,8.17435-6.70057-.13085-12.07666-2.782-15.07153-8.996a36.81914,36.81914,0,0,1-1.36676-29.75018c2.99646-8.07,9.34439-12.22666,16.99031-11.95451,7.76744.27647,13.56312,4.68641,16.296,12.93533,1.55114,4.68209,3.69785,10.0804,1.37812,14.43055C1018.86647,693.49968,1012.99337,689.95518,1009.34781,690.96658Zm-5.8191-8.53665c2.439-.53923,6.076,1.326,6.60485-2.92166.466-3.74292-3.16777-7.3691-6.786-7.26765-3.40275.09532-7.27544,4.18054-6.62759,7.57919C997.50363,683.9306,1001.16226,681.76133,1003.52871,682.42993Z"/><path d="M1239.55551,686.81816a28.58107,28.58107,0,0,1,3.90259-16.98241c6.79753-11.66963,22.95253-11.515,29.66741.25743a25.8321,25.8321,0,0,1,2.4923,5.95722c3.60759,13.293,2.394,14.87252-11.07265,14.91083-3.4015.00967-6.80663.03166-10.203.1936-2.48467.11851-2.998,1.81755-2.52128,3.89111,1.40644,6.11517,7.12914,7.98422,11.8019,3.79817,1.32026-1.18277,1.88218-3.37176,4.16144-3.18,2.72988.22969,6.11227-.23594,7.595,2.42409,1.30447,2.34019-.86725,4.65264-2.22139,6.64782-7.22678,10.647-24.3244,9.56685-30.12-1.86968A29.818,29.818,0,0,1,1239.55551,686.81816Zm18.86907-4.40642c2.36077-.66365,6.02134,1.49613,6.76741-2.66105.62637-3.4901-3.20438-7.49682-6.64213-7.49364-3.53848.0033-7.373,3.83325-6.84528,7.34092C1252.33982,683.82016,1256.005,681.78662,1258.42458,682.41174Z"/><path d="M946.73,687.65136a171.22554,171.22554,0,0,0,1.2225,18.49781c.68594,4.68344-.23355,5.42656-4.87784,5.17283-1.22142-.06673-2.99031.13187-3.55337-.5639-2.62489-3.24326-4.83958-1.79328-7.80154-.36059-6.32184,3.0579-13.1125,1.61213-16.94461-2.923-3.66517-4.33759-4.22668-12.1285-1.37341-17.492a11.408,11.408,0,0,1,6.83164-5.86145c3.823-1.203,7.64052-2.42908,11.49423-3.5266,2.27357-.64757,4.17058-1.5998,3.80732-4.3303-.39628-2.97855-2.587-3.951-5.3001-4.08669-2.25464-.11277-4.51566.17034-5.73907,2.25129-2.10282,3.57661-4.90859,2.7047-8.05675,1.94987-2.85492-.68457-3.52637-2.24322-2.68287-4.67913,1.35863-3.9235,3.56593-7.24548,7.65944-8.77116a25.75271,25.75271,0,0,1,17.28184-.46466,10.99172,10.99172,0,0,1,7.97143,10.36636C946.95155,677.75541,946.73,682.70975,946.73,687.65136Zm-18.29147,14.3898c4.22316-.13977,7.47125-4.06942,7.37235-8.96976-.03877-1.91748-.28909-3.67882-2.8692-3.73742-5.027-.11408-10.30611,3.78266-9.94933,7.59169C923.28882,700.08986,925.15821,701.89519,928.43852,702.04116Z"/><path d="M1140.69527,685.92873c.00079-5.87986-.10732-11.76222.03024-17.63884.146-6.2305,4.67-8.73325,9.50183-4.69624,2.077,1.73542,2.69237,2.40027,4.80531.7272a13.869,13.869,0,0,1,10.45481-2.88016c6.13865.67474,10.72524,4.1337,11.11607,10.56655.73061,12.0234.46574,24.11154.46176,36.17274-.00113,3.80113-3.13344,3.02641-5.47385,3.13657-2.68441.12635-5.0005-.28648-4.9938-3.80375.0124-6.49833.05764-12.99865-.08366-19.49437a68.02123,68.02123,0,0,0-.86226-10.1307c-.49-2.82253-1.84-5.38155-5.25082-5.60931-3.56564-.23816-5.913,1.7232-7.1339,4.829-1.37267,3.492-1.50556,7.24593-1.52239,10.97374-.02785,6.189-.11572,12.37859-.06184,18.56692.03865,4.43449-2.73591,4.71562-6.163,4.7516-3.64624.0382-4.91319-1.59338-4.85749-5.04688C1140.77177,699.54636,1140.69459,692.737,1140.69527,685.92873Z"/><path d="M1064.40332,686.4296a73.42144,73.42144,0,0,0,1.387,8.41189c.85918,3.17453,3.02362,5.49744,6.49151,5.82114,3.11729.291,5.32289-1.40706,6.57017-4.18389.74062-1.64868.79007-4.15188,3.03227-4.13676a26.50134,26.50134,0,0,1,7.20473,1.571c1.32287.39736,1.74383,1.55927,1.35107,2.96445-1.82716,6.53562-4.77144,12.39814-11.83464,14.30829-7.23622,1.95686-14.22484,1.26314-19.57888-4.87875-8.09154-9.2821-8.024-29.70334-.16575-39.16641,6.94248-8.36022,25.17233-8.12684,29.53248,4.1092.69321,1.94561,2.69044,4.21737.17313,5.73827-2.56993,1.55257-5.68666,2.393-8.74678.71067a1.65313,1.65313,0,0,1-.63057-.655c-1.93334-3.73514-4.78224-5.91294-9.0278-4.20526-4.40755,1.77282-4.88318,6.006-5.36586,10.06528C1064.68581,683.82534,1064.58987,684.74847,1064.40332,686.4296Z"/><path d="M984.70511,601.47255c-3.717,0-7.438-.10822-11.14973.0303-3.75162.13988-5.83194-1.13343-5.81091-5.24747.07594-14.86752.05093-29.73579.01592-44.6036-.00819-3.47505,1.49282-5.01056,5.05608-4.94827,7.74118.13528,15.48611.043,23.22957.0694,2.362.00808,4.30478.51292,4.25783,3.54837-.05149,3.32635-2.454,3.03-4.577,3.053-5.57481.06031-11.15393.15705-16.72464.00205-3.66046-.1018-5.04154,1.57553-4.80816,5.01062a7.9658,7.9658,0,0,1-.00875.92887c-.50587,10.29463-.43346,10.36727,9.77023,10.48811,3.71547.044,7.43322.05468,11.14472.20672,2.175.08907,3.26349,1.26667,3.21824,3.58543-.04831,2.48053-1.5824,3.1884-3.58406,3.22853-4.95389.0993-9.91415.19564-14.86451.04621-3.6309-.10947-5.7875.64729-5.75965,5.0059.09811,15.3535-.472,12.4547,12.21307,12.767,4.02423.09907,8.05266.02012,12.07768.101,1.69052.034,3.07808.79285,3.15254,2.65542.079,1.9788-.53247,3.863-2.91529,3.93072-4.64093.1321-9.28834.03871-13.933.03871Z"/><path d="M1397.78275,601.9221c-9.64882-.13954-16.646-5.6616-18.0374-14.24844-.25555-1.577-.33376-3.18681,1.4535-3.94,1.889-.79609,3.646-.67406,4.66446,1.45248a33.4472,33.4472,0,0,0,1.90719,4.225,12.85439,12.85439,0,0,0,13.81344,5.288c3.81256-1.09728,6.66032-3.44441,7.16039-7.63108.47416-3.96864-1.86455-6.50555-5.21592-7.91579-4.55169-1.91549-9.403-3.15277-13.86732-5.23525-8.70108-4.05872-11.28671-14.09758-5.72566-21.82676,4.3955-6.10921,10.793-6.73257,17.54279-5.54656a14.34069,14.34069,0,0,1,11.896,11.55175c.35479,1.82744.58135,3.83665-1.92071,4.46274-2.05168.51326-3.66887-.054-4.34151-2.267-1.73246-5.69968-5.7493-7.71589-11.40936-7.12265-4.45075.46648-7.53076,2.92313-7.93228,6.42705-.47631,4.15638,2.02121,6.3,5.46329,7.575,3.47368,1.28673,7.0632,2.25885,10.54734,3.51972,8.63606,3.1252,12.71212,9.56379,11.37867,17.79544C1413.79644,596.90165,1407.12885,602.05726,1397.78275,601.9221Z"/><path d="M1177.72781,580.95764c0-4.02826-.20234-8.06983.06-12.08092.23622-3.61243-1.8433-10.36438,6.28586-5.30044,1.0006.62335,3.65841-1.68273,5.64733-2.32348,4.73984-1.52694,8.07767,3.08524,11.83271,3.24882,3.69637.16108,7.00363-4.515,11.87385-3.33863,4.1703,1.00731,6.66533,3.541,7.29249,7.47358,1.56956,9.84009.70072,19.77555.55646,29.6739a2.7872,2.7872,0,0,1-2.90449,2.9582c-2.46467.02171-3.03136-1.7012-3.0458-3.72247-.03967-5.57724-.01705-11.15483-.057-16.73208a70.43778,70.43778,0,0,0-.23668-7.42459c-.33808-2.9786-1.63106-5.45021-5.07735-5.6197a6.02979,6.02979,0,0,0-6.3244,4.5056c-1.25353,3.85217-1.34982,7.912-1.355,11.95581-.00591,4.6456-.04479,9.29381-.22076,13.93514-.06025,1.588-.75551,3.08382-2.73409,3.03971-1.87206-.04166-2.7259-1.29713-2.74773-3.02141-.07457-5.88651-.00818-11.77518-.12368-17.66061a46.58945,46.58945,0,0,0-.695-8.28917c-.42482-2.10232-1.52432-4.10545-4.15132-4.38862a5.6888,5.6888,0,0,0-6.17048,3.15918,25.15632,25.15632,0,0,0-2.60029,11.66685c.01615,5.26685.02808,10.53461-.06059,15.80026-.02864,1.68995-.747,2.98316-2.82241,2.72266a2.32041,2.32041,0,0,1-2.08214-2.581c-.064-5.88492-.02831-11.77092-.02831-17.65652Z"/><path d="M1352.842,688.58268c0-3.707.06593-7.41578-.02921-11.12034-.04434-1.72428.01216-3.22711-1.82978-4.724-3.96432-3.22166-4.56772-7.69151-.98275-10.18266,2.63519-1.83114,2.75523-3.6201,2.874-6.0285.07491-1.51778-.23668-3.25428,1.07517-4.34076,2.58846-2.144,5.462-5.82916,8.35868-5.067,3.21256.84526,1.24194,5.30158,1.45566,8.14912.255,3.3982-.31319,6.30718,4.70516,7.28663,3.86428.75421,3.93919,8.95357.0698,9.92381-4.7246,1.18476-4.76144,3.94727-4.71846,7.47114.05286,4.32428-.04707,8.65118.04785,12.974.08072,3.675-.38935,7.54179,5.36439,7.70952,3.03113.08844,1.91855,3.31839,2.186,5.25213.3075,2.22253-.03251,4.25016-2.49741,5.36734-7.19609,3.26144-14.8702-.80064-15.74325-8.786-.50041-4.57677-.0906-9.25294-.0906-13.88438Z"/><path d="M1205.66413,667.13906c.04718,3.15294-.25748,5.49881-3.67012,5.78341-3.2844.274-3.772,2.67355-3.77345,5.32317-.003,5.255-.05309,10.51171.064,15.76434.07083,3.178.38935,6.20186,4.70892,6.65015,4.10948.42641,3.17322,4.00757,3.34727,6.54431.21337,3.10974-2.03065,4.0298-4.74961,4.517-8.41734,1.50806-13.18583-1.60685-13.98487-10.27746-.65025-7.05644-.24964-14.20581-.4363-21.31078-.07674-2.9232.82951-6.22863-2.9453-7.99383-.76074-.3557-.966-2.1113-1.22751-3.26673-.29988-1.32447,5.50967-16.99122,6.70716-17.7523,2.31314-1.47015,4.52612-4.78974,6.9427-4.00211,3.00044.9778,1.25285,4.787,1.47964,7.335.32285,3.62743-.6557,7.56333,5.06826,7.98235C1205.99289,662.6404,1205.56125,665.55177,1205.66413,667.13906Z"/><path d="M1522.829,516.679c1.7469-5.47972,3.61407-11.35878,5.49545-17.2333,3.01056-9.40038,6.07977-18.78245,9.014-28.20656.79007-2.53717,1.62606-4.52248,4.8484-4.56019,3.30941-.03871,4.13506,2.2597,4.93513,4.59961q7.6329,22.324,15.12507,44.69557c.63546,1.91009,1.58275,4.45655-1.61128,5.24218-2.34292.57635-4.20589-.11283-4.99595-2.77376-.96684-3.2557-2.44319-6.391-3.10536-9.69736-.63274-3.15879-2.32724-4.0435-5.17057-3.84416-.92261.06468-1.85478.00182-2.7824-.01421-10.87314-.18763-10.86586-.18592-14.20711,10.4652a25.18291,25.18291,0,0,1-1.594,4.34844c-1.07927,2.02348-3.1663,1.97324-4.88091,1.369C1522.12089,520.44259,1522.458,518.6268,1522.829,516.679Zm19.59878-18.43471c6.06782-.04991,6.43683-.47058,4.76222-6.24818-1.11166-3.83535-2.36917-7.63211-3.70081-11.39675-.26657-.75375-1.16293-1.28463-1.76884-1.91833a10.03091,10.03091,0,0,0-1.29184,2.11363c-1.098,3.50921-2.07987,7.05473-3.12628,10.58036C1535.45847,497.587,1535.98287,498.29724,1542.42778,498.24427Z"/><path d="M1568.12985,501.10653c0-5.27458-.07128-10.5507.03763-15.823.03944-1.911.96843-4.53055,3.08819-3.37154,3.64784,1.99449,6.38318-.15557,9.46762-.8132,4.428-.94416,7.498,2.49854,11.11517,3.27986,3.32544.71839,6.52845-4.13933,11.00023-3.45476,4.36367.668,7.58226,3.03909,8.145,7.62165,1.2134,9.879.68741,19.83051.4729,29.75472-.03479,1.60742-.78825,3.04932-2.80957,2.86641-1.97664-.17887-2.39885-1.64522-2.40908-3.29992-.04-6.51669.0116-13.03469-.1006-19.55-.12312-7.1472-1.6305-9.98275-5.31573-10.47032-4.19634-.55515-6.969,2.49769-7.73254,9.62228-.55964,5.2224-.309,10.53188-.41323,15.80271-.0308,1.55114-.00727,3.10411-.06741,4.654-.06423,1.6505-.52963,3.12707-2.50093,3.22733-2.07395.10555-2.52435-1.43627-2.54458-3.04886-.06969-5.58509-.04343-11.17132-.075-16.757-.01751-3.095.109-6.18253-.95138-9.20332-.89442-2.54844-2.07941-4.42647-5.16135-4.36162a5.83459,5.83459,0,0,0-5.7368,3.90145,25.82115,25.82115,0,0,0-1.788,10.01174q.023,7.91316-.05161,15.8263c-.01956,1.99108-.46279,3.79823-3.04364,3.63266-2.01109-.129-2.484-1.78339-2.51514-3.2972-.11459-5.58134-.04558-11.16637-.04558-16.75Z"/><path d="M1471.048,494.40062c0,7.42441-.011,14.84883.00478,22.27324.00738,3.4643-1.41633,5.76868-5.0154,4.19042-2.42124-1.0617-4.04559.05576-6.06885.44824-6.63088,1.28605-10.90156-.4583-14.03693-6.21573-4.94571-9.0815-4.64321-18.50871-.21588-27.60858,2.74011-5.63209,7.41833-7.77164,14.05035-5.87946,4.81679,1.37432,5.18955-.40208,5.07314-4.08556-.078-2.47143-.01023-4.94957.05764-7.423.04694-1.70944.81769-3.05406,2.62916-3.20551,2.3037-.19257,3.34056,1.25748,3.45037,3.37847.11209,2.16086.09458,4.32937.09879,6.49467q.01688,8.81637.00386,17.63276Zm-6.1848,6.58228a16.60278,16.60278,0,0,0-1.9704-9.69753c-3.06364-5.06547-9.368-5.197-11.82974.06468-3.16653,6.76815-3.358,13.89336.42049,20.544,2.74,4.82276,8.19567,4.65707,11.28148.03848C1464.96994,508.63245,1464.92936,504.90607,1464.8632,500.9829Z"/><path d="M867.52,494.95475c.00034,7.11594-.01489,14.232.00642,21.34789.01166,3.87736-1.31963,6.26717-5.54848,4.34156-2.09834-.95547-3.47215.279-5.19381.62126-7.49592,1.4897-12.62573-1.11457-15.556-8.26445a30.844,30.844,0,0,1-.06178-23.55684c2.62149-6.69329,7.81212-9.88266,14.739-7.89578,5.37638,1.54211,5.66473-.53219,5.46238-4.55289-.10856-2.1591-.00722-4.33022.03638-6.49521.04177-2.07361.75607-3.7242,3.162-3.601,2.39271.12243,2.929,1.95462,2.93808,3.92393C867.54123,478.86688,867.51963,486.9109,867.52,494.95475Zm-6.1586,6.58512c.20206-3.61049-.09947-7.3129-2.20855-10.58105-2.95542-4.57971-8.48685-4.58682-11.41448-.08236-3.16146,4.86449-2.9677,16.8556.34655,21.444,2.91671,4.038,7.94353,4.08629,10.90969.05064C861.33773,509.18306,861.53945,505.47162,861.36137,501.53987Z"/><path d="M1647.14986,573.41119c-.22474-6.70807.95888-13.35151,5.116-19.14861,4.58375-6.39187,10.91054-8.85552,18.64922-7.85747,6.8904.88862,11.02842,5.126,13.58347,11.24146.70719,1.69284,1.729,3.67245-.59079,4.812-2.11022,1.03647-4.225.94672-5.45033-1.64931-1.62572-3.444-3.69751-6.48594-7.67036-7.5311a12.57919,12.57919,0,0,0-14.88827,8.12564,36.00772,36.00772,0,0,0-.14062,24.62776c1.76657,5.062,5.19819,8.42626,10.76,8.96408,5.73611.55463,9.34325-2.50168,11.74222-7.35877,1.24-2.51048,1.20613-7.2668,5.81614-4.68447,3.74139,2.09584,1.32265,5.6483.09049,8.23261-3.146,6.59848-8.068,10.895-15.91855,10.767-7.75527-.12647-13.76092-3.04972-17.34021-10.25593A37.38223,37.38223,0,0,1,1647.14986,573.41119Z"/><path d="M942.11839,574.4281c-.0025,7.41618.00784,14.83229-.00722,22.24846-.00688,3.36972-1.34215,5.89225-4.98174,4.16883-2.84072-1.34522-4.69584.50468-6.99687.80268-5.88208.76182-10.20266-1.17919-13.10591-6.49429-4.78115-8.7532-4.57625-17.87143-.70873-26.78407,2.65543-6.11961,7.652-8.654,14.46545-6.7345,4.6909,1.32157,5.281-.173,5.12742-3.99825-.09913-2.46694-.01239-4.94366.05656-7.41418.04769-1.70711.83787-3.07467,2.6104-3.25656,2.30586-.23662,3.41173,1.25809,3.4468,3.36086.1031,6.17844.07537,12.35909.09543,18.53884C942.126,570.72,942.12089,572.57406,942.11839,574.4281Zm-6.13706,8.38443c.00807-6.58285-.51957-9.15841-2.19906-11.751-2.96758-4.581-8.42956-4.70965-11.3976-.26857-3.31714,4.96356-3.15316,16.42959.30517,21.34614,2.96,4.2081,7.67678,4.3365,10.7984.27686C935.91511,589.25977,936.06454,585.55543,935.98133,582.81253Z"/><path d="M933.19461,494.48667A26.36251,26.36251,0,0,0,936.7182,508.151c4.94417,9.057,15.39857,9.23662,20.82707.49239.96769-1.55864,1.41172-3.43338,2.27682-5.06722.89817-1.69632,2.41192-1.69461,3.96227-.94712,1.46373.70578,2.4666,1.66136,2.24015,3.559-.73664,6.17434-7.41162,13.74734-13.52782,15.22044-8.12161,1.95613-16.05871-.92432-20.507-7.4422-6.76934-9.919-6.96271-29.02087-.38315-39.04694,4.326-6.592,10.51477-9.32913,18.26766-8.6778,7.2972.61307,11.80394,4.86721,14.45208,11.38557.68753,1.69228,1.53615,3.63482-.66161,4.88341-2.17024,1.233-4.27841,1.15668-5.33573-1.50408a13.59035,13.59035,0,0,0-5.01125-6.52345c-4.83265-3.239-11.6486-1.59827-15.54942,3.629C934.85477,482.0164,933.05342,488.61335,933.19461,494.48667Z"/><path d="M637.68628,493.5004c.78364-6.74683,1.36846-13.5604,5.55138-19.353,4.37845-6.06348,10.36244-8.55816,17.74332-7.905,6.86443.60742,11.39743,4.36061,14.09684,10.52063.83935,1.91531,2.37776,4.13989-.24861,5.70479-2.586,1.54086-4.42785.85868-5.69343-2.271-1.41956-3.51063-3.97307-6.25375-8.005-7.05769-5.65842-1.1282-10.92646,1.48862-13.64213,7.26833a30.72611,30.72611,0,0,0-.04888,26.92975c2.058,4.4852,5.46794,7.38673,10.71928,7.66769,5.44822.29158,8.50021-3.026,11.01632-7.129a24.65566,24.65566,0,0,0,1.25041-3.48431c.85565-2.05878,2.34013-2.7687,4.44233-1.815,1.974.89561,2.48417,2.21514,1.94726,4.45955-1.852,7.742-7.83007,13.73171-14.9986,14.64756-9.12925,1.1664-16.17136-2.28392-20.01416-10.15747C639.05184,505.89007,638.18146,499.7463,637.68628,493.5004Z"/><path d="M1619.40623,494.1682c0-7.41077-.03127-14.82177.01978-22.23217.01443-2.09629-.33229-4.8322,2.68725-4.99371,3.64818-.19516,3.3409,2.84257,3.45288,5.279.0707,1.541.0881,3.09005.01943,4.63062-.17563,3.93425.08754,6.09182,5.47761,4.66657,7.47131-1.97551,12.68928,1.544,14.83792,8.83465,2.02757,6.87944,2.57084,13.89257.40458,20.93-2.43318,7.905-8.23239,11.54425-16.194,9.96036-1.17771-.23435-2.273-1.09944-3.43457-1.16339-7.2286-.398-7.24964-.34979-7.27965-7.38485-.02626-6.17554-.00534-12.35136-.00534-18.527Zm22.09857,7.26868a16.89328,16.89328,0,0,0-1.65448-9.08623c-1.34982-2.61194-2.815-4.71943-6.09193-4.79269a6.58516,6.58516,0,0,0-6.53061,4.27471c-2.7267,6.47543-2.98236,13.2779.00693,19.61237,2.53242,5.36592,8.50271,5.31681,11.65787.344A15.45313,15.45313,0,0,0,1641.5048,501.43688Z"/><path d="M1207.52562,493.97239c0,7.40839.01739,14.81688-.00773,22.22521-.01171,3.45544-.577,6.82743-5.13987,4.30979-2.2879-1.2624-3.35273.32126-4.98777.70708-6.85357,1.61737-10.94532-.22576-14.60987-6.46792-4.56613-7.77778-4.21487-16.06667-1.56456-24.13791,2.79547-8.51386,8.27467-10.97381,17.3908-8.23625,2.67815.80427,3.29554.28027,3.34988-2.06356.07855-3.39393.05707-6.79005.10708-10.18481.025-1.7016.66332-3.07555,2.55232-3.1782,1.94561-.1057,2.71374,1.32933,2.75478,2.95465.14016,5.55263.14369,11.10874.18518,16.66365.01841,2.46933.003,4.93883.003,7.40827Zm-5.57776,8.043a16.64929,16.64929,0,0,0-2.6403-11.45853c-2.70556-4.07044-7.74971-4.099-10.77583-.2173-3.4464,4.42074-3.38786,17.45679.09855,21.95744,3.38263,4.36674,8.32322,4.09465,11.231-.66758A14.80055,14.80055,0,0,0,1201.94786,502.01539Z"/><path d="M1342.27162,586.40683c.16324,3.23706.30818,6.02531.44357,8.81408.26123,5.37637.2277,5.47812-5.69576,3.65278a3.92827,3.92827,0,0,0-3.40888.526,16.39328,16.39328,0,0,1-6.01133,2.33189c-6.76832.79581-11.69049-1.91606-13.25358-7.48279-1.83818-6.5467,1.09473-12.55382,7.62523-14.9055,3.17721-1.14412,6.59132-1.618,9.87459-2.48473,1.69768-.44818,3.9974-.3723,4.04423-2.9341.04832-2.63672-.8635-4.99664-3.59736-5.88549-3.68751-1.199-7.3059-1.38938-10.015,2.17229a20.845,20.845,0,0,1-2.1084,2.95331,3.07205,3.07205,0,0,1-3.507.12016c-1.22625-.62643-1.43906-1.91191-1.082-3.2112a11.47988,11.47988,0,0,1,7.9142-8.39136c11.16165-3.63357,18.12743,1.16276,18.74425,13.06748C1342.447,578.77353,1342.27162,582.81731,1342.27162,586.40683Zm-16.03484,9.334c4.41028-.0428,7.2452-1.86359,8.68335-5.79278.7297-1.99353,2.11431-4.36435.30886-5.9234-2.67759-2.31211-5.71349-.17291-8.56887.47609a8.8005,8.8005,0,0,0-2.64531.67451c-2.52662,1.56234-4.03957,3.80852-3.15788,6.86915C1321.64291,594.77244,1323.94456,595.59713,1326.23678,595.74087Z"/><path d="M1346.34165,508.49877c.09015,1.63669.39561,5.34335.47029,9.05468.07628,3.78635-1.59559,5.14038-4.18587,2.84612-2.55346-2.26153-4.08016-1.80977-6.26234-.33746a11.91482,11.91482,0,0,1-7.11742,1.66227c-6.19345-.08282-9.50877-2.53328-10.85359-8.051-1.43929-5.90526.98434-11.65019,6.38385-13.83151,3.39945-1.37336,7.13562-1.90418,10.70638-2.86635,2.05247-.55317,4.52339-.82344,4.3456-3.811-.188-3.16339-1.86559-5.1514-5.11361-5.62351-3.21313-.467-6.21436-.26175-8.276,2.72516a25.77082,25.77082,0,0,1-1.41542,2.37049,3.55691,3.55691,0,0,1-4.27557.67911c-1.74451-.7484-1.644-2.54146-.97036-3.98387a16.06587,16.06587,0,0,1,2.92018-4.65247c4.76359-4.7267,10.708-4.53311,16.531-2.987,5.79761,1.53944,6.9959,6.46383,7.09605,11.716C1346.40747,497.74385,1346.34165,502.082,1346.34165,508.49877Zm-6.49037-3.15322c.05718-.72294-.55009-2.12949-1.81113-2.08731-4.29637.144-8.662.487-11.9565,3.79249a4.41642,4.41642,0,0,0-1.13121,5.07735,5.75375,5.75375,0,0,0,4.95912,3.61413C1334.99913,516.37528,1340.09319,511.36205,1339.85128,505.34555Z"/><path d="M718.44438,586.96454c.16011,2.84776.47415,6.87119.58686,10.90019.10186,3.642-2.24544,4.7815-4.50463,2.44773-2.15228-2.22327-3.55172-1.77526-5.49335-.54793a13.21621,13.21621,0,0,1-7.04484,2.03025c-6.35788.10418-10.55485-2.849-11.68186-8.34845-1.244-6.07011,1.24706-11.43534,6.85193-13.63707,3.42366-1.34494,7.1467-1.91572,10.711-2.92,1.682-.474,3.98972-.36974,4.08919-2.908.10362-2.64547-.78677-4.9635-3.512-5.93414-3.72735-1.32777-7.278-1.29958-10.001,2.14875-.74692.94592-1.10308,2.404-2.03445,2.94326a4.68354,4.68354,0,0,1-3.52415.17665c-1.21034-.43584-1.53938-1.74911-1.20676-3.12326a10.719,10.719,0,0,1,4.58239-6.75382c5.09872-3.32528,10.63851-3.34744,16.06735-1.32584,5.20694,1.939,5.89345,6.78855,6.08158,11.56289C718.57045,577.70415,718.44438,581.74378,718.44438,586.96454Zm-11.262-3.62175a49.83525,49.83525,0,0,0-6.73433,1.80266,5.45452,5.45452,0,0,0-3.55507,6.60138c.72089,3.1618,3.3833,4.09238,6.36322,4.0066,4.69561-.1351,8.1253-3.71092,8.72592-8.9398C712.29459,584.09318,711.23658,582.77434,707.18234,583.34279Z"/><path d="M1126.47065,505.34356c.224,4.01843.53281,8.03441.64683,12.05591.10629,3.75043-1.66,5.23911-4.093,3.089-2.38111-2.1043-3.852-2.26482-6.15116-.60357a11.13134,11.13134,0,0,1-6.13137,1.87092c-6.60633.34683-10.47561-2.16888-11.93513-7.85668-1.62958-6.35054.9865-12.07359,6.96407-14.30743a105.60368,105.60368,0,0,1,10.72263-2.83958c1.85308-.477,3.6334-1.0409,3.61385-3.45492-.0191-2.36344-.91455-4.39136-3.199-5.16551-3.66239-1.241-7.33728-1.60133-10.11536,1.9904-.90739,1.17328-1.04369,3.03426-2.89938,3.34454-1.20772.20207-2.5871.47512-3.43867-.62028a3.97379,3.97379,0,0,1-.62273-2.50156,8.212,8.212,0,0,1,2.381-4.92883c4.81191-5.37313,10.95931-5.26349,17.18254-3.76145,4.92979,1.18981,6.80606,4.56482,7.17938,11.59261.11493,2.16439.05718,4.33815.06741,6.50771.00887,1.85973.00182,3.71957.00182,5.57935Zm-6.36237,1.03078c.06332-2.22344-.73186-3.3754-3.23791-3.27861-5.81148.22423-11.58068,3.40246-12.01652,6.84869-.36457,2.88221,2.436,5.67621,5.85877,5.84491C1115.60342,516.03038,1119.9555,511.66932,1120.10828,506.37434Z"/><path d="M957.3747,686.29177c0-6.17412-.15148-12.35318.04661-18.52094.16654-5.185,2.23219-7.31266,6.89575-5.296,3.98967,1.72536,6.523.92666,9.80774-.66576,2.30984-1.11979,4.88807-.34638,7.15426.75568a2.65561,2.65561,0,0,1,1.78191,2.91194,47.94973,47.94973,0,0,1-1.95209,7.12623c-1.17669,2.99527-3.6193,1.01936-5.5773,1.177-4.1503.334-6.54676,3.38671-6.83937,9.42288-.3582,7.39429-.1097,14.81586-.294,22.22146-.13483,5.41446-1.41189,6.26592-6.65646,5.96149-3.25758-.189-4.29808-1.89918-4.31155-4.71983-.03234-6.79122-.0104-13.58273-.0104-20.37413Z"/><path d="M846.10944,590.85c-.102-6.18526,2.92171-10.26945,9.31711-12.12765,3.24473-.94268,6.59814-1.53062,9.92284-2.17331,3.59725-.69537,3.58253-2.83276,2.22691-5.43674-2.24345-4.30922-8.79549-5.18375-12.68438-1.63419-.86908.79325-1.19988,2.1458-1.94789,3.10929a3.36044,3.36044,0,0,1-4.19.83451c-1.92572-.7825-1.3384-2.384-.92392-3.90151,1.52915-5.59873,5.746-7.71333,10.96567-8.44149,10.07484-1.40553,14.57191,2.20661,15.11956,12.21227.45477,8.30736-.39237,16.66184,1.34715,24.93645.65177,3.1003-2.46013,4.2305-4.00633,2.65719-3.36142-3.42037-5.6064-1.06671-8.692.07559C853.5355,604.303,846.25432,599.63409,846.10944,590.85Zm17.01492-7.56288a51.56611,51.56611,0,0,0-7.206,2.151c-3.017,1.28429-3.55826,4.10562-2.82276,7.05166.76444,3.062,3.431,3.26076,5.89868,3.25076,4.50827-.01825,8.17282-3.63931,9.215-8.83216C868.764,584.14428,867.74443,582.77047,863.12436,583.28714Z"/><path d="M1815.846,583.14334a17.9818,17.9818,0,0,0-3.7157.04c-2.45319.521-6.31679-1.6372-7.00431,2.31285a8.55653,8.55653,0,0,0,4.22862,8.72126c2.80786,1.7344,5.96347,1.96341,8.723-.13351,1.1685-.88795,1.82659-2.45717,2.69089-3.73412,1.21818-1.80022,2.92347-2.41033,4.80827-1.43946,2.8996,1.49351,1.38529,3.66762.44175,5.52269a12.67046,12.67046,0,0,1-11.98424,7.36359c-5.26923.04263-9.72305-1.29127-12.43042-6.39761-4.86181-9.16966-5.00414-18.30472-.24987-27.52019,2.758-5.346,7.35445-7.31642,13.10159-6.90417,5.49966.39452,9.1874,3.37177,11.20815,8.44366a27.131,27.131,0,0,1,1.47066,4.37265c1.91242,9.07952,1.70518,9.30978-7.5635,9.35519C1818.32931,583.15226,1817.0876,583.147,1815.846,583.14334Zm-1.12667-5.79995a34.627,34.627,0,0,0,4.63639-.38741,2.03719,2.03719,0,0,0,1.70382-2.65554c-.89409-5.551-7.27237-8.71262-11.87886-5.69161-2.39828,1.57286-4.2035,4.10329-3.58861,6.80993.53758,2.36611,3.50608,1.72035,5.55389,1.91577C1811.75084,577.39216,1812.366,577.34339,1814.71933,577.34339Z"/><path d="M1212.40983,686.26176c0-5.86787-.12573-11.73926.03478-17.6027.16688-6.09744,4.24692-9.2132,8.54625-5.65875,2.94133,2.43164,3.55451,1.67823,5.43464-.00734a6.41463,6.41463,0,0,1,5.16909-1.53921c2.63666.33484,6.23266.15478,6.32349,3.82092.06514,2.624-1.20374,5.38013-2.28869,7.90021-.77893,1.809-2.63246.70617-4.09051.77234-4.982.22582-7.11014,2.26152-7.63113,8.25813-.50678,5.83189-.32046,11.72465-.42073,17.591-.04217,2.47-.06639,4.94077-.04922,7.41089.02262,3.24331-1.80511,4.23413-4.74245,4.16041-2.827-.07105-5.95915.243-6.03861-3.8046-.13949-7.09781-.039-14.2004-.039-21.30094Z"/><path d="M1464.49545,581.42992c.00284-4.367.34626-8.65812,2.48331-12.61334,2.92325-5.41008,7.34955-8.31833,13.57437-7.88788,5.83672.40356,9.77433,3.50369,11.67037,9.07128a32.3014,32.3014,0,0,1,1.53148,5.28958c1.15521,7.3366.79564,7.71833-6.89484,7.85207-3.71422.06457-7.43834-.11851-11.143.0839-4.25216.23219-5.26924,2.00387-3.77141,5.99553,2.6685,7.1106,9.31938,8.384,14.36115,2.718.80064-.89971,1.22852-2.2065,2.14716-2.90807,1.37153-1.04744,3.03511-.58443,4.32764.30449,1.17259.80643.922,2.1267.44391,3.32413-1.9746,4.945-5.277,8.31139-10.7972,8.966-5.53411.65621-10.48755-.23156-13.95361-5.21654C1465.763,592.50859,1464.53512,588.10786,1464.49545,581.42992Zm15.653-4.10363V577.307c.92659,0,1.85512.0378,2.77933-.00847,1.51386-.07582,3.27338.13772,4.03525-1.55393a4.6432,4.6432,0,0,0-1.14577-5.09337,9.60019,9.60019,0,0,0-3.66466-2.67111,6.90533,6.90533,0,0,0-8.31105,2.25612c-1.14827,1.43991-2.73534,3.15447-1.98369,4.93485,1.42428,3.37239,4.811,1.68074,7.36524,2.14785A5.22273,5.22273,0,0,0,1480.14844,577.32629Z"/><path d="M1564.85738,581.13088c.08185-4.26454.49109-8.25358,2.36861-11.949,2.5904-5.09866,6.51618-8.16856,12.43463-8.28076,5.93892-.11254,9.93348,2.73557,12.56082,7.93284a27.76741,27.76741,0,0,1,2.30768,8.918c.59965,4.20725-1.07427,5.58953-5.0753,5.43379-4.647-.18081-9.30745-.06014-13.96111-.00029-1.87275.0241-3.94772.086-3.75822,2.8102.27522,3.95283,1.77987,7.36439,5.657,8.88649,3.48073,1.36642,6.736.7276,9.03439-2.59472a23.32873,23.32873,0,0,1,2.05167-3.0542c1.29446-1.34368,2.87483-.81246,4.29854-.1346,1.97562.94052,1.35744,2.5098.71447,3.92681-2.34735,5.17232-5.97927,8.43433-12.02346,8.76673-6.22379.34211-10.852-1.80039-13.86516-7.34069C1565.29379,590.20768,1565.10088,585.56669,1564.85738,581.13088Zm14.59226-3.876c1.51465,0,2.744.06269,3.96409-.01592,1.50817-.09731,3.23347-.05474,3.89679-1.7739.72891-1.88923-.02262-3.61476-1.31117-5.01425a8.40181,8.40181,0,0,0-2.84322-2.2501c-3.04932-1.19278-6.06453-1.121-8.43439,1.514-1.40234,1.55933-3.38035,3.27361-2.3469,5.56867C1573.87279,578.61017,1577.191,576.89163,1579.44964,577.2549Z"/><path d="M892.86976,503.15769a22.36687,22.36687,0,0,0-4.42938.04837c-2.40919.57362-6.32372-1.74082-6.91712,2.275a8.75316,8.75316,0,0,0,4.2742,8.72752c2.79337,1.69159,5.9849,2.04752,8.68557-.22577,1.36829-1.15179,2.127-2.99987,3.30634-4.41193,1.14594-1.3721,2.69038-1.35647,4.22323-.67622,1.946.86357,1.55859,2.60745,1.08028,3.98018-1.65328,4.74489-4.93456,7.81052-10.00065,8.61742-5.50637.87686-10.56917.03791-14.25077-4.62576-5.867-7.43163-5.86895-23.30675-.10259-30.77652a13.62636,13.62636,0,0,1,22.64934,1.67755c.15285.26908.26522.56072.40987.83475,2.09084,3.96232,3.46806,9.00267,2.06344,12.47305C901.91131,505.89365,896.08556,501.92018,892.86976,503.15769Zm-1.31987-5.85792c.35007-.0187,2.18775-.02422,3.999-.24532,1.27-.155,2.45376-.87936,2.11317-2.34991-.6316-2.72687-1.79186-5.34239-4.53447-6.49873-2.956-1.2462-5.9845-1.17231-8.58547,1.07625a6.45663,6.45663,0,0,0-2.47,5.67246c.45318,2.76665,3.2029,2.18127,5.25173,2.33382C888.23451,497.35609,889.15445,497.29977,891.54989,497.29977Z"/><path d="M810.11955,560.89374c5.867.16791,10.45441,3.51557,12.43,9.4629.77,2.31825.69936,4.90672,1.38092,7.26538,1.16378,4.028.05559,5.78494-4.32781,5.57424-4.63826-.22281-9.29812.04683-13.945-.0561-3.62618-.08026-5.317,1.07449-3.92033,4.93587,1.19352,3.29958,2.5306,6.36868,6.48986,7.15471,3.82234.759,6.70244-.36877,8.43019-3.99018a6.75931,6.75931,0,0,1,.4687-.80115c1.184-1.79556,2.841-2.52321,4.75012-1.44673,2.69413,1.51914,1.43292,3.84069.54316,5.665-4.37368,8.96686-18.9233,10.04362-24.0227,1.39785-5.35285-9.07543-5.7979-18.86112-.56158-28.33812C800.55355,562.79729,804.74045,560.73982,810.11955,560.89374Zm-.10248,16.43118v-.01449a20.62254,20.62254,0,0,0,2.74108-.02143c1.707-.23083,4.00842.49507,4.73762-1.70149.6005-1.80908-.74068-3.45577-1.6538-4.9914a6.43571,6.43571,0,0,0-5.32329-3.05762c-4.38294-.40009-8.42018,2.3951-8.35061,6.48622.08588,5.05467,4.35759,2.70056,6.93645,3.29123A4.188,4.188,0,0,0,810.01707,577.32492Z"/><path d="M1704.16621,560.93859c10.5711-.19217,19.8981,12.764,16.45352,20.49951-.77495,1.74025-2.3968,1.66272-3.91612,1.67477-4.95071.03939-9.90642-.086-14.85121.09669-4.6481.17177-5.24173,1.32771-3.38649,5.72719,3.25735,7.724,8.87671,8.57393,14.55224,2.19445a14.93261,14.93261,0,0,1,1.78464-2.09015c1.42712-1.09183,2.95951-.58261,4.3548.14835,2.03769,1.06761,1.01311,2.64485.4155,3.96818-2.5181,5.57623-6.67055,8.5965-13.00951,8.67738-6.31576.0806-10.91906-2.56584-13.18263-8.304a33.029,33.029,0,0,1-.3515-23.56111C1695.04429,564.2912,1699.61475,561.15651,1704.16621,560.93859Zm1.19738,16.299a45.08669,45.08669,0,0,0,4.94389-.02927c3.825-.449,4.51623-2.15564,2.46137-5.63568a7.19826,7.19826,0,0,0-3.97409-3.64767c-3.21609-.9902-6.13161-.59692-8.32015,2.19485-1.32288,1.68751-3.00146,3.62658-1.6139,5.7954C1700.47723,578.44227,1703.36921,576.94285,1705.36359,577.23756Z"/><path d="M1391.23406,500.2628c.437-2.56237.64683-6.02014,1.65414-9.22753,1.97869-6.29973,6.99238-9.99923,13.00553-10.17441,6.36009-.18524,10.43889,3.00777,13.05168,8.60724a20.21045,20.21045,0,0,1,1.94572,7.10435c.46461,5.99564.255,6.37135-5.64778,6.54483-4.64708.13664-9.3004.05956-13.951.06275-2.83344.002-3.94465,1.2067-3.06364,4.06435,1.03334,3.3521,2.32939,6.60064,5.99223,7.71236,4.02446,1.22154,7.31171.05895,9.3037-3.92822.56021-1.12167,1.39734-2.22259,2.72635-2.2534a7.673,7.673,0,0,1,3.49358.74033c1.5757.78893.728,2.22191.27135,3.24019-2.3062,5.1439-5.8997,8.5691-11.89977,8.97124-6.14673.41191-10.83961-1.63248-14.00727-7.10248C1391.65013,510.37833,1392.024,505.65635,1391.23406,500.2628Zm15.33-2.98583a15.36259,15.36259,0,0,0,1.82739-.01125c2.00859-.24225,4.86272.67724,5.49693-1.96818.69571-2.90108-1.20352-5.2382-3.61987-6.788a7.52965,7.52965,0,0,0-3.46584-.91193c-3.989-.26316-8.62742,3.65443-7.91977,6.99454.80667,3.8071,4.30115,2.2709,6.768,2.689A4.55914,4.55914,0,0,0,1406.56409,497.277Z"/><path d="M984.33974,500.89645a25.62075,25.62075,0,0,1,2.83447-12.53962c3.04659-5.56207,7.72492-7.83672,13.83584-7.37837,5.98.44852,9.53161,4.14512,11.51508,9.44232,4.03912,10.78652,2.65644,12.73355-8.73507,12.74771-2.48081.00307-4.96549-.0864-7.44164.02182-5.40076.23594-6.11887,1.27917-4.32866,6.00838,2.77467,7.33057,8.859,8.44974,14.158,2.57744.61136-.67764.9591-1.58991,1.55523-2.28534,1.21955-1.42309,2.75774-1.19056,4.23079-.5177,1.93287.88295,1.47213,2.65355.97058,3.99712-1.74667,4.67907-5.00777,7.80938-10.09728,8.52891-5.85377.82741-11.16155-.07872-14.71821-5.49164C985.103,511.41753,984.34929,506.24628,984.33974,500.89645Zm17.03794-3.61464c.41652-.02229,2.2588-.0349,4.07766-.2476,1.28434-.15,2.46012-.87288,2.09919-2.34854-.66616-2.72363-1.85251-5.31676-4.59455-6.49845a7.60475,7.60475,0,0,0-8.57684,1.16226c-1.67937,1.49351-2.90574,3.591-2.51616,5.65381.52,2.75312,3.2802,2.1151,5.33619,2.26715C998.11692,497.33791,999.03977,497.28181,1001.37768,497.28181Z"/><path d="M700.06821,503.16707a15.478,15.478,0,0,0-3.71064.05075c-2.69987.68947-7.68912-2.54725-7.33819,3.63829.3042,5.36274,4.53021,9.034,9.10265,8.558a6.77838,6.77838,0,0,0,5.41981-3.15532,15.37043,15.37043,0,0,1,2.04633-3.05529c1.2911-1.25609,2.90278-.82957,4.33718-.15034,1.99859.94643,1.3156,2.536.67446,3.93226-2.36435,5.149-5.9874,8.41211-12.03176,8.764-6.2442.36349-11.11886-1.66733-13.78161-7.371a29.8469,29.8469,0,0,1-.373-25.21212,12.84808,12.84808,0,0,1,12.36057-8.2886c5.95876-.10959,9.95462,2.73226,12.561,7.93119a20.56152,20.56152,0,0,1,2.20736,7.99025c.40213,6.03583.40731,6.1187-5.88958,6.35629C703.79369,503.2255,701.92987,503.16616,700.06821,503.16707Zm-3.73741-5.96126c1.73678,0,2.96553.06923,4.1832-.01768,1.49266-.10651,3.22365.01024,3.91214-1.72371.75511-1.90195-.01557-3.60236-1.30565-5.00038a8.89426,8.89426,0,0,0-2.81992-2.28324c-3.05449-1.28593-6.02207-1.07512-8.43246,1.47066-1.4602,1.54228-3.35636,3.28378-2.3573,5.55633C690.97113,498.52971,694.29771,496.876,696.3308,497.20581Z"/><path d="M1770.00267,503.1732a20.48855,20.48855,0,0,0-3.71138.04127c-2.50355.47381-6.3078-1.61265-7.22894,1.90179-.8826,3.36659,1.04527,6.79116,3.91418,8.89121a6.97451,6.97451,0,0,0,8.66664.12925c1.66426-1.26354,2.68043-3.34636,4.20282-4.842,1.27058-1.24836,2.96906-.83469,4.3124-.04672,1.33527.7833.77335,2.21531.44437,3.34238a11.80126,11.80126,0,0,1-9.776,8.80794c-5.79477,1.04573-11.14267.19286-14.89873-5.05183-5.13191-7.1663-5.2764-21.94186-.39026-29.265,3.05477-4.57858,7.3333-6.47275,12.68984-6.17844,5.553.305,9.10248,3.36756,11.31547,8.297C1784.71054,500.7107,1783.03423,503.18366,1770.00267,503.1732Zm-2.886-5.877a9.0365,9.0365,0,0,0,1.85785-.01938c2.18536-.46892,5.74612,1.13764,5.99724-2.43181a7.254,7.254,0,0,0-4.3356-6.689,7.60792,7.60792,0,0,0-7.19847.11328c-2.58256,1.44951-4.29876,3.98705-3.69865,6.90234.56862,2.762,3.4531,1.91873,5.51637,2.10482C1765.87113,497.332,1766.496,497.28505,1767.11671,497.29624Z"/><path d="M1665.23125,500.77862c.32365-3.18369.324-6.56892,1.64141-9.82275,2.63007-6.496,6.882-9.88914,13.04259-10.06852,6.30905-.18371,10.41354,2.76318,13.41011,9.45272a18.4607,18.4607,0,0,1,1.46395,6.27558c.4662,6.07692.31932,6.35623-5.62516,6.51038-4.6406.12027-9.28642.048-13.92985.04507-3.11844-.002-3.53939,1.7797-2.90608,4.30513.86657,3.45572,2.39987,6.47321,6.066,7.56549,3.64238,1.08523,6.70056.16495,8.73723-3.3126.77165-1.31737,1.53864-2.89716,3.27849-2.96122a7.26794,7.26794,0,0,1,3.44708.90312c.95831.49968.56908,1.56991.31546,2.4479a13.1517,13.1517,0,0,1-11.39152,9.48825c-6.03418.72937-10.98682-.86009-14.3093-6.33736C1665.78419,510.83936,1665.60639,505.89609,1665.23125,500.77862Zm15.30946-3.491v-.041c.91488,0,1.83295.04775,2.74409-.01012,1.79192-.11373,3.93658.11107,4.57954-2.08117.54714-1.86569-.46449-3.53467-1.70825-4.95889-2.53537-2.90279-5.76-3.61936-9.07792-1.98671-2.47286,1.21682-4.69709,3.41923-4.28637,6.47133.47336,3.51916,3.72059,2.20463,5.92152,2.59086A10.71739,10.71739,0,0,0,1680.54071,497.28766Z"/><path d="M1245.30538,583.14823c-2.16308-.004-4.329-.07719-6.48856.01011-5.63255.2277-6.27415,1.40416-3.75424,6.69255,3.2062,6.72865,8.66573,7.5992,13.74808,2.09493,1.01708-1.10143,1.475-2.8896,3.17652-3.08393a6.90051,6.90051,0,0,1,3.52177.59471c1.58048.73488.70788,2.15512.35,3.21023-2.008,5.91976-6.8571,9.144-13.54346,9.11817-6.78821-.02626-11.95832-3.64067-13.65383-10.297a41.62884,41.62884,0,0,1-.28761-19.27854,14.23783,14.23783,0,0,1,13.04838-11.28017c6.43524-.40231,10.66591,2.38515,13.602,8.98732a22.05838,22.05838,0,0,1,.983,2.59432c2.76274,9.17728,1.70723,10.58929-7.921,10.64078C1247.15936,583.15664,1246.23243,583.15232,1245.30538,583.14823Zm-2.73727-5.81819a16.70421,16.70421,0,0,0,1.84637-.01046c2.02621-.22668,4.88045.7189,5.50705-2.01126.57362-2.50042-1.15782-4.711-3.08843-6.31224a7.41631,7.41631,0,0,0-3.36341-1.33c-4.24249-.74892-8.4993,2.03917-8.652,6.24573-.19337,5.32631,4.28557,2.75052,6.82925,3.41076A3.65468,3.65468,0,0,0,1242.56811,577.33Z"/><path d="M1019.87571,500.87661c-.00546-4.959-.02342-9.91807.00216-14.87691.01239-2.39339,1.02106-5.18551,3.51131-4.09294,3.68762,1.618,6.48844-.21713,9.67542-.74647,7.23-1.20107,12.60743,2.1886,13.1923,9.51292.71334,8.9335.29443,17.959.31864,26.94481.00557,2.07031-.76881,3.70189-3.20005,3.56877-2.41033-.132-2.90063-1.93271-2.97247-3.90861-.06741-1.85763-.05707-3.71838-.06219-5.57788-.01364-4.95923.10368-9.92233-.05536-14.87673-.20564-6.40938-1.7777-8.78515-5.65335-9.14506-4.316-.40089-7.343,2.47058-8.23955,8.19965a51.72718,51.72718,0,0,0-.28977,7.42129c-.04854,4.64866-.02216,9.29812-.056,13.947-.0141,1.95061-.2909,3.86354-2.80173,3.96381-2.38384.09537-3.15708-1.54973-3.27849-3.599-.09163-1.5454-.07833-3.098-.08219-4.64741C1019.87457,508.93478,1019.88117,504.90573,1019.87571,500.87661Z"/><path d="M1264.01542,581.41264c0-5.26873-.065-10.53853.02876-15.80561.04353-2.44176,1.39392-4.96082,3.86439-3.60907,3.43708,1.88082,5.8731-.18353,8.741-.71862,7.69764-1.43627,13.15127,2.02365,13.74069,9.84429.67378,8.93993.27533,17.9626.284,26.94931.00159,1.68977-.813,3.04653-2.64985,3.19584-2.34644.19076-3.37967-1.34345-3.4514-3.4099-.13994-4.02514-.085-8.057-.11266-12.086-.02341-3.40945.11232-6.82965-.11186-10.226-.35922-5.44157-2.20934-7.75448-5.96995-7.84644-4.628-.11323-6.7416,2.8772-7.47494,6.806a67.68979,67.68979,0,0,0-.72084,10.15418c-.11243,3.4061.12914,6.82891-.08889,10.22483-.15881,2.47257,1.22159,6.4985-3.16436,6.23551-4.0248-.24123-2.80764-4.14007-2.91746-6.69307-.1862-4.33115-.05115-8.67607-.05115-13.01524Z"/><path d="M760.91,581.23041c0-5.25383-.02535-10.50783.01074-15.76144.01791-2.6008,1.66716-4.96378,3.86991-3.42014,3.53689,2.47854,5.79125-.29067,8.56563-.80365,7.61375-1.40768,13.29769,1.98034,13.92394,9.64945.72715,8.90491.295,17.90621.31506,26.86586.00478,2.14648-1.05954,3.57838-3.349,3.48886-2.46552-.09629-2.84419-1.96926-2.8597-3.92743-.04144-5.25361-.03519-10.50761-.04991-15.76144-.00517-1.85433.04075-3.711-.03626-5.56242-.16171-3.88747-.7949-7.60573-5.57663-8.276-4.27073-.59864-7.76351,2.516-8.28558,8.05015-.52071,5.51928-.25919,11.11244-.33894,16.6732-.0266,1.85393-.00636,3.7098-.08406,5.56151-.06991,1.66852-.70805,3.09621-2.56635,3.24052-2.26073.17547-3.45982-1.16924-3.48846-3.3297-.07372-5.56156-.02467-11.12472-.02467-16.68724Z"/><path d="M1727.85527,581.55576c0-5.25082-.0623-10.50278.03387-15.75184.03365-1.83466.877-4.8597,2.64656-3.87149,4.58909,2.5626,8.1494-.86345,12.18317-.99992,5.9886-.20252,10.72081,2.64922,11.2243,8.67175.79518,9.51031.44664,19.11923.48973,28.68682a2.94682,2.94682,0,0,1-5.88618.25368c-.22406-2.45239-.21712-4.92809-.25816-7.39463-.09731-5.86588-.04627-11.73739-.29352-17.59656-.12834-3.0417-1.73542-5.33818-4.978-5.75441-3.38353-.43437-6.02088.77182-7.4613,4.11033a22.16989,22.16989,0,0,0-1.61231,9.04735c.02115,5.25139.0025,10.50312-.02557,15.75457-.01183,2.22463-.03775,4.66031-3.16846,4.513-3.09933-.14568-2.87732-2.72619-2.908-4.84254-.07162-4.94116-.023-9.884-.023-14.82621Z"/><path d="M1506.84361,503.50719a22.06681,22.06681,0,0,1-2.25311,10.40308c-2.85675,5.48642-7.55339,8.01793-13.66862,7.89431a13.33573,13.33573,0,0,1-12.69268-9.24652,33.30653,33.30653,0,0,1,.24964-22.78883c2.02712-5.38007,6.37851-8.23079,12.12395-8.76207,5.81318-.53753,10.12422,1.6841,13.17638,6.79378C1506.47,492.30558,1506.81257,497.15528,1506.84361,503.50719Zm-6.4748-3.53086a33.47047,33.47047,0,0,0-1.02379-6.19731c-1.10189-3.35011-3.08092-6.05453-7.14141-6.28512-4.0315-.22884-6.3202,2.04889-7.80257,5.37262-2.817,6.31577-2.77364,12.63829.84395,18.59676,3.432,5.65256,9.92256,5.25264,13.26915-.51644C1500.32766,507.8209,1500.20659,504.44328,1500.36881,499.97633Z"/><path d="M1245.69564,503.07823a86.61587,86.61587,0,0,1-2.47195,9.63319c-2.16887,5.80125-6.64747,8.785-12.80988,9.128-5.87742.32711-10.4107-2.21776-12.89924-7.41521a29.24521,29.24521,0,0,1-.06287-26.0264c2.62576-5.53513,7.7804-7.87247,13.89325-7.40264,5.37132.41288,9.09259,3.07791,11.28932,8.26723C1244.49189,493.651,1245.12258,498.14906,1245.69564,503.07823Zm-24.44843-2.14506c.15847,3.3721-.076,6.80316,1.70563,9.90835,1.6596,2.8921,3.99035,4.71476,7.44971,4.56266a7.38668,7.38668,0,0,0,6.49185-4.56113,20.90643,20.90643,0,0,0,.05707-18.75494,7.37859,7.37859,0,0,0-7.40026-4.55073c-3.588.16586-5.52035,2.39368-7.00158,5.24116C1221.21924,495.33585,1221.42546,498.16964,1221.24721,500.93317Z"/><path d="M1136.70514,581.7194c-.31432,4.29546-.29079,8.33134-2.28926,12.04187-2.9237,5.42856-7.36956,8.23415-13.53777,8.11433-6.306-.12254-10.46208-3.44634-12.70416-9.16023-2.70317-6.88864-2.60109-13.99561-.64422-20.9918a14.36267,14.36267,0,0,1,13.56164-10.7735c6.35646-.25453,10.49039,2.64178,13.60087,9.247C1136.47529,573.98328,1136.32057,578.02007,1136.70514,581.7194Zm-6.49662-.28926c-.49052-2.49388-.00841-5.65534-1.41632-8.54091-1.42895-2.92842-3.42526-5.07757-6.93088-5.34994-3.60316-.28-5.96836,1.73149-7.403,4.56329-3.28622,6.487-3.29748,13.17553.524,19.42149,3.46822,5.66859,10.05067,5.21564,13.36259-.57686C1129.95752,588.12639,1129.74085,584.99914,1130.20852,581.43014Z"/><path d="M817.91075,502.50119a56.38651,56.38651,0,0,1-1.11558,8.33981,14.2889,14.2889,0,0,1-14.29749,11.02218c-6.74086-.02245-12.096-4.34264-13.84726-11.47888a35.94431,35.94431,0,0,1-.27806-16.57663c1.80738-8.13036,7.04871-12.84706,14.61545-12.88957,7.17693-.04025,12.87417,5.17931,14.29549,13.31274C817.70749,496.65833,817.67333,499.166,817.91075,502.50119Zm-6.5592-1.83517c-.32291-2.01325.11521-4.8347-1.12781-7.466-1.3783-2.91779-3.06529-5.331-6.67033-5.64051-3.52307-.30239-5.85837,1.41575-7.66819,4.1773-3.517,5.36648-3.20375,15.05657.65228,20.16086,3.53132,4.67441,9.059,4.72449,12.3587.12482C811.19757,508.81445,811.2606,505.10171,811.35155,500.666Z"/><path d="M1612.34337,601.88867c-6.62213.03917-11.30626-2.92023-13.00951-8.39846-.5327-1.71354-1.15509-3.67609,1.32265-4.65589,2.0103-.795,3.71627-.60022,4.45507,1.67693,1.2632,3.89384,4.09471,5.17381,7.87589,5.03734,2.73682-.09873,4.76018-1.27554,5.66654-3.95943,1.07666-3.18812-1.21317-4.6406-3.42377-5.68076-2.78388-1.30992-5.85946-1.98591-8.699-3.19431-5.33983-2.2725-7.96353-6.56932-7.337-11.60177.6923-5.5619,4.62513-9.32989,10.47709-10.03811,6.68737-.80928,11.76233,1.73144,13.746,6.93986.55463,1.456,1.06028,3.075-.63581,4.1188-1.78623,1.09945-3.92351,1.12559-4.788-.89374-1.74633-4.07959-4.95185-4.22214-8.44929-3.70587a4.19905,4.19905,0,0,0-3.8994,3.42253c-.42152,2.27312.9782,3.51256,2.742,4.26971,2.837,1.21779,5.82126,2.09328,8.65266,3.32243,7.14163,3.10042,9.64984,7.32915,8.24739,13.601C1623.92348,598.24669,1619.13692,601.84855,1612.34337,601.88867Z"/><path d="M1144.99846,480.86512c5.64142-.0532,9.87266,2.18331,11.41278,6.28013.62921,1.67386,1.36676,3.70865-.62194,5.02306-1.88684,1.247-3.53575.57925-4.62911-1.33629-1.791-3.13788-4.54249-3.97273-7.90385-3.37376-1.91606.34132-3.59907,1.09762-4.18509,3.1497-.65035,2.27817.94717,3.57849,2.57153,4.3415,3.06148,1.438,6.35214,2.38072,9.45193,3.7464,6.42921,2.83253,8.409,6.49105,7.394,13.228-.82917,5.50188-4.80258,9.13448-10.71444,9.79518-7.10356.79394-12.53444-1.82016-14.40923-7.34387-.58875-1.73462-2.32792-4.10914.64535-5.64062,2.82276-1.45384,3.71343.41629,4.73915,2.55049,1.69677,3.53018,4.726,4.66544,8.49453,4.08636,2.72488-.41863,4.60422-1.76049,4.986-4.65822.34956-2.6536-1.32481-3.97176-3.44992-4.82412-2.57528-1.033-5.23548-1.85416-7.81178-2.88511-7.012-2.8061-9.14943-6.67147-7.69025-13.73381C1134.37894,483.94161,1138.58459,480.9256,1144.99846,480.86512Z"/><path d="M881.75351,581.42622c0-5.27344-.013-10.54688.00671-15.82027.00739-1.97539,1.11428-4.80986,2.74722-3.62658,3.97835,2.8829,6.76911-.24446,10.02743-.81212,6.56028-1.14281,11.33075,1.36659,12.76765,7.66621,2.22935,9.77347,1.08489,19.75014.87226,29.64838a2.80775,2.80775,0,0,1-3.06779,2.813c-1.96687.00807-2.755-1.24763-2.78621-2.95866-.09072-4.9614-.07423-9.92472-.1-14.88731-.0129-2.48149.02222-4.96435-.05013-7.44408-.11675-4.00058-1.18192-7.52712-5.78187-8.24483-4.2085-.65655-7.54912,2.52759-8.14838,8.111-.528,4.91843-.42829,9.90449-.59812,14.86094-.08492,2.47814-.04957,4.96594-.26527,7.43214-.14022,1.60321-.86424,3.071-2.79769,3.04523-1.87246-.025-2.73272-1.32288-2.75131-3.03312-.0607-5.58271-.02274-11.16649-.02274-16.74982Z"/><path d="M717.79624,500.8416c0-5.25855-.01683-10.51727.01-15.77565.00824-1.62174,1.11371-4.02048,2.23794-3.14742,4.43853,3.44685,7.80842-.66576,11.64053-.98367,6.55318-.54361,10.66988,2.35878,11.65735,9.02746,1.3646,9.2161.74659,18.51911.49746,27.78745-.05087,1.8923-.741,3.75271-3.32425,3.39331-2.02951-.28238-2.201-1.91395-2.216-3.45708-.063-6.49555.01409-12.9928-.08975-19.48738-.11249-7.03574-2.209-10.29321-6.49566-10.43758-4.38016-.14761-7.26089,2.99061-7.91068,9.59181-.51348,5.21553-.31813,10.50011-.46039,15.75337-.05019,1.85172-.06582,3.71417-.29153,5.54781-.14932,1.21318-.60853,2.40783-2.1861,2.50877a2.49967,2.49967,0,0,1-2.958-2.695c-.0819-5.8744-.03109-11.75057-.03109-17.62611Z"/><path d="M1501.871,581.52569q-.0087-8.35352-.00341-16.707c.00318-2.346,2.02416-4.17491,3.32988-2.823,2.87311,2.975,4.63388.61381,7.00488-.19814,8.34311-2.8568,14.54394.70083,15.19191,9.31228.64842,8.61764.33967,17.30764.43141,25.96609a9.44962,9.44962,0,0,1-.22815,1.83313,2.48305,2.48305,0,0,1-2.40863,2.31234c-2.014.11947-2.72283-1.17737-2.74375-2.86516-.08094-6.49623-.52315-13.031.01637-19.48044.58954-7.04746-3.6559-11.28608-7.08366-11.149-4.39891.17586-7.43118,3.68665-8.12928,10.73695-.45539,4.59956-.19268,9.27027-.249,13.90916-.02251,1.85609.005,3.71411-.07,5.568-.06411,1.58207-.30841,3.17175-2.374,3.26491-2.01257.09083-2.63894-1.32094-2.65645-2.97349C1501.84015,592.66405,1501.87665,587.09464,1501.871,581.52569Z"/><path d="M1533.81366,581.47488a22.85117,22.85117,0,0,1,3.85712-15.07653c3.09467-4.48764,7.71332-6.01878,13.05088-5.26321,5.13635.727,8.32572,3.83023,9.906,8.62946.36,1.09325.75654,2.50145-.5344,3.37694a3.68219,3.68219,0,0,1-4.31752.01893c-.705-.48546-.93557-1.606-1.55831-2.27369-4.908-5.26213-10.09694-4.45-12.67574,2.21128a23.50638,23.50638,0,0,0,.12118,17.2333c1.072,2.83827,2.87471,4.71352,6.01577,5.06393,3.1597.35235,5.172-1.1186,6.8887-3.69757,1.30878-1.96653.60159-6.40813,5.10986-4.96691,2.48308.79365,2.35815,4.913-.13721,8.94089a13.2005,13.2005,0,0,1-21.95125.74079A22.04093,22.04093,0,0,1,1533.81366,581.47488Z"/><path d="M1009.36463,581.48266c0-5.273-.08309-10.54773.03229-15.81822.06514-2.9719,1.5333-5.25736,4.61047-3.34085,2.52366,1.57178,3.89861-.00073,5.85672-.56111,9.12136-2.61041,14.97479.98047,15.62264,10.22278.58454,8.338.22475,16.74357.23577,25.11936.0025,1.93083-.33569,3.946-2.75091,4.096-2.47115.15346-3.00555-1.85189-3.05477-3.76027-.13562-5.27088-.11129-10.54586-.16234-15.81907-.015-1.551-.00238-3.10673-.1197-4.65139-.48893-6.44269-1.99222-8.82795-5.74339-9.238-4.54442-.49666-7.728,2.52588-8.42587,9.0266-.56066,5.22075-.29033,10.53091-.3815,15.80157-.03217,1.86115-.00068,3.72445-.07639,5.58356-.07026,1.7245-.85032,2.9927-2.7209,3.07125-1.98154.08333-2.75285-1.41308-2.78752-2.98526-.12311-5.57986-.04809-11.1641-.04809-16.74669Z"/><path d="M1419.92123,582.22123c-.17382-5.33016.3923-10.50442,3.3567-15.13592,2.96792-4.637,7.31784-6.431,12.67074-6.05527,5.16557.36258,8.57854,3.192,10.54075,7.83446.575,1.36062,1.37642,3.10206-.16313,4.22435a3.338,3.338,0,0,1-4.89751-.54935c-.5834-.7077-.86759-1.68443-1.505-2.32143-4.06026-4.05754-8.43109-3.64073-11.52418,1.0322-2.83151,4.27773-2.84469,16.34234-.02285,20.57767,3.44276,5.167,8.78362,4.80963,12.609-.73141,1.21431-1.759,1.02424-5.88941,4.65889-4.18355,3.43537,1.61219,1.71678,4.92684.69549,7.29243-4.00467,9.2759-16.8415,10.42025-22.77269,2.10823C1420.56931,592.112,1419.7257,587.28107,1419.92123,582.22123Z"/><path d="M1702.54084,500.57553c0-5.27452-.06594-10.55018.031-15.82288.04081-2.22134,1.85569-4.10716,3.51085-2.80536,3.0317,2.38446,5.01085.24168,7.50962-.4417,8.04561-2.20031,13.99112,1.21892,14.69979,9.4135.77279,8.93555.34547,17.9771.37594,26.97267.00557,1.64868-.675,3.10445-2.56732,3.27355-2.62007.23412-2.99316-1.73741-3.0483-3.63107-.12607-4.34128-.08855-8.68722-.12857-13.03116-.0258-2.79247.11652-5.60266-.14732-8.37347-.56942-5.98319-2.5995-8.38778-6.70489-8.3784-4.11585.00938-6.39954,2.2306-7.44675,7.9674a59.32615,59.32615,0,0,0-.5992,9.26356c-.09913,4.34264-.01989,8.68921-.06639,13.0335-.018,1.67789-.6067,3.077-2.55163,3.17936-1.97642.10385-2.77456-1.32589-2.80366-2.93439-.10652-5.89338-.04206-11.78973-.04206-17.685Z"/><path d="M1143.78562,580.785c0-5.27236-.05752-10.54563.028-15.81663.03433-2.12267,1.60946-4.29956,3.35011-2.99453,3.39331,2.54391,5.67416-.05365,8.43166-.663,7.61523-1.683,13.22948,1.6862,13.9045,9.50343.77143,8.93253.388,17.96823.4122,26.95931.00557,2.04377-.87862,3.67205-3.33385,3.38853-2.03622-.23514-2.22367-1.98159-2.257-3.48118-.12391-5.581-.03058-11.16706-.178-16.74709a49.90068,49.90068,0,0,0-.81258-8.28627,5.60123,5.60123,0,0,0-5.85445-4.92917,6.36384,6.36384,0,0,0-6.51641,4.26551,25.83372,25.83372,0,0,0-1.714,10.01356c.05865,4.96247.01227,9.9266-.03161,14.88964-.01625,1.83551.15677,4.04719-2.39214,4.25113-3.34238.26748-3.0226-2.5148-3.07444-4.53413-.13528-5.26987-.04547-10.54552-.04547-15.81891Z"/><path d="M1053.59088,500.44173c.5834-4.28563.72891-8.94265,3.28873-13.08754,2.91847-4.72546,7.16676-6.61076,12.51921-6.37653,4.723.20673,8.31855,2.363,10.33419,6.6759.83724,1.79163,2.78013,4.10113.20474,5.69911-1.95323,1.21182-4.15041.66911-5.36519-1.86041-.7854-1.63572-1.60718-3.25058-3.7365-3.80278a7.426,7.426,0,0,0-9.05406,4.41744,23.23726,23.23726,0,0,0-.23054,18.08873c1.22466,3.23047,3.28054,5.11537,6.85085,5.21405,3.21768.08884,5.22934-1.45793,6.34566-4.36464a20.67323,20.67323,0,0,1,1.35948-3.41929c.73528-1.204,2.01462-1.19834,3.301-.88845,1.85717.44755,2.40567,1.63077,2.17569,3.42894-.60568,4.73836-5.29629,10.14509-9.8589,11.28694a13.36054,13.36054,0,0,1-14.59373-5.56577C1054.82725,512.45558,1053.39831,506.35934,1053.59088,500.44173Z"/><path d="M1069.07915,564.10477c-.208.89823-.30738,1.51147-.49222,2.09783-3.25428,10.32577-6.46673,20.66531-9.828,30.95619-.62535,1.915-.9906,4.33292-4.07163,4.242-2.92871-.08651-3.43-2.22458-4.08141-4.27318q-4.921-15.47451-9.77307-30.971c-.57476-1.83034-1.09882-3.78039,1.58388-4.35145a3.37357,3.37357,0,0,1,4.32434,2.47876c2.00643,6.82476,3.9176,13.67749,5.9155,20.50486.3524,1.20431,1.03379,2.49866,2.48047,2.25629.59852-.10026,1.21295-1.28559,1.46441-2.08884,1.84921-5.90436,3.62521-11.83191,5.38564-17.76367.526-1.77265.76529-3.66648,2.41317-4.86812a3.26409,3.26409,0,0,1,3.50449-.25941C1068.545,562.40493,1068.77018,563.52683,1069.07915,564.10477Z"/><path d="M1774.46638,564.97293c-.33342.53412-.6906,1.82745-1.28866,1.95067-4.85056.999-3.978,4.73057-4.00229,8.01844-.03433,4.63724-.00659,9.27511.01126,13.91257.01091,2.82009-.06048,5.47358,3.7,6.41012,2.13477.53173,2.21287,2.86038,1.54194,4.67447-.6449,1.74377-2.45444,1.60815-3.9683,1.54626-4.63672-.18922-7.08048-2.46359-7.42845-7.65644-.35081-5.23484-.16176-10.50595-.2103-15.76115-.02-2.16382-.35923-4.3826.00511-6.47935.64581-3.71763-6.3776-5.32806-3.14753-8.571,2.87857-2.89029,3.02408-5.71958,3.23484-9.02774.13425-2.10465,1.54046-3.25951,3.20506-4.20776,1.275-.72652,2.67372-.59932,2.80138.89863.42493,4.98828-.78154,10.54643,5.4717,13.08692C1774.51288,563.81665,1774.4358,564.35259,1774.46638,564.97293Z"/><path d="M1303.437,549.18341a1.76566,1.76566,0,0,1,1.78214,1.70422c.18712,4.72267-.94,9.76949,4.94469,12.44566,1.328.6038.56771,3.41036-1.0014,3.73292-4.49747.92444-3.76538,4.21021-3.78834,7.21519-.03547,4.64446.00057,9.28966.02956,13.93445.01909,3.06984-.45051,6.248,3.9509,7.14431,1.529.31137,1.808,2.41312,1.47339,3.987-.53679,2.52588-2.6885,2.19815-4.46053,2.09129-4.64673-.28022-6.84039-2.49906-7.15778-7.92068-.32523-5.55627-.03262-11.146-.21326-16.71446-.11481-3.53587,1.25024-7.59329-2.935-10.0172a1.83425,1.83425,0,0,1-.71539-1.59577q3.13839-7.60024,6.50982-15.10267C1302.05777,549.638,1302.89706,549.47426,1303.437,549.18341Z"/><path d="M1744.52966,521.46405c-4.48565-.08332-6.80788-2.71993-7.07082-6.94741-.38412-6.17316-.34626-12.37194-.52451-18.55874-.09549-3.31475.49666-6.58256-2.67531-9.35263-1.9156-1.67261,3.85893-15.83686,6.49287-17.10833,1.54535-.746,2.328-.17063,2.42067,1.36744.13039,2.16208.09458,4.33408.13767,6.50165.03854,1.94147.73925,3.07069,2.599,4.30928,3.7456,2.49451,3.73253,3.15856-.32011,5.84064a4.60548,4.60548,0,0,0-2.29438,4.48292c-.03331,5.57589-.00012,11.15211-.00853,16.72817-.00432,2.87874.08083,5.45464,3.76834,6.42364,2.12329.558,2.19286,2.84163,1.51238,4.68044C1747.9074,521.61377,1746.11,521.34611,1744.52966,521.46405Z"/><path d="M762.024,521.41591c-4.73045.04041-6.99056-1.57911-7.59652-6.5068-.63933-5.199-.54185-10.49084-.7172-15.7437a38.05444,38.05444,0,0,1,.00841-7.41515c.62381-3.75248-6.05169-5.22161-3.18306-8.69239,2.13034-2.57755,3.48511-4.743,3.27793-8.017a4.69324,4.69324,0,0,1,1.73013-4.13111c.94154-.71538,2.15688-1.59685,3.19795-1.5345,1.66369.09964,1.08774,1.82995,1.162,2.90606.149,2.15836.21388,4.33059.15852,6.4931-.09361,3.65125,5.039,1.83051,5.3479,5.42759.36446,4.24448-5.09815,2.34076-5.22655,5.341-.33012,7.71526-.75846,15.45962.31251,23.14612.22974,1.64885,2.272,1.81607,3.58571,2.56192,1.53415.87095,1.61173,2.527,1.31384,4.08766C765.01275,521.34424,763.32843,521.30036,762.024,521.41591Z"/><path d="M1355.62364,573.5118q0,11.58967-.00558,23.17937c-.00431,2.25817-.17449,4.63991-3.22756,4.51748-3.03056-.12158-2.9752-2.60535-2.97668-4.7873q-.015-22.71564.01933-45.4313c.00182-1.94913.27533-3.88616,2.71817-4.043,3.01123-.19348,3.4439,1.96107,3.44537,4.3128q.00717,11.126.00171,22.252Z"/><path d="M1353.46249,500.85979q0-6.4657-.00171-12.93141c-.00739-4.09886.11914-7.94865,6.08557-5.36672,2.28755.98986,3.75878-1.85387,5.99348-1.57684,2.43545.30188,5.238.20912,5.372,3.63295.1172,2.99185-1.09473,4.33474-4.55181,3.7984-4.11937-.639-4.91331,2.93257-5.71429,5.89868-1.714,6.34588-.72106,12.86979-1.13712,19.30082-.17291,2.67379,1.90286,7.26055-2.80628,7.36809-4.57363.10447-3.0658-4.42653-3.20858-7.1949-.2219-4.29927-.05866-8.61838-.05866-12.92907Z"/><path d="M1779.47643,581.18c-.00227-2.47944-.1853-4.97571.03979-7.43453.3549-3.87582-1.952-9.17575,1.54535-11.21406,2.5605-1.49238,7.06933-.43988,10.723-1.41706,1.9613-.52452,4.87659.23219,5.13737,2.789.23918,2.34616-.46211,4.95662-4.15928,4.67623-4.98163-.37764-6.3244,3.15294-6.58541,7.13851-.38435,5.86781-.45358,11.75637-.65024,17.63629-.06207,1.858.03172,3.73338-.198,5.56923a2.5548,2.5548,0,0,1-2.40408,2.40516c-1.71336.093-3.14628-.60562-3.2287-2.49269-.17563-4.02121-.16517-8.05084-.2136-12.07723C1779.46017,584.8995,1779.47859,583.03961,1779.47643,581.18Z"/><path d="M727.15262,580.62678c-.00165-5.24133-.037-10.48311.01916-15.72382.01756-1.64089,1.00077-3.80079,2.49365-2.99441,3.47641,1.8778,6.10671-.29664,9.13255-.752,2.34156-.35241,5.49949-.15745,5.63847,3.11252.09748,2.294-.75187,4.6531-4.45439,4.31206-4.29592-.39577-5.8,3.02914-6.1224,6.573-.52979,5.823-.63745,11.68458-.91545,17.53028-.08776,1.84649-.04041,3.70724-.25919,5.53712-.1874,1.56752-.80126,3.07069-2.76489,3.00294a2.72149,2.72149,0,0,1-2.7446-3.0238C727.12005,592.34319,727.15427,586.48481,727.15262,580.62678Z"/><path d="M1088.264,580.92405c0-2.4649-.17257-4.94469.03967-7.39122.33433-3.85547-1.94868-9.20923,1.45623-11.12545,2.50673-1.41076,7.031-.35951,10.68614-1.282,1.9256-.48615,4.78189.29772,4.79008,3.03585.00648,2.176-.17393,5.2066-4.15075,4.34468-4.2226-.91528-5.14726,2.45569-6.12433,5.35967-2.10942,6.2695-1.31367,12.80307-1.65914,19.243-.14676,2.73682,1.93322,7.64512-2.12977,7.75278-5.06155.13414-2.48275-5.0898-2.80991-7.93421-.4546-3.95312-.11436-7.99775-.11436-12.00316Z"/><path d="M769.4211,501.419c0-5.27219-.05343-10.54507.02046-15.81623.04285-3.05847,1.45077-5.0732,4.61393-3.36165,3.17476,1.71785,4.96526-2.10607,7.79978-1.30737,2.04719.57681,4.785.38446,4.66981,3.34892-.08855,2.27767-.13812,5.17-4.22817,4.202-4.263-1.00906-5.03249,2.57574-6.0049,5.493-2.11153,6.33441-1.0741,12.91907-1.51312,19.38944-.18382,2.70879,1.99216,7.45783-2.56471,7.54747-4.60092.09049-2.53714-4.71909-2.781-7.40708-.36287-3.99938-.094-8.05607-.094-12.08836Z"/><path d="M1659.39783,501.46905c0,5.24479.01273,10.48964-.00682,15.73438-.00716,1.93572-.27794,3.85263-2.7433,4.00121-2.34007.141-3.3185-1.45253-3.32953-3.505q-.08748-16.19573.00466-32.392c.01273-2.01462.96172-3.67631,3.31248-3.55,2.45137.13181,2.76967,2.025,2.77547,3.97694.0158,5.24473.00534,10.48964.00534,15.73444Z"/><path d="M1038.60053,693.04008a19.42718,19.42718,0,0,1-2.77558-.02172c-2.29381-.33438-5.65995,1.23848-6.5529-1.71637-.852-2.81918-.46313-6.12541-.10185-9.1558.20644-1.73337,2.18206-1.8828,3.748-1.905,3.08672-.04382,6.17674-.13926,9.2605-.04877,6.87927.20184,7.98093,1.57087,7.371,8.28485-.26237,2.88721-1.26888,4.65037-4.46644,4.53106-2.15819-.08054-4.32161-.0154-6.48275-.0154Z"/><path d="M1074.34646,582.05811c0-4.9132-.09731-9.82918.04251-14.73839.06594-2.3153-.33842-5.52718,3.28736-5.36371,3.01135.13585,2.53811,2.95883,2.54641,5.02608q.05883,14.73968-.01035,29.47962c-.01,2.08151.36378,4.65764-2.79615,4.82839-3.23337.17472-3.07069-2.35923-3.09581-4.49236-.05787-4.91262-.01831-9.82633-.01831-14.73963Z"/><path d="M978.06286,502.38723c0,5.22825.0449,10.45719-.02728,15.68442-.02194,1.58105-.522,3.10616-2.524,3.12964-1.9937.02336-2.55652-1.42627-2.56209-3.05279q-.057-16.60949-.00978-33.21925c.00353-1.65727.59886-3.108,2.52628-3.14066,1.94141-.033,2.57676,1.4203,2.59108,3.0666.051,5.84359.02,11.68793.02,17.532Z"/><path d="M1458.45217,581.86792c-.002,5.23786.02944,10.476-.01841,15.71341-.01808,1.97028-.47586,3.77817-3.044,3.601-2.07577-.14335-2.27835-1.85871-2.30029-3.34784-.1047-7.08474-.09958-14.17125-.12027-21.25713-.00989-3.38921-.10845-6.7844.05979-10.1656.099-1.99029-.33251-4.797,3.02329-4.50282,2.49093.21832,2.37827,2.41386,2.3901,4.24522C1458.47627,571.39192,1458.45422,576.63,1458.45217,581.86792Z"/><path d="M747.65077,581.72133c0-5.54587-.01694-11.0918.01023-16.63756.00824-1.68966.67218-3.0625,2.5418-3.20079,1.93765-.14341,2.821,1.29724,2.83424,2.88414q.13863,16.63138.02569,33.26432c-.00932,1.54035-.59744,3.145-2.57215,3.186-2.55959.0532-2.85959-1.86382-2.87568-3.78249-.04393-5.23758-.01512-10.47566-.01512-15.71358Z"/><path d="M1092.18015,501.5285c0,5.55809.077,11.11789-.04911,16.67309-.0357,1.5736-.8668,3.03124-2.80161,2.98878-1.90174-.04172-2.66065-1.37432-2.66657-3.0625q-.059-16.68026-.0075-33.36078a2.67188,2.67188,0,0,1,2.79081-2.96685c1.96221-.02086,2.67941,1.46583,2.7092,3.054.104,5.55628.04035,11.11568.04035,16.67388Z"/><path d="M1295.902,704.24368c.02979,6.23676-.60715,7.03888-5.6463,7.11032-5.23809.07418-5.83911-.623-5.87572-6.81555-.03717-6.29246.51179-6.98129,5.62892-7.06286C1295.28582,697.39147,1295.8724,698.06519,1295.902,704.24368Z"/><path d="M836.08929,704.60279c-.06878,6.12979-.6723,6.83562-5.7646,6.74286-4.72568-.08606-5.53945-1.15845-5.44742-7.17887.0902-5.89674.83815-6.7337,5.98291-6.69511C835.789,697.50856,836.16318,698.01892,836.08929,704.60279Z"/><path d="M1007.72209,475.02789c-.71708,2.53981-2.99589,2.78911-3.707,2.01433-3.38069-3.68353-6.25881-2.16046-9.48421.08077a2.89241,2.89241,0,0,1-3.45561-.50957c-1.13963-1.179-.01387-2.21684.54532-3.20088a34.38336,34.38336,0,0,1,2.02814-3.09157c3.86269-5.35876,7.51564-5.27185,11.46438.32961C1006.15583,472.12959,1006.9767,473.76492,1007.72209,475.02789Z"/><path d="M1659.39942,470.56464c-.06434,2.15208.06673,4.40453-3.1148,4.382-2.48126-.01751-2.96428-1.65679-2.993-3.60626-.03308-2.22853.24657-4.4252,3.17959-4.4674C1658.871,466.83842,1659.41636,468.54169,1659.39942,470.56464Z"/><path d="M1089.16868,466.85109c2.46479.02064,2.99351,1.69723,3.00749,3.637.01546,2.146-.004,4.46834-3.099,4.39093-1.90787-.04775-2.46478-1.42275-2.43215-3.09408C1086.68492,469.738,1086.1504,467.366,1089.16868,466.85109Z"/><path d="M978.15187,469.71335c-.13164,2.45993.3299,4.625-2.17786,5.09764-2.65746.50093-3.08535-1.38233-3.03215-3.39663.04684-1.76455-.43186-3.94869,2.1109-4.46906C977.89655,466.36344,977.7241,468.67717,978.15187,469.71335Z"/><path d="M749.79316,554.88776c-2.9889-.62944-2.06265-3.09752-2.13387-5.03734-.06388-1.73775.91256-3.07546,2.66759-2.88437,3.611.39305,2.82958,3.3022,2.63888,5.57464A2.36673,2.36673,0,0,1,749.79316,554.88776Z"/><path d="M1458.43773,551.63194c-.02614,2.338-.92864,3.69888-3.2678,3.25366-2.43307-.463-2.112-2.55613-2.09226-4.26989.02148-1.85649.41379-3.83507,2.85424-3.63641C1459.05569,547.23365,1458.27222,549.842,1458.43773,551.63194Z"/><path d="M1080.17863,551.13164c.0424,1.94317-.1895,3.78039-2.69305,3.83711-2.43841.05531-2.95849-1.72473-2.95587-3.66273.00307-2.1924.21815-4.53191,3.2561-4.30126C1080.29117,547.19483,1080.16442,549.29306,1080.17863,551.13164Z"/></g></svg>