<?xml version="1.0" encoding="utf-8"?>
<!-- Generator: Adobe Illustrator 24.0.2, SVG Export Plug-In . SVG Version: 6.00 Build 0)  -->
<svg version="1.1" id="Layer_1" xmlns="http://www.w3.org/2000/svg" xmlns:xlink="http://www.w3.org/1999/xlink" x="0px" y="0px"
	 viewBox="0 0 696.1 250" style="enable-background:new 0 0 696.1 250;" xml:space="preserve">
<style type="text/css">
	.st0{fill:url(#SVGID_1_);}
	.st1{fill:url(#SVGID_2_);}
	.st2{fill:url(#SVGID_3_);}
	.st3{fill:url(#SVGID_4_);}
</style>
<title>okeanos_dark</title>
<g>
	<path d="M292.8,127.5c-4.5-2.5-8.2-6.2-10.8-10.6c-2.7-4.8-4-10.2-3.9-15.7c-0.1-5.5,1.3-10.9,3.9-15.7c2.5-4.5,6.3-8.2,10.8-10.7
		c9.5-5.1,20.9-5.1,30.4,0c4.5,2.5,8.2,6.2,10.7,10.7c2.7,4.8,4,10.2,3.9,15.7c0.1,5.5-1.2,10.9-3.9,15.7
		c-2.5,4.5-6.2,8.1-10.7,10.6C313.7,132.6,302.3,132.6,292.8,127.5z M315.8,115.6c2.4-1.3,4.3-3.3,5.6-5.7c2.7-5.4,2.8-11.9,0-17.3
		c-1.3-2.4-3.2-4.4-5.5-5.7c-4.9-2.7-10.8-2.7-15.7,0c-2.3,1.4-4.3,3.3-5.5,5.7c-1.4,2.7-2.1,5.6-2,8.6c-0.1,3,0.6,6,2,8.7
		c1.3,2.4,3.2,4.4,5.6,5.7c2.4,1.3,5.1,2,7.8,2C310.7,117.6,313.4,116.9,315.8,115.6z"/>
	<path d="M343.4,72.3h14.1v24l19.2-24h16.7l-22.5,28.1l24,29.7h-16.7l-20.7-25.6v25.6h-14.1V72.3z"/>
	<path d="M400.5,72.3H440v12.3h-25.4v10.8h18.6v11.5h-18.6v10.8H440v12.3h-39.5V72.3z"/>
	<path d="M466.3,72.3h13.9l22.2,57.8h-14.4l-4.5-11.9h-20.5l-4.5,11.9H444L466.3,72.3z M480,106.9l-6.8-19.4l-6.8,19.4L480,106.9z"
		/>
	<path d="M507.9,72.3h13.9l20.5,34.4V72.3h14.1v57.8h-13.9L522,95.6v34.5h-14.1V72.3z"/>
	<path d="M576.7,127.5c-4.5-2.5-8.2-6.2-10.8-10.6c-2.7-4.8-4-10.2-3.9-15.7c-0.1-5.5,1.3-10.9,3.9-15.7c2.5-4.5,6.3-8.2,10.8-10.7
		c9.5-5.1,20.9-5.1,30.4,0c4.5,2.5,8.2,6.2,10.7,10.7c2.7,4.8,4,10.2,3.9,15.7c0.1,5.5-1.2,10.9-3.9,15.7
		c-2.5,4.5-6.2,8.1-10.7,10.6C597.6,132.6,586.2,132.6,576.7,127.5z M599.6,115.6c2.4-1.3,4.3-3.3,5.6-5.7c2.7-5.4,2.8-11.9,0-17.3
		c-1.3-2.4-3.2-4.4-5.5-5.7c-4.9-2.7-10.8-2.7-15.7,0c-2.3,1.4-4.3,3.3-5.5,5.7c-1.4,2.7-2.1,5.6-2,8.6c-0.1,3,0.6,6,2,8.7
		c1.3,2.4,3.2,4.4,5.6,5.7c2.4,1.3,5.1,2,7.8,2C594.6,117.6,597.3,116.9,599.6,115.6z"/>
	<path d="M632.2,130.3c-3-0.5-5.8-1.5-8.5-2.9v-13.1c2.8,1.5,5.8,2.7,9,3.5c2.9,0.7,5.9,1.1,8.9,1.2c2,0.1,4.1-0.3,5.9-1.2
		c1.3-0.7,2-2.1,2-3.6c0-1.1-0.4-2.2-1.1-3c-0.9-1-2-1.8-3.1-2.4c-1.4-0.7-3.5-1.7-6.5-3c-5.1-2.3-8.9-4.8-11.2-7.5
		c-4.3-5.5-4.7-13.2-0.8-19c1.9-2.7,4.5-4.8,7.4-6c3.5-1.5,7.2-2.2,11-2.2c3,0,6.1,0.2,9.1,0.8c2.7,0.6,5.2,1.4,7.6,2.6v12.8
		c-4.3-2.4-9.2-3.7-14.1-3.8c-2.1-0.1-4.2,0.3-6.1,1.3c-1.4,0.7-2.3,2.1-2.3,3.7c0,1.6,0.9,3.1,2.3,3.9c2.7,1.6,5.6,2.9,8.5,4.1
		c3.1,1.2,6.1,2.8,8.8,4.7c2,1.4,3.5,3.2,4.6,5.4c1,2.5,1.5,5.1,1.4,7.8c0,5.3-1.9,9.5-5.6,12.5c-3.7,3-9.3,4.5-16.8,4.5
		C639.1,131.3,635.6,131,632.2,130.3z"/>
	<path d="M282.7,147.3h7.2l4.6,17.1l4.5-17.1h5l4.2,17.1l4.6-17.1h7.2l-7.7,28.8h-6.5l-4.6-16.7l-4.5,16.7h-6.5L282.7,147.3z"/>
	<path d="M326,147.3h19.7v6.1H333v5.4h9.2v5.7H333v5.4h12.7v6.1H326V147.3z"/>
	<path d="M351.6,147.3h14c2.3-0.1,4.5,0.6,6.3,2.1c1.6,1.5,2.5,3.7,2.3,5.9c0,1.2-0.3,2.3-0.8,3.4c-0.5,1-1.3,1.9-2.3,2.5
		c1.2,0.4,2.3,1.3,3,2.4c0.7,1.2,1,2.6,1,4c0,1.6-0.4,3.2-1.2,4.6c-0.8,1.3-1.9,2.3-3.2,3c-1.4,0.7-2.9,1.1-4.5,1h-14.7V147.3z
		 M364.1,158.7c2.1,0,3.1-1,3.1-3c0.1-0.9-0.2-1.7-0.8-2.3c-0.7-0.5-1.6-0.7-2.4-0.6h-5.4v6L364.1,158.7z M364.5,170.6
		c0.9,0.1,1.9-0.2,2.7-0.7c0.7-0.6,1-1.6,0.9-2.5c0.1-1-0.2-1.9-0.9-2.6c-0.8-0.6-1.8-0.9-2.8-0.8h-5.8v6.5H364.5z"/>
	<path d="M397.8,147.3H410c2.8-0.1,5.6,0.8,7.7,2.6c2,1.9,3.1,4.6,2.9,7.4c0,3.2-1,5.7-2.9,7.5c-2.1,1.9-4.9,2.8-7.8,2.7h-5.2v8.6
		h-7V147.3z M408.9,161.3c1.2,0.1,2.3-0.3,3.3-0.9c0.9-0.8,1.3-2,1.2-3.1c0.1-1.2-0.3-2.3-1.2-3c-1-0.6-2.2-0.9-3.3-0.8h-4.1v7.9
		H408.9z"/>
	<path d="M432.1,174.8c-2.2-1.2-4.1-3.1-5.4-5.3c-2.6-4.9-2.6-10.7,0-15.6c1.3-2.2,3.1-4.1,5.4-5.3c4.7-2.5,10.4-2.5,15.1,0
		c2.2,1.2,4.1,3.1,5.3,5.3c2.6,4.9,2.6,10.7,0,15.6c-1.3,2.2-3.1,4.1-5.3,5.3C442.5,177.3,436.8,177.3,432.1,174.8z M443.5,168.8
		c1.2-0.7,2.1-1.7,2.8-2.8c1.4-2.7,1.4-5.9,0-8.6c-0.6-1.2-1.6-2.2-2.8-2.8c-2.4-1.3-5.4-1.3-7.8,0c-1.2,0.7-2.1,1.7-2.8,2.8
		c-0.7,1.3-1,2.8-1,4.3c0,1.5,0.3,3,1,4.3c0.6,1.2,1.6,2.2,2.8,2.8c1.2,0.7,2.5,1,3.9,1C441,169.8,442.4,169.5,443.5,168.8z"/>
	<path d="M460.5,147.3h12.5c3.3,0,5.8,0.9,7.6,2.6c1.8,1.7,2.8,4.1,2.8,7.3c0.1,1.9-0.4,3.8-1.3,5.5c-0.9,1.5-2.2,2.7-3.8,3.4
		l4.9,10h-7.2l-4.4-9h-4v9h-7L460.5,147.3z M471.7,160.9c1.1,0.1,2.3-0.2,3.3-0.8c1.5-1.6,1.5-4.2,0-5.8c-1-0.6-2.1-0.9-3.3-0.8
		h-4.2v7.5H471.7z"/>
	<path d="M494.3,153.4h-7.8v-6.1h22.7v6.1h-7.9v22.7h-7V153.4z"/>
	<path d="M519.9,147.3h6.9l11.1,28.8h-7.2l-2.2-5.9h-10.2l-2.2,5.9h-7.2L519.9,147.3z M526.7,164.5l-3.4-9.7l-3.4,9.7H526.7z"/>
	<path d="M543.8,147.3h7v22.7h12.1v6.1h-19.1V147.3z"/>
</g>
<g>
	<linearGradient id="SVGID_1_" gradientUnits="userSpaceOnUse" x1="110.9406" y1="173.1826" x2="165.1631" y2="79.2665">
		<stop  offset="0" style="stop-color:#009CED"/>
		<stop  offset="0.5188" style="stop-color:#0084ED"/>
		<stop  offset="0.9406" style="stop-color:#0095ED"/>
	</linearGradient>
	<path class="st0" d="M157.9,79.4c3.5,2.7,6.6,6,9.2,9.5c2.3,3.5,4.5,7.2,6.4,10.9c1.9-1.9,3.3-4.2,4.3-6.7c0.3-0.9,0.6-1.8,0.8-2.7
		c0.3-3.1,0.1-6.2-0.6-9.3c3.5,3.3,6.6,7.1,9,11.2c0.2,0.5,0.4,0.9,0.7,1.5c3.1,6.1,4,11.9,2.6,17.3c-6.8,26.7-19.3,43.1-37.2,49.1
		c-13.9,5.2-21.4,3.4-22.6-5.5c-0.7-1-1.5-1.8-2.5-2.5c-2.2-1.9-5-3.1-7.9-3.3c-7.7-1.8-13.8-5.1-18.2-10.3c-3-5.9-4.7-10.5-5.2-14
		c-0.8-4.6-0.2-9.2,1.8-13.4c0.1-0.1,0.1-0.2,0.2-0.3c4.8-9.8,12.1-15.7,22-17.8c-8.6,5.1-13.7,12.4-15.2,21.9
		c-0.3,1.9-0.3,3.8,0,5.7c0.7,5.3,3.5,11.2,8.2,17.8c-2.2-4.3-3.4-9-3.7-13.8c-0.1-5.9,1.7-11.6,5.1-16.4c4.6-6.4,9.5-10,14.9-10.8
		c5.8-0.8,12.9,1.5,21.4,6.8c-7.5-3.2-14-4.2-19.5-2.8c-5.8,1.3-9.5,5.1-11.1,11.2c-1.9,7.7,0.5,13.4,7.3,17.3
		c2.7,1.5,5.7,2.5,8.9,2.8c-7.7-5.7-9.7-14.7-6-26.8c0.8,11.4,2.9,17.9,6.4,19.2c3.5,1.4,8.5-2.2,15.2-10.6c6-7.7,5.5-16.1-1.4-25.1
		c-2.4-3-5.1-5.7-8.1-8.2l-4.3-3.1C144.3,74,150.7,74.4,157.9,79.4z"/>
	<g id="aj7hIB_2_">
		<g>
			<linearGradient id="SVGID_2_" gradientUnits="userSpaceOnUse" x1="130.4699" y1="109.7661" x2="180.6315" y2="109.7661">
				<stop  offset="0.4197" style="stop-color:#00D0ED"/>
				<stop  offset="1" style="stop-color:#00FFED"/>
			</linearGradient>
			<path class="st1" d="M130.5,134.7c9.5,1.6,24.1,11.1,27.7-6.4c-3.7,10.5-22.4,3.8-26.3-6.9c7.2,8.7,13.4,1.4,17.9-4.3
				c10.9-13.5,8.8-20.8-10.8-39.2c11-7,19.6,1.4,24.5,6.4c6.4,6.4,8.8,13.1,12.7,20.9c3.3,6.5,10,15.3-4.5,20.1
				c-2.3,0.7-3.2,4.7-4.9,7C155.9,147.2,147.6,148.1,130.5,134.7z"/>
		</g>
	</g>
	<linearGradient id="SVGID_3_" gradientUnits="userSpaceOnUse" x1="57.2907" y1="127.0158" x2="215.5324" y2="127.0158">
		<stop  offset="0.4197" style="stop-color:#00D0ED"/>
		<stop  offset="1" style="stop-color:#00FFED"/>
	</linearGradient>
	<path class="st2" d="M197.9,173.1c-16.9,6.4-32.3,9.9-46.2,10.8c8.2,2.1,22.1,0.5,41.7-4.7c4.6-1.3,9.5-2.7,14.7-4.4
		c-2.8,4.4-6.2,8.4-10.1,12c-8.5,4.3-17.4,7.9-26.5,10.6c-11.9,3.6-24.1,5.9-36.5,6.8c-1.1-0.1-2.3-0.1-3.3-0.1
		c-18.3-1-34.2-7.2-47.6-18.6c-1.4-1.2-2.8-2.5-4.2-3.8c-5.5-5.5-10.1-11.8-13.6-18.7c-5.6-11.2-8.7-24.4-9-39.7
		c-0.5-15,3.5-29.8,11.5-42.6c4.9-8.1,11.5-15,19.3-20.3c5.2-3.4,10.9-6,17-7.7c20.2-6,37.5-2.2,52.2,10.9h-2.1
		c-24-0.8-43.9,4.1-59.6,14.8c-0.1,0.1-0.2,0.1-0.4,0.2C79.6,89.4,72,103,72.1,119.4c0.1,14.8,9.9,29,29.5,42.6
		c5.4,1.9,10.2,5.1,14,9.3c1.7,2,3.4,4,4.9,6.2c1.8,2.6,5.3,4.1,10.4,4.3c6.1,0.4,12.2-1.1,17.5-4.1c6.7-3.6,13.9-6.3,21.3-8.1
		c11.1-2.8,22.5-5.1,34.4-7.1c3.9-0.6,7.7-1.5,11.4-2.8c-1,2.6-2,5.1-3.3,7.5c-3,1.2-6.5,2.6-10.7,4.2
		C200.4,172.1,199.2,172.7,197.9,173.1z"/>
	<linearGradient id="SVGID_4_" gradientUnits="userSpaceOnUse" x1="86.0615" y1="60.1506" x2="86.0615" y2="201.2706">
		<stop  offset="0" style="stop-color:#009CED"/>
		<stop  offset="0.5188" style="stop-color:#0084ED"/>
		<stop  offset="0.9406" style="stop-color:#0095ED"/>
	</linearGradient>
	<path class="st3" d="M114.8,201.3c-11.4-2.9-21.6-8.3-30.7-16c-1.4-1.2-2.8-2.5-4.2-3.8c-5.5-5.5-10.1-11.8-13.6-18.7
		c-5.6-11.2-8.7-24.4-9-39.7c-0.5-15,3.5-29.8,11.5-42.6c4.9-8.1,11.5-15,19.3-20.3c0,0-23.3,45.8-15.7,63.6l0,0
		c0.5,3.8,1.8,7.6,3.6,11.3C79.9,149.8,83.2,167.2,114.8,201.3z"/>
	<path d="M135.6,235.4c-60.4,0-109.4-48.9-109.4-109.3s49-109.4,109.4-109.4S245,65.7,245,126.1C244.9,186.5,196,235.4,135.6,235.4
		L135.6,235.4z M135.6,31.7c-52.1,0-94.4,42.3-94.4,94.4s42.3,94.4,94.4,94.4s94.4-42.3,94.4-94.4l0,0
		C229.9,74,187.7,31.7,135.6,31.7z"/>
	<g id="xMP44R.tif_1_">
		<path d="M184.1,62.7c0,0.7-0.1,1.5-0.3,2.2c-0.3,0.9-1,1.7-1.8,2.3s-1.8,0.9-2.7,1.1c-0.6,0.1-1.3,0.1-1.9,0.1
			c-1.1-0.1-2.1-0.4-3-1c-0.5-0.3-1-0.8-1.4-1.3c-0.3-0.5-0.6-1.1-0.7-1.7c-0.1-0.7-0.2-1.4-0.1-2.1c0-0.7,0.2-1.4,0.5-2.1
			c0.3-0.7,0.9-1.3,1.5-1.7c0.7-0.5,1.6-0.8,2.5-1c0.7-0.1,1.4-0.2,2.1-0.1c1.3,0.1,2.5,0.5,3.5,1.2c0.9,0.7,1.6,1.6,1.8,2.8
			C184,61.7,184.1,62.2,184.1,62.7z M173.3,62.7c0,0.5,0,1,0.1,1.5s0.3,0.9,0.6,1.3c0.3,0.3,0.6,0.6,1,0.9c0.7,0.5,1.5,0.7,2.4,0.8
			c0.7,0.1,1.4,0,2.1-0.1c0.9-0.2,1.7-0.6,2.3-1.2c0.4-0.4,0.6-0.8,0.8-1.4c0.1-0.5,0.2-0.9,0.2-1.4c0-0.7,0-1.3-0.2-2
			c-0.1-0.5-0.3-0.9-0.7-1.3c-0.4-0.4-0.8-0.7-1.3-1c-0.7-0.3-1.4-0.5-2.1-0.5c-0.6,0-1.3,0-1.9,0.2c-0.8,0.2-1.6,0.6-2.2,1.2
			c-0.4,0.4-0.6,0.8-0.7,1.3C173.4,61.5,173.3,62.1,173.3,62.7L173.3,62.7z"/>
		<path d="M181,66.1h-0.1c-0.3,0-0.7,0-1,0h-0.1c-0.4-0.8-0.7-1.6-1.1-2.4c0,0,0-0.1-0.1,0c-0.2,0-0.5,0.1-0.7,0c-0.3,0-0.7,0-1,0
			c-0.1,0-0.1,0-0.1,0.1c0,0.8,0,1.6,0,2.3c0,0.1,0,0.1-0.1,0.1c-0.3,0-0.7,0-1,0c-0.1,0-0.1,0-0.1-0.1c0-1.9,0-3.9,0-5.8
			c0-0.5,0.3-0.9,0.8-1c0.2,0,0.3-0.1,0.5-0.1c0.5,0,0.9,0,1.4,0s1.1,0.1,1.5,0.4c0.5,0.3,0.9,0.8,0.9,1.4c0.2,0.8-0.2,1.7-1,2.1
			c-0.1,0.1-0.1,0.1-0.1,0.2C180.1,64.2,180.5,65.1,181,66.1C180.9,66,181,66.1,181,66.1z M176.8,61.4c0,0.4,0,0.7,0,1.1
			c0,0.1,0,0.1,0.1,0.1c0.4,0,0.8,0,1.2,0c0.3,0,0.5,0,0.8-0.1c0.3,0,0.5-0.2,0.6-0.4s0.2-0.4,0.2-0.6c0.1-0.5-0.2-0.9-0.6-1.1
			c-0.2-0.1-0.5-0.2-0.7-0.2c-0.5,0-1,0-1.4,0c0,0,0,0-0.1,0s-0.1,0-0.1,0.1C176.8,60.7,176.8,61,176.8,61.4L176.8,61.4z"/>
	</g>
</g>
</svg>
