<svg id="Layer_1" data-name="Layer 1" xmlns="http://www.w3.org/2000/svg" xmlns:xlink="http://www.w3.org/1999/xlink" viewBox="0 0 696.10747 250"><defs><style>.cls-1{fill:#1d1d1b;}.cls-2{fill:url(#linear-gradient);}</style><linearGradient id="linear-gradient" x1="26.39773" y1="126" x2="245.13406" y2="126" gradientUnits="userSpaceOnUse"><stop offset="0"/><stop offset="1"/></linearGradient></defs><title>okeanos_dark</title><path class="cls-1" d="M292.7796,127.51563a27.96207,27.96207,0,0,1-10.75-10.62745,30.75682,30.75682,0,0,1-3.94141-15.67236,30.98961,30.98961,0,0,1,3.94141-15.71387,27.89349,27.89349,0,0,1,10.75-10.66845,32.30253,32.30253,0,0,1,30.41894,0,27.61811,27.61811,0,0,1,10.71094,10.66845,31.24775,31.24775,0,0,1,3.90234,15.71387,31.01256,31.01256,0,0,1-3.90234,15.67236,27.68432,27.68432,0,0,1-10.71094,10.62745,32.3026,32.3026,0,0,1-30.41894,0Zm22.97363-11.90918a14.4922,14.4922,0,0,0,5.57422-5.70655,19.32864,19.32864,0,0,0,.04-17.32666,14.593,14.593,0,0,0-5.53418-5.70654,16.19378,16.19378,0,0,0-15.6875,0,14.57958,14.57958,0,0,0-5.53418,5.70654,17.60542,17.60542,0,0,0-2.03125,8.64258,17.84285,17.84285,0,0,0,2.03125,8.68408,14.13771,14.13771,0,0,0,5.57422,5.70655,15.77045,15.77045,0,0,0,7.84375,1.98486A15.402,15.402,0,0,0,315.75323,115.60645Z"/><path class="cls-1" d="M343.38409,72.26953h14.09473V96.25391l19.1914-23.98438h16.72266l-22.53516,28.11914,24.04883,29.69092H378.18389l-20.70507-25.55566v25.55566H343.38409Z"/><path class="cls-1" d="M400.47979,72.26953h39.49805V84.59229H414.57452V95.42676h18.55469v11.4956H414.57452v10.83448h25.40332v12.32275H400.47979Z"/><path class="cls-1" d="M466.25518,72.26953h13.85547l22.2168,57.81006H487.91436l-4.459-11.90918H462.91046l-4.46,11.90918H443.95831Zm13.69629,34.65283L473.18292,87.4873l-6.84864,19.43506Z"/><path class="cls-1" d="M507.90069,72.26953h13.93555l20.46582,34.40479V72.26953h14.09472v57.81006H542.54034l-20.54492-34.4873v34.4873H507.90069Z"/><path class="cls-1" d="M576.66241,127.51563a27.96213,27.96213,0,0,1-10.75-10.62745,30.75682,30.75682,0,0,1-3.94141-15.67236,30.98961,30.98961,0,0,1,3.94141-15.71387,27.89356,27.89356,0,0,1,10.75-10.66845,32.30253,32.30253,0,0,1,30.41894,0,27.618,27.618,0,0,1,10.71094,10.66845,31.24776,31.24776,0,0,1,3.90235,15.71387,31.01257,31.01257,0,0,1-3.90235,15.67236,27.68425,27.68425,0,0,1-10.71094,10.62745,32.3026,32.3026,0,0,1-30.41894,0ZM599.636,115.60645a14.4922,14.4922,0,0,0,5.57422-5.70655,19.32864,19.32864,0,0,0,.04-17.32666,14.593,14.593,0,0,0-5.53418-5.70654,16.19378,16.19378,0,0,0-15.6875,0,14.57971,14.57971,0,0,0-5.53418,5.70654,17.60542,17.60542,0,0,0-2.03125,8.64258,17.84285,17.84285,0,0,0,2.03125,8.68408,14.13777,14.13777,0,0,0,5.57422,5.70655,15.77048,15.77048,0,0,0,7.84375,1.98486A15.402,15.402,0,0,0,599.636,115.60645Z"/><path class="cls-1" d="M632.20538,130.28613a30.3373,30.3373,0,0,1-8.52051-2.853V114.2832a38.294,38.294,0,0,0,8.958,3.47364,36.79066,36.79066,0,0,0,8.8789,1.15771,11.28352,11.28352,0,0,0,5.89258-1.24072,3.95493,3.95493,0,0,0,1.99121-3.55615,4.552,4.552,0,0,0-1.07519-3.01856,10.16369,10.16369,0,0,0-3.14551-2.35693q-2.07129-1.07446-6.4502-2.97754-7.72412-3.39039-11.22753-7.52588a16.28382,16.28382,0,0,1-.83692-19.022,17.48481,17.48481,0,0,1,7.44629-6.0376,26.53046,26.53046,0,0,1,10.98926-2.15039,44.97958,44.97958,0,0,1,9.07715.82715,31.60063,31.60063,0,0,1,7.64453,2.64648V87.32178a29.29373,29.29373,0,0,0-14.09473-3.80469,12.38822,12.38822,0,0,0-6.0918,1.28223,4.02654,4.02654,0,0,0-2.26953,3.68017A4.47009,4.47009,0,0,0,641.681,92.3667a60.29958,60.29958,0,0,0,8.52051,4.05225,44.5143,44.5143,0,0,1,8.79981,4.71435,14.16642,14.16642,0,0,1,4.57812,5.37549,18.35362,18.35362,0,0,1,1.4336,7.77441q0,8.023-5.61426,12.52979-5.61328,4.50806-16.76172,4.50732A53.146,53.146,0,0,1,632.20538,130.28613Z"/><path class="cls-1" d="M282.678,147.26123h7.21778l4.63965,17.05176,4.48144-17.05176H304.014l4.2041,17.09277,4.59961-17.09277h7.21778l-7.65332,28.79h-6.46485l-4.56054-16.72217-4.52051,16.72217h-6.50391Z"/><path class="cls-1" d="M325.9837,147.26123h19.6709V153.398H333.00323v5.39551h9.24023v5.72509h-9.24023v5.39551H345.6546v6.13721H325.9837Z"/><path class="cls-1" d="M351.60186,147.26123h14.03906a9.18839,9.18839,0,0,1,6.3252,2.05908,7.4625,7.4625,0,0,1,2.32031,5.89014,7.36681,7.36681,0,0,1-.793,3.37695,6.076,6.076,0,0,1-2.26074,2.47168,6.01216,6.01216,0,0,1,2.97461,2.36817,7.56222,7.56222,0,0,1,.95117,4.01562,8.66605,8.66605,0,0,1-1.18945,4.59277,7.90474,7.90474,0,0,1-3.19238,2.98584,9.6041,9.6041,0,0,1-4.46094,1.02979H351.60186Zm12.49219,11.40869q3.09375,0,3.09375-3.00683a2.85449,2.85449,0,0,0-.793-2.32666,3.818,3.818,0,0,0-2.41894-.63868h-5.3545v5.97217Zm.43652,11.94434a4.19877,4.19877,0,0,0,2.65723-.7002,3.01061,3.01061,0,0,0,.87207-2.47119,3.26471,3.26471,0,0,0-.91211-2.57422,4.10693,4.10693,0,0,0-2.77539-.80322h-5.751v6.54883Z"/><path class="cls-1" d="M397.763,147.26123h12.21484a11.048,11.048,0,0,1,7.7334,2.63574,9.468,9.468,0,0,1,2.89453,7.37256q0,4.86036-2.875,7.51709a10.97614,10.97614,0,0,1-7.75293,2.65625h-5.19531v8.6084H397.763Zm11.10449,14.04492a5.407,5.407,0,0,0,3.31152-.90625,3.67011,3.67011,0,0,0,1.21-3.13037,3.46123,3.46123,0,0,0-1.19043-3.04785,5.7954,5.7954,0,0,0-3.33105-.82373h-4.085v7.9082Z"/><path class="cls-1" d="M432.08721,174.77441a13.93408,13.93408,0,0,1-5.35449-5.29248,16.54035,16.54035,0,0,1,0-15.63086,13.90108,13.90108,0,0,1,5.35449-5.31347,16.08782,16.08782,0,0,1,15.14844,0,13.75109,13.75109,0,0,1,5.334,5.31347,16.68695,16.68695,0,0,1,0,15.63086,13.78282,13.78282,0,0,1-5.334,5.29248,16.08775,16.08775,0,0,1-15.14844,0Zm11.44141-5.93115a7.21187,7.21187,0,0,0,2.77539-2.8418,9.62242,9.62242,0,0,0,.01953-8.6289,7.2633,7.2633,0,0,0-2.75586-2.8418,8.06372,8.06372,0,0,0-7.8125,0,7.25669,7.25669,0,0,0-2.75586,2.8418,8.76545,8.76545,0,0,0-1.01172,4.3042,8.88377,8.88377,0,0,0,1.01172,4.3247,7.035,7.035,0,0,0,2.77539,2.8418,7.85455,7.85455,0,0,0,3.90625.98877A7.67189,7.67189,0,0,0,443.52862,168.84326Z"/><path class="cls-1" d="M460.46124,147.26123h12.45312q4.87794,0,7.63379,2.55322,2.75538,2.5547,2.75586,7.33155a10.52986,10.52986,0,0,1-1.34766,5.478,8.29594,8.29594,0,0,1-3.80761,3.37744l4.918,10.04981h-7.21778l-4.40234-9.02h-3.96582v9.02h-7.01953ZM471.68487,160.894a5.41884,5.41884,0,0,0,3.252-.84424,4.31875,4.31875,0,0,0,.01953-5.84863,5.60827,5.60827,0,0,0-3.27148-.80322h-4.2041V160.894Z"/><path class="cls-1" d="M494.28936,153.398h-7.8125v-6.13672h22.68457V153.398h-7.85254v22.65332h-7.01953Z"/><path class="cls-1" d="M519.86846,147.26123h6.90039l11.06446,28.79h-7.17774l-2.2207-5.93115H518.20245l-2.2207,5.93115H508.764Zm6.82129,17.25732-3.37109-9.67919-3.41113,9.67919Z"/><path class="cls-1" d="M543.78155,147.26123h7.01953v22.65283h12.05664v6.13721H543.78155Z"/><path class="cls-1" d="M158.06978,79.31131a48.61393,48.61393,0,0,1,9.19489,9.53564,106.11675,106.11675,0,0,1,6.38812,10.91873,19.32924,19.32924,0,0,0,4.25583-6.682,18.4386,18.4386,0,0,0,.76588-2.69116,28.38684,28.38684,0,0,0-.59616-9.28987,49.07879,49.07879,0,0,1,9.02517,11.24783c.16972.4874.42648.89565.67885,1.4664,3.06789,6.11131,4.00346,11.89767,2.55438,17.28-6.81021,26.73235-19.32536,43.1125-37.20166,49.06137-13.87718,5.21562-21.37061,3.42433-22.56294-5.46144a11.97782,11.97782,0,0,0-2.46734-2.52454,13.39515,13.39515,0,0,0-7.91988-3.26185c-7.74581-1.79134-13.79016-5.13232-18.21571-10.348-2.98085-5.86974-4.68231-10.51463-5.19579-14.01819a22.87667,22.87667,0,0,1,1.78849-13.44736.60172.60172,0,0,0,.16972-.32912c4.76932-9.77727,12.08868-15.72614,22.04945-17.76739-8.59872,5.05319-13.70312,12.38924-15.1522,21.925a21.22986,21.22986,0,0,0,0,5.70721c.6832,5.2948,3.49,11.24366,8.17228,17.84654a34.20364,34.20364,0,0,1-3.6597-13.77231,26.73629,26.73629,0,0,1,5.10875-16.38437c4.59527-6.43624,9.53433-10.02307,14.89548-10.75624,5.792-.81652,12.85892,1.46637,21.37061,6.84451-7.49344-3.17855-13.95988-4.15338-19.49508-2.84946-5.78762,1.30392-9.53432,5.05319-11.06609,11.16453-1.87553,7.74016.50915,13.44742,7.31936,17.27582A23.3516,23.3516,0,0,0,137.13,132.776c-7.66313-5.70721-9.70838-14.67216-6.04436-26.81561.76589,11.41026,2.89381,17.85072,6.38376,19.15463,3.49,1.383,8.5117-2.20375,15.15221-10.598,6.04435-7.661,5.53523-16.05522-1.44473-25.09932a52.61939,52.61939,0,0,0-8.08957-8.15257l-4.25586-3.09526C144.44934,73.929,150.92014,74.33727,158.06978,79.31131Z"/><path class="cls-1" d="M198.08234,173.039c-16.93995,6.44-32.35,9.94-46.23,10.76,8.17005,2.11,22.14.48,41.7201-4.73q6.86974-1.905,14.72-4.38a61.19609,61.19609,0,0,1-10.05,12,164.06764,164.06764,0,0,1-26.47,10.63,166.48869,166.48869,0,0,1-36.52,6.77c-1.1001-.08-2.29-.08-3.32007-.08-18.29993-.98-34.22-7.18-47.59-18.58-1.36-1.22-2.80994-2.53-4.25-3.83a73.06748,73.06748,0,0,1-13.62-18.67c-5.62-11.24-8.68994-24.45-8.95-39.69a75.4462,75.4462,0,0,1,11.5-42.55,65.8888,65.8888,0,0,1,19.31995-20.29A63.45287,63.45287,0,0,1,105.29242,52.659c20.16992-5.95,37.53992-2.2,52.18994,10.92h-2.05c-24.01-.81-43.92993,4.08-59.6,14.75-.08.08-.25.08-.42005.16-15.57995,10.84-23.24,24.38-23.06994,40.84q.11993,22.125,29.54,42.62a33.71291,33.71291,0,0,1,14.04993,9.29,68.37858,68.37858,0,0,1,4.8501,6.2c1.79,2.61,5.28,4.07,10.37988,4.32a31.9066,31.9066,0,0,0,17.54-4.08,86.0242,86.0242,0,0,1,21.29-8.07c11.07007-2.77,22.47-5.13,34.39-7.08a65.44909,65.44909,0,0,0,11.4-2.77,80.6771,80.6771,0,0,1-3.26,7.51q-4.47,1.755-10.69006,4.22A38.10166,38.10166,0,0,1,198.08234,173.039Z"/><path class="cls-2" d="M135.7659,235.36816A109.36816,109.36816,0,1,1,245.13406,126,109.49222,109.49222,0,0,1,135.7659,235.36816Zm0-203.73632A94.36816,94.36816,0,1,0,230.13406,126,94.47487,94.47487,0,0,0,135.7659,31.63184Z"/><g id="xMP44R.tif"><path d="M184.2516,62.59727a6.26636,6.26636,0,0,1-.32923,2.15317,4.54777,4.54777,0,0,1-1.79014,2.28066,6.55632,6.55632,0,0,1-2.73624,1.08262,8.05715,8.05715,0,0,1-1.93794.05279,6.56269,6.56269,0,0,1-3.04521-1.01233A4.62,4.62,0,0,1,173.03507,65.86a4.79541,4.79541,0,0,1-.69732-1.73349,7.87565,7.87565,0,0,1-.11654-2.10053,5.62724,5.62724,0,0,1,.50745-2.05986,4.336,4.336,0,0,1,1.52277-1.72733,6.40532,6.40532,0,0,1,2.45579-1.009,8.36808,8.36808,0,0,1,2.13454-.1162A6.63906,6.63906,0,0,1,182.32145,58.33a4.37308,4.37308,0,0,1,1.782,2.77A7.15718,7.15718,0,0,1,184.2516,62.59727Zm-10.75106.005a6.92415,6.92415,0,0,0,.14861,1.47556,3.37785,3.37785,0,0,0,.58513,1.34035,3.752,3.752,0,0,0,.97562.85365,5.16462,5.16462,0,0,0,2.377.78371,6.5749,6.5749,0,0,0,2.06466-.12082A4.81125,4.81125,0,0,0,181.9753,65.691a2.95136,2.95136,0,0,0,.76231-1.35643,5.92912,5.92912,0,0,0,.20671-1.41608,6.57158,6.57158,0,0,0-.19367-1.95884,2.94742,2.94742,0,0,0-.6786-1.30007,4.46733,4.46733,0,0,0-1.33974-.95808,5.51732,5.51732,0,0,0-2.09312-.50842,6.64063,6.64063,0,0,0-1.93589.16206,4.78856,4.78856,0,0,0-2.213,1.19083,2.86271,2.86271,0,0,0-.747,1.2679A6.24444,6.24444,0,0,0,173.50054,62.60226Z"/><path d="M181.16057,66.01276h-.1364c-.332,0-.6639-.00053-.99585.00072a.06763.06763,0,0,1-.07439-.04644q-.54316-1.22319-1.08852-2.44542c-.01611-.03626-.03053-.05169-.0723-.04511a4.79424,4.79424,0,0,1-.72564.0499q-.518.00232-1.03594-.001c-.05621-.00046-.06916.0147-.069.06979.0019.78182.00047,1.56364.00286,2.34545.00019.06289-.01825.076-.07741.07551q-.49788-.00413-.99582-.00005c-.0534.0004-.06562-.01506-.06558-.06679q.002-2.89674.00261-5.79347a.93965.93965,0,0,1,.7945-.972,2.09561,2.09561,0,0,1,.49006-.05359c.46114-.00066.92237-.00424,1.38342.00278a2.85475,2.85475,0,0,1,1.53024.42236,1.943,1.943,0,0,1,.94245,1.41325,1.97492,1.97492,0,0,1-.9564,2.08056c-.12476.07939-.12424.07815-.06575.21024q.59307,1.3393,1.18519,2.679C181.14256,65.96037,181.14971,65.98341,181.16057,66.01276Zm-4.19677-4.67553c0,.37191.00108.74381-.00122,1.1157-.00033.05343.01052.07182.06821.07144.40537-.00262.8108.00165,1.21614-.00251a3.20624,3.20624,0,0,0,.77368-.09213,1.027,1.027,0,0,0,.64455-.40645,1.20241,1.20241,0,0,0,.18032-.60655,1.1062,1.1062,0,0,0-.61282-1.123,1.54483,1.54483,0,0,0-.71621-.16073c-.47664-.00336-.95332-.001-1.43-.00089a.39244.39244,0,0,0-.05327.00237c-.05024.0069-.0718.02866-.07123.08708C176.96556,60.59342,176.9638,60.96533,176.9638,61.33723Z"/></g></svg>