<svg id="Marca_Extended" data-name="Marca Extended" xmlns="http://www.w3.org/2000/svg" viewBox="0 0 1566 718"><defs><style>.cls-1{fill:#021d49;}.cls-2{fill:#3c3c3b;}</style></defs><title>logo_UAc_transp</title><path class="cls-1" d="M374.9,42.89C200.32,42.89,58.8,184.42,58.8,359S200.32,675.11,374.9,675.11,691,533.58,691,359,549.48,42.89,374.9,42.89ZM383.38,175,364.62,198,345.86,175Zm-57.28-5.85,50.15,61.33H276ZM317.69,443.8l-199.5-201,199.88.12Zm12.77,115.56V458.8l90.45-61.89ZM331,443.8V243l300.61-.12Z"/><path class="cls-1" d="M850.09,176.55l18.82,0L868.75,231q0,9.12,2.12,13.34,3.33,7.45,14.6,7.49t14.58-7.41q2.18-4.2,2.2-13.33l.15-54.43,18.82.05-.16,54.48q0,14.13-4.44,22-8.21,14.41-31.2,14.35t-31.17-14.52q-4.37-7.89-4.32-22Z"/><path class="cls-1" d="M964.36,176.88l21,.06,31.1,88.72-20.08-.06-5.8-18.24-32.64-.09-6.06,18.2-19.37-.05ZM963,232l22.69.07-11.09-34.91Z"/><path class="cls-1" d="M1065.63,223.77a15.07,15.07,0,0,0-2.45-6.62q-2.88-4-9-4-8.67,0-11.9,8.57a35.9,35.9,0,0,0-1.72,12.11,32.88,32.88,0,0,0,1.66,11.58q3,8.18,11.55,8.21c4,0,6.87-1.07,8.56-3.23a16.07,16.07,0,0,0,3.1-8.41l17.5.06a28.7,28.7,0,0,1-5.7,14.77q-8.1,11.22-23.93,11.18t-23.26-9.45q-7.44-9.41-7.4-24.35.06-16.86,8.32-26.22t22.78-9.31q12.35,0,20.18,5.59t9.24,19.57Z"/><path class="cls-2" d="M858.57,333.59v39.29a23,23,0,0,0,2.62,11.5q3.88,6.93,13.08,6.93,11,0,15-7.49,2.15-4.06,2.14-10.94V333.59h8.7v35.7q0,11.71-3.17,18-5.82,11.51-22,11.5t-21.92-11.5q-3.18-6.31-3.17-18v-35.7Z"/><path class="cls-2" d="M913.26,333.59H923.4l31.7,51.35V333.59h8.22v63.56h-9.67l-32.17-51.29v51.29h-8.22Z"/><path class="cls-2" d="M979.2,333.59h8.69v63.56H979.2Z"/><path class="cls-2" d="M1006.91,333.59l18.26,54.13,18-54.13h9.64l-23.19,63.56h-9.12l-23.15-63.56Z"/><path class="cls-2" d="M1061.79,333.59h46.12v7.79h-37.73v19.29h34.87V368h-34.87v21.55h38.38v7.57h-46.77Z"/><path class="cls-2" d="M1121.11,333.59H1150a28.37,28.37,0,0,1,11.76,2.12q8.81,4.07,8.8,15a15.64,15.64,0,0,1-9,15.19,13,13,0,0,1,5.6,4q1.89,2.46,2.1,8l.31,8.53a25.76,25.76,0,0,0,.6,5.41q.78,3,2.77,3.89v1.43h-10.56a7.87,7.87,0,0,1-.69-2.12,40.52,40.52,0,0,1-.43-5l-.52-10.6q-.3-6.24-4.5-8.35c-1.6-.78-4.1-1.17-7.52-1.17h-19v27.26h-8.6Zm28,29.12c3.93,0,7-.81,9.32-2.42s3.43-4.53,3.43-8.74q0-6.8-4.8-9.26a15.24,15.24,0,0,0-6.86-1.3h-20.45v21.72Z"/><path class="cls-2" d="M1189.68,376.64a17.83,17.83,0,0,0,2.46,8.78q4.13,6.31,14.54,6.32a24.74,24.74,0,0,0,8.51-1.39q7.41-2.67,7.42-9.6,0-5.19-3.15-7.4t-10-3.76l-8.34-1.95q-8.18-1.9-11.57-4.2-5.86-4-5.87-11.89a18.57,18.57,0,0,1,5.77-14.07q5.76-5.49,16.33-5.49,9.74,0,16.53,4.82t6.8,15.43h-8.09a16.3,16.3,0,0,0-2.66-7.83c-2.51-3.32-6.79-5-12.81-5q-7.3,0-10.5,3.2a10.23,10.23,0,0,0-3.19,7.45,7.29,7.29,0,0,0,3.77,6.83q2.47,1.38,11.19,3.46l8.64,2a26,26,0,0,1,9.64,4q5.86,4.45,5.87,12.94,0,10.54-7.49,15.09A32.9,32.9,0,0,1,1206.1,399q-11.55,0-18.1-6.06t-6.41-16.31Z"/><path class="cls-2" d="M1245.1,333.59h8.7v63.56h-8.7Z"/><path class="cls-2" d="M1268.16,333.59h25.41q12.93,0,20.06,9.3,6.36,8.4,6.37,21.51a43.39,43.39,0,0,1-3.76,18.3q-6.62,14.44-22.76,14.45h-25.32Zm23.72,56.2a22.61,22.61,0,0,0,7-.91,15.46,15.46,0,0,0,8-6.49,26.9,26.9,0,0,0,3.59-9.86,37.73,37.73,0,0,0,.64-6.66q0-11.82-4.59-18.35T1291.79,341h-14.93v48.8Z"/><path class="cls-2" d="M1350.31,333.59H1360l23.07,63.56h-9.43l-6.64-19H1342.1l-6.9,19h-8.82Zm14.28,37.51L1354.8,343l-10.17,28.08Z"/><path class="cls-2" d="M1391.25,333.59h25.41q12.93,0,20.06,9.3,6.36,8.4,6.37,21.51a43.39,43.39,0,0,1-3.76,18.3q-6.61,14.44-22.76,14.45h-25.32Zm23.72,56.2a22.61,22.61,0,0,0,7-.91,15.46,15.46,0,0,0,8-6.49,26.9,26.9,0,0,0,3.59-9.86,37.73,37.73,0,0,0,.64-6.66q0-11.82-4.59-18.35T1414.88,341H1400v48.8Z"/><path class="cls-2" d="M1455.67,333.59h46.13v7.79h-37.73v19.29h34.87V368h-34.87v21.55h38.37v7.57h-46.77Z"/><path class="cls-2" d="M849.66,439.92h25.4q12.95,0,20.07,9.3,6.36,8.4,6.36,21.5a43.24,43.24,0,0,1-3.76,18.3q-6.62,14.46-22.75,14.45H849.66Zm23.72,56.2a22.7,22.7,0,0,0,7-.91,15.56,15.56,0,0,0,8-6.49,27,27,0,0,0,3.59-9.86,38.91,38.91,0,0,0,.64-6.67q0-11.81-4.59-18.34t-14.79-6.53H858.36v48.8Z"/><path class="cls-2" d="M965.61,449q6.32,8.44,6.32,21.59,0,14.24-7.23,23.67-8.48,11.07-24.18,11.07-14.67,0-23.06-9.69Q910,486.3,910,472q0-12.9,6.41-22.06,8.22-11.77,24.31-11.77Q957.52,438.19,965.61,449ZM958,489.51a34.73,34.73,0,0,0,5.08-18.77q0-11.21-5.86-18.05t-16-6.85a20.88,20.88,0,0,0-16.1,6.78q-6.23,6.78-6.23,20,0,10.57,5.35,17.82t17.33,7.26Q952.93,497.68,958,489.51Z"/><path class="cls-2" d="M987.81,483a17.86,17.86,0,0,0,2.45,8.78q4.13,6.31,14.55,6.32a25,25,0,0,0,8.5-1.39q7.43-2.69,7.42-9.6,0-5.19-3.14-7.4t-10-3.77L999.27,474q-8.17-1.91-11.57-4.2-5.87-4-5.86-11.9a18.57,18.57,0,0,1,5.76-14.06q5.77-5.49,16.34-5.49,9.72,0,16.52,4.82t6.8,15.42h-8.09a16.38,16.38,0,0,0-2.65-7.83q-3.78-5-12.82-5-7.31,0-10.49,3.2a10.22,10.22,0,0,0-3.2,7.44,7.32,7.32,0,0,0,3.78,6.84c1.64.92,5.38,2.07,11.19,3.46l8.63,2a25.78,25.78,0,0,1,9.64,4q5.88,4.46,5.87,12.93,0,10.56-7.49,15.1a32.86,32.86,0,0,1-17.4,4.54q-11.57,0-18.1-6.05T979.71,483Z"/><path class="cls-2" d="M1083.84,439.92h9.72l23.07,63.55h-9.43l-6.64-19h-24.93l-6.9,19h-8.82Zm14.28,37.51-9.79-28.08-10.16,28.08Z"/><path class="cls-2" d="M1169.35,444.55a22.56,22.56,0,0,1,7.31,14.45h-8.39a17.59,17.59,0,0,0-5.59-9.74q-4.18-3.58-11.75-3.59a18.67,18.67,0,0,0-14.89,6.6q-5.67,6.62-5.67,20.25,0,11.18,5.12,18.12t15.28,6.95q9.35,0,14.23-7.31a28.07,28.07,0,0,0,3.87-10.13h8.39a28.79,28.79,0,0,1-7.35,16.83q-7.48,8.19-19.3,8.18l-2.85,3.89a11.19,11.19,0,0,1,3.24-.38,7.23,7.23,0,0,1,5,1.75,6.35,6.35,0,0,1,2,5,7.42,7.42,0,0,1-2.6,5.66q-2.59,2.38-8,2.38a18.39,18.39,0,0,1-4.76-.65,37.13,37.13,0,0,1-3.72-1.21l1.52-3.5c1.09.4,1.94.69,2.55.86a12.36,12.36,0,0,0,3.2.48A7.26,7.26,0,0,0,1149,519a3.28,3.28,0,0,0,2.25-3.29,3.1,3.1,0,0,0-1.15-2.4,4.41,4.41,0,0,0-3-1,7.51,7.51,0,0,0-1.71.17,13.47,13.47,0,0,0-1.79.56l-1.52-1.77,4.42-6.06q-7.44,0-14.92-6-10-9.57-10-28.09,0-14.07,7.35-23.08,8-9.78,21.94-9.78Q1162.76,438.19,1169.35,444.55Z"/><path class="cls-2" d="M1240.73,449q6.33,8.44,6.32,21.59,0,14.24-7.22,23.67-8.49,11.07-24.19,11.07-14.67,0-23.06-9.69-7.49-9.34-7.49-23.62,0-12.9,6.41-22.06,8.22-11.77,24.31-11.77Q1232.64,438.19,1240.73,449Zm-7.59,40.51a34.73,34.73,0,0,0,5.08-18.77q0-11.21-5.86-18.05t-16-6.85a20.86,20.86,0,0,0-16.09,6.78q-6.24,6.78-6.23,20,0,10.57,5.34,17.82t17.33,7.26Q1228.05,497.68,1233.14,489.51Z"/><path class="cls-2" d="M1258.34,439.92h28.89A28.26,28.26,0,0,1,1299,442q8.79,4.06,8.8,15a15.64,15.64,0,0,1-9,15.19,12.92,12.92,0,0,1,5.6,4q1.89,2.46,2.1,8l.3,8.52a26.12,26.12,0,0,0,.61,5.41q.78,3,2.77,3.9v1.42h-10.56a7.64,7.64,0,0,1-.69-2.12,40.12,40.12,0,0,1-.43-5l-.52-10.59q-.3-6.24-4.5-8.36-2.4-1.15-7.52-1.16h-19v27.25h-8.61Zm28,29.11c3.92,0,7-.8,9.32-2.42s3.43-4.53,3.43-8.74q0-6.8-4.8-9.26a15.39,15.39,0,0,0-6.86-1.29H1267V469Z"/><path class="cls-2" d="M1322.12,439.92h46.12v7.79h-37.73V467h34.87v7.36h-34.87V495.9h38.38v7.57h-46.77Z"/><path class="cls-2" d="M1386,483a17.76,17.76,0,0,0,2.46,8.78q4.13,6.31,14.54,6.32a24.93,24.93,0,0,0,8.5-1.39q7.43-2.69,7.42-9.6c0-3.46-1-5.93-3.14-7.4s-5.45-2.7-10-3.77l-8.34-1.94q-8.16-1.91-11.56-4.2-5.88-4-5.87-11.9a18.55,18.55,0,0,1,5.77-14.06q5.76-5.49,16.33-5.49,9.72,0,16.53,4.82t6.8,15.42h-8.09a16.38,16.38,0,0,0-2.66-7.83q-3.78-5-12.82-5-7.29,0-10.49,3.2a10.22,10.22,0,0,0-3.2,7.44,7.32,7.32,0,0,0,3.78,6.84q2.48,1.38,11.19,3.46l8.64,2a25.93,25.93,0,0,1,9.64,4q5.87,4.46,5.87,12.93,0,10.56-7.49,15.1a32.92,32.92,0,0,1-17.41,4.54q-11.57,0-18.1-6.05T1377.93,483Z"/></svg>