<svg id="Layer_1" data-name="Layer 1" xmlns="http://www.w3.org/2000/svg" viewBox="0 0 440.12 151.54"><defs><style>.cls-1{fill:#fff;}</style></defs><path class="cls-1" d="M141.53,76.61a63,63,0,1,1-61.5-63A63,63,0,0,1,141.53,76.61ZM69.77,93.54l59.92-40.06H69.77ZM67.15,53.46H27.3L67,93.41l.17-.1ZM87.6,84.39l-.13-.08a1.06,1.06,0,0,0-.21.11q-8.6,5.88-17.17,11.77a1.37,1.37,0,0,0-.45,1c0,6.2,0,12.4,0,18.61,0,.18,0,.36.08.75L87.6,84.38ZM68.78,38.69l-10,12.25h20Zm3.91,1.24,3.78,4.61,3.75-4.61Z"/><path class="cls-1" d="M169.27,19.59v1.76c0,6.71-.08,13.42-.05,20.13a18.85,18.85,0,0,0,.48,4.11,4.58,4.58,0,0,0,4,3.79,14.23,14.23,0,0,0,4.12.11c2.7-.38,4.19-2,4.62-4.86a23.32,23.32,0,0,0,.24-3.24c0-6.75,0-13.51.06-20.26V19.76h7.51v1.35c0,6.93,0,13.86-.07,20.79a24.21,24.21,0,0,1-.56,5c-1.14,5.15-4.5,8-10.38,8.83a22.48,22.48,0,0,1-8.76-.44A10.72,10.72,0,0,1,161.94,45c-.28-4.53-.16-9.08-.19-13.62,0-3.25,0-6.5,0-9.75,0-2.22-.23-2,2-2Z"/><path class="cls-1" d="M204.83,47.82c-.71,2.1-1.44,4.18-2.09,6.28a1.19,1.19,0,0,1-1.36,1c-2.2,0-4.41,0-6.77,0,1.11-3.11,2.16-6.07,3.23-9,3-8.38,6-16.75,9-25.15a1.51,1.51,0,0,1,1.75-1.22c2,.09,4.07.08,6.1.06a1.16,1.16,0,0,1,1.33.88q5.85,16.86,11.76,33.68a8.09,8.09,0,0,1,.16.83c-2.57,0-5.05,0-7.55,0-.22,0-.52-.51-.63-.83-.61-1.85-1.16-3.72-1.8-5.56-.12-.35-.58-.85-.89-.85C213,47.8,209,47.82,204.83,47.82Zm10.94-6.16c-1.41-4.47-2.81-8.88-4.22-13.3l-.27,0-4.4,13.26Z"/><path class="cls-1" d="M254.64,38.45c-2.17,0-4.25,0-6.32,0-.29,0-.69-.42-.81-.74-.91-2.48-2-3.39-4.27-3.42a4.59,4.59,0,0,0-4.74,3.32,14.68,14.68,0,0,0,.06,9.79,4.35,4.35,0,0,0,3.63,3c2.72.43,4.57-.75,5.16-3.5.21-1,.64-1.2,1.55-1.16,1.81,0,3.62,0,5.61,0a16.59,16.59,0,0,1-.2,1.71A10.88,10.88,0,0,1,244.07,56a18.65,18.65,0,0,1-4.66-.28c-4.63-.87-7.12-4-8.24-8.34a19.5,19.5,0,0,1,.05-9.89c1.63-6.28,6.16-9.5,12.82-9a17.59,17.59,0,0,1,5.15,1.17A8.88,8.88,0,0,1,254.64,38.45Z"/><path class="cls-1" d="M191.43,75.13V95h-3.15c0-.48-.08-.94-.08-1.41,0-7.45,0-14.9,0-22.35,0-1.3.44-1.49,1.62-1.59a3.5,3.5,0,0,1,3.7,2c3.38,5.65,6.92,11.2,10.41,16.79a3.3,3.3,0,0,0,1.1,1.16V71.39c0-1.65,0-1.65,1.72-1.65h1.47V95.11a32.3,32.3,0,0,1-3.41,0c-.35,0-.72-.56-1-.93q-5.7-9-11.38-18c-.23-.36-.47-.7-.71-1.06Z"/><path class="cls-1" d="M274.66,95.07h-3.43c0-.51-.08-1-.08-1.43,0-7.45,0-14.91,0-22.36,0-1.28.39-1.6,1.61-1.55,3.81.11,7.63,0,11.43.19,3.45.18,5.59,1.75,6.27,4.33.8,3.07.31,6.33-2.66,8.16a2.11,2.11,0,0,0-.35.38c2.45,1,2.86,3,2.82,5.34a16.19,16.19,0,0,0,.18,3.11c.23,1.26.65,2.49,1,3.88-1.05,0-2.36.07-3.66-.05-.25,0-.58-.78-.63-1.22-.16-1.72-.24-3.46-.32-5.19-.14-3.07-1.1-4.19-4.13-4.34-2.63-.13-5.27,0-8,0Zm0-13.68c2.33,0,4.57,0,6.81,0a12.7,12.7,0,0,0,2.82-.25c2.16-.52,3.11-2,3-4.36s-1.21-3.76-3.39-3.89c-3-.18-6.11,0-9.22,0Z"/><path class="cls-1" d="M188.1,118.43a46.27,46.27,0,0,1,1.56-6.37c2.16-5.31,7.11-7.82,13.13-6.94s9.41,4.35,10.14,10.44c.6,5-.21,9.81-4.19,13.32s-8.7,3.7-13.43,1.83-6.36-5.82-6.84-10.48a15.88,15.88,0,0,1,0-1.69Zm21.84-.17-.27-.12a28.79,28.79,0,0,0-.44-3.34c-.8-3.24-2.61-5.7-6-6.48s-6.54-.17-9,2.6c-3.29,3.73-3.08,12,.39,15.56,3.72,3.83,11.1,2.82,13.4-2a43.89,43.89,0,0,0,1.91-6.22Z"/><path class="cls-1" d="M310.49,105c7.43,0,12,4.4,12.31,11.85a16.53,16.53,0,0,1-1.91,9c-2.64,4.58-7.28,6.53-13.31,5.59a11.05,11.05,0,0,1-9.06-9,17.92,17.92,0,0,1,.1-8.24C300.18,108.2,304.28,105,310.49,105Zm8.9,13.25c-.16-1.3-.21-2.33-.42-3.36a8.17,8.17,0,0,0-7.71-6.87c-4.62-.16-7.82,2-9,6.19a14.4,14.4,0,0,0-.1,8.2c.81,2.79,2.3,5.11,5.32,5.85,6.22,1.5,9.7-.73,11.27-6.06A37.29,37.29,0,0,0,319.39,118.28Z"/><path class="cls-1" d="M343.74,118.74c2.45.89,2.72,3,2.77,5.27a20.7,20.7,0,0,0,.08,2.85c.24,1.35.67,2.66,1.06,4.15a29.68,29.68,0,0,1-3.4,0c-.31,0-.75-.65-.78-1-.22-2-.3-4-.48-6.08-.21-2.44-1.14-3.49-3.55-3.61-2.59-.14-5.2,0-7.79-.07-.84,0-.88.48-.88,1.1v9.67h-3.32V105.71h11.68a12.13,12.13,0,0,1,2.33.17c2.6.5,4.66,1.76,5.27,4.52.66,3,.27,5.7-2.44,7.64a4.93,4.93,0,0,0-.49.42S343.77,118.55,343.74,118.74Zm-12.87-1.58a2.22,2.22,0,0,0,.39.12c1.9,0,3.8,0,5.7,0a17.64,17.64,0,0,0,3.48-.28c2.33-.52,3.16-1.94,3-4.69a3.44,3.44,0,0,0-3.42-3.57c-3-.17-6,0-9.16,0Z"/><path class="cls-1" d="M164.43,131V105.71H174c5.93,0,9.47,2.85,10.66,8.7A17.17,17.17,0,0,1,183.1,126a8.67,8.67,0,0,1-7.83,4.94C171.74,131.06,168.1,131,164.43,131Zm3.49-3h6.71a5.93,5.93,0,0,0,5.66-3.86,14.54,14.54,0,0,0,.1-11.5,5.34,5.34,0,0,0-4.28-3.63c-2.67-.34-5.4-.3-8.2-.43Z"/><path class="cls-1" d="M378.94,95.07V69.74h3.26c2.56,0,5.12-.1,7.66.12,4.89.42,7.89,3.06,9.07,7.87a17.51,17.51,0,0,1-1.19,12.14A8.48,8.48,0,0,1,390.36,95C386.58,95.23,382.83,95.07,378.94,95.07Zm3.41-3h6.12c3.37,0,5.48-1.44,6.61-4.59A14.92,14.92,0,0,0,395,77.1c-.75-2.08-2.16-3.69-4.38-4-2.72-.36-5.47-.33-8.3-.48Z"/><path class="cls-1" d="M329.87,70c4.13,0,8.22-.3,12.24.09s6.37,3.19,7.5,6.88a17.26,17.26,0,0,1-.9,12.78,8.93,8.93,0,0,1-8.6,5.41c-3.38,0-6.75,0-10.24,0Zm3.41,22.15h6c3.57,0,5.75-1.6,6.86-5a15.46,15.46,0,0,0,.16-9c-.78-2.81-2.41-4.91-5.44-5.19-2.48-.23-5,0-7.57,0Z"/><path class="cls-1" d="M291.86,121.73H295c-.1.64-.14,1.16-.26,1.69a10.39,10.39,0,0,1-9.24,8.21,7.35,7.35,0,0,0-2,.91l.14.47a5.16,5.16,0,0,0,.67.1c1.88.07,2.79.76,3,2.24a3.06,3.06,0,0,1-2.34,3.43,7.76,7.76,0,0,1-5.12-.47c.17-.94.37-1.56,1.56-1.14a3,3,0,0,0,2,0,2,2,0,0,0,1.13-1.4c0-.45-.83-.91-1.38-1.21s-1.73.66-2-.42c-.12-.49.67-1.21,1.05-1.83a6.16,6.16,0,0,0,.32-.59c-.59-.11-1.13-.18-1.65-.32a9.12,9.12,0,0,1-6-4.58,17.16,17.16,0,0,1-.37-16.1c3.71-7.59,15.44-7.34,18.88-1.55a39,39,0,0,1,1.82,4.11c-1.32,0-2.18,0-3,0a1.06,1.06,0,0,1-.72-.53c-1.87-3.89-3.57-5-7.69-4.71a7.44,7.44,0,0,0-6.72,5.44,15.45,15.45,0,0,0,.13,10.2,7.55,7.55,0,0,0,9.62,4.63,6.49,6.49,0,0,0,4.11-3.88C291.26,123.63,291.5,122.76,291.86,121.73Z"/><path class="cls-1" d="M266,95.05H247.46c0-.44-.07-.82-.07-1.2q0-11.37,0-22.74c0-1.06.27-1.41,1.37-1.39,5.2,0,10.39.07,15.59,0,1.31,0,1.86.31,1.64,1.64a8.3,8.3,0,0,0,0,1.41c-.61,0-1.11.1-1.61.1-4.12,0-8.23,0-12.35,0-1,0-1.37.28-1.32,1.32.08,1.73.08,3.47,0,5.19,0,1,.31,1.25,1.26,1.24,3.94-.05,7.89,0,11.83,0,.25,0,.51,0,.86.06v2.88H250.75V92c.48,0,.94.08,1.39.08h12.22c1.75,0,1.76,0,1.73,1.78C266.1,94.22,266.07,94.56,266,95.05Z"/><path class="cls-1" d="M311,77.12c-1.23-4.35-4.5-6.05-8.77-4.62a4.07,4.07,0,0,0-2.88,3.88c0,1.65.8,2.62,2.84,3.21,2.33.66,4.69,1.2,7,1.8,4.57,1.16,6.46,4.27,5.4,8.87a5.61,5.61,0,0,1-2.84,3.85,13.3,13.3,0,0,1-11.52.88,7.73,7.73,0,0,1-5-8h3c.05.07.13.13.14.2.24,2.33,1.08,4.35,3.49,5.15a8.76,8.76,0,0,0,8.19-.89c1.83-1.29,2-5.41-.83-6.33-2.3-.73-4.66-1.3-7-1.94-.42-.11-.84-.2-1.26-.33-3.23-1-4.74-2.53-4.93-5.12-.27-3.53,1.21-6.51,4.12-7.69a11.46,11.46,0,0,1,10.94.86,6.25,6.25,0,0,1,2.8,6.21Z"/><path class="cls-1" d="M375,122.94h3a1.62,1.62,0,0,1,.17.35,7.24,7.24,0,0,0,11.44,4.27c2.08-1.51,2.33-5.62-.78-6.63-1.94-.62-3.91-1.08-5.87-1.61-.78-.22-1.61-.39-2.39-.62-4.89-1.53-6.49-6.6-3.23-10.61a8.06,8.06,0,0,1,3.42-2.43,11.51,11.51,0,0,1,9.54.75c2.57,1.38,3.55,3.65,3.47,6.67a22.38,22.38,0,0,1-2.59,0,1.1,1.1,0,0,1-.7-.71,6.42,6.42,0,0,0-9.51-3.54,3.9,3.9,0,0,0-1.94,3.72,3.14,3.14,0,0,0,2.71,2.92c2.43.64,4.87,1.21,7.29,1.87,4.55,1.21,6.42,4.42,5.25,9a5.69,5.69,0,0,1-2.8,3.73,13.48,13.48,0,0,1-10.8,1.17C377.09,130.05,375.15,127.21,375,122.94Z"/><path class="cls-1" d="M232,113a.82.82,0,0,1-.13-.24c-.5-4.56-4.84-5.32-8.63-4.38a3.86,3.86,0,0,0-2.91,3.85c0,1.71.72,2.63,2.78,3.23,2.37.68,4.78,1.21,7.16,1.83,3.4.89,5.29,2.85,5.5,5.6.33,4.64-1.48,7.21-6,8.36a12.89,12.89,0,0,1-9.13-.63c-3-1.51-4.43-4.09-4.4-7.61h3.07a4.84,4.84,0,0,1,.18.49,7.26,7.26,0,0,0,11.55,3.94c1.87-1.47,2-5.58-.78-6.43-2.31-.71-4.66-1.29-7-1.94-.42-.12-.84-.2-1.26-.33-3.18-1-4.74-2.58-4.95-5.13-.27-3.42,1.17-6.37,4-7.61a11.3,11.3,0,0,1,11.27.94c2.09,1.38,2.75,3.53,2.62,6Z"/><path class="cls-1" d="M370,116.45c.37,3,.37,3-2.36,3H356.17V128h15.21v2.88H352.89V105.85h18.28v3h-15v7.63Z"/><path class="cls-1" d="M407.82,92.1h8.51c1.86,0,3.73.06,5.59,0,1.11,0,1.48.34,1.35,1.4a13,13,0,0,0,0,1.53H404.63c0-.45-.07-.87-.07-1.29,0-7.5,0-15,0-22.49,0-1.19.33-1.55,1.53-1.52,5.2.07,10.4,0,15.6,0,.43,0,.85,0,1.34.06v3c-.55,0-1.05.07-1.55.07-4.12,0-8.23,0-12.35,0-.95,0-1.31.25-1.28,1.24.07,2.11,0,4.22,0,6.45h14a11.49,11.49,0,0,1-.05,2.37c-.07.27-.75.58-1.15.59-3.73,0-7.45.08-11.18,0-1.31,0-1.74.32-1.67,1.65C407.9,87.39,407.82,89.64,407.82,92.1Z"/><path class="cls-1" d="M162.88,69.79h3.5c0,.5.07,1,.07,1.41V85.37a11.42,11.42,0,0,0,.1,1.55c.75,5,4.74,7.28,9.46,5.29,2.42-1,3.38-3.07,3.43-5.51.1-5.15.05-10.31.09-15.46,0-.48.16-1.35.32-1.36a16,16,0,0,1,2.94,0c.1,0,.21.54.2.82,0,5.37,0,10.74-.21,16.1-.26,5.8-3.7,8.89-9.49,8.91a16.52,16.52,0,0,1-3-.19c-3.81-.71-6.53-3.07-6.84-7C163,82.38,163.05,76.14,162.88,69.79Z"/><path class="cls-1" d="M375.44,95a1.94,1.94,0,0,1-.33.07c-3.24.16-3.24.16-4.3-2.85-.46-1.31-.85-2.64-1.39-3.91a1.54,1.54,0,0,0-1.09-.78c-2.72-.06-5.44-.07-8.18,0a1.63,1.63,0,0,0-1.17.83c-.74,1.79-1.41,3.62-2,5.48a1.49,1.49,0,0,1-1.86,1.26,18.39,18.39,0,0,0-2.1,0c.18-.55.3-1,.46-1.42,2.83-7.52,5.68-15,8.46-22.59.39-1.07.9-1.55,2.05-1.39a11.1,11.1,0,0,1,1.42,0c.43.13,1.06.42,1.2.8,3,8,5.86,16,8.76,24A2.31,2.31,0,0,1,375.44,95Zm-11-21-.33,0-3.8,10.57h7.84C366.88,81,365.66,77.51,364.44,74Z"/><path class="cls-1" d="M270.74,130.9c-3.58.44-3.59.44-4.69-2.72-.44-1.26-.92-2.52-1.3-3.8a1.13,1.13,0,0,0-1.28-.95c-2.69,0-5.37,0-8.06,0a1.16,1.16,0,0,0-1.29.94c-.61,1.8-1.35,3.56-1.91,5.37-.3,1-.77,1.43-1.83,1.29a19.1,19.1,0,0,0-2.14,0c.17-.51.3-.89.44-1.26,2.83-7.58,5.69-15.15,8.49-22.73a1.74,1.74,0,0,1,2-1.34c2.51.07,2.51,0,3.34,2.3l7.8,21.46C270.44,129.93,270.58,130.4,270.74,130.9Zm-11.2-21.44-4,11.07h7.86Z"/><path class="cls-1" d="M233,90.84l6.15-18.45c.92-2.74.92-2.74,3.8-2.64a7.84,7.84,0,0,1,.84.09c-.16.54-.28,1-.45,1.48-2.74,7.51-5.51,15-8.21,22.53-.35,1-.8,1.43-1.84,1.27-.51-.07-1.05.06-1.55,0a1.44,1.44,0,0,1-1-.59c-3-8.16-6-16.31-9-24.74a32.71,32.71,0,0,1,3.43,0c.29,0,.6.67.74,1.07q3.17,9.33,6.29,18.68c.15.44.31.87.46,1.31Z"/><path class="cls-1" d="M214.67,69.87c3.33-.48,3.33-.48,3.33,2.68v22.5h-3.33Z"/><path class="cls-1" d="M320.7,95.05V69.82h3.22V95.05Z"/></svg>