<svg xmlns="http://www.w3.org/2000/svg" viewBox="0 0 2091.66 726.34"><defs><style>.cls-1{fill:#fff;}</style></defs><g id="FCT"><path class="cls-1" d="M904.67,180.26l57.31.16,0,14.13-40.62-.12-.06,18.49,35.61.1,0,14-35.61-.1-.09,33.7-16.69-.05Z"/><path class="cls-1" d="M980.54,188.77q9.74-9.9,24.74-9.86,20.07.06,29.31,13.39a29,29,0,0,1,5.45,15l-16.79-.05a22.92,22.92,0,0,0-4.09-8.73q-4.47-5.25-13.28-5.27a16.39,16.39,0,0,0-14.18,7.34q-5.21,7.38-5.24,20.9t5.41,20.27a17.11,17.11,0,0,0,13.87,6.78q8.64,0,13.19-5.74,2.52-3.1,4.19-9.32l16.69,0q-2.2,13.14-11.1,21.35T1006,263.05q-17.16,0-26.94-11.2t-9.73-30.67Q969.34,200.14,980.54,188.77Z"/><path class="cls-1" d="M1111.94,180.74l0,14.24-24.05-.07-.19,66.14-16.9-.05.19-66.14-24.16-.07,0-14.23Z"/><path class="cls-1" d="M902.61,311.23h40v7.06H910.41v17.5H938.7v6.86H910.41v26.21h-7.8Z"/><path class="cls-1" d="M963.37,311.23h8.82l20.92,57.63h-8.56l-6-17.26H955.92l-6.25,17.26h-8Zm13,34-8.87-25.46-9.23,25.46Z"/><path class="cls-1" d="M1040.91,315.42a20.45,20.45,0,0,1,6.64,13.11h-7.62a15.87,15.87,0,0,0-5.06-8.83q-3.8-3.26-10.66-3.26a17,17,0,0,0-13.5,6q-5.15,6-5.15,18.36,0,10.14,4.65,16.44t13.85,6.3q8.49,0,12.92-6.63a25.63,25.63,0,0,0,3.5-9.18h7.62a26.2,26.2,0,0,1-6.68,15.26q-6.78,7.41-18.3,7.41a24,24,0,0,1-16.68-6.08q-8.88-8.06-8.88-24.85,0-12.76,6.67-20.93,7.21-8.88,19.89-8.87Q1034.95,309.66,1040.91,315.42Z"/><path class="cls-1" d="M1066.62,311.23v35.62a20.84,20.84,0,0,0,2.37,10.44q3.51,6.29,11.86,6.28,10,0,13.61-6.79,1.93-3.69,1.94-9.93V311.23h7.88V343.6q0,10.63-2.87,16.36-5.28,10.44-19.92,10.43T1061.6,360q-2.86-5.73-2.87-16.36V311.23Z"/><path class="cls-1" d="M1116.21,311.23H1124V362h28.92v6.86h-36.73Z"/><path class="cls-1" d="M1161.25,311.23h23q11.73,0,18.2,8.43,5.77,7.62,5.77,19.5a39.32,39.32,0,0,1-3.41,16.6q-6,13.11-20.64,13.1h-23Zm21.51,51a20.67,20.67,0,0,0,6.37-.82,14.1,14.1,0,0,0,7.29-5.89,24.48,24.48,0,0,0,3.26-8.94,35.23,35.23,0,0,0,.57-6q0-10.71-4.16-16.64t-13.41-5.92h-13.54v44.25Z"/><path class="cls-1" d="M1235.75,311.23h8.82l20.92,57.63h-8.56l-6-17.26H1228.3l-6.25,17.26h-8Zm13,34-8.88-25.46-9.22,25.46Z"/><path class="cls-1" d="M1272.88,311.23h23q11.73,0,18.2,8.43,5.76,7.62,5.77,19.5a39.32,39.32,0,0,1-3.41,16.6q-6,13.11-20.64,13.1h-23Zm21.51,51a20.71,20.71,0,0,0,6.37-.82,14.1,14.1,0,0,0,7.29-5.89,24.66,24.66,0,0,0,3.26-8.94,35.23,35.23,0,0,0,.57-6q0-10.71-4.16-16.64t-13.41-5.92h-13.54v44.25Z"/><path class="cls-1" d="M1331.3,311.23h41.83v7.06h-34.21v17.5h31.62v6.67h-31.62V362h34.8v6.86H1331.3Z"/><path class="cls-1" d="M1406.83,311.23h23q11.75,0,18.2,8.43,5.78,7.62,5.77,19.5a39.32,39.32,0,0,1-3.41,16.6q-6,13.11-20.63,13.1h-23Zm21.51,51a20.67,20.67,0,0,0,6.37-.82,14,14,0,0,0,7.29-5.89,24.3,24.3,0,0,0,3.26-8.94,35.3,35.3,0,0,0,.58-6q0-10.71-4.17-16.64t-13.4-5.92h-13.55v44.25Z"/><path class="cls-1" d="M1465.26,311.23h41.82v7.06h-34.21v17.5h31.62v6.67h-31.62V362h34.8v6.86h-42.41Z"/><path class="cls-1" d="M1581.2,315.42a20.49,20.49,0,0,1,6.63,13.11h-7.61a15.94,15.94,0,0,0-5.07-8.83q-3.8-3.26-10.65-3.26a17,17,0,0,0-13.51,6q-5.15,6-5.14,18.36,0,10.14,4.64,16.44t13.86,6.3q8.48,0,12.91-6.63a25.45,25.45,0,0,0,3.51-9.18h7.61a26.13,26.13,0,0,1-6.67,15.26q-6.78,7.41-18.31,7.41a24,24,0,0,1-16.67-6.08q-8.88-8.06-8.88-24.85,0-12.76,6.67-20.93,7.2-8.88,19.89-8.87Q1575.23,309.66,1581.2,315.42Z"/><path class="cls-1" d="M1600.23,311.23h7.89v57.63h-7.89Z"/><path class="cls-1" d="M1621.54,311.23h41.82v7.06h-34.21v17.5h31.62v6.67h-31.62V362H1664v6.86h-42.41Zm25.62-15.9,8,11.34h-6.43l-5.3-7.53-5.3,7.53h-6.39l8-11.34Z"/><path class="cls-1" d="M1674.39,311.23h9.2l28.74,46.57V311.23h7.45v57.63H1711l-29.17-46.51v46.51h-7.45Z"/><path class="cls-1" d="M1773.19,315.42a20.49,20.49,0,0,1,6.63,13.11h-7.62a15.87,15.87,0,0,0-5.06-8.83q-3.8-3.26-10.66-3.26a17,17,0,0,0-13.5,6q-5.14,6-5.15,18.36,0,10.14,4.65,16.44t13.85,6.3q8.49,0,12.92-6.63a25.63,25.63,0,0,0,3.5-9.18h7.62A26.26,26.26,0,0,1,1773.7,363q-6.79,7.41-18.31,7.41a24,24,0,0,1-16.68-6.08q-8.88-8.06-8.88-24.85,0-12.76,6.67-20.93,7.21-8.88,19.89-8.87Q1767.22,309.66,1773.19,315.42Z"/><path class="cls-1" d="M1792.22,311.23h7.88v57.63h-7.88Z"/><path class="cls-1" d="M1829.6,311.23h8.81l20.92,57.63h-8.55l-6-17.26h-22.61l-6.25,17.26h-8Zm12.94,34-8.87-25.46-9.22,25.46Z"/><path class="cls-1" d="M1871.47,350.27a16.21,16.21,0,0,0,2.23,8q3.75,5.73,13.19,5.73a22.43,22.43,0,0,0,7.71-1.26q6.74-2.43,6.73-8.71c0-3.14-.95-5.37-2.85-6.71a28.43,28.43,0,0,0-9-3.41l-7.57-1.76c-4.94-1.16-8.44-2.42-10.49-3.81q-5.33-3.62-5.32-10.79a16.82,16.82,0,0,1,5.23-12.75q5.24-5,14.81-5a25.22,25.22,0,0,1,15,4.38q6.17,4.38,6.17,14h-7.34a14.89,14.89,0,0,0-2.41-7.11q-3.42-4.5-11.62-4.51-6.63,0-9.52,2.91a9.25,9.25,0,0,0-2.9,6.74,6.63,6.63,0,0,0,3.43,6.2q2.24,1.26,10.15,3.14l7.83,1.85a23.49,23.49,0,0,1,8.74,3.65q5.33,4,5.32,11.73,0,9.57-6.79,13.69a29.8,29.8,0,0,1-15.78,4.12q-10.48,0-16.42-5.49t-5.81-14.79Z"/><path class="cls-1" d="M902.61,407.65h41.82v7.07H910.22v17.5h31.62v6.67H910.22v19.54H945v6.86H902.61Z"/><path class="cls-1" d="M1018.28,407.65v6.87H998.85v50.77H991V414.52H971.54v-6.87Z"/><path class="cls-1" d="M1026.2,407.65H1068v7.07h-34.22v17.5h31.63v6.67h-31.63v19.54h34.81v6.86H1026.2Z"/><path class="cls-1" d="M1119.82,411.85a20.49,20.49,0,0,1,6.63,13.11h-7.61a15.9,15.9,0,0,0-5.07-8.83q-3.8-3.25-10.65-3.26a17,17,0,0,0-13.51,6q-5.14,6-5.14,18.36,0,10.13,4.64,16.43T1103,460q8.47,0,12.91-6.64a25.3,25.3,0,0,0,3.51-9.18H1127a26.19,26.19,0,0,1-6.67,15.27q-6.8,7.41-18.31,7.41a24,24,0,0,1-16.67-6.08q-8.89-8.06-8.89-24.86,0-12.75,6.67-20.92,7.21-8.88,19.9-8.88Q1113.85,406.08,1119.82,411.85Z"/><path class="cls-1" d="M1137.08,407.65h9.2L1175,454.22V407.65h7.45v57.64h-8.77l-29.17-46.51v46.51h-7.46Z"/><path class="cls-1" d="M1242.59,415.89q5.73,7.65,5.73,19.58,0,12.91-6.55,21.46Q1234.08,467,1219.83,467q-13.29,0-20.91-8.79-6.78-8.47-6.79-21.42,0-11.7,5.81-20,7.45-10.68,22-10.68Q1235.26,406.08,1242.59,415.89Zm-6.89,36.74a31.46,31.46,0,0,0,4.62-17q0-10.17-5.32-16.38t-14.54-6.2a18.93,18.93,0,0,0-14.59,6.14q-5.65,6.15-5.65,18.13,0,9.58,4.84,16.16t15.72,6.57Q1231.1,460,1235.7,452.63Z"/><path class="cls-1" d="M1257.62,407.65h7.81v50.78h28.91v6.86h-36.72Z"/><path class="cls-1" d="M1349.78,415.89q5.73,7.65,5.73,19.58,0,12.91-6.55,21.46Q1341.27,467,1327,467q-13.3,0-20.91-8.79-6.8-8.47-6.79-21.42,0-11.7,5.8-20,7.45-10.68,22.06-10.68Q1342.44,406.08,1349.78,415.89Zm-6.88,36.74a31.54,31.54,0,0,0,4.61-17q0-10.17-5.32-16.38t-14.53-6.2a19,19,0,0,0-14.6,6.14q-5.65,6.15-5.65,18.13,0,9.58,4.85,16.16T1328,460Q1338.29,460,1342.9,452.63Z"/><path class="cls-1" d="M1403.18,409.3q8.47,4.51,10.36,15.81h-7.73q-1.38-6.32-5.72-9.2a19.44,19.44,0,0,0-10.95-2.88,17,17,0,0,0-13.2,6q-5.36,6-5.36,17.89,0,10.29,4.42,16.74t14.42,6.45a18.19,18.19,0,0,0,12.67-4.53q5-4.53,5.14-14.65h-18v-6.48h25.31v30.84h-5l-1.88-7.41a29.4,29.4,0,0,1-6.91,6q-5.06,2.9-12.85,2.9a24.79,24.79,0,0,1-17.33-6.63q-7.92-8.31-7.91-22.83t7.73-23q7.35-8.16,19-8.16A28.86,28.86,0,0,1,1403.18,409.3Z"/><path class="cls-1" d="M1429.08,407.65H1437v57.64h-7.89Z"/><path class="cls-1" d="M1466.46,407.65h8.82l20.92,57.64h-8.56l-6-17.26H1459l-6.25,17.26h-8Zm13,34-8.87-25.46-9.23,25.46Z"/><path class="cls-1" d="M902.33,516.17h5.46v34.47q0,10.77,4,15.51t12.94,4.74a22.19,22.19,0,0,0,7.91-1.24,12.07,12.07,0,0,0,5.27-3.78,15.78,15.78,0,0,0,2.89-6.31,39.45,39.45,0,0,0,.88-8.92V516.17h5.47v36.08q0,11.32-5.59,17.32t-16.83,6q-11.32,0-16.88-6.1t-5.54-17.2Z"/><path class="cls-1" d="M965.73,523.56h-.16V574H960.1V516.17h6.19l33.43,50.54h.16V516.17h5.46V574H999Z"/><path class="cls-1" d="M1020.21,574V516.17h5.46V574Z"/><path class="cls-1" d="M1035.56,516.17h5.7l17.44,51.43,17.36-51.43h5.7L1061.67,574h-6Z"/><path class="cls-1" d="M1089.72,574V516.17h38.49v4.66h-33v20.89H1125v4.66h-29.81v23H1129V574Z"/><path class="cls-1" d="M1144.2,547.75V574l-5.47-.08V516.17h22.66q9.57,0,14.63,3.58t5.06,11.61q0,5.46-2.21,8.68a16.86,16.86,0,0,1-7.19,5.46,9.11,9.11,0,0,1,4,2.57,11.47,11.47,0,0,1,2.17,3.86,19.48,19.48,0,0,1,.92,4.58c.13,1.61.23,3.16.28,4.66.06,2.2.15,4,.28,5.46a34.05,34.05,0,0,0,.49,3.54,8,8,0,0,0,.68,2.13,3.23,3.23,0,0,0,1,1.16V574l-6,.08a10.65,10.65,0,0,1-1.25-4c-.24-1.71-.43-3.51-.56-5.38s-.24-3.7-.32-5.47a32.38,32.38,0,0,0-.44-4.34,9.16,9.16,0,0,0-1.57-3.73,7.11,7.11,0,0,0-2.61-2.13,11.06,11.06,0,0,0-3.42-1,30.94,30.94,0,0,0-3.9-.24Zm17-4.66a23.61,23.61,0,0,0,5.67-.64,12.84,12.84,0,0,0,4.54-2.05,10.18,10.18,0,0,0,3-3.58,11.18,11.18,0,0,0,1.13-5.22,10.75,10.75,0,0,0-1.17-5.3,8.72,8.72,0,0,0-3.13-3.3,13.39,13.39,0,0,0-4.5-1.69,28.19,28.19,0,0,0-5.26-.48H1144.2v22.26Z"/><path class="cls-1" d="M1194.66,556.75a17,17,0,0,0,1.73,6.55,12.89,12.89,0,0,0,3.61,4.38,14.51,14.51,0,0,0,5.11,2.45,24.11,24.11,0,0,0,6.18.76,20.65,20.65,0,0,0,6.67-1,12.43,12.43,0,0,0,4.58-2.61,10.33,10.33,0,0,0,2.62-3.82,12.58,12.58,0,0,0,.84-4.58,9,9,0,0,0-1.53-5.46,11.7,11.7,0,0,0-4-3.42,24.81,24.81,0,0,0-5.63-2.13c-2.12-.53-4.29-1.06-6.51-1.57s-4.39-1.11-6.51-1.8a20.56,20.56,0,0,1-5.62-2.82,13.46,13.46,0,0,1-4-4.54,14.41,14.41,0,0,1-1.53-7,14.33,14.33,0,0,1,5-10.76,18.1,18.1,0,0,1,6.14-3.46,25.86,25.86,0,0,1,8.52-1.29,24.44,24.44,0,0,1,8.56,1.37,16.88,16.88,0,0,1,6.06,3.74,15.28,15.28,0,0,1,3.62,5.5,18.49,18.49,0,0,1,1.21,6.67h-5.23a13,13,0,0,0-1.16-5.7,10.75,10.75,0,0,0-3.18-3.94,13.43,13.43,0,0,0-4.58-2.25,19.54,19.54,0,0,0-5.3-.73,18.55,18.55,0,0,0-7,1.17,12.38,12.38,0,0,0-4.54,3,10.19,10.19,0,0,0-2.33,4.1,9.81,9.81,0,0,0-.24,4.5,7.8,7.8,0,0,0,2.25,4.5,14,14,0,0,0,4.34,2.77,31.58,31.58,0,0,0,5.66,1.77c2.06.46,4.17.94,6.31,1.45a64.18,64.18,0,0,1,6.23,1.81,18.85,18.85,0,0,1,5.34,2.81,13,13,0,0,1,3.74,4.54,15.38,15.38,0,0,1,1.4,6.95q0,8-5.54,12.45t-15.59,4.42a29,29,0,0,1-8.36-1.16,18.63,18.63,0,0,1-6.67-3.54,16.34,16.34,0,0,1-4.38-5.86,20.09,20.09,0,0,1-1.56-8.24Z"/><path class="cls-1" d="M1243.44,574V516.17h5.46V574Z"/><path class="cls-1" d="M1263.85,574V516.17h19.77q2.4,0,4.74.12a33.12,33.12,0,0,1,4.58.56,23.28,23.28,0,0,1,4.38,1.33,20.52,20.52,0,0,1,4.13,2.33,17.63,17.63,0,0,1,4.75,5.1,29.69,29.69,0,0,1,2.93,6.35,37.84,37.84,0,0,1,1.53,6.75,50.29,50.29,0,0,1,.44,6.31,48.63,48.63,0,0,1-.36,5.86,39.08,39.08,0,0,1-1.17,5.83,30.61,30.61,0,0,1-2.13,5.46,21.08,21.08,0,0,1-3.33,4.79,17.77,17.77,0,0,1-4.38,3.61,22.66,22.66,0,0,1-5,2.13,29.87,29.87,0,0,1-5.42,1c-1.87.18-3.78.28-5.7.28Zm5.46-4.66h13.1a50.84,50.84,0,0,0,6.95-.45,20,20,0,0,0,6.63-2.21,13,13,0,0,0,4.74-3.93,21.57,21.57,0,0,0,2.93-5.43,28.31,28.31,0,0,0,1.53-6.14,44.73,44.73,0,0,0,.44-6.19,51.71,51.71,0,0,0-.4-6.39,26.34,26.34,0,0,0-1.53-6.19,20.43,20.43,0,0,0-3-5.38,15.32,15.32,0,0,0-5-4.06,17.12,17.12,0,0,0-6.11-1.77,65.2,65.2,0,0,0-7.15-.4h-13.1Z"/><path class="cls-1" d="M1316.56,574l22.74-57.86h6.19L1367.67,574H1362l-6.67-18.16H1329L1322.19,574Zm14.3-22.82h22.66l-11.33-30.38Z"/><path class="cls-1" d="M1375.46,574V516.17h19.77c1.61,0,3.18,0,4.74.12a33.12,33.12,0,0,1,4.58.56,23.28,23.28,0,0,1,4.38,1.33,20.86,20.86,0,0,1,4.14,2.33,17.46,17.46,0,0,1,4.74,5.1,29.69,29.69,0,0,1,2.93,6.35,37.84,37.84,0,0,1,1.53,6.75,50.29,50.29,0,0,1,.44,6.31,48.63,48.63,0,0,1-.36,5.86,37.85,37.85,0,0,1-1.17,5.83,29.17,29.17,0,0,1-2.13,5.46,20.77,20.77,0,0,1-3.33,4.79,17.77,17.77,0,0,1-4.38,3.61,22.79,22.79,0,0,1-5,2.13,30,30,0,0,1-5.43,1c-1.87.18-3.77.28-5.7.28Zm5.46-4.66H1394a50.74,50.74,0,0,0,7-.45,20,20,0,0,0,6.63-2.21,13,13,0,0,0,4.74-3.93,21.6,21.6,0,0,0,2.94-5.43,28.89,28.89,0,0,0,1.52-6.14,44.79,44.79,0,0,0,.45-6.19,51.75,51.75,0,0,0-.41-6.39,25.84,25.84,0,0,0-1.52-6.19,20.46,20.46,0,0,0-3.06-5.38,15.21,15.21,0,0,0-5-4.06,17.06,17.06,0,0,0-6.11-1.77,65.06,65.06,0,0,0-7.15-.4h-13.1Z"/><path class="cls-1" d="M1433.48,574V516.17H1472v4.66h-33v20.89h29.81v4.66h-29.81v23h33.83V574Z"/><path class="cls-1" d="M1504.91,574V516.17h19.77q2.41,0,4.74.12a33.12,33.12,0,0,1,4.58.56,23.28,23.28,0,0,1,4.38,1.33,20.86,20.86,0,0,1,4.14,2.33,17.46,17.46,0,0,1,4.74,5.1,29.69,29.69,0,0,1,2.93,6.35,36.18,36.18,0,0,1,1.53,6.75,50.29,50.29,0,0,1,.44,6.31,48.63,48.63,0,0,1-.36,5.86,39.06,39.06,0,0,1-1.16,5.83,30.61,30.61,0,0,1-2.13,5.46,21.12,21.12,0,0,1-3.34,4.79,17.77,17.77,0,0,1-4.38,3.61,22.79,22.79,0,0,1-5,2.13,30,30,0,0,1-5.42,1c-1.88.18-3.78.28-5.71.28Zm5.47-4.66h13.1a50.84,50.84,0,0,0,7-.45,20,20,0,0,0,6.63-2.21,13.17,13.17,0,0,0,4.74-3.93,21.57,21.57,0,0,0,2.93-5.43,29.51,29.51,0,0,0,1.53-6.14,46.33,46.33,0,0,0,.44-6.19,53.73,53.73,0,0,0-.4-6.39,26.34,26.34,0,0,0-1.53-6.19,20.72,20.72,0,0,0-3-5.38,15.36,15.36,0,0,0-5-4.06,17.06,17.06,0,0,0-6.1-1.77,65.2,65.2,0,0,0-7.15-.4h-13.1Z"/><path class="cls-1" d="M1560.68,545.18a39.47,39.47,0,0,1,1.73-11.89,28.57,28.57,0,0,1,5.1-9.69,24.34,24.34,0,0,1,8.36-6.55,26.17,26.17,0,0,1,11.49-2.41,28,28,0,0,1,11.85,2.37,24.11,24.11,0,0,1,8.52,6.51,28.22,28.22,0,0,1,5.14,9.73,40.2,40.2,0,0,1,1.73,11.93,39.14,39.14,0,0,1-1.73,11.77,28.52,28.52,0,0,1-5.1,9.64,23.94,23.94,0,0,1-8.44,6.55,29.75,29.75,0,0,1-23.46,0,23.94,23.94,0,0,1-8.44-6.55,27.92,27.92,0,0,1-5.06-9.64A39.78,39.78,0,0,1,1560.68,545.18Zm27,25.71a20.55,20.55,0,0,0,9.68-2.13,19.12,19.12,0,0,0,6.67-5.66,24.16,24.16,0,0,0,3.86-8.2,37.48,37.48,0,0,0,1.24-9.72,36.42,36.42,0,0,0-1.48-10.81,23.55,23.55,0,0,0-4.3-8.15,18.51,18.51,0,0,0-6.83-5.15,22.27,22.27,0,0,0-9-1.77,20.13,20.13,0,0,0-9.6,2.17,19.57,19.57,0,0,0-6.67,5.75,24.35,24.35,0,0,0-3.86,8.24,38.73,38.73,0,0,0,0,19.52,24,24,0,0,0,3.86,8.2,18.81,18.81,0,0,0,6.67,5.62A21,21,0,0,0,1587.68,570.89Z"/><path class="cls-1" d="M1627.7,556.75a17.19,17.19,0,0,0,1.72,6.55,13,13,0,0,0,3.62,4.38,14.38,14.38,0,0,0,5.1,2.45,24.13,24.13,0,0,0,6.19.76,20.73,20.73,0,0,0,6.67-1,12.6,12.6,0,0,0,4.58-2.61,10.19,10.19,0,0,0,2.61-3.82,12.58,12.58,0,0,0,.84-4.58,9,9,0,0,0-1.52-5.46,11.74,11.74,0,0,0-4-3.42,24.72,24.72,0,0,0-5.62-2.13c-2.12-.53-4.29-1.06-6.51-1.57s-4.4-1.11-6.51-1.8a20.63,20.63,0,0,1-5.63-2.82,13.43,13.43,0,0,1-4-4.54,14.41,14.41,0,0,1-1.53-7,14.11,14.11,0,0,1,1.24-5.78,14.35,14.35,0,0,1,3.7-5,18.06,18.06,0,0,1,6.15-3.46,25.78,25.78,0,0,1,8.52-1.29,24.38,24.38,0,0,1,8.55,1.37,17,17,0,0,1,6.07,3.74,15.41,15.41,0,0,1,3.62,5.5,18.48,18.48,0,0,1,1.2,6.67h-5.22a12.88,12.88,0,0,0-1.17-5.7,10.62,10.62,0,0,0-3.17-3.94,13.52,13.52,0,0,0-4.58-2.25,19.6,19.6,0,0,0-5.3-.73,18.64,18.64,0,0,0-7,1.17,12.47,12.47,0,0,0-4.54,3,10.31,10.31,0,0,0-2.33,4.1,9.81,9.81,0,0,0-.24,4.5,7.8,7.8,0,0,0,2.25,4.5,14.11,14.11,0,0,0,4.34,2.77,31.69,31.69,0,0,0,5.67,1.77q3.09.69,6.3,1.45a63.37,63.37,0,0,1,6.23,1.81,19,19,0,0,1,5.35,2.81,12.89,12.89,0,0,1,3.73,4.54,15.25,15.25,0,0,1,1.41,6.95q0,8-5.55,12.45t-15.58,4.42a29,29,0,0,1-8.36-1.16,18.55,18.55,0,0,1-6.67-3.54A16.11,16.11,0,0,1,1624,565a19.93,19.93,0,0,1-1.57-8.24Z"/><path class="cls-1" d="M1691.58,574l22.74-57.86h6.19L1742.69,574h-5.63l-6.67-18.16H1704L1697.2,574Zm14.3-22.82h22.66l-11.33-30.38Z"/><path class="cls-1" d="M1791.54,533q-1.68-7.4-6.27-10.53t-12-3.14a18.36,18.36,0,0,0-9,2.09,18.16,18.16,0,0,0-6.23,5.62,24.61,24.61,0,0,0-3.61,8.14,39.58,39.58,0,0,0-1.17,9.75,44.8,44.8,0,0,0,1,9.47,25.19,25.19,0,0,0,3.33,8.3,17.69,17.69,0,0,0,6.27,5.9,19.68,19.68,0,0,0,9.88,2.24,18.26,18.26,0,0,0,6.75-1.2,17,17,0,0,0,5.35-3.34,19.43,19.43,0,0,0,3.85-5,24.8,24.8,0,0,0,2.37-6.35h5.71a37.94,37.94,0,0,1-2.73,7.76,23,23,0,0,1-4.66,6.48,22.25,22.25,0,0,1-7,4.54,26.2,26.2,0,0,1-9.69,1.79l-2.65,3.3,1.45-.32a6.42,6.42,0,0,1,1.44-.16,6.67,6.67,0,0,1,4.3,1.32,4.71,4.71,0,0,1,1.89,2.85,6.86,6.86,0,0,1-.2,3.74,5.53,5.53,0,0,1-1.89,2.53,8.8,8.8,0,0,1-3,1.45,14.06,14.06,0,0,1-3.7.48,16,16,0,0,1-3.69-.44,33.63,33.63,0,0,1-3.62-1.09l1.2-2.41,2.54.81a8.69,8.69,0,0,0,2.61.4,8.8,8.8,0,0,0,1.81-.2,6.69,6.69,0,0,0,1.72-.64,3.65,3.65,0,0,0,1.29-1.17,3.12,3.12,0,0,0,.48-1.77,2.58,2.58,0,0,0-1.24-2.37,5.23,5.23,0,0,0-2.78-.76,7.48,7.48,0,0,0-1.76.2c-.6.13-1.18.28-1.77.44l-1.21-1,3.78-5.15a23.34,23.34,0,0,1-10.45-3,21.42,21.42,0,0,1-7.07-6.71,29.82,29.82,0,0,1-4-9.44,48.05,48.05,0,0,1-1.28-11.25,42.2,42.2,0,0,1,2.05-14.06,25.06,25.06,0,0,1,5.66-9.45,21.49,21.49,0,0,1,8.52-5.3,33.32,33.32,0,0,1,10.69-1.65,27.94,27.94,0,0,1,8.23,1.17,20.23,20.23,0,0,1,6.75,3.49,18.83,18.83,0,0,1,4.82,5.75,24.38,24.38,0,0,1,2.62,7.92Z"/><path class="cls-1" d="M1806.25,545.18a39.79,39.79,0,0,1,1.72-11.89,28.59,28.59,0,0,1,5.11-9.69,24.4,24.4,0,0,1,8.35-6.55,26.17,26.17,0,0,1,11.49-2.41,28.08,28.08,0,0,1,11.86,2.37,24,24,0,0,1,8.51,6.51,28.24,28.24,0,0,1,5.15,9.73,40.2,40.2,0,0,1,1.72,11.93,39.13,39.13,0,0,1-1.72,11.77,28.72,28.72,0,0,1-5.11,9.64,24,24,0,0,1-8.43,6.55,29.78,29.78,0,0,1-23.47,0,24,24,0,0,1-8.43-6.55,28.11,28.11,0,0,1-5.07-9.64A40.11,40.11,0,0,1,1806.25,545.18Zm27,25.71a20.61,20.61,0,0,0,9.68-2.13,19.21,19.21,0,0,0,6.67-5.66,24.14,24.14,0,0,0,3.85-8.2,37.48,37.48,0,0,0,1.25-9.72,36.4,36.4,0,0,0-1.49-10.81,23.38,23.38,0,0,0-4.3-8.15,18.43,18.43,0,0,0-6.83-5.15,22.2,22.2,0,0,0-9-1.77,20.18,20.18,0,0,0-9.6,2.17,19.67,19.67,0,0,0-6.67,5.75,24.53,24.53,0,0,0-3.85,8.24,38.73,38.73,0,0,0,0,19.52,24.14,24.14,0,0,0,3.85,8.2,18.89,18.89,0,0,0,6.67,5.62A21,21,0,0,0,1833.25,570.89Z"/><path class="cls-1" d="M1876.4,547.75V574l-5.47-.08V516.17h22.66q9.57,0,14.63,3.58t5.06,11.61q0,5.46-2.21,8.68a16.86,16.86,0,0,1-7.19,5.46,9.11,9.11,0,0,1,4,2.57,11.64,11.64,0,0,1,2.17,3.86,19.48,19.48,0,0,1,.92,4.58c.13,1.61.23,3.16.28,4.66,0,2.2.15,4,.28,5.46s.3,2.63.48,3.54a8.3,8.3,0,0,0,.69,2.13,3.23,3.23,0,0,0,1,1.16V574l-6,.08a10.65,10.65,0,0,1-1.25-4c-.24-1.71-.43-3.51-.56-5.38s-.24-3.7-.32-5.47a30.6,30.6,0,0,0-.45-4.34,9,9,0,0,0-1.56-3.73,7.19,7.19,0,0,0-2.61-2.13,11.06,11.06,0,0,0-3.42-1,30.94,30.94,0,0,0-3.9-.24Zm17-4.66a23.61,23.61,0,0,0,5.67-.64,12.84,12.84,0,0,0,4.54-2.05,10.18,10.18,0,0,0,3-3.58,11.18,11.18,0,0,0,1.13-5.22,10.75,10.75,0,0,0-1.17-5.3,8.8,8.8,0,0,0-3.13-3.3,13.47,13.47,0,0,0-4.5-1.69,28.3,28.3,0,0,0-5.27-.48H1876.4v22.26Z"/><path class="cls-1" d="M1924.61,574V516.17h38.49v4.66h-33v20.89h29.82v4.66h-29.82v23h33.83V574Z"/><path class="cls-1" d="M1976,556.75a17.19,17.19,0,0,0,1.72,6.55,13,13,0,0,0,3.62,4.38,14.38,14.38,0,0,0,5.1,2.45,24.13,24.13,0,0,0,6.19.76,20.73,20.73,0,0,0,6.67-1,12.6,12.6,0,0,0,4.58-2.61,10.19,10.19,0,0,0,2.61-3.82,12.58,12.58,0,0,0,.85-4.58,9,9,0,0,0-1.53-5.46,11.74,11.74,0,0,0-4-3.42,24.72,24.72,0,0,0-5.62-2.13c-2.12-.53-4.29-1.06-6.51-1.57s-4.4-1.11-6.51-1.8a20.63,20.63,0,0,1-5.63-2.82,13.43,13.43,0,0,1-4-4.54,14.41,14.41,0,0,1-1.53-7,14,14,0,0,1,1.25-5.78,14.2,14.2,0,0,1,3.69-5,18.06,18.06,0,0,1,6.15-3.46,25.78,25.78,0,0,1,8.52-1.29,24.38,24.38,0,0,1,8.55,1.37,17,17,0,0,1,6.07,3.74,15.41,15.41,0,0,1,3.62,5.5,18.48,18.48,0,0,1,1.2,6.67h-5.22a12.88,12.88,0,0,0-1.17-5.7,10.62,10.62,0,0,0-3.17-3.94,13.52,13.52,0,0,0-4.58-2.25,19.6,19.6,0,0,0-5.3-.73,18.55,18.55,0,0,0-7,1.17,12.3,12.3,0,0,0-4.54,3,10.22,10.22,0,0,0-2.34,4.1,10,10,0,0,0-.24,4.5,7.86,7.86,0,0,0,2.25,4.5,14.11,14.11,0,0,0,4.34,2.77,32,32,0,0,0,5.67,1.77q3.09.69,6.31,1.45a64,64,0,0,1,6.22,1.81,19,19,0,0,1,5.35,2.81,12.89,12.89,0,0,1,3.73,4.54,15.25,15.25,0,0,1,1.41,6.95q0,8-5.54,12.45t-15.59,4.42a29,29,0,0,1-8.36-1.16,18.55,18.55,0,0,1-6.67-3.54,16.23,16.23,0,0,1-4.38-5.86,20.09,20.09,0,0,1-1.57-8.24Z"/><path class="cls-1" d="M428.14,51.9C253.56,51.9,112,193.43,112,368s141.52,316.1,316.1,316.1S744.25,542.59,744.25,368,602.73,51.9,428.14,51.9ZM436.62,184,417.86,207,399.1,184Zm-57.28-5.85,50.15,61.33H329.19Zm-8.41,274.62-199.49-201,199.88.11ZM383.7,568.37V467.8l90.45-61.88Zm.51-115.56V252l300.61-.11Z"/></g></svg>