<svg xmlns="http://www.w3.org/2000/svg" viewBox="0 0 2091.66 726.34"><defs><style>.cls-1{fill:#40b4e5;}.cls-2{fill:#3c3c3b;}.cls-3{fill:#b2b2b2;}.cls-4{fill:#fff;}</style></defs><title>FCT</title><g id="FCT"><path class="cls-1" d="M904.67,180.26l57.31.16,0,14.12-40.62-.12-.05,18.49,35.61.1,0,14-35.61-.1-.1,33.7-16.69,0Z"/><path class="cls-1" d="M980.54,188.77q9.74-9.9,24.74-9.85,20.07.06,29.31,13.39a29,29,0,0,1,5.46,15l-16.79,0a22.91,22.91,0,0,0-4.09-8.74q-4.47-5.25-13.29-5.27a16.39,16.39,0,0,0-14.18,7.35q-5.2,7.38-5.24,20.9t5.41,20.27a17.13,17.13,0,0,0,13.88,6.77q8.64,0,13.19-5.74,2.52-3.1,4.19-9.31l16.69,0q-2.2,13.14-11.09,21.34T1006,263.05q-17.15,0-26.94-11.2t-9.73-30.67Q969.34,200.13,980.54,188.77Z"/><path class="cls-1" d="M1111.94,180.74l0,14.23-24-.07-.19,66.14-16.9,0,.19-66.14-24.16-.07,0-14.23Z"/><path class="cls-2" d="M902.61,311.23h40v7.06H910.41v17.5H938.7v6.87H910.41v26.21h-7.81Z"/><path class="cls-2" d="M963.37,311.23h8.81l20.92,57.64h-8.55l-6-17.26H955.92l-6.25,17.26h-8Zm12.95,34-8.87-25.46-9.22,25.46Z"/><path class="cls-2" d="M1040.91,315.42a20.45,20.45,0,0,1,6.63,13.1h-7.61a15.91,15.91,0,0,0-5.07-8.83q-3.8-3.26-10.65-3.26a16.94,16.94,0,0,0-13.51,6q-5.14,6-5.14,18.36,0,10.13,4.64,16.43t13.86,6.3q8.48,0,12.91-6.63a25.5,25.5,0,0,0,3.51-9.18h7.61a26.16,26.16,0,0,1-6.67,15.26q-6.79,7.42-18.31,7.42a24,24,0,0,1-16.68-6.08q-8.88-8-8.88-24.85,0-12.76,6.67-20.93,7.21-8.87,19.89-8.87Q1034.94,309.66,1040.91,315.42Z"/><path class="cls-2" d="M1066.62,311.23v35.63a20.82,20.82,0,0,0,2.37,10.44q3.52,6.28,11.87,6.28,10,0,13.6-6.79,1.94-3.69,1.94-9.93V311.23h7.89V343.6q0,10.63-2.87,16.36-5.28,10.44-19.92,10.44T1061.6,360q-2.87-5.73-2.87-16.36V311.23Z"/><path class="cls-2" d="M1116.21,311.23H1124V362h28.92v6.87h-36.73Z"/><path class="cls-2" d="M1161.25,311.23h23q11.73,0,18.2,8.44,5.77,7.61,5.77,19.5a39.3,39.3,0,0,1-3.41,16.6q-6,13.1-20.64,13.1h-23Zm21.51,51a20.64,20.64,0,0,0,6.37-.82,14.06,14.06,0,0,0,7.29-5.89,24.45,24.45,0,0,0,3.26-8.95,34.86,34.86,0,0,0,.58-6q0-10.71-4.16-16.64t-13.41-5.92h-13.54v44.26Z"/><path class="cls-2" d="M1235.75,311.23h8.81l20.92,57.64h-8.55l-6-17.26H1228.3l-6.25,17.26h-8Zm12.95,34-8.87-25.46-9.22,25.46Z"/><path class="cls-2" d="M1272.88,311.23h23q11.73,0,18.2,8.44,5.77,7.61,5.77,19.5a39.3,39.3,0,0,1-3.41,16.6q-6,13.1-20.64,13.1h-23Zm21.51,51a20.64,20.64,0,0,0,6.37-.82,14.06,14.06,0,0,0,7.29-5.89,24.45,24.45,0,0,0,3.26-8.95,34.86,34.86,0,0,0,.58-6q0-10.71-4.16-16.64t-13.41-5.92h-13.54v44.26Z"/><path class="cls-2" d="M1331.3,311.23h41.83v7.06h-34.21v17.5h31.62v6.67h-31.62V362h34.8v6.87H1331.3Z"/><path class="cls-2" d="M1406.83,311.23h23q11.73,0,18.2,8.44,5.77,7.61,5.77,19.5a39.3,39.3,0,0,1-3.41,16.6q-6,13.1-20.64,13.1h-23Zm21.51,51a20.64,20.64,0,0,0,6.37-.82,14.06,14.06,0,0,0,7.29-5.89,24.45,24.45,0,0,0,3.26-8.95,34.86,34.86,0,0,0,.58-6q0-10.71-4.16-16.64t-13.41-5.92h-13.54v44.26Z"/><path class="cls-2" d="M1465.26,311.23h41.83v7.06h-34.21v17.5h31.62v6.67h-31.62V362h34.8v6.87h-42.42Z"/><path class="cls-2" d="M1581.2,315.42a20.45,20.45,0,0,1,6.63,13.1h-7.61a15.91,15.91,0,0,0-5.07-8.83q-3.8-3.26-10.65-3.26a16.94,16.94,0,0,0-13.51,6q-5.14,6-5.14,18.36,0,10.13,4.64,16.43t13.86,6.3q8.48,0,12.91-6.63a25.5,25.5,0,0,0,3.51-9.18h7.61a26.16,26.16,0,0,1-6.67,15.26q-6.79,7.42-18.31,7.42a24,24,0,0,1-16.68-6.08q-8.88-8-8.88-24.85,0-12.76,6.67-20.93,7.21-8.87,19.89-8.87Q1575.23,309.66,1581.2,315.42Z"/><path class="cls-2" d="M1600.23,311.23h7.89v57.64h-7.89Z"/><path class="cls-2" d="M1621.54,311.23h41.83v7.06h-34.21v17.5h31.62v6.67h-31.62V362H1664v6.87h-42.42Zm25.62-15.89,8,11.34h-6.43l-5.3-7.53-5.3,7.53h-6.4l8-11.34Z"/><path class="cls-2" d="M1674.39,311.23h9.2l28.74,46.57V311.23h7.46v57.64H1711l-29.17-46.51v46.51h-7.46Z"/><path class="cls-2" d="M1773.19,315.42a20.45,20.45,0,0,1,6.63,13.1h-7.61a15.91,15.91,0,0,0-5.07-8.83q-3.8-3.26-10.65-3.26a16.94,16.94,0,0,0-13.51,6q-5.14,6-5.14,18.36,0,10.13,4.64,16.43t13.86,6.3q8.48,0,12.91-6.63a25.5,25.5,0,0,0,3.51-9.18h7.61A26.16,26.16,0,0,1,1773.7,363q-6.79,7.42-18.31,7.42a24,24,0,0,1-16.68-6.08q-8.88-8-8.88-24.85,0-12.76,6.67-20.93,7.21-8.87,19.89-8.87Q1767.21,309.66,1773.19,315.42Z"/><path class="cls-2" d="M1792.22,311.23h7.89v57.64h-7.89Z"/><path class="cls-2" d="M1829.6,311.23h8.81l20.92,57.64h-8.55l-6-17.26h-22.61l-6.25,17.26h-8Zm12.95,34-8.87-25.46-9.22,25.46Z"/><path class="cls-2" d="M1871.47,350.27a16.2,16.2,0,0,0,2.23,8q3.74,5.73,13.19,5.73a22.55,22.55,0,0,0,7.71-1.26q6.73-2.43,6.73-8.71,0-4.71-2.85-6.71t-9-3.41l-7.56-1.77q-7.41-1.73-10.49-3.81-5.32-3.61-5.32-10.79a16.84,16.84,0,0,1,5.23-12.75q5.23-5,14.81-5a25.23,25.23,0,0,1,15,4.38q6.17,4.38,6.17,14h-7.34a14.84,14.84,0,0,0-2.41-7.1q-3.42-4.51-11.62-4.51-6.62,0-9.52,2.9a9.26,9.26,0,0,0-2.9,6.75,6.63,6.63,0,0,0,3.42,6.2q2.24,1.26,10.15,3.14l7.83,1.84a23.6,23.6,0,0,1,8.74,3.65q5.32,4,5.32,11.73,0,9.57-6.79,13.69a29.83,29.83,0,0,1-15.78,4.12q-10.49,0-16.42-5.49t-5.82-14.79Z"/><path class="cls-2" d="M902.61,407.65h41.83v7.06H910.22v17.5h31.62v6.67H910.22v19.54H945v6.87H902.61Z"/><path class="cls-2" d="M1018.28,407.65v6.87H998.85v50.77H991V414.52H971.54v-6.87Z"/><path class="cls-2" d="M1026.2,407.65H1068v7.06h-34.21v17.5h31.62v6.67h-31.62v19.54h34.8v6.87H1026.2Z"/><path class="cls-2" d="M1119.82,411.85a20.45,20.45,0,0,1,6.63,13.1h-7.61a15.91,15.91,0,0,0-5.07-8.83q-3.8-3.26-10.65-3.26a16.94,16.94,0,0,0-13.51,6q-5.14,6-5.14,18.36,0,10.13,4.64,16.43T1103,460q8.48,0,12.91-6.63a25.5,25.5,0,0,0,3.51-9.18H1127a26.16,26.16,0,0,1-6.67,15.26q-6.79,7.42-18.31,7.42a24,24,0,0,1-16.68-6.08q-8.88-8-8.88-24.85,0-12.76,6.67-20.93,7.21-8.87,19.89-8.87Q1113.85,406.08,1119.82,411.85Z"/><path class="cls-2" d="M1137.08,407.65h9.2L1175,454.22V407.65h7.46v57.64h-8.77l-29.17-46.51v46.51h-7.46Z"/><path class="cls-2" d="M1242.59,415.89q5.73,7.65,5.73,19.58,0,12.91-6.55,21.46-7.69,10-21.93,10-13.3,0-20.91-8.79-6.79-8.48-6.79-21.42,0-11.69,5.81-20,7.45-10.67,22.05-10.67Q1235.25,406.08,1242.59,415.89Zm-6.89,36.74a31.53,31.53,0,0,0,4.61-17q0-10.17-5.32-16.37T1220.46,413a18.92,18.92,0,0,0-14.6,6.15q-5.65,6.15-5.65,18.12,0,9.58,4.85,16.16t15.71,6.58Q1231.09,460,1235.7,452.63Z"/><path class="cls-2" d="M1257.62,407.65h7.81v50.77h28.92v6.87h-36.73Z"/><path class="cls-2" d="M1349.78,415.89q5.73,7.65,5.73,19.58,0,12.91-6.55,21.46-7.69,10-21.93,10-13.3,0-20.91-8.79-6.79-8.48-6.79-21.42,0-11.69,5.81-20,7.45-10.67,22.05-10.67Q1342.45,406.08,1349.78,415.89Zm-6.89,36.74a31.53,31.53,0,0,0,4.61-17q0-10.17-5.32-16.37T1327.66,413a18.92,18.92,0,0,0-14.6,6.15q-5.65,6.15-5.65,18.12,0,9.58,4.85,16.16T1328,460Q1338.29,460,1342.9,452.63Z"/><path class="cls-2" d="M1403.18,409.3q8.47,4.51,10.36,15.81h-7.73q-1.38-6.32-5.73-9.2a19.39,19.39,0,0,0-11-2.88,17,17,0,0,0-13.2,6q-5.36,6-5.36,17.89,0,10.28,4.42,16.73t14.42,6.46a18.19,18.19,0,0,0,12.67-4.53q5-4.53,5.14-14.65h-18v-6.47h25.31v30.84h-5l-1.88-7.42a29.27,29.27,0,0,1-6.91,6q-5.06,2.9-12.85,2.9a24.81,24.81,0,0,1-17.33-6.63q-7.91-8.32-7.91-22.84t7.73-23q7.35-8.16,19-8.16A28.83,28.83,0,0,1,1403.18,409.3Z"/><path class="cls-2" d="M1429.08,407.65H1437v57.64h-7.89Z"/><path class="cls-2" d="M1466.46,407.65h8.81l20.92,57.64h-8.55l-6-17.26H1459l-6.25,17.26h-8Zm12.95,34-8.87-25.46-9.22,25.46Z"/><path class="cls-3" d="M902.33,516.17h5.46v34.47q0,10.77,4,15.51t12.94,4.74a22.2,22.2,0,0,0,7.92-1.25,12.07,12.07,0,0,0,5.26-3.78,15.8,15.8,0,0,0,2.89-6.31,39.55,39.55,0,0,0,.88-8.92V516.17h5.46v36.08q0,11.33-5.58,17.32t-16.83,6q-11.33,0-16.87-6.11t-5.54-17.2Z"/><path class="cls-3" d="M965.73,523.56h-.16V574H960.1V516.17h6.19l33.43,50.54h.16V516.17h5.46V574H999Z"/><path class="cls-3" d="M1020.21,574V516.17h5.46V574Z"/><path class="cls-3" d="M1035.56,516.17h5.71l17.44,51.43,17.36-51.43h5.71L1061.67,574h-6Z"/><path class="cls-3" d="M1089.72,574V516.17h38.49v4.66h-33v20.89H1125v4.66h-29.81v23H1129V574Z"/><path class="cls-3" d="M1144.2,547.75V574l-5.46-.08V516.17h22.66q9.56,0,14.63,3.58t5.06,11.61q0,5.47-2.21,8.68a16.86,16.86,0,0,1-7.19,5.46,9,9,0,0,1,4,2.57,11.42,11.42,0,0,1,2.17,3.86,19.64,19.64,0,0,1,.92,4.58q.2,2.41.28,4.66.08,3.3.28,5.46a32.92,32.92,0,0,0,.48,3.54,8.21,8.21,0,0,0,.68,2.13,3.25,3.25,0,0,0,1,1.17v.48l-6,.08a10.58,10.58,0,0,1-1.25-4q-.36-2.57-.56-5.38t-.32-5.46a31.82,31.82,0,0,0-.44-4.34,9,9,0,0,0-1.57-3.74,7.14,7.14,0,0,0-2.61-2.13,11.3,11.3,0,0,0-3.42-1,30.7,30.7,0,0,0-3.9-.24Zm17-4.66a23.62,23.62,0,0,0,5.67-.64,12.81,12.81,0,0,0,4.54-2,10.14,10.14,0,0,0,3.05-3.58,11.23,11.23,0,0,0,1.13-5.22,10.8,10.8,0,0,0-1.17-5.3,8.83,8.83,0,0,0-3.13-3.29,13.3,13.3,0,0,0-4.5-1.69,28.09,28.09,0,0,0-5.26-.48H1144.2v22.26Z"/><path class="cls-3" d="M1194.66,556.75a17.13,17.13,0,0,0,1.73,6.55,12.93,12.93,0,0,0,3.62,4.38,14.3,14.3,0,0,0,5.1,2.45,24.13,24.13,0,0,0,6.19.76,20.63,20.63,0,0,0,6.67-1,12.63,12.63,0,0,0,4.58-2.61,10.24,10.24,0,0,0,2.61-3.82,12.53,12.53,0,0,0,.84-4.58,9.05,9.05,0,0,0-1.53-5.46,11.8,11.8,0,0,0-4-3.42,24.4,24.4,0,0,0-5.62-2.13q-3.18-.8-6.51-1.57t-6.51-1.81a20.45,20.45,0,0,1-5.62-2.81,13.57,13.57,0,0,1-4-4.54,14.45,14.45,0,0,1-1.53-7,14.13,14.13,0,0,1,1.25-5.79,14.39,14.39,0,0,1,3.7-5,18.12,18.12,0,0,1,6.15-3.46,25.91,25.91,0,0,1,8.52-1.29,24.41,24.41,0,0,1,8.56,1.37,17,17,0,0,1,6.07,3.74,15.38,15.38,0,0,1,3.62,5.5,18.42,18.42,0,0,1,1.21,6.67h-5.22a13,13,0,0,0-1.17-5.71,10.72,10.72,0,0,0-3.17-3.94,13.56,13.56,0,0,0-4.58-2.25,19.49,19.49,0,0,0-5.3-.72,18.67,18.67,0,0,0-7,1.17,12.36,12.36,0,0,0-4.54,3,10.19,10.19,0,0,0-2.33,4.1,9.85,9.85,0,0,0-.24,4.5,7.85,7.85,0,0,0,2.25,4.5,14.17,14.17,0,0,0,4.34,2.77,32.62,32.62,0,0,0,5.67,1.77q3.09.68,6.31,1.45t6.23,1.81a19.19,19.19,0,0,1,5.34,2.81,13,13,0,0,1,3.74,4.54,15.31,15.31,0,0,1,1.41,7q0,8-5.54,12.46t-15.59,4.42a28.82,28.82,0,0,1-8.36-1.17,18.5,18.5,0,0,1-6.67-3.54,16.22,16.22,0,0,1-4.38-5.87,20,20,0,0,1-1.57-8.24Z"/><path class="cls-3" d="M1243.44,574V516.17h5.46V574Z"/><path class="cls-3" d="M1263.85,574V516.17h19.77q2.41,0,4.74.12a32.5,32.5,0,0,1,4.58.56,23,23,0,0,1,4.38,1.33,20.69,20.69,0,0,1,4.14,2.33,17.59,17.59,0,0,1,4.74,5.1,29.7,29.7,0,0,1,2.93,6.35,37.31,37.31,0,0,1,1.53,6.75,49.54,49.54,0,0,1,.44,6.31,48.52,48.52,0,0,1-.36,5.87,38.75,38.75,0,0,1-1.17,5.83,30,30,0,0,1-2.13,5.46,21,21,0,0,1-3.33,4.78,17.77,17.77,0,0,1-4.38,3.62,22.68,22.68,0,0,1-5,2.13,29.76,29.76,0,0,1-5.42,1,57,57,0,0,1-5.71.28Zm5.46-4.66h13.1a51.69,51.69,0,0,0,7-.44,20.1,20.1,0,0,0,6.63-2.21,13.09,13.09,0,0,0,4.74-3.94,21.63,21.63,0,0,0,2.93-5.42,29.06,29.06,0,0,0,1.53-6.15,45.53,45.53,0,0,0,.44-6.19,52.15,52.15,0,0,0-.4-6.39,26.2,26.2,0,0,0-1.53-6.19,20.59,20.59,0,0,0-3.05-5.38,15.31,15.31,0,0,0-5-4.06,17.06,17.06,0,0,0-6.11-1.77,63.36,63.36,0,0,0-7.15-.4h-13.1Z"/><path class="cls-3" d="M1316.56,574l22.74-57.86h6.19L1367.67,574H1362l-6.67-18.16H1329L1322.19,574Zm14.3-22.82h22.66l-11.33-30.37Z"/><path class="cls-3" d="M1375.46,574V516.17h19.77q2.41,0,4.74.12a32.5,32.5,0,0,1,4.58.56,23,23,0,0,1,4.38,1.33,20.69,20.69,0,0,1,4.14,2.33,17.59,17.59,0,0,1,4.74,5.1,29.7,29.7,0,0,1,2.93,6.35,37.31,37.31,0,0,1,1.53,6.75,49.54,49.54,0,0,1,.44,6.31,48.52,48.52,0,0,1-.36,5.87,38.75,38.75,0,0,1-1.17,5.83,30,30,0,0,1-2.13,5.46,21,21,0,0,1-3.33,4.78,17.77,17.77,0,0,1-4.38,3.62,22.68,22.68,0,0,1-5,2.13,29.76,29.76,0,0,1-5.42,1,57,57,0,0,1-5.71.28Zm5.46-4.66H1394a51.69,51.69,0,0,0,7-.44,20.1,20.1,0,0,0,6.63-2.21,13.09,13.09,0,0,0,4.74-3.94,21.63,21.63,0,0,0,2.93-5.42,29.06,29.06,0,0,0,1.53-6.15,45.53,45.53,0,0,0,.44-6.19,52.15,52.15,0,0,0-.4-6.39,26.2,26.2,0,0,0-1.53-6.19,20.59,20.59,0,0,0-3.05-5.38,15.31,15.31,0,0,0-5-4.06,17.06,17.06,0,0,0-6.11-1.77,63.36,63.36,0,0,0-7.15-.4h-13.1Z"/><path class="cls-3" d="M1433.48,574V516.17H1472v4.66h-33v20.89h29.81v4.66h-29.81v23h33.83V574Z"/><path class="cls-3" d="M1504.91,574V516.17h19.77q2.41,0,4.74.12a32.5,32.5,0,0,1,4.58.56,23,23,0,0,1,4.38,1.33,20.69,20.69,0,0,1,4.14,2.33,17.59,17.59,0,0,1,4.74,5.1,29.7,29.7,0,0,1,2.93,6.35,37.31,37.31,0,0,1,1.53,6.75,49.54,49.54,0,0,1,.44,6.31,48.52,48.52,0,0,1-.36,5.87,38.75,38.75,0,0,1-1.17,5.83,30,30,0,0,1-2.13,5.46,21,21,0,0,1-3.33,4.78,17.77,17.77,0,0,1-4.38,3.62,22.68,22.68,0,0,1-5,2.13,29.76,29.76,0,0,1-5.42,1,57,57,0,0,1-5.71.28Zm5.46-4.66h13.1a51.69,51.69,0,0,0,7-.44,20.1,20.1,0,0,0,6.63-2.21,13.09,13.09,0,0,0,4.74-3.94,21.63,21.63,0,0,0,2.93-5.42,29.06,29.06,0,0,0,1.53-6.15,45.53,45.53,0,0,0,.44-6.19,52.15,52.15,0,0,0-.4-6.39,26.2,26.2,0,0,0-1.53-6.19,20.59,20.59,0,0,0-3.05-5.38,15.31,15.31,0,0,0-5-4.06,17.06,17.06,0,0,0-6.11-1.77,63.36,63.36,0,0,0-7.15-.4h-13.1Z"/><path class="cls-3" d="M1560.68,545.18a39.75,39.75,0,0,1,1.73-11.89,28.6,28.6,0,0,1,5.1-9.68,24.27,24.27,0,0,1,8.36-6.55,26.09,26.09,0,0,1,11.49-2.41,27.89,27.89,0,0,1,11.85,2.37,24,24,0,0,1,8.52,6.51,28.19,28.19,0,0,1,5.14,9.72,40.18,40.18,0,0,1,1.73,11.93,39.11,39.11,0,0,1-1.73,11.77,28.66,28.66,0,0,1-5.1,9.64,24.06,24.06,0,0,1-8.44,6.55,29.75,29.75,0,0,1-23.46,0,24.06,24.06,0,0,1-8.44-6.55,28.11,28.11,0,0,1-5.06-9.64A40,40,0,0,1,1560.68,545.18Zm27,25.71a20.58,20.58,0,0,0,9.68-2.13,19.31,19.31,0,0,0,6.67-5.67,24.15,24.15,0,0,0,3.86-8.2,37.5,37.5,0,0,0,1.25-9.72,36.38,36.38,0,0,0-1.49-10.81,23.47,23.47,0,0,0-4.3-8.16,18.46,18.46,0,0,0-6.83-5.14,22.15,22.15,0,0,0-9-1.77,20.09,20.09,0,0,0-9.6,2.17,19.53,19.53,0,0,0-6.67,5.75,24.56,24.56,0,0,0-3.86,8.24,38.87,38.87,0,0,0,0,19.53,24.09,24.09,0,0,0,3.86,8.2,18.91,18.91,0,0,0,6.67,5.63A21.09,21.09,0,0,0,1587.68,570.89Z"/><path class="cls-3" d="M1627.7,556.75a17.13,17.13,0,0,0,1.73,6.55,12.93,12.93,0,0,0,3.62,4.38,14.3,14.3,0,0,0,5.1,2.45,24.13,24.13,0,0,0,6.19.76,20.63,20.63,0,0,0,6.67-1,12.63,12.63,0,0,0,4.58-2.61,10.24,10.24,0,0,0,2.61-3.82,12.53,12.53,0,0,0,.84-4.58,9.05,9.05,0,0,0-1.53-5.46,11.8,11.8,0,0,0-4-3.42,24.4,24.4,0,0,0-5.62-2.13q-3.18-.8-6.51-1.57t-6.51-1.81a20.45,20.45,0,0,1-5.62-2.81,13.57,13.57,0,0,1-4-4.54,14.45,14.45,0,0,1-1.53-7,14.13,14.13,0,0,1,1.25-5.79,14.39,14.39,0,0,1,3.7-5,18.12,18.12,0,0,1,6.15-3.46,25.91,25.91,0,0,1,8.52-1.29,24.41,24.41,0,0,1,8.56,1.37,17,17,0,0,1,6.07,3.74,15.38,15.38,0,0,1,3.62,5.5,18.42,18.42,0,0,1,1.21,6.67h-5.22a13,13,0,0,0-1.17-5.71,10.72,10.72,0,0,0-3.17-3.94,13.56,13.56,0,0,0-4.58-2.25,19.49,19.49,0,0,0-5.3-.72,18.67,18.67,0,0,0-7,1.17,12.36,12.36,0,0,0-4.54,3,10.19,10.19,0,0,0-2.33,4.1,9.85,9.85,0,0,0-.24,4.5,7.85,7.85,0,0,0,2.25,4.5,14.17,14.17,0,0,0,4.34,2.77,32.62,32.62,0,0,0,5.67,1.77q3.09.68,6.31,1.45t6.23,1.81a19.19,19.19,0,0,1,5.34,2.81,13,13,0,0,1,3.74,4.54,15.31,15.31,0,0,1,1.41,7q0,8-5.54,12.46t-15.59,4.42a28.82,28.82,0,0,1-8.36-1.17,18.5,18.5,0,0,1-6.67-3.54A16.22,16.22,0,0,1,1624,565a20,20,0,0,1-1.57-8.24Z"/><path class="cls-3" d="M1691.58,574l22.74-57.86h6.19L1742.69,574h-5.62l-6.67-18.16H1704L1697.2,574Zm14.3-22.82h22.66l-11.33-30.37Z"/><path class="cls-3" d="M1791.54,533q-1.69-7.39-6.27-10.53t-12-3.13a17.61,17.61,0,0,0-15.23,7.7,24.73,24.73,0,0,0-3.62,8.14,39.65,39.65,0,0,0-1.17,9.75,44.67,44.67,0,0,0,1,9.47,25.13,25.13,0,0,0,3.33,8.3,17.69,17.69,0,0,0,6.27,5.9,19.71,19.71,0,0,0,9.88,2.25,18.26,18.26,0,0,0,6.75-1.21,16.85,16.85,0,0,0,5.34-3.33,19.41,19.41,0,0,0,3.86-5,25.28,25.28,0,0,0,2.37-6.35h5.71a37.5,37.5,0,0,1-2.73,7.75,22.89,22.89,0,0,1-4.66,6.48,22,22,0,0,1-7,4.54,26.18,26.18,0,0,1-9.68,1.8l-2.65,3.29,1.45-.32a6.58,6.58,0,0,1,1.45-.16,6.65,6.65,0,0,1,4.3,1.33,4.69,4.69,0,0,1,1.89,2.85,6.85,6.85,0,0,1-.2,3.74,5.6,5.6,0,0,1-1.89,2.53,9,9,0,0,1-3.05,1.45,14,14,0,0,1-3.7.48,15.87,15.87,0,0,1-3.7-.44,33.2,33.2,0,0,1-3.62-1.08l1.21-2.41,2.53.8a8.46,8.46,0,0,0,2.61.4,8.58,8.58,0,0,0,1.81-.2,6.47,6.47,0,0,0,1.73-.64,3.62,3.62,0,0,0,1.29-1.17,3.12,3.12,0,0,0,.48-1.77,2.58,2.58,0,0,0-1.25-2.37,5.2,5.2,0,0,0-2.77-.76,7.9,7.9,0,0,0-1.77.2c-.59.13-1.18.28-1.77.44l-1.21-1,3.78-5.14a23.22,23.22,0,0,1-10.45-3,21.45,21.45,0,0,1-7.07-6.71,29.65,29.65,0,0,1-4-9.44,47.6,47.6,0,0,1-1.29-11.25,42.36,42.36,0,0,1,2-14.06,25.11,25.11,0,0,1,5.67-9.44,21.42,21.42,0,0,1,8.52-5.3,33.37,33.37,0,0,1,10.69-1.65,28.1,28.1,0,0,1,8.24,1.17,20.26,20.26,0,0,1,6.75,3.5,19,19,0,0,1,4.82,5.75,24.17,24.17,0,0,1,2.61,7.92Z"/><path class="cls-3" d="M1806.25,545.18a39.75,39.75,0,0,1,1.73-11.89,28.6,28.6,0,0,1,5.1-9.68,24.27,24.27,0,0,1,8.36-6.55,26.09,26.09,0,0,1,11.49-2.41,27.89,27.89,0,0,1,11.85,2.37,24,24,0,0,1,8.52,6.51,28.19,28.19,0,0,1,5.14,9.72,40.18,40.18,0,0,1,1.73,11.93,39.11,39.11,0,0,1-1.73,11.77,28.66,28.66,0,0,1-5.1,9.64,24.06,24.06,0,0,1-8.44,6.55,29.75,29.75,0,0,1-23.46,0,24.06,24.06,0,0,1-8.44-6.55,28.11,28.11,0,0,1-5.06-9.64A40,40,0,0,1,1806.25,545.18Zm27,25.71a20.58,20.58,0,0,0,9.68-2.13,19.31,19.31,0,0,0,6.67-5.67,24.15,24.15,0,0,0,3.86-8.2,37.5,37.5,0,0,0,1.25-9.72,36.38,36.38,0,0,0-1.49-10.81,23.47,23.47,0,0,0-4.3-8.16,18.46,18.46,0,0,0-6.83-5.14,22.15,22.15,0,0,0-9-1.77,20.09,20.09,0,0,0-9.6,2.17,19.53,19.53,0,0,0-6.67,5.75,24.56,24.56,0,0,0-3.86,8.24,38.87,38.87,0,0,0,0,19.53,24.09,24.09,0,0,0,3.86,8.2,18.91,18.91,0,0,0,6.67,5.63A21.09,21.09,0,0,0,1833.25,570.89Z"/><path class="cls-3" d="M1876.4,547.75V574l-5.46-.08V516.17h22.66q9.56,0,14.63,3.58t5.06,11.61q0,5.47-2.21,8.68a16.86,16.86,0,0,1-7.19,5.46,9,9,0,0,1,4,2.57,11.42,11.42,0,0,1,2.17,3.86,19.64,19.64,0,0,1,.92,4.58q.2,2.41.28,4.66.08,3.3.28,5.46a32.92,32.92,0,0,0,.48,3.54,8.21,8.21,0,0,0,.68,2.13,3.25,3.25,0,0,0,1,1.17v.48l-6,.08a10.58,10.58,0,0,1-1.25-4q-.36-2.57-.56-5.38t-.32-5.46a31.82,31.82,0,0,0-.44-4.34,9,9,0,0,0-1.57-3.74,7.14,7.14,0,0,0-2.61-2.13,11.3,11.3,0,0,0-3.42-1,30.7,30.7,0,0,0-3.9-.24Zm17-4.66a23.62,23.62,0,0,0,5.67-.64,12.81,12.81,0,0,0,4.54-2,10.14,10.14,0,0,0,3.05-3.58,11.23,11.23,0,0,0,1.13-5.22,10.8,10.8,0,0,0-1.17-5.3,8.83,8.83,0,0,0-3.13-3.29,13.3,13.3,0,0,0-4.5-1.69,28.09,28.09,0,0,0-5.26-.48H1876.4v22.26Z"/><path class="cls-3" d="M1924.61,574V516.17h38.49v4.66h-33v20.89h29.81v4.66h-29.81v23h33.83V574Z"/><path class="cls-3" d="M1976,556.75a17.13,17.13,0,0,0,1.73,6.55,12.93,12.93,0,0,0,3.62,4.38,14.3,14.3,0,0,0,5.1,2.45,24.13,24.13,0,0,0,6.19.76,20.63,20.63,0,0,0,6.67-1,12.63,12.63,0,0,0,4.58-2.61,10.24,10.24,0,0,0,2.61-3.82,12.53,12.53,0,0,0,.84-4.58,9.05,9.05,0,0,0-1.53-5.46,11.8,11.8,0,0,0-4-3.42,24.4,24.4,0,0,0-5.62-2.13q-3.18-.8-6.51-1.57t-6.51-1.81a20.45,20.45,0,0,1-5.62-2.81,13.57,13.57,0,0,1-4-4.54,14.45,14.45,0,0,1-1.53-7,14.13,14.13,0,0,1,1.25-5.79,14.39,14.39,0,0,1,3.7-5,18.12,18.12,0,0,1,6.15-3.46,25.91,25.91,0,0,1,8.52-1.29,24.41,24.41,0,0,1,8.56,1.37,17,17,0,0,1,6.07,3.74,15.38,15.38,0,0,1,3.62,5.5,18.42,18.42,0,0,1,1.21,6.67h-5.22a13,13,0,0,0-1.17-5.71,10.72,10.72,0,0,0-3.17-3.94,13.56,13.56,0,0,0-4.58-2.25,19.49,19.49,0,0,0-5.3-.72,18.67,18.67,0,0,0-7,1.17,12.36,12.36,0,0,0-4.54,3,10.19,10.19,0,0,0-2.33,4.1,9.85,9.85,0,0,0-.24,4.5,7.85,7.85,0,0,0,2.25,4.5,14.17,14.17,0,0,0,4.34,2.77,32.62,32.62,0,0,0,5.67,1.77q3.09.68,6.31,1.45t6.23,1.81a19.19,19.19,0,0,1,5.34,2.81,13,13,0,0,1,3.74,4.54,15.31,15.31,0,0,1,1.41,7q0,8-5.54,12.46t-15.59,4.42a28.82,28.82,0,0,1-8.36-1.17,18.5,18.5,0,0,1-6.67-3.54,16.22,16.22,0,0,1-4.38-5.87,20,20,0,0,1-1.57-8.24Z"/><path class="cls-1" d="M744.25,368c0-174.58-141.52-316.11-316.11-316.11S112,193.43,112,368s141.52,316.11,316.1,316.11S744.25,542.59,744.25,368"/><polygon class="cls-4" points="329.19 239.52 379.34 178.19 429.49 239.52 329.19 239.52"/><polygon class="cls-4" points="383.7 467.8 383.7 568.37 474.15 405.92 383.7 467.8"/><polygon class="cls-4" points="384.21 251.96 684.82 251.84 384.21 452.81 384.21 251.96"/><polygon class="cls-4" points="371.32 251.96 171.44 251.84 370.93 452.81 371.32 251.96"/><polygon class="cls-4" points="436.62 184.04 417.86 206.98 399.1 184.04 436.62 184.04"/></g></svg>