<?xml version="1.0" encoding="utf-8"?>
<!-- Generator: Adobe Illustrator 19.0.0, SVG Export Plug-In . SVG Version: 6.00 Build 0)  -->
<svg version="1.1" id="layer" xmlns="http://www.w3.org/2000/svg" xmlns:xlink="http://www.w3.org/1999/xlink" x="0px" y="0px"
	 viewBox="-153 -46 652 652" style="enable-background:new -153 -46 652 652;" xml:space="preserve">
<style type="text/css">
	.st0{fill:#FFFFFF;}
	.st1{fill:#232F5D;}
	.st2{fill:#FFCD00;}
	.st3{fill:#6A4024;}
	.st4{fill:#E1261D;}
	.st5{fill:#1D1D1B;}
	.st6{fill:#1F3664;}
	.st7{fill:#FDE01D;}
</style>
<rect id="XMLID_533_" x="-134" y="200.7" class="st0" width="211.1" height="141.7"/>
<path id="XMLID_530_" class="st1" d="M75.5,202.1v138.8h-208.1V202.1H75.5 M78.5,199.1h-2.9h-208.1h-2.9v2.9v138.8v2.9h2.9H75.6h2.9
	v-2.9V202.1V199.1L78.5,199.1z"/>
<rect id="XMLID_529_" x="-132.6" y="202.1" class="st1" width="83.3" height="138.8"/>
<g id="XMLID_524_">
	<polygon id="XMLID_528_" class="st2" points="-47.8,237.6 -45.5,235.9 -48.4,235.9 -49.3,233.1 -50.2,235.9 -53.2,235.9 
		-50.8,237.6 -51.7,240.4 -49.3,238.6 -46.9,240.4 	"/>
	<path id="XMLID_525_" class="st3" d="M-46.8,240.6l-2.5-1.8l-2.5,1.8l1-2.9l-2.5-1.8h3.1l1-2.9l1,2.9h3.1l-2.5,1.8L-46.8,240.6z
		 M-53,235.9l2.3,1.6l-0.9,2.7l2.3-1.6l2.3,1.6l-0.9-2.7l2.3-1.6h-2.8l-0.9-2.7l-0.9,2.7H-53z"/>
</g>
<g id="XMLID_519_">
	<polygon id="XMLID_523_" class="st2" points="-89,259.3 -86.2,258.4 -89,257.5 -89.1,254.6 -90.8,257 -93.6,256.1 -91.8,258.4 
		-93.5,260.8 -90.7,259.9 -88.9,262.2 	"/>
	<path id="XMLID_520_" class="st3" d="M-88.9,262.4l-1.8-2.5l-2.9,1l1.8-2.5l-1.9-2.5l3,0.9l1.8-2.5l0.1,3.1l2.9,0.9l-2.9,1
		L-88.9,262.4z M-90.6,259.8l1.6,2.2l-0.1-2.8l2.7-0.9l-2.7-0.8l-0.1-2.8l-1.6,2.3l-2.7-0.8l1.7,2.2l-1.6,2.3L-90.6,259.8z"/>
</g>
<g id="XMLID_514_">
	<polygon id="XMLID_518_" class="st2" points="-81.3,250.7 -78.3,250.4 -80.8,248.9 -80.2,246.1 -82.4,248 -84.9,246.5 -83.8,249.2 
		-86,251.1 -83,250.8 -81.9,253.6 	"/>
	<path id="XMLID_515_" class="st3" d="M-81.9,253.7l-1.2-2.9l-3.1,0.3l2.3-2l-1.2-2.9l2.7,1.6l2.3-2l-0.7,3l2.7,1.6l-3,0.3
		L-81.9,253.7z M-83,250.8l1.1,2.5l0.6-2.7h0.1l2.7-0.3l-2.4-1.4v-0.1l0.6-2.7l-2.1,1.8l-2.4-1.5l1.1,2.5h-0.1l-2.1,1.8L-83,250.8z"
		/>
</g>
<g id="XMLID_509_">
	<polygon id="XMLID_513_" class="st2" points="-71.7,244.2 -68.8,244.5 -70.9,242.5 -69.5,239.9 -72.2,241.2 -74.3,239.2 
		-73.8,242.1 -76.4,243.4 -73.5,243.9 -73,246.8 	"/>
	<path id="XMLID_510_" class="st3" d="M-73,247l-0.5-3l-3-0.4l2.7-1.4l-0.5-3l2.2,2.2l2.7-1.4l-1.4,2.8l2.2,2.2l-3-0.4L-73,247z
		 M-76.2,243.4l2.8,0.4l0.4,2.7l1.3-2.5l2.7,0.4l-2-2l1.3-2.5l-2.5,1.3l-2-2l0.4,2.7L-76.2,243.4z"/>
</g>
<g id="XMLID_504_">
	<polygon id="XMLID_508_" class="st2" points="-59.6,238.6 -57.7,236.4 -60.6,237.1 -62.2,234.7 -62.4,237.6 -65.2,238.3 
		-62.5,239.3 -62.7,242.3 -60.8,240 -58.1,241.2 	"/>
	<path id="XMLID_505_" class="st3" d="M-62.8,242.5l0.3-3.1l-2.9-1.1l3-0.8l0.3-3.1l1.6,2.6l3-0.8l-2,2.3l1.6,2.6l-2.9-1.1
		L-62.8,242.5z M-65,238.3l2.6,1.1l-0.2,2.8l1.8-2.2l2.6,1.1l-1.5-2.3l1.8-2.2l-2.7,0.6l-1.5-2.4l-0.2,2.8h-0.1L-65,238.3z"/>
</g>
<g id="XMLID_499_">
	<polygon id="XMLID_503_" class="st2" points="-36.1,239.4 -33.4,238.3 -36.3,237.6 -36.5,234.7 -38,237.1 -40.9,236.4 -39,238.6 
		-40.5,241.2 -37.8,240 -35.9,242.3 	"/>
	<path id="XMLID_500_" class="st3" d="M-35.8,242.5l-2-2.3l-2.9,1.1l1.6-2.6l-2-2.3l3,0.8l1.6-2.6l0.3,3.1l3,0.8l-2.9,1.1
		L-35.8,242.5z M-37.8,240l1.8,2.2l-0.2-2.8l2.6-1.1l-2.7-0.7l-0.2-2.8l-1.5,2.3l-2.7-0.7l1.8,2.2l-1.5,2.3L-37.8,240z"/>
</g>
<g id="XMLID_494_">
	<polygon id="XMLID_498_" class="st2" points="-25.2,243.9 -22.3,243.5 -24.9,242.1 -24.4,239.2 -26.5,241.2 -29.1,239.9 
		-27.8,242.5 -29.9,244.6 -27,244.2 -25.6,246.8 	"/>
	<path id="XMLID_495_" class="st3" d="M-25.6,247l-1.4-2.7l-3,0.4l2.2-2.2l-1.4-2.8l2.7,1.5l2.2-2.2l-0.5,3l2.7,1.5l-3,0.4
		L-25.6,247z M-26.9,244.1L-26.9,244.1l1.3,2.5l0.4-2.7l2.8-0.4l-2.5-1.3v-0.1l0.4-2.7l-2,2h-0.1l-2.4-1.3l1.3,2.5l-2,2L-26.9,244.1
		z"/>
</g>
<g id="XMLID_489_">
	<polygon id="XMLID_493_" class="st2" points="-15.6,250.9 -12.6,251.1 -14.8,249.2 -13.7,246.5 -16.2,248 -18.5,246.1 -17.8,248.9 
		-20.3,250.4 -17.4,250.7 -16.8,253.6 	"/>
	<path id="XMLID_490_" class="st3" d="M-16.8,253.7l-0.7-3l-3-0.3l2.7-1.6l-0.7-3l2.3,2l2.7-1.6l-1.2,2.9l2.3,2l-3.1-0.3
		L-16.8,253.7z M-20.1,250.4l2.8,0.3l0.6,2.7l1.1-2.5h0.1l2.7,0.3l-2.1-1.8v-0.1l1.1-2.5l-2.4,1.5h-0.1l-2.1-1.8l0.6,2.7h-0.1
		L-20.1,250.4z"/>
</g>
<g id="XMLID_484_">
	<polygon id="XMLID_488_" class="st2" points="-6.9,258.4 -5.1,256.1 -7.9,257 -9.6,254.6 -9.6,257.5 -12.4,258.4 -9.6,259.3 
		-9.7,262.2 -7.9,259.9 -5.1,260.9 	"/>
	<path id="XMLID_485_" class="st3" d="M-9.8,262.4l0.1-3.1l-2.9-1l3-0.9l0.1-3.1l1.8,2.5l3-0.9l-1.8,2.5l1.8,2.5l-2.9-1L-9.8,262.4z
		 M-12.2,258.4l2.7,0.9v0.1l-0.1,2.7l1.6-2.2l2.7,0.9l-1.6-2.3l1.7-2.2l-2.7,0.8V257l-1.6-2.3l-0.1,2.8h-0.1L-12.2,258.4z"/>
</g>
<g id="XMLID_320_">
	<g id="XMLID_479_">
		<path id="XMLID_483_" class="st2" d="M-52.5,275.4c1.5-4.1,4.8-4.3,6.7-6.6c0.8-0.9,2.5-0.5,3.7-0.8c1.2-0.3,1.6,0.3,1.7,1.4
			c2.2-0.1,2.2,0.9,2,1.8c-0.1-0.4-1.1-0.4-1.6-0.4c0,0.8-0.6,0.8-1.5,1.1c-0.7,0.2-0.8,1.3-0.8,2.1c2,0.1,3.7-1.7,5.5-3.6
			s4.7-3.6,9.5-3.3c5.8,0.3,17.2,0.5,21-0.6c3.9-1.1,4.7,0.4,1.9,2.2c0.3,0.7-0.4,2-1.8,2.5c0.6,0.8-0.4,1.9-2.4,2.7
			c0.1,1.3-1.9,2.7-4.5,2.9c0.6,1.6-3.2,3-7.4,2.7c0.4,0.6-1,1.7-2.6,1.7c0.6,0.6-0.9,1.4-1.9,1.5c0.6,0.6-2.4,1.5-4,1.1
			c0.1,0.6-1.7,1-2.9,0.7c-0.1,0.5-1.4,0.7-2.2,0.2c-0.2,0.5-1.1,0.6-1.9,0.1c-0.5,0.5-1.4,0.4-1.9-0.1c-0.3,0.6-1.1,0.8-1.7,0.1
			c-0.4,0.6-1.1,0.4-1.6-0.2c-0.1,0.6-1.8,1.5-2.7-1.9c-0.3,1.6-0.7,2.5-1.1,3.2c0.3,1,0.5,3.1,0.4,5c0.3,1.9,1.1,4.6,1.6,6.3
			c0.5,1.7-0.3,1.6-0.8,1.3c0.1,0.3,0.1,0.5,0,0.9c-0.2-0.3-0.6-0.6-1.1-0.6c0,0.3-0.1,0.5-0.3,0.8c-0.4-0.6-0.9-1.3-1.4-1.3
			c-0.5,0.1-1.5,0.6-1.8,1.5c-0.1-0.2-0.2-0.4-0.2-0.7c-0.4,0.3-1.5,0.4-1.8,0c0,0.2,0,0.4-0.1,0.6c-0.2-0.3-0.6-0.7-1.1-0.7
			c0,0.3-0.1,0.6-0.4,0.8c-0.4-0.6-1-1.1-1.5-1.1c-0.5,0.1-1.5,0.6-1.8,1.3c-0.2-0.4-0.3-1,0-1.5c-0.3,0-0.6-0.2-0.5-0.6
			c-0.9,1.5-2,1.2-2.5,0.4c-1,1-2.9,0.4-2-0.9c3.4-5.3,3.8-6.9,4.8-9.7c0.4-1.1,0.1-2.8,0.6-4.4c-1.1,2-2.6,2.4-2.9,1.9
			c-0.4,0.4-1.6,1-2,0.2c-0.4,0.3-1.2,0.3-1.5-0.1c-0.6,0.4-1.5,0.5-1.6,0.1c-0.6,0.4-1.9,0.3-2.1-0.1c-1,0.8-3,0.4-2.9-0.8
			c-2.2,1-4.2,0.4-4.1-0.6c-1.3,0.1-2-0.5-2-1.1c-1.4,0.1-2.2-0.8-2-1.7c-3,0.3-10.5-0.6-9.9-2.9c-2.1-0.4-5.3-1.9-4.2-3.1
			c-1.3-0.4-2.9-1.5-2.8-2.6c-1.9-0.4-2.3-2-1.7-2.3c-1.8-0.6-2.1-2.9,1.1-2.1c4.4,1.1,16.4,1,22.8,0.6c6.5-0.4,6.4,1.3,12.1,5.3
			C-55.9,275.6-53.7,275.2-52.5,275.4L-52.5,275.4z"/>
		<path id="XMLID_480_" class="st3" d="M-55.1,299.9C-55.1,299.9-55.1,299.9-55.1,299.9c-0.3-0.4-0.3-1-0.1-1.5
			c-0.2-0.1-0.3-0.1-0.4-0.3c-0.1-0.1-0.1-0.1-0.1-0.1c-0.5,0.8-1,0.9-1.4,1l0,0c-0.4,0-0.8-0.3-1.1-0.6c-0.6,0.6-1.5,0.6-2,0.3
			c-0.4-0.3-0.4-0.8-0.1-1.3c3.1-4.8,3.7-6.6,4.5-9c0.1-0.2,0.1-0.4,0.2-0.6c0.2-0.5,0.2-1.1,0.3-1.8c0.1-0.7,0.1-1.5,0.3-2.2
			c-0.8,1.3-1.7,1.7-2.3,1.8c-0.2,0-0.4-0.1-0.5-0.1c-0.3,0.3-1,0.6-1.5,0.5c-0.3-0.1-0.4-0.1-0.6-0.4c-0.4,0.3-1.1,0.3-1.5-0.1
			c-0.4,0.3-1,0.4-1.3,0.3c-0.1-0.1-0.3-0.1-0.3-0.3c-0.4,0.3-1.2,0.3-1.6,0.2c-0.2-0.1-0.4-0.1-0.4-0.3c-0.6,0.5-1.6,0.4-2.3,0.1
			c-0.4-0.2-0.6-0.6-0.7-1c-1.6,0.7-3,0.6-3.6,0.1c-0.3-0.2-0.4-0.4-0.4-0.8c-0.8,0.1-1.3-0.1-1.7-0.5c-0.2-0.2-0.3-0.4-0.3-0.6
			c-0.8,0-1.3-0.2-1.7-0.6c-0.3-0.3-0.4-0.7-0.3-1.1c-2.5,0.2-8.2-0.4-9.6-2c-0.3-0.3-0.4-0.6-0.3-1c-1.5-0.3-3.9-1.3-4.4-2.4
			c-0.1-0.3-0.1-0.5,0.1-0.8c-1.4-0.4-2.8-1.5-2.7-2.5c-1.2-0.3-1.8-1.1-2-1.7c-0.1-0.3,0-0.5,0.2-0.7c-1-0.4-1.4-1.1-1.3-1.7
			c0.1-0.3,0.4-1,2.5-0.5c4.4,1.1,16.4,1,22.8,0.6c4.9-0.3,6.1,0.6,8.8,2.9c0.9,0.7,1.9,1.5,3.3,2.5c1.9,1.3,3.6,1.5,4.8,1.5
			c0.4,0,0.8,0.1,1,0.1c1-2.5,2.6-3.6,4.2-4.6c0.9-0.6,1.8-1.1,2.5-2c0.5-0.6,1.5-0.6,2.4-0.7c0.5,0,1-0.1,1.4-0.1
			c0.6-0.1,1-0.1,1.2,0.1c0.3,0.2,0.4,0.6,0.6,1.3c1,0,1.5,0.1,1.8,0.5c0.3,0.4,0.3,0.9,0.1,1.4c0,0,0,0.1-0.1,0.1l0,0
			c0,0-0.1,0-0.1-0.1c-0.1-0.3-1-0.4-1.5-0.3c0,0.7-0.5,0.8-1.3,1c-0.1,0-0.2,0.1-0.3,0.1c-0.5,0.1-0.8,0.8-0.8,2l0,0
			c1.8,0,3.6-1.6,5.3-3.6c2.3-2.5,5.5-3.6,9.5-3.4c6.2,0.3,17.3,0.5,21-0.6c1.9-0.6,3.2-0.5,3.6,0.2c0.3,0.6-0.3,1.4-1.6,2.2
			c0.1,0.3,0.1,0.6-0.1,0.9c-0.3,0.6-0.9,1.3-1.7,1.6c0.1,0.2,0.2,0.4,0.1,0.7c-0.2,0.7-1.1,1.4-2.5,2c0.1,1.3-2,2.7-4.4,3
			c0.1,0.3,0.1,0.6-0.2,1c-0.9,1.2-4.1,2-7.2,1.8c0.1,0.1,0.1,0.3-0.1,0.5c-0.3,0.6-1.3,1.1-2.5,1.2c0.1,0.1,0.1,0.3,0,0.4
			c-0.2,0.5-1.2,1-2,1c0.1,0.1,0.1,0.1,0,0.3c-0.3,0.6-2.6,1.1-4.1,0.9c0,0.1-0.1,0.2-0.2,0.3c-0.5,0.4-1.8,0.6-2.7,0.4
			c-0.1,0.1-0.3,0.3-0.4,0.4c-0.4,0.2-1.1,0.1-1.7-0.2c-0.1,0.2-0.3,0.3-0.4,0.3c-0.4,0.1-1,0.1-1.5-0.3c-0.3,0.3-0.6,0.3-1,0.3
			c-0.4,0-0.7-0.2-1-0.4c-0.2,0.3-0.4,0.4-0.8,0.4c-0.3,0-0.6-0.1-0.9-0.4c-0.2,0.2-0.4,0.3-0.6,0.3l0,0c-0.3,0-0.6-0.2-1-0.5
			c-0.1,0.3-0.4,0.5-0.8,0.5c-0.4,0-1.3-0.3-1.9-2.2c-0.3,1.5-0.7,2.4-1,3c0.3,1,0.5,3.1,0.4,5c0.3,1.9,1.1,4.6,1.6,6.3
			c0.3,0.8,0.3,1.3,0,1.5c-0.2,0.2-0.6,0.1-0.8-0.1c0.1,0.3,0,0.5,0,0.8c0,0,0,0.1-0.1,0.1h-0.1c-0.2-0.3-0.6-0.6-1-0.6
			c0,0.3-0.1,0.5-0.4,0.8c0,0,0,0-0.1,0h-0.1c-0.1-0.1-0.1-0.1-0.2-0.3c-0.4-0.5-0.8-1-1.2-1c-0.5,0.1-1.5,0.6-1.7,1.4
			c0,0,0,0.1-0.1,0.1c0,0-0.1,0-0.1-0.1c-0.1-0.2-0.1-0.4-0.2-0.6c-0.3,0.1-0.8,0.3-1.2,0.2c-0.1,0-0.3-0.1-0.4-0.2
			c0,0.1-0.1,0.3-0.1,0.4c0,0,0,0.1-0.1,0.1h-0.1c-0.2-0.3-0.6-0.6-1-0.7c-0.1,0.3-0.1,0.6-0.4,0.8c0,0,0,0-0.1,0h-0.1
			c-0.5-0.7-1-1.1-1.4-1.1C-53.7,298.7-54.7,299.2-55.1,299.9C-55,299.9-55,299.9-55.1,299.9L-55.1,299.9z M-55.5,297.8L-55.5,297.8
			C-55.4,297.8-55.4,297.8-55.5,297.8c0,0.2,0.1,0.3,0.1,0.4c0.1,0.1,0.3,0.2,0.4,0.2c0,0,0.1,0,0.1,0.1v0.1
			c-0.2,0.4-0.2,0.9-0.1,1.3c0.4-0.8,1.3-1.1,1.8-1.3c0.4,0,1,0.4,1.5,1.1c0.2-0.2,0.3-0.4,0.3-0.7c0-0.1,0.1-0.1,0.1-0.1
			c0.4,0,0.8,0.4,1.1,0.6c0.1-0.1,0.1-0.3,0.1-0.4c0,0,0-0.1,0.1-0.1h0.1c0.1,0.1,0.3,0.2,0.5,0.2c0.4,0.1,1,0,1.2-0.2h0.1l0.1,0.1
			c0,0.2,0.1,0.4,0.1,0.6c0.3-0.8,1.3-1.2,1.8-1.3l0,0c0.5,0,0.9,0.5,1.3,1c0.1,0.1,0.1,0.1,0.1,0.2c0.2-0.2,0.3-0.4,0.3-0.7
			c0-0.1,0-0.1,0.1-0.1c0.4,0,0.8,0.3,1.1,0.6c0.1-0.3,0.1-0.5,0-0.8v-0.1h0.1c0.1,0.1,0.5,0.3,0.8,0.1c0.1-0.1,0.3-0.4-0.1-1.3
			c-0.5-1.6-1.4-4.4-1.6-6.3c0.1-1.9-0.1-4.1-0.4-5v-0.1c0.3-0.6,0.8-1.6,1.1-3.2c0,0,0-0.1,0.1-0.1c0,0,0.1,0,0.1,0.1
			c0.6,2.2,1.5,2.4,1.8,2.4c0.4,0,0.7-0.3,0.7-0.5c0,0,0-0.1,0.1-0.1h0.1c0.3,0.4,0.6,0.6,1,0.5c0.3,0,0.4-0.1,0.6-0.4
			c0,0,0,0,0.1,0h0.1c0.3,0.3,0.6,0.4,0.9,0.4c0.3,0,0.6-0.2,0.7-0.4c0,0,0,0,0.1,0h0.1c0.3,0.3,0.6,0.4,1,0.4
			c0.3,0,0.6-0.1,0.9-0.3h0.1c0.4,0.3,1,0.4,1.4,0.3c0.2-0.1,0.3-0.2,0.4-0.3c0,0,0-0.1,0.1-0.1h0.1c0.5,0.3,1.2,0.4,1.6,0.2
			c0.3-0.1,0.4-0.2,0.4-0.3c0-0.1,0.1-0.1,0.1-0.1c1,0.3,2.3,0,2.7-0.4c0.1-0.1,0.1-0.2,0.1-0.3v-0.1h0.1c1.4,0.3,3.7-0.4,3.9-0.8
			c0.1-0.1,0-0.1-0.1-0.2v-0.1c0,0,0-0.1,0.1-0.1c0.8-0.1,1.7-0.4,2-1c0.1-0.1,0.1-0.3-0.1-0.4V281l0.1-0.1c1.1,0,2.2-0.6,2.5-1.1
			c0.1-0.2,0.1-0.3,0-0.4v-0.1h0.1c3.2,0.2,6.4-0.6,7.2-1.7c0.2-0.3,0.3-0.6,0.1-0.9v-0.1c0,0,0,0,0.1,0c2.2-0.2,4.6-1.5,4.4-2.9
			c0,0,0-0.1,0.1-0.1c1.4-0.6,2.3-1.3,2.5-1.9c0.1-0.3,0-0.4-0.1-0.7v-0.1c0,0,0-0.1,0.1-0.1c0.8-0.3,1.5-0.9,1.7-1.6
			c0.1-0.3,0.1-0.6,0.1-0.8v-0.1c1.2-0.8,1.8-1.5,1.6-2c-0.2-0.4-1.2-0.8-3.4-0.1c-3.7,1.1-14.9,1-21.1,0.6c-4-0.3-7.2,0.9-9.4,3.3
			c-1.8,2-3.6,3.6-5.5,3.6H-42c-0.1,0-0.1,0-0.1-0.1c0-1.3,0.3-2,0.9-2.2c0.1,0,0.2-0.1,0.3-0.1c0.8-0.2,1.1-0.3,1.1-1
			c0-0.1,0-0.1,0.1-0.1c0.3,0,1.3-0.1,1.6,0.3c0.1-0.5,0.1-0.9-0.1-1.1c-0.3-0.3-0.9-0.4-1.8-0.4c-0.1,0-0.1,0-0.1-0.1
			c-0.1-0.6-0.2-1-0.5-1.3c-0.3-0.2-0.6-0.2-1.1-0.1c-0.4,0.1-1,0.1-1.4,0.1c-0.9,0.1-1.8,0.1-2.3,0.6c-0.7,0.8-1.6,1.4-2.5,2
			c-1.6,1-3.2,2-4.1,4.6l-0.1,0.1c-0.3-0.1-0.6-0.1-1.1-0.1c-1.3-0.1-3-0.2-4.9-1.5c-1.4-1-2.4-1.8-3.3-2.5
			c-2.7-2.2-3.9-3.1-8.8-2.9c-6.5,0.4-18.5,0.6-22.8-0.6c-1.5-0.4-2.2-0.1-2.3,0.4c-0.1,0.5,0.3,1.3,1.3,1.6c0,0,0.1,0,0.1,0.1
			c0,0,0,0.1-0.1,0.1c-0.2,0.1-0.3,0.3-0.3,0.6c0.1,0.6,0.7,1.3,1.9,1.6c0.1,0,0.1,0.1,0.1,0.1c-0.1,1,1.3,2.1,2.7,2.5
			c0,0,0.1,0,0.1,0.1v0.1c-0.2,0.2-0.3,0.4-0.1,0.7c0.3,1,2.5,2,4.3,2.3c0,0,0,0,0.1,0c0,0,0,0,0,0.1c-0.1,0.3,0,0.6,0.3,1
			c0.6,0.7,2.2,1.3,4.4,1.6c1.8,0.3,3.9,0.4,5.2,0.3h0.1v0.1c-0.1,0.4,0,0.8,0.3,1.1c0.4,0.4,1,0.6,1.7,0.6h0.1v0.1
			c-0.1,0.2,0.1,0.4,0.2,0.6c0.3,0.4,1,0.5,1.6,0.4h0.1c0,0,0,0,0,0.1c0,0.3,0.1,0.6,0.4,0.8c0.6,0.4,2,0.6,3.6-0.2h0.1v0.1
			c-0.1,0.5,0.4,0.8,0.6,0.9c0.6,0.3,1.6,0.3,2.2-0.2h0.1h0.1c0.1,0.1,0.2,0.2,0.4,0.3c0.4,0.1,1.1,0.1,1.6-0.2h0.1
			c0,0,0.1,0,0.1,0.1c0.1,0.1,0.2,0.2,0.3,0.2c0.3,0.1,0.9-0.1,1.3-0.3h0.1c0.3,0.4,1.1,0.3,1.5,0.1h0.1c0,0,0.1,0,0.1,0.1
			c0.1,0.2,0.3,0.3,0.5,0.3c0.4,0.1,1.1-0.3,1.4-0.6c0,0,0,0,0.1,0h0.1c0.1,0.1,0.3,0.2,0.4,0.2c0.6,0,1.6-0.6,2.4-2.1
			c0,0,0.1-0.1,0.1,0l0.1,0.1c-0.3,0.9-0.3,1.8-0.4,2.6c-0.1,0.7-0.1,1.3-0.3,1.8c-0.1,0.3-0.1,0.4-0.2,0.6
			c-0.8,2.5-1.4,4.2-4.5,9.1c-0.3,0.4-0.3,0.8,0.1,1.1c0.4,0.3,1.3,0.3,1.8-0.3h0.1h0.1c0.3,0.4,0.6,0.6,1,0.6
			C-56.6,298.9-56.1,298.7-55.5,297.8C-55.6,297.8-55.6,297.8-55.5,297.8z"/>
	</g>
	<g id="XMLID_477_">
		<path id="XMLID_478_" class="st3" d="M-44.8,298.8L-44.8,298.8C-44.8,298.8-44.8,298.8-44.8,298.8c-0.1-0.4-0.2-0.8-0.4-1v-0.1
			h0.1C-44.9,298-44.7,298.4-44.8,298.8C-44.7,298.8-44.8,298.8-44.8,298.8z"/>
	</g>
	<g id="XMLID_475_">
		<path id="XMLID_476_" class="st3" d="M-43.7,298.6C-43.7,298.6-43.8,298.6-43.7,298.6c-0.3-0.9-1.2-0.8-1.5-0.7l0,0
			c-0.6-0.1-0.9-0.6-0.9-1.3c0-0.6,0.3-1.4,1-2.7c0.4-0.8,0.4-2,0.5-3c0-0.1,0-0.1,0.1-0.1l0,0c0.1,0,0.1,0,0.1,0.1
			c-0.1,1-0.2,2.3-0.5,3c-0.6,1.3-1,2.1-1,2.6c0,0.6,0.3,1,0.8,1.1c0.8-0.1,1.4,0.1,1.6,0.8C-43.6,298.5-43.6,298.6-43.7,298.6
			L-43.7,298.6z"/>
	</g>
	<g id="XMLID_473_">
		<path id="XMLID_474_" class="st3" d="M-48.5,299.1L-48.5,299.1C-48.5,299.1-48.5,299.1-48.5,299.1c-0.1-0.4,0.1-1.3,1.2-1.5
			c0.4-0.1,0.6-0.2,0.6-0.8c0-0.8-0.4-1.4-0.9-2.1c-0.8-1.1-1.8-2.6-1.8-5.9c0-0.1,0-0.1,0.1-0.1s0.1,0,0.1,0.1c0,3.3,1,4.7,1.8,5.8
			c0.5,0.7,1,1.3,1,2.2c0,0.7-0.2,0.8-0.7,1C-48.3,298-48.4,298.7-48.5,299.1C-48.4,299.1-48.5,299.1-48.5,299.1z"/>
	</g>
	<g id="XMLID_471_">
		<path id="XMLID_472_" class="st3" d="M-46.5,288L-46.5,288C-46.6,288-46.6,287.9-46.5,288c0.1-0.5,0.4-0.9,0.8-1.3
			c0.3-0.3,0.5-0.5,0.6-0.8c0,0,0.1-0.1,0.1,0c0,0,0.1,0.1,0,0.1c-0.2,0.3-0.4,0.6-0.7,0.9C-45.9,287.2-46.2,287.5-46.5,288
			C-46.4,288-46.4,288-46.5,288z"/>
	</g>
	<g id="XMLID_469_">
		<path id="XMLID_470_" class="st3" d="M-51.6,276.1L-51.6,276.1c-0.2-0.4-0.5-0.5-1-0.6c-0.1,0-0.1-0.1-0.1-0.1l0.1-0.1
			c0.5,0.1,0.8,0.3,1,0.6C-51.5,276.1-51.5,276.1-51.6,276.1C-51.5,276.1-51.6,276.1-51.6,276.1z"/>
	</g>
	<g id="XMLID_467_">
		<path id="XMLID_468_" class="st3" d="M-51.4,299C-51.4,299-51.4,299-51.4,299C-51.4,299-51.4,298.9-51.4,299
			c-0.1-0.4-0.2-0.8-0.4-1.1v-0.1h0.1C-51.5,298-51.3,298.5-51.4,299C-51.4,298.9-51.4,299-51.4,299z"/>
	</g>
	<g id="XMLID_465_">
		<path id="XMLID_466_" class="st3" d="M-50.2,299.1L-50.2,299.1C-50.3,299.1-50.3,299-50.2,299.1c-0.1-0.4-0.2-0.8-0.4-1
			c-0.3-0.3-0.7-0.3-1.1-0.3l0,0c-0.4-0.1-0.8-0.3-0.7-1.1c0.1-1.3,0.5-2.2,1-3.2c0.8-1.6,1.6-3.4,1.3-6.9c0-0.1,0-0.1,0.1-0.1
			c0,0,0.1,0,0.1,0.1c0.4,3.6-0.5,5.4-1.3,7c-0.5,1-1,1.9-1,3.2c-0.1,0.8,0.2,0.8,0.6,1c0.5-0.1,1,0.1,1.2,0.3
			C-50.3,298.3-50.2,298.6-50.2,299.1C-50.2,299-50.2,299.1-50.2,299.1z"/>
	</g>
	<g id="XMLID_463_">
		<path id="XMLID_464_" class="st3" d="M-55,298.5C-55.1,298.5-55.1,298.5-55,298.5C-55.1,298.5-55.1,298.4-55,298.5
			c0.1-0.4,0.5-0.6,1-0.7c0.4-0.1,0.6-0.1,0.6-0.8c0-0.4-0.2-0.7-0.4-1c-0.1-0.1-0.1-0.2-0.2-0.3c-1-1.6-2-6.3-1.4-8
			c0-0.1,0.1-0.1,0.1-0.1c0.1,0,0.1,0.1,0.1,0.1c-0.6,1.7,0.4,6.3,1.4,7.9c0.1,0.1,0.1,0.2,0.2,0.3c0.2,0.3,0.4,0.6,0.4,1
			c-0.1,0.7-0.3,0.8-0.8,1C-54.5,298-54.8,298.1-55,298.5L-55,298.5z"/>
	</g>
	<g id="XMLID_461_">
		<path id="XMLID_462_" class="st3" d="M-44,282.7L-44,282.7C-44,282.7-44,282.7-44,282.7c0.1-0.8,0.1-1.8,0.1-2.8
			c0-1,0.3-1.6,0.7-2.4c0.4-0.8,0.8-1.6,0.8-2.8c0-0.1,0-0.2,0-0.3c0-0.1,0-0.3,0-0.4c0-0.1,0.1-0.1,0.1-0.1c0.1,0,0.1,0,0.1,0.1
			c0,0.1,0,0.3,0,0.4c0,0.1,0,0.2,0,0.3c0,1.2-0.4,2-0.8,2.9c-0.4,0.8-0.7,1.5-0.7,2.3C-43.7,281-43.8,281.9-44,282.7
			C-43.9,282.7-43.9,282.7-44,282.7z"/>
	</g>
	<g id="XMLID_459_">
		<path id="XMLID_460_" class="st3" d="M-52,277L-52,277c-5.4-0.2-8.9-1.6-10.9-4.5c-2.2-3.2-6-3.2-9.8-2.9c-4.1,0.4-8.2,0.3-10.8,0
			c-0.1,0-0.1-0.1-0.1-0.1c0-0.1,0.1-0.1,0.1-0.1c2.7,0.3,6.7,0.4,10.8,0c3.8-0.4,7.6-0.3,9.9,2.9c2,2.9,5.5,4.2,10.8,4.4
			C-52,276.9-51.9,276.9-52,277C-51.9,277-52,277-52,277z"/>
	</g>
	<g id="XMLID_457_">
		<path id="XMLID_458_" class="st3" d="M-74.1,271.6c-1.8,0-3.6-0.3-4.2-1c-0.2-0.3-0.3-0.5-0.1-0.8c0-0.1,0.1-0.1,0.1-0.1
			c0.1,0,0.1,0.1,0.1,0.1c-0.1,0.3-0.1,0.5,0.1,0.7c0.4,0.5,2,1.3,7.5,0.8c0.1,0,0.1,0,0.1,0.1s0,0.1-0.1,0.1
			C-71.7,271.5-72.9,271.6-74.1,271.6z"/>
	</g>
	<g id="XMLID_455_">
		<path id="XMLID_456_" class="st3" d="M-72.7,273.1c-1.7,0-3.3-0.3-4.3-1c-0.4-0.3-0.7-0.7-0.8-1.1c0-0.1,0-0.1,0.1-0.1
			c0.1,0,0.1,0,0.1,0.1c0.1,0.4,0.3,0.8,0.7,1c1.6,1.2,5,1.2,7.6,0.6c0.1,0,0.1,0,0.1,0.1s0,0.1-0.1,0.1
			C-70.4,273-71.6,273.1-72.7,273.1z"/>
	</g>
	<g id="XMLID_453_">
		<path id="XMLID_454_" class="st3" d="M-71.6,274.6c-1,0-2-0.1-2.7-0.1c-1.1-0.1-1.9-0.8-1.9-1.3c0-0.1,0.1-0.4,0.8-0.5l0,0
			c0.1,0,0.1,0,0.1,0.1s0,0.1-0.1,0.1c-0.4,0-0.6,0.1-0.6,0.4c0,0.4,0.7,1.1,1.8,1.2c1.6,0.2,4.5,0.3,6.1-0.2c0.1,0,0.1,0,0.1,0.1
			s0,0.1-0.1,0.1C-69.1,274.5-70.3,274.6-71.6,274.6z"/>
	</g>
	<g id="XMLID_451_">
		<path id="XMLID_452_" class="st3" d="M-70.9,276.5c-0.3,0-0.6,0-0.8,0c-1.7-0.1-2.8-0.5-3-1.1c-0.1-0.3,0.1-0.6,0.4-1h0.1v0.1
			c-0.3,0.3-0.4,0.6-0.4,0.8c0.1,0.3,0.5,0.9,2.9,1.1c1,0.1,3.2,0.1,5.3-0.6c0.1,0,0.1,0,0.1,0.1s0,0.1-0.1,0.1
			C-68,276.4-69.8,276.5-70.9,276.5z"/>
	</g>
	<g id="XMLID_449_">
		<path id="XMLID_450_" class="st3" d="M-69.8,278c-1.1,0-1.9-0.5-2-1c-0.1-0.3,0-0.5,0.3-0.7h0.1v0.1c-0.3,0.2-0.3,0.4-0.3,0.6
			c0.1,0.4,0.8,0.9,1.9,0.9c1.8,0,3.4-0.3,4.6-0.9h0.1v0.1C-66.3,277.7-68,278-69.8,278z"/>
	</g>
	<g id="XMLID_447_">
		<path id="XMLID_448_" class="st3" d="M-68.3,279.6c-0.8,0-1.3-0.3-1.5-0.6c-0.2-0.3-0.2-0.6,0.1-1c0,0,0.1-0.1,0.1,0
			c0,0,0.1,0.1,0,0.1c-0.2,0.3-0.3,0.6-0.1,0.8c0.3,0.4,1.1,0.7,2.5,0.4c0.8-0.2,2.7-1,3.2-1.4h0.1v0.1c-0.6,0.4-2.4,1.2-3.2,1.4
			C-67.7,279.5-68,279.6-68.3,279.6z"/>
	</g>
	<g id="XMLID_445_">
		<path id="XMLID_446_" class="st3" d="M-66.7,280.7c-0.4,0-0.7-0.2-0.8-0.4c-0.2-0.3-0.1-0.8,0.4-1h0.1v0.1
			c-0.3,0.2-0.5,0.6-0.3,0.9c0.2,0.3,0.8,0.5,1.6,0.1c0.3-0.1,1.5-0.7,2.3-1.5h0.1v0.1c-0.8,0.8-2,1.4-2.3,1.6
			C-66,280.6-66.4,280.7-66.7,280.7z"/>
	</g>
	<g id="XMLID_443_">
		<path id="XMLID_444_" class="st3" d="M-65,281.3c-0.3,0-0.4-0.1-0.6-0.2c-0.3-0.2-0.3-0.5-0.2-0.8c0-0.1,0.1-0.1,0.1-0.1
			c0.1,0,0.1,0.1,0.1,0.1c-0.1,0.3,0,0.5,0.2,0.7c0.3,0.2,0.7,0.3,1.3-0.1c0.8-0.5,1.5-1.1,2-1.8c0,0,0.1-0.1,0.1,0
			c0,0,0.1,0.1,0,0.1c-0.5,0.8-1.1,1.4-2,1.9C-64.4,281.3-64.7,281.3-65,281.3z"/>
	</g>
	<g id="XMLID_441_">
		<path id="XMLID_442_" class="st3" d="M-63.6,281.7c-0.1,0-0.2,0-0.3-0.1c-0.3-0.1-0.3-0.4-0.3-0.7c0-0.1,0.1-0.1,0.1-0.1
			c0.1,0,0.1,0.1,0.1,0.1c-0.1,0.2,0,0.4,0.2,0.6c0.3,0.1,1,0.2,2.7-1.8h0.1v0.1C-62.4,281.4-63.2,281.7-63.6,281.7z"/>
	</g>
	<g id="XMLID_439_">
		<path id="XMLID_440_" class="st3" d="M-62.5,282.2c-0.1,0-0.2,0-0.3-0.1c-0.3-0.1-0.3-0.4-0.3-0.6c0-0.1,0.1-0.1,0.1-0.1
			c0.1,0,0.1,0.1,0.1,0.1c-0.1,0.2,0,0.4,0.2,0.5c0.4,0.2,1.3-0.2,2.4-1.6c0,0,0.1-0.1,0.1,0c0,0,0.1,0.1,0,0.1
			C-61.1,281.7-62,282.2-62.5,282.2z"/>
	</g>
	<g id="XMLID_437_">
		<path id="XMLID_438_" class="st3" d="M-61,282.3L-61,282.3c-0.3,0-0.6-0.2-0.7-0.5v-0.1h0.1c0.2,0.3,0.4,0.4,0.6,0.4
			c0.4,0.1,1.1-0.4,2.2-1.5h0.1v0.1C-59.8,281.9-60.5,282.3-61,282.3z"/>
	</g>
	<g id="XMLID_435_">
		<path id="XMLID_436_" class="st3" d="M-59.9,282.8c-0.1,0-0.3,0-0.3-0.1c-0.2-0.1-0.3-0.3-0.3-0.5c0-0.1,0.1-0.1,0.1-0.1
			c0.1,0,0.1,0.1,0.1,0.1c0,0.2,0.1,0.3,0.2,0.4c0.4,0.2,1.2-0.1,2.1-1h0.1v0.1C-58.8,282.5-59.4,282.8-59.9,282.8z"/>
	</g>
	<g id="XMLID_433_">
		<path id="XMLID_434_" class="st3" d="M-58.7,282.9c-0.1,0-0.2,0-0.3-0.1c-0.1-0.1-0.3-0.2-0.2-0.4c0-0.1,0.1-0.1,0.1-0.1
			c0.1,0,0.1,0.1,0.1,0.1c0,0.1,0,0.2,0.1,0.3c0.4,0.1,1.3-0.3,2.1-1.1h0.1v0.1C-57.3,282.3-58.1,282.9-58.7,282.9z"/>
	</g>
	<g id="XMLID_431_">
		<path id="XMLID_432_" class="st3" d="M-57,282.9c-0.4,0-0.7-0.1-0.8-0.4v-0.1h0.1c0.1,0.3,0.4,0.4,0.8,0.3c0.6,0,1.1-0.4,1.5-1.1
			c0,0,0.1-0.1,0.1,0c0,0,0.1,0.1,0,0.1C-55.7,282.5-56.3,282.9-57,282.9C-56.9,282.9-57,282.9-57,282.9z"/>
	</g>
	<g id="XMLID_429_">
		<path id="XMLID_430_" class="st3" d="M-55.3,283c-0.2,0-0.3-0.1-0.4-0.1c-0.3-0.2-0.2-0.5,0.1-0.9c0,0,0.1-0.1,0.1,0
			c0,0,0.1,0.1,0,0.1c-0.3,0.3-0.3,0.6-0.1,0.8c0.3,0.2,0.8,0.1,1.4-0.4h0.1v0.1C-54.5,282.9-54.9,283-55.3,283z"/>
	</g>
	<g id="XMLID_427_">
		<path id="XMLID_428_" class="st3" d="M-54.7,283.4C-54.7,283.4-54.7,283.4-54.7,283.4c-0.1-0.1-0.1-0.1-0.1-0.1
			c0.8-0.6,1-1.6,1.2-2.5c0.2-0.8,0.3-1.5,1-1.5c0.1,0,0.1,0,0.1,0.1s0,0.1-0.1,0.1c-0.5,0-0.6,0.6-0.8,1.4
			C-53.5,281.6-53.8,282.7-54.7,283.4L-54.7,283.4z"/>
	</g>
	<g id="XMLID_425_">
		<path id="XMLID_426_" class="st3" d="M-81.4,271.6c-4.9,0-10.6-0.6-13-1.5c-0.1,0-0.1-0.1-0.1-0.1c0-0.1,0.1-0.1,0.1-0.1
			c3.1,1.1,11.4,1.8,16.7,1.3c0.1,0,0.1,0,0.1,0.1s0,0.1-0.1,0.1C-78.8,271.6-80,271.6-81.4,271.6z"/>
	</g>
	<g id="XMLID_423_">
		<path id="XMLID_424_" class="st3" d="M-78.5,273.6c-4.8,0-11.2-0.3-14.3-1.1c-0.1,0-0.1-0.1-0.1-0.1c0-0.1,0.1-0.1,0.1-0.1
			c3.6,1,11.9,1.3,16.7,1.1c0,0,0.1,0,0.1,0.1s0,0.1-0.1,0.1C-76.8,273.6-77.6,273.6-78.5,273.6z"/>
	</g>
	<g id="XMLID_421_">
		<path id="XMLID_422_" class="st3" d="M-78.5,276.3c-4.6,0-9.6-0.8-11.4-1.2c-0.1,0-0.1-0.1-0.1-0.1c0-0.1,0.1-0.1,0.1-0.1
			c2.3,0.6,10.5,1.8,15.8,0.9c0.1,0,0.1,0,0.1,0.1s0,0.1-0.1,0.1C-75.5,276.1-77,276.3-78.5,276.3z"/>
	</g>
	<g id="XMLID_419_">
		<path id="XMLID_420_" class="st3" d="M-78.5,278.8c-3.2,0-6.2-0.3-7.2-0.6c-0.1,0-0.1-0.1-0.1-0.1c0-0.1,0.1-0.1,0.1-0.1
			c2,0.5,10.3,1.2,14.8-0.3c0.1,0,0.1,0,0.1,0.1c0,0.1,0,0.1-0.1,0.1C-73,278.5-75.9,278.8-78.5,278.8z"/>
	</g>
	<g id="XMLID_417_">
		<path id="XMLID_418_" class="st3" d="M-75.9,281.1C-75.9,281.1-75.9,281.1-75.9,281.1c-0.1-0.1-0.1-0.1,0-0.1
			c1.3-0.1,4.6-0.8,6.3-1.8h0.1v0.1C-71.2,280.3-74.5,281.1-75.9,281.1L-75.9,281.1z"/>
	</g>
	<g id="XMLID_415_">
		<path id="XMLID_416_" class="st3" d="M-73.8,282.9C-73.8,282.9-73.9,282.8-73.8,282.9c-0.1-0.1-0.1-0.1,0-0.1
			c1.8-0.3,4.6-1.1,6.3-2.5h0.1v0.1C-69.1,281.7-71.9,282.5-73.8,282.9L-73.8,282.9z"/>
	</g>
	<g id="XMLID_413_">
		<path id="XMLID_414_" class="st3" d="M-71.9,283.9C-71.9,283.9-71.9,283.9-71.9,283.9c-0.1-0.1-0.1-0.1,0-0.1
			c1.3-0.1,4.9-1.5,6.4-2.7h0.1v0.1C-66.9,282.4-70.5,283.9-71.9,283.9L-71.9,283.9z"/>
	</g>
	<g id="XMLID_411_">
		<path id="XMLID_412_" class="st3" d="M-67.8,284.6L-67.8,284.6c-0.1-0.1-0.1-0.1,0-0.1c1.3-0.5,3-1.6,4.3-2.8h0.1v0.1
			C-64.7,282.9-66.5,284-67.8,284.6C-67.7,284.6-67.8,284.6-67.8,284.6z"/>
	</g>
	<g id="XMLID_409_">
		<path id="XMLID_410_" class="st3" d="M-64.9,285.4C-64.9,285.4-65,285.3-64.9,285.4c-0.1-0.1-0.1-0.1-0.1-0.1
			c1.1-0.8,2.1-1.9,3-2.9c0.1-0.1,0.3-0.3,0.3-0.4h0.1v0.1c-0.1,0.1-0.2,0.3-0.3,0.4C-62.7,283.4-63.7,284.6-64.9,285.4L-64.9,285.4
			z"/>
	</g>
	<g id="XMLID_407_">
		<path id="XMLID_408_" class="st3" d="M-62.8,285.5L-62.8,285.5c-0.1-0.1-0.1-0.1,0-0.1c0.9-0.5,1.6-1.5,2.3-2.6l0.1-0.2
			c0,0,0.1-0.1,0.1,0c0,0,0.1,0.1,0,0.1l-0.1,0.2C-61.1,283.9-61.8,284.9-62.8,285.5C-62.7,285.5-62.8,285.5-62.8,285.5z"/>
	</g>
	<g id="XMLID_405_">
		<path id="XMLID_406_" class="st3" d="M-61.1,285.4C-61.1,285.4-61.2,285.3-61.1,285.4c-0.1-0.1-0.1-0.1-0.1-0.1
			c0.8-0.5,1.7-1.6,2.3-2.5c0,0,0.1-0.1,0.1,0c0,0,0.1,0.1,0,0.1C-59.4,283.7-60.3,284.8-61.1,285.4L-61.1,285.4z"/>
	</g>
	<g id="XMLID_403_">
		<path id="XMLID_404_" class="st3" d="M-59.6,285.5L-59.6,285.5c-0.1-0.1-0.1-0.1-0.1-0.1c0.8-0.6,1.6-1.7,2.1-2.7
			c0,0,0.1-0.1,0.1,0c0,0,0.1,0.1,0,0.1C-57.9,283.7-58.7,284.8-59.6,285.5C-59.6,285.5-59.6,285.5-59.6,285.5z"/>
	</g>
	<g id="XMLID_401_">
		<path id="XMLID_402_" class="st3" d="M-57.7,285.3L-57.7,285.3c-0.1-0.1-0.1-0.1-0.1-0.1c0.8-0.6,1.3-1.5,1.8-2.5l0.1-0.1
			c0.1,0,0.1,0.1,0.1,0.1C-56.3,283.7-56.8,284.6-57.7,285.3C-57.6,285.3-57.6,285.3-57.7,285.3z"/>
	</g>
	<g id="XMLID_399_">
		<path id="XMLID_400_" class="st3" d="M-58,298.4C-58,298.4-58.1,298.4-58,298.4C-58.1,298.4-58.1,298.3-58,298.4
			c0.9-1.7,2.1-3.7,2.9-5.6l0.1-0.1c0.1,0,0.1,0.1,0.1,0.1C-55.9,294.7-57,296.7-58,298.4L-58,298.4z"/>
	</g>
	<g id="XMLID_397_">
		<path id="XMLID_398_" class="st3" d="M-55.5,297.9C-55.6,297.9-55.6,297.9-55.5,297.9c-0.1,0-0.1-0.1-0.1-0.1
			c0.3-0.5,0.6-1.1,0.9-1.6c0.2-0.3,0.3-0.6,0.5-1c0,0,0.1-0.1,0.1,0c0,0,0.1,0.1,0,0.1c-0.2,0.3-0.3,0.6-0.5,1
			C-54.9,296.8-55.1,297.4-55.5,297.9L-55.5,297.9z"/>
	</g>
	<g id="XMLID_395_">
		<path id="XMLID_396_" class="st3" d="M-50.6,297.9C-50.6,297.9-50.7,297.8-50.6,297.9c-0.1-0.3-0.1-0.8-0.1-1.3
			c-0.1-1.3-0.1-3.4-0.1-4.6c0-0.1,0.1-0.1,0.1-0.1c0.1,0,0.1,0,0.1,0.1c-0.1,1.1,0.1,3.2,0.1,4.6
			C-50.6,297.1-50.6,297.6-50.6,297.9C-50.6,297.8-50.6,297.9-50.6,297.9L-50.6,297.9z"/>
	</g>
	<g id="XMLID_393_">
		<path id="XMLID_394_" class="st3" d="M-48.3,298.1L-48.3,298.1C-48.4,298.1-48.4,298.1-48.3,298.1c-0.1-0.6-0.1-1.4-0.3-2.3
			c-0.1-1.1-0.3-2.4-0.3-3.5c0-0.1,0-0.1,0.1-0.1l0,0c0.1,0,0.1,0,0.1,0.1c0,1.1,0.1,2.3,0.3,3.5C-48.3,296.7-48.3,297.6-48.3,298.1
			C-48.3,298.1-48.3,298.1-48.3,298.1z"/>
	</g>
	<g id="XMLID_391_">
		<path id="XMLID_392_" class="st3" d="M-44.6,297.8C-44.7,297.8-44.7,297.8-44.6,297.8c-0.1-0.3-0.6-2.5-0.8-3.4
			c0-0.1,0-0.1,0.1-0.1s0.1,0,0.1,0.1C-45.1,295.4-44.6,297.5-44.6,297.8C-44.5,297.8-44.5,297.8-44.6,297.8L-44.6,297.8z"/>
	</g>
	<g id="XMLID_389_">
		<path id="XMLID_390_" class="st3" d="M-42.3,276.1C-42.4,276.1-42.4,276.1-42.3,276.1c-0.1-0.1-0.1-0.1,0-0.1
			c2.1-0.1,3.5-1.5,5.1-3.2c2-2.1,4.4-4.5,8.8-4.5c0.1,0,0.2,0,0.3,0c3,0.1,5.5,0.2,7.7,0.3c3.8,0.2,6.5,0.3,8.9,0.1
			c0.1,0,0.1,0,0.1,0.1c0,0.1,0,0.1-0.1,0.1c-2.3,0.3-5.1,0.1-8.9-0.1c-2.2-0.1-4.8-0.3-7.7-0.3c-0.1,0-0.2,0-0.3,0
			c-4.3,0-6.6,2.3-8.6,4.5C-38.7,274.5-40.2,276.1-42.3,276.1L-42.3,276.1z"/>
	</g>
	<g id="XMLID_387_">
		<path id="XMLID_388_" class="st3" d="M-24.3,270.4c-0.7,0-1.5-0.1-2.3-0.1c-0.1,0-0.1-0.1-0.1-0.1c0-0.1,0.1-0.1,0.1-0.1
			c3.5,0.3,5.8,0,6.6-0.8c0.2-0.2,0.3-0.4,0.3-0.7c0-0.1,0-0.1,0.1-0.1s0.1,0,0.1,0.1c0,0.3-0.1,0.6-0.3,0.8
			C-20.6,270.1-22.1,270.4-24.3,270.4z"/>
	</g>
	<g id="XMLID_385_">
		<path id="XMLID_386_" class="st3" d="M-24.3,272.1c-1,0-2.1-0.1-3.2-0.3c-0.1,0-0.1-0.1-0.1-0.1c0-0.1,0.1-0.1,0.1-0.1
			c2.3,0.3,4.7,0.6,5.6-0.3c0.3-0.3,0.4-0.7,0.4-1.3c0-0.1,0-0.1,0.1-0.1c0.1,0,0.1,0,0.1,0.1c0,0.6-0.1,1-0.5,1.3
			C-22.3,271.9-23.2,272.1-24.3,272.1z"/>
	</g>
	<g id="XMLID_383_">
		<path id="XMLID_384_" class="st3" d="M-25.3,273.9c-1.1,0-2.3-0.2-3.6-0.4c-0.1,0-0.1-0.1-0.1-0.1c0-0.1,0.1-0.1,0.1-0.1
			c1.5,0.3,4.5,0.9,5.7-0.1c0.4-0.3,0.5-0.8,0.5-1.3c0-0.1,0-0.1,0.1-0.1l0,0c0.1,0,0.1,0,0.1,0.1c0,0.6-0.2,1.1-0.6,1.4
			C-23.7,273.7-24.4,273.9-25.3,273.9z"/>
	</g>
	<g id="XMLID_381_">
		<path id="XMLID_382_" class="st3" d="M-26.5,275.7c-1.1,0-2.6-0.3-4.4-0.8c-0.1,0-0.1-0.1-0.1-0.1c0-0.1,0.1-0.1,0.1-0.1
			c3.3,1,5.4,1,6.3,0.3c0.4-0.3,0.5-0.8,0.5-1.4c0-0.1,0-0.1,0.1-0.1c0.1,0,0.1,0,0.1,0.1c0.1,0.6-0.1,1.1-0.5,1.5
			C-24.9,275.5-25.5,275.7-26.5,275.7z"/>
	</g>
	<g id="XMLID_379_">
		<path id="XMLID_380_" class="st3" d="M-28.2,277.5c-1.2,0-2.7-0.4-4-0.9c-0.1,0-0.1-0.1-0.1-0.1c0-0.1,0.1-0.1,0.1-0.1
			c2.5,1,4.8,1.1,5.7,0.4c0.4-0.3,0.5-0.7,0.4-1.3c0-0.1,0-0.1,0.1-0.1s0.1,0,0.1,0.1c0.1,0.6-0.1,1-0.4,1.3
			C-26.8,277.3-27.5,277.5-28.2,277.5z"/>
	</g>
	<g id="XMLID_377_">
		<path id="XMLID_378_" class="st3" d="M-30.2,278.8c-1,0-2.3-0.4-3.6-1.3c0,0-0.1-0.1,0-0.1c0,0,0.1-0.1,0.1,0
			c1.8,1.1,3.5,1.5,4.4,1c0.4-0.2,0.6-0.6,0.6-1.1c0-0.1,0-0.1,0.1-0.1c0.1,0,0.1,0,0.1,0.1c0,0.6-0.3,1-0.7,1.2
			C-29.4,278.7-29.8,278.8-30.2,278.8z"/>
	</g>
	<g id="XMLID_375_">
		<path id="XMLID_376_" class="st3" d="M-31.8,279.8c-0.8,0-1.9-0.5-3.2-1.4c0,0-0.1-0.1,0-0.1c0,0,0.1-0.1,0.1,0
			c1.6,1.1,2.9,1.6,3.7,1.3c0.3-0.1,0.6-0.4,0.6-1c0-0.1,0-0.1,0.1-0.1c0.1,0,0.1,0.1,0.1,0.1c-0.1,0.5-0.3,0.8-0.7,1
			C-31.5,279.8-31.7,279.8-31.8,279.8z"/>
	</g>
	<g id="XMLID_373_">
		<path id="XMLID_374_" class="st3" d="M-33.6,280.4c-0.7,0-1.5-0.5-2.3-1.5v-0.1h0.1c0.9,1,1.8,1.5,2.5,1.4
			c0.3-0.1,0.6-0.3,0.7-0.6c0-0.1,0.1-0.1,0.1-0.1c0.1,0,0.1,0.1,0.1,0.1c-0.1,0.4-0.4,0.6-0.8,0.8
			C-33.4,280.4-33.4,280.4-33.6,280.4z"/>
	</g>
	<g id="XMLID_371_">
		<path id="XMLID_372_" class="st3" d="M-34.8,280.9c-0.6,0-1.6-0.6-2.3-1.7v-0.1h0.1c0.8,1.2,1.8,1.8,2.3,1.6
			c0.2-0.1,0.3-0.2,0.4-0.4c0-0.1,0-0.1,0.1-0.1c0.1,0,0.1,0.1,0.1,0.1C-34.3,280.6-34.4,280.8-34.8,280.9
			C-34.6,280.9-34.7,280.9-34.8,280.9z"/>
	</g>
	<g id="XMLID_369_">
		<path id="XMLID_370_" class="st3" d="M-35.7,281.3c-0.6,0-1.5-0.7-2.2-1.8v-0.1h0.1c0.8,1.2,1.7,1.8,2.2,1.7
			c0.2-0.1,0.3-0.2,0.3-0.4c0-0.1,0.1-0.1,0.1-0.1c0.1,0,0.1,0.1,0.1,0.1c-0.1,0.4-0.3,0.5-0.4,0.6
			C-35.7,281.3-35.7,281.3-35.7,281.3z"/>
	</g>
	<g id="XMLID_367_">
		<path id="XMLID_368_" class="st3" d="M-36.9,281.7c-0.6,0-1.5-0.7-2-1.8v-0.1h0.1c0.6,1.2,1.5,1.8,2,1.7c0.2-0.1,0.4-0.2,0.4-0.5
			c0-0.1,0.1-0.1,0.1-0.1c0.1,0,0.1,0.1,0.1,0.1C-36.4,281.4-36.6,281.6-36.9,281.7C-36.8,281.7-36.8,281.7-36.9,281.7z"/>
	</g>
	<g id="XMLID_365_">
		<path id="XMLID_366_" class="st3" d="M-38.2,282.1c-0.5,0-1.3-0.6-1.8-2c0-0.1,0-0.1,0.1-0.1c0.1,0,0.1,0,0.1,0.1
			c0.4,1.2,1.1,1.8,1.6,1.8l0,0c0.3,0,0.4-0.2,0.6-0.5c0-0.1,0.1-0.1,0.1-0.1c0.1,0,0.1,0.1,0.1,0.1
			C-37.6,281.8-37.8,282-38.2,282.1C-38.1,282.1-38.1,282.1-38.2,282.1z"/>
	</g>
	<g id="XMLID_363_">
		<path id="XMLID_364_" class="st3" d="M-39.5,282.2c-0.1,0-0.1,0-0.1,0c-0.5-0.1-1.2-0.8-1.4-2.2c0-0.1,0-0.1,0.1-0.1
			c0.1,0,0.1,0,0.1,0.1c0.2,1.3,0.8,2,1.3,2.2c0.3,0.1,0.5-0.1,0.6-0.4c0,0,0.1-0.1,0.1,0s0.1,0.1,0,0.1
			C-39,282-39.3,282.2-39.5,282.2z"/>
	</g>
	<g id="XMLID_361_">
		<path id="XMLID_362_" class="st3" d="M-40.7,282.4c-0.1,0-0.1,0-0.1,0c-0.5-0.1-1-0.9-1.1-2c0-0.1,0-0.1,0.1-0.1
			c0.1,0,0.1,0,0.1,0.1C-41.6,281.7-41.1,282.2-40.7,282.4c0.2,0,0.4-0.1,0.6-0.4c0,0,0.1-0.1,0.1,0c0,0,0.1,0.1,0,0.1
			C-40.2,282.2-40.4,282.4-40.7,282.4z"/>
	</g>
	<g id="XMLID_359_">
		<path id="XMLID_360_" class="st3" d="M-41.8,282.5c-0.1,0-0.1,0-0.1,0c-0.5-0.1-1-0.9-1.1-2c0-0.1,0-0.1,0.1-0.1s0.1,0,0.1,0.1
			C-42.7,281.7-42.2,282.3-41.8,282.5c0.2,0,0.4-0.1,0.6-0.4c0,0,0.1-0.1,0.1,0c0,0,0.1,0.1,0,0.1
			C-41.3,282.3-41.6,282.5-41.8,282.5z"/>
	</g>
	<g id="XMLID_357_">
		<path id="XMLID_358_" class="st3" d="M-43.2,282.4c-0.3,0-0.4-0.1-0.7-0.3V282h0.1C-43.6,282.2-43.4,282.3-43.2,282.4
			c0.3-0.1,0.5-0.3,0.6-0.5c0,0,0.1-0.1,0.1,0c0,0,0.1,0.1,0,0.1C-42.7,282.2-42.9,282.4-43.2,282.4L-43.2,282.4z"/>
	</g>
	<g id="XMLID_355_">
		<path id="XMLID_356_" class="st3" d="M-20,270.9c-0.6,0-1.1,0-1.5,0c-0.1,0-0.1,0-0.1-0.1s0-0.1,0.1-0.1l0,0
			c3.8,0.1,14.5-0.4,16.9-2h0.1v0.1c-1.4,1-5.2,1.5-8.2,1.7C-15.3,270.8-18,270.9-20,270.9z"/>
	</g>
	<g id="XMLID_353_">
		<path id="XMLID_354_" class="st3" d="M-19.7,273.2c-1.1,0-2.2,0-3.3-0.1c-0.1,0-0.1,0-0.1-0.1s0-0.1,0.1-0.1
			c7,0.3,13.6-0.4,16.7-1.8c0,0,0.1,0,0.1,0.1c0,0,0,0.1-0.1,0.1C-8.9,272.5-14,273.2-19.7,273.2z"/>
	</g>
	<g id="XMLID_351_">
		<path id="XMLID_352_" class="st3" d="M-20.2,275.2c-1.6,0-3.2-0.1-4.1-0.1c-0.1,0-0.1-0.1-0.1-0.1c0-0.1,0-0.1,0.1-0.1l0,0
			c3.5,0.3,13,0.2,15.7-1.1h0.1v0.1C-10.5,274.9-16,275.2-20.2,275.2z"/>
	</g>
	<g id="XMLID_349_">
		<path id="XMLID_350_" class="st3" d="M-18.5,277.3c-2.9,0-5.9-0.2-7.9-0.4c-0.1,0-0.1-0.1-0.1-0.1c0-0.1,0-0.1,0.1-0.1l0,0
			c3.5,0.3,10.1,0.6,13.2,0.1c0.1,0,0.1,0,0.1,0.1c0,0.1,0,0.1-0.1,0.1C-14.5,277.1-16.4,277.3-18.5,277.3z"/>
	</g>
	<g id="XMLID_347_">
		<path id="XMLID_348_" class="st3" d="M-20.6,279.7L-20.6,279.7c-2.3-0.1-6-0.7-8.3-1.3c-0.1,0-0.1-0.1-0.1-0.1
			c0-0.1,0.1-0.1,0.1-0.1c2.3,0.6,6,1.2,8.3,1.3C-20.6,279.6-20.6,279.6-20.6,279.7C-20.6,279.6-20.6,279.7-20.6,279.7z"/>
	</g>
	<g id="XMLID_345_">
		<path id="XMLID_346_" class="st3" d="M-23.6,281.4c-1.8,0-5.5-0.9-7.5-1.8c0,0-0.1-0.1,0-0.1c0,0,0.1-0.1,0.1,0
			c2.2,1,6.4,1.9,7.9,1.7c0.1,0,0.1,0,0.1,0.1s0,0.1-0.1,0.1C-23.3,281.3-23.5,281.4-23.6,281.4z"/>
	</g>
	<g id="XMLID_343_">
		<path id="XMLID_344_" class="st3" d="M-25.7,282.9c-1.6,0-5.2-0.8-7.2-2.6v-0.1h0.1c2.2,2,6.5,2.7,7.7,2.5c0.1,0,0.1,0,0.1,0.1
			s0,0.1-0.1,0.1C-25.3,282.8-25.4,282.9-25.7,282.9z"/>
	</g>
	<g id="XMLID_341_">
		<path id="XMLID_342_" class="st3" d="M-29.1,283.9C-29.1,283.9-29.1,283.9-29.1,283.9c-1.8-0.2-4.2-1.5-5.6-3v-0.1h0.1
			c1.4,1.5,3.7,2.8,5.5,3C-29.1,283.8-29,283.8-29.1,283.9C-29.1,283.9-29.1,283.9-29.1,283.9z"/>
	</g>
	<g id="XMLID_339_">
		<path id="XMLID_340_" class="st3" d="M-32,284.6L-32,284.6c-1.7-0.3-3.1-2-4.1-3.4v-0.1h0.1c1,1.3,2.3,3,4,3.3
			C-32,284.5-31.9,284.5-32,284.6C-31.9,284.6-32,284.6-32,284.6z"/>
	</g>
	<g id="XMLID_337_">
		<path id="XMLID_338_" class="st3" d="M-34.1,284.8C-34.1,284.8-34.2,284.8-34.1,284.8c-0.8-0.6-2.4-1.9-3.2-3.2v-0.1h0.1
			c0.8,1.3,2.3,2.6,3.2,3.2C-34.1,284.7-34.1,284.8-34.1,284.8L-34.1,284.8z"/>
	</g>
	<g id="XMLID_335_">
		<path id="XMLID_336_" class="st3" d="M-36,284.9L-36,284.9c-1.2-0.6-2-1.9-2.4-2.9c0-0.1,0-0.1,0.1-0.1c0.1,0,0.1,0,0.1,0.1
			c0.4,1,1.2,2.2,2.3,2.8C-36,284.8-36,284.8-36,284.9C-36,284.9-36,284.9-36,284.9z"/>
	</g>
	<g id="XMLID_333_">
		<path id="XMLID_334_" class="st3" d="M-37.9,284.8L-37.9,284.8c-0.8-0.9-1.3-1.8-1.6-2.7c0-0.1,0-0.1,0.1-0.1c0.1,0,0.1,0,0.1,0.1
			C-39.1,283-38.6,283.8-37.9,284.8C-37.9,284.7-37.9,284.7-37.9,284.8C-37.9,284.8-37.9,284.8-37.9,284.8z"/>
	</g>
	<g id="XMLID_331_">
		<path id="XMLID_332_" class="st3" d="M-39.6,284.8L-39.6,284.8c-0.5-0.6-0.9-1.2-1.4-2.5c0-0.1,0-0.1,0.1-0.1c0,0,0.1,0,0.1,0.1
			C-40.4,283.6-40,284.2-39.6,284.8C-39.5,284.8-39.5,284.8-39.6,284.8C-39.6,284.8-39.6,284.8-39.6,284.8z"/>
	</g>
	<g id="XMLID_329_">
		<path id="XMLID_330_" class="st3" d="M-41.2,284.6C-41.3,284.6-41.3,284.6-41.2,284.6c-0.6-0.6-0.9-1.2-1.5-2.5
			c0-0.1,0-0.1,0.1-0.1c0.1,0,0.1,0,0.1,0.1C-42,283.5-41.7,284.1-41.2,284.6C-41.2,284.6-41.2,284.6-41.2,284.6L-41.2,284.6z"/>
	</g>
	<g id="XMLID_327_">
		<path id="XMLID_328_" class="st3" d="M-41.2,271.1C-41.3,271.1-41.3,271.1-41.2,271.1c-0.1-0.1-0.1-0.1,0-0.1
			c0.2-0.1,0.4-0.1,0.8-0.1c0.1,0,0.3,0,0.5,0c0.1,0,0.1,0,0.1,0.1s0,0.1-0.1,0.1c-0.2,0-0.3,0-0.5,0C-40.8,271-41,271.1-41.2,271.1
			L-41.2,271.1z"/>
	</g>
	<g id="XMLID_325_">
		<path id="XMLID_326_" class="st3" d="M-40.6,270L-40.6,270C-40.7,270-40.7,270-40.6,270c-0.1-0.2,0.1-0.3,0.1-0.3
			c0.1-0.1,0.1-0.1,0.1-0.2s0-0.1,0.1-0.1c0.1,0,0.1,0,0.1,0.1c0,0.2-0.1,0.3-0.1,0.3C-40.5,269.9-40.5,269.9-40.6,270
			C-40.5,270-40.6,270-40.6,270z"/>
	</g>
	<g id="XMLID_323_">
		<path id="XMLID_324_" class="st3" d="M-41.2,269.8L-41.2,269.8c-0.4-0.3-0.9-0.1-1.1-0.1c-0.3,0.1-0.6,0-0.9-0.1
			c-0.3-0.1-0.6-0.1-0.9-0.1c-0.1,0-0.1,0-0.1-0.1s0-0.1,0.1-0.1c0.3-0.1,0.6,0,1,0.1c0.3,0.1,0.6,0.1,0.8,0.1
			c0.2-0.1,0.6-0.1,1.1,0.1C-41.2,269.7-41.2,269.7-41.2,269.8C-41.2,269.8-41.2,269.8-41.2,269.8z"/>
	</g>
	<g id="XMLID_321_">
		<path id="XMLID_322_" class="st3" d="M-42.6,270.2C-42.6,270.2-42.7,270.2-42.6,270.2c-0.3,0-0.4-0.1-0.5-0.3
			c-0.1-0.1-0.1-0.3-0.1-0.4c0-0.1,0.1-0.1,0.1-0.1c0.1,0,0.1,0.1,0.1,0.1c0,0.1,0,0.3,0.1,0.3c0.1,0.1,0.3,0.2,0.4,0.2
			c0.2,0,0.3-0.1,0.4-0.2c0.1-0.1,0.1-0.2,0.1-0.3c0-0.1,0-0.1,0.1-0.1c0.1,0,0.1,0,0.1,0.1c0,0.1-0.1,0.3-0.1,0.4
			C-42.2,270.1-42.4,270.2-42.6,270.2z"/>
	</g>
</g>
<g id="XMLID_44_">
	<g id="XMLID_318_">
		<path id="XMLID_319_" class="st0" d="M-101.9,219.9v8.9v1l0,0c0,0.3,0,0.5-0.1,0.8c-0.2,1.4-0.8,2.6-1.8,3.6
			c-1.1,1.1-2.7,1.8-4.4,1.8s-3.2-0.7-4.3-1.8c-1.1-1.1-1.8-2.7-1.8-4.4v-9.8L-101.9,219.9L-101.9,219.9z"/>
	</g>
	<g id="XMLID_309_">
		<path id="XMLID_315_" class="st4" d="M-118.4,229.7L-118.4,229.7L-118.4,229.7c0,2.9,1.1,5.4,3,7.3c1.9,1.9,4.4,3,7.3,3
			s5.5-1.1,7.3-3c1.9-1.8,3-4.4,3-7.3l0,0v-14h-20.7L-118.4,229.7L-118.4,229.7z M-101.9,219.9v8.9v1l0,0c0,0.3,0,0.5-0.1,0.8
			c-0.2,1.4-0.8,2.6-1.8,3.6c-1.1,1.1-2.7,1.8-4.4,1.8s-3.2-0.7-4.3-1.8c-1.1-1.1-1.8-2.7-1.8-4.4v-9.8L-101.9,219.9L-101.9,219.9z"
			/>
		<path id="XMLID_310_" class="st5" d="M-108,240.1c-2.8,0-5.4-1.1-7.4-3c-2-2-3-4.6-3-7.3l0,0v-14h20.8v14c0,2.8-1.1,5.3-3,7.3
			C-102.6,239-105.3,240.1-108,240.1z M-118.4,229.7L-118.4,229.7c0,2.7,1.1,5.3,3,7.2s4.5,3,7.3,3c2.7,0,5.3-1.1,7.3-3
			c1.9-1.9,3-4.5,3-7.2v-0.1v-13.9h-20.5L-118.4,229.7z M-108,236c-1.6,0-3.2-0.6-4.4-1.8c-1.1-1.1-1.8-2.8-1.8-4.4v-9.9h12.4v8.9v1
			c0,0.3,0,0.6-0.1,0.8c-0.2,1.3-0.8,2.6-1.8,3.6C-104.8,235.4-106.4,236-108,236z M-114.1,220v9.8c0,1.6,0.6,3.2,1.8,4.3
			c1.2,1.1,2.7,1.8,4.3,1.8c1.6,0,3.2-0.6,4.3-1.8c1-1,1.6-2.2,1.8-3.6c0-0.3,0.1-0.5,0.1-0.8v-1v-8.8L-114.1,220z"/>
	</g>
	<g id="XMLID_301_">
		<path id="XMLID_302_" class="st6" d="M-106.6,228.1v-2h-2.7v2l0,0c0,0.4,0.1,0.8,0.4,1s0.6,0.4,1,0.4c0.4,0,0.7-0.2,1-0.4
			C-106.8,228.9-106.6,228.6-106.6,228.1L-106.6,228.1z M-108.7,226.7c0.1,0,0.3,0.1,0.3,0.3c0,0.1-0.1,0.3-0.3,0.3
			c-0.1,0-0.3-0.1-0.3-0.3C-109,226.8-108.8,226.7-108.7,226.7z M-108.7,228.7c-0.1,0-0.3-0.1-0.3-0.3c0-0.1,0.1-0.3,0.3-0.3
			s0.3,0.1,0.3,0.3C-108.4,228.6-108.5,228.7-108.7,228.7z M-108,227.9c-0.1,0-0.3-0.1-0.3-0.3c0-0.1,0.1-0.3,0.3-0.3
			c0.1,0,0.3,0.1,0.3,0.3C-107.7,227.8-107.8,227.9-108,227.9z M-107.2,228.7c-0.1,0-0.3-0.1-0.3-0.3c0-0.1,0.1-0.3,0.3-0.3
			c0.1,0,0.3,0.1,0.3,0.3C-106.9,228.6-107.1,228.7-107.2,228.7z M-107.2,227.2c-0.1,0-0.3-0.1-0.3-0.3c0-0.1,0.1-0.3,0.3-0.3
			c0.1,0,0.3,0.1,0.3,0.3C-106.9,227-107.1,227.2-107.2,227.2z"/>
	</g>
	<g id="XMLID_293_">
		<path id="XMLID_294_" class="st6" d="M-106.6,232.8v-2h-2.7v2l0,0c0,0.4,0.1,0.8,0.4,1c0.3,0.3,0.6,0.4,1,0.4c0.4,0,0.7-0.2,1-0.4
			C-106.8,233.6-106.6,233.2-106.6,232.8L-106.6,232.8z M-108.7,231.4c0.1,0,0.3,0.1,0.3,0.3s-0.1,0.3-0.3,0.3
			c-0.1,0-0.3-0.1-0.3-0.3C-109,231.5-108.8,231.4-108.7,231.4z M-108.7,233.4c-0.1,0-0.3-0.1-0.3-0.3c0-0.1,0.1-0.3,0.3-0.3
			s0.3,0.1,0.3,0.3C-108.4,233.3-108.5,233.4-108.7,233.4z M-108,232.6c-0.1,0-0.3-0.1-0.3-0.3c0-0.1,0.1-0.3,0.3-0.3
			s0.3,0.1,0.3,0.3C-107.7,232.5-107.8,232.6-108,232.6z M-107.2,233.4c-0.1,0-0.3-0.1-0.3-0.3c0-0.1,0.1-0.3,0.3-0.3
			c0.1,0,0.3,0.1,0.3,0.3C-106.9,233.3-107.1,233.4-107.2,233.4z M-107.2,231.9c-0.1,0-0.3-0.1-0.3-0.3c0-0.1,0.1-0.3,0.3-0.3
			c0.1,0,0.3,0.1,0.3,0.3C-106.9,231.7-107.1,231.9-107.2,231.9z"/>
	</g>
	<g id="XMLID_285_">
		<path id="XMLID_286_" class="st6" d="M-110.4,228.1v-2h-2.7v2l0,0c0,0.4,0.1,0.8,0.4,1c0.3,0.3,0.6,0.4,1,0.4s0.7-0.2,1-0.4
			C-110.6,228.9-110.4,228.6-110.4,228.1L-110.4,228.1z M-112.5,226.7c0.1,0,0.3,0.1,0.3,0.3c0,0.1-0.1,0.3-0.3,0.3
			s-0.3-0.1-0.3-0.3C-112.7,226.8-112.6,226.7-112.5,226.7z M-112.5,228.7c-0.1,0-0.3-0.1-0.3-0.3c0-0.1,0.1-0.3,0.3-0.3
			s0.3,0.1,0.3,0.3C-112.2,228.6-112.3,228.7-112.5,228.7z M-111.8,227.9c-0.1,0-0.3-0.1-0.3-0.3c0-0.1,0.1-0.3,0.3-0.3
			s0.3,0.1,0.3,0.3C-111.4,227.8-111.6,227.9-111.8,227.9z M-111,228.7c-0.1,0-0.3-0.1-0.3-0.3c0-0.1,0.1-0.3,0.3-0.3
			c0.1,0,0.3,0.1,0.3,0.3C-110.7,228.6-110.8,228.7-111,228.7z M-111,227.2c-0.1,0-0.3-0.1-0.3-0.3c0-0.1,0.1-0.3,0.3-0.3
			c0.1,0,0.3,0.1,0.3,0.3S-110.8,227.2-111,227.2z"/>
	</g>
	<g id="XMLID_277_">
		<path id="XMLID_278_" class="st6" d="M-102.8,228.1v-2h-2.7v2l0,0c0,0.4,0.1,0.8,0.4,1c0.3,0.3,0.6,0.4,1,0.4c0.4,0,0.7-0.2,1-0.4
			C-103,228.9-102.8,228.6-102.8,228.1L-102.8,228.1z M-104.9,226.7c0.1,0,0.3,0.1,0.3,0.3c0,0.1-0.1,0.3-0.3,0.3
			c-0.1,0-0.3-0.1-0.3-0.3C-105.2,226.8-105,226.7-104.9,226.7z M-104.9,228.7c-0.1,0-0.3-0.1-0.3-0.3c0-0.1,0.1-0.3,0.3-0.3
			c0.1,0,0.3,0.1,0.3,0.3C-104.7,228.6-104.8,228.7-104.9,228.7z M-104.2,227.9c-0.1,0-0.3-0.1-0.3-0.3c0-0.1,0.1-0.3,0.3-0.3
			c0.1,0,0.3,0.1,0.3,0.3C-103.9,227.8-104,227.9-104.2,227.9z M-103.5,228.7c-0.1,0-0.3-0.1-0.3-0.3c0-0.1,0.1-0.3,0.3-0.3
			s0.3,0.1,0.3,0.3C-103.2,228.6-103.3,228.7-103.5,228.7z M-103.5,227.2c-0.1,0-0.3-0.1-0.3-0.3c0-0.1,0.1-0.3,0.3-0.3
			c0.1,0,0.3,0.1,0.3,0.3C-103.2,227-103.3,227.2-103.5,227.2z"/>
	</g>
	<g id="XMLID_269_">
		<path id="XMLID_270_" class="st6" d="M-106.6,223.4v-2h-2.7v2l0,0c0,0.4,0.1,0.8,0.4,1c0.3,0.3,0.6,0.4,1,0.4c0.4,0,0.7-0.2,1-0.4
			C-106.8,224.2-106.6,223.8-106.6,223.4L-106.6,223.4z M-108.7,221.9c0.1,0,0.3,0.1,0.3,0.3c0,0.1-0.1,0.3-0.3,0.3
			c-0.1,0-0.3-0.1-0.3-0.3C-109,222-108.8,221.9-108.7,221.9z M-108.7,223.9c-0.1,0-0.3-0.1-0.3-0.3c0-0.1,0.1-0.3,0.3-0.3
			s0.3,0.1,0.3,0.3C-108.4,223.8-108.5,223.9-108.7,223.9z M-108,223.2c-0.1,0-0.3-0.1-0.3-0.3c0-0.1,0.1-0.3,0.3-0.3
			c0.1,0,0.3,0.1,0.3,0.3C-107.7,223-107.8,223.2-108,223.2z M-107.2,223.9c-0.1,0-0.3-0.1-0.3-0.3c0-0.1,0.1-0.3,0.3-0.3
			c0.1,0,0.3,0.1,0.3,0.3C-106.9,223.8-107.1,223.9-107.2,223.9z M-107.2,222.5c-0.1,0-0.3-0.1-0.3-0.3c0-0.1,0.1-0.3,0.3-0.3
			c0.1,0,0.3,0.1,0.3,0.3C-106.9,222.3-107.1,222.5-107.2,222.5z"/>
	</g>
	<g id="XMLID_237_">
		<path id="XMLID_268_" class="st7" d="M-117,219.4c0-1,0.8-1.3,0.8-1.3s0.8,0.3,0.8,1.3H-117L-117,219.4z"/>
		<path id="XMLID_267_" class="st7" d="M-117.7,218.2l-0.1,1.1h0.8c0-1,0.7-1.1,0.8-1.1c0,0,0.7,0.2,0.8,1.1h0.8l-0.1-1.1H-117.7
			L-117.7,218.2z"/>
		<path id="XMLID_266_" class="st7" d="M-117.9,219.4h3.1c0.1,0,0.1,0.1,0.1,0.1l0,0c0,0.1-0.1,0.1-0.1,0.1h-3.1
			c-0.1,0-0.1-0.1-0.1-0.1l0,0C-118,219.4-117.9,219.4-117.9,219.4L-117.9,219.4z"/>
		<path id="XMLID_265_" class="st7" d="M-116.7,219.4c0-0.6,0.4-0.8,0.4-0.8c0,0,0.4,0.2,0.4,0.8H-116.7L-116.7,219.4z"/>
		<path id="XMLID_264_" class="st7" d="M-117.8,217.7h3c0.1,0,0.1,0.1,0.1,0.1l0,0c0,0.1-0.1,0.1-0.1,0.1h-3c-0.1,0-0.1-0.1-0.1-0.1
			l0,0C-117.9,217.8-117.9,217.7-117.8,217.7L-117.8,217.7z"/>
		<path id="XMLID_263_" class="st7" d="M-117.7,218h2.9c0.1,0,0.1,0.1,0.1,0.1l0,0c0,0.1-0.1,0.1-0.1,0.1h-2.9
			c-0.1,0-0.1-0.1-0.1-0.1l0,0C-117.9,218-117.8,218-117.7,218L-117.7,218z"/>
		<path id="XMLID_262_" class="st7" d="M-116.8,216.1h0.3v0.1h0.2V216h0.3v0.2h0.2V216h0.3v0.4c0,0.1-0.1,0.1-0.1,0.1h-0.8
			c-0.1,0-0.1-0.1-0.1-0.1L-116.8,216.1L-116.8,216.1z"/>
		<polygon id="XMLID_261_" class="st7" points="-115.9,216.5 -115.9,217.7 -116.7,217.7 -116.6,216.5 		"/>
		<path id="XMLID_260_" class="st7" d="M-115.8,216.6h0.2v0.1h0.2v-0.1h0.3v0.2h0.2v-0.2h0.3v0.4c0,0.1-0.1,0.1-0.1,0.1h-0.8
			c-0.1,0-0.1-0.1-0.1-0.1L-115.8,216.6L-115.8,216.6z"/>
		<polygon id="XMLID_259_" class="st7" points="-115,217.1 -115,217.7 -115.7,217.7 -115.7,217.1 		"/>
		<path id="XMLID_258_" class="st7" d="M-117.8,216.6h0.2v0.1h0.2v-0.1h0.3v0.2h0.2v-0.2h0.3v0.4c0,0.1-0.1,0.1-0.1,0.1h-0.8
			c-0.1,0-0.1-0.1-0.1-0.1L-117.8,216.6L-117.8,216.6z"/>
		<polygon id="XMLID_257_" class="st7" points="-116.9,217.1 -116.9,217.7 -117.7,217.7 -117.6,217.1 		"/>
		<g id="XMLID_238_">
			<path id="XMLID_256_" class="st5" d="M-116.4,216.9v0.3h0.1v-0.3C-116.2,216.8-116.4,216.8-116.4,216.9z"/>
			<path id="XMLID_255_" class="st5" d="M-115.4,217.3v0.2h0.1v-0.2C-115.3,217.2-115.4,217.2-115.4,217.3z"/>
			<path id="XMLID_254_" class="st5" d="M-117.3,217.3v0.2h0.1v-0.2C-117.2,217.2-117.3,217.2-117.3,217.3z"/>
			<path id="XMLID_239_" class="st5" d="M-114.7,219.3l-0.1-1c0.1,0,0.1-0.1,0.1-0.2c0-0.1,0-0.1,0-0.1c0.1,0,0.1-0.1,0.1-0.2
				c0-0.1-0.1-0.2-0.1-0.2h-0.1V217c0.1,0,0.1-0.1,0.1-0.1v-0.4h-0.3v0.2h-0.1v-0.2h-0.3v0.2h-0.1v-0.1h-0.3v0.4
				c0,0.1,0.1,0.1,0.1,0.1v0.6h-0.1l-0.1-1.1l0,0c0.1,0,0.1-0.1,0.1-0.1V216h-0.3v0.2h-0.1V216h-0.3v0.2h-0.1V216h-0.3v0.4
				c0,0.1,0.1,0.1,0.1,0.1l0,0l-0.1,1.1h-0.1v-0.6c0.1,0,0.1-0.1,0.1-0.1v-0.4h-0.3v0.2h-0.1v-0.2h-0.3v0.2h-0.1v-0.1h-0.3v0.4
				c0,0.1,0.1,0.1,0.1,0.1v0.6h-0.1c-0.1,0-0.1,0.1-0.1,0.2c0,0.1,0.1,0.1,0.1,0.2c0,0,0,0.1,0,0.1c0,0.1,0.1,0.2,0.1,0.2l-0.1,1
				l0,0c-0.1,0-0.2,0.1-0.2,0.2c0,0.1,0.1,0.2,0.2,0.2h3.1c0.1,0,0.2-0.1,0.2-0.2C-114.6,219.4-114.7,219.3-114.7,219.3z
				 M-114.9,219.3h-0.6c0-0.4-0.2-0.7-0.4-0.9c-0.1-0.1-0.1-0.1-0.2-0.1h1.1L-114.9,219.3z M-116.3,218.5L-116.3,218.5
				c-0.1,0-0.1,0.1-0.2,0.1c-0.1,0.1-0.3,0.3-0.3,0.7h-0.3c0-0.9,0.7-1,0.7-1s0.6,0.2,0.7,1h-0.3
				C-115.9,218.7-116.3,218.5-116.3,218.5z M-115.9,219.3h-0.8c0-0.4,0.3-0.6,0.4-0.7C-116.3,218.7-115.9,218.9-115.9,219.3z
				 M-115.8,217v-0.3h0.1v0.1h0.3v-0.1h0.1v0.2h0.3v-0.2h0.1v0.3c0,0.1,0,0.1-0.1,0.1L-115.8,217C-115.8,217-115.8,217-115.8,217z
				 M-115,217.7h-0.6v-0.6h0.6V217.7z M-116.7,216.5C-116.7,216.5-116.8,216.5-116.7,216.5l-0.1-0.4h0.1v0.1h0.3V216h0.1v0.2h0.3
				V216h0.1v0.3c0,0.1,0,0.1-0.1,0.1L-116.7,216.5L-116.7,216.5z M-115.9,217.7h-0.7l0.1-1.1h0.6L-115.9,217.7z M-117.7,217v-0.3
				h0.1v0.1h0.3v-0.1h0.1v0.2h0.3v-0.2h0.1v0.3c0,0.1,0,0.1-0.1,0.1L-117.7,217C-117.7,217-117.7,217-117.7,217z M-117,217.7h-0.6
				v-0.6h0.6V217.7z M-117.9,217.8C-117.9,217.8-117.9,217.8-117.9,217.8l3-0.1c0.1,0,0.1,0.1,0.1,0.1c0,0.1,0,0.1-0.1,0.1
				L-117.9,217.8C-117.8,217.9-117.9,217.9-117.9,217.8z M-117.8,218.1C-117.8,218-117.8,218-117.8,218.1l2.9-0.1
				c0.1,0,0.1,0.1,0.1,0.1c0,0.1,0,0.1-0.1,0.1l0,0h-2.8l0,0C-117.7,218.2-117.8,218.2-117.8,218.1z M-117.7,218.3h1.1
				c-0.1,0-0.1,0.1-0.2,0.1c-0.2,0.1-0.4,0.4-0.4,1h-0.6L-117.7,218.3z M-114.7,219.6h-3.1c-0.1,0-0.1-0.1-0.1-0.1
				c0-0.1,0.1-0.1,0.1-0.1h3.1c0.1,0,0.1,0.1,0.1,0.1C-114.7,219.6-114.7,219.6-114.7,219.6z"/>
		</g>
	</g>
	<g id="XMLID_205_">
		<path id="XMLID_236_" class="st7" d="M-108.8,219.4c0-1,0.8-1.3,0.8-1.3s0.8,0.3,0.8,1.3H-108.8L-108.8,219.4z"/>
		<path id="XMLID_235_" class="st7" d="M-109.4,218.2l-0.1,1.1h0.8c0-1,0.7-1.1,0.8-1.1c0,0,0.7,0.2,0.8,1.1h0.8l-0.1-1.1H-109.4
			L-109.4,218.2z"/>
		<path id="XMLID_234_" class="st7" d="M-109.5,219.4h3.1c0.1,0,0.1,0.1,0.1,0.1l0,0c0,0.1-0.1,0.1-0.1,0.1h-3.1
			c-0.1,0-0.1-0.1-0.1-0.1l0,0C-109.7,219.4-109.6,219.4-109.5,219.4L-109.5,219.4z"/>
		<path id="XMLID_233_" class="st7" d="M-108.4,219.4c0-0.6,0.4-0.8,0.4-0.8c0,0,0.4,0.2,0.4,0.8H-108.4L-108.4,219.4z"/>
		<path id="XMLID_232_" class="st7" d="M-109.5,217.7h3c0.1,0,0.1,0.1,0.1,0.1l0,0c0,0.1-0.1,0.1-0.1,0.1h-3c-0.1,0-0.1-0.1-0.1-0.1
			l0,0C-109.6,217.8-109.5,217.7-109.5,217.7L-109.5,217.7z"/>
		<path id="XMLID_231_" class="st7" d="M-109.4,218h2.9c0.1,0,0.1,0.1,0.1,0.1l0,0c0,0.1-0.1,0.1-0.1,0.1h-2.9
			c-0.1,0-0.1-0.1-0.1-0.1l0,0C-109.5,218-109.5,218-109.4,218L-109.4,218z"/>
		<path id="XMLID_230_" class="st7" d="M-108.5,216.1h0.3v0.1h0.2V216h0.3v0.2h0.2V216h0.3v0.4c0,0.1-0.1,0.1-0.1,0.1h-0.8
			c-0.1,0-0.1-0.1-0.1-0.1L-108.5,216.1L-108.5,216.1z"/>
		<polygon id="XMLID_229_" class="st7" points="-107.6,216.5 -107.6,217.7 -108.4,217.7 -108.3,216.5 		"/>
		<path id="XMLID_228_" class="st7" d="M-107.5,216.6h0.2v0.1h0.2v-0.1h0.3v0.2h0.2v-0.2h0.3v0.4c0,0.1-0.1,0.1-0.1,0.1h-0.8
			c-0.1,0-0.1-0.1-0.1-0.1L-107.5,216.6L-107.5,216.6z"/>
		<polygon id="XMLID_227_" class="st7" points="-106.7,217.1 -106.7,217.7 -107.4,217.7 -107.4,217.1 		"/>
		<path id="XMLID_226_" class="st7" d="M-109.5,216.6h0.2v0.1h0.2v-0.1h0.3v0.2h0.2v-0.2h0.3v0.4c0,0.1-0.1,0.1-0.1,0.1h-0.8
			c-0.1,0-0.1-0.1-0.1-0.1L-109.5,216.6L-109.5,216.6z"/>
		<polygon id="XMLID_225_" class="st7" points="-108.6,217.1 -108.6,217.7 -109.4,217.7 -109.3,217.1 		"/>
		<g id="XMLID_206_">
			<path id="XMLID_224_" class="st5" d="M-108.1,216.9v0.3h0.1v-0.3C-107.9,216.8-108.1,216.8-108.1,216.9z"/>
			<path id="XMLID_223_" class="st5" d="M-107.1,217.3v0.2h0.1v-0.2C-106.9,217.2-107.1,217.2-107.1,217.3z"/>
			<path id="XMLID_222_" class="st5" d="M-109,217.3v0.2h0.1v-0.2C-108.9,217.2-109,217.2-109,217.3z"/>
			<path id="XMLID_207_" class="st5" d="M-106.4,219.3l-0.1-1c0.1,0,0.1-0.1,0.1-0.2c0-0.1,0-0.1,0-0.1c0.1,0,0.1-0.1,0.1-0.2
				c0-0.1-0.1-0.2-0.1-0.2h-0.1V217c0.1,0,0.1-0.1,0.1-0.1v-0.4h-0.3v0.2h-0.1v-0.2h-0.3v0.2h-0.1v-0.1h-0.3v0.4
				c0,0.1,0.1,0.1,0.1,0.1v0.6h-0.1l-0.1-1.1l0,0c0.1,0,0.1-0.1,0.1-0.1V216h-0.3v0.2h-0.1V216h-0.3v0.2h-0.1V216h-0.3v0.4
				c0,0.1,0.1,0.1,0.1,0.1l0,0l-0.1,1.1h-0.1v-0.6c0.1,0,0.1-0.1,0.1-0.1v-0.4h-0.3v0.2h-0.1v-0.2h-0.3v0.2h-0.1v-0.1h-0.3v0.4
				c0,0.1,0.1,0.1,0.1,0.1v0.6h-0.1c-0.1,0-0.1,0.1-0.1,0.2c0,0.1,0.1,0.1,0.1,0.2c0,0,0,0.1,0,0.1c0,0.1,0.1,0.2,0.1,0.2l-0.1,1
				l0,0c-0.1,0-0.2,0.1-0.2,0.2c0,0.1,0.1,0.2,0.2,0.2h3.1c0.1,0,0.2-0.1,0.2-0.2C-106.3,219.4-106.4,219.3-106.4,219.3z
				 M-106.6,219.3h-0.6c0-0.4-0.2-0.7-0.4-0.9c-0.1-0.1-0.1-0.1-0.2-0.1h1.1L-106.6,219.3z M-108,218.5L-108,218.5
				c-0.1,0-0.1,0.1-0.2,0.1c-0.1,0.1-0.3,0.3-0.3,0.7h-0.3c0-0.9,0.7-1,0.7-1s0.6,0.2,0.7,1h-0.3C-107.6,218.7-108,218.5-108,218.5z
				 M-107.6,219.3h-0.8c0-0.4,0.3-0.6,0.4-0.7C-108,218.7-107.6,218.9-107.6,219.3z M-107.5,217v-0.3h0.1v0.1h0.3v-0.1h0.1v0.2h0.3
				v-0.2h0.1v0.3c0,0.1,0,0.1-0.1,0.1L-107.5,217C-107.4,217-107.5,217-107.5,217z M-106.7,217.7h-0.6v-0.6h0.6V217.7z
				 M-108.4,216.5C-108.4,216.5-108.5,216.5-108.4,216.5l-0.1-0.4h0.1v0.1h0.3V216h0.1v0.2h0.3V216h0.1v0.3c0,0.1,0,0.1-0.1,0.1
				L-108.4,216.5L-108.4,216.5z M-107.6,217.7h-0.7l0.1-1.1h0.6L-107.6,217.7z M-109.4,217v-0.3h0.1v0.1h0.3v-0.1h0.1v0.2h0.3v-0.2
				h0.1v0.3c0,0.1,0,0.1-0.1,0.1L-109.4,217C-109.4,217-109.4,217-109.4,217z M-108.7,217.7h-0.6v-0.6h0.6V217.7z M-109.5,217.8
				C-109.5,217.8-109.5,217.8-109.5,217.8l3-0.1c0.1,0,0.1,0.1,0.1,0.1s0,0.1-0.1,0.1L-109.5,217.8
				C-109.5,217.9-109.5,217.9-109.5,217.8z M-109.5,218.1C-109.5,218-109.5,218-109.5,218.1l2.9-0.1c0.1,0,0.1,0.1,0.1,0.1
				c0,0.1,0,0.1-0.1,0.1l0,0h-2.8l0,0C-109.4,218.2-109.5,218.2-109.5,218.1z M-109.4,218.3h1.1c-0.1,0-0.1,0.1-0.2,0.1
				c-0.2,0.1-0.4,0.4-0.4,1h-0.6L-109.4,218.3z M-106.4,219.6h-3.1c-0.1,0-0.1-0.1-0.1-0.1c0-0.1,0.1-0.1,0.1-0.1h3.1
				c0.1,0,0.1,0.1,0.1,0.1C-106.4,219.6-106.4,219.6-106.4,219.6z"/>
		</g>
	</g>
	<g id="XMLID_173_">
		<path id="XMLID_204_" class="st7" d="M-100.5,219.4c0-1,0.8-1.3,0.8-1.3s0.8,0.3,0.8,1.3H-100.5L-100.5,219.4z"/>
		<path id="XMLID_203_" class="st7" d="M-101.2,218.2l-0.1,1.1h0.8c0-1,0.7-1.1,0.8-1.1c0,0,0.7,0.2,0.8,1.1h0.8l-0.1-1.1H-101.2
			L-101.2,218.2z"/>
		<path id="XMLID_202_" class="st7" d="M-101.3,219.4h3.1c0.1,0,0.1,0.1,0.1,0.1l0,0c0,0.1-0.1,0.1-0.1,0.1h-3.1
			c-0.1,0-0.1-0.1-0.1-0.1l0,0C-101.4,219.4-101.4,219.4-101.3,219.4L-101.3,219.4z"/>
		<path id="XMLID_201_" class="st7" d="M-100.2,219.4c0-0.6,0.4-0.8,0.4-0.8c0,0,0.4,0.2,0.4,0.8H-100.2L-100.2,219.4z"/>
		<path id="XMLID_200_" class="st7" d="M-101.2,217.7h3c0.1,0,0.1,0.1,0.1,0.1l0,0c0,0.1-0.1,0.1-0.1,0.1h-3c-0.1,0-0.1-0.1-0.1-0.1
			l0,0C-101.4,217.8-101.3,217.7-101.2,217.7L-101.2,217.7z"/>
		<path id="XMLID_199_" class="st7" d="M-101.2,218h2.9c0.1,0,0.1,0.1,0.1,0.1l0,0c0,0.1-0.1,0.1-0.1,0.1h-2.9
			c-0.1,0-0.1-0.1-0.1-0.1l0,0C-101.3,218-101.2,218-101.2,218L-101.2,218z"/>
		<path id="XMLID_198_" class="st7" d="M-100.3,216.1h0.3v0.1h0.2V216h0.3v0.2h0.2V216h0.3v0.4c0,0.1-0.1,0.1-0.1,0.1h-0.8
			c-0.1,0-0.1-0.1-0.1-0.1L-100.3,216.1L-100.3,216.1z"/>
		<polygon id="XMLID_197_" class="st7" points="-99.5,216.5 -99.4,217.7 -100.2,217.7 -100.2,216.5 		"/>
		<path id="XMLID_196_" class="st7" d="M-99.3,216.6h0.2v0.1h0.2v-0.1h0.3v0.2h0.2v-0.2h0.3v0.4c0,0.1-0.1,0.1-0.1,0.1h-0.8
			c-0.1,0-0.1-0.1-0.1-0.1L-99.3,216.6L-99.3,216.6z"/>
		<polygon id="XMLID_195_" class="st7" points="-98.5,217.1 -98.4,217.7 -99.2,217.7 -99.2,217.1 		"/>
		<path id="XMLID_194_" class="st7" d="M-101.2,216.6h0.2v0.1h0.2v-0.1h0.3v0.2h0.2v-0.2h0.3v0.4c0,0.1-0.1,0.1-0.1,0.1h-0.8
			c-0.1,0-0.1-0.1-0.1-0.1L-101.2,216.6L-101.2,216.6z"/>
		<polygon id="XMLID_193_" class="st7" points="-100.4,217.1 -100.4,217.7 -101.1,217.7 -101.1,217.1 		"/>
		<g id="XMLID_174_">
			<path id="XMLID_192_" class="st5" d="M-99.8,216.9v0.3h0.1v-0.3C-99.7,216.8-99.9,216.8-99.8,216.9z"/>
			<path id="XMLID_191_" class="st5" d="M-98.9,217.3v0.2h0.1v-0.2C-98.8,217.2-98.9,217.2-98.9,217.3z"/>
			<path id="XMLID_190_" class="st5" d="M-100.9,217.3v0.2h0.1v-0.2C-100.7,217.2-100.9,217.2-100.9,217.3z"/>
			<path id="XMLID_175_" class="st5" d="M-98.3,219.3l-0.1-1c0.1,0,0.1-0.1,0.1-0.2c0-0.1,0-0.1,0-0.1c0.1,0,0.1-0.1,0.1-0.2
				c0-0.1-0.1-0.2-0.1-0.2h-0.1V217c0.1,0,0.1-0.1,0.1-0.1v-0.4h-0.3v0.2h-0.1v-0.2H-99v0.2H-99v-0.1h-0.3v0.4
				c0,0.1,0.1,0.1,0.1,0.1v0.6h-0.1l-0.1-1.1l0,0c0.1,0,0.1-0.1,0.1-0.1V216h-0.3v0.2h-0.1V216h-0.3v0.2h-0.1V216h-0.3v0.4
				c0,0.1,0.1,0.1,0.1,0.1l0,0l-0.1,1.1h-0.1v-0.6c0.1,0,0.1-0.1,0.1-0.1v-0.4h-0.3v0.2h-0.1v-0.2h-0.3v0.2h-0.1v-0.1h-0.3v0.4
				c0,0.1,0.1,0.1,0.1,0.1v0.6h-0.1c-0.1,0-0.1,0.1-0.1,0.2c0,0.1,0.1,0.1,0.1,0.2c0,0,0,0.1,0,0.1c0,0.1,0.1,0.2,0.1,0.2l-0.1,1
				l0,0c-0.1,0-0.2,0.1-0.2,0.2c0,0.1,0.1,0.2,0.2,0.2h3.1c0.1,0,0.2-0.1,0.2-0.2C-98.1,219.4-98.2,219.3-98.3,219.3z M-98.3,219.3
				H-99c0-0.4-0.2-0.7-0.4-0.9c-0.1-0.1-0.1-0.1-0.2-0.1h1.1L-98.3,219.3z M-99.8,218.5L-99.8,218.5c-0.1,0-0.1,0.1-0.2,0.1
				c-0.1,0.1-0.3,0.3-0.3,0.7h-0.3c0-0.9,0.7-1,0.7-1s0.6,0.2,0.7,1h-0.3C-99.3,218.7-99.8,218.5-99.8,218.5z M-99.4,219.3h-0.8
				c0-0.4,0.3-0.6,0.4-0.7C-99.7,218.7-99.5,218.9-99.4,219.3z M-99.3,217v-0.3h0.1v0.1h0.3v-0.1h0.1v0.2h0.3v-0.2h0.1v0.3
				c0,0.1,0,0.1-0.1,0.1L-99.3,217C-99.3,217-99.3,217-99.3,217z M-98.5,217.7h-0.6v-0.6h0.6V217.7z M-100.2,216.5
				C-100.2,216.5-100.2,216.5-100.2,216.5l-0.1-0.4h0.1v0.1h0.3V216h0.1v0.2h0.3V216h0.1v0.3c0,0.1,0,0.1-0.1,0.1L-100.2,216.5
				L-100.2,216.5z M-99.5,217.7h-0.7l0.1-1.1h0.6L-99.5,217.7z M-101.2,217v-0.3h0.1v0.1h0.3v-0.1h0.1v0.2h0.3v-0.2h0.1v0.3
				c0,0.1,0,0.1-0.1,0.1L-101.2,217C-101.2,217-101.2,217-101.2,217z M-100.4,217.7h-0.6v-0.6h0.6V217.7z M-101.4,217.8
				C-101.4,217.8-101.4,217.8-101.4,217.8l3-0.1c0.1,0,0.1,0.1,0.1,0.1s0,0.1-0.1,0.1L-101.4,217.8
				C-101.3,217.9-101.4,217.9-101.4,217.8z M-101.2,218.1C-101.2,218-101.2,218-101.2,218.1l2.9-0.1c0.1,0,0.1,0.1,0.1,0.1
				c0,0.1,0,0.1-0.1,0.1l0,0h-2.8l0,0C-101.2,218.2-101.2,218.2-101.2,218.1z M-101.1,218.3h1.1c-0.1,0-0.1,0.1-0.2,0.1
				c-0.2,0.1-0.4,0.4-0.4,1h-0.6L-101.1,218.3z M-98.3,219.6h-3.1c-0.1,0-0.1-0.1-0.1-0.1c0-0.1,0.1-0.1,0.1-0.1h3.1
				c0.1,0,0.1,0.1,0.1,0.1C-98.2,219.6-98.2,219.6-98.3,219.6z"/>
		</g>
	</g>
	<g id="XMLID_141_">
		<path id="XMLID_172_" class="st7" d="M-100.5,227.8c0-1,0.8-1.3,0.8-1.3s0.8,0.3,0.8,1.3H-100.5L-100.5,227.8z"/>
		<path id="XMLID_171_" class="st7" d="M-101.2,226.6l-0.1,1.1h0.8c0-1,0.7-1.1,0.8-1.1c0,0,0.7,0.2,0.8,1.1h0.8l-0.1-1.1H-101.2
			L-101.2,226.6z"/>
		<path id="XMLID_170_" class="st7" d="M-101.3,227.7h3.1c0.1,0,0.1,0.1,0.1,0.1l0,0c0,0.1-0.1,0.1-0.1,0.1h-3.1
			c-0.1,0-0.1-0.1-0.1-0.1l0,0C-101.4,227.8-101.4,227.7-101.3,227.7L-101.3,227.7z"/>
		<path id="XMLID_169_" class="st7" d="M-100.2,227.7c0-0.6,0.4-0.8,0.4-0.8c0,0,0.4,0.2,0.4,0.8H-100.2L-100.2,227.7z"/>
		<path id="XMLID_168_" class="st7" d="M-101.2,226.2h3c0.1,0,0.1,0.1,0.1,0.1l0,0c0,0.1-0.1,0.1-0.1,0.1h-3c-0.1,0-0.1-0.1-0.1-0.1
			l0,0C-101.4,226.2-101.3,226.2-101.2,226.2L-101.2,226.2z"/>
		<path id="XMLID_167_" class="st7" d="M-101.2,226.4h2.9c0.1,0,0.1,0.1,0.1,0.1l0,0c0,0.1-0.1,0.1-0.1,0.1h-2.9
			c-0.1,0-0.1-0.1-0.1-0.1l0,0C-101.3,226.4-101.2,226.4-101.2,226.4L-101.2,226.4z"/>
		<path id="XMLID_166_" class="st7" d="M-100.3,224.4h0.3v0.1h0.2v-0.2h0.3v0.2h0.2v-0.2h0.3v0.4c0,0.1-0.1,0.1-0.1,0.1h-0.8
			c-0.1,0-0.1-0.1-0.1-0.1L-100.3,224.4L-100.3,224.4z"/>
		<polygon id="XMLID_165_" class="st7" points="-99.5,224.9 -99.4,226.1 -100.2,226.1 -100.2,224.9 		"/>
		<path id="XMLID_164_" class="st7" d="M-99.3,225h0.2v0.1h0.2v-0.2h0.3v0.2h0.2v-0.2h0.3v0.4c0,0.1-0.1,0.1-0.1,0.1h-0.8
			c-0.1,0-0.1-0.1-0.1-0.1L-99.3,225L-99.3,225z"/>
		<polygon id="XMLID_163_" class="st7" points="-98.5,225.5 -98.4,226.1 -99.2,226.1 -99.2,225.5 		"/>
		<path id="XMLID_162_" class="st7" d="M-101.2,225h0.2v0.1h0.2v-0.2h0.3v0.2h0.2v-0.2h0.3v0.4c0,0.1-0.1,0.1-0.1,0.1h-0.8
			c-0.1,0-0.1-0.1-0.1-0.1L-101.2,225L-101.2,225z"/>
		<polygon id="XMLID_161_" class="st7" points="-100.4,225.5 -100.4,226.1 -101.1,226.1 -101.1,225.5 		"/>
		<g id="XMLID_142_">
			<path id="XMLID_160_" class="st5" d="M-99.8,225.3v0.3h0.1v-0.3C-99.7,225.2-99.9,225.2-99.8,225.3z"/>
			<path id="XMLID_159_" class="st5" d="M-98.9,225.7v0.2h0.1v-0.2C-98.8,225.6-98.9,225.6-98.9,225.7z"/>
			<path id="XMLID_158_" class="st5" d="M-100.9,225.7v0.2h0.1v-0.2C-100.7,225.6-100.9,225.6-100.9,225.7z"/>
			<path id="XMLID_143_" class="st5" d="M-98.3,227.7l-0.1-1c0.1,0,0.1-0.1,0.1-0.2c0-0.1,0-0.1,0-0.1c0.1,0,0.1-0.1,0.1-0.2
				c0-0.1-0.1-0.2-0.1-0.2h-0.1v-0.6c0.1,0,0.1-0.1,0.1-0.1v-0.4h-0.3v0.2h-0.1v-0.2H-99v0.2H-99V225h-0.3v0.4
				c0,0.1,0.1,0.1,0.1,0.1v0.6h-0.1l-0.1-1.1l0,0c0.1,0,0.1-0.1,0.1-0.1v-0.4h-0.3v0.2h-0.1v-0.2h-0.3v0.2h-0.1v-0.1h-0.3v0.4
				c0,0.1,0.1,0.1,0.1,0.1l0,0l-0.1,1.1h-0.1v-0.6c0.1,0,0.1-0.1,0.1-0.1v-0.4h-0.3v0.2h-0.1v-0.2h-0.3v0.2h-0.1v-0.1h-0.3v0.4
				c0,0.1,0.1,0.1,0.1,0.1v0.6h-0.1c-0.1,0-0.1,0.1-0.1,0.2c0,0.1,0.1,0.1,0.1,0.2c0,0,0,0.1,0,0.1c0,0.1,0.1,0.2,0.1,0.2l-0.1,1
				l0,0c-0.1,0-0.2,0.1-0.2,0.2c0,0.1,0.1,0.2,0.2,0.2h3.1c0.1,0,0.2-0.1,0.2-0.2C-98.1,227.8-98.2,227.7-98.3,227.7z M-98.3,227.7
				H-99c0-0.4-0.2-0.7-0.4-0.9c-0.1-0.1-0.1-0.1-0.2-0.1h1.1L-98.3,227.7z M-99.8,226.9L-99.8,226.9c-0.1,0-0.1,0.1-0.2,0.1
				c-0.1,0.1-0.3,0.3-0.3,0.7h-0.3c0-0.9,0.7-1,0.7-1s0.6,0.2,0.7,1h-0.3C-99.3,227.2-99.8,226.9-99.8,226.9z M-99.4,227.7h-0.8
				c0-0.4,0.3-0.6,0.4-0.7C-99.7,227-99.5,227.2-99.4,227.7z M-99.3,225.4v-0.3h0.1v0.1h0.3V225h0.1v0.2h0.3V225h0.1v0.3
				c0,0.1,0,0.1-0.1,0.1H-99.3C-99.3,225.5-99.3,225.4-99.3,225.4z M-98.5,226.1h-0.6v-0.6h0.6V226.1z M-100.2,224.9
				C-100.2,224.9-100.2,224.8-100.2,224.9l-0.1-0.4h0.1v0.1h0.3v-0.2h0.1v0.2h0.3v-0.2h0.1v0.3c0,0.1,0,0.1-0.1,0.1L-100.2,224.9
				L-100.2,224.9z M-99.5,226.1h-0.7l0.1-1.1h0.6L-99.5,226.1z M-101.2,225.4v-0.3h0.1v0.1h0.3V225h0.1v0.2h0.3V225h0.1v0.3
				c0,0.1,0,0.1-0.1,0.1H-101.2C-101.2,225.5-101.2,225.4-101.2,225.4z M-100.4,226.1h-0.6v-0.6h0.6V226.1z M-101.4,226.3
				C-101.4,226.2-101.4,226.2-101.4,226.3l3-0.1c0.1,0,0.1,0.1,0.1,0.1s0,0.1-0.1,0.1L-101.4,226.3
				C-101.3,226.3-101.4,226.3-101.4,226.3z M-101.2,226.5C-101.2,226.5-101.2,226.5-101.2,226.5l2.9-0.1c0.1,0,0.1,0.1,0.1,0.1
				c0,0.1,0,0.1-0.1,0.1l0,0h-2.8l0,0C-101.2,226.6-101.2,226.5-101.2,226.5z M-101.1,226.7h1.1c-0.1,0-0.1,0.1-0.2,0.1
				c-0.2,0.1-0.4,0.4-0.4,1h-0.6L-101.1,226.7z M-98.3,228h-3.1c-0.1,0-0.1-0.1-0.1-0.1c0-0.1,0.1-0.1,0.1-0.1h3.1
				c0.1,0,0.1,0.1,0.1,0.1C-98.2,227.9-98.2,228-98.3,228z"/>
		</g>
	</g>
	<g id="XMLID_109_">
		<path id="XMLID_140_" class="st7" d="M-117,227.8c0-1,0.8-1.3,0.8-1.3s0.8,0.3,0.8,1.3H-117L-117,227.8z"/>
		<path id="XMLID_139_" class="st7" d="M-117.7,226.6l-0.1,1.1h0.8c0-1,0.7-1.1,0.8-1.1c0,0,0.7,0.2,0.8,1.1h0.8l-0.1-1.1H-117.7
			L-117.7,226.6z"/>
		<path id="XMLID_138_" class="st7" d="M-117.9,227.7h3.1c0.1,0,0.1,0.1,0.1,0.1l0,0c0,0.1-0.1,0.1-0.1,0.1h-3.1
			c-0.1,0-0.1-0.1-0.1-0.1l0,0C-118,227.8-117.9,227.7-117.9,227.7L-117.9,227.7z"/>
		<path id="XMLID_137_" class="st7" d="M-116.7,227.7c0-0.6,0.4-0.8,0.4-0.8c0,0,0.4,0.2,0.4,0.8H-116.7L-116.7,227.7z"/>
		<path id="XMLID_136_" class="st7" d="M-117.8,226.2h3c0.1,0,0.1,0.1,0.1,0.1l0,0c0,0.1-0.1,0.1-0.1,0.1h-3c-0.1,0-0.1-0.1-0.1-0.1
			l0,0C-117.9,226.2-117.9,226.2-117.8,226.2L-117.8,226.2z"/>
		<path id="XMLID_135_" class="st7" d="M-117.7,226.4h2.9c0.1,0,0.1,0.1,0.1,0.1l0,0c0,0.1-0.1,0.1-0.1,0.1h-2.9
			c-0.1,0-0.1-0.1-0.1-0.1l0,0C-117.9,226.4-117.8,226.4-117.7,226.4L-117.7,226.4z"/>
		<path id="XMLID_134_" class="st7" d="M-116.8,224.4h0.3v0.1h0.2v-0.2h0.3v0.2h0.2v-0.2h0.3v0.4c0,0.1-0.1,0.1-0.1,0.1h-0.8
			c-0.1,0-0.1-0.1-0.1-0.1L-116.8,224.4L-116.8,224.4z"/>
		<polygon id="XMLID_133_" class="st7" points="-115.9,224.9 -115.9,226.1 -116.7,226.1 -116.6,224.9 		"/>
		<path id="XMLID_132_" class="st7" d="M-115.8,225h0.2v0.1h0.2v-0.2h0.3v0.2h0.2v-0.2h0.3v0.4c0,0.1-0.1,0.1-0.1,0.1h-0.8
			c-0.1,0-0.1-0.1-0.1-0.1L-115.8,225L-115.8,225z"/>
		<polygon id="XMLID_131_" class="st7" points="-115,225.5 -115,226.1 -115.7,226.1 -115.7,225.5 		"/>
		<path id="XMLID_130_" class="st7" d="M-117.8,225h0.2v0.1h0.2v-0.2h0.3v0.2h0.2v-0.2h0.3v0.4c0,0.1-0.1,0.1-0.1,0.1h-0.8
			c-0.1,0-0.1-0.1-0.1-0.1L-117.8,225L-117.8,225z"/>
		<polygon id="XMLID_129_" class="st7" points="-116.9,225.5 -116.9,226.1 -117.7,226.1 -117.6,225.5 		"/>
		<g id="XMLID_110_">
			<path id="XMLID_128_" class="st5" d="M-116.4,225.3v0.3h0.1v-0.3C-116.2,225.2-116.4,225.2-116.4,225.3z"/>
			<path id="XMLID_127_" class="st5" d="M-115.4,225.7v0.2h0.1v-0.2C-115.3,225.6-115.4,225.6-115.4,225.7z"/>
			<path id="XMLID_126_" class="st5" d="M-117.3,225.7v0.2h0.1v-0.2C-117.2,225.6-117.3,225.6-117.3,225.7z"/>
			<path id="XMLID_111_" class="st5" d="M-114.7,227.7l-0.1-1c0.1,0,0.1-0.1,0.1-0.2c0-0.1,0-0.1,0-0.1c0.1,0,0.1-0.1,0.1-0.2
				c0-0.1-0.1-0.2-0.1-0.2h-0.1v-0.6c0.1,0,0.1-0.1,0.1-0.1v-0.4h-0.3v0.2h-0.1v-0.2h-0.3v0.2h-0.1V225h-0.3v0.4
				c0,0.1,0.1,0.1,0.1,0.1v0.6h-0.1l-0.1-1.1l0,0c0.1,0,0.1-0.1,0.1-0.1v-0.4h-0.3v0.2h-0.1v-0.2h-0.3v0.2h-0.1v-0.1h-0.3v0.4
				c0,0.1,0.1,0.1,0.1,0.1l0,0l-0.1,1.1h-0.1v-0.6c0.1,0,0.1-0.1,0.1-0.1v-0.4h-0.3v0.2h-0.1v-0.2h-0.3v0.2h-0.1v-0.1h-0.3v0.4
				c0,0.1,0.1,0.1,0.1,0.1v0.6h-0.1c-0.1,0-0.1,0.1-0.1,0.2c0,0.1,0.1,0.1,0.1,0.2c0,0,0,0.1,0,0.1c0,0.1,0.1,0.2,0.1,0.2l-0.1,1
				l0,0c-0.1,0-0.2,0.1-0.2,0.2c0,0.1,0.1,0.2,0.2,0.2h3.1c0.1,0,0.2-0.1,0.2-0.2C-114.6,227.8-114.7,227.7-114.7,227.7z
				 M-114.9,227.7h-0.6c0-0.4-0.2-0.7-0.4-0.9c-0.1-0.1-0.1-0.1-0.2-0.1h1.1L-114.9,227.7z M-116.3,226.9L-116.3,226.9
				c-0.1,0-0.1,0.1-0.2,0.1c-0.1,0.1-0.3,0.3-0.3,0.7h-0.3c0-0.9,0.7-1,0.7-1s0.6,0.2,0.7,1h-0.3
				C-115.9,227.2-116.3,226.9-116.3,226.9z M-115.9,227.7h-0.8c0-0.4,0.3-0.6,0.4-0.7C-116.3,227-115.9,227.2-115.9,227.7z
				 M-115.8,225.4v-0.3h0.1v0.1h0.3V225h0.1v0.2h0.3V225h0.1v0.3c0,0.1,0,0.1-0.1,0.1H-115.8C-115.8,225.5-115.8,225.4-115.8,225.4z
				 M-115,226.1h-0.6v-0.6h0.6V226.1z M-116.7,224.9C-116.7,224.9-116.8,224.8-116.7,224.9l-0.1-0.4h0.1v0.1h0.3v-0.2h0.1v0.2h0.3
				v-0.2h0.1v0.3c0,0.1,0,0.1-0.1,0.1L-116.7,224.9L-116.7,224.9z M-115.9,226.1h-0.7l0.1-1.1h0.6L-115.9,226.1z M-117.7,225.4v-0.3
				h0.1v0.1h0.3V225h0.1v0.2h0.3V225h0.1v0.3c0,0.1,0,0.1-0.1,0.1H-117.7C-117.7,225.5-117.7,225.4-117.7,225.4z M-117,226.1h-0.6
				v-0.6h0.6V226.1z M-117.9,226.3C-117.9,226.2-117.9,226.2-117.9,226.3l3-0.1c0.1,0,0.1,0.1,0.1,0.1s0,0.1-0.1,0.1L-117.9,226.3
				L-117.9,226.3z M-117.8,226.5C-117.8,226.5-117.8,226.5-117.8,226.5l2.9-0.1c0.1,0,0.1,0.1,0.1,0.1c0,0.1,0,0.1-0.1,0.1l0,0h-2.8
				l0,0C-117.7,226.6-117.8,226.5-117.8,226.5z M-117.7,226.7h1.1c-0.1,0-0.1,0.1-0.2,0.1c-0.2,0.1-0.4,0.4-0.4,1h-0.6L-117.7,226.7
				z M-114.7,228h-3.1c-0.1,0-0.1-0.1-0.1-0.1c0-0.1,0.1-0.1,0.1-0.1h3.1c0.1,0,0.1,0.1,0.1,0.1C-114.7,227.9-114.7,228-114.7,228z"
				/>
		</g>
	</g>
	<g id="XMLID_77_">
		<path id="XMLID_108_" class="st7" d="M-113.8,236.6c-0.7-0.7-0.4-1.4-0.4-1.4s0.7-0.4,1.5,0.3L-113.8,236.6L-113.8,236.6z"/>
		<path id="XMLID_107_" class="st7" d="M-115.1,236.2l0.7,0.9l0.5-0.5c-0.7-0.7-0.3-1.3-0.3-1.3c0,0,0.6-0.4,1.3,0.3l0.5-0.5
			l-0.9-0.7L-115.1,236.2L-115.1,236.2z"/>
		<path id="XMLID_106_" class="st7" d="M-114.4,237.1l2.2-2.2c0.1-0.1,0.1-0.1,0.2,0l0,0c0.1,0.1,0.1,0.1,0,0.2l-2.2,2.2
			c-0.1,0.1-0.1,0.1-0.2,0l0,0C-114.4,237.3-114.4,237.1-114.4,237.1L-114.4,237.1z"/>
		<path id="XMLID_105_" class="st7" d="M-113.6,236.3c-0.4-0.4-0.3-0.8-0.3-0.8s0.4-0.2,0.8,0.3L-113.6,236.3L-113.6,236.3z"/>
		<path id="XMLID_104_" class="st7" d="M-115.5,235.9l2.1-2.1c0.1-0.1,0.1-0.1,0.2,0l0,0c0.1,0.1,0.1,0.1,0,0.2l-2.1,2.1
			c-0.1,0.1-0.1,0.1-0.2,0l0,0C-115.5,236-115.6,235.9-115.5,235.9L-115.5,235.9z"/>
		<path id="XMLID_103_" class="st7" d="M-115.3,236l2-2c0.1-0.1,0.1-0.1,0.2,0l0,0c0.1,0.1,0.1,0.1,0,0.2l-2,2
			c-0.1,0.1-0.1,0.1-0.2,0l0,0C-115.3,236.2-115.3,236-115.3,236L-115.3,236z"/>
		<path id="XMLID_102_" class="st7" d="M-116,234l0.1-0.1l0.1,0.1l0.1-0.1l-0.1-0.1l0.2-0.2l0.1,0.1l0.1-0.1l-0.1-0.1l0.2-0.2
			l0.3,0.3c0.1,0.1,0.1,0.1,0,0.1l-0.6,0.6c-0.1,0.1-0.1,0.1-0.1,0L-116,234L-116,234z"/>
		<polygon id="XMLID_101_" class="st7" points="-115.1,233.8 -114.2,234.6 -114.7,235.1 -115.5,234.3 		"/>
		<path id="XMLID_100_" class="st7" d="M-114.9,233.8l0.1-0.1l0.1,0.1l0.1-0.1l-0.1-0.1l0.1-0.1l0.1,0.1l0.1-0.1l-0.1-0.1l0.1-0.1
			l0.3,0.3c0.1,0.1,0.1,0.1,0,0.1l-0.6,0.6c-0.1,0.1-0.1,0.1-0.1,0L-114.9,233.8L-114.9,233.8z"/>
		<polygon id="XMLID_99_" class="st7" points="-114,233.4 -113.5,233.9 -114,234.5 -114.5,234 		"/>
		<path id="XMLID_98_" class="st7" d="M-116.3,235.1l0.1-0.1l0.1,0.1l0.1-0.1l-0.1-0.1l0.1-0.1l0.1,0.1l0.1-0.1l-0.1-0.1l0.1-0.1
			l0.3,0.3c0.1,0.1,0.1,0.1,0,0.1l-0.6,0.6c-0.1,0.1-0.1,0.1-0.1,0L-116.3,235.1L-116.3,235.1z"/>
		<polygon id="XMLID_97_" class="st7" points="-115.3,234.8 -114.9,235.3 -115.4,235.8 -115.8,235.4 		"/>
		<g id="XMLID_78_">
			<path id="XMLID_96_" class="st5" d="M-115.1,234.3l0.2,0.2l0.1-0.1l-0.2-0.2C-115.1,234.1-115.2,234.3-115.1,234.3z"/>
			<path id="XMLID_95_" class="st5" d="M-114.1,234l0.1,0.1l0.1-0.1l-0.1-0.1C-114.1,233.8-114.2,233.9-114.1,234z"/>
			<path id="XMLID_94_" class="st5" d="M-115.5,235.3l0.1,0.1l0.1-0.1l-0.1-0.1C-115.4,235.1-115.6,235.2-115.5,235.3z"/>
			<path id="XMLID_79_" class="st5" d="M-112.3,234.9l-0.8-0.6c0.1-0.1,0.1-0.1,0-0.3l-0.1-0.1c0-0.1,0-0.1-0.1-0.2
				c-0.1-0.1-0.2-0.1-0.3,0l-0.1,0.1l-0.4-0.4c0.1-0.1,0.1-0.1,0-0.2l-0.3-0.3l-0.3,0.2l0.1,0.1l-0.1,0.1l-0.1-0.1l-0.3,0.2l0.1,0.1
				l-0.1,0.1l-0.1-0.1l-0.2,0.2l0.3,0.3c0.1,0.1,0.1,0.1,0.2,0l0.4,0.4l-0.1,0.1l-0.8-0.8l0,0c0.1-0.1,0.1-0.1,0-0.2l-0.3-0.3
				l-0.3,0.3l0.1,0.1l-0.1,0.1l-0.1-0.1l-0.3,0.3l0.1,0.1l-0.1,0.1l-0.1-0.1l-0.3,0.2l0.3,0.3c0.1,0.1,0.1,0.1,0.2,0l0,0l0.8,0.8
				l-0.1,0.1l-0.4-0.4c0.1-0.1,0.1-0.1,0-0.2l-0.3-0.3l-0.3,0.3l0.1,0.1l-0.1,0.1l-0.1-0.1l-0.3,0.2l0.1,0.1l-0.1,0.1l-0.1-0.1
				l-0.2,0.2l0.3,0.3c0.1,0.1,0.1,0.1,0.2,0l0.4,0.4l-0.1,0.1c-0.1,0.1-0.1,0.2,0,0.3s0.1,0.1,0.2,0.1c0,0.1,0,0.1,0.1,0.1
				c0.1,0.1,0.2,0.1,0.3,0l0.6,0.8l0,0c-0.1,0.1-0.1,0.2,0,0.3s0.2,0.1,0.3,0l2.2-2.2C-112.1,235-112.1,234.9-112.3,234.9
				C-112.1,234.8-112.1,234.8-112.3,234.9z M-112.3,235l-0.4,0.4c-0.3-0.3-0.7-0.4-0.9-0.4c-0.1,0-0.2,0-0.3,0.1l0.8-0.8L-112.3,235
				z M-113.9,235.4L-113.9,235.4c0,0-0.1,0.1-0.1,0.2c0,0.2,0,0.4,0.3,0.7l-0.2,0.2c-0.6-0.6-0.3-1.2-0.3-1.2s0.6-0.3,1.2,0.3
				l-0.2,0.2C-113.4,235.3-113.9,235.4-113.9,235.4z M-113.1,235.7l-0.5,0.5c-0.3-0.3-0.3-0.6-0.2-0.8
				C-113.7,235.5-113.4,235.4-113.1,235.7z M-114.6,234l-0.3-0.3l0.1-0.1l0.1,0.1l0.2-0.2l-0.1-0.1l0.1-0.1l0.1,0.1l0.2-0.2
				l-0.1-0.1l0.1-0.1l0.3,0.3v0.1L-114.6,234C-114.6,234-114.6,234-114.6,234z M-113.6,233.9l-0.4,0.4l-0.4-0.4l0.4-0.4
				L-113.6,233.9z M-115.6,234.3L-115.6,234.3l-0.3-0.3l0.1-0.1l0.1,0.1l0.2-0.2l-0.1-0.1l0.1-0.1l0.1,0.1l0.2-0.2l-0.1-0.1l0.1-0.1
				l0.3,0.3v0.1L-115.6,234.3z M-114.2,234.6l-0.5,0.5l-0.8-0.8l0.4-0.4L-114.2,234.6z M-115.9,235.4l-0.3-0.3l0.1-0.1l0.1,0.1
				l0.2-0.2l-0.1-0.1l0.1-0.1l0.1,0.1l0.2-0.2l-0.1-0.1l0.1-0.1l0.3,0.3v0.1L-115.9,235.4C-115.9,235.4-115.9,235.4-115.9,235.4z
				 M-114.9,235.3l-0.4,0.4l-0.4-0.4l0.4-0.4L-114.9,235.3z M-115.4,236c0,0-0.1-0.1,0-0.1l2.1-2.1c0,0,0.1,0,0.1,0
				c0,0,0.1,0.1,0,0.1l-2.1,2.1C-115.4,236-115.4,236-115.4,236z M-115.3,236.2c-0.1,0-0.1-0.1,0-0.1l2-2c0,0,0.1,0,0.1,0
				c0,0,0.1,0.1,0,0.1l0,0l-2,2l0,0C-115.1,236.2-115.2,236.2-115.3,236.2z M-115,236.2l0.8-0.8c0,0.1-0.1,0.1-0.1,0.2
				c0,0.3,0,0.6,0.4,1l-0.4,0.4L-115,236.2z M-112,235.1l-2.2,2.2c0,0-0.1,0-0.1,0c-0.1-0.1-0.1-0.1,0-0.1l2.2-2.2c0,0,0.1,0,0.1,0
				C-112,235-112,235-112,235.1z"/>
		</g>
	</g>
	<g id="XMLID_45_">
		<path id="XMLID_76_" class="st7" d="M-103.3,235.5c0.7-0.7,1.4-0.4,1.4-0.4s0.4,0.7-0.3,1.5L-103.3,235.5L-103.3,235.5z"/>
		<path id="XMLID_75_" class="st7" d="M-102.9,234.2l-0.9,0.7l0.5,0.5c0.7-0.7,1.3-0.3,1.3-0.3c0,0,0.4,0.6-0.3,1.3l0.5,0.5l0.7-0.9
			L-102.9,234.2L-102.9,234.2z"/>
		<path id="XMLID_74_" class="st7" d="M-103.8,234.9l2.2,2.2c0.1,0.1,0.1,0.1,0,0.2l0,0c-0.1,0.1-0.1,0.1-0.2,0l-2.2-2.2
			c-0.1-0.1-0.1-0.1,0-0.2l0,0C-104,234.9-103.9,234.8-103.8,234.9L-103.8,234.9z"/>
		<path id="XMLID_73_" class="st7" d="M-103.1,235.7c0.4-0.4,0.8-0.3,0.8-0.3s0.2,0.4-0.3,0.8L-103.1,235.7L-103.1,235.7z"/>
		<path id="XMLID_72_" class="st7" d="M-102.6,233.8l2.1,2.1c0.1,0.1,0.1,0.1,0,0.2l0,0c-0.1,0.1-0.1,0.1-0.2,0l-2.1-2.1
			c-0.1-0.1-0.1-0.1,0-0.2l0,0C-102.8,233.8-102.7,233.8-102.6,233.8L-102.6,233.8z"/>
		<path id="XMLID_71_" class="st7" d="M-102.8,234l2,2c0.1,0.1,0.1,0.1,0,0.2l0,0c-0.1,0.1-0.1,0.1-0.2,0l-2-2
			c-0.1-0.1-0.1-0.1,0-0.2l0,0C-102.9,234-102.8,234-102.8,234L-102.8,234z"/>
		<path id="XMLID_70_" class="st7" d="M-100.8,233.3l0.1,0.1l-0.1,0.1l0.1,0.1l0.1-0.1l0.2,0.2l-0.1,0.1l0.1,0.1l0.1-0.1l0.2,0.2
			l-0.3,0.3c-0.1,0.1-0.1,0.1-0.1,0l-0.6-0.6c-0.1-0.1-0.1-0.1,0-0.1L-100.8,233.3L-100.8,233.3z"/>
		<polygon id="XMLID_69_" class="st7" points="-100.5,234.3 -101.3,235.1 -101.9,234.6 -101,233.8 		"/>
		<path id="XMLID_68_" class="st7" d="M-100.5,234.4l0.1,0.1l-0.1,0.1l0.1,0.1l0.1-0.1l0.1,0.1l-0.1,0.1l0.1,0.1l0.1-0.1l0.1,0.1
			l-0.3,0.3c-0.1,0.1-0.1,0.1-0.1,0l-0.6-0.6c-0.1-0.1-0.1-0.1,0-0.1L-100.5,234.4L-100.5,234.4z"/>
		<polygon id="XMLID_67_" class="st7" points="-100.2,235.4 -100.7,235.8 -101.2,235.3 -100.7,234.8 		"/>
		<path id="XMLID_66_" class="st7" d="M-101.9,233.1l0.1,0.1l-0.1,0.1l0.1,0.1l0.1-0.1l0.1,0.1l-0.1,0.1l0.1,0.1l0.1-0.1l0.1,0.1
			l-0.3,0.3c-0.1,0.1-0.1,0.1-0.1,0l-0.6-0.6c-0.1-0.1-0.1-0.1,0-0.1L-101.9,233.1L-101.9,233.1z"/>
		<polygon id="XMLID_65_" class="st7" points="-101.6,234 -102,234.5 -102.6,233.9 -102.1,233.4 		"/>
		<g id="XMLID_46_">
			<path id="XMLID_64_" class="st5" d="M-101.1,234.2l-0.2,0.2l0.1,0.1l0.2-0.2C-100.9,234.3-101,234.1-101.1,234.2z"/>
			<path id="XMLID_63_" class="st5" d="M-100.7,235.2l-0.1,0.1l0.1,0.1l0.1-0.1C-100.5,235.2-100.6,235.1-100.7,235.2z"/>
			<path id="XMLID_62_" class="st5" d="M-102.1,233.8l-0.1,0.1l0.1,0.1l0.1-0.1C-101.9,233.8-102,233.8-102.1,233.8z"/>
			<path id="XMLID_47_" class="st5" d="M-101.6,237.1l0.6-0.8c0.1,0.1,0.1,0.1,0.3,0l0.1-0.1c0.1,0,0.1,0,0.2-0.1
				c0.1-0.1,0.1-0.2,0-0.3l-0.1-0.1l0.4-0.4c0.1,0.1,0.1,0.1,0.2,0l0.3-0.3l-0.3-0.3l-0.1,0.1l-0.1-0.1l0.1-0.1l-0.2-0.3l-0.1,0.1
				l-0.1-0.1l0.1-0.1l-0.2-0.2l-0.3,0.3c-0.1,0.1-0.1,0.1,0,0.2l-0.4,0.4l-0.1-0.1l0.8-0.8l0,0c0.1,0.1,0.1,0.1,0.2,0l0.3-0.3
				l-0.3-0.3l-0.1,0.1l-0.1-0.1l0.1-0.1l-0.3-0.3l-0.1,0.1l-0.1-0.1l0.1-0.1l-0.2-0.3l-0.3,0.3c-0.1,0.1-0.1,0.1,0,0.2l0,0l-0.8,0.8
				l-0.1-0.1l0.4-0.4c0.1,0.1,0.1,0.1,0.2,0l0.3-0.3l-0.3-0.3l-0.1,0.1l-0.1-0.1l0.1-0.1l-0.2-0.3l-0.1,0.1l-0.1-0.1l0.1-0.1
				l-0.2-0.2l-0.3,0.3c-0.1,0.1-0.1,0.1,0,0.2l-0.4,0.4l-0.1-0.1c-0.1-0.1-0.2-0.1-0.3,0c-0.1,0.1-0.1,0.1-0.1,0.2
				c-0.1,0-0.1,0-0.1,0.1c-0.1,0.1-0.1,0.2,0,0.3l-0.8,0.6l0,0c-0.1-0.1-0.2-0.1-0.3,0c-0.1,0.1-0.1,0.2,0,0.3l2.2,2.2
				C-101.8,237.2-101.7,237.2-101.6,237.1C-101.6,237.3-101.6,237.1-101.6,237.1z M-101.7,237l-0.4-0.4c0.3-0.3,0.4-0.7,0.4-0.9
				c0-0.1,0-0.2-0.1-0.3l0.8,0.8L-101.7,237z M-102.2,235.4L-102.2,235.4c0,0-0.1-0.1-0.2-0.1c-0.2,0-0.4,0-0.7,0.3l-0.2-0.2
				c0.6-0.6,1.2-0.3,1.2-0.3s0.3,0.6-0.3,1.2l-0.2-0.2C-102,235.9-102.1,235.5-102.2,235.4z M-102.4,236.2l-0.5-0.5
				c0.3-0.3,0.6-0.3,0.8-0.2C-102.2,235.5-102.1,235.9-102.4,236.2z M-100.7,234.7l0.3-0.3l0.1,0.1l-0.1,0.1l0.2,0.2l0.1-0.1
				l0.1,0.1l-0.1,0.1l0.2,0.2l0.1-0.1l0.1,0.1l-0.3,0.3h-0.1L-100.7,234.7C-100.7,234.8-100.7,234.7-100.7,234.7z M-100.7,235.7
				l-0.4-0.4l0.4-0.4l0.4,0.4L-100.7,235.7z M-101,233.7L-101,233.7l0.3-0.3l0.1,0.1l-0.1,0.1l0.2,0.2l0.1-0.1l0.1,0.1l-0.1,0.1
				l0.2,0.2l0.1-0.1l0.1,0.1l-0.3,0.3h-0.1L-101,233.7z M-101.3,235l-0.5-0.5l0.8-0.8l0.4,0.4L-101.3,235z M-102.1,233.3l0.3-0.3
				l0.1,0.1l-0.1,0.1l0.2,0.2l0.1-0.1l0.1,0.1l-0.1,0.1l0.2,0.2l0.1-0.1l0.1,0.1l-0.3,0.3h-0.1L-102.1,233.3
				C-102.1,233.4-102.1,233.4-102.1,233.3z M-102,234.3l-0.4-0.4l0.4-0.4l0.4,0.4L-102,234.3z M-102.8,233.8c0,0,0.1-0.1,0.1,0
				l2.1,2.1c0,0,0,0.1,0,0.1c0,0-0.1,0.1-0.1,0l-2.1-2.1C-102.8,234-102.8,233.9-102.8,233.8z M-102.9,234.1c0,0,0.1-0.1,0.1,0l2,2
				c0,0,0,0.1,0,0.1c0,0-0.1,0.1-0.1,0l0,0l-2-2l0,0C-102.9,234.1-102.9,234.1-102.9,234.1z M-102.9,234.3l0.8,0.8
				c-0.1,0-0.1-0.1-0.2-0.1c-0.3,0-0.6,0-1,0.4l-0.4-0.4L-102.9,234.3z M-101.8,237.3l-2.2-2.2c0,0,0-0.1,0-0.1
				c0.1-0.1,0.1-0.1,0.1,0l2.2,2.2c0,0,0,0.1,0,0.1C-101.7,237.3-101.8,237.3-101.8,237.3z"/>
		</g>
	</g>
</g>
<path id="XMLID_1_" class="st1" d="M139.7,243.1v16.2c-2.1,1.5-4.4,2.7-6.8,3.4c-2.4,0.8-5,1.1-7.9,1.1c-3.4,0-6.5-0.5-9.2-1.6
	s-5.1-2.5-7-4.4c-1.9-1.9-3.4-4.2-4.4-6.8c-1-2.7-1.6-5.6-1.6-8.8c0-3.2,0.5-6.2,1.5-8.8s2.5-4.9,4.3-6.8c1.8-1.9,4.1-3.4,6.8-4.4
	c2.7-1,5.6-1.6,8.9-1.6c1.6,0,3.2,0.1,4.6,0.4c1.5,0.3,2.7,0.6,4,1.1c1.2,0.4,2.3,1,3.4,1.6c1,0.6,2,1.4,2.9,2.2l-1.6,2.6
	c-0.3,0.4-0.6,0.6-1,0.8c-0.4,0.1-0.8,0-1.3-0.3c-0.4-0.3-1-0.6-1.6-1c-0.6-0.4-1.3-0.8-2.2-1.1c-0.9-0.4-1.9-0.7-3.1-1
	s-2.6-0.4-4.2-0.4c-2.3,0-4.5,0.4-6.5,1.1c-1.9,0.8-3.6,1.9-4.9,3.3c-1.3,1.5-2.4,3.2-3.1,5.3c-0.7,2-1.1,4.4-1.1,6.9
	c0,2.7,0.4,5,1.1,7.1s1.8,3.9,3.2,5.3c1.4,1.5,3.1,2.6,5.1,3.4c2,0.8,4.2,1.1,6.7,1.1c2,0,3.7-0.2,5.2-0.6s3-1.1,4.4-1.8v-9.3h-6.6
	c-0.4,0-0.7-0.1-0.9-0.3c-0.3-0.2-0.3-0.5-0.3-0.8V243L139.7,243.1L139.7,243.1z M187.4,242.3c0,3.2-0.5,6.1-1.5,8.7
	c-1,2.7-2.4,4.9-4.2,6.8s-4,3.4-6.6,4.4c-2.5,1.1-5.4,1.6-8.5,1.6c-3.1,0-6-0.5-8.5-1.6s-4.8-2.5-6.6-4.4s-3.2-4.2-4.2-6.8
	c-1-2.7-1.5-5.5-1.5-8.7c0-3.2,0.5-6.1,1.5-8.7c1-2.7,2.4-4.9,4.2-6.8s4-3.4,6.6-4.4c2.5-1.1,5.4-1.6,8.5-1.6c3.1,0,6,0.5,8.5,1.6
	c2.5,1.1,4.8,2.5,6.6,4.4c1.8,1.9,3.2,4.2,4.2,6.8C186.9,236.2,187.4,239.1,187.4,242.3z M181.6,242.3c0-2.6-0.4-4.9-1.1-7
	c-0.7-2.1-1.7-3.8-3-5.2c-1.3-1.4-2.9-2.5-4.7-3.3c-1.8-0.8-3.9-1.1-6.2-1.1c-2.3,0-4.3,0.4-6.2,1.1c-1.8,0.8-3.4,1.8-4.8,3.3
	c-1.3,1.4-2.3,3.2-3,5.2c-0.7,2-1.1,4.4-1.1,7s0.4,4.9,1.1,7c0.7,2,1.7,3.8,3,5.2c1.3,1.4,2.9,2.5,4.8,3.3c1.8,0.8,3.9,1.1,6.2,1.1
	c2.3,0,4.3-0.4,6.2-1.1c1.8-0.8,3.4-1.8,4.7-3.3c1.3-1.4,2.3-3.2,3-5.2C181.2,247.1,181.6,244.9,181.6,242.3z M228.7,221.1
	l-17.2,42.2h-5.1l-17.2-42.2h4.6c0.5,0,1,0.1,1.3,0.4c0.3,0.3,0.6,0.6,0.7,1l11.9,29.7c0.3,0.7,0.5,1.4,0.8,2.2
	c0.3,0.8,0.4,1.6,0.6,2.5c0.2-0.9,0.4-1.7,0.6-2.5c0.2-0.8,0.4-1.5,0.7-2.2l11.9-29.7c0.1-0.3,0.3-0.6,0.7-1
	c0.3-0.3,0.8-0.4,1.3-0.4L228.7,221.1L228.7,221.1z M260.3,258.7v4.6h-26v-42.2h26v4.6H240v14h16.4v4.5H240v14.4H260.3z
	 M299.5,263.3h-5.1c-1,0-1.8-0.4-2.3-1.2l-11-15.1c-0.3-0.4-0.7-0.8-1.1-1c-0.4-0.2-1-0.3-1.8-0.3H274v17.6h-5.7v-42.2h11.9
	c2.7,0,4.9,0.3,6.9,0.8c2,0.6,3.6,1.3,4.8,2.3c1.3,1,2.2,2.3,2.8,3.7c0.6,1.5,0.9,3,0.9,4.8c0,1.5-0.3,2.9-0.7,4.2
	c-0.4,1.3-1.1,2.5-2,3.5c-0.9,1-2,1.9-3.3,2.7c-1.3,0.7-2.7,1.3-4.4,1.6c0.7,0.4,1.3,1,1.9,1.8L299.5,263.3z M280,241.6
	c1.6,0,3.1-0.2,4.4-0.6c1.3-0.4,2.3-1,3.2-1.7c0.8-0.8,1.5-1.6,1.9-2.7c0.4-1,0.6-2.2,0.6-3.4c0-2.5-0.8-4.4-2.5-5.7
	c-1.6-1.3-4.1-1.9-7.4-1.9h-6.2v15.9L280,241.6L280,241.6z M339.4,221.1v42.2h-2.9c-0.4,0-0.8-0.1-1.1-0.3c-0.3-0.1-0.6-0.4-0.9-0.8
	l-24.4-31.8c0.1,0.5,0.1,1,0.1,1.5c0,0.4,0,0.9,0,1.3v30.1h-5v-42.2h2.9c0.3,0,0.4,0,0.6,0.1c0.2,0,0.3,0.1,0.4,0.1
	c0.1,0.1,0.3,0.2,0.4,0.3c0.1,0.1,0.3,0.3,0.4,0.5l24.4,31.8c-0.1-0.5-0.1-1-0.1-1.5c0-0.5-0.1-1-0.1-1.4v-29.9L339.4,221.1
	L339.4,221.1z M389.2,242.3c0,3.2-0.5,6.1-1.5,8.7c-1,2.7-2.4,4.9-4.2,6.8s-4,3.4-6.6,4.4c-2.5,1.1-5.4,1.6-8.5,1.6s-6-0.5-8.5-1.6
	s-4.8-2.5-6.6-4.4c-1.8-1.9-3.2-4.2-4.2-6.8c-1-2.7-1.5-5.5-1.5-8.7c0-3.2,0.5-6.1,1.5-8.7c1-2.7,2.4-4.9,4.2-6.8
	c1.8-1.9,4-3.4,6.6-4.4c2.5-1.1,5.4-1.6,8.5-1.6s6,0.5,8.5,1.6c2.5,1.1,4.8,2.5,6.6,4.4c1.8,1.9,3.2,4.2,4.2,6.8
	C388.7,236.2,389.2,239.1,389.2,242.3z M383.3,242.3c0-2.6-0.4-4.9-1.1-7c-0.7-2.1-1.7-3.8-3-5.2c-1.3-1.4-2.9-2.5-4.7-3.3
	c-1.8-0.8-3.9-1.1-6.2-1.1c-2.3,0-4.3,0.4-6.2,1.1c-1.8,0.8-3.4,1.8-4.8,3.3c-1.3,1.4-2.3,3.2-3,5.2c-0.7,2-1.1,4.4-1.1,7
	s0.4,4.9,1.1,7c0.7,2,1.7,3.8,3,5.2c1.3,1.4,2.9,2.5,4.8,3.3c1.8,0.8,3.9,1.1,6.2,1.1c2.3,0,4.3-0.4,6.2-1.1
	c1.8-0.8,3.4-1.8,4.7-3.3c1.3-1.4,2.3-3.2,3-5.2C383,247.1,383.3,244.9,383.3,242.3z M139.3,301.2c0,3.2-0.5,6-1.5,8.6
	s-2.4,4.8-4.2,6.7c-1.8,1.8-4,3.3-6.6,4.3c-2.5,1-5.4,1.5-8.5,1.5h-15.7v-42.2h15.7c3.1,0,6,0.5,8.5,1.5s4.8,2.5,6.6,4.3
	c1.8,1.8,3.2,4.1,4.2,6.7C138.8,295.1,139.3,298,139.3,301.2z M133.4,301.2c0-2.6-0.4-4.9-1.1-7c-0.7-2-1.7-3.7-3-5.2
	c-1.3-1.4-2.9-2.5-4.7-3.2c-1.8-0.8-3.9-1.1-6.2-1.1h-10v33h10c2.3,0,4.3-0.4,6.2-1.1c1.8-0.8,3.4-1.8,4.7-3.2
	c1.3-1.4,2.3-3.1,3-5.1C133.1,306.1,133.4,303.8,133.4,301.2z M186.5,301.2c0,3.2-0.5,6.1-1.5,8.7c-1,2.7-2.4,4.9-4.2,6.8
	s-4,3.4-6.6,4.4c-2.5,1.1-5.4,1.6-8.5,1.6c-3.1,0-6-0.5-8.5-1.6c-2.5-1.1-4.8-2.5-6.6-4.4s-3.2-4.2-4.2-6.8c-1-2.7-1.5-5.5-1.5-8.7
	s0.5-6.1,1.5-8.7c1-2.7,2.4-4.9,4.2-6.8s4-3.4,6.6-4.4c2.5-1.1,5.4-1.6,8.5-1.6c3.1,0,6,0.5,8.5,1.6c2.5,1.1,4.8,2.5,6.6,4.4
	s3.2,4.2,4.2,6.8C186,295.1,186.5,298,186.5,301.2z M180.7,301.2c0-2.6-0.4-4.9-1.1-7c-0.7-2.1-1.7-3.8-3-5.2s-2.9-2.5-4.7-3.3
	c-1.8-0.8-3.9-1.1-6.2-1.1c-2.3,0-4.3,0.4-6.2,1.1c-1.8,0.8-3.4,1.8-4.8,3.3c-1.3,1.4-2.3,3.2-3,5.2c-0.7,2.1-1.1,4.4-1.1,7
	s0.4,4.9,1.1,7c0.7,2,1.7,3.8,3,5.2c1.3,1.4,2.9,2.5,4.8,3.3c1.8,0.8,3.9,1.1,6.2,1.1s4.3-0.4,6.2-1.1c1.8-0.8,3.4-1.8,4.7-3.3
	c1.3-1.4,2.3-3.2,3-5.2C180.3,306.1,180.7,303.8,180.7,301.2z M216.3,286.7c-0.2,0.3-0.4,0.5-0.6,0.6c-0.2,0.1-0.4,0.2-0.8,0.2
	c-0.3,0-0.7-0.2-1.2-0.5c-0.4-0.3-1-0.7-1.7-1.1c-0.7-0.4-1.5-0.8-2.5-1.1s-2.1-0.5-3.5-0.5c-1.3,0-2.4,0.2-3.4,0.5
	c-1,0.3-1.8,0.8-2.5,1.4c-0.6,0.6-1.1,1.3-1.5,2.1c-0.3,0.8-0.5,1.6-0.5,2.6c0,1.2,0.3,2.2,0.9,2.9c0.6,0.8,1.3,1.5,2.3,2
	c1,0.6,2,1,3.2,1.5c1.2,0.4,2.5,0.8,3.7,1.3s2.5,0.9,3.7,1.5c1.2,0.6,2.3,1.2,3.2,2c1,0.8,1.7,1.8,2.3,3c0.6,1.2,0.9,2.7,0.9,4.4
	c0,1.8-0.3,3.6-1,5.2c-0.6,1.6-1.5,3-2.7,4.2c-1.2,1.2-2.7,2.2-4.4,2.9c-1.8,0.7-3.7,1-6,1c-2.7,0-5.3-0.5-7.5-1.5
	c-2.2-1-4.1-2.3-5.8-4l1.6-2.7c0.1-0.2,0.3-0.4,0.6-0.6c0.3-0.1,0.5-0.2,0.8-0.2c0.3,0,0.6,0.1,0.9,0.3s0.7,0.4,1.1,0.8
	c0.4,0.3,0.9,0.6,1.4,1s1.1,0.7,1.8,1c0.7,0.3,1.5,0.6,2.3,0.8c0.9,0.2,1.8,0.3,2.9,0.3c1.3,0,2.5-0.2,3.6-0.6
	c1.1-0.4,2-0.9,2.7-1.6c0.8-0.7,1.3-1.5,1.7-2.4c0.4-1,0.6-2,0.6-3.2c0-1.3-0.3-2.3-0.9-3.1c-0.6-0.8-1.3-1.5-2.3-2
	c-1-0.6-2-1-3.2-1.4c-1.2-0.4-2.5-0.8-3.7-1.2c-1.3-0.4-2.5-0.9-3.7-1.4c-1.2-0.5-2.3-1.2-3.2-2.1c-1-0.8-1.7-1.9-2.3-3.2
	c-0.6-1.3-0.9-2.9-0.9-4.7c0-1.5,0.3-2.9,0.9-4.3s1.4-2.6,2.5-3.7s2.5-2,4.1-2.6c1.6-0.6,3.5-1,5.6-1c2.3,0,4.5,0.4,6.4,1.1
	c1.9,0.8,3.6,1.8,5.1,3.2L216.3,286.7z M278.2,322.2h-6.8c-0.8,0-1.4-0.2-1.8-0.6c-0.5-0.4-0.8-0.8-1.1-1.4l-2.9-8.2h-17l-2.9,8.2
	c-0.2,0.5-0.6,1-1,1.3c-0.5,0.4-1.1,0.6-1.8,0.6H236l16.7-42.7h9.1L278.2,322.2z M263.3,306l-4.6-13.1c-0.3-0.7-0.6-1.5-0.9-2.4
	c-0.3-1-0.6-1.9-0.9-3c-0.3,1.1-0.6,2.1-0.9,3c-0.3,1-0.6,1.7-0.9,2.4l-4.6,13C250.6,306,263.3,306,263.3,306z M314.6,316
	c-1.5,2-3.4,3.5-5.6,4.6c-2.2,1.1-4.8,1.8-7.8,2l-0.4,1.3c1,0.2,1.7,0.5,2.3,0.8c0.6,0.3,1.1,0.6,1.5,1c0.4,0.4,0.6,0.8,0.8,1.3
	c0.2,0.4,0.3,1,0.3,1.4c0,0.7-0.2,1.3-0.6,1.8c-0.4,0.6-0.9,1-1.5,1.4c-0.6,0.4-1.5,0.6-2.3,0.9c-1,0.2-2,0.3-3,0.3
	c-0.8,0-1.6-0.1-2.3-0.1c-0.7-0.1-1.4-0.3-2.1-0.4l0.8-2.5c0.1-0.4,0.4-0.7,0.9-0.7c0.3,0,0.6,0.1,0.9,0.2c0.3,0.1,0.7,0.2,1.2,0.2
	c0.6,0,1-0.1,1.3-0.3c0.3-0.2,0.4-0.4,0.4-0.8c0-0.5-0.3-0.8-1-1.1c-0.6-0.3-1.7-0.4-3.2-0.6l1.3-3.9c-2.9-0.3-5.4-1-7.7-2.2
	c-2.3-1.2-4.2-2.7-5.8-4.6c-1.6-1.9-2.8-4.1-3.6-6.7c-0.8-2.5-1.3-5.3-1.3-8.2c0-2.1,0.3-4.1,0.7-6c0.4-1.9,1.1-3.7,2-5.3
	c0.9-1.6,2-3,3.2-4.4c1.3-1.3,2.7-2.4,4.2-3.3c1.6-0.9,3.3-1.6,5.1-2.1c1.8-0.5,3.8-0.7,6-0.7c1.6,0,3,0.1,4.4,0.4
	c1.4,0.3,2.7,0.6,3.9,1.1c1.2,0.5,2.3,1.1,3.4,1.8c1,0.7,2,1.5,2.8,2.3l-3,4.1c-0.2,0.3-0.4,0.5-0.7,0.7c-0.3,0.2-0.6,0.3-1.1,0.3
	c-0.4,0-1-0.2-1.5-0.5c-0.5-0.3-1.1-0.7-1.8-1.1c-0.7-0.4-1.6-0.8-2.6-1.1c-1.1-0.3-2.4-0.5-4-0.5c-1.8,0-3.4,0.3-4.9,1
	s-2.8,1.6-3.9,2.8c-1.1,1.2-1.9,2.7-2.5,4.5s-0.9,3.8-0.9,6.1c0,2.3,0.3,4.4,1,6.2c0.6,1.8,1.5,3.3,2.6,4.6c1.1,1.2,2.4,2.2,3.9,2.8
	c1.5,0.6,3,1,4.8,1c1,0,1.9-0.1,2.7-0.1c0.8-0.1,1.6-0.3,2.3-0.5c0.7-0.3,1.3-0.6,2-0.9c0.6-0.4,1.3-0.8,1.8-1.4
	c0.2-0.2,0.4-0.3,0.7-0.4c0.3-0.1,0.5-0.2,0.8-0.2c0.5,0,0.9,0.2,1.2,0.5L314.6,316z M360,300.9c0,3.1-0.5,6-1.6,8.7
	c-1.1,2.7-2.5,4.9-4.4,6.9c-1.9,2-4.2,3.5-6.9,4.6c-2.7,1.1-5.6,1.6-8.9,1.6s-6.3-0.6-8.9-1.6c-2.7-1.1-5-2.7-6.9-4.6
	c-1.9-2-3.4-4.2-4.4-6.9c-1.1-2.7-1.6-5.6-1.6-8.7c0-3.1,0.5-6,1.6-8.7c1.1-2.7,2.5-4.9,4.4-6.9s4.2-3.5,6.9-4.6
	c2.7-1.1,5.6-1.6,8.9-1.6s6.3,0.6,8.9,1.6c2.7,1.1,5,2.7,6.9,4.6c1.9,2,3.4,4.2,4.4,6.9C359.5,294.9,360,297.8,360,300.9z
	 M350.9,300.9c0-2.2-0.3-4.2-0.9-6c-0.6-1.8-1.5-3.3-2.5-4.6c-1.1-1.3-2.5-2.2-4.1-2.9c-1.6-0.6-3.4-1-5.4-1s-3.8,0.3-5.4,1
	c-1.6,0.6-2.9,1.6-4.1,2.9c-1.1,1.3-2,2.7-2.5,4.6c-0.6,1.8-0.9,3.8-0.9,6c0,2.3,0.3,4.2,0.9,6c0.6,1.8,1.5,3.3,2.5,4.5
	c1.1,1.2,2.5,2.2,4.1,2.9c1.6,0.6,3.4,1,5.4,1s3.8-0.3,5.4-1c1.6-0.6,2.9-1.6,4.1-2.9c1.1-1.3,2-2.7,2.5-4.5
	C350.7,305.1,350.9,303.2,350.9,300.9z M400.5,322.2h-8c-1.5,0-2.6-0.6-3.2-1.7l-8.1-13.1c-0.3-0.5-0.7-0.9-1.1-1.1
	c-0.4-0.3-1-0.4-1.8-0.4h-3v16.3h-8.8v-42.7H380c3,0,5.5,0.3,7.7,1c2.1,0.6,3.9,1.5,5.2,2.6c1.3,1.1,2.3,2.4,3,3.9
	c0.6,1.5,1,3.2,1,5c0,1.4-0.2,2.7-0.6,4c-0.4,1.3-1,2.4-1.8,3.5c-0.8,1-1.7,2-2.9,2.8c-1.1,0.8-2.4,1.5-3.8,2
	c0.6,0.3,1.1,0.7,1.6,1.1c0.5,0.4,1,1,1.3,1.6L400.5,322.2z M379.8,299.7c1.5,0,2.7-0.2,3.7-0.6c1-0.4,1.9-0.9,2.5-1.5
	c0.7-0.6,1.1-1.4,1.5-2.3c0.3-0.9,0.4-1.8,0.4-2.9c0-2-0.7-3.6-2-4.7c-1.3-1.1-3.4-1.6-6.2-1.6h-4.6v13.5L379.8,299.7L379.8,299.7z
	 M413.6,286.5v11h14.3v6.7h-14.3v11.2H432v6.9h-27.2v-42.7H432v6.9L413.6,286.5L413.6,286.5z M461.7,287.7c-0.3,0.4-0.6,0.8-0.8,1
	c-0.3,0.2-0.6,0.3-1.1,0.3c-0.4,0-0.9-0.1-1.4-0.4c-0.5-0.3-1.1-0.6-1.8-1c-0.7-0.4-1.5-0.7-2.3-1c-0.9-0.3-1.9-0.4-3-0.4
	c-2,0-3.6,0.4-4.6,1.4c-1,0.9-1.5,2.1-1.5,3.6c0,1,0.3,1.7,0.8,2.3s1.3,1.1,2.2,1.6c1,0.4,2,0.8,3.1,1.2c1.1,0.4,2.3,0.8,3.6,1.1
	c1.2,0.4,2.4,0.9,3.6,1.5s2.2,1.3,3.1,2.2c0.9,0.9,1.6,1.9,2.2,3.2s0.8,2.8,0.8,4.6c0,2-0.3,3.7-1,5.5c-0.7,1.7-1.6,3.2-2.9,4.4
	c-1.3,1.3-2.9,2.3-4.8,3c-1.9,0.7-4,1.1-6.4,1.1c-1.3,0-2.7-0.1-4.1-0.4c-1.3-0.3-2.7-0.6-3.9-1.1c-1.3-0.5-2.4-1.1-3.5-1.8
	c-1.1-0.7-2.1-1.5-2.9-2.3l2.6-4.2c0.2-0.3,0.5-0.6,0.8-0.8c0.4-0.2,0.7-0.3,1.1-0.3c0.5,0,1.1,0.2,1.6,0.6s1.3,0.8,2,1.3
	c0.8,0.4,1.6,0.9,2.7,1.3s2.2,0.6,3.6,0.6c2.1,0,3.7-0.4,4.8-1.4c1.1-1,1.7-2.3,1.7-4.2c0-1.1-0.3-2-0.8-2.6
	c-0.6-0.7-1.3-1.2-2.2-1.6c-0.9-0.4-1.9-0.8-3.1-1.1c-1.2-0.3-2.3-0.7-3.6-1.1c-1.2-0.4-2.4-0.9-3.6-1.4c-1.1-0.6-2.2-1.3-3.1-2.2
	c-0.9-0.9-1.6-2-2.2-3.4c-0.6-1.3-0.8-3-0.8-4.9c0-1.6,0.3-3.1,1-4.6c0.6-1.5,1.5-2.8,2.8-4c1.2-1.1,2.7-2.1,4.5-2.8
	s3.8-1.1,6.1-1.1c2.6,0,4.9,0.4,7.2,1.2c2.2,0.8,4.1,1.9,5.6,3.3L461.7,287.7z"/>
</svg>
