<?xml version="1.0" encoding="utf-8"?>
<!-- Generator: Adobe Illustrator 24.0.2, SVG Export Plug-In . SVG Version: 6.00 Build 0)  -->
<svg version="1.1" id="layer" xmlns="http://www.w3.org/2000/svg" xmlns:xlink="http://www.w3.org/1999/xlink" x="0px" y="0px"
	 viewBox="0 0 652 180" style="enable-background:new 0 0 652 180;" xml:space="preserve">
<style type="text/css">
	.st0{fill:#FFFFFF;}
	.st1{fill:#232F5D;}
	.st2{fill:#FFCD00;}
	.st3{fill:#6A4024;}
	.st4{fill:#E1261D;}
	.st5{fill:#1D1D1B;}
	.st6{fill:#1F3664;}
	.st7{fill:#FDE01D;}
</style>
<rect id="XMLID_533_" x="19" y="19.7" class="st0" width="211.1" height="141.7"/>
<path id="XMLID_530_" class="st1" d="M228.5,21.1v138.8H20.4V21.1H228.5 M231.5,18.1h-2.9H20.5h-2.9V21v138.8v2.9h2.9h208.1h2.9
	v-2.9V21.1V18.1L231.5,18.1z"/>
<rect id="XMLID_529_" x="20.4" y="21.1" class="st1" width="83.3" height="138.8"/>
<g id="XMLID_524_">
	<polygon id="XMLID_528_" class="st2" points="105.2,56.6 107.5,54.9 104.6,54.9 103.7,52.1 102.8,54.9 99.8,54.9 102.2,56.6 
		101.3,59.4 103.7,57.6 106.1,59.4 	"/>
	<path id="XMLID_525_" class="st3" d="M106.2,59.6l-2.5-1.8l-2.5,1.8l1-2.9l-2.5-1.8h3.1l1-2.9l1,2.9h3.1l-2.5,1.8L106.2,59.6z
		 M100,54.9l2.3,1.6l-0.9,2.7l2.3-1.6l2.3,1.6l-0.9-2.7l2.3-1.6h-2.8l-0.9-2.7l-0.9,2.7H100z"/>
</g>
<g id="XMLID_519_">
	<polygon id="XMLID_523_" class="st2" points="64,78.3 66.8,77.4 64,76.5 63.9,73.6 62.2,76 59.4,75.1 61.2,77.4 59.5,79.8 
		62.3,78.9 64.1,81.2 	"/>
	<path id="XMLID_520_" class="st3" d="M64.1,81.4l-1.8-2.5l-2.9,1l1.8-2.5l-1.9-2.5l3,0.9l1.8-2.5l0.1,3.1l2.9,0.9l-2.9,1L64.1,81.4
		z M62.4,78.8L64,81l-0.1-2.8l2.7-0.9l-2.7-0.8l-0.1-2.8L62.2,76l-2.7-0.8l1.7,2.2l-1.6,2.3L62.4,78.8z"/>
</g>
<g id="XMLID_514_">
	<polygon id="XMLID_518_" class="st2" points="71.7,69.7 74.7,69.4 72.2,67.9 72.8,65.1 70.6,67 68.1,65.5 69.2,68.2 67,70.1 
		70,69.8 71.1,72.6 	"/>
	<path id="XMLID_515_" class="st3" d="M71.1,72.7l-1.2-2.9l-3.1,0.3l2.3-2l-1.2-2.9l2.7,1.6l2.3-2l-0.7,3l2.7,1.6l-3,0.3L71.1,72.7z
		 M70,69.8l1.1,2.5l0.6-2.7h0.1l2.7-0.3l-2.4-1.4v-0.1l0.6-2.7l-2.1,1.8l-2.4-1.5l1.1,2.5h-0.1l-2.1,1.8L70,69.8z"/>
</g>
<g id="XMLID_509_">
	<polygon id="XMLID_513_" class="st2" points="81.3,63.2 84.2,63.5 82.1,61.5 83.5,58.9 80.8,60.2 78.7,58.2 79.2,61.1 76.6,62.4 
		79.5,62.9 80,65.8 	"/>
	<path id="XMLID_510_" class="st3" d="M80,66l-0.5-3l-3-0.4l2.7-1.4l-0.5-3l2.2,2.2l2.7-1.4l-1.4,2.8l2.2,2.2l-3-0.4L80,66z
		 M76.8,62.4l2.8,0.4l0.4,2.7l1.3-2.5l2.7,0.4l-2-2l1.3-2.5l-2.5,1.3l-2-2l0.4,2.7L76.8,62.4z"/>
</g>
<g id="XMLID_504_">
	<polygon id="XMLID_508_" class="st2" points="93.4,57.6 95.3,55.4 92.4,56.1 90.8,53.7 90.6,56.6 87.8,57.3 90.5,58.3 90.3,61.3 
		92.2,59 94.9,60.2 	"/>
	<path id="XMLID_505_" class="st3" d="M90.2,61.5l0.3-3.1l-2.9-1.1l3-0.8l0.3-3.1l1.6,2.6l3-0.8l-2,2.3l1.6,2.6L92.2,59L90.2,61.5z
		 M88,57.3l2.6,1.1l-0.2,2.8l1.8-2.2l2.6,1.1l-1.5-2.3l1.8-2.2l-2.7,0.6l-1.5-2.4l-0.2,2.8h-0.1L88,57.3z"/>
</g>
<g id="XMLID_499_">
	<polygon id="XMLID_503_" class="st2" points="116.9,58.4 119.6,57.3 116.7,56.6 116.5,53.7 115,56.1 112.1,55.4 114,57.6 
		112.5,60.2 115.2,59 117.1,61.3 	"/>
	<path id="XMLID_500_" class="st3" d="M117.2,61.5l-2-2.3l-2.9,1.1l1.6-2.6l-2-2.3l3,0.8l1.6-2.6l0.3,3.1l3,0.8l-2.9,1.1L117.2,61.5
		z M115.2,59l1.8,2.2l-0.2-2.8l2.6-1.1l-2.7-0.7l-0.2-2.8l-1.5,2.3l-2.7-0.7l1.8,2.2l-1.5,2.3L115.2,59z"/>
</g>
<g id="XMLID_494_">
	<polygon id="XMLID_498_" class="st2" points="127.8,62.9 130.7,62.5 128.1,61.1 128.6,58.2 126.5,60.2 123.9,58.9 125.2,61.5 
		123.1,63.6 126,63.2 127.4,65.8 	"/>
	<path id="XMLID_495_" class="st3" d="M127.4,66l-1.4-2.7l-3,0.4l2.2-2.2l-1.4-2.8l2.7,1.5l2.2-2.2l-0.5,3l2.7,1.5l-3,0.4L127.4,66z
		 M126.1,63.1L126.1,63.1l1.3,2.5l0.4-2.7l2.8-0.4l-2.5-1.3v-0.1l0.4-2.7l-2,2h-0.1l-2.4-1.3l1.3,2.5l-2,2L126.1,63.1z"/>
</g>
<g id="XMLID_489_">
	<polygon id="XMLID_493_" class="st2" points="137.4,69.9 140.4,70.1 138.2,68.2 139.3,65.5 136.8,67 134.5,65.1 135.2,67.9 
		132.7,69.4 135.6,69.7 136.2,72.6 	"/>
	<path id="XMLID_490_" class="st3" d="M136.2,72.7l-0.7-3l-3-0.3l2.7-1.6l-0.7-3l2.3,2l2.7-1.6l-1.2,2.9l2.3,2l-3.1-0.3L136.2,72.7z
		 M132.9,69.4l2.8,0.3l0.6,2.7l1.1-2.5h0.1l2.7,0.3l-2.1-1.8v-0.1l1.1-2.5l-2.4,1.5h-0.1l-2.1-1.8l0.6,2.7h-0.1L132.9,69.4z"/>
</g>
<g id="XMLID_484_">
	<polygon id="XMLID_488_" class="st2" points="146.1,77.4 147.9,75.1 145.1,76 143.4,73.6 143.4,76.5 140.6,77.4 143.4,78.3 
		143.3,81.2 145.1,78.9 147.9,79.9 	"/>
	<path id="XMLID_485_" class="st3" d="M143.2,81.4l0.1-3.1l-2.9-1l3-0.9l0.1-3.1l1.8,2.5l3-0.9l-1.8,2.5l1.8,2.5l-2.9-1L143.2,81.4z
		 M140.8,77.4l2.7,0.9v0.1l-0.1,2.7l1.6-2.2l2.7,0.9l-1.6-2.3l1.7-2.2l-2.7,0.8V76l-1.6-2.3l-0.1,2.8h-0.1L140.8,77.4z"/>
</g>
<g id="XMLID_320_">
	<g id="XMLID_479_">
		<path id="XMLID_483_" class="st2" d="M100.5,94.4c1.5-4.1,4.8-4.3,6.7-6.6c0.8-0.9,2.5-0.5,3.7-0.8s1.6,0.3,1.7,1.4
			c2.2-0.1,2.2,0.9,2,1.8c-0.1-0.4-1.1-0.4-1.6-0.4c0,0.8-0.6,0.8-1.5,1.1c-0.7,0.2-0.8,1.3-0.8,2.1c2,0.1,3.7-1.7,5.5-3.6
			s4.7-3.6,9.5-3.3c5.8,0.3,17.2,0.5,21-0.6c3.9-1.1,4.7,0.4,1.9,2.2c0.3,0.7-0.4,2-1.8,2.5c0.6,0.8-0.4,1.9-2.4,2.7
			c0.1,1.3-1.9,2.7-4.5,2.9c0.6,1.6-3.2,3-7.4,2.7c0.4,0.6-1,1.7-2.6,1.7c0.6,0.6-0.9,1.4-1.9,1.5c0.6,0.6-2.4,1.5-4,1.1
			c0.1,0.6-1.7,1-2.9,0.7c-0.1,0.5-1.4,0.7-2.2,0.2c-0.2,0.5-1.1,0.6-1.9,0.1c-0.5,0.5-1.4,0.4-1.9-0.1c-0.3,0.6-1.1,0.8-1.7,0.1
			c-0.4,0.6-1.1,0.4-1.6-0.2c-0.1,0.6-1.8,1.5-2.7-1.9c-0.3,1.6-0.7,2.5-1.1,3.2c0.3,1,0.5,3.1,0.4,5c0.3,1.9,1.1,4.6,1.6,6.3
			c0.5,1.7-0.3,1.6-0.8,1.3c0.1,0.3,0.1,0.5,0,0.9c-0.2-0.3-0.6-0.6-1.1-0.6c0,0.3-0.1,0.5-0.3,0.8c-0.4-0.6-0.9-1.3-1.4-1.3
			c-0.5,0.1-1.5,0.6-1.8,1.5c-0.1-0.2-0.2-0.4-0.2-0.7c-0.4,0.3-1.5,0.4-1.8,0c0,0.2,0,0.4-0.1,0.6c-0.2-0.3-0.6-0.7-1.1-0.7
			c0,0.3-0.1,0.6-0.4,0.8c-0.4-0.6-1-1.1-1.5-1.1c-0.5,0.1-1.5,0.6-1.8,1.3c-0.2-0.4-0.3-1,0-1.5c-0.3,0-0.6-0.2-0.5-0.6
			c-0.9,1.5-2,1.2-2.5,0.4c-1,1-2.9,0.4-2-0.9c3.4-5.3,3.8-6.9,4.8-9.7c0.4-1.1,0.1-2.8,0.6-4.4c-1.1,2-2.6,2.4-2.9,1.9
			c-0.4,0.4-1.6,1-2,0.2c-0.4,0.3-1.2,0.3-1.5-0.1c-0.6,0.4-1.5,0.5-1.6,0.1c-0.6,0.4-1.9,0.3-2.1-0.1c-1,0.8-3,0.4-2.9-0.8
			c-2.2,1-4.2,0.4-4.1-0.6c-1.3,0.1-2-0.5-2-1.1c-1.4,0.1-2.2-0.8-2-1.7c-3,0.3-10.5-0.6-9.9-2.9c-2.1-0.4-5.3-1.9-4.2-3.1
			c-1.3-0.4-2.9-1.5-2.8-2.6c-1.9-0.4-2.3-2-1.7-2.3c-1.8-0.6-2.1-2.9,1.1-2.1c4.4,1.1,16.4,1,22.8,0.6c6.5-0.4,6.4,1.3,12.1,5.3
			C97.1,94.6,99.3,94.2,100.5,94.4L100.5,94.4z"/>
		<path id="XMLID_480_" class="st3" d="M97.9,118.9L97.9,118.9c-0.3-0.4-0.3-1-0.1-1.5c-0.2-0.1-0.3-0.1-0.4-0.3
			c-0.1-0.1-0.1-0.1-0.1-0.1c-0.5,0.8-1,0.9-1.4,1l0,0c-0.4,0-0.8-0.3-1.1-0.6c-0.6,0.6-1.5,0.6-2,0.3c-0.4-0.3-0.4-0.8-0.1-1.3
			c3.1-4.8,3.7-6.6,4.5-9c0.1-0.2,0.1-0.4,0.2-0.6c0.2-0.5,0.2-1.1,0.3-1.8c0.1-0.7,0.1-1.5,0.3-2.2c-0.8,1.3-1.7,1.7-2.3,1.8
			c-0.2,0-0.4-0.1-0.5-0.1c-0.3,0.3-1,0.6-1.5,0.5c-0.3-0.1-0.4-0.1-0.6-0.4c-0.4,0.3-1.1,0.3-1.5-0.1c-0.4,0.3-1,0.4-1.3,0.3
			c-0.1-0.1-0.3-0.1-0.3-0.3c-0.4,0.3-1.2,0.3-1.6,0.2c-0.2-0.1-0.4-0.1-0.4-0.3c-0.6,0.5-1.6,0.4-2.3,0.1c-0.4-0.2-0.6-0.6-0.7-1
			c-1.6,0.7-3,0.6-3.6,0.1c-0.3-0.2-0.4-0.4-0.4-0.8c-0.8,0.1-1.3-0.1-1.7-0.5c-0.2-0.2-0.3-0.4-0.3-0.6c-0.8,0-1.3-0.2-1.7-0.6
			c-0.3-0.3-0.4-0.7-0.3-1.1c-2.5,0.2-8.2-0.4-9.6-2c-0.3-0.3-0.4-0.6-0.3-1c-1.5-0.3-3.9-1.3-4.4-2.4c-0.1-0.3-0.1-0.5,0.1-0.8
			c-1.4-0.4-2.8-1.5-2.7-2.5c-1.2-0.3-1.8-1.1-2-1.7c-0.1-0.3,0-0.5,0.2-0.7c-1-0.4-1.4-1.1-1.3-1.7c0.1-0.3,0.4-1,2.5-0.5
			c4.4,1.1,16.4,1,22.8,0.6c4.9-0.3,6.1,0.6,8.8,2.9c0.9,0.7,1.9,1.5,3.3,2.5c1.9,1.3,3.6,1.5,4.8,1.5c0.4,0,0.8,0.1,1,0.1
			c1-2.5,2.6-3.6,4.2-4.6c0.9-0.6,1.8-1.1,2.5-2c0.5-0.6,1.5-0.6,2.4-0.7c0.5,0,1-0.1,1.4-0.1c0.6-0.1,1-0.1,1.2,0.1
			c0.3,0.2,0.4,0.6,0.6,1.3c1,0,1.5,0.1,1.8,0.5s0.3,0.9,0.1,1.4c0,0,0,0.1-0.1,0.1l0,0c0,0-0.1,0-0.1-0.1c-0.1-0.3-1-0.4-1.5-0.3
			c0,0.7-0.5,0.8-1.3,1c-0.1,0-0.2,0.1-0.3,0.1c-0.5,0.1-0.8,0.8-0.8,2l0,0c1.8,0,3.6-1.6,5.3-3.6c2.3-2.5,5.5-3.6,9.5-3.4
			c6.2,0.3,17.3,0.5,21-0.6c1.9-0.6,3.2-0.5,3.6,0.2c0.3,0.6-0.3,1.4-1.6,2.2c0.1,0.3,0.1,0.6-0.1,0.9c-0.3,0.6-0.9,1.3-1.7,1.6
			c0.1,0.2,0.2,0.4,0.1,0.7c-0.2,0.7-1.1,1.4-2.5,2c0.1,1.3-2,2.7-4.4,3c0.1,0.3,0.1,0.6-0.2,1c-0.9,1.2-4.1,2-7.2,1.8
			c0.1,0.1,0.1,0.3-0.1,0.5c-0.3,0.6-1.3,1.1-2.5,1.2c0.1,0.1,0.1,0.3,0,0.4c-0.2,0.5-1.2,1-2,1c0.1,0.1,0.1,0.1,0,0.3
			c-0.3,0.6-2.6,1.1-4.1,0.9c0,0.1-0.1,0.2-0.2,0.3c-0.5,0.4-1.8,0.6-2.7,0.4c-0.1,0.1-0.3,0.3-0.4,0.4c-0.4,0.2-1.1,0.1-1.7-0.2
			c-0.1,0.2-0.3,0.3-0.4,0.3c-0.4,0.1-1,0.1-1.5-0.3c-0.3,0.3-0.6,0.3-1,0.3s-0.7-0.2-1-0.4c-0.2,0.3-0.4,0.4-0.8,0.4
			c-0.3,0-0.6-0.1-0.9-0.4c-0.2,0.2-0.4,0.3-0.6,0.3l0,0c-0.3,0-0.6-0.2-1-0.5c-0.1,0.3-0.4,0.5-0.8,0.5s-1.3-0.3-1.9-2.2
			c-0.3,1.5-0.7,2.4-1,3c0.3,1,0.5,3.1,0.4,5c0.3,1.9,1.1,4.6,1.6,6.3c0.3,0.8,0.3,1.3,0,1.5c-0.2,0.2-0.6,0.1-0.8-0.1
			c0.1,0.3,0,0.5,0,0.8c0,0,0,0.1-0.1,0.1h-0.1c-0.2-0.3-0.6-0.6-1-0.6c0,0.3-0.1,0.5-0.4,0.8c0,0,0,0-0.1,0h-0.1
			c-0.1-0.1-0.1-0.1-0.2-0.3c-0.4-0.5-0.8-1-1.2-1c-0.5,0.1-1.5,0.6-1.7,1.4c0,0,0,0.1-0.1,0.1c0,0-0.1,0-0.1-0.1
			c-0.1-0.2-0.1-0.4-0.2-0.6c-0.3,0.1-0.8,0.3-1.2,0.2c-0.1,0-0.3-0.1-0.4-0.2c0,0.1-0.1,0.3-0.1,0.4c0,0,0,0.1-0.1,0.1h-0.1
			c-0.2-0.3-0.6-0.6-1-0.7c-0.1,0.3-0.1,0.6-0.4,0.8c0,0,0,0-0.1,0h-0.1c-0.5-0.7-1-1.1-1.4-1.1C99.3,117.7,98.3,118.2,97.9,118.9
			C98,118.9,98,118.9,97.9,118.9L97.9,118.9z M97.5,116.8L97.5,116.8C97.6,116.8,97.6,116.8,97.5,116.8c0,0.2,0.1,0.3,0.1,0.4
			c0.1,0.1,0.3,0.2,0.4,0.2c0,0,0.1,0,0.1,0.1v0.1c-0.2,0.4-0.2,0.9-0.1,1.3c0.4-0.8,1.3-1.1,1.8-1.3c0.4,0,1,0.4,1.5,1.1
			c0.2-0.2,0.3-0.4,0.3-0.7c0-0.1,0.1-0.1,0.1-0.1c0.4,0,0.8,0.4,1.1,0.6c0.1-0.1,0.1-0.3,0.1-0.4c0,0,0-0.1,0.1-0.1h0.1
			c0.1,0.1,0.3,0.2,0.5,0.2c0.4,0.1,1,0,1.2-0.2h0.1l0.1,0.1c0,0.2,0.1,0.4,0.1,0.6c0.3-0.8,1.3-1.2,1.8-1.3l0,0
			c0.5,0,0.9,0.5,1.3,1c0.1,0.1,0.1,0.1,0.1,0.2c0.2-0.2,0.3-0.4,0.3-0.7c0-0.1,0-0.1,0.1-0.1c0.4,0,0.8,0.3,1.1,0.6
			c0.1-0.3,0.1-0.5,0-0.8v-0.1h0.1c0.1,0.1,0.5,0.3,0.8,0.1c0.1-0.1,0.3-0.4-0.1-1.3c-0.5-1.6-1.4-4.4-1.6-6.3
			c0.1-1.9-0.1-4.1-0.4-5v-0.1c0.3-0.6,0.8-1.6,1.1-3.2c0,0,0-0.1,0.1-0.1c0,0,0.1,0,0.1,0.1c0.6,2.2,1.5,2.4,1.8,2.4
			c0.4,0,0.7-0.3,0.7-0.5c0,0,0-0.1,0.1-0.1h0.1c0.3,0.4,0.6,0.6,1,0.5c0.3,0,0.4-0.1,0.6-0.4c0,0,0,0,0.1,0h0.1
			c0.3,0.3,0.6,0.4,0.9,0.4c0.3,0,0.6-0.2,0.7-0.4c0,0,0,0,0.1,0h0.1c0.3,0.3,0.6,0.4,1,0.4c0.3,0,0.6-0.1,0.9-0.3h0.1
			c0.4,0.3,1,0.4,1.4,0.3c0.2-0.1,0.3-0.2,0.4-0.3c0,0,0-0.1,0.1-0.1h0.1c0.5,0.3,1.2,0.4,1.6,0.2c0.3-0.1,0.4-0.2,0.4-0.3
			c0-0.1,0.1-0.1,0.1-0.1c1,0.3,2.3,0,2.7-0.4c0.1-0.1,0.1-0.2,0.1-0.3v-0.1h0.1c1.4,0.3,3.7-0.4,3.9-0.8c0.1-0.1,0-0.1-0.1-0.2
			v-0.1c0,0,0-0.1,0.1-0.1c0.8-0.1,1.7-0.4,2-1c0.1-0.1,0.1-0.3-0.1-0.4v0l0.1-0.1c1.1,0,2.2-0.6,2.5-1.1c0.1-0.2,0.1-0.3,0-0.4
			v-0.1h0.1c3.2,0.2,6.4-0.6,7.2-1.7c0.2-0.3,0.3-0.6,0.1-0.9v-0.1c0,0,0,0,0.1,0c2.2-0.2,4.6-1.5,4.4-2.9c0,0,0-0.1,0.1-0.1
			c1.4-0.6,2.3-1.3,2.5-1.9c0.1-0.3,0-0.4-0.1-0.7v-0.1c0,0,0-0.1,0.1-0.1c0.8-0.3,1.5-0.9,1.7-1.6c0.1-0.3,0.1-0.6,0.1-0.8v-0.1
			c1.2-0.8,1.8-1.5,1.6-2c-0.2-0.4-1.2-0.8-3.4-0.1c-3.7,1.1-14.9,1-21.1,0.6c-4-0.3-7.2,0.9-9.4,3.3c-1.8,2-3.6,3.6-5.5,3.6H111
			c-0.1,0-0.1,0-0.1-0.1c0-1.3,0.3-2,0.9-2.2c0.1,0,0.2-0.1,0.3-0.1c0.8-0.2,1.1-0.3,1.1-1c0-0.1,0-0.1,0.1-0.1
			c0.3,0,1.3-0.1,1.6,0.3c0.1-0.5,0.1-0.9-0.1-1.1c-0.3-0.3-0.9-0.4-1.8-0.4c-0.1,0-0.1,0-0.1-0.1c-0.1-0.6-0.2-1-0.5-1.3
			c-0.3-0.2-0.6-0.2-1.1-0.1c-0.4,0.1-1,0.1-1.4,0.1c-0.9,0.1-1.8,0.1-2.3,0.6c-0.7,0.8-1.6,1.4-2.5,2c-1.6,1-3.2,2-4.1,4.6
			l-0.1,0.1c-0.3-0.1-0.6-0.1-1.1-0.1c-1.3-0.1-3-0.2-4.9-1.5c-1.4-1-2.4-1.8-3.3-2.5c-2.7-2.2-3.9-3.1-8.8-2.9
			c-6.5,0.4-18.5,0.6-22.8-0.6c-1.5-0.4-2.2-0.1-2.3,0.4C57.6,87.2,58,88,59,88.3c0,0,0.1,0,0.1,0.1c0,0,0,0.1-0.1,0.1
			c-0.2,0.1-0.3,0.3-0.3,0.6c0.1,0.6,0.7,1.3,1.9,1.6c0.1,0,0.1,0.1,0.1,0.1c-0.1,1,1.3,2.1,2.7,2.5c0,0,0.1,0,0.1,0.1v0.1
			c-0.2,0.2-0.3,0.4-0.1,0.7c0.3,1,2.5,2,4.3,2.3c0,0,0,0,0.1,0c0,0,0,0,0,0.1c-0.1,0.3,0,0.6,0.3,1c0.6,0.7,2.2,1.3,4.4,1.6
			c1.8,0.3,3.9,0.4,5.2,0.3h0.1v0.1c-0.1,0.4,0,0.8,0.3,1.1c0.4,0.4,1,0.6,1.7,0.6h0.1v0.1c-0.1,0.2,0.1,0.4,0.2,0.6
			c0.3,0.4,1,0.5,1.6,0.4h0.1c0,0,0,0,0,0.1c0,0.3,0.1,0.6,0.4,0.8c0.6,0.4,2,0.6,3.6-0.2h0.1v0.1c-0.1,0.5,0.4,0.8,0.6,0.9
			c0.6,0.3,1.6,0.3,2.2-0.2h0.1h0.1c0.1,0.1,0.2,0.2,0.4,0.3c0.4,0.1,1.1,0.1,1.6-0.2H91c0,0,0.1,0,0.1,0.1c0.1,0.1,0.2,0.2,0.3,0.2
			c0.3,0.1,0.9-0.1,1.3-0.3h0.1c0.3,0.4,1.1,0.3,1.5,0.1h0.1c0,0,0.1,0,0.1,0.1c0.1,0.2,0.3,0.3,0.5,0.3c0.4,0.1,1.1-0.3,1.4-0.6
			c0,0,0,0,0.1,0h0.1c0.1,0.1,0.3,0.2,0.4,0.2c0.6,0,1.6-0.6,2.4-2.1c0,0,0.1-0.1,0.1,0l0.1,0.1c-0.3,0.9-0.3,1.8-0.4,2.6
			c-0.1,0.7-0.1,1.3-0.3,1.8c-0.1,0.3-0.1,0.4-0.2,0.6c-0.8,2.5-1.4,4.2-4.5,9.1c-0.3,0.4-0.3,0.8,0.1,1.1c0.4,0.3,1.3,0.3,1.8-0.3
			h0.1h0.1c0.3,0.4,0.6,0.6,1,0.6C96.4,117.9,96.9,117.7,97.5,116.8C97.4,116.8,97.4,116.8,97.5,116.8z"/>
	</g>
	<g id="XMLID_477_">
		<path id="XMLID_478_" class="st3" d="M108.2,117.8L108.2,117.8L108.2,117.8c-0.1-0.4-0.2-0.8-0.4-1v-0.1h0.1
			C108.1,117,108.3,117.4,108.2,117.8C108.3,117.8,108.2,117.8,108.2,117.8z"/>
	</g>
	<g id="XMLID_475_">
		<path id="XMLID_476_" class="st3" d="M109.3,117.6C109.3,117.6,109.2,117.6,109.3,117.6c-0.3-0.9-1.2-0.8-1.5-0.7l0,0
			c-0.6-0.1-0.9-0.6-0.9-1.3c0-0.6,0.3-1.4,1-2.7c0.4-0.8,0.4-2,0.5-3c0-0.1,0-0.1,0.1-0.1l0,0c0.1,0,0.1,0,0.1,0.1
			c-0.1,1-0.2,2.3-0.5,3c-0.6,1.3-1,2.1-1,2.6c0,0.6,0.3,1,0.8,1.1c0.8-0.1,1.4,0.1,1.6,0.8C109.4,117.5,109.4,117.6,109.3,117.6
			L109.3,117.6z"/>
	</g>
	<g id="XMLID_473_">
		<path id="XMLID_474_" class="st3" d="M104.5,118.1L104.5,118.1L104.5,118.1c-0.1-0.4,0.1-1.3,1.2-1.5c0.4-0.1,0.6-0.2,0.6-0.8
			c0-0.8-0.4-1.4-0.9-2.1c-0.8-1.1-1.8-2.6-1.8-5.9c0-0.1,0-0.1,0.1-0.1s0.1,0,0.1,0.1c0,3.3,1,4.7,1.8,5.8c0.5,0.7,1,1.3,1,2.2
			c0,0.7-0.2,0.8-0.7,1C104.7,117,104.6,117.7,104.5,118.1C104.6,118.1,104.5,118.1,104.5,118.1z"/>
	</g>
	<g id="XMLID_471_">
		<path id="XMLID_472_" class="st3" d="M106.5,107L106.5,107C106.4,107,106.4,106.9,106.5,107c0.1-0.5,0.4-0.9,0.8-1.3
			c0.3-0.3,0.5-0.5,0.6-0.8c0,0,0.1-0.1,0.1,0c0,0,0.1,0.1,0,0.1c-0.2,0.3-0.4,0.6-0.7,0.9C107.1,106.2,106.8,106.5,106.5,107
			C106.6,107,106.6,107,106.5,107z"/>
	</g>
	<g id="XMLID_469_">
		<path id="XMLID_470_" class="st3" d="M101.4,95.1L101.4,95.1c-0.2-0.4-0.5-0.5-1-0.6c-0.1,0-0.1-0.1-0.1-0.1l0.1-0.1
			c0.5,0.1,0.8,0.3,1,0.6C101.5,95.1,101.5,95.1,101.4,95.1C101.5,95.1,101.4,95.1,101.4,95.1z"/>
	</g>
	<g id="XMLID_467_">
		<path id="XMLID_468_" class="st3" d="M101.6,118L101.6,118C101.6,118,101.6,117.9,101.6,118c-0.1-0.4-0.2-0.8-0.4-1.1v-0.1h0.1
			C101.5,117,101.7,117.5,101.6,118C101.6,117.9,101.6,118,101.6,118z"/>
	</g>
	<g id="XMLID_465_">
		<path id="XMLID_466_" class="st3" d="M102.8,118.1L102.8,118.1C102.7,118.1,102.7,118,102.8,118.1c-0.1-0.4-0.2-0.8-0.4-1
			c-0.3-0.3-0.7-0.3-1.1-0.3l0,0c-0.4-0.1-0.8-0.3-0.7-1.1c0.1-1.3,0.5-2.2,1-3.2c0.8-1.6,1.6-3.4,1.3-6.9c0-0.1,0-0.1,0.1-0.1
			c0,0,0.1,0,0.1,0.1c0.4,3.6-0.5,5.4-1.3,7c-0.5,1-1,1.9-1,3.2c-0.1,0.8,0.2,0.8,0.6,1c0.5-0.1,1,0.1,1.2,0.3
			C102.7,117.3,102.8,117.6,102.8,118.1C102.8,118,102.8,118.1,102.8,118.1z"/>
	</g>
	<g id="XMLID_463_">
		<path id="XMLID_464_" class="st3" d="M98,117.5C97.9,117.5,97.9,117.5,98,117.5C97.9,117.5,97.9,117.4,98,117.5
			c0.1-0.4,0.5-0.6,1-0.7c0.4-0.1,0.6-0.1,0.6-0.8c0-0.4-0.2-0.7-0.4-1c-0.1-0.1-0.1-0.2-0.2-0.3c-1-1.6-2-6.3-1.4-8
			c0-0.1,0.1-0.1,0.1-0.1c0.1,0,0.1,0.1,0.1,0.1c-0.6,1.7,0.4,6.3,1.4,7.9c0.1,0.1,0.1,0.2,0.2,0.3c0.2,0.3,0.4,0.6,0.4,1
			c-0.1,0.7-0.3,0.8-0.8,1C98.5,117,98.2,117.1,98,117.5L98,117.5z"/>
	</g>
	<g id="XMLID_461_">
		<path id="XMLID_462_" class="st3" d="M109,101.7L109,101.7L109,101.7c0.1-0.8,0.1-1.8,0.1-2.8s0.3-1.6,0.7-2.4
			c0.4-0.8,0.8-1.6,0.8-2.8c0-0.1,0-0.2,0-0.3c0-0.1,0-0.3,0-0.4s0.1-0.1,0.1-0.1c0.1,0,0.1,0,0.1,0.1s0,0.3,0,0.4s0,0.2,0,0.3
			c0,1.2-0.4,2-0.8,2.9c-0.4,0.8-0.7,1.5-0.7,2.3C109.3,100,109.2,100.9,109,101.7C109.1,101.7,109.1,101.7,109,101.7z"/>
	</g>
	<g id="XMLID_459_">
		<path id="XMLID_460_" class="st3" d="M101,96L101,96c-5.4-0.2-8.9-1.6-10.9-4.5c-2.2-3.2-6-3.2-9.8-2.9c-4.1,0.4-8.2,0.3-10.8,0
			c-0.1,0-0.1-0.1-0.1-0.1c0-0.1,0.1-0.1,0.1-0.1c2.7,0.3,6.7,0.4,10.8,0c3.8-0.4,7.6-0.3,9.9,2.9c2,2.9,5.5,4.2,10.8,4.4
			C101,95.9,101.1,95.9,101,96C101.1,96,101,96,101,96z"/>
	</g>
	<g id="XMLID_457_">
		<path id="XMLID_458_" class="st3" d="M78.9,90.6c-1.8,0-3.6-0.3-4.2-1c-0.2-0.3-0.3-0.5-0.1-0.8c0-0.1,0.1-0.1,0.1-0.1
			c0.1,0,0.1,0.1,0.1,0.1c-0.1,0.3-0.1,0.5,0.1,0.7c0.4,0.5,2,1.3,7.5,0.8c0.1,0,0.1,0,0.1,0.1s0,0.1-0.1,0.1
			C81.3,90.5,80.1,90.6,78.9,90.6z"/>
	</g>
	<g id="XMLID_455_">
		<path id="XMLID_456_" class="st3" d="M80.3,92.1c-1.7,0-3.3-0.3-4.3-1c-0.4-0.3-0.7-0.7-0.8-1.1c0-0.1,0-0.1,0.1-0.1
			s0.1,0,0.1,0.1c0.1,0.4,0.3,0.8,0.7,1c1.6,1.2,5,1.2,7.6,0.6c0.1,0,0.1,0,0.1,0.1s0,0.1-0.1,0.1C82.6,92,81.4,92.1,80.3,92.1z"/>
	</g>
	<g id="XMLID_453_">
		<path id="XMLID_454_" class="st3" d="M81.4,93.6c-1,0-2-0.1-2.7-0.1c-1.1-0.1-1.9-0.8-1.9-1.3c0-0.1,0.1-0.4,0.8-0.5l0,0
			c0.1,0,0.1,0,0.1,0.1s0,0.1-0.1,0.1c-0.4,0-0.6,0.1-0.6,0.4c0,0.4,0.7,1.1,1.8,1.2c1.6,0.2,4.5,0.3,6.1-0.2c0.1,0,0.1,0,0.1,0.1
			s0,0.1-0.1,0.1C83.9,93.5,82.7,93.6,81.4,93.6z"/>
	</g>
	<g id="XMLID_451_">
		<path id="XMLID_452_" class="st3" d="M82.1,95.5c-0.3,0-0.6,0-0.8,0c-1.7-0.1-2.8-0.5-3-1.1c-0.1-0.3,0.1-0.6,0.4-1h0.1v0.1
			c-0.3,0.3-0.4,0.6-0.4,0.8c0.1,0.3,0.5,0.9,2.9,1.1c1,0.1,3.2,0.1,5.3-0.6c0.1,0,0.1,0,0.1,0.1s0,0.1-0.1,0.1
			C85,95.4,83.2,95.5,82.1,95.5z"/>
	</g>
	<g id="XMLID_449_">
		<path id="XMLID_450_" class="st3" d="M83.2,97c-1.1,0-1.9-0.5-2-1c-0.1-0.3,0-0.5,0.3-0.7h0.1v0.1c-0.3,0.2-0.3,0.4-0.3,0.6
			c0.1,0.4,0.8,0.9,1.9,0.9c1.8,0,3.4-0.3,4.6-0.9h0.1v0.1C86.7,96.7,85,97,83.2,97z"/>
	</g>
	<g id="XMLID_447_">
		<path id="XMLID_448_" class="st3" d="M84.7,98.6c-0.8,0-1.3-0.3-1.5-0.6c-0.2-0.3-0.2-0.6,0.1-1c0,0,0.1-0.1,0.1,0
			c0,0,0.1,0.1,0,0.1c-0.2,0.3-0.3,0.6-0.1,0.8c0.3,0.4,1.1,0.7,2.5,0.4c0.8-0.2,2.7-1,3.2-1.4h0.1V97c-0.6,0.4-2.4,1.2-3.2,1.4
			C85.3,98.5,85,98.6,84.7,98.6z"/>
	</g>
	<g id="XMLID_445_">
		<path id="XMLID_446_" class="st3" d="M86.3,99.7c-0.4,0-0.7-0.2-0.8-0.4c-0.2-0.3-0.1-0.8,0.4-1H86v0.1c-0.3,0.2-0.5,0.6-0.3,0.9
			s0.8,0.5,1.6,0.1c0.3-0.1,1.5-0.7,2.3-1.5h0.1V98c-0.8,0.8-2,1.4-2.3,1.6C87,99.6,86.6,99.7,86.3,99.7z"/>
	</g>
	<g id="XMLID_443_">
		<path id="XMLID_444_" class="st3" d="M88,100.3c-0.3,0-0.4-0.1-0.6-0.2c-0.3-0.2-0.3-0.5-0.2-0.8c0-0.1,0.1-0.1,0.1-0.1
			c0.1,0,0.1,0.1,0.1,0.1c-0.1,0.3,0,0.5,0.2,0.7c0.3,0.2,0.7,0.3,1.3-0.1c0.8-0.5,1.5-1.1,2-1.8c0,0,0.1-0.1,0.1,0
			c0,0,0.1,0.1,0,0.1c-0.5,0.8-1.1,1.4-2,1.9C88.6,100.3,88.3,100.3,88,100.3z"/>
	</g>
	<g id="XMLID_441_">
		<path id="XMLID_442_" class="st3" d="M89.4,100.7c-0.1,0-0.2,0-0.3-0.1c-0.3-0.1-0.3-0.4-0.3-0.7c0-0.1,0.1-0.1,0.1-0.1
			c0.1,0,0.1,0.1,0.1,0.1c-0.1,0.2,0,0.4,0.2,0.6c0.3,0.1,1,0.2,2.7-1.8H92v0.1C90.6,100.4,89.8,100.7,89.4,100.7z"/>
	</g>
	<g id="XMLID_439_">
		<path id="XMLID_440_" class="st3" d="M90.5,101.2c-0.1,0-0.2,0-0.3-0.1c-0.3-0.1-0.3-0.4-0.3-0.6c0-0.1,0.1-0.1,0.1-0.1
			c0.1,0,0.1,0.1,0.1,0.1c-0.1,0.2,0,0.4,0.2,0.5c0.4,0.2,1.3-0.2,2.4-1.6c0,0,0.1-0.1,0.1,0c0,0,0.1,0.1,0,0.1
			C91.9,100.7,91,101.2,90.5,101.2z"/>
	</g>
	<g id="XMLID_437_">
		<path id="XMLID_438_" class="st3" d="M92,101.3L92,101.3c-0.3,0-0.6-0.2-0.7-0.5v-0.1h0.1c0.2,0.3,0.4,0.4,0.6,0.4
			c0.4,0.1,1.1-0.4,2.2-1.5h0.1v0.1C93.2,100.9,92.5,101.3,92,101.3z"/>
	</g>
	<g id="XMLID_435_">
		<path id="XMLID_436_" class="st3" d="M93.1,101.8c-0.1,0-0.3,0-0.3-0.1c-0.2-0.1-0.3-0.3-0.3-0.5c0-0.1,0.1-0.1,0.1-0.1
			c0.1,0,0.1,0.1,0.1,0.1c0,0.2,0.1,0.3,0.2,0.4c0.4,0.2,1.2-0.1,2.1-1h0.1v0.1C94.2,101.5,93.6,101.8,93.1,101.8z"/>
	</g>
	<g id="XMLID_433_">
		<path id="XMLID_434_" class="st3" d="M94.3,101.9c-0.1,0-0.2,0-0.3-0.1s-0.3-0.2-0.2-0.4c0-0.1,0.1-0.1,0.1-0.1
			c0.1,0,0.1,0.1,0.1,0.1c0,0.1,0,0.2,0.1,0.3c0.4,0.1,1.3-0.3,2.1-1.1h0.1v0.1C95.7,101.3,94.9,101.9,94.3,101.9z"/>
	</g>
	<g id="XMLID_431_">
		<path id="XMLID_432_" class="st3" d="M96,101.9c-0.4,0-0.7-0.1-0.8-0.4v-0.1h0.1c0.1,0.3,0.4,0.4,0.8,0.3c0.6,0,1.1-0.4,1.5-1.1
			c0,0,0.1-0.1,0.1,0c0,0,0.1,0.1,0,0.1C97.3,101.5,96.7,101.9,96,101.9C96.1,101.9,96,101.9,96,101.9z"/>
	</g>
	<g id="XMLID_429_">
		<path id="XMLID_430_" class="st3" d="M97.7,102c-0.2,0-0.3-0.1-0.4-0.1c-0.3-0.2-0.2-0.5,0.1-0.9c0,0,0.1-0.1,0.1,0
			c0,0,0.1,0.1,0,0.1c-0.3,0.3-0.3,0.6-0.1,0.8c0.3,0.2,0.8,0.1,1.4-0.4h0.1v0.1C98.5,101.9,98.1,102,97.7,102z"/>
	</g>
	<g id="XMLID_427_">
		<path id="XMLID_428_" class="st3" d="M98.3,102.4L98.3,102.4c-0.1-0.1-0.1-0.1-0.1-0.1c0.8-0.6,1-1.6,1.2-2.5
			c0.2-0.8,0.3-1.5,1-1.5c0.1,0,0.1,0,0.1,0.1s0,0.1-0.1,0.1c-0.5,0-0.6,0.6-0.8,1.4C99.5,100.6,99.2,101.7,98.3,102.4L98.3,102.4z"
			/>
	</g>
	<g id="XMLID_425_">
		<path id="XMLID_426_" class="st3" d="M71.6,90.6c-4.9,0-10.6-0.6-13-1.5c-0.1,0-0.1-0.1-0.1-0.1c0-0.1,0.1-0.1,0.1-0.1
			c3.1,1.1,11.4,1.8,16.7,1.3c0.1,0,0.1,0,0.1,0.1s0,0.1-0.1,0.1C74.2,90.6,73,90.6,71.6,90.6z"/>
	</g>
	<g id="XMLID_423_">
		<path id="XMLID_424_" class="st3" d="M74.5,92.6c-4.8,0-11.2-0.3-14.3-1.1c-0.1,0-0.1-0.1-0.1-0.1c0-0.1,0.1-0.1,0.1-0.1
			c3.6,1,11.9,1.3,16.7,1.1c0,0,0.1,0,0.1,0.1s0,0.1-0.1,0.1C76.2,92.6,75.4,92.6,74.5,92.6z"/>
	</g>
	<g id="XMLID_421_">
		<path id="XMLID_422_" class="st3" d="M74.5,95.3c-4.6,0-9.6-0.8-11.4-1.2C63,94.1,63,94,63,94c0-0.1,0.1-0.1,0.1-0.1
			c2.3,0.6,10.5,1.8,15.8,0.9c0.1,0,0.1,0,0.1,0.1s0,0.1-0.1,0.1C77.5,95.1,76,95.3,74.5,95.3z"/>
	</g>
	<g id="XMLID_419_">
		<path id="XMLID_420_" class="st3" d="M74.5,97.8c-3.2,0-6.2-0.3-7.2-0.6c-0.1,0-0.1-0.1-0.1-0.1c0-0.1,0.1-0.1,0.1-0.1
			c2,0.5,10.3,1.2,14.8-0.3c0.1,0,0.1,0,0.1,0.1s0,0.1-0.1,0.1C80,97.5,77.1,97.8,74.5,97.8z"/>
	</g>
	<g id="XMLID_417_">
		<path id="XMLID_418_" class="st3" d="M77.1,100.1L77.1,100.1c-0.1-0.1-0.1-0.1,0-0.1c1.3-0.1,4.6-0.8,6.3-1.8h0.1v0.1
			C81.8,99.3,78.5,100.1,77.1,100.1L77.1,100.1z"/>
	</g>
	<g id="XMLID_415_">
		<path id="XMLID_416_" class="st3" d="M79.2,101.9C79.2,101.9,79.1,101.8,79.2,101.9c-0.1-0.1-0.1-0.1,0-0.1
			c1.8-0.3,4.6-1.1,6.3-2.5h0.1v0.1C83.9,100.7,81.1,101.5,79.2,101.9L79.2,101.9z"/>
	</g>
	<g id="XMLID_413_">
		<path id="XMLID_414_" class="st3" d="M81.1,102.9L81.1,102.9c-0.1-0.1-0.1-0.1,0-0.1c1.3-0.1,4.9-1.5,6.4-2.7h0.1v0.1
			C86.1,101.4,82.5,102.9,81.1,102.9L81.1,102.9z"/>
	</g>
	<g id="XMLID_411_">
		<path id="XMLID_412_" class="st3" d="M85.2,103.6L85.2,103.6c-0.1-0.1-0.1-0.1,0-0.1c1.3-0.5,3-1.6,4.3-2.8h0.1v0.1
			C88.3,101.9,86.5,103,85.2,103.6C85.3,103.6,85.2,103.6,85.2,103.6z"/>
	</g>
	<g id="XMLID_409_">
		<path id="XMLID_410_" class="st3" d="M88.1,104.4C88.1,104.4,88,104.3,88.1,104.4c-0.1-0.1-0.1-0.1-0.1-0.1c1.1-0.8,2.1-1.9,3-2.9
			c0.1-0.1,0.3-0.3,0.3-0.4h0.1v0.1c-0.1,0.1-0.2,0.3-0.3,0.4C90.3,102.4,89.3,103.6,88.1,104.4L88.1,104.4z"/>
	</g>
	<g id="XMLID_407_">
		<path id="XMLID_408_" class="st3" d="M90.2,104.5L90.2,104.5c-0.1-0.1-0.1-0.1,0-0.1c0.9-0.5,1.6-1.5,2.3-2.6l0.1-0.2
			c0,0,0.1-0.1,0.1,0c0,0,0.1,0.1,0,0.1l-0.1,0.2C91.9,102.9,91.2,103.9,90.2,104.5C90.3,104.5,90.2,104.5,90.2,104.5z"/>
	</g>
	<g id="XMLID_405_">
		<path id="XMLID_406_" class="st3" d="M91.9,104.4C91.9,104.4,91.8,104.3,91.9,104.4c-0.1-0.1-0.1-0.1-0.1-0.1
			c0.8-0.5,1.7-1.6,2.3-2.5c0,0,0.1-0.1,0.1,0c0,0,0.1,0.1,0,0.1C93.6,102.7,92.7,103.8,91.9,104.4L91.9,104.4z"/>
	</g>
	<g id="XMLID_403_">
		<path id="XMLID_404_" class="st3" d="M93.4,104.5L93.4,104.5c-0.1-0.1-0.1-0.1-0.1-0.1c0.8-0.6,1.6-1.7,2.1-2.7c0,0,0.1-0.1,0.1,0
			c0,0,0.1,0.1,0,0.1C95.1,102.7,94.3,103.8,93.4,104.5L93.4,104.5z"/>
	</g>
	<g id="XMLID_401_">
		<path id="XMLID_402_" class="st3" d="M95.3,104.3L95.3,104.3c-0.1-0.1-0.1-0.1-0.1-0.1c0.8-0.6,1.3-1.5,1.8-2.5l0.1-0.1
			c0.1,0,0.1,0.1,0.1,0.1C96.7,102.7,96.2,103.6,95.3,104.3C95.4,104.3,95.4,104.3,95.3,104.3z"/>
	</g>
	<g id="XMLID_399_">
		<path id="XMLID_400_" class="st3" d="M95,117.4C95,117.4,94.9,117.4,95,117.4C94.9,117.4,94.9,117.3,95,117.4
			c0.9-1.7,2.1-3.7,2.9-5.6l0.1-0.1c0.1,0,0.1,0.1,0.1,0.1C97.1,113.7,96,115.7,95,117.4L95,117.4z"/>
	</g>
	<g id="XMLID_397_">
		<path id="XMLID_398_" class="st3" d="M97.5,116.9C97.4,116.9,97.4,116.9,97.5,116.9c-0.1,0-0.1-0.1-0.1-0.1
			c0.3-0.5,0.6-1.1,0.9-1.6c0.2-0.3,0.3-0.6,0.5-1c0,0,0.1-0.1,0.1,0c0,0,0.1,0.1,0,0.1c-0.2,0.3-0.3,0.6-0.5,1
			C98.1,115.8,97.9,116.4,97.5,116.9L97.5,116.9z"/>
	</g>
	<g id="XMLID_395_">
		<path id="XMLID_396_" class="st3" d="M102.4,116.9C102.4,116.9,102.3,116.8,102.4,116.9c-0.1-0.3-0.1-0.8-0.1-1.3
			c-0.1-1.3-0.1-3.4-0.1-4.6c0-0.1,0.1-0.1,0.1-0.1c0.1,0,0.1,0,0.1,0.1c-0.1,1.1,0.1,3.2,0.1,4.6
			C102.4,116.1,102.4,116.6,102.4,116.9C102.4,116.8,102.4,116.9,102.4,116.9L102.4,116.9z"/>
	</g>
	<g id="XMLID_393_">
		<path id="XMLID_394_" class="st3" d="M104.7,117.1L104.7,117.1C104.6,117.1,104.6,117.1,104.7,117.1c-0.1-0.6-0.1-1.4-0.3-2.3
			c-0.1-1.1-0.3-2.4-0.3-3.5c0-0.1,0-0.1,0.1-0.1l0,0c0.1,0,0.1,0,0.1,0.1c0,1.1,0.1,2.3,0.3,3.5
			C104.7,115.7,104.7,116.6,104.7,117.1L104.7,117.1z"/>
	</g>
	<g id="XMLID_391_">
		<path id="XMLID_392_" class="st3" d="M108.4,116.8C108.3,116.8,108.3,116.8,108.4,116.8c-0.1-0.3-0.6-2.5-0.8-3.4
			c0-0.1,0-0.1,0.1-0.1c0.1,0,0.1,0,0.1,0.1C107.9,114.4,108.4,116.5,108.4,116.8C108.5,116.8,108.5,116.8,108.4,116.8L108.4,116.8z
			"/>
	</g>
	<g id="XMLID_389_">
		<path id="XMLID_390_" class="st3" d="M110.7,95.1C110.6,95.1,110.6,95.1,110.7,95.1c-0.1-0.1-0.1-0.1,0-0.1
			c2.1-0.1,3.5-1.5,5.1-3.2c2-2.1,4.4-4.5,8.8-4.5c0.1,0,0.2,0,0.3,0c3,0.1,5.5,0.2,7.7,0.3c3.8,0.2,6.5,0.3,8.9,0.1
			c0.1,0,0.1,0,0.1,0.1s0,0.1-0.1,0.1c-2.3,0.3-5.1,0.1-8.9-0.1c-2.2-0.1-4.8-0.3-7.7-0.3c-0.1,0-0.2,0-0.3,0
			c-4.3,0-6.6,2.3-8.6,4.5C114.3,93.5,112.8,95.1,110.7,95.1L110.7,95.1z"/>
	</g>
	<g id="XMLID_387_">
		<path id="XMLID_388_" class="st3" d="M128.7,89.4c-0.7,0-1.5-0.1-2.3-0.1c-0.1,0-0.1-0.1-0.1-0.1c0-0.1,0.1-0.1,0.1-0.1
			c3.5,0.3,5.8,0,6.6-0.8c0.2-0.2,0.3-0.4,0.3-0.7c0-0.1,0-0.1,0.1-0.1c0.1,0,0.1,0,0.1,0.1c0,0.3-0.1,0.6-0.3,0.8
			C132.4,89.1,130.9,89.4,128.7,89.4z"/>
	</g>
	<g id="XMLID_385_">
		<path id="XMLID_386_" class="st3" d="M128.7,91.1c-1,0-2.1-0.1-3.2-0.3c-0.1,0-0.1-0.1-0.1-0.1c0-0.1,0.1-0.1,0.1-0.1
			c2.3,0.3,4.7,0.6,5.6-0.3c0.3-0.3,0.4-0.7,0.4-1.3c0-0.1,0-0.1,0.1-0.1c0.1,0,0.1,0,0.1,0.1c0,0.6-0.1,1-0.5,1.3
			C130.7,90.9,129.8,91.1,128.7,91.1z"/>
	</g>
	<g id="XMLID_383_">
		<path id="XMLID_384_" class="st3" d="M127.7,92.9c-1.1,0-2.3-0.2-3.6-0.4c-0.1,0-0.1-0.1-0.1-0.1c0-0.1,0.1-0.1,0.1-0.1
			c1.5,0.3,4.5,0.9,5.7-0.1c0.4-0.3,0.5-0.8,0.5-1.3c0-0.1,0-0.1,0.1-0.1l0,0c0.1,0,0.1,0,0.1,0.1c0,0.6-0.2,1.1-0.6,1.4
			C129.3,92.7,128.6,92.9,127.7,92.9z"/>
	</g>
	<g id="XMLID_381_">
		<path id="XMLID_382_" class="st3" d="M126.5,94.7c-1.1,0-2.6-0.3-4.4-0.8c-0.1,0-0.1-0.1-0.1-0.1c0-0.1,0.1-0.1,0.1-0.1
			c3.3,1,5.4,1,6.3,0.3c0.4-0.3,0.5-0.8,0.5-1.4c0-0.1,0-0.1,0.1-0.1s0.1,0,0.1,0.1c0.1,0.6-0.1,1.1-0.5,1.5
			C128.1,94.5,127.5,94.7,126.5,94.7z"/>
	</g>
	<g id="XMLID_379_">
		<path id="XMLID_380_" class="st3" d="M124.8,96.5c-1.2,0-2.7-0.4-4-0.9c-0.1,0-0.1-0.1-0.1-0.1c0-0.1,0.1-0.1,0.1-0.1
			c2.5,1,4.8,1.1,5.7,0.4c0.4-0.3,0.5-0.7,0.4-1.3c0-0.1,0-0.1,0.1-0.1s0.1,0,0.1,0.1c0.1,0.6-0.1,1-0.4,1.3
			C126.2,96.3,125.5,96.5,124.8,96.5z"/>
	</g>
	<g id="XMLID_377_">
		<path id="XMLID_378_" class="st3" d="M122.8,97.8c-1,0-2.3-0.4-3.6-1.3c0,0-0.1-0.1,0-0.1c0,0,0.1-0.1,0.1,0
			c1.8,1.1,3.5,1.5,4.4,1c0.4-0.2,0.6-0.6,0.6-1.1c0-0.1,0-0.1,0.1-0.1s0.1,0,0.1,0.1c0,0.6-0.3,1-0.7,1.2
			C123.6,97.7,123.2,97.8,122.8,97.8z"/>
	</g>
	<g id="XMLID_375_">
		<path id="XMLID_376_" class="st3" d="M121.2,98.8c-0.8,0-1.9-0.5-3.2-1.4c0,0-0.1-0.1,0-0.1c0,0,0.1-0.1,0.1,0
			c1.6,1.1,2.9,1.6,3.7,1.3c0.3-0.1,0.6-0.4,0.6-1c0-0.1,0-0.1,0.1-0.1s0.1,0.1,0.1,0.1c-0.1,0.5-0.3,0.8-0.7,1
			S121.3,98.8,121.2,98.8z"/>
	</g>
	<g id="XMLID_373_">
		<path id="XMLID_374_" class="st3" d="M119.4,99.4c-0.7,0-1.5-0.5-2.3-1.5v-0.1h0.1c0.9,1,1.8,1.5,2.5,1.4c0.3-0.1,0.6-0.3,0.7-0.6
			c0-0.1,0.1-0.1,0.1-0.1c0.1,0,0.1,0.1,0.1,0.1c-0.1,0.4-0.4,0.6-0.8,0.8C119.6,99.4,119.6,99.4,119.4,99.4z"/>
	</g>
	<g id="XMLID_371_">
		<path id="XMLID_372_" class="st3" d="M118.2,99.9c-0.6,0-1.6-0.6-2.3-1.7v-0.1h0.1c0.8,1.2,1.8,1.8,2.3,1.6
			c0.2-0.1,0.3-0.2,0.4-0.4c0-0.1,0-0.1,0.1-0.1c0.1,0,0.1,0.1,0.1,0.1C118.7,99.6,118.6,99.8,118.2,99.9
			C118.4,99.9,118.3,99.9,118.2,99.9z"/>
	</g>
	<g id="XMLID_369_">
		<path id="XMLID_370_" class="st3" d="M117.3,100.3c-0.6,0-1.5-0.7-2.2-1.8v-0.1h0.1c0.8,1.2,1.7,1.8,2.2,1.7
			c0.2-0.1,0.3-0.2,0.3-0.4c0-0.1,0.1-0.1,0.1-0.1c0.1,0,0.1,0.1,0.1,0.1c-0.1,0.4-0.3,0.5-0.4,0.6
			C117.3,100.3,117.3,100.3,117.3,100.3z"/>
	</g>
	<g id="XMLID_367_">
		<path id="XMLID_368_" class="st3" d="M116.1,100.7c-0.6,0-1.5-0.7-2-1.8v-0.1h0.1c0.6,1.2,1.5,1.8,2,1.7c0.2-0.1,0.4-0.2,0.4-0.5
			c0-0.1,0.1-0.1,0.1-0.1c0.1,0,0.1,0.1,0.1,0.1C116.6,100.4,116.4,100.6,116.1,100.7C116.2,100.7,116.2,100.7,116.1,100.7z"/>
	</g>
	<g id="XMLID_365_">
		<path id="XMLID_366_" class="st3" d="M114.8,101.1c-0.5,0-1.3-0.6-1.8-2c0-0.1,0-0.1,0.1-0.1s0.1,0,0.1,0.1
			c0.4,1.2,1.1,1.8,1.6,1.8l0,0c0.3,0,0.4-0.2,0.6-0.5c0-0.1,0.1-0.1,0.1-0.1c0.1,0,0.1,0.1,0.1,0.1
			C115.4,100.8,115.2,101,114.8,101.1C114.9,101.1,114.9,101.1,114.8,101.1z"/>
	</g>
	<g id="XMLID_363_">
		<path id="XMLID_364_" class="st3" d="M113.5,101.2C113.4,101.2,113.4,101.2,113.5,101.2c-0.6-0.1-1.3-0.8-1.5-2.2
			c0-0.1,0-0.1,0.1-0.1s0.1,0,0.1,0.1C112.4,100.3,113,101,113.5,101.2c0.3,0.1,0.5-0.1,0.6-0.4c0,0,0.1-0.1,0.1,0s0.1,0.1,0,0.1
			C114,101,113.7,101.2,113.5,101.2z"/>
	</g>
	<g id="XMLID_361_">
		<path id="XMLID_362_" class="st3" d="M112.3,101.4c-0.1,0-0.1,0-0.1,0c-0.5-0.1-1-0.9-1.1-2c0-0.1,0-0.1,0.1-0.1
			c0.1,0,0.1,0,0.1,0.1C111.4,100.7,111.9,101.2,112.3,101.4c0.2,0,0.4-0.1,0.6-0.4c0,0,0.1-0.1,0.1,0c0,0,0.1,0.1,0,0.1
			C112.8,101.2,112.6,101.4,112.3,101.4z"/>
	</g>
	<g id="XMLID_359_">
		<path id="XMLID_360_" class="st3" d="M111.2,101.5C111.1,101.5,111.1,101.5,111.2,101.5c-0.6-0.1-1.1-0.9-1.2-2
			c0-0.1,0-0.1,0.1-0.1c0.1,0,0.1,0,0.1,0.1C110.3,100.7,110.8,101.3,111.2,101.5c0.2,0,0.4-0.1,0.6-0.4c0,0,0.1-0.1,0.1,0
			c0,0,0.1,0.1,0,0.1C111.7,101.3,111.4,101.5,111.2,101.5z"/>
	</g>
	<g id="XMLID_357_">
		<path id="XMLID_358_" class="st3" d="M109.8,101.4c-0.3,0-0.4-0.1-0.7-0.3V101h0.1C109.4,101.2,109.6,101.3,109.8,101.4
			c0.3-0.1,0.5-0.3,0.6-0.5c0,0,0.1-0.1,0.1,0c0,0,0.1,0.1,0,0.1C110.3,101.2,110.1,101.4,109.8,101.4L109.8,101.4z"/>
	</g>
	<g id="XMLID_355_">
		<path id="XMLID_356_" class="st3" d="M133,89.9c-0.6,0-1.1,0-1.5,0c-0.1,0-0.1,0-0.1-0.1s0-0.1,0.1-0.1l0,0
			c3.8,0.1,14.5-0.4,16.9-2h0.1v0.1c-1.4,1-5.2,1.5-8.2,1.7C137.7,89.8,135,89.9,133,89.9z"/>
	</g>
	<g id="XMLID_353_">
		<path id="XMLID_354_" class="st3" d="M133.3,92.2c-1.1,0-2.2,0-3.3-0.1c-0.1,0-0.1,0-0.1-0.1s0-0.1,0.1-0.1
			c7,0.3,13.6-0.4,16.7-1.8c0,0,0.1,0,0.1,0.1c0,0,0,0.1-0.1,0.1C144.1,91.5,139,92.2,133.3,92.2z"/>
	</g>
	<g id="XMLID_351_">
		<path id="XMLID_352_" class="st3" d="M132.8,94.2c-1.6,0-3.2-0.1-4.1-0.1c-0.1,0-0.1-0.1-0.1-0.1c0-0.1,0-0.1,0.1-0.1l0,0
			c3.5,0.3,13,0.2,15.7-1.1h0.1v0.1C142.5,93.9,137,94.2,132.8,94.2z"/>
	</g>
	<g id="XMLID_349_">
		<path id="XMLID_350_" class="st3" d="M134.5,96.3c-2.9,0-5.9-0.2-7.9-0.4c-0.1,0-0.1-0.1-0.1-0.1c0-0.1,0-0.1,0.1-0.1l0,0
			c3.5,0.3,10.1,0.6,13.2,0.1c0.1,0,0.1,0,0.1,0.1s0,0.1-0.1,0.1C138.5,96.1,136.6,96.3,134.5,96.3z"/>
	</g>
	<g id="XMLID_347_">
		<path id="XMLID_348_" class="st3" d="M132.4,98.7L132.4,98.7c-2.3-0.1-6-0.7-8.3-1.3c-0.1,0-0.1-0.1-0.1-0.1
			c0-0.1,0.1-0.1,0.1-0.1c2.3,0.6,6,1.2,8.3,1.3C132.4,98.6,132.4,98.6,132.4,98.7C132.4,98.6,132.4,98.7,132.4,98.7z"/>
	</g>
	<g id="XMLID_345_">
		<path id="XMLID_346_" class="st3" d="M129.4,100.4c-1.8,0-5.5-0.9-7.5-1.8c0,0-0.1-0.1,0-0.1c0,0,0.1-0.1,0.1,0
			c2.2,1,6.4,1.9,7.9,1.7c0.1,0,0.1,0,0.1,0.1s0,0.1-0.1,0.1C129.7,100.3,129.5,100.4,129.4,100.4z"/>
	</g>
	<g id="XMLID_343_">
		<path id="XMLID_344_" class="st3" d="M127.3,101.9c-1.6,0-5.2-0.8-7.2-2.6v-0.1h0.1c2.2,2,6.5,2.7,7.7,2.5c0.1,0,0.1,0,0.1,0.1
			s0,0.1-0.1,0.1C127.7,101.8,127.6,101.9,127.3,101.9z"/>
	</g>
	<g id="XMLID_341_">
		<path id="XMLID_342_" class="st3" d="M123.9,102.9L123.9,102.9c-1.8-0.2-4.2-1.5-5.6-3v-0.1h0.1c1.4,1.5,3.7,2.8,5.5,3
			C123.9,102.8,124,102.8,123.9,102.9L123.9,102.9z"/>
	</g>
	<g id="XMLID_339_">
		<path id="XMLID_340_" class="st3" d="M121,103.6L121,103.6c-1.7-0.3-3.1-2-4.1-3.4v-0.1h0.1c1,1.3,2.3,3,4,3.3
			C121,103.5,121.1,103.5,121,103.6C121.1,103.6,121,103.6,121,103.6z"/>
	</g>
	<g id="XMLID_337_">
		<path id="XMLID_338_" class="st3" d="M118.9,103.8C118.9,103.8,118.8,103.8,118.9,103.8c-0.8-0.6-2.4-1.9-3.2-3.2v-0.1h0.1
			c0.8,1.3,2.3,2.6,3.2,3.2C118.9,103.7,118.9,103.8,118.9,103.8L118.9,103.8z"/>
	</g>
	<g id="XMLID_335_">
		<path id="XMLID_336_" class="st3" d="M117,103.9L117,103.9c-1.2-0.6-2-1.9-2.4-2.9c0-0.1,0-0.1,0.1-0.1s0.1,0,0.1,0.1
			c0.4,1,1.2,2.2,2.3,2.8C117,103.8,117,103.8,117,103.9L117,103.9z"/>
	</g>
	<g id="XMLID_333_">
		<path id="XMLID_334_" class="st3" d="M115.1,103.8L115.1,103.8c-0.8-0.9-1.3-1.8-1.6-2.7c0-0.1,0-0.1,0.1-0.1s0.1,0,0.1,0.1
			C113.9,102,114.4,102.8,115.1,103.8C115.1,103.7,115.1,103.7,115.1,103.8L115.1,103.8z"/>
	</g>
	<g id="XMLID_331_">
		<path id="XMLID_332_" class="st3" d="M113.4,103.8L113.4,103.8c-0.5-0.6-0.9-1.2-1.4-2.5c0-0.1,0-0.1,0.1-0.1c0,0,0.1,0,0.1,0.1
			C112.6,102.6,113,103.2,113.4,103.8C113.5,103.8,113.5,103.8,113.4,103.8L113.4,103.8z"/>
	</g>
	<g id="XMLID_329_">
		<path id="XMLID_330_" class="st3" d="M111.8,103.6C111.7,103.6,111.7,103.6,111.8,103.6c-0.6-0.6-0.9-1.2-1.5-2.5
			c0-0.1,0-0.1,0.1-0.1c0.1,0,0.1,0,0.1,0.1C111,102.5,111.3,103.1,111.8,103.6L111.8,103.6L111.8,103.6z"/>
	</g>
	<g id="XMLID_327_">
		<path id="XMLID_328_" class="st3" d="M111.8,90.1C111.7,90.1,111.7,90.1,111.8,90.1c-0.1-0.1-0.1-0.1,0-0.1
			c0.2-0.1,0.4-0.1,0.8-0.1c0.1,0,0.3,0,0.5,0c0.1,0,0.1,0,0.1,0.1s0,0.1-0.1,0.1c-0.2,0-0.3,0-0.5,0C112.2,90,112,90.1,111.8,90.1
			L111.8,90.1z"/>
	</g>
	<g id="XMLID_325_">
		<path id="XMLID_326_" class="st3" d="M112.4,89L112.4,89C112.3,89,112.3,89,112.4,89c-0.1-0.2,0.1-0.3,0.1-0.3
			c0.1-0.1,0.1-0.1,0.1-0.2s0-0.1,0.1-0.1s0.1,0,0.1,0.1c0,0.2-0.1,0.3-0.1,0.3C112.5,88.9,112.5,88.9,112.4,89
			C112.5,89,112.4,89,112.4,89z"/>
	</g>
	<g id="XMLID_323_">
		<path id="XMLID_324_" class="st3" d="M111.8,88.8L111.8,88.8c-0.4-0.3-0.9-0.1-1.1-0.1c-0.3,0.1-0.6,0-0.9-0.1s-0.6-0.1-0.9-0.1
			c-0.1,0-0.1,0-0.1-0.1s0-0.1,0.1-0.1c0.3-0.1,0.6,0,1,0.1c0.3,0.1,0.6,0.1,0.8,0.1c0.2-0.1,0.6-0.1,1.1,0.1
			C111.8,88.7,111.8,88.7,111.8,88.8L111.8,88.8z"/>
	</g>
	<g id="XMLID_321_">
		<path id="XMLID_322_" class="st3" d="M110.4,89.2C110.4,89.2,110.3,89.2,110.4,89.2c-0.3,0-0.4-0.1-0.5-0.3
			c-0.1-0.1-0.1-0.3-0.1-0.4s0.1-0.1,0.1-0.1c0.1,0,0.1,0.1,0.1,0.1c0,0.1,0,0.3,0.1,0.3c0.1,0.1,0.3,0.2,0.4,0.2
			c0.2,0,0.3-0.1,0.4-0.2s0.1-0.2,0.1-0.3c0-0.1,0-0.1,0.1-0.1s0.1,0,0.1,0.1s-0.1,0.3-0.1,0.4C110.8,89.1,110.6,89.2,110.4,89.2z"
			/>
	</g>
</g>
<g id="XMLID_44_">
	<g id="XMLID_318_">
		<path id="XMLID_319_" class="st0" d="M51.1,38.9v8.9v1l0,0c0,0.3,0,0.5-0.1,0.8c-0.2,1.4-0.8,2.6-1.8,3.6
			c-1.1,1.1-2.7,1.8-4.4,1.8s-3.2-0.7-4.3-1.8c-1.1-1.1-1.8-2.7-1.8-4.4V39L51.1,38.9L51.1,38.9z"/>
	</g>
	<g id="XMLID_309_">
		<path id="XMLID_315_" class="st4" d="M34.6,48.7L34.6,48.7L34.6,48.7c0,2.9,1.1,5.4,3,7.3c1.9,1.9,4.4,3,7.3,3s5.5-1.1,7.3-3
			c1.9-1.8,3-4.4,3-7.3l0,0v-14H34.5L34.6,48.7L34.6,48.7z M51.1,38.9v8.9v1l0,0c0,0.3,0,0.5-0.1,0.8c-0.2,1.4-0.8,2.6-1.8,3.6
			c-1.1,1.1-2.7,1.8-4.4,1.8s-3.2-0.7-4.3-1.8c-1.1-1.1-1.8-2.7-1.8-4.4V39L51.1,38.9L51.1,38.9z"/>
		<path id="XMLID_310_" class="st5" d="M45,59.1c-2.8,0-5.4-1.1-7.4-3c-2-2-3-4.6-3-7.3l0,0v-14h20.8v14c0,2.8-1.1,5.3-3,7.3
			C50.4,58,47.7,59.1,45,59.1z M34.6,48.7L34.6,48.7c0,2.7,1.1,5.3,3,7.2s4.5,3,7.3,3c2.7,0,5.3-1.1,7.3-3c1.9-1.9,3-4.5,3-7.2v-0.1
			V34.7H34.7L34.6,48.7z M45,55c-1.6,0-3.2-0.6-4.4-1.8c-1.1-1.1-1.8-2.8-1.8-4.4v-9.9h12.4v8.9v1c0,0.3,0,0.6-0.1,0.8
			c-0.2,1.3-0.8,2.6-1.8,3.6C48.2,54.4,46.6,55,45,55z M38.9,39v9.8c0,1.6,0.6,3.2,1.8,4.3c1.2,1.1,2.7,1.8,4.3,1.8
			c1.6,0,3.2-0.6,4.3-1.8c1-1,1.6-2.2,1.8-3.6c0-0.3,0.1-0.5,0.1-0.8v-1v-8.8L38.9,39z"/>
	</g>
	<g id="XMLID_301_">
		<path id="XMLID_302_" class="st6" d="M46.4,47.1v-2h-2.7v2l0,0c0,0.4,0.1,0.8,0.4,1s0.6,0.4,1,0.4s0.7-0.2,1-0.4
			C46.2,47.9,46.4,47.6,46.4,47.1L46.4,47.1z M44.3,45.7c0.1,0,0.3,0.1,0.3,0.3c0,0.1-0.1,0.3-0.3,0.3c-0.1,0-0.3-0.1-0.3-0.3
			S44.2,45.7,44.3,45.7z M44.3,47.7c-0.1,0-0.3-0.1-0.3-0.3c0-0.1,0.1-0.3,0.3-0.3s0.3,0.1,0.3,0.3C44.6,47.6,44.5,47.7,44.3,47.7z
			 M45,46.9c-0.1,0-0.3-0.1-0.3-0.3c0-0.1,0.1-0.3,0.3-0.3c0.1,0,0.3,0.1,0.3,0.3C45.3,46.8,45.2,46.9,45,46.9z M45.8,47.7
			c-0.1,0-0.3-0.1-0.3-0.3c0-0.1,0.1-0.3,0.3-0.3c0.1,0,0.3,0.1,0.3,0.3C46.1,47.6,45.9,47.7,45.8,47.7z M45.8,46.2
			c-0.1,0-0.3-0.1-0.3-0.3c0-0.1,0.1-0.3,0.3-0.3c0.1,0,0.3,0.1,0.3,0.3C46.1,46,45.9,46.2,45.8,46.2z"/>
	</g>
	<g id="XMLID_293_">
		<path id="XMLID_294_" class="st6" d="M46.4,51.8v-2h-2.7v2l0,0c0,0.4,0.1,0.8,0.4,1c0.3,0.3,0.6,0.4,1,0.4s0.7-0.2,1-0.4
			C46.2,52.6,46.4,52.2,46.4,51.8L46.4,51.8z M44.3,50.4c0.1,0,0.3,0.1,0.3,0.3S44.5,51,44.3,51c-0.1,0-0.3-0.1-0.3-0.3
			S44.2,50.4,44.3,50.4z M44.3,52.4c-0.1,0-0.3-0.1-0.3-0.3c0-0.1,0.1-0.3,0.3-0.3s0.3,0.1,0.3,0.3C44.6,52.3,44.5,52.4,44.3,52.4z
			 M45,51.6c-0.1,0-0.3-0.1-0.3-0.3c0-0.1,0.1-0.3,0.3-0.3s0.3,0.1,0.3,0.3S45.2,51.6,45,51.6z M45.8,52.4c-0.1,0-0.3-0.1-0.3-0.3
			c0-0.1,0.1-0.3,0.3-0.3c0.1,0,0.3,0.1,0.3,0.3C46.1,52.3,45.9,52.4,45.8,52.4z M45.8,50.9c-0.1,0-0.3-0.1-0.3-0.3
			c0-0.1,0.1-0.3,0.3-0.3c0.1,0,0.3,0.1,0.3,0.3C46.1,50.7,45.9,50.9,45.8,50.9z"/>
	</g>
	<g id="XMLID_285_">
		<path id="XMLID_286_" class="st6" d="M42.6,47.1v-2h-2.7v2l0,0c0,0.4,0.1,0.8,0.4,1c0.3,0.3,0.6,0.4,1,0.4s0.7-0.2,1-0.4
			C42.4,47.9,42.6,47.6,42.6,47.1L42.6,47.1z M40.5,45.7c0.1,0,0.3,0.1,0.3,0.3c0,0.1-0.1,0.3-0.3,0.3s-0.3-0.1-0.3-0.3
			C40.3,45.8,40.4,45.7,40.5,45.7z M40.5,47.7c-0.1,0-0.3-0.1-0.3-0.3c0-0.1,0.1-0.3,0.3-0.3s0.3,0.1,0.3,0.3
			C40.8,47.6,40.7,47.7,40.5,47.7z M41.2,46.9c-0.1,0-0.3-0.1-0.3-0.3c0-0.1,0.1-0.3,0.3-0.3s0.3,0.1,0.3,0.3
			C41.6,46.8,41.4,46.9,41.2,46.9z M42,47.7c-0.1,0-0.3-0.1-0.3-0.3c0-0.1,0.1-0.3,0.3-0.3c0.1,0,0.3,0.1,0.3,0.3
			C42.3,47.6,42.2,47.7,42,47.7z M42,46.2c-0.1,0-0.3-0.1-0.3-0.3c0-0.1,0.1-0.3,0.3-0.3c0.1,0,0.3,0.1,0.3,0.3S42.2,46.2,42,46.2z"
			/>
	</g>
	<g id="XMLID_277_">
		<path id="XMLID_278_" class="st6" d="M50.2,47.1v-2h-2.7v2l0,0c0,0.4,0.1,0.8,0.4,1c0.3,0.3,0.6,0.4,1,0.4s0.7-0.2,1-0.4
			C50,47.9,50.2,47.6,50.2,47.1L50.2,47.1z M48.1,45.7c0.1,0,0.3,0.1,0.3,0.3c0,0.1-0.1,0.3-0.3,0.3c-0.1,0-0.3-0.1-0.3-0.3
			C47.8,45.8,48,45.7,48.1,45.7z M48.1,47.7c-0.1,0-0.3-0.1-0.3-0.3c0-0.1,0.1-0.3,0.3-0.3c0.1,0,0.3,0.1,0.3,0.3
			C48.3,47.6,48.2,47.7,48.1,47.7z M48.8,46.9c-0.1,0-0.3-0.1-0.3-0.3c0-0.1,0.1-0.3,0.3-0.3c0.1,0,0.3,0.1,0.3,0.3
			C49.1,46.8,49,46.9,48.8,46.9z M49.5,47.7c-0.1,0-0.3-0.1-0.3-0.3c0-0.1,0.1-0.3,0.3-0.3s0.3,0.1,0.3,0.3
			C49.8,47.6,49.7,47.7,49.5,47.7z M49.5,46.2c-0.1,0-0.3-0.1-0.3-0.3c0-0.1,0.1-0.3,0.3-0.3c0.1,0,0.3,0.1,0.3,0.3
			C49.8,46,49.7,46.2,49.5,46.2z"/>
	</g>
	<g id="XMLID_269_">
		<path id="XMLID_270_" class="st6" d="M46.4,42.4v-2h-2.7v2l0,0c0,0.4,0.1,0.8,0.4,1c0.3,0.3,0.6,0.4,1,0.4s0.7-0.2,1-0.4
			C46.2,43.2,46.4,42.8,46.4,42.4L46.4,42.4z M44.3,40.9c0.1,0,0.3,0.1,0.3,0.3c0,0.1-0.1,0.3-0.3,0.3c-0.1,0-0.3-0.1-0.3-0.3
			S44.2,40.9,44.3,40.9z M44.3,42.9c-0.1,0-0.3-0.1-0.3-0.3c0-0.1,0.1-0.3,0.3-0.3s0.3,0.1,0.3,0.3C44.6,42.8,44.5,42.9,44.3,42.9z
			 M45,42.2c-0.1,0-0.3-0.1-0.3-0.3c0-0.1,0.1-0.3,0.3-0.3c0.1,0,0.3,0.1,0.3,0.3C45.3,42,45.2,42.2,45,42.2z M45.8,42.9
			c-0.1,0-0.3-0.1-0.3-0.3c0-0.1,0.1-0.3,0.3-0.3c0.1,0,0.3,0.1,0.3,0.3C46.1,42.8,45.9,42.9,45.8,42.9z M45.8,41.5
			c-0.1,0-0.3-0.1-0.3-0.3c0-0.1,0.1-0.3,0.3-0.3c0.1,0,0.3,0.1,0.3,0.3C46.1,41.3,45.9,41.5,45.8,41.5z"/>
	</g>
	<g id="XMLID_237_">
		<path id="XMLID_268_" class="st7" d="M36,38.4c0-1,0.8-1.3,0.8-1.3s0.8,0.3,0.8,1.3H36L36,38.4z"/>
		<path id="XMLID_267_" class="st7" d="M35.3,37.2l-0.1,1.1H36c0-1,0.7-1.1,0.8-1.1c0,0,0.7,0.2,0.8,1.1h0.8l-0.1-1.1H35.3
			L35.3,37.2z"/>
		<path id="XMLID_266_" class="st7" d="M35.1,38.4h3.1c0.1,0,0.1,0.1,0.1,0.1l0,0c0,0.1-0.1,0.1-0.1,0.1h-3.1
			c-0.1,0-0.1-0.1-0.1-0.1l0,0C35,38.4,35.1,38.4,35.1,38.4L35.1,38.4z"/>
		<path id="XMLID_265_" class="st7" d="M36.3,38.4c0-0.6,0.4-0.8,0.4-0.8s0.4,0.2,0.4,0.8H36.3L36.3,38.4z"/>
		<path id="XMLID_264_" class="st7" d="M35.2,36.7h3c0.1,0,0.1,0.1,0.1,0.1l0,0c0,0.1-0.1,0.1-0.1,0.1h-3c-0.1,0-0.1-0.1-0.1-0.1
			l0,0C35.1,36.8,35.1,36.7,35.2,36.7L35.2,36.7z"/>
		<path id="XMLID_263_" class="st7" d="M35.3,37h2.9c0.1,0,0.1,0.1,0.1,0.1l0,0c0,0.1-0.1,0.1-0.1,0.1h-2.9c-0.1,0-0.1-0.1-0.1-0.1
			l0,0C35.1,37,35.2,37,35.3,37L35.3,37z"/>
		<path id="XMLID_262_" class="st7" d="M36.2,35.1h0.3v0.1h0.2V35H37v0.2h0.2V35h0.3v0.4c0,0.1-0.1,0.1-0.1,0.1h-0.8
			c-0.1,0-0.1-0.1-0.1-0.1L36.2,35.1L36.2,35.1z"/>
		<polygon id="XMLID_261_" class="st7" points="37.1,35.5 37.1,36.7 36.3,36.7 36.4,35.5 		"/>
		<path id="XMLID_260_" class="st7" d="M37.2,35.6h0.2v0.1h0.2v-0.1h0.3v0.2h0.2v-0.2h0.3V36c0,0.1-0.1,0.1-0.1,0.1h-0.8
			c-0.1,0-0.1-0.1-0.1-0.1L37.2,35.6L37.2,35.6z"/>
		<polygon id="XMLID_259_" class="st7" points="38,36.1 38,36.7 37.3,36.7 37.3,36.1 		"/>
		<path id="XMLID_258_" class="st7" d="M35.2,35.6h0.2v0.1h0.2v-0.1h0.3v0.2h0.2v-0.2h0.3V36c0,0.1-0.1,0.1-0.1,0.1h-0.8
			c-0.1,0-0.1-0.1-0.1-0.1L35.2,35.6L35.2,35.6z"/>
		<polygon id="XMLID_257_" class="st7" points="36.1,36.1 36.1,36.7 35.3,36.7 35.4,36.1 		"/>
		<g id="XMLID_238_">
			<path id="XMLID_256_" class="st5" d="M36.6,35.9v0.3h0.1L36.6,35.9C36.8,35.8,36.6,35.8,36.6,35.9z"/>
			<path id="XMLID_255_" class="st5" d="M37.6,36.3v0.2h0.1L37.6,36.3C37.7,36.2,37.6,36.2,37.6,36.3z"/>
			<path id="XMLID_254_" class="st5" d="M35.7,36.3v0.2h0.1L35.7,36.3C35.8,36.2,35.7,36.2,35.7,36.3z"/>
			<path id="XMLID_239_" class="st5" d="M38.3,38.3l-0.1-1c0.1,0,0.1-0.1,0.1-0.2c0-0.1,0-0.1,0-0.1c0.1,0,0.1-0.1,0.1-0.2
				c0-0.1-0.1-0.2-0.1-0.2h-0.1V36c0.1,0,0.1-0.1,0.1-0.1v-0.4H38v0.2h-0.1v-0.2h-0.3v0.2h-0.1v-0.1h-0.3V36c0,0.1,0.1,0.1,0.1,0.1
				v0.6h-0.1l-0.1-1.1l0,0c0.1,0,0.1-0.1,0.1-0.1V35h-0.3v0.2h-0.1V35h-0.3v0.2h-0.1V35h-0.3v0.4c0,0.1,0.1,0.1,0.1,0.1l0,0
				l-0.1,1.1H36V36c0.1,0,0.1-0.1,0.1-0.1v-0.4h-0.3v0.2h-0.1v-0.2h-0.3v0.2h-0.1v-0.1H35V36c0,0.1,0.1,0.1,0.1,0.1v0.6H35
				c-0.1,0-0.1,0.1-0.1,0.2c0,0.1,0.1,0.1,0.1,0.2v0.1c0,0.1,0.1,0.2,0.1,0.2l-0.1,1l0,0c-0.1,0-0.2,0.1-0.2,0.2
				c0,0.1,0.1,0.2,0.2,0.2h3.1c0.1,0,0.2-0.1,0.2-0.2C38.4,38.4,38.3,38.3,38.3,38.3z M38.1,38.3h-0.6c0-0.4-0.2-0.7-0.4-0.9
				c-0.1-0.1-0.1-0.1-0.2-0.1H38L38.1,38.3z M36.7,37.5L36.7,37.5c-0.1,0-0.1,0.1-0.2,0.1c-0.1,0.1-0.3,0.3-0.3,0.7h-0.3
				c0-0.9,0.7-1,0.7-1s0.6,0.2,0.7,1H37C37.1,37.7,36.7,37.5,36.7,37.5z M37.1,38.3h-0.8c0-0.4,0.3-0.6,0.4-0.7
				C36.7,37.7,37.1,37.9,37.1,38.3z M37.2,36v-0.3h0.1v0.1h0.3v-0.1h0.1v0.2H38v-0.2h0.1V36c0,0.1,0,0.1-0.1,0.1L37.2,36L37.2,36z
				 M38,36.7h-0.6v-0.6H38V36.7z M36.3,35.5C36.3,35.5,36.2,35.5,36.3,35.5l-0.1-0.4h0.1v0.1h0.3V35h0.1v0.2H37V35h0.1v0.3
				c0,0.1,0,0.1-0.1,0.1L36.3,35.5L36.3,35.5z M37.1,36.7h-0.7l0.1-1.1h0.6V36.7z M35.3,36v-0.3h0.1v0.1h0.3v-0.1h0.1v0.2h0.3v-0.2
				h0.1V36c0,0.1,0,0.1-0.1,0.1L35.3,36L35.3,36z M36,36.7h-0.6v-0.6H36V36.7z M35.1,36.8L35.1,36.8l3-0.1c0.1,0,0.1,0.1,0.1,0.1
				c0,0.1,0,0.1-0.1,0.1L35.1,36.8C35.2,36.9,35.1,36.9,35.1,36.8z M35.2,37.1C35.2,37,35.2,37,35.2,37.1l2.9-0.1
				c0.1,0,0.1,0.1,0.1,0.1c0,0.1,0,0.1-0.1,0.1l0,0h-2.8l0,0C35.3,37.2,35.2,37.2,35.2,37.1z M35.3,37.3h1.1c-0.1,0-0.1,0.1-0.2,0.1
				c-0.2,0.1-0.4,0.4-0.4,1h-0.6L35.3,37.3z M38.3,38.6h-3.1c-0.1,0-0.1-0.1-0.1-0.1c0-0.1,0.1-0.1,0.1-0.1h3.1
				c0.1,0,0.1,0.1,0.1,0.1C38.3,38.6,38.3,38.6,38.3,38.6z"/>
		</g>
	</g>
	<g id="XMLID_205_">
		<path id="XMLID_236_" class="st7" d="M44.2,38.4c0-1,0.8-1.3,0.8-1.3s0.8,0.3,0.8,1.3H44.2L44.2,38.4z"/>
		<path id="XMLID_235_" class="st7" d="M43.6,37.2l-0.1,1.1h0.8c0-1,0.7-1.1,0.8-1.1c0,0,0.7,0.2,0.8,1.1h0.8l-0.1-1.1H43.6
			L43.6,37.2z"/>
		<path id="XMLID_234_" class="st7" d="M43.5,38.4h3.1c0.1,0,0.1,0.1,0.1,0.1l0,0c0,0.1-0.1,0.1-0.1,0.1h-3.1
			c-0.1,0-0.1-0.1-0.1-0.1l0,0C43.3,38.4,43.4,38.4,43.5,38.4L43.5,38.4z"/>
		<path id="XMLID_233_" class="st7" d="M44.6,38.4c0-0.6,0.4-0.8,0.4-0.8s0.4,0.2,0.4,0.8H44.6L44.6,38.4z"/>
		<path id="XMLID_232_" class="st7" d="M43.5,36.7h3c0.1,0,0.1,0.1,0.1,0.1l0,0c0,0.1-0.1,0.1-0.1,0.1h-3c-0.1,0-0.1-0.1-0.1-0.1
			l0,0L43.5,36.7L43.5,36.7z"/>
		<path id="XMLID_231_" class="st7" d="M43.6,37h2.9c0.1,0,0.1,0.1,0.1,0.1l0,0c0,0.1-0.1,0.1-0.1,0.1h-2.9c-0.1,0-0.1-0.1-0.1-0.1
			l0,0C43.5,37,43.5,37,43.6,37L43.6,37z"/>
		<path id="XMLID_230_" class="st7" d="M44.5,35.1h0.3v0.1H45V35h0.3v0.2h0.2V35h0.3v0.4c0,0.1-0.1,0.1-0.1,0.1h-0.8
			c-0.1,0-0.1-0.1-0.1-0.1L44.5,35.1L44.5,35.1z"/>
		<polygon id="XMLID_229_" class="st7" points="45.4,35.5 45.4,36.7 44.6,36.7 44.7,35.5 		"/>
		<path id="XMLID_228_" class="st7" d="M45.5,35.6h0.2v0.1h0.2v-0.1h0.3v0.2h0.2v-0.2h0.3V36c0,0.1-0.1,0.1-0.1,0.1h-0.8
			c-0.1,0-0.1-0.1-0.1-0.1L45.5,35.6L45.5,35.6z"/>
		<polygon id="XMLID_227_" class="st7" points="46.3,36.1 46.3,36.7 45.6,36.7 45.6,36.1 		"/>
		<path id="XMLID_226_" class="st7" d="M43.5,35.6h0.2v0.1h0.2v-0.1h0.3v0.2h0.2v-0.2h0.3V36c0,0.1-0.1,0.1-0.1,0.1h-0.8
			c-0.1,0-0.1-0.1-0.1-0.1L43.5,35.6L43.5,35.6z"/>
		<polygon id="XMLID_225_" class="st7" points="44.4,36.1 44.4,36.7 43.6,36.7 43.7,36.1 		"/>
		<g id="XMLID_206_">
			<path id="XMLID_224_" class="st5" d="M44.9,35.9v0.3H45L44.9,35.9C45.1,35.8,44.9,35.8,44.9,35.9z"/>
			<path id="XMLID_223_" class="st5" d="M45.9,36.3v0.2H46L45.9,36.3C46.1,36.2,45.9,36.2,45.9,36.3z"/>
			<path id="XMLID_222_" class="st5" d="M44,36.3v0.2h0.1L44,36.3C44.1,36.2,44,36.2,44,36.3z"/>
			<path id="XMLID_207_" class="st5" d="M46.6,38.3l-0.1-1c0.1,0,0.1-0.1,0.1-0.2c0-0.1,0-0.1,0-0.1c0.1,0,0.1-0.1,0.1-0.2
				c0-0.1-0.1-0.2-0.1-0.2h-0.1V36c0.1,0,0.1-0.1,0.1-0.1v-0.4h-0.3v0.2h-0.1v-0.2h-0.3v0.2h-0.1v-0.1h-0.3V36
				c0,0.1,0.1,0.1,0.1,0.1v0.6h-0.1l-0.1-1.1l0,0c0.1,0,0.1-0.1,0.1-0.1V35h-0.3v0.2h-0.1V35h-0.3v0.2h-0.1V35h-0.3v0.4
				c0,0.1,0.1,0.1,0.1,0.1l0,0l-0.1,1.1h-0.1V36c0.1,0,0.1-0.1,0.1-0.1v-0.4h-0.3v0.2H44v-0.2h-0.3v0.2h-0.1v-0.1h-0.3V36
				c0,0.1,0.1,0.1,0.1,0.1v0.6h-0.1c-0.1,0-0.1,0.1-0.1,0.2c0,0.1,0.1,0.1,0.1,0.2v0.1c0,0.1,0.1,0.2,0.1,0.2l-0.1,1l0,0
				c-0.1,0-0.2,0.1-0.2,0.2c0,0.1,0.1,0.2,0.2,0.2h3.1c0.1,0,0.2-0.1,0.2-0.2C46.7,38.4,46.6,38.3,46.6,38.3z M46.4,38.3h-0.6
				c0-0.4-0.2-0.7-0.4-0.9c-0.1-0.1-0.1-0.1-0.2-0.1h1.1L46.4,38.3z M45,37.5L45,37.5c-0.1,0-0.1,0.1-0.2,0.1
				c-0.1,0.1-0.3,0.3-0.3,0.7h-0.3c0-0.9,0.7-1,0.7-1s0.6,0.2,0.7,1h-0.3C45.4,37.7,45,37.5,45,37.5z M45.4,38.3h-0.8
				c0-0.4,0.3-0.6,0.4-0.7C45,37.7,45.4,37.9,45.4,38.3z M45.5,36v-0.3h0.1v0.1h0.3v-0.1H46v0.2h0.3v-0.2h0.1V36
				c0,0.1,0,0.1-0.1,0.1L45.5,36C45.6,36,45.5,36,45.5,36z M46.3,36.7h-0.6v-0.6h0.6V36.7z M44.6,35.5
				C44.6,35.5,44.5,35.5,44.6,35.5l-0.1-0.4h0.1v0.1h0.3V35H45v0.2h0.3V35h0.1v0.3c0,0.1,0,0.1-0.1,0.1L44.6,35.5L44.6,35.5z
				 M45.4,36.7h-0.7l0.1-1.1h0.6V36.7z M43.6,36v-0.3h0.1v0.1H44v-0.1h0.1v0.2h0.3v-0.2h0.1V36c0,0.1,0,0.1-0.1,0.1L43.6,36L43.6,36
				z M44.3,36.7h-0.6v-0.6h0.6V36.7z M43.5,36.8L43.5,36.8l3-0.1c0.1,0,0.1,0.1,0.1,0.1s0,0.1-0.1,0.1L43.5,36.8
				C43.5,36.9,43.5,36.9,43.5,36.8z M43.5,37.1C43.5,37,43.5,37,43.5,37.1l2.9-0.1c0.1,0,0.1,0.1,0.1,0.1c0,0.1,0,0.1-0.1,0.1l0,0
				h-2.8l0,0C43.6,37.2,43.5,37.2,43.5,37.1z M43.6,37.3h1.1c-0.1,0-0.1,0.1-0.2,0.1c-0.2,0.1-0.4,0.4-0.4,1h-0.6L43.6,37.3z
				 M46.6,38.6h-3.1c-0.1,0-0.1-0.1-0.1-0.1c0-0.1,0.1-0.1,0.1-0.1h3.1c0.1,0,0.1,0.1,0.1,0.1C46.6,38.6,46.6,38.6,46.6,38.6z"/>
		</g>
	</g>
	<g id="XMLID_173_">
		<path id="XMLID_204_" class="st7" d="M52.5,38.4c0-1,0.8-1.3,0.8-1.3s0.8,0.3,0.8,1.3H52.5L52.5,38.4z"/>
		<path id="XMLID_203_" class="st7" d="M51.8,37.2l-0.1,1.1h0.8c0-1,0.7-1.1,0.8-1.1c0,0,0.7,0.2,0.8,1.1h0.8l-0.1-1.1H51.8
			L51.8,37.2z"/>
		<path id="XMLID_202_" class="st7" d="M51.7,38.4h3.1c0.1,0,0.1,0.1,0.1,0.1l0,0c0,0.1-0.1,0.1-0.1,0.1h-3.1
			c-0.1,0-0.1-0.1-0.1-0.1l0,0C51.6,38.4,51.6,38.4,51.7,38.4L51.7,38.4z"/>
		<path id="XMLID_201_" class="st7" d="M52.8,38.4c0-0.6,0.4-0.8,0.4-0.8s0.4,0.2,0.4,0.8H52.8L52.8,38.4z"/>
		<path id="XMLID_200_" class="st7" d="M51.8,36.7h3c0.1,0,0.1,0.1,0.1,0.1l0,0c0,0.1-0.1,0.1-0.1,0.1h-3c-0.1,0-0.1-0.1-0.1-0.1
			l0,0C51.6,36.8,51.7,36.7,51.8,36.7L51.8,36.7z"/>
		<path id="XMLID_199_" class="st7" d="M51.8,37h2.9c0.1,0,0.1,0.1,0.1,0.1l0,0c0,0.1-0.1,0.1-0.1,0.1h-2.9c-0.1,0-0.1-0.1-0.1-0.1
			l0,0C51.7,37,51.8,37,51.8,37L51.8,37z"/>
		<path id="XMLID_198_" class="st7" d="M52.7,35.1H53v0.1h0.2V35h0.3v0.2h0.2V35H54v0.4c0,0.1-0.1,0.1-0.1,0.1h-0.8
			c-0.1,0-0.1-0.1-0.1-0.1L52.7,35.1L52.7,35.1z"/>
		<polygon id="XMLID_197_" class="st7" points="53.5,35.5 53.6,36.7 52.8,36.7 52.8,35.5 		"/>
		<path id="XMLID_196_" class="st7" d="M53.7,35.6h0.2v0.1h0.2v-0.1h0.3v0.2h0.2v-0.2h0.3V36c0,0.1-0.1,0.1-0.1,0.1H54
			c-0.1,0-0.1-0.1-0.1-0.1L53.7,35.6L53.7,35.6z"/>
		<polygon id="XMLID_195_" class="st7" points="54.5,36.1 54.6,36.7 53.8,36.7 53.8,36.1 		"/>
		<path id="XMLID_194_" class="st7" d="M51.8,35.6H52v0.1h0.2v-0.1h0.3v0.2h0.2v-0.2H53V36c0,0.1-0.1,0.1-0.1,0.1h-0.8
			C52,36.1,52,36,52,36L51.8,35.6L51.8,35.6z"/>
		<polygon id="XMLID_193_" class="st7" points="52.6,36.1 52.6,36.7 51.9,36.7 51.9,36.1 		"/>
		<g id="XMLID_174_">
			<path id="XMLID_192_" class="st5" d="M53.2,35.9v0.3h0.1L53.2,35.9C53.3,35.8,53.1,35.8,53.2,35.9z"/>
			<path id="XMLID_191_" class="st5" d="M54.1,36.3v0.2h0.1L54.1,36.3C54.2,36.2,54.1,36.2,54.1,36.3z"/>
			<path id="XMLID_190_" class="st5" d="M52.1,36.3v0.2h0.1L52.1,36.3C52.3,36.2,52.1,36.2,52.1,36.3z"/>
			<path id="XMLID_175_" class="st5" d="M54.7,38.3l-0.1-1c0.1,0,0.1-0.1,0.1-0.2c0-0.1,0-0.1,0-0.1c0.1,0,0.1-0.1,0.1-0.2
				c0-0.1-0.1-0.2-0.1-0.2h-0.1V36c0.1,0,0.1-0.1,0.1-0.1v-0.4h-0.3v0.2h-0.1v-0.2H54v0.2l0,0v-0.1h-0.3V36c0,0.1,0.1,0.1,0.1,0.1
				v0.6h-0.1l-0.1-1.1l0,0c0.1,0,0.1-0.1,0.1-0.1V35h-0.3v0.2h-0.1V35H53v0.2h-0.1V35h-0.3v0.4c0,0.1,0.1,0.1,0.1,0.1l0,0l-0.1,1.1
				h-0.1V36c0.1,0,0.1-0.1,0.1-0.1v-0.4h-0.3v0.2h-0.1v-0.2h-0.3v0.2h-0.1v-0.1h-0.3V36c0,0.1,0.1,0.1,0.1,0.1v0.6h-0.1
				c-0.1,0-0.1,0.1-0.1,0.2c0,0.1,0.1,0.1,0.1,0.2v0.1c0,0.1,0.1,0.2,0.1,0.2l-0.1,1l0,0c-0.1,0-0.2,0.1-0.2,0.2
				c0,0.1,0.1,0.2,0.2,0.2h3.1c0.1,0,0.2-0.1,0.2-0.2C54.9,38.4,54.8,38.3,54.7,38.3z M54.7,38.3H54c0-0.4-0.2-0.7-0.4-0.9
				c-0.1-0.1-0.1-0.1-0.2-0.1h1.1L54.7,38.3z M53.2,37.5L53.2,37.5c-0.1,0-0.1,0.1-0.2,0.1c-0.1,0.1-0.3,0.3-0.3,0.7h-0.3
				c0-0.9,0.7-1,0.7-1s0.6,0.2,0.7,1h-0.3C53.7,37.7,53.2,37.5,53.2,37.5z M53.6,38.3h-0.8c0-0.4,0.3-0.6,0.4-0.7
				C53.3,37.7,53.5,37.9,53.6,38.3z M53.7,36v-0.3h0.1v0.1h0.3v-0.1h0.1v0.2h0.3v-0.2h0.1V36c0,0.1,0,0.1-0.1,0.1L53.7,36L53.7,36z
				 M54.5,36.7h-0.6v-0.6h0.6V36.7z M52.8,35.5L52.8,35.5l-0.1-0.4h0.1v0.1h0.3V35h0.1v0.2h0.3V35h0.1v0.3c0,0.1,0,0.1-0.1,0.1
				L52.8,35.5L52.8,35.5z M53.5,36.7h-0.7l0.1-1.1h0.6V36.7z M51.8,36v-0.3h0.1v0.1h0.3v-0.1h0.1v0.2h0.3v-0.2h0.1V36
				c0,0.1,0,0.1-0.1,0.1L51.8,36L51.8,36z M52.6,36.7H52v-0.6h0.6V36.7z M51.6,36.8L51.6,36.8l3-0.1c0.1,0,0.1,0.1,0.1,0.1
				s0,0.1-0.1,0.1L51.6,36.8C51.7,36.9,51.6,36.9,51.6,36.8z M51.8,37.1C51.8,37,51.8,37,51.8,37.1l2.9-0.1c0.1,0,0.1,0.1,0.1,0.1
				c0,0.1,0,0.1-0.1,0.1l0,0h-2.8l0,0C51.8,37.2,51.8,37.2,51.8,37.1z M51.9,37.3H53c-0.1,0-0.1,0.1-0.2,0.1c-0.2,0.1-0.4,0.4-0.4,1
				h-0.6L51.9,37.3z M54.7,38.6h-3.1c-0.1,0-0.1-0.1-0.1-0.1c0-0.1,0.1-0.1,0.1-0.1h3.1c0.1,0,0.1,0.1,0.1,0.1
				C54.8,38.6,54.8,38.6,54.7,38.6z"/>
		</g>
	</g>
	<g id="XMLID_141_">
		<path id="XMLID_172_" class="st7" d="M52.5,46.8c0-1,0.8-1.3,0.8-1.3s0.8,0.3,0.8,1.3H52.5L52.5,46.8z"/>
		<path id="XMLID_171_" class="st7" d="M51.8,45.6l-0.1,1.1h0.8c0-1,0.7-1.1,0.8-1.1c0,0,0.7,0.2,0.8,1.1h0.8l-0.1-1.1H51.8
			L51.8,45.6z"/>
		<path id="XMLID_170_" class="st7" d="M51.7,46.7h3.1c0.1,0,0.1,0.1,0.1,0.1l0,0c0,0.1-0.1,0.1-0.1,0.1h-3.1
			c-0.1,0-0.1-0.1-0.1-0.1l0,0C51.6,46.8,51.6,46.7,51.7,46.7L51.7,46.7z"/>
		<path id="XMLID_169_" class="st7" d="M52.8,46.7c0-0.6,0.4-0.8,0.4-0.8s0.4,0.2,0.4,0.8H52.8L52.8,46.7z"/>
		<path id="XMLID_168_" class="st7" d="M51.8,45.2h3c0.1,0,0.1,0.1,0.1,0.1l0,0c0,0.1-0.1,0.1-0.1,0.1h-3c-0.1,0-0.1-0.1-0.1-0.1
			l0,0C51.6,45.2,51.7,45.2,51.8,45.2L51.8,45.2z"/>
		<path id="XMLID_167_" class="st7" d="M51.8,45.4h2.9c0.1,0,0.1,0.1,0.1,0.1l0,0c0,0.1-0.1,0.1-0.1,0.1h-2.9
			c-0.1,0-0.1-0.1-0.1-0.1l0,0C51.7,45.4,51.8,45.4,51.8,45.4L51.8,45.4z"/>
		<path id="XMLID_166_" class="st7" d="M52.7,43.4H53v0.1h0.2v-0.2h0.3v0.2h0.2v-0.2H54v0.4c0,0.1-0.1,0.1-0.1,0.1h-0.8
			c-0.1,0-0.1-0.1-0.1-0.1L52.7,43.4L52.7,43.4z"/>
		<polygon id="XMLID_165_" class="st7" points="53.5,43.9 53.6,45.1 52.8,45.1 52.8,43.9 		"/>
		<path id="XMLID_164_" class="st7" d="M53.7,44h0.2v0.1h0.2v-0.2h0.3v0.2h0.2v-0.2h0.3v0.4c0,0.1-0.1,0.1-0.1,0.1H54
			c-0.1,0-0.1-0.1-0.1-0.1L53.7,44L53.7,44z"/>
		<polygon id="XMLID_163_" class="st7" points="54.5,44.5 54.6,45.1 53.8,45.1 53.8,44.5 		"/>
		<path id="XMLID_162_" class="st7" d="M51.8,44H52v0.1h0.2v-0.2h0.3v0.2h0.2v-0.2H53v0.4c0,0.1-0.1,0.1-0.1,0.1h-0.8
			c-0.1,0-0.1-0.1-0.1-0.1L51.8,44L51.8,44z"/>
		<polygon id="XMLID_161_" class="st7" points="52.6,44.5 52.6,45.1 51.9,45.1 51.9,44.5 		"/>
		<g id="XMLID_142_">
			<path id="XMLID_160_" class="st5" d="M53.2,44.3v0.3h0.1L53.2,44.3C53.3,44.2,53.1,44.2,53.2,44.3z"/>
			<path id="XMLID_159_" class="st5" d="M54.1,44.7v0.2h0.1L54.1,44.7C54.2,44.6,54.1,44.6,54.1,44.7z"/>
			<path id="XMLID_158_" class="st5" d="M52.1,44.7v0.2h0.1L52.1,44.7C52.3,44.6,52.1,44.6,52.1,44.7z"/>
			<path id="XMLID_143_" class="st5" d="M54.7,46.7l-0.1-1c0.1,0,0.1-0.1,0.1-0.2c0-0.1,0-0.1,0-0.1c0.1,0,0.1-0.1,0.1-0.2
				c0-0.1-0.1-0.2-0.1-0.2h-0.1v-0.6c0.1,0,0.1-0.1,0.1-0.1v-0.4h-0.3v0.2h-0.1v-0.2H54v0.2l0,0V44h-0.3v0.4c0,0.1,0.1,0.1,0.1,0.1
				v0.6h-0.1L53.6,44l0,0c0.1,0,0.1-0.1,0.1-0.1v-0.4h-0.3v0.2h-0.1v-0.2H53v0.2h-0.1v-0.1h-0.3V44c0,0.1,0.1,0.1,0.1,0.1l0,0
				l-0.1,1.1h-0.1v-0.6c0.1,0,0.1-0.1,0.1-0.1v-0.4h-0.3v0.2h-0.1v-0.2h-0.3v0.2h-0.1v-0.1h-0.3v0.4c0,0.1,0.1,0.1,0.1,0.1v0.6h-0.1
				c-0.1,0-0.1,0.1-0.1,0.2c0,0.1,0.1,0.1,0.1,0.2v0.1c0,0.1,0.1,0.2,0.1,0.2l-0.1,1l0,0c-0.1,0-0.2,0.1-0.2,0.2
				c0,0.1,0.1,0.2,0.2,0.2h3.1c0.1,0,0.2-0.1,0.2-0.2C54.9,46.8,54.8,46.7,54.7,46.7z M54.7,46.7H54c0-0.4-0.2-0.7-0.4-0.9
				c-0.1-0.1-0.1-0.1-0.2-0.1h1.1L54.7,46.7z M53.2,45.9L53.2,45.9c-0.1,0-0.1,0.1-0.2,0.1c-0.1,0.1-0.3,0.3-0.3,0.7h-0.3
				c0-0.9,0.7-1,0.7-1s0.6,0.2,0.7,1h-0.3C53.7,46.2,53.2,45.9,53.2,45.9z M53.6,46.7h-0.8c0-0.4,0.3-0.6,0.4-0.7
				C53.3,46,53.5,46.2,53.6,46.7z M53.7,44.4v-0.3h0.1v0.1h0.3V44h0.1v0.2h0.3V44h0.1v0.3c0,0.1,0,0.1-0.1,0.1L53.7,44.4
				C53.7,44.5,53.7,44.4,53.7,44.4z M54.5,45.1h-0.6v-0.6h0.6V45.1z M52.8,43.9C52.8,43.9,52.8,43.8,52.8,43.9l-0.1-0.4h0.1v0.1h0.3
				v-0.2h0.1v0.2h0.3v-0.2h0.1v0.3c0,0.1,0,0.1-0.1,0.1L52.8,43.9L52.8,43.9z M53.5,45.1h-0.7l0.1-1.1h0.6V45.1z M51.8,44.4v-0.3
				h0.1v0.1h0.3V44h0.1v0.2h0.3V44h0.1v0.3c0,0.1,0,0.1-0.1,0.1L51.8,44.4C51.8,44.5,51.8,44.4,51.8,44.4z M52.6,45.1H52v-0.6h0.6
				V45.1z M51.6,45.3C51.6,45.2,51.6,45.2,51.6,45.3l3-0.1c0.1,0,0.1,0.1,0.1,0.1s0,0.1-0.1,0.1L51.6,45.3
				C51.7,45.3,51.6,45.3,51.6,45.3z M51.8,45.5L51.8,45.5l2.9-0.1c0.1,0,0.1,0.1,0.1,0.1c0,0.1,0,0.1-0.1,0.1l0,0h-2.8l0,0
				C51.8,45.6,51.8,45.5,51.8,45.5z M51.9,45.7H53c-0.1,0-0.1,0.1-0.2,0.1c-0.2,0.1-0.4,0.4-0.4,1h-0.6L51.9,45.7z M54.7,47h-3.1
				c-0.1,0-0.1-0.1-0.1-0.1c0-0.1,0.1-0.1,0.1-0.1h3.1c0.1,0,0.1,0.1,0.1,0.1C54.8,46.9,54.8,47,54.7,47z"/>
		</g>
	</g>
	<g id="XMLID_109_">
		<path id="XMLID_140_" class="st7" d="M36,46.8c0-1,0.8-1.3,0.8-1.3s0.8,0.3,0.8,1.3H36L36,46.8z"/>
		<path id="XMLID_139_" class="st7" d="M35.3,45.6l-0.1,1.1H36c0-1,0.7-1.1,0.8-1.1c0,0,0.7,0.2,0.8,1.1h0.8l-0.1-1.1H35.3
			L35.3,45.6z"/>
		<path id="XMLID_138_" class="st7" d="M35.1,46.7h3.1c0.1,0,0.1,0.1,0.1,0.1l0,0c0,0.1-0.1,0.1-0.1,0.1h-3.1
			c-0.1,0-0.1-0.1-0.1-0.1l0,0L35.1,46.7L35.1,46.7z"/>
		<path id="XMLID_137_" class="st7" d="M36.3,46.7c0-0.6,0.4-0.8,0.4-0.8s0.4,0.2,0.4,0.8H36.3L36.3,46.7z"/>
		<path id="XMLID_136_" class="st7" d="M35.2,45.2h3c0.1,0,0.1,0.1,0.1,0.1l0,0c0,0.1-0.1,0.1-0.1,0.1h-3c-0.1,0-0.1-0.1-0.1-0.1
			l0,0C35.1,45.2,35.1,45.2,35.2,45.2L35.2,45.2z"/>
		<path id="XMLID_135_" class="st7" d="M35.3,45.4h2.9c0.1,0,0.1,0.1,0.1,0.1l0,0c0,0.1-0.1,0.1-0.1,0.1h-2.9
			c-0.1,0-0.1-0.1-0.1-0.1l0,0C35.1,45.4,35.2,45.4,35.3,45.4L35.3,45.4z"/>
		<path id="XMLID_134_" class="st7" d="M36.2,43.4h0.3v0.1h0.2v-0.2H37v0.2h0.2v-0.2h0.3v0.4c0,0.1-0.1,0.1-0.1,0.1h-0.8
			c-0.1,0-0.1-0.1-0.1-0.1L36.2,43.4L36.2,43.4z"/>
		<polygon id="XMLID_133_" class="st7" points="37.1,43.9 37.1,45.1 36.3,45.1 36.4,43.9 		"/>
		<path id="XMLID_132_" class="st7" d="M37.2,44h0.2v0.1h0.2v-0.2h0.3v0.2h0.2v-0.2h0.3v0.4c0,0.1-0.1,0.1-0.1,0.1h-0.8
			c-0.1,0-0.1-0.1-0.1-0.1L37.2,44L37.2,44z"/>
		<polygon id="XMLID_131_" class="st7" points="38,44.5 38,45.1 37.3,45.1 37.3,44.5 		"/>
		<path id="XMLID_130_" class="st7" d="M35.2,44h0.2v0.1h0.2v-0.2h0.3v0.2h0.2v-0.2h0.3v0.4c0,0.1-0.1,0.1-0.1,0.1h-0.8
			c-0.1,0-0.1-0.1-0.1-0.1L35.2,44L35.2,44z"/>
		<polygon id="XMLID_129_" class="st7" points="36.1,44.5 36.1,45.1 35.3,45.1 35.4,44.5 		"/>
		<g id="XMLID_110_">
			<path id="XMLID_128_" class="st5" d="M36.6,44.3v0.3h0.1L36.6,44.3C36.8,44.2,36.6,44.2,36.6,44.3z"/>
			<path id="XMLID_127_" class="st5" d="M37.6,44.7v0.2h0.1L37.6,44.7C37.7,44.6,37.6,44.6,37.6,44.7z"/>
			<path id="XMLID_126_" class="st5" d="M35.7,44.7v0.2h0.1L35.7,44.7C35.8,44.6,35.7,44.6,35.7,44.7z"/>
			<path id="XMLID_111_" class="st5" d="M38.3,46.7l-0.1-1c0.1,0,0.1-0.1,0.1-0.2c0-0.1,0-0.1,0-0.1c0.1,0,0.1-0.1,0.1-0.2
				c0-0.1-0.1-0.2-0.1-0.2h-0.1v-0.6c0.1,0,0.1-0.1,0.1-0.1v-0.4H38v0.2h-0.1v-0.2h-0.3v0.2h-0.1V44h-0.3v0.4c0,0.1,0.1,0.1,0.1,0.1
				v0.6h-0.1L37.1,44l0,0c0.1,0,0.1-0.1,0.1-0.1v-0.4h-0.3v0.2h-0.1v-0.2h-0.3v0.2h-0.1v-0.1h-0.3V44c0,0.1,0.1,0.1,0.1,0.1l0,0
				l-0.1,1.1H36v-0.6c0.1,0,0.1-0.1,0.1-0.1v-0.4h-0.3v0.2h-0.1v-0.2h-0.3v0.2h-0.1v-0.1H35v0.4c0,0.1,0.1,0.1,0.1,0.1v0.6H35
				c-0.1,0-0.1,0.1-0.1,0.2c0,0.1,0.1,0.1,0.1,0.2v0.1c0,0.1,0.1,0.2,0.1,0.2L35,47l0,0c-0.1,0-0.2,0.1-0.2,0.2
				c0,0.1,0.1,0.2,0.2,0.2h3.1c0.1,0,0.2-0.1,0.2-0.2C38.4,46.8,38.3,46.7,38.3,46.7z M38.1,46.7h-0.6c0-0.4-0.2-0.7-0.4-0.9
				c-0.1-0.1-0.1-0.1-0.2-0.1H38L38.1,46.7z M36.7,45.9L36.7,45.9c-0.1,0-0.1,0.1-0.2,0.1c-0.1,0.1-0.3,0.3-0.3,0.7h-0.3
				c0-0.9,0.7-1,0.7-1s0.6,0.2,0.7,1H37C37.1,46.2,36.7,45.9,36.7,45.9z M37.1,46.7h-0.8c0-0.4,0.3-0.6,0.4-0.7
				C36.7,46,37.1,46.2,37.1,46.7z M37.2,44.4v-0.3h0.1v0.1h0.3V44h0.1v0.2H38V44h0.1v0.3c0,0.1,0,0.1-0.1,0.1L37.2,44.4
				C37.2,44.5,37.2,44.4,37.2,44.4z M38,45.1h-0.6v-0.6H38V45.1z M36.3,43.9C36.3,43.9,36.2,43.8,36.3,43.9l-0.1-0.4h0.1v0.1h0.3
				v-0.2h0.1v0.2H37v-0.2h0.1v0.3c0,0.1,0,0.1-0.1,0.1L36.3,43.9L36.3,43.9z M37.1,45.1h-0.7l0.1-1.1h0.6V45.1z M35.3,44.4v-0.3h0.1
				v0.1h0.3V44h0.1v0.2h0.3V44h0.1v0.3c0,0.1,0,0.1-0.1,0.1L35.3,44.4C35.3,44.5,35.3,44.4,35.3,44.4z M36,45.1h-0.6v-0.6H36V45.1z
				 M35.1,45.3C35.1,45.2,35.1,45.2,35.1,45.3l3-0.1c0.1,0,0.1,0.1,0.1,0.1s0,0.1-0.1,0.1L35.1,45.3L35.1,45.3z M35.2,45.5
				L35.2,45.5l2.9-0.1c0.1,0,0.1,0.1,0.1,0.1c0,0.1,0,0.1-0.1,0.1l0,0h-2.8l0,0C35.3,45.6,35.2,45.5,35.2,45.5z M35.3,45.7h1.1
				c-0.1,0-0.1,0.1-0.2,0.1c-0.2,0.1-0.4,0.4-0.4,1h-0.6L35.3,45.7z M38.3,47h-3.1c-0.1,0-0.1-0.1-0.1-0.1c0-0.1,0.1-0.1,0.1-0.1
				h3.1c0.1,0,0.1,0.1,0.1,0.1C38.3,46.9,38.3,47,38.3,47z"/>
		</g>
	</g>
	<g id="XMLID_77_">
		<path id="XMLID_108_" class="st7" d="M39.2,55.6c-0.7-0.7-0.4-1.4-0.4-1.4s0.7-0.4,1.5,0.3L39.2,55.6L39.2,55.6z"/>
		<path id="XMLID_107_" class="st7" d="M37.9,55.2l0.7,0.9l0.5-0.5c-0.7-0.7-0.3-1.3-0.3-1.3s0.6-0.4,1.3,0.3l0.5-0.5l-0.9-0.7
			L37.9,55.2L37.9,55.2z"/>
		<path id="XMLID_106_" class="st7" d="M38.6,56.1l2.2-2.2c0.1-0.1,0.1-0.1,0.2,0l0,0c0.1,0.1,0.1,0.1,0,0.2l-2.2,2.2
			c-0.1,0.1-0.1,0.1-0.2,0l0,0V56.1L38.6,56.1z"/>
		<path id="XMLID_105_" class="st7" d="M39.4,55.3c-0.4-0.4-0.3-0.8-0.3-0.8s0.4-0.2,0.8,0.3L39.4,55.3L39.4,55.3z"/>
		<path id="XMLID_104_" class="st7" d="M37.5,54.9l2.1-2.1c0.1-0.1,0.1-0.1,0.2,0l0,0c0.1,0.1,0.1,0.1,0,0.2l-2.1,2.1
			c-0.1,0.1-0.1,0.1-0.2,0l0,0C37.5,55,37.4,54.9,37.5,54.9L37.5,54.9z"/>
		<path id="XMLID_103_" class="st7" d="M37.7,55l2-2c0.1-0.1,0.1-0.1,0.2,0l0,0c0.1,0.1,0.1,0.1,0,0.2l-2,2c-0.1,0.1-0.1,0.1-0.2,0
			l0,0V55L37.7,55z"/>
		<path id="XMLID_102_" class="st7" d="M37,53l0.1-0.1l0.1,0.1l0.1-0.1l-0.1-0.1l0.2-0.2l0.1,0.1l0.1-0.1l-0.1-0.1l0.2-0.2l0.3,0.3
			c0.1,0.1,0.1,0.1,0,0.1l-0.6,0.6c-0.1,0.1-0.1,0.1-0.1,0L37,53L37,53z"/>
		<polygon id="XMLID_101_" class="st7" points="37.9,52.8 38.8,53.6 38.3,54.1 37.5,53.3 		"/>
		<path id="XMLID_100_" class="st7" d="M38.1,52.8l0.1-0.1l0.1,0.1l0.1-0.1l-0.1-0.1l0.1-0.1l0.1,0.1l0.1-0.1l-0.1-0.1l0.1-0.1
			l0.3,0.3c0.1,0.1,0.1,0.1,0,0.1l-0.6,0.6c-0.1,0.1-0.1,0.1-0.1,0L38.1,52.8L38.1,52.8z"/>
		<polygon id="XMLID_99_" class="st7" points="39,52.4 39.5,52.9 39,53.5 38.5,53 		"/>
		<path id="XMLID_98_" class="st7" d="M36.7,54.1l0.1-0.1l0.1,0.1L37,54l-0.1-0.1l0.1-0.1l0.1,0.1l0.1-0.1l-0.1-0.1l0.1-0.1l0.3,0.3
			c0.1,0.1,0.1,0.1,0,0.1l-0.6,0.6c-0.1,0.1-0.1,0.1-0.1,0L36.7,54.1L36.7,54.1z"/>
		<polygon id="XMLID_97_" class="st7" points="37.7,53.8 38.1,54.3 37.6,54.8 37.2,54.4 		"/>
		<g id="XMLID_78_">
			<path id="XMLID_96_" class="st5" d="M37.9,53.3l0.2,0.2l0.1-0.1L38,53.2C37.9,53.1,37.8,53.3,37.9,53.3z"/>
			<path id="XMLID_95_" class="st5" d="M38.9,53l0.1,0.1l0.1-0.1L39,52.9C38.9,52.8,38.8,52.9,38.9,53z"/>
			<path id="XMLID_94_" class="st5" d="M37.5,54.3l0.1,0.1l0.1-0.1l-0.1-0.1C37.6,54.1,37.4,54.2,37.5,54.3z"/>
			<path id="XMLID_79_" class="st5" d="M40.7,53.9l-0.8-0.6c0.1-0.1,0.1-0.1,0-0.3l-0.1-0.1c0-0.1,0-0.1-0.1-0.2
				c-0.1-0.1-0.2-0.1-0.3,0l-0.1,0.1l-0.4-0.4c0.1-0.1,0.1-0.1,0-0.2l-0.3-0.3l-0.3,0.2l0.1,0.1l-0.1,0.1l-0.1-0.1l-0.3,0.2l0.1,0.1
				l-0.1,0.1l-0.1-0.1l-0.2,0.2l0.3,0.3c0.1,0.1,0.1,0.1,0.2,0l0.4,0.4l-0.1,0.1l-0.8-0.8l0,0c0.1-0.1,0.1-0.1,0-0.2l-0.3-0.3
				L37,52.5l0.1,0.1L37,52.7l-0.1-0.1l-0.3,0.3l0.1,0.1l-0.1,0.1L36.5,53l-0.3,0.2l0.3,0.3c0.1,0.1,0.1,0.1,0.2,0l0,0l0.8,0.8
				l-0.1,0.1L37,54c0.1-0.1,0.1-0.1,0-0.2l-0.3-0.3l-0.3,0.3l0.1,0.1L36.4,54l-0.1-0.1L36,54.1l0.1,0.1L36,54.3l-0.1-0.1l-0.2,0.2
				l0.3,0.3c0.1,0.1,0.1,0.1,0.2,0l0.4,0.4l-0.1,0.1c-0.1,0.1-0.1,0.2,0,0.3s0.1,0.1,0.2,0.1c0,0.1,0,0.1,0.1,0.1
				c0.1,0.1,0.2,0.1,0.3,0l0.6,0.8l0,0c-0.1,0.1-0.1,0.2,0,0.3s0.2,0.1,0.3,0l2.2-2.2C40.9,54,40.9,53.9,40.7,53.9
				C40.9,53.8,40.9,53.8,40.7,53.9z M40.7,54l-0.4,0.4C40,54.1,39.6,54,39.4,54c-0.1,0-0.2,0-0.3,0.1l0.8-0.8L40.7,54z M39.1,54.4
				L39.1,54.4c0,0-0.1,0.1-0.1,0.2c0,0.2,0,0.4,0.3,0.7l-0.2,0.2c-0.6-0.6-0.3-1.2-0.3-1.2s0.6-0.3,1.2,0.3l-0.2,0.2
				C39.6,54.3,39.1,54.4,39.1,54.4z M39.9,54.7l-0.5,0.5c-0.3-0.3-0.3-0.6-0.2-0.8C39.3,54.5,39.6,54.4,39.9,54.7z M38.4,53
				l-0.3-0.3l0.1-0.1l0.1,0.1l0.2-0.2l-0.1-0.1l0.1-0.1l0.1,0.1l0.2-0.2l-0.1-0.1l0.1-0.1l0.3,0.3v0.1L38.4,53L38.4,53z M39.4,52.9
				L39,53.3l-0.4-0.4l0.4-0.4L39.4,52.9z M37.4,53.3L37.4,53.3L37.1,53l0.1-0.1l0.1,0.1l0.2-0.2l-0.1-0.1l0.1-0.1l0.1,0.1l0.2-0.2
				l-0.1-0.1l0.1-0.1l0.3,0.3v0.1L37.4,53.3z M38.8,53.6l-0.5,0.5l-0.8-0.8l0.4-0.4L38.8,53.6z M37.1,54.4l-0.3-0.3l0.1-0.1l0.1,0.1
				l0.2-0.2l-0.1-0.1l0.1-0.1l0.1,0.1l0.2-0.2l-0.1-0.1l0.1-0.1l0.3,0.3v0.1L37.1,54.4L37.1,54.4z M38.1,54.3l-0.4,0.4l-0.4-0.4
				l0.4-0.4L38.1,54.3z M37.6,55c0,0-0.1-0.1,0-0.1l2.1-2.1h0.1c0,0,0.1,0.1,0,0.1L37.6,55C37.6,55,37.6,55,37.6,55z M37.7,55.2
				c-0.1,0-0.1-0.1,0-0.1l2-2h0.1c0,0,0.1,0.1,0,0.1l0,0L37.7,55.2L37.7,55.2C37.9,55.2,37.8,55.2,37.7,55.2z M38,55.2l0.8-0.8
				c0,0.1-0.1,0.1-0.1,0.2c0,0.3,0,0.6,0.4,1L38.7,56L38,55.2z M41,54.1l-2.2,2.2h-0.1c-0.1-0.1-0.1-0.1,0-0.1l2.2-2.2H41
				C41,54,41,54,41,54.1z"/>
		</g>
	</g>
	<g id="XMLID_45_">
		<path id="XMLID_76_" class="st7" d="M49.7,54.5c0.7-0.7,1.4-0.4,1.4-0.4s0.4,0.7-0.3,1.5L49.7,54.5L49.7,54.5z"/>
		<path id="XMLID_75_" class="st7" d="M50.1,53.2l-0.9,0.7l0.5,0.5c0.7-0.7,1.3-0.3,1.3-0.3s0.4,0.6-0.3,1.3l0.5,0.5l0.7-0.9
			L50.1,53.2L50.1,53.2z"/>
		<path id="XMLID_74_" class="st7" d="M49.2,53.9l2.2,2.2c0.1,0.1,0.1,0.1,0,0.2l0,0c-0.1,0.1-0.1,0.1-0.2,0L49,54.1
			c-0.1-0.1-0.1-0.1,0-0.2l0,0C49,53.9,49.1,53.8,49.2,53.9L49.2,53.9z"/>
		<path id="XMLID_73_" class="st7" d="M49.9,54.7c0.4-0.4,0.8-0.3,0.8-0.3s0.2,0.4-0.3,0.8L49.9,54.7L49.9,54.7z"/>
		<path id="XMLID_72_" class="st7" d="M50.4,52.8l2.1,2.1c0.1,0.1,0.1,0.1,0,0.2l0,0c-0.1,0.1-0.1,0.1-0.2,0L50.2,53
			c-0.1-0.1-0.1-0.1,0-0.2l0,0C50.2,52.8,50.3,52.8,50.4,52.8L50.4,52.8z"/>
		<path id="XMLID_71_" class="st7" d="M50.2,53l2,2c0.1,0.1,0.1,0.1,0,0.2l0,0c-0.1,0.1-0.1,0.1-0.2,0l-2-2c-0.1-0.1-0.1-0.1,0-0.2
			l0,0C50.1,53,50.2,53,50.2,53L50.2,53z"/>
		<path id="XMLID_70_" class="st7" d="M52.2,52.3l0.1,0.1l-0.1,0.1l0.1,0.1l0.1-0.1l0.2,0.2l-0.1,0.1l0.1,0.1l0.1-0.1l0.2,0.2
			l-0.3,0.3c-0.1,0.1-0.1,0.1-0.1,0l-0.6-0.6c-0.1-0.1-0.1-0.1,0-0.1L52.2,52.3L52.2,52.3z"/>
		<polygon id="XMLID_69_" class="st7" points="52.5,53.3 51.7,54.1 51.1,53.6 52,52.8 		"/>
		<path id="XMLID_68_" class="st7" d="M52.5,53.4l0.1,0.1l-0.1,0.1l0.1,0.1l0.1-0.1l0.1,0.1l-0.1,0.1l0.1,0.1l0.1-0.1l0.1,0.1
			l-0.3,0.3c-0.1,0.1-0.1,0.1-0.1,0L52,53.6c-0.1-0.1-0.1-0.1,0-0.1L52.5,53.4L52.5,53.4z"/>
		<polygon id="XMLID_67_" class="st7" points="52.8,54.4 52.3,54.8 51.8,54.3 52.3,53.8 		"/>
		<path id="XMLID_66_" class="st7" d="M51.1,52.1l0.1,0.1l-0.1,0.1l0.1,0.1l0.1-0.1l0.1,0.1l-0.1,0.1l0.1,0.1l0.1-0.1l0.1,0.1
			l-0.3,0.3c-0.1,0.1-0.1,0.1-0.1,0l-0.6-0.6c-0.1-0.1-0.1-0.1,0-0.1L51.1,52.1L51.1,52.1z"/>
		<polygon id="XMLID_65_" class="st7" points="51.4,53 51,53.5 50.4,52.9 50.9,52.4 		"/>
		<g id="XMLID_46_">
			<path id="XMLID_64_" class="st5" d="M51.9,53.2l-0.2,0.2l0.1,0.1l0.2-0.2C52.1,53.3,52,53.1,51.9,53.2z"/>
			<path id="XMLID_63_" class="st5" d="M52.3,54.2l-0.1,0.1l0.1,0.1l0.1-0.1C52.5,54.2,52.4,54.1,52.3,54.2z"/>
			<path id="XMLID_62_" class="st5" d="M50.9,52.8l-0.1,0.1l0.1,0.1l0.1-0.1C51.1,52.8,51,52.8,50.9,52.8z"/>
			<path id="XMLID_47_" class="st5" d="M51.4,56.1l0.6-0.8c0.1,0.1,0.1,0.1,0.3,0l0.1-0.1c0.1,0,0.1,0,0.2-0.1s0.1-0.2,0-0.3
				l-0.1-0.1l0.4-0.4c0.1,0.1,0.1,0.1,0.2,0l0.3-0.3l-0.3-0.3L53,53.8l-0.1-0.1l0.1-0.1l-0.2-0.3l-0.1,0.1l-0.1-0.1l0.1-0.1L52.5,53
				l-0.3,0.3c-0.1,0.1-0.1,0.1,0,0.2l-0.4,0.4l-0.1-0.1l0.8-0.8l0,0c0.1,0.1,0.1,0.1,0.2,0l0.3-0.3l-0.3-0.3l-0.1,0.1l-0.1-0.1
				l0.1-0.1L52.3,52l-0.1,0.1L52.1,52l0.1-0.1L52,51.6l-0.3,0.3c-0.1,0.1-0.1,0.1,0,0.2l0,0l-0.8,0.8l-0.1-0.1l0.4-0.4
				c0.1,0.1,0.1,0.1,0.2,0l0.3-0.3l-0.3-0.3l-0.1,0.1l-0.1-0.1l0.1-0.1l-0.2-0.3L51,51.5l-0.1-0.1l0.1-0.1l-0.2-0.2l-0.3,0.3
				c-0.1,0.1-0.1,0.1,0,0.2L50.1,52L50,51.9c-0.1-0.1-0.2-0.1-0.3,0c-0.1,0.1-0.1,0.1-0.1,0.2c-0.1,0-0.1,0-0.1,0.1
				c-0.1,0.1-0.1,0.2,0,0.3l-0.8,0.6l0,0c-0.1-0.1-0.2-0.1-0.3,0c-0.1,0.1-0.1,0.2,0,0.3l2.2,2.2C51.2,56.2,51.3,56.2,51.4,56.1
				C51.4,56.3,51.4,56.1,51.4,56.1z M51.3,56l-0.4-0.4c0.3-0.3,0.4-0.7,0.4-0.9c0-0.1,0-0.2-0.1-0.3l0.8,0.8L51.3,56z M50.8,54.4
				L50.8,54.4c0,0-0.1-0.1-0.2-0.1c-0.2,0-0.4,0-0.7,0.3l-0.2-0.2c0.6-0.6,1.2-0.3,1.2-0.3s0.3,0.6-0.3,1.2l-0.2-0.2
				C51,54.9,50.9,54.5,50.8,54.4z M50.6,55.2l-0.5-0.5c0.3-0.3,0.6-0.3,0.8-0.2C50.8,54.5,50.9,54.9,50.6,55.2z M52.3,53.7l0.3-0.3
				l0.1,0.1l-0.1,0.1l0.2,0.2l0.1-0.1l0.1,0.1l-0.1,0.1l0.2,0.2l0.1-0.1l0.1,0.1L53,54.4h-0.1L52.3,53.7
				C52.3,53.8,52.3,53.7,52.3,53.7z M52.3,54.7l-0.4-0.4l0.4-0.4l0.4,0.4L52.3,54.7z M52,52.7L52,52.7l0.3-0.3l0.1,0.1l-0.1,0.1
				l0.2,0.2l0.1-0.1l0.1,0.1l-0.1,0.1l0.2,0.2l0.1-0.1l0.1,0.1l-0.3,0.3h-0.1L52,52.7z M51.7,54l-0.5-0.5l0.8-0.8l0.4,0.4L51.7,54z
				 M50.9,52.3l0.3-0.3l0.1,0.1l-0.1,0.1l0.2,0.2l0.1-0.1l0.1,0.1l-0.1,0.1l0.2,0.2l0.1-0.1l0.1,0.1L51.6,53h-0.1L50.9,52.3
				C50.9,52.4,50.9,52.4,50.9,52.3z M51,53.3l-0.4-0.4l0.4-0.4l0.4,0.4L51,53.3z M50.2,52.8C50.2,52.8,50.3,52.7,50.2,52.8l2.2,2.1
				V55c0,0-0.1,0.1-0.1,0l-2.1-2.1C50.2,53,50.2,52.9,50.2,52.8z M50.1,53.1C50.1,53.1,50.2,53,50.1,53.1l2.1,2v0.1
				c0,0-0.1,0.1-0.1,0l0,0l-2-2l0,0C50.1,53.1,50.1,53.1,50.1,53.1z M50.1,53.3l0.8,0.8c-0.1,0-0.1-0.1-0.2-0.1c-0.3,0-0.6,0-1,0.4
				L49.3,54L50.1,53.3z M51.2,56.3L49,54.1V54c0.1-0.1,0.1-0.1,0.1,0l2.2,2.2L51.2,56.3C51.3,56.3,51.2,56.3,51.2,56.3z"/>
		</g>
	</g>
</g>
<path id="XMLID_1_" class="st1" d="M292.7,62.1v16.2c-2.1,1.5-4.4,2.7-6.8,3.4c-2.4,0.8-5,1.1-7.9,1.1c-3.4,0-6.5-0.5-9.2-1.6
	c-2.7-1.1-5.1-2.5-7-4.4c-1.9-1.9-3.4-4.2-4.4-6.8c-1-2.7-1.6-5.6-1.6-8.8s0.5-6.2,1.5-8.8s2.5-4.9,4.3-6.8c1.8-1.9,4.1-3.4,6.8-4.4
	c2.7-1,5.6-1.6,8.9-1.6c1.6,0,3.2,0.1,4.6,0.4c1.5,0.3,2.7,0.6,4,1.1c1.2,0.4,2.3,1,3.4,1.6c1,0.6,2,1.4,2.9,2.2l-1.6,2.6
	c-0.3,0.4-0.6,0.6-1,0.8c-0.4,0.1-0.8,0-1.3-0.3c-0.4-0.3-1-0.6-1.6-1s-1.3-0.8-2.2-1.1c-0.9-0.4-1.9-0.7-3.1-1s-2.6-0.4-4.2-0.4
	c-2.3,0-4.5,0.4-6.5,1.1c-1.9,0.8-3.6,1.9-4.9,3.3c-1.3,1.5-2.4,3.2-3.1,5.3c-0.7,2-1.1,4.4-1.1,6.9c0,2.7,0.4,5,1.1,7.1
	s1.8,3.9,3.2,5.3c1.4,1.5,3.1,2.6,5.1,3.4s4.2,1.1,6.7,1.1c2,0,3.7-0.2,5.2-0.6s3-1.1,4.4-1.8v-9.3h-6.6c-0.4,0-0.7-0.1-0.9-0.3
	c-0.3-0.2-0.3-0.5-0.3-0.8V62L292.7,62.1L292.7,62.1z M340.4,61.3c0,3.2-0.5,6.1-1.5,8.7c-1,2.7-2.4,4.9-4.2,6.8
	c-1.8,1.9-4,3.4-6.6,4.4c-2.5,1.1-5.4,1.6-8.5,1.6c-3.1,0-6-0.5-8.5-1.6s-4.8-2.5-6.6-4.4c-1.8-1.9-3.2-4.2-4.2-6.8
	c-1-2.7-1.5-5.5-1.5-8.7s0.5-6.1,1.5-8.7c1-2.7,2.4-4.9,4.2-6.8c1.8-1.9,4-3.4,6.6-4.4c2.5-1.1,5.4-1.6,8.5-1.6c3.1,0,6,0.5,8.5,1.6
	s4.8,2.5,6.6,4.4c1.8,1.9,3.2,4.2,4.2,6.8S340.4,58.1,340.4,61.3z M334.6,61.3c0-2.6-0.4-4.9-1.1-7s-1.7-3.8-3-5.2s-2.9-2.5-4.7-3.3
	c-1.8-0.8-3.9-1.1-6.2-1.1s-4.3,0.4-6.2,1.1c-1.8,0.8-3.4,1.8-4.8,3.3c-1.3,1.4-2.3,3.2-3,5.2s-1.1,4.4-1.1,7s0.4,4.9,1.1,7
	c0.7,2,1.7,3.8,3,5.2s2.9,2.5,4.8,3.3c1.8,0.8,3.9,1.1,6.2,1.1s4.3-0.4,6.2-1.1c1.8-0.8,3.4-1.8,4.7-3.3c1.3-1.4,2.3-3.2,3-5.2
	C334.2,66.1,334.6,63.9,334.6,61.3z M381.7,40.1l-17.2,42.2h-5.1l-17.2-42.2h4.6c0.5,0,1,0.1,1.3,0.4c0.3,0.3,0.6,0.6,0.7,1
	l11.9,29.7c0.3,0.7,0.5,1.4,0.8,2.2s0.4,1.6,0.6,2.5c0.2-0.9,0.4-1.7,0.6-2.5s0.4-1.5,0.7-2.2l11.9-29.7c0.1-0.3,0.3-0.6,0.7-1
	c0.3-0.3,0.8-0.4,1.3-0.4L381.7,40.1L381.7,40.1z M413.3,77.7v4.6h-26V40.1h26v4.6H393v14h16.4v4.5H393v14.4L413.3,77.7L413.3,77.7z
	 M452.5,82.3h-5.1c-1,0-1.8-0.4-2.3-1.2l-11-15.1c-0.3-0.4-0.7-0.8-1.1-1s-1-0.3-1.8-0.3H427v17.6h-5.7V40.1h11.9
	c2.7,0,4.9,0.3,6.9,0.8c2,0.6,3.6,1.3,4.8,2.3c1.3,1,2.2,2.3,2.8,3.7c0.6,1.5,0.9,3,0.9,4.8c0,1.5-0.3,2.9-0.7,4.2
	c-0.4,1.3-1.1,2.5-2,3.5s-2,1.9-3.3,2.7c-1.3,0.7-2.7,1.3-4.4,1.6c0.7,0.4,1.3,1,1.9,1.8L452.5,82.3z M433,60.6
	c1.6,0,3.1-0.2,4.4-0.6c1.3-0.4,2.3-1,3.2-1.7c0.8-0.8,1.5-1.6,1.9-2.7c0.4-1,0.6-2.2,0.6-3.4c0-2.5-0.8-4.4-2.5-5.7
	c-1.6-1.3-4.1-1.9-7.4-1.9H427v15.9L433,60.6L433,60.6z M492.4,40.1v42.2h-2.9c-0.4,0-0.8-0.1-1.1-0.3c-0.3-0.1-0.6-0.4-0.9-0.8
	l-24.4-31.8c0.1,0.5,0.1,1,0.1,1.5c0,0.4,0,0.9,0,1.3v30.1h-5V40.1h2.9c0.3,0,0.4,0,0.6,0.1c0.2,0,0.3,0.1,0.4,0.1
	c0.1,0.1,0.3,0.2,0.4,0.3s0.3,0.3,0.4,0.5l24.4,31.8c-0.1-0.5-0.1-1-0.1-1.5s-0.1-1-0.1-1.4V40.1L492.4,40.1L492.4,40.1z
	 M542.2,61.3c0,3.2-0.5,6.1-1.5,8.7c-1,2.7-2.4,4.9-4.2,6.8s-4,3.4-6.6,4.4c-2.5,1.1-5.4,1.6-8.5,1.6c-3.1,0-6-0.5-8.5-1.6
	c-2.5-1.1-4.8-2.5-6.6-4.4c-1.8-1.9-3.2-4.2-4.2-6.8c-1-2.7-1.5-5.5-1.5-8.7s0.5-6.1,1.5-8.7c1-2.7,2.4-4.9,4.2-6.8
	c1.8-1.9,4-3.4,6.6-4.4c2.5-1.1,5.4-1.6,8.5-1.6c3.1,0,6,0.5,8.5,1.6s4.8,2.5,6.6,4.4c1.8,1.9,3.2,4.2,4.2,6.8
	S542.2,58.1,542.2,61.3z M536.3,61.3c0-2.6-0.4-4.9-1.1-7c-0.7-2.1-1.7-3.8-3-5.2c-1.3-1.4-2.9-2.5-4.7-3.3
	c-1.8-0.8-3.9-1.1-6.2-1.1c-2.3,0-4.3,0.4-6.2,1.1c-1.8,0.8-3.4,1.8-4.8,3.3c-1.3,1.4-2.3,3.2-3,5.2s-1.1,4.4-1.1,7s0.4,4.9,1.1,7
	c0.7,2,1.7,3.8,3,5.2s2.9,2.5,4.8,3.3c1.8,0.8,3.9,1.1,6.2,1.1c2.3,0,4.3-0.4,6.2-1.1c1.8-0.8,3.4-1.8,4.7-3.3
	c1.3-1.4,2.3-3.2,3-5.2C536,66.1,536.3,63.9,536.3,61.3z M292.3,120.2c0,3.2-0.5,6-1.5,8.6s-2.4,4.8-4.2,6.7c-1.8,1.8-4,3.3-6.6,4.3
	c-2.5,1-5.4,1.5-8.5,1.5h-15.7V99.1h15.7c3.1,0,6,0.5,8.5,1.5s4.8,2.5,6.6,4.3s3.2,4.1,4.2,6.7C291.8,114.1,292.3,117,292.3,120.2z
	 M286.4,120.2c0-2.6-0.4-4.9-1.1-7c-0.7-2-1.7-3.7-3-5.2c-1.3-1.4-2.9-2.5-4.7-3.2c-1.8-0.8-3.9-1.1-6.2-1.1h-10v33h10
	c2.3,0,4.3-0.4,6.2-1.1c1.8-0.8,3.4-1.8,4.7-3.2c1.3-1.4,2.3-3.1,3-5.1C286.1,125.1,286.4,122.8,286.4,120.2z M339.5,120.2
	c0,3.2-0.5,6.1-1.5,8.7c-1,2.7-2.4,4.9-4.2,6.8c-1.8,1.9-4,3.4-6.6,4.4c-2.5,1.1-5.4,1.6-8.5,1.6c-3.1,0-6-0.5-8.5-1.6
	s-4.8-2.5-6.6-4.4c-1.8-1.9-3.2-4.2-4.2-6.8c-1-2.7-1.5-5.5-1.5-8.7s0.5-6.1,1.5-8.7c1-2.7,2.4-4.9,4.2-6.8c1.8-1.9,4-3.4,6.6-4.4
	c2.5-1.1,5.4-1.6,8.5-1.6c3.1,0,6,0.5,8.5,1.6s4.8,2.5,6.6,4.4c1.8,1.9,3.2,4.2,4.2,6.8C339,114.1,339.5,117,339.5,120.2z
	 M333.7,120.2c0-2.6-0.4-4.9-1.1-7c-0.7-2.1-1.7-3.8-3-5.2c-1.3-1.4-2.9-2.5-4.7-3.3s-3.9-1.1-6.2-1.1c-2.3,0-4.3,0.4-6.2,1.1
	c-1.8,0.8-3.4,1.8-4.8,3.3c-1.3,1.4-2.3,3.2-3,5.2c-0.7,2.1-1.1,4.4-1.1,7s0.4,4.9,1.1,7c0.7,2,1.7,3.8,3,5.2
	c1.3,1.4,2.9,2.5,4.8,3.3c1.8,0.8,3.9,1.1,6.2,1.1c2.3,0,4.3-0.4,6.2-1.1c1.8-0.8,3.4-1.8,4.7-3.3c1.3-1.4,2.3-3.2,3-5.2
	C333.3,125.1,333.7,122.8,333.7,120.2z M369.3,105.7c-0.2,0.3-0.4,0.5-0.6,0.6s-0.4,0.2-0.8,0.2c-0.3,0-0.7-0.2-1.2-0.5
	c-0.4-0.3-1-0.7-1.7-1.1s-1.5-0.8-2.5-1.1s-2.1-0.5-3.5-0.5c-1.3,0-2.4,0.2-3.4,0.5s-1.8,0.8-2.5,1.4c-0.6,0.6-1.1,1.3-1.5,2.1
	c-0.3,0.8-0.5,1.6-0.5,2.6c0,1.2,0.3,2.2,0.9,2.9c0.6,0.8,1.3,1.5,2.3,2c1,0.6,2,1,3.2,1.5c1.2,0.4,2.5,0.8,3.7,1.3
	c1.2,0.5,2.5,0.9,3.7,1.5s2.3,1.2,3.2,2c1,0.8,1.7,1.8,2.3,3s0.9,2.7,0.9,4.4c0,1.8-0.3,3.6-1,5.2c-0.6,1.6-1.5,3-2.7,4.2
	c-1.2,1.2-2.7,2.2-4.4,2.9c-1.8,0.7-3.7,1-6,1c-2.7,0-5.3-0.5-7.5-1.5c-2.2-1-4.1-2.3-5.8-4l1.6-2.7c0.1-0.2,0.3-0.4,0.6-0.6
	c0.3-0.1,0.5-0.2,0.8-0.2c0.3,0,0.6,0.1,0.9,0.3s0.7,0.4,1.1,0.8c0.4,0.3,0.9,0.6,1.4,1s1.1,0.7,1.8,1s1.5,0.6,2.3,0.8
	c0.9,0.2,1.8,0.3,2.9,0.3c1.3,0,2.5-0.2,3.6-0.6c1.1-0.4,2-0.9,2.7-1.6c0.8-0.7,1.3-1.5,1.7-2.4c0.4-1,0.6-2,0.6-3.2
	c0-1.3-0.3-2.3-0.9-3.1c-0.6-0.8-1.3-1.5-2.3-2c-1-0.6-2-1-3.2-1.4c-1.2-0.4-2.5-0.8-3.7-1.2c-1.3-0.4-2.5-0.9-3.7-1.4
	c-1.2-0.5-2.3-1.2-3.2-2.1c-1-0.8-1.7-1.9-2.3-3.2c-0.6-1.3-0.9-2.9-0.9-4.7c0-1.5,0.3-2.9,0.9-4.3c0.6-1.4,1.4-2.6,2.5-3.7
	c1.1-1.1,2.5-2,4.1-2.6c1.6-0.6,3.5-1,5.6-1c2.3,0,4.5,0.4,6.4,1.1c1.9,0.8,3.6,1.8,5.1,3.2L369.3,105.7z M431.2,141.2h-6.8
	c-0.8,0-1.4-0.2-1.8-0.6c-0.5-0.4-0.8-0.8-1.1-1.4l-2.9-8.2h-17l-2.9,8.2c-0.2,0.5-0.6,1-1,1.3c-0.5,0.4-1.1,0.6-1.8,0.6H389
	l16.7-42.7h9.1L431.2,141.2z M416.3,125l-4.6-13.1c-0.3-0.7-0.6-1.5-0.9-2.4c-0.3-1-0.6-1.9-0.9-3c-0.3,1.1-0.6,2.1-0.9,3
	c-0.3,1-0.6,1.7-0.9,2.4l-4.6,13C403.6,125,416.3,125,416.3,125z M467.6,135c-1.5,2-3.4,3.5-5.6,4.6s-4.8,1.8-7.8,2l-0.4,1.3
	c1,0.2,1.7,0.5,2.3,0.8c0.6,0.3,1.1,0.6,1.5,1s0.6,0.8,0.8,1.3c0.2,0.4,0.3,1,0.3,1.4c0,0.7-0.2,1.3-0.6,1.8c-0.4,0.6-0.9,1-1.5,1.4
	s-1.5,0.6-2.3,0.9c-1,0.2-2,0.3-3,0.3c-0.8,0-1.6-0.1-2.3-0.1c-0.7-0.1-1.4-0.3-2.1-0.4l0.8-2.5c0.1-0.4,0.4-0.7,0.9-0.7
	c0.3,0,0.6,0.1,0.9,0.2s0.7,0.2,1.2,0.2c0.6,0,1-0.1,1.3-0.3c0.3-0.2,0.4-0.4,0.4-0.8c0-0.5-0.3-0.8-1-1.1c-0.6-0.3-1.7-0.4-3.2-0.6
	l1.3-3.9c-2.9-0.3-5.4-1-7.7-2.2c-2.3-1.2-4.2-2.7-5.8-4.6c-1.6-1.9-2.8-4.1-3.6-6.7c-0.8-2.5-1.3-5.3-1.3-8.2c0-2.1,0.3-4.1,0.7-6
	c0.4-1.9,1.1-3.7,2-5.3c0.9-1.6,2-3,3.2-4.4c1.3-1.3,2.7-2.4,4.2-3.3c1.6-0.9,3.3-1.6,5.1-2.1c1.8-0.5,3.8-0.7,6-0.7
	c1.6,0,3,0.1,4.4,0.4s2.7,0.6,3.9,1.1c1.2,0.5,2.3,1.1,3.4,1.8c1,0.7,2,1.5,2.8,2.3l-3,4.1c-0.2,0.3-0.4,0.5-0.7,0.7
	c-0.3,0.2-0.6,0.3-1.1,0.3c-0.4,0-1-0.2-1.5-0.5s-1.1-0.7-1.8-1.1c-0.7-0.4-1.6-0.8-2.6-1.1c-1.1-0.3-2.4-0.5-4-0.5
	c-1.8,0-3.4,0.3-4.9,1s-2.8,1.6-3.9,2.8c-1.1,1.2-1.9,2.7-2.5,4.5s-0.9,3.8-0.9,6.1c0,2.3,0.3,4.4,1,6.2c0.6,1.8,1.5,3.3,2.6,4.6
	c1.1,1.2,2.4,2.2,3.9,2.8c1.5,0.6,3,1,4.8,1c1,0,1.9-0.1,2.7-0.1c0.8-0.1,1.6-0.3,2.3-0.5c0.7-0.3,1.3-0.6,2-0.9
	c0.6-0.4,1.3-0.8,1.8-1.4c0.2-0.2,0.4-0.3,0.7-0.4c0.3-0.1,0.5-0.2,0.8-0.2c0.5,0,0.9,0.2,1.2,0.5L467.6,135z M513,119.9
	c0,3.1-0.5,6-1.6,8.7s-2.5,4.9-4.4,6.9s-4.2,3.5-6.9,4.6c-2.7,1.1-5.6,1.6-8.9,1.6s-6.3-0.6-8.9-1.6c-2.7-1.1-5-2.7-6.9-4.6
	c-1.9-2-3.4-4.2-4.4-6.9c-1.1-2.7-1.6-5.6-1.6-8.7s0.5-6,1.6-8.7s2.5-4.9,4.4-6.9s4.2-3.5,6.9-4.6c2.7-1.1,5.6-1.6,8.9-1.6
	s6.3,0.6,8.9,1.6c2.7,1.1,5,2.7,6.9,4.6c1.9,2,3.4,4.2,4.4,6.9C512.5,113.9,513,116.8,513,119.9z M503.9,119.9c0-2.2-0.3-4.2-0.9-6
	s-1.5-3.3-2.5-4.6c-1.1-1.3-2.5-2.2-4.1-2.9c-1.6-0.6-3.4-1-5.4-1s-3.8,0.3-5.4,1c-1.6,0.6-2.9,1.6-4.1,2.9c-1.1,1.3-2,2.7-2.5,4.6
	c-0.6,1.8-0.9,3.8-0.9,6c0,2.3,0.3,4.2,0.9,6s1.5,3.3,2.5,4.5c1.1,1.2,2.5,2.2,4.1,2.9c1.6,0.6,3.4,1,5.4,1s3.8-0.3,5.4-1
	c1.6-0.6,2.9-1.6,4.1-2.9c1.1-1.3,2-2.7,2.5-4.5C503.7,124.1,503.9,122.2,503.9,119.9z M553.5,141.2h-8c-1.5,0-2.6-0.6-3.2-1.7
	l-8.1-13.1c-0.3-0.5-0.7-0.9-1.1-1.1c-0.4-0.3-1-0.4-1.8-0.4h-3v16.3h-8.8V98.5H533c3,0,5.5,0.3,7.7,1c2.1,0.6,3.9,1.5,5.2,2.6
	c1.3,1.1,2.3,2.4,3,3.9c0.6,1.5,1,3.2,1,5c0,1.4-0.2,2.7-0.6,4c-0.4,1.3-1,2.4-1.8,3.5c-0.8,1-1.7,2-2.9,2.8c-1.1,0.8-2.4,1.5-3.8,2
	c0.6,0.3,1.1,0.7,1.6,1.1s1,1,1.3,1.6L553.5,141.2z M532.8,118.7c1.5,0,2.7-0.2,3.7-0.6s1.9-0.9,2.5-1.5c0.7-0.6,1.1-1.4,1.5-2.3
	c0.3-0.9,0.4-1.8,0.4-2.9c0-2-0.7-3.6-2-4.7c-1.3-1.1-3.4-1.6-6.2-1.6h-4.6v13.5L532.8,118.7L532.8,118.7z M566.6,105.5v11h14.3v6.7
	h-14.3v11.2H585v6.9h-27.2V98.6H585v6.9H566.6L566.6,105.5z M614.7,106.7c-0.3,0.4-0.6,0.8-0.8,1c-0.3,0.2-0.6,0.3-1.1,0.3
	c-0.4,0-0.9-0.1-1.4-0.4s-1.1-0.6-1.8-1s-1.5-0.7-2.3-1c-0.9-0.3-1.9-0.4-3-0.4c-2,0-3.6,0.4-4.6,1.4c-1,0.9-1.5,2.1-1.5,3.6
	c0,1,0.3,1.7,0.8,2.3s1.3,1.1,2.2,1.6c1,0.4,2,0.8,3.1,1.2c1.1,0.4,2.3,0.8,3.6,1.1c1.2,0.4,2.4,0.9,3.6,1.5s2.2,1.3,3.1,2.2
	c0.9,0.9,1.6,1.9,2.2,3.2c0.6,1.3,0.8,2.8,0.8,4.6c0,2-0.3,3.7-1,5.5c-0.7,1.7-1.6,3.2-2.9,4.4c-1.3,1.3-2.9,2.3-4.8,3
	s-4,1.1-6.4,1.1c-1.3,0-2.7-0.1-4.1-0.4c-1.3-0.3-2.7-0.6-3.9-1.1c-1.3-0.5-2.4-1.1-3.5-1.8c-1.1-0.7-2.1-1.5-2.9-2.3l2.6-4.2
	c0.2-0.3,0.5-0.6,0.8-0.8c0.4-0.2,0.7-0.3,1.1-0.3c0.5,0,1.1,0.2,1.6,0.6s1.3,0.8,2,1.3c0.8,0.4,1.6,0.9,2.7,1.3
	c1.1,0.4,2.2,0.6,3.6,0.6c2.1,0,3.7-0.4,4.8-1.4c1.1-1,1.7-2.3,1.7-4.2c0-1.1-0.3-2-0.8-2.6c-0.6-0.7-1.3-1.2-2.2-1.6
	s-1.9-0.8-3.1-1.1c-1.2-0.3-2.3-0.7-3.6-1.1c-1.2-0.4-2.4-0.9-3.6-1.4c-1.1-0.6-2.2-1.3-3.1-2.2c-0.9-0.9-1.6-2-2.2-3.4
	c-0.6-1.3-0.8-3-0.8-4.9c0-1.6,0.3-3.1,1-4.6c0.6-1.5,1.5-2.8,2.8-4c1.2-1.1,2.7-2.1,4.5-2.8s3.8-1.1,6.1-1.1c2.6,0,4.9,0.4,7.2,1.2
	c2.2,0.8,4.1,1.9,5.6,3.3L614.7,106.7z"/>
</svg>
