<?xml version="1.0" encoding="utf-8"?>
<!-- Generator: Adobe Illustrator 24.0.1, SVG Export Plug-In . SVG Version: 6.00 Build 0)  -->
<svg version="1.1" id="Layer_1" xmlns="http://www.w3.org/2000/svg" xmlns:xlink="http://www.w3.org/1999/xlink" x="0px" y="0px"
	 viewBox="0 0 154 37.11" style="enable-background:new 0 0 154 37.11;" xml:space="preserve">
<style type="text/css">
	.st0{fill:#FFFFFF;}
	.st1{fill:#222E5E;}
	.st2{fill:#FFCE00;}
	.st3{fill:#6B4021;}
	.st4{fill:#E4230B;}
	.st5{fill:#1D1D1B;}
	.st6{fill:#1E3565;}
	.st7{fill-rule:evenodd;clip-rule:evenodd;fill:#FEE200;}
	.st8{fill-rule:evenodd;clip-rule:evenodd;fill:#1D1D1B;}
</style>
<g>
	<g>
		<g>
			<rect x="0.37" y="0.38" class="st0" width="54.16" height="36.36"/>
			<path class="st0" d="M54.16,0.75v35.61H0.75V0.75L54.16,0.75 M54.91,0h-0.75H0.75H0v0.75v35.61v0.75h0.75h53.41h0.75v-0.75V0.75
				V0L54.91,0z"/>
		</g>
		<rect x="0.75" y="0.75" class="st1" width="21.36" height="35.61"/>
		<g>
			<polygon class="st2" points="22.49,9.87 23.1,9.42 22.34,9.42 22.11,8.7 21.88,9.42 21.12,9.42 21.73,9.87 21.5,10.58 
				22.11,10.14 22.72,10.58 			"/>
			<path class="st3" d="M22.75,10.62l-0.64-0.46l-0.64,0.46l0.24-0.75L21.07,9.4h0.79l0.24-0.75l0.24,0.75h0.79l-0.64,0.47
				L22.75,10.62z M21.17,9.44l0.58,0.42l-0.22,0.68l0.58-0.42l0.58,0.42l-0.22-0.68l0.58-0.42h-0.72l-0.22-0.68l-0.22,0.68H21.17z"
				/>
		</g>
		<g>
			<polygon class="st2" points="11.93,15.44 12.64,15.19 11.92,14.97 11.91,14.22 11.48,14.83 10.76,14.61 11.21,15.22 10.78,15.84 
				11.49,15.59 11.94,16.19 			"/>
			<path class="st3" d="M11.96,16.24l-0.48-0.63l-0.75,0.26l0.46-0.65l-0.48-0.63l0.76,0.23l0.46-0.65l0.01,0.79l0.76,0.23
				l-0.75,0.26L11.96,16.24z M11.5,15.57l0.43,0.57l-0.01-0.72l0.68-0.23l-0.68-0.21l-0.01-0.72l-0.41,0.59l-0.69-0.21l0.43,0.57
				l-0.41,0.59L11.5,15.57z"/>
		</g>
		<g>
			<polygon class="st2" points="13.92,13.22 14.67,13.15 14.02,12.77 14.19,12.03 13.62,12.53 12.97,12.14 13.27,12.84 12.7,13.33 
				13.45,13.27 13.75,13.96 			"/>
			<path class="st3" d="M13.76,14.01l-0.31-0.73l-0.79,0.07l0.6-0.52l-0.31-0.73l0.68,0.41l0.6-0.52l-0.18,0.77l0.68,0.4l-0.79,0.07
				L13.76,14.01z M13.46,13.25l0.28,0.66l0.16-0.7h0.01l0.7-0.06L14,12.78v-0.01l0.16-0.69l-0.54,0.47L13,12.18l0.28,0.66
				l-0.01,0.01l-0.53,0.47L13.46,13.25z"/>
		</g>
		<g>
			<polygon class="st2" points="16.37,11.54 17.12,11.65 16.58,11.13 16.92,10.45 16.25,10.8 15.71,10.27 15.83,11.01 15.16,11.36 
				15.91,11.47 16.04,12.22 			"/>
			<path class="st3" d="M16.03,12.27l-0.13-0.78l-0.79-0.12l0.7-0.37l-0.13-0.78l0.57,0.56l0.7-0.37l-0.35,0.71l0.56,0.55
				l-0.78-0.12L16.03,12.27z M15.21,11.35l0.71,0.11l0.12,0.71l0.32-0.64l0.71,0.11l-0.51-0.5l0.32-0.64l-0.64,0.33l-0.51-0.5
				l0.12,0.71L15.21,11.35z"/>
		</g>
		<g>
			<polygon class="st2" points="19.46,10.14 19.95,9.56 19.21,9.74 18.82,9.1 18.76,9.85 18.03,10.03 18.73,10.32 18.67,11.07 
				19.16,10.5 19.85,10.78 			"/>
			<path class="st3" d="M18.65,11.12l0.06-0.79l-0.74-0.3l0.77-0.19l0.06-0.79l0.42,0.67l0.77-0.19l-0.51,0.6l0.42,0.67l-0.73-0.3
				L18.65,11.12z M18.08,10.04l0.67,0.27l-0.05,0.71l0.46-0.55l0.66,0.27l-0.38-0.61l0.46-0.55l-0.7,0.17l-0.38-0.61l-0.05,0.72
				h-0.01L18.08,10.04z"/>
		</g>
		<g>
			<polygon class="st2" points="25.5,10.32 26.2,10.04 25.46,9.85 25.41,9.1 25.01,9.74 24.27,9.56 24.76,10.14 24.37,10.78 
				25.06,10.5 25.55,11.07 			"/>
			<path class="st3" d="M25.57,11.12l-0.51-0.6l-0.73,0.3l0.42-0.67l-0.51-0.61l0.77,0.19l0.42-0.67l0.06,0.79l0.77,0.19l-0.73,0.3
				L25.57,11.12z M25.07,10.48l0.46,0.55l-0.05-0.71l0.66-0.27l-0.7-0.17l-0.05-0.72l-0.38,0.61l-0.7-0.17l0.46,0.55l-0.38,0.61
				L25.07,10.48z"/>
		</g>
		<g>
			<polygon class="st2" points="28.31,11.48 29.06,11.37 28.39,11.02 28.51,10.27 27.97,10.8 27.3,10.45 27.64,11.13 27.1,11.66 
				27.85,11.54 28.18,12.22 			"/>
			<path class="st3" d="M28.19,12.27l-0.35-0.71l-0.78,0.12l0.56-0.56l-0.35-0.71l0.7,0.37l0.57-0.56L28.41,11l0.7,0.37l-0.78,0.12
				L28.19,12.27z M27.86,11.53l0.01,0.01l0.31,0.63l0.12-0.71l0.71-0.11l-0.64-0.33v-0.01l0.12-0.7l-0.51,0.5l-0.01-0.01l-0.63-0.33
				l0.32,0.64l-0.51,0.5L27.86,11.53z"/>
		</g>
		<g>
			<polygon class="st2" points="30.77,13.27 31.52,13.34 30.95,12.84 31.25,12.14 30.6,12.53 30.03,12.03 30.2,12.77 29.55,13.15 
				30.3,13.22 30.47,13.96 			"/>
			<path class="st3" d="M30.46,14.01l-0.17-0.77l-0.79-0.07l0.68-0.4L30,11.99l0.6,0.52l0.68-0.41l-0.31,0.73l0.6,0.52l-0.79-0.07
				L30.46,14.01z M29.6,13.14l0.71,0.07l0.16,0.7l0.28-0.66h0.01l0.7,0.07l-0.54-0.47v-0.01l0.28-0.65l-0.62,0.37l-0.01-0.01
				l-0.53-0.47l0.16,0.7l-0.01,0.01L29.6,13.14z"/>
		</g>
		<g>
			<polygon class="st2" points="33.01,15.22 33.46,14.62 32.74,14.84 32.31,14.22 32.3,14.97 31.58,15.19 32.29,15.44 32.28,16.19 
				32.73,15.59 33.44,15.84 			"/>
			<path class="st3" d="M32.26,16.24l0.01-0.79l-0.75-0.26l0.76-0.23l0.01-0.79l0.45,0.65l0.76-0.23l-0.48,0.63l0.45,0.65
				l-0.75-0.26L32.26,16.24z M31.63,15.19l0.68,0.23v0.01l-0.01,0.7l0.43-0.57l0.68,0.23L33,15.2l0.43-0.57l-0.69,0.21l-0.01-0.01
				l-0.4-0.58l-0.01,0.72h-0.01L31.63,15.19z"/>
		</g>
		<g>
			<g>
				<path class="st2" d="M21.3,19.58c0.4-1.04,1.23-1.11,1.71-1.69c0.19-0.23,0.65-0.13,0.97-0.2c0.31-0.07,0.41,0.07,0.44,0.36
					c0.57-0.02,0.56,0.22,0.5,0.46c-0.02-0.1-0.28-0.11-0.41-0.1c0,0.21-0.15,0.22-0.38,0.28c-0.18,0.05-0.21,0.33-0.22,0.53
					c0.5,0.01,0.95-0.44,1.41-0.93c0.46-0.49,1.21-0.92,2.43-0.85c1.48,0.08,4.41,0.13,5.39-0.16c0.98-0.29,1.2,0.12,0.48,0.58
					c0.08,0.18-0.11,0.5-0.46,0.64c0.17,0.2-0.1,0.48-0.61,0.68c0.02,0.32-0.49,0.7-1.15,0.76c0.17,0.41-0.83,0.77-1.91,0.7
					c0.11,0.16-0.25,0.43-0.66,0.43c0.14,0.17-0.23,0.36-0.49,0.37c0.16,0.14-0.61,0.37-1.02,0.29c0.01,0.14-0.44,0.25-0.74,0.18
					c-0.04,0.13-0.36,0.18-0.55,0.05c-0.05,0.13-0.28,0.16-0.48,0.02c-0.13,0.13-0.36,0.12-0.49-0.04
					c-0.08,0.14-0.29,0.19-0.43,0.01c-0.12,0.16-0.29,0.11-0.42-0.05c-0.02,0.14-0.45,0.38-0.69-0.48
					c-0.06,0.41-0.17,0.66-0.27,0.83c0.08,0.25,0.13,0.8,0.11,1.29c0.07,0.48,0.29,1.18,0.43,1.62s-0.08,0.4-0.2,0.33
					c0.02,0.06,0.02,0.14,0,0.23c-0.05-0.06-0.17-0.16-0.28-0.16c0,0.07-0.03,0.13-0.09,0.2c-0.11-0.14-0.23-0.32-0.36-0.32
					c-0.13,0.03-0.38,0.16-0.46,0.37c-0.02-0.05-0.04-0.12-0.04-0.18c-0.1,0.08-0.39,0.09-0.45-0.01c0,0.04-0.01,0.09-0.02,0.15
					c-0.05-0.07-0.16-0.18-0.28-0.18c0,0.07-0.03,0.14-0.09,0.2c-0.11-0.15-0.24-0.28-0.37-0.29c-0.13,0.02-0.39,0.14-0.47,0.35
					c-0.04-0.1-0.06-0.25,0.01-0.37c-0.08-0.01-0.16-0.05-0.13-0.15c-0.23,0.4-0.53,0.31-0.65,0.12c-0.24,0.26-0.73,0.11-0.52-0.23
					c0.86-1.35,0.97-1.78,1.21-2.49c0.09-0.28,0.04-0.72,0.17-1.14c-0.3,0.53-0.67,0.61-0.76,0.49c-0.1,0.12-0.42,0.24-0.5,0.05
					c-0.1,0.07-0.31,0.07-0.4-0.02c-0.16,0.12-0.38,0.13-0.42,0.02c-0.16,0.1-0.48,0.08-0.54-0.02c-0.24,0.2-0.77,0.1-0.74-0.2
					c-0.56,0.26-1.07,0.12-1.04-0.16c-0.34,0.04-0.53-0.13-0.5-0.29c-0.36,0.02-0.58-0.2-0.52-0.44c-0.77,0.07-2.68-0.16-2.55-0.76
					c-0.54-0.1-1.35-0.49-1.08-0.8c-0.35-0.1-0.74-0.38-0.71-0.66c-0.49-0.11-0.59-0.52-0.43-0.6c-0.47-0.16-0.54-0.75,0.28-0.54
					c1.14,0.29,4.2,0.24,5.86,0.14c1.66-0.1,1.65,0.35,3.1,1.37C20.43,19.63,20.98,19.52,21.3,19.58L21.3,19.58z"/>
				<path class="st3" d="M20.64,25.86c-0.01,0-0.01,0-0.01-0.01c-0.04-0.1-0.06-0.25,0-0.37c-0.05-0.01-0.09-0.03-0.11-0.06
					c-0.01-0.01-0.01-0.02-0.02-0.04c-0.13,0.19-0.26,0.23-0.35,0.24c0,0,0,0-0.01,0c-0.11,0-0.21-0.06-0.28-0.15
					c-0.15,0.15-0.38,0.15-0.5,0.06c-0.1-0.07-0.11-0.2-0.02-0.32c0.79-1.23,0.95-1.69,1.15-2.32c0.02-0.05,0.04-0.11,0.06-0.17
					c0.04-0.13,0.05-0.29,0.07-0.47c0.01-0.17,0.03-0.37,0.07-0.56c-0.21,0.32-0.44,0.44-0.58,0.45c-0.05,0-0.1-0.01-0.13-0.04
					c-0.08,0.08-0.24,0.16-0.37,0.14c-0.06-0.01-0.11-0.04-0.14-0.09c-0.1,0.06-0.3,0.06-0.39-0.03c-0.11,0.08-0.25,0.11-0.35,0.08
					c-0.04-0.01-0.06-0.03-0.08-0.06c-0.12,0.06-0.3,0.07-0.42,0.04c-0.05-0.01-0.09-0.04-0.12-0.06c-0.16,0.13-0.42,0.12-0.59,0.04
					c-0.11-0.06-0.17-0.14-0.17-0.24c-0.41,0.18-0.77,0.15-0.93,0.03c-0.07-0.05-0.11-0.12-0.11-0.2c-0.19,0.02-0.35-0.03-0.44-0.13
					c-0.05-0.05-0.07-0.11-0.07-0.16c-0.19,0.01-0.35-0.05-0.44-0.17c-0.07-0.08-0.09-0.18-0.07-0.28c-0.66,0.06-2.1-0.1-2.46-0.51
					c-0.07-0.08-0.1-0.16-0.08-0.25c-0.4-0.07-1.01-0.33-1.12-0.61c-0.03-0.07-0.02-0.14,0.03-0.2c-0.36-0.11-0.72-0.39-0.7-0.66
					c-0.31-0.07-0.47-0.27-0.5-0.44c-0.01-0.07,0.01-0.13,0.05-0.17c-0.24-0.09-0.36-0.3-0.32-0.43c0.02-0.06,0.12-0.26,0.63-0.13
					c1.13,0.29,4.19,0.24,5.86,0.14c1.26-0.07,1.56,0.16,2.27,0.73c0.23,0.18,0.49,0.39,0.84,0.64c0.49,0.34,0.93,0.37,1.24,0.39
					c0.1,0.01,0.19,0.01,0.26,0.02c0.25-0.65,0.67-0.92,1.07-1.18c0.23-0.15,0.45-0.29,0.63-0.5c0.13-0.15,0.38-0.16,0.62-0.17
					c0.12,0,0.25-0.01,0.36-0.03c0.14-0.03,0.24-0.02,0.32,0.03c0.08,0.06,0.12,0.16,0.14,0.33c0.24-0.01,0.4,0.03,0.47,0.12
					c0.08,0.09,0.06,0.23,0.03,0.36c0,0.01-0.01,0.01-0.02,0.01l0,0c-0.01,0-0.01-0.01-0.02-0.01c-0.02-0.08-0.24-0.1-0.38-0.09
					c-0.01,0.19-0.13,0.22-0.32,0.26c-0.02,0.01-0.05,0.01-0.08,0.02c-0.13,0.03-0.2,0.2-0.2,0.5l0,0c0.48,0,0.91-0.42,1.37-0.92
					c0.58-0.63,1.4-0.92,2.44-0.86c1.57,0.09,4.42,0.13,5.39-0.16c0.49-0.14,0.84-0.13,0.91,0.04c0.06,0.14-0.09,0.35-0.41,0.56
					c0.02,0.06,0.02,0.14-0.01,0.23c-0.07,0.17-0.23,0.33-0.44,0.41c0.04,0.06,0.05,0.12,0.03,0.18c-0.04,0.17-0.28,0.36-0.65,0.51
					c0.01,0.34-0.53,0.7-1.15,0.76c0.03,0.08,0.01,0.16-0.04,0.24c-0.22,0.31-1.03,0.51-1.86,0.46c0.01,0.04,0.01,0.08-0.01,0.12
					c-0.07,0.14-0.34,0.3-0.64,0.31c0.02,0.04,0.02,0.08,0.01,0.12c-0.06,0.13-0.3,0.24-0.5,0.25c0.01,0.02,0.01,0.04,0,0.06
					c-0.07,0.14-0.67,0.3-1.03,0.23c0,0.02-0.02,0.05-0.05,0.07c-0.12,0.11-0.47,0.16-0.7,0.11c-0.02,0.04-0.06,0.07-0.12,0.1
					c-0.12,0.04-0.3,0.04-0.44-0.04c-0.02,0.04-0.06,0.07-0.11,0.09c-0.11,0.04-0.25,0.01-0.37-0.07c-0.06,0.06-0.15,0.09-0.24,0.09
					c-0.09,0-0.19-0.05-0.25-0.12c-0.05,0.07-0.12,0.11-0.2,0.12c-0.09,0-0.17-0.03-0.23-0.11c-0.05,0.06-0.11,0.09-0.17,0.09l0,0
					c-0.08,0-0.16-0.05-0.24-0.13c-0.03,0.06-0.11,0.12-0.2,0.13c-0.12,0.01-0.33-0.06-0.49-0.57c-0.06,0.38-0.18,0.61-0.26,0.76
					c0.08,0.25,0.13,0.8,0.11,1.28c0.07,0.48,0.29,1.19,0.42,1.62c0.06,0.2,0.06,0.32,0,0.37c-0.06,0.04-0.14,0.02-0.19-0.01
					c0.01,0.06,0.01,0.13-0.01,0.2c0,0.01-0.01,0.01-0.01,0.01c-0.01,0-0.01,0-0.02-0.01c-0.05-0.06-0.16-0.15-0.25-0.15
					c-0.01,0.07-0.04,0.13-0.09,0.19l-0.01,0.01c0,0-0.01,0-0.01-0.01c-0.02-0.02-0.03-0.04-0.05-0.06c-0.1-0.12-0.2-0.25-0.3-0.25
					c-0.13,0.03-0.37,0.15-0.44,0.36c0,0.01-0.01,0.01-0.01,0.01c-0.01,0-0.01,0-0.02-0.01c-0.02-0.05-0.04-0.1-0.04-0.16
					c-0.07,0.04-0.2,0.06-0.3,0.04c-0.04-0.01-0.09-0.02-0.12-0.04c0,0.03-0.01,0.07-0.02,0.11c0,0.01-0.01,0.01-0.01,0.01
					c-0.01,0-0.01,0-0.02-0.01c-0.04-0.06-0.14-0.16-0.25-0.17c-0.01,0.08-0.04,0.14-0.09,0.19c0,0-0.01,0.01-0.01,0
					c0,0-0.01,0-0.01-0.01c-0.13-0.18-0.25-0.28-0.36-0.28c-0.13,0.02-0.38,0.14-0.46,0.33C20.65,25.86,20.64,25.86,20.64,25.86
					L20.64,25.86z M20.52,25.31L20.52,25.31c0.01,0,0.02,0.01,0.02,0.02c-0.01,0.03-0.01,0.06,0.01,0.08
					c0.02,0.03,0.06,0.05,0.11,0.05c0.01,0,0.01,0,0.01,0.01c0,0,0,0.01,0,0.02c-0.06,0.1-0.05,0.23-0.02,0.32
					c0.1-0.19,0.33-0.29,0.47-0.32c0.12,0.01,0.24,0.1,0.38,0.28c0.04-0.05,0.07-0.11,0.07-0.18c0-0.01,0.01-0.02,0.02-0.02
					c0.11,0.01,0.21,0.09,0.27,0.16c0.01-0.04,0.01-0.08,0.01-0.11c0-0.01,0-0.01,0.01-0.02c0.01,0,0.01,0,0.02,0.01
					c0.02,0.03,0.06,0.05,0.12,0.06c0.11,0.02,0.25-0.01,0.3-0.05c0,0,0.01,0,0.02,0s0.01,0.01,0.01,0.01c0,0.05,0.01,0.1,0.02,0.14
					c0.09-0.19,0.32-0.31,0.45-0.34l0,0c0.13,0,0.23,0.14,0.33,0.27c0.01,0.01,0.02,0.03,0.03,0.04c0.04-0.05,0.07-0.11,0.07-0.17
					c0-0.01,0.01-0.02,0.02-0.02c0.1,0,0.21,0.08,0.27,0.14c0.01-0.07,0.01-0.14,0-0.19c0-0.01,0-0.01,0.01-0.02
					c0.01,0,0.01,0,0.02,0c0.03,0.02,0.13,0.07,0.19,0.03c0.04-0.03,0.06-0.11-0.01-0.34c-0.13-0.43-0.35-1.14-0.43-1.62
					c0.02-0.48-0.03-1.03-0.11-1.28v-0.01c0.09-0.15,0.21-0.4,0.27-0.82c0-0.01,0.01-0.01,0.01-0.01c0.01,0,0.01,0,0.02,0.01
					c0.16,0.57,0.38,0.62,0.47,0.61c0.1-0.01,0.17-0.08,0.18-0.13c0-0.01,0.01-0.01,0.01-0.01c0.01,0,0.01,0,0.02,0.01
					c0.08,0.09,0.16,0.14,0.24,0.14c0.06,0,0.11-0.03,0.16-0.09l0.01-0.01c0,0,0.01,0,0.01,0.01c0.06,0.08,0.14,0.12,0.22,0.11
					c0.08-0.01,0.15-0.05,0.19-0.12l0.01-0.01c0.01,0,0.01,0,0.01,0.01c0.06,0.07,0.15,0.12,0.24,0.12c0.09,0,0.17-0.03,0.23-0.09
					c0.01-0.01,0.01-0.01,0.02,0c0.12,0.08,0.26,0.11,0.36,0.07c0.05-0.02,0.08-0.05,0.1-0.09L26,21.96h0.01
					c0.13,0.09,0.31,0.09,0.42,0.05c0.06-0.02,0.09-0.05,0.1-0.09c0-0.01,0.01-0.01,0.02-0.01c0.25,0.06,0.58-0.01,0.69-0.1
					c0.03-0.02,0.04-0.04,0.04-0.06c0-0.01,0-0.01,0.01-0.01h0.01c0.36,0.07,0.95-0.09,1.02-0.21c0.01-0.02,0.01-0.03-0.01-0.05
					c0,0-0.01-0.01,0-0.02s0.01-0.01,0.01-0.01c0.19-0.01,0.45-0.11,0.5-0.24c0.02-0.04,0.01-0.07-0.02-0.11c0,0-0.01-0.01,0-0.02
					c0-0.01,0.01-0.01,0.01-0.01c0.3,0,0.57-0.15,0.65-0.29c0.02-0.05,0.02-0.08,0-0.12c0-0.01,0-0.01,0-0.02
					c0-0.01,0.01-0.01,0.02-0.01c0.82,0.05,1.64-0.14,1.86-0.45c0.05-0.08,0.07-0.15,0.03-0.23v-0.01l0.01-0.01
					c0.56-0.05,1.17-0.38,1.14-0.74c0-0.01,0-0.01,0.01-0.02c0.36-0.14,0.6-0.33,0.65-0.49c0.02-0.06,0-0.12-0.04-0.17V18.5
					c0-0.01,0-0.01,0.01-0.01c0.2-0.08,0.37-0.23,0.44-0.4c0.03-0.08,0.04-0.16,0.01-0.22c0-0.01,0-0.02,0.01-0.02
					c0.31-0.2,0.46-0.4,0.41-0.52c-0.05-0.11-0.31-0.19-0.87-0.02c-0.97,0.28-3.82,0.25-5.4,0.16c-1.03-0.06-1.84,0.23-2.41,0.85
					c-0.47,0.51-0.91,0.93-1.4,0.93c-0.01,0-0.01,0-0.02,0s-0.02-0.01-0.02-0.02c0.01-0.33,0.08-0.51,0.23-0.55
					c0.03-0.01,0.05-0.01,0.08-0.02c0.19-0.05,0.29-0.07,0.29-0.24c0-0.01,0.01-0.02,0.01-0.02c0.07-0.01,0.32-0.01,0.4,0.07
					c0.02-0.12,0.03-0.22-0.03-0.29c-0.07-0.09-0.22-0.12-0.46-0.11c-0.01,0-0.02-0.01-0.02-0.01c-0.02-0.17-0.06-0.27-0.13-0.32
					c-0.06-0.05-0.16-0.06-0.29-0.03c-0.11,0.02-0.24,0.03-0.36,0.03c-0.23,0.01-0.48,0.02-0.6,0.16c-0.18,0.21-0.4,0.36-0.64,0.51
					c-0.4,0.26-0.82,0.53-1.07,1.18c0,0.01-0.01,0.01-0.02,0.01c-0.08-0.02-0.17-0.02-0.27-0.03c-0.32-0.02-0.76-0.04-1.26-0.39
					c-0.35-0.25-0.61-0.46-0.84-0.64c-0.7-0.56-1-0.8-2.25-0.73c-1.66,0.1-4.73,0.14-5.87-0.14c-0.39-0.1-0.56-0.01-0.6,0.1
					c-0.04,0.13,0.09,0.32,0.33,0.41c0.01,0,0.01,0.01,0.01,0.01c0,0.01,0,0.01-0.01,0.02c-0.05,0.03-0.07,0.08-0.06,0.16
					c0.02,0.16,0.18,0.35,0.49,0.41c0.01,0,0.01,0.01,0.01,0.02c-0.03,0.26,0.34,0.54,0.7,0.64c0.01,0,0.01,0.01,0.01,0.01
					c0,0.01,0,0.01,0,0.02c-0.05,0.06-0.06,0.12-0.04,0.18c0.09,0.24,0.66,0.51,1.11,0.59c0,0,0.01,0,0.01,0.01v0.01
					c-0.02,0.08,0.01,0.17,0.07,0.24c0.16,0.18,0.55,0.33,1.12,0.42c0.46,0.08,1,0.11,1.34,0.07c0.01,0,0.01,0,0.01,0.01v0.01
					c-0.02,0.1,0,0.19,0.06,0.27c0.09,0.11,0.25,0.17,0.44,0.15c0,0,0.01,0,0.01,0.01v0.01c-0.01,0.05,0.01,0.11,0.06,0.16
					c0.09,0.09,0.25,0.13,0.43,0.11c0.01,0,0.01,0,0.01,0s0.01,0.01,0,0.01c-0.01,0.07,0.03,0.14,0.1,0.19
					c0.16,0.11,0.52,0.14,0.92-0.05c0.01,0,0.01,0,0.02,0l0.01,0.01c-0.01,0.13,0.09,0.2,0.15,0.23c0.15,0.08,0.41,0.08,0.57-0.04
					h0.01c0,0,0.01,0,0.01,0.01c0.02,0.03,0.05,0.05,0.11,0.06c0.12,0.03,0.3,0.02,0.41-0.05h0.01l0.01,0.01
					c0.01,0.03,0.04,0.05,0.06,0.05c0.09,0.03,0.23-0.01,0.33-0.09c0.01-0.01,0.02,0,0.02,0c0.08,0.09,0.28,0.09,0.37,0.02h0.01
					c0,0,0.01,0,0.01,0.01c0.02,0.05,0.06,0.08,0.13,0.09c0.12,0.02,0.29-0.06,0.35-0.14l0.01-0.01c0.01,0,0.01,0,0.01,0.01
					c0.02,0.03,0.06,0.04,0.11,0.04c0.15-0.01,0.4-0.15,0.62-0.53c0-0.01,0.01-0.01,0.02-0.01s0.01,0.01,0.01,0.02
					c-0.07,0.23-0.09,0.46-0.1,0.67c-0.01,0.18-0.02,0.34-0.07,0.47c-0.02,0.06-0.04,0.11-0.06,0.17c-0.21,0.63-0.36,1.08-1.16,2.32
					c-0.07,0.11-0.07,0.22,0.02,0.28c0.11,0.09,0.34,0.08,0.47-0.07l0.01-0.01c0,0,0.01,0,0.01,0.01c0.06,0.1,0.16,0.15,0.26,0.15
					c0.09,0,0.23-0.05,0.36-0.27C20.51,25.31,20.51,25.31,20.52,25.31z"/>
			</g>
			<g>
				<path class="st3" d="M23.27,25.58L23.27,25.58c-0.01,0-0.02-0.01-0.02-0.02c0-0.09-0.03-0.18-0.1-0.24
					c-0.01-0.01-0.01-0.02,0-0.02c0.01-0.01,0.02-0.01,0.02,0c0.07,0.07,0.11,0.17,0.11,0.27C23.29,25.58,23.28,25.58,23.27,25.58z"
					/>
			</g>
			<g>
				<path class="st3" d="M23.55,25.51c-0.01,0-0.01,0-0.02-0.01c-0.06-0.21-0.29-0.19-0.37-0.17c0,0,0,0-0.01,0
					C23,25.29,22.93,25.18,22.93,25c0-0.14,0.09-0.36,0.24-0.68c0.09-0.19,0.12-0.53,0.13-0.77c0-0.01,0.01-0.02,0.02-0.02l0,0
					c0.01,0,0.02,0.01,0.02,0.02c-0.01,0.25-0.04,0.59-0.13,0.79c-0.15,0.32-0.24,0.53-0.24,0.67c0,0.17,0.06,0.26,0.19,0.3
					c0.21-0.04,0.36,0.03,0.4,0.2C23.57,25.5,23.56,25.51,23.55,25.51L23.55,25.51z"/>
			</g>
			<g>
				<path class="st3" d="M22.33,25.65L22.33,25.65c-0.01,0-0.02-0.01-0.02-0.02c0-0.09,0.03-0.3,0.32-0.36
					c0.11-0.02,0.16-0.05,0.16-0.21c0-0.21-0.1-0.36-0.23-0.54c-0.21-0.29-0.47-0.66-0.47-1.51c0-0.01,0.01-0.02,0.02-0.02
					s0.02,0.01,0.02,0.02c0,0.84,0.25,1.2,0.46,1.49c0.13,0.18,0.24,0.34,0.24,0.56c0,0.18-0.05,0.22-0.18,0.24
					c-0.26,0.05-0.29,0.25-0.29,0.33C22.34,25.64,22.33,25.65,22.33,25.65z"/>
			</g>
			<g>
				<path class="st3" d="M22.84,22.8C22.83,22.8,22.83,22.8,22.84,22.8c-0.01,0-0.02-0.01-0.01-0.02c0.05-0.12,0.13-0.21,0.21-0.3
					c0.06-0.07,0.12-0.14,0.17-0.22c0-0.01,0.01-0.01,0.02-0.01s0.01,0.01,0.01,0.02c-0.05,0.08-0.11,0.15-0.17,0.22
					c-0.08,0.09-0.16,0.18-0.21,0.29C22.85,22.79,22.84,22.8,22.84,22.8z"/>
			</g>
			<g>
				<path class="st3" d="M21.54,19.76c-0.01,0-0.01,0-0.01-0.01c-0.04-0.08-0.11-0.13-0.23-0.15c-0.01,0-0.01-0.01-0.01-0.02
					c0-0.01,0.01-0.01,0.02-0.01c0.13,0.03,0.21,0.08,0.25,0.17C21.56,19.74,21.55,19.75,21.54,19.76L21.54,19.76z"/>
			</g>
			<g>
				<path class="st3" d="M21.57,25.61L21.57,25.61c-0.01,0-0.02-0.01-0.02-0.02c0.01-0.09-0.03-0.2-0.1-0.26
					c-0.01-0.01-0.01-0.02,0-0.02c0.01-0.01,0.02-0.01,0.02,0C21.54,25.38,21.58,25.49,21.57,25.61
					C21.59,25.6,21.58,25.61,21.57,25.61z"/>
			</g>
			<g>
				<path class="st3" d="M21.87,25.64L21.87,25.64c-0.01,0-0.02-0.01-0.02-0.02c0-0.09-0.03-0.17-0.09-0.22
					c-0.07-0.06-0.18-0.09-0.29-0.07c0,0,0,0-0.01,0c-0.11-0.03-0.19-0.06-0.18-0.27c0.02-0.33,0.14-0.57,0.27-0.83
					c0.2-0.4,0.43-0.86,0.33-1.78c0-0.01,0.01-0.02,0.01-0.02c0.01,0,0.02,0.01,0.02,0.01c0.1,0.93-0.13,1.39-0.33,1.8
					c-0.13,0.25-0.25,0.5-0.26,0.82c-0.01,0.19,0.05,0.21,0.16,0.24c0.12-0.02,0.24,0.01,0.31,0.08c0.07,0.06,0.1,0.14,0.1,0.25
					C21.89,25.63,21.88,25.64,21.87,25.64z"/>
			</g>
			<g>
				<path class="st3" d="M20.65,25.49C20.64,25.49,20.64,25.49,20.65,25.49c-0.02-0.01-0.02-0.02-0.01-0.02
					c0.05-0.09,0.14-0.15,0.27-0.17c0.11-0.02,0.16-0.04,0.16-0.21c0.01-0.11-0.05-0.18-0.1-0.24c-0.02-0.02-0.04-0.04-0.05-0.07
					c-0.27-0.41-0.51-1.61-0.36-2.06c0-0.01,0.01-0.01,0.02-0.01s0.01,0.01,0.01,0.02c-0.15,0.44,0.1,1.62,0.36,2.03
					c0.01,0.02,0.03,0.04,0.05,0.06c0.05,0.07,0.11,0.14,0.11,0.26c-0.01,0.18-0.06,0.22-0.19,0.24c-0.11,0.02-0.2,0.07-0.24,0.15
					C20.66,25.49,20.65,25.49,20.65,25.49z"/>
			</g>
			<g>
				<path class="st3" d="M23.49,21.45L23.49,21.45c-0.01,0-0.02-0.01-0.02-0.02c0.03-0.2,0.04-0.43,0.04-0.69
					c0-0.24,0.08-0.42,0.17-0.61c0.1-0.2,0.2-0.42,0.2-0.72c0-0.02,0-0.04,0-0.06c0-0.04,0-0.08,0-0.11c0-0.01,0.01-0.02,0.02-0.02
					s0.02,0.01,0.02,0.02c0,0.04,0,0.08,0,0.11c0,0.02,0,0.04,0,0.06c0,0.31-0.1,0.52-0.2,0.73c-0.09,0.19-0.17,0.37-0.17,0.6
					c0,0.26-0.01,0.5-0.04,0.7C23.51,21.44,23.5,21.45,23.49,21.45z"/>
			</g>
			<g>
				<path class="st3" d="M21.43,19.97L21.43,19.97c-1.39-0.06-2.28-0.42-2.8-1.16c-0.57-0.81-1.54-0.83-2.51-0.74
					c-1.06,0.11-2.1,0.06-2.79,0c-0.01,0-0.02-0.01-0.01-0.02c0-0.01,0.01-0.02,0.02-0.01c0.68,0.06,1.72,0.11,2.78,0
					c0.97-0.1,1.95-0.07,2.54,0.75c0.51,0.73,1.39,1.09,2.77,1.15c0.01,0,0.02,0.01,0.02,0.02C21.44,19.97,21.44,19.97,21.43,19.97z
					"/>
			</g>
			<g>
				<path class="st3" d="M15.75,18.58c-0.47,0-0.92-0.06-1.07-0.26c-0.05-0.06-0.06-0.14-0.04-0.21c0-0.01,0.01-0.01,0.02-0.01
					s0.01,0.01,0.01,0.02c-0.02,0.06-0.01,0.12,0.03,0.18c0.11,0.14,0.5,0.34,1.92,0.19c0.01,0,0.02,0.01,0.02,0.01
					c0,0.01-0.01,0.02-0.01,0.02C16.37,18.56,16.05,18.58,15.75,18.58z"/>
			</g>
			<g>
				<path class="st3" d="M16.1,18.97c-0.43,0-0.85-0.07-1.11-0.26c-0.12-0.08-0.19-0.18-0.2-0.29c0-0.01,0.01-0.02,0.01-0.02
					c0.01,0,0.02,0.01,0.02,0.01c0.01,0.1,0.08,0.19,0.18,0.27c0.43,0.31,1.29,0.31,1.96,0.16c0.01,0,0.02,0,0.02,0.01
					s0,0.02-0.01,0.02C16.7,18.94,16.4,18.97,16.1,18.97z"/>
			</g>
			<g>
				<path class="st3" d="M16.39,19.36c-0.26,0-0.51-0.01-0.69-0.04c-0.28-0.03-0.5-0.21-0.49-0.35c0-0.04,0.02-0.12,0.19-0.12l0,0
					c0.01,0,0.02,0.01,0.02,0.02c0,0.01-0.01,0.02-0.02,0.02c-0.1,0-0.16,0.04-0.16,0.09c0,0.1,0.18,0.28,0.46,0.31
					c0.4,0.05,1.15,0.06,1.57-0.05c0.01,0,0.02,0,0.02,0.01s0,0.02-0.01,0.02C17.05,19.34,16.71,19.36,16.39,19.36z"/>
			</g>
			<g>
				<path class="st3" d="M16.56,19.85c-0.09,0-0.16,0-0.21-0.01c-0.44-0.03-0.72-0.14-0.77-0.3c-0.03-0.08,0.01-0.17,0.11-0.25
					c0.01-0.01,0.02,0,0.02,0c0.01,0.01,0,0.02,0,0.02c-0.08,0.07-0.12,0.14-0.1,0.21c0.02,0.07,0.14,0.23,0.74,0.28
					c0.24,0.02,0.84,0.01,1.36-0.14c0.01,0,0.02,0,0.02,0.01s0,0.02-0.01,0.02C17.31,19.82,16.86,19.85,16.56,19.85z"/>
			</g>
			<g>
				<path class="st3" d="M16.87,20.25c-0.29,0-0.48-0.13-0.52-0.25c-0.02-0.07,0.01-0.14,0.08-0.19c0.01,0,0.02,0,0.02,0
					c0,0.01,0,0.02,0,0.02c-0.06,0.04-0.09,0.09-0.07,0.15c0.03,0.11,0.22,0.22,0.49,0.22c0.45,0,0.89-0.08,1.17-0.23
					c0.01,0,0.02,0,0.02,0.01s0,0.02-0.01,0.02C17.76,20.16,17.32,20.25,16.87,20.25z"/>
			</g>
			<g>
				<path class="st3" d="M17.23,20.63c-0.21,0-0.34-0.07-0.4-0.15c-0.05-0.08-0.04-0.17,0.02-0.25c0.01-0.01,0.02-0.01,0.02,0
					c0.01,0.01,0.01,0.02,0,0.02c-0.05,0.07-0.06,0.15-0.02,0.22c0.07,0.11,0.3,0.19,0.64,0.11c0.21-0.05,0.68-0.24,0.82-0.36
					c0.01-0.01,0.02,0,0.02,0v0.02c-0.14,0.12-0.63,0.31-0.84,0.36C17.4,20.62,17.31,20.63,17.23,20.63z"/>
			</g>
			<g>
				<path class="st3" d="M17.66,20.93c-0.11,0-0.18-0.04-0.21-0.1c-0.05-0.09-0.01-0.2,0.09-0.27c0.01,0,0.02,0,0.02,0.01
					s0,0.02,0,0.02c-0.09,0.06-0.12,0.15-0.08,0.22c0.05,0.09,0.2,0.13,0.43,0.03c0.08-0.04,0.37-0.18,0.58-0.39
					c0.01-0.01,0.02-0.01,0.02,0c0.01,0.01,0.01,0.02,0,0.02c-0.21,0.21-0.51,0.36-0.59,0.4C17.82,20.91,17.73,20.93,17.66,20.93z"
					/>
			</g>
			<g>
				<path class="st3" d="M18.09,21.09c-0.06,0-0.11-0.02-0.14-0.04c-0.06-0.05-0.08-0.13-0.05-0.21c0-0.01,0.01-0.01,0.02-0.01
					s0.01,0.01,0.01,0.02c-0.02,0.07-0.01,0.13,0.04,0.17c0.06,0.05,0.18,0.06,0.34-0.03c0.22-0.13,0.38-0.29,0.5-0.48
					c0-0.01,0.01-0.01,0.02,0c0.01,0,0.01,0.01,0,0.02c-0.12,0.19-0.29,0.35-0.51,0.49C18.24,21.07,18.16,21.09,18.09,21.09z"/>
			</g>
			<g>
				<path class="st3" d="M18.45,21.19c-0.03,0-0.05-0.01-0.07-0.02c-0.07-0.04-0.08-0.12-0.07-0.18c0-0.01,0.01-0.01,0.02-0.01
					s0.01,0.01,0.01,0.02c-0.01,0.05,0,0.11,0.05,0.14c0.06,0.03,0.24,0.05,0.69-0.46c0.01-0.01,0.02-0.01,0.02,0
					c0.01,0.01,0.01,0.02,0,0.02C18.75,21.1,18.55,21.19,18.45,21.19z"/>
			</g>
			<g>
				<path class="st3" d="M18.74,21.3c-0.03,0-0.05-0.01-0.07-0.02c-0.06-0.03-0.08-0.09-0.06-0.16c0-0.01,0.01-0.01,0.02-0.01
					s0.01,0.01,0.01,0.02c-0.01,0.06,0,0.1,0.05,0.13c0.11,0.05,0.34-0.06,0.62-0.42c0.01-0.01,0.02-0.01,0.02,0
					c0.01,0.01,0.01,0.02,0,0.02C19.07,21.18,18.87,21.3,18.74,21.3z"/>
			</g>
			<g>
				<path class="st3" d="M19.12,21.35c-0.01,0-0.01,0-0.02,0c-0.07-0.01-0.12-0.05-0.17-0.12c0-0.01,0-0.02,0.01-0.02
					c0.01-0.01,0.02,0,0.02,0.01c0.04,0.07,0.09,0.1,0.15,0.11c0.12,0.01,0.29-0.11,0.55-0.39c0.01-0.01,0.02-0.01,0.02,0
					c0.01,0.01,0.01,0.02,0,0.02C19.42,21.23,19.25,21.35,19.12,21.35z"/>
			</g>
			<g>
				<path class="st3" d="M19.39,21.46c-0.03,0-0.06-0.01-0.09-0.02c-0.05-0.03-0.08-0.08-0.07-0.14c0-0.01,0.01-0.02,0.02-0.01
					c0.01,0,0.01,0.01,0.01,0.02c-0.01,0.05,0.01,0.09,0.05,0.1c0.1,0.05,0.31-0.02,0.53-0.26c0.01-0.01,0.02-0.01,0.02,0
					s0.01,0.02,0,0.02C19.68,21.37,19.51,21.46,19.39,21.46z"/>
			</g>
			<g>
				<path class="st3" d="M19.72,21.47c-0.02,0-0.04,0-0.06-0.01c-0.04-0.02-0.06-0.05-0.05-0.1c0-0.01,0.01-0.02,0.02-0.01
					c0.01,0,0.02,0.01,0.01,0.02c0,0.03,0.01,0.06,0.03,0.07c0.09,0.04,0.34-0.06,0.54-0.3c0.01-0.01,0.02-0.01,0.02,0
					c0.01,0.01,0.01,0.02,0,0.02C20.07,21.36,19.85,21.47,19.72,21.47z"/>
			</g>
			<g>
				<path class="st3" d="M20.15,21.49c-0.09,0-0.17-0.04-0.21-0.1c0-0.01,0-0.02,0-0.02c0.01-0.01,0.02,0,0.02,0
					c0.04,0.06,0.11,0.09,0.2,0.09c0.15,0,0.29-0.11,0.39-0.28c0-0.01,0.01-0.01,0.02-0.01s0.01,0.01,0.01,0.02
					C20.47,21.37,20.32,21.48,20.15,21.49C20.16,21.49,20.16,21.49,20.15,21.49z"/>
			</g>
			<g>
				<path class="st3" d="M20.57,21.53c-0.04,0-0.08-0.01-0.11-0.03c-0.06-0.05-0.05-0.14,0.03-0.24c0.01-0.01,0.02-0.01,0.02,0
					c0.01,0.01,0.01,0.02,0,0.02c-0.06,0.08-0.07,0.15-0.03,0.19c0.06,0.05,0.22,0.04,0.37-0.12c0.01-0.01,0.02-0.01,0.02,0
					c0.01,0.01,0.01,0.02,0,0.02C20.78,21.48,20.66,21.53,20.57,21.53z"/>
			</g>
			<g>
				<path class="st3" d="M20.73,21.61c0,0-0.01,0-0.01-0.01c-0.01-0.01,0-0.02,0-0.02c0.21-0.16,0.27-0.43,0.31-0.64
					c0.04-0.2,0.08-0.38,0.24-0.38c0.01,0,0.02,0.01,0.02,0.02c0,0.01-0.01,0.02-0.02,0.02c-0.14,0-0.17,0.16-0.21,0.36
					C21.02,21.16,20.96,21.43,20.73,21.61C20.74,21.61,20.74,21.61,20.73,21.61z"/>
			</g>
			<g>
				<path class="st3" d="M13.87,18.59c-1.26,0-2.71-0.16-3.34-0.39c-0.01,0-0.01-0.01-0.01-0.02c0-0.01,0.01-0.01,0.02-0.01
					c0.79,0.29,2.92,0.46,4.3,0.35c0.01,0,0.02,0.01,0.02,0.01c0,0.01-0.01,0.02-0.01,0.02C14.55,18.58,14.22,18.59,13.87,18.59z"/>
			</g>
			<g>
				<path class="st3" d="M14.62,19.11c-1.24,0-2.89-0.08-3.65-0.3c-0.01,0-0.01-0.01-0.01-0.02c0-0.01,0.01-0.01,0.02-0.01
					c0.91,0.26,3.05,0.32,4.29,0.29c0.01,0,0.02,0.01,0.02,0.02c0,0.01-0.01,0.02-0.02,0.02C15.07,19.11,14.85,19.11,14.62,19.11z"
					/>
			</g>
			<g>
				<path class="st3" d="M14.61,19.78c-1.19,0-2.48-0.2-2.94-0.31c-0.01,0-0.01-0.01-0.01-0.02c0-0.01,0.01-0.01,0.02-0.01
					c0.61,0.14,2.7,0.46,4.05,0.23c0.01,0,0.02,0,0.02,0.01s0,0.02-0.01,0.02C15.4,19.75,15.01,19.78,14.61,19.78z"/>
			</g>
			<g>
				<path class="st3" d="M14.61,20.43c-0.82,0-1.57-0.08-1.86-0.16c-0.01,0-0.01-0.01-0.01-0.02s0.01-0.01,0.02-0.01
					c0.52,0.13,2.64,0.31,3.79-0.08c0.01,0,0.02,0,0.02,0.01s0,0.02-0.01,0.02C16.03,20.37,15.3,20.43,14.61,20.43z"/>
			</g>
			<g>
				<path class="st3" d="M15.3,21.03c-0.01,0-0.02-0.01-0.02-0.02c0-0.01,0.01-0.02,0.02-0.02c0.35-0.01,1.17-0.22,1.6-0.48
					c0.01,0,0.02,0,0.02,0.01s0,0.02-0.01,0.02C16.49,20.81,15.65,21.02,15.3,21.03L15.3,21.03z"/>
			</g>
			<g>
				<path class="st3" d="M15.82,21.47c-0.01,0-0.01-0.01-0.02-0.01c0-0.01,0-0.02,0.01-0.02c0.48-0.07,1.19-0.28,1.63-0.64
					c0.01-0.01,0.02,0,0.02,0c0.01,0.01,0,0.02,0,0.02C17.02,21.19,16.3,21.4,15.82,21.47L15.82,21.47z"/>
			</g>
			<g>
				<path class="st3" d="M16.32,21.76c-0.01,0-0.02-0.01-0.02-0.02c0-0.01,0.01-0.02,0.02-0.02c0.35-0.01,1.26-0.39,1.65-0.69
					c0.01-0.01,0.02,0,0.02,0v0.02C17.6,21.37,16.68,21.75,16.32,21.76C16.33,21.76,16.33,21.76,16.32,21.76z"/>
			</g>
			<g>
				<path class="st3" d="M17.37,21.92c-0.01,0-0.01,0-0.01-0.01s0-0.02,0.01-0.02c0.33-0.14,0.78-0.43,1.11-0.72
					c0.01-0.01,0.02-0.01,0.02,0c0.01,0.01,0.01,0.02,0,0.02C18.16,21.49,17.71,21.78,17.37,21.92L17.37,21.92z"/>
			</g>
			<g>
				<path class="st3" d="M18.11,22.12c-0.01,0-0.01,0-0.01-0.01c-0.01-0.01,0-0.02,0-0.02c0.29-0.2,0.54-0.49,0.76-0.75
					c0.03-0.03,0.06-0.07,0.09-0.1c0.01-0.01,0.02-0.01,0.02,0c0.01,0.01,0.01,0.02,0,0.02c-0.03,0.03-0.06,0.07-0.09,0.1
					C18.67,21.62,18.41,21.92,18.11,22.12C18.12,22.12,18.12,22.12,18.11,22.12z"/>
			</g>
			<g>
				<path class="st3" d="M18.65,22.15c-0.01,0-0.01,0-0.01-0.01s0-0.02,0.01-0.02c0.24-0.13,0.42-0.39,0.61-0.66l0.03-0.05
					c0.01-0.01,0.02-0.01,0.02,0c0.01,0.01,0.01,0.02,0,0.02l-0.03,0.05C19.09,21.75,18.9,22.01,18.65,22.15
					C18.66,22.15,18.66,22.15,18.65,22.15z"/>
			</g>
			<g>
				<path class="st3" d="M19.08,22.12c-0.01,0-0.01,0-0.01-0.01c-0.01-0.01,0-0.02,0-0.02c0.19-0.14,0.44-0.41,0.6-0.65
					c0-0.01,0.01-0.01,0.02-0.01s0.01,0.01,0,0.02C19.53,21.7,19.28,21.98,19.08,22.12L19.08,22.12z"/>
			</g>
			<g>
				<path class="st3" d="M19.47,22.15c0,0-0.01,0-0.01-0.01c-0.01-0.01,0-0.02,0-0.02c0.2-0.17,0.41-0.44,0.54-0.69
					c0-0.01,0.01-0.01,0.02-0.01s0.01,0.01,0.01,0.02c-0.12,0.26-0.33,0.53-0.54,0.7C19.48,22.15,19.47,22.15,19.47,22.15z"/>
			</g>
			<g>
				<path class="st3" d="M19.98,22.1c0,0-0.01,0-0.01-0.01c-0.01-0.01,0-0.02,0-0.02c0.19-0.17,0.34-0.37,0.47-0.66
					c0-0.01,0.01-0.01,0.02-0.01s0.01,0.01,0.01,0.02c-0.13,0.29-0.28,0.5-0.48,0.67C19.98,22.1,19.98,22.1,19.98,22.1z"/>
			</g>
			<g>
				<path class="st3" d="M19.87,25.46C19.86,25.46,19.86,25.46,19.87,25.46c-0.02-0.01-0.02-0.02-0.01-0.02
					c0.24-0.42,0.55-0.94,0.77-1.44c0-0.01,0.01-0.01,0.02-0.01s0.01,0.01,0.01,0.02c-0.22,0.5-0.52,1.02-0.77,1.44
					C19.88,25.46,19.87,25.46,19.87,25.46z"/>
			</g>
			<g>
				<path class="st3" d="M20.52,25.34C20.51,25.34,20.51,25.34,20.52,25.34c-0.02-0.01-0.02-0.02-0.01-0.03
					c0.09-0.13,0.16-0.28,0.23-0.42c0.04-0.09,0.08-0.17,0.12-0.24c0-0.01,0.01-0.01,0.02-0.01s0.01,0.01,0.01,0.02
					c-0.04,0.07-0.08,0.16-0.12,0.24c-0.07,0.14-0.14,0.29-0.23,0.42C20.53,25.34,20.52,25.34,20.52,25.34z"/>
			</g>
			<g>
				<path class="st3" d="M21.78,25.33c-0.01,0-0.02-0.01-0.02-0.02c0-0.07-0.01-0.18-0.01-0.31c-0.01-0.35-0.04-0.88-0.02-1.17
					c0-0.01,0.01-0.01,0.02-0.02c0.01,0,0.02,0.01,0.02,0.02c-0.01,0.29,0.01,0.82,0.02,1.17c0.01,0.13,0.01,0.24,0.01,0.31
					C21.79,25.32,21.79,25.33,21.78,25.33L21.78,25.33z"/>
			</g>
			<g>
				<path class="st3" d="M22.36,25.41L22.36,25.41c-0.01,0-0.02-0.01-0.02-0.02c0-0.14-0.02-0.34-0.05-0.58
					c-0.03-0.29-0.07-0.62-0.07-0.89c0-0.01,0.01-0.02,0.02-0.02l0,0c0.01,0,0.02,0.01,0.02,0.02c0,0.27,0.04,0.6,0.07,0.89
					c0.03,0.24,0.05,0.45,0.05,0.59C22.38,25.4,22.37,25.41,22.36,25.41z"/>
			</g>
			<g>
				<path class="st3" d="M23.32,25.32c-0.01,0-0.01,0-0.02-0.01c-0.02-0.06-0.15-0.62-0.17-0.87c0-0.01,0.01-0.02,0.01-0.02
					c0.01,0,0.02,0.01,0.02,0.01c0.03,0.24,0.16,0.8,0.17,0.86C23.34,25.31,23.33,25.32,23.32,25.32L23.32,25.32z"/>
			</g>
			<g>
				<path class="st3" d="M23.9,19.76c-0.01,0-0.02-0.01-0.02-0.02c0-0.01,0.01-0.02,0.02-0.02c0.54-0.01,0.9-0.38,1.31-0.81
					c0.53-0.54,1.13-1.16,2.24-1.16c0.02,0,0.05,0,0.07,0c0.76,0.02,1.41,0.05,1.98,0.08c0.97,0.05,1.67,0.08,2.27,0.02
					c0.01,0,0.02,0.01,0.02,0.01c0,0.01-0.01,0.02-0.01,0.02c-0.6,0.06-1.31,0.03-2.28-0.02c-0.57-0.03-1.22-0.06-1.97-0.08
					c-0.02,0-0.05,0-0.07,0c-1.1,0-1.7,0.61-2.22,1.15C24.83,19.35,24.45,19.75,23.9,19.76L23.9,19.76z"/>
			</g>
			<g>
				<path class="st3" d="M28.53,18.29c-0.18,0-0.39-0.01-0.61-0.03c-0.01,0-0.02-0.01-0.01-0.02c0-0.01,0.01-0.01,0.02-0.01
					c0.89,0.07,1.49,0,1.7-0.2c0.05-0.05,0.08-0.11,0.08-0.18c0-0.01,0.01-0.02,0.02-0.02s0.02,0.01,0.02,0.02
					c0,0.08-0.03,0.14-0.09,0.2C29.48,18.21,29.1,18.29,28.53,18.29z"/>
			</g>
			<g>
				<path class="st3" d="M28.53,18.73c-0.25,0-0.54-0.03-0.83-0.07c-0.01,0-0.01-0.01-0.01-0.02c0-0.01,0.01-0.01,0.02-0.01
					c0.6,0.08,1.2,0.14,1.44-0.08c0.08-0.08,0.12-0.18,0.11-0.32c0-0.01,0.01-0.02,0.02-0.02s0.02,0.01,0.02,0.02
					c0.01,0.15-0.03,0.26-0.12,0.35C29.03,18.68,28.81,18.73,28.53,18.73z"/>
			</g>
			<g>
				<path class="st3" d="M28.26,19.17c-0.27,0-0.6-0.05-0.93-0.12c-0.01,0-0.01-0.01-0.01-0.02c0-0.01,0.01-0.01,0.02-0.01
					c0.38,0.08,1.16,0.24,1.46-0.02c0.09-0.08,0.14-0.19,0.13-0.34c0-0.01,0.01-0.02,0.02-0.02l0,0c0.01,0,0.02,0.01,0.02,0.02
					c0.01,0.16-0.04,0.28-0.14,0.36C28.69,19.13,28.5,19.17,28.26,19.17z"/>
			</g>
			<g>
				<path class="st3" d="M27.98,19.63c-0.28,0-0.66-0.07-1.13-0.2c-0.01,0-0.01-0.01-0.01-0.02c0-0.01,0.01-0.01,0.02-0.01
					c0.84,0.24,1.38,0.26,1.61,0.07c0.1-0.08,0.14-0.2,0.12-0.36c0-0.01,0.01-0.02,0.01-0.02c0.01,0,0.02,0.01,0.02,0.01
					c0.02,0.17-0.03,0.3-0.13,0.39C28.39,19.59,28.22,19.63,27.98,19.63z"/>
			</g>
			<g>
				<path class="st3" d="M27.52,20.09c-0.31,0-0.69-0.09-1.03-0.22c-0.01,0-0.01-0.01-0.01-0.02c0-0.01,0.01-0.01,0.02-0.01
					c0.64,0.25,1.23,0.29,1.46,0.11c0.09-0.07,0.12-0.18,0.1-0.32c0-0.01,0-0.02,0.01-0.02s0.02,0,0.02,0.01
					c0.03,0.15-0.01,0.27-0.11,0.35C27.88,20.05,27.71,20.09,27.52,20.09z"/>
			</g>
			<g>
				<path class="st3" d="M27.01,20.44c-0.25,0-0.58-0.11-0.91-0.33c-0.01,0-0.01-0.01,0-0.02c0-0.01,0.01-0.01,0.02,0
					c0.45,0.29,0.9,0.4,1.15,0.27c0.1-0.06,0.16-0.15,0.16-0.28c0-0.01,0.01-0.02,0.02-0.02s0.02,0.01,0.02,0.02
					c0,0.14-0.06,0.25-0.18,0.31C27.21,20.42,27.12,20.44,27.01,20.44z"/>
			</g>
			<g>
				<path class="st3" d="M26.59,20.7c-0.21,0-0.49-0.12-0.83-0.36c-0.01-0.01-0.01-0.02,0-0.02c0.01-0.01,0.02-0.01,0.02,0
					c0.41,0.29,0.75,0.41,0.94,0.33c0.09-0.04,0.14-0.12,0.16-0.24c0-0.01,0.01-0.02,0.02-0.01c0.01,0,0.01,0.01,0.01,0.02
					c-0.02,0.13-0.08,0.22-0.18,0.26C26.7,20.7,26.65,20.7,26.59,20.7z"/>
			</g>
			<g>
				<path class="st3" d="M26.16,20.87c-0.18,0-0.4-0.13-0.61-0.37c-0.01-0.01-0.01-0.02,0-0.02c0.01-0.01,0.02-0.01,0.02,0
					c0.23,0.26,0.47,0.39,0.65,0.35c0.09-0.02,0.15-0.08,0.18-0.17c0-0.01,0.01-0.01,0.02-0.01s0.01,0.01,0.01,0.02
					c-0.03,0.1-0.1,0.17-0.2,0.19C26.21,20.86,26.18,20.87,26.16,20.87z"/>
			</g>
			<g>
				<path class="st3" d="M25.84,20.98c-0.16,0-0.4-0.16-0.58-0.45c0-0.01,0-0.02,0.01-0.02s0.02,0,0.02,0.01
					c0.19,0.3,0.46,0.46,0.59,0.43c0.06-0.01,0.09-0.05,0.1-0.12c0-0.01,0.01-0.01,0.02-0.01s0.01,0.01,0.01,0.02
					c-0.01,0.08-0.05,0.13-0.12,0.15C25.87,20.97,25.86,20.98,25.84,20.98z"/>
			</g>
			<g>
				<path class="st3" d="M25.6,21.09c-0.16,0-0.39-0.19-0.56-0.46c0-0.01,0-0.02,0.01-0.02s0.02,0,0.02,0.01
					c0.19,0.31,0.44,0.46,0.57,0.44c0.05-0.01,0.08-0.05,0.09-0.12c0-0.01,0.01-0.01,0.02-0.01s0.01,0.01,0.01,0.02
					c-0.01,0.1-0.07,0.14-0.11,0.15C25.62,21.09,25.61,21.09,25.6,21.09z"/>
			</g>
			<g>
				<path class="st3" d="M25.31,21.19c-0.16,0-0.37-0.19-0.52-0.46c0-0.01,0-0.02,0.01-0.02s0.02,0,0.02,0.01
					c0.17,0.31,0.39,0.46,0.51,0.44c0.06-0.01,0.09-0.05,0.11-0.12c0-0.01,0.01-0.01,0.02-0.01s0.01,0.01,0.01,0.02
					c-0.02,0.09-0.06,0.14-0.13,0.15C25.33,21.19,25.32,21.19,25.31,21.19z"/>
			</g>
			<g>
				<path class="st3" d="M24.97,21.28c-0.14,0-0.34-0.15-0.45-0.5c0-0.01,0-0.02,0.01-0.02s0.02,0,0.02,0.01
					c0.11,0.31,0.29,0.48,0.42,0.48l0,0c0.07,0,0.12-0.05,0.14-0.13c0-0.01,0.01-0.01,0.02-0.01s0.01,0.01,0.01,0.02
					C25.12,21.22,25.06,21.27,24.97,21.28C24.98,21.28,24.97,21.28,24.97,21.28z"/>
			</g>
			<g>
				<path class="st3" d="M24.62,21.3c-0.01,0-0.02,0-0.03,0c-0.14-0.02-0.31-0.21-0.36-0.57c0-0.01,0-0.02,0.01-0.02
					s0.02,0,0.02,0.01c0.05,0.33,0.2,0.53,0.33,0.55c0.07,0.01,0.12-0.03,0.16-0.11c0-0.01,0.01-0.01,0.02-0.01s0.01,0.01,0.01,0.02
					C24.75,21.26,24.69,21.3,24.62,21.3z"/>
			</g>
			<g>
				<path class="st3" d="M24.33,21.36c-0.01,0-0.03,0-0.04,0c-0.13-0.03-0.24-0.23-0.28-0.52c0-0.01,0-0.02,0.01-0.02
					s0.02,0,0.02,0.01c0.05,0.33,0.17,0.47,0.26,0.5c0.06,0.02,0.12-0.02,0.18-0.09c0.01-0.01,0.02-0.01,0.02,0
					c0.01,0.01,0.01,0.02,0,0.02C24.46,21.32,24.4,21.36,24.33,21.36z"/>
			</g>
			<g>
				<path class="st3" d="M24.04,21.39c-0.01,0-0.03,0-0.04,0c-0.13-0.03-0.24-0.23-0.28-0.52c0-0.01,0-0.02,0.01-0.02
					s0.02,0,0.02,0.01c0.05,0.33,0.17,0.47,0.26,0.5c0.06,0.02,0.12-0.02,0.18-0.09c0.01-0.01,0.02-0.01,0.02,0
					c0.01,0.01,0.01,0.02,0,0.02C24.16,21.35,24.1,21.39,24.04,21.39z"/>
			</g>
			<g>
				<path class="st3" d="M23.67,21.37c-0.06,0-0.12-0.03-0.17-0.09c-0.01-0.01-0.01-0.02,0-0.02c0.01-0.01,0.02-0.01,0.02,0
					c0.05,0.06,0.11,0.08,0.16,0.08c0.07-0.01,0.12-0.06,0.16-0.11c0.01-0.01,0.02-0.01,0.02,0c0.01,0.01,0.01,0.02,0,0.02
					c-0.06,0.08-0.12,0.12-0.18,0.13C23.68,21.37,23.68,21.37,23.67,21.37z"/>
			</g>
			<g>
				<path class="st3" d="M29.64,18.41c-0.15,0-0.28,0-0.38-0.01c-0.01,0-0.02-0.01-0.02-0.02c0-0.01,0.01-0.02,0.02-0.02l0,0
					c0.98,0.04,3.72-0.09,4.34-0.51c0.01,0,0.02,0,0.02,0c0.01,0.01,0,0.02,0,0.02c-0.36,0.24-1.34,0.38-2.1,0.44
					C30.84,18.38,30.14,18.41,29.64,18.41z"/>
			</g>
			<g>
				<path class="st3" d="M29.7,19c-0.28,0-0.56-0.01-0.85-0.02c-0.01,0-0.02-0.01-0.02-0.02s0.01-0.01,0.02-0.02
					c1.81,0.08,3.49-0.1,4.29-0.46c0.01,0,0.02,0,0.02,0.01s0,0.02-0.01,0.02C32.48,18.82,31.18,19,29.7,19z"/>
			</g>
			<g>
				<path class="st3" d="M29.58,19.51c-0.43,0-0.81-0.01-1.06-0.03c-0.01,0-0.02-0.01-0.01-0.02c0-0.01,0.01-0.01,0.02-0.01l0,0
					c0.89,0.07,3.34,0.05,4.02-0.27c0.01,0,0.02,0,0.02,0.01s0,0.02-0.01,0.02C32.06,19.43,30.66,19.51,29.58,19.51z"/>
			</g>
			<g>
				<path class="st3" d="M30.03,20.04c-0.73,0-1.51-0.04-2.04-0.09c-0.01,0-0.02-0.01-0.01-0.02c0-0.01,0.01-0.01,0.02-0.01l0,0
					c0.9,0.09,2.59,0.15,3.38,0.01c0.01,0,0.02,0,0.02,0.01s0,0.02-0.01,0.02C31.05,20.02,30.56,20.04,30.03,20.04z"/>
			</g>
			<g>
				<path class="st3" d="M29.48,20.66L29.48,20.66c-0.59-0.01-1.55-0.17-2.13-0.32c-0.01,0-0.01-0.01-0.01-0.02
					c0-0.01,0.01-0.01,0.02-0.01c0.58,0.15,1.53,0.31,2.13,0.32c0.01,0,0.02,0.01,0.02,0.02C29.49,20.65,29.48,20.66,29.48,20.66z"
					/>
			</g>
			<g>
				<path class="st3" d="M28.7,21.1c-0.45,0-1.41-0.22-1.92-0.45c-0.01,0-0.01-0.01-0.01-0.02c0-0.01,0.01-0.01,0.02-0.01
					c0.55,0.25,1.64,0.49,2.01,0.44c0.01,0,0.02,0.01,0.02,0.01c0,0.01-0.01,0.02-0.01,0.02C28.78,21.09,28.75,21.1,28.7,21.1z"/>
			</g>
			<g>
				<path class="st3" d="M28.18,21.47c-0.43,0-1.34-0.2-1.86-0.66c-0.01-0.01-0.01-0.02,0-0.02c0.01-0.01,0.02-0.01,0.02,0
					c0.57,0.51,1.67,0.7,1.98,0.64c0.01,0,0.02,0,0.02,0.01s0,0.02-0.01,0.02C28.29,21.47,28.24,21.47,28.18,21.47z"/>
			</g>
			<g>
				<path class="st3" d="M27.3,21.75L27.3,21.75c-0.46-0.05-1.08-0.38-1.44-0.78c-0.01-0.01-0.01-0.02,0-0.02
					c0.01-0.01,0.02-0.01,0.02,0c0.35,0.39,0.97,0.72,1.42,0.77c0.01,0,0.02,0.01,0.01,0.02C27.32,21.74,27.31,21.75,27.3,21.75z"/>
			</g>
			<g>
				<path class="st3" d="M26.56,21.93L26.56,21.93c-0.44-0.09-0.79-0.51-1.05-0.86c-0.01-0.01,0-0.02,0-0.02
					c0.01-0.01,0.02,0,0.02,0c0.25,0.35,0.59,0.76,1.02,0.85C26.56,21.9,26.56,21.91,26.56,21.93
					C26.57,21.93,26.56,21.93,26.56,21.93z"/>
			</g>
			<g>
				<path class="st3" d="M26,21.98L26,21.98c-0.22-0.15-0.63-0.5-0.83-0.82c0-0.01,0-0.02,0.01-0.02s0.02,0,0.02,0.01
					c0.2,0.32,0.61,0.66,0.81,0.81c0.01,0.01,0.01,0.02,0,0.02C26.01,21.98,26.01,21.98,26,21.98z"/>
			</g>
			<g>
				<path class="st3" d="M25.52,22L25.52,22c-0.31-0.15-0.53-0.5-0.62-0.74c0-0.01,0-0.02,0.01-0.02s0.02,0,0.02,0.01
					c0.09,0.24,0.31,0.58,0.6,0.72c0.01,0,0.01,0.01,0.01,0.02S25.53,22,25.52,22z"/>
			</g>
			<g>
				<path class="st3" d="M25.03,21.97c0,0-0.01,0-0.01-0.01c-0.19-0.22-0.33-0.44-0.41-0.67c0-0.01,0-0.02,0.01-0.02
					s0.02,0,0.02,0.01c0.08,0.22,0.21,0.44,0.41,0.66c0.01,0.01,0.01,0.02,0,0.02C25.04,21.97,25.04,21.97,25.03,21.97z"/>
			</g>
			<g>
				<path class="st3" d="M24.6,21.98c0,0-0.01,0-0.01-0.01c-0.12-0.15-0.22-0.3-0.35-0.65c0-0.01,0-0.02,0.01-0.02s0.02,0,0.02,0.01
					c0.13,0.35,0.23,0.49,0.35,0.64C24.62,21.96,24.62,21.97,24.6,21.98C24.61,21.98,24.6,21.98,24.6,21.98z"/>
			</g>
			<g>
				<path class="st3" d="M24.18,21.93c0,0-0.01,0-0.01-0.01c-0.13-0.14-0.21-0.3-0.35-0.65c0-0.01,0-0.02,0.01-0.02
					s0.02,0,0.02,0.01c0.14,0.35,0.22,0.51,0.35,0.64c0.01,0.01,0.01,0.02,0,0.02C24.19,21.93,24.18,21.93,24.18,21.93z"/>
			</g>
			<g>
				<path class="st3" d="M24.18,18.46c-0.01,0-0.01,0-0.01-0.01s0-0.02,0.01-0.02c0.04-0.02,0.12-0.02,0.2-0.02
					c0.04,0,0.08,0,0.12-0.01c0.01,0,0.02,0.01,0.02,0.01c0,0.01-0.01,0.02-0.01,0.02c-0.04,0-0.08,0-0.12,0.01
					C24.3,18.44,24.23,18.44,24.18,18.46C24.19,18.46,24.18,18.46,24.18,18.46z"/>
			</g>
			<g>
				<path class="st3" d="M24.34,18.19L24.34,18.19c-0.01,0-0.02-0.01-0.02-0.02c0-0.03,0.02-0.05,0.04-0.06
					c0.02-0.02,0.03-0.03,0.03-0.06c0-0.01,0.01-0.02,0.01-0.02c0.01,0,0.02,0.01,0.02,0.01c0.01,0.05-0.02,0.07-0.04,0.08
					c-0.01,0.01-0.03,0.02-0.03,0.04C24.36,18.19,24.35,18.19,24.34,18.19z"/>
			</g>
			<g>
				<path class="st3" d="M24.19,18.12C24.19,18.12,24.18,18.12,24.19,18.12c-0.12-0.06-0.23-0.04-0.27-0.03
					c-0.07,0.02-0.15,0-0.22-0.02c-0.07-0.02-0.15-0.04-0.23-0.02c-0.01,0-0.02,0-0.02-0.01s0-0.02,0.01-0.02
					c0.08-0.02,0.17,0,0.24,0.02s0.14,0.04,0.21,0.02c0.05-0.01,0.17-0.03,0.29,0.03c0.01,0,0.01,0.01,0.01,0.02
					C24.2,18.12,24.19,18.12,24.19,18.12z"/>
			</g>
			<g>
				<path class="st3" d="M23.82,18.23C23.82,18.23,23.82,18.22,23.82,18.23c-0.06,0-0.11-0.03-0.14-0.06s-0.04-0.07-0.03-0.11
					c0-0.01,0.01-0.01,0.02-0.01s0.01,0.01,0.01,0.02c-0.01,0.03,0,0.06,0.02,0.08c0.02,0.03,0.06,0.05,0.1,0.05
					s0.09-0.01,0.11-0.04c0.02-0.02,0.03-0.05,0.03-0.08c0-0.01,0.01-0.02,0.02-0.02s0.02,0.01,0.02,0.01
					c0,0.04-0.01,0.08-0.04,0.11C23.92,18.21,23.87,18.23,23.82,18.23z"/>
			</g>
		</g>
		<g>
			<g>
				<path class="st0" d="M8.63,5.33v2.28v0.24l0,0c0,0.06,0,0.14-0.01,0.2C8.58,8.41,8.41,8.72,8.17,8.97
					C7.88,9.26,7.49,9.43,7.05,9.43c-0.43,0-0.82-0.18-1.11-0.47c-0.3-0.29-0.47-0.7-0.47-1.12V5.32L8.63,5.33L8.63,5.33z"/>
			</g>
			<g>
				<path class="st4" d="M4.38,7.84L4.38,7.84L4.38,7.84c0,0.73,0.3,1.39,0.78,1.87c0.48,0.48,1.15,0.78,1.87,0.78
					c0.73,0,1.39-0.3,1.87-0.78s0.78-1.14,0.78-1.87l0,0V4.26H4.37L4.38,7.84L4.38,7.84z M8.63,5.33v2.28v0.24l0,0
					c0,0.06,0,0.14-0.01,0.2C8.58,8.41,8.41,8.72,8.17,8.97C7.88,9.26,7.49,9.43,7.05,9.43c-0.43,0-0.82-0.18-1.11-0.47
					c-0.3-0.29-0.47-0.7-0.47-1.12V5.32L8.63,5.33L8.63,5.33z"/>
				<path class="st5" d="M7.04,10.5c-0.71,0-1.38-0.28-1.89-0.78S4.36,8.55,4.36,7.84l0,0V4.25H9.7v3.6c0,0.71-0.28,1.37-0.78,1.88
					C8.42,10.22,7.75,10.5,7.04,10.5z M4.4,7.84L4.4,7.84c0,0.7,0.28,1.36,0.78,1.86s1.16,0.77,1.86,0.77S8.4,10.2,8.9,9.7
					c0.5-0.49,0.77-1.15,0.77-1.84V7.85V4.28H4.39L4.4,7.84z M7.04,9.45c-0.42,0-0.81-0.17-1.12-0.48c-0.3-0.3-0.47-0.71-0.47-1.13
					V5.31l3.2,0.01v2.29v0.24c0,0.07,0,0.14-0.01,0.2C8.6,8.4,8.44,8.72,8.18,8.98C7.87,9.28,7.46,9.45,7.04,9.45z M5.47,5.34v2.5
					c0,0.41,0.17,0.81,0.46,1.11c0.3,0.3,0.69,0.47,1.1,0.47c0.42,0,0.81-0.16,1.11-0.46c0.25-0.25,0.41-0.57,0.45-0.91
					C8.6,7.99,8.6,7.92,8.6,7.85V7.61V5.35L5.47,5.34z"/>
			</g>
			<g>
				<path class="st6" d="M7.41,7.43v-0.5h-0.7v0.5l0,0c0,0.1,0.04,0.2,0.1,0.27c0.06,0.07,0.15,0.11,0.25,0.11S7.24,7.77,7.31,7.7
					C7.37,7.63,7.41,7.54,7.41,7.43L7.41,7.43z M6.87,7.05c0.04,0,0.07,0.03,0.07,0.07S6.91,7.19,6.87,7.19S6.8,7.16,6.8,7.12
					S6.84,7.05,6.87,7.05z M6.87,7.57C6.83,7.57,6.8,7.54,6.8,7.5s0.03-0.07,0.07-0.07S6.94,7.46,6.94,7.5S6.91,7.57,6.87,7.57z
					 M7.06,7.38c-0.04,0-0.07-0.03-0.07-0.07s0.03-0.07,0.07-0.07s0.07,0.03,0.07,0.07S7.1,7.38,7.06,7.38z M7.25,7.57
					c-0.04,0-0.07-0.03-0.07-0.07s0.03-0.07,0.07-0.07S7.32,7.46,7.32,7.5S7.29,7.57,7.25,7.57z M7.25,7.19
					c-0.04,0-0.07-0.03-0.07-0.07s0.03-0.07,0.07-0.07s0.07,0.03,0.07,0.07S7.29,7.19,7.25,7.19z"/>
			</g>
			<g>
				<path class="st6" d="M7.39,8.64v-0.5h-0.7v0.5l0,0c0,0.1,0.04,0.2,0.1,0.27c0.06,0.07,0.15,0.11,0.25,0.11s0.18-0.04,0.25-0.11
					C7.35,8.83,7.39,8.74,7.39,8.64L7.39,8.64z M6.86,8.26c0.04,0,0.07,0.03,0.07,0.07S6.9,8.4,6.86,8.4S6.79,8.37,6.79,8.33
					S6.82,8.26,6.86,8.26z M6.86,8.77c-0.04,0-0.07-0.03-0.07-0.07s0.03-0.07,0.07-0.07S6.93,8.66,6.93,8.7S6.9,8.77,6.86,8.77z
					 M7.04,8.58C7,8.58,6.97,8.55,6.97,8.51S7,8.44,7.04,8.44s0.07,0.03,0.07,0.07S7.08,8.58,7.04,8.58z M7.24,8.77
					c-0.04,0-0.07-0.03-0.07-0.07S7.2,8.63,7.24,8.63S7.31,8.66,7.31,8.7C7.3,8.74,7.27,8.77,7.24,8.77z M7.24,8.39
					c-0.04,0-0.07-0.03-0.07-0.07S7.2,8.25,7.24,8.25s0.07,0.03,0.07,0.07S7.27,8.39,7.24,8.39z"/>
			</g>
			<g>
				<path class="st6" d="M6.44,7.43v-0.5h-0.7v0.5l0,0c0,0.1,0.04,0.2,0.1,0.27C5.9,7.77,5.99,7.81,6.09,7.81S6.27,7.77,6.34,7.7
					C6.4,7.63,6.44,7.54,6.44,7.43L6.44,7.43z M5.9,7.05c0.04,0,0.07,0.03,0.07,0.07S5.94,7.19,5.9,7.19S5.83,7.16,5.83,7.12
					S5.87,7.05,5.9,7.05z M5.9,7.57c-0.04,0-0.07-0.03-0.07-0.07S5.86,7.43,5.9,7.43S5.97,7.46,5.97,7.5S5.94,7.57,5.9,7.57z
					 M6.09,7.38c-0.04,0-0.07-0.03-0.07-0.07s0.03-0.07,0.07-0.07s0.07,0.03,0.07,0.07S6.13,7.38,6.09,7.38z M6.28,7.57
					c-0.04,0-0.07-0.03-0.07-0.07s0.03-0.07,0.07-0.07S6.35,7.46,6.35,7.5S6.32,7.57,6.28,7.57z M6.28,7.19
					c-0.04,0-0.07-0.03-0.07-0.07s0.03-0.07,0.07-0.07s0.07,0.03,0.07,0.07S6.32,7.19,6.28,7.19z"/>
			</g>
			<g>
				<path class="st6" d="M8.37,7.43v-0.5h-0.7v0.5l0,0c0,0.1,0.04,0.2,0.1,0.27c0.06,0.07,0.15,0.11,0.25,0.11S8.2,7.77,8.27,7.7
					C8.33,7.63,8.37,7.54,8.37,7.43L8.37,7.43z M7.84,7.05c0.04,0,0.07,0.03,0.07,0.07S7.88,7.19,7.84,7.19S7.77,7.16,7.77,7.12
					S7.8,7.05,7.84,7.05z M7.84,7.57c-0.04,0-0.07-0.03-0.07-0.07S7.8,7.43,7.84,7.43S7.91,7.46,7.91,7.5S7.88,7.57,7.84,7.57z
					 M8.03,7.38c-0.04,0-0.07-0.03-0.07-0.07s0.03-0.07,0.07-0.07S8.1,7.27,8.1,7.31S8.06,7.38,8.03,7.38z M8.22,7.57
					c-0.04,0-0.07-0.03-0.07-0.07s0.03-0.07,0.07-0.07S8.29,7.46,8.29,7.5S8.26,7.57,8.22,7.57z M8.22,7.19
					c-0.04,0-0.07-0.03-0.07-0.07s0.03-0.07,0.07-0.07s0.07,0.03,0.07,0.07S8.26,7.19,8.22,7.19z"/>
			</g>
			<g>
				<path class="st6" d="M7.41,6.22v-0.5h-0.7v0.5l0,0c0,0.1,0.04,0.2,0.1,0.27C6.87,6.56,6.96,6.6,7.06,6.6s0.18-0.04,0.25-0.11
					C7.37,6.42,7.41,6.32,7.41,6.22L7.41,6.22z M6.87,5.84c0.04,0,0.07,0.03,0.07,0.07S6.91,5.98,6.87,5.98S6.8,5.95,6.8,5.91
					S6.84,5.84,6.87,5.84z M6.87,6.36c-0.04,0-0.07-0.03-0.07-0.07s0.03-0.07,0.07-0.07s0.07,0.03,0.07,0.07S6.91,6.36,6.87,6.36z
					 M7.06,6.17c-0.04,0-0.07-0.03-0.07-0.07s0.03-0.07,0.07-0.07S7.13,6.06,7.13,6.1S7.1,6.17,7.06,6.17z M7.25,6.36
					c-0.04,0-0.07-0.03-0.07-0.07s0.03-0.07,0.07-0.07s0.07,0.03,0.07,0.07S7.29,6.36,7.25,6.36z M7.25,5.98
					c-0.04,0-0.07-0.03-0.07-0.07s0.03-0.07,0.07-0.07s0.07,0.03,0.07,0.07S7.29,5.98,7.25,5.98z"/>
			</g>
			<g>
				<path class="st7" d="M4.73,5.2c0.01-0.26,0.19-0.32,0.19-0.32s0.2,0.07,0.2,0.32H4.73L4.73,5.2z"/>
				<path class="st7" d="M4.57,4.88l-0.03,0.3h0.19c0-0.24,0.19-0.29,0.19-0.28c0,0,0.19,0.05,0.19,0.28H5.3l-0.03-0.3H4.57
					L4.57,4.88z"/>
				<path class="st7" d="M4.52,5.18h0.79c0.02,0,0.03,0.02,0.03,0.04l0,0c0,0.02-0.01,0.04-0.03,0.04H4.52
					c-0.02,0-0.03-0.02-0.03-0.04l0,0C4.49,5.2,4.51,5.18,4.52,5.18L4.52,5.18z"/>
				<path class="st7" d="M4.81,5.18c0-0.15,0.11-0.2,0.11-0.2s0.11,0.05,0.11,0.2H4.81L4.81,5.18z"/>
				<path class="st7" d="M4.54,4.76H5.3c0.02,0,0.03,0.01,0.03,0.03l0,0c0,0.02-0.01,0.03-0.03,0.03H4.54
					c-0.02,0-0.03-0.01-0.03-0.03l0,0C4.51,4.78,4.52,4.76,4.54,4.76L4.54,4.76z"/>
				<path class="st7" d="M4.56,4.83h0.72c0.02,0,0.03,0.01,0.03,0.03l0,0c0,0.02-0.01,0.03-0.03,0.03H4.56
					c-0.02,0-0.03-0.01-0.03-0.03l0,0C4.53,4.84,4.54,4.83,4.56,4.83L4.56,4.83z"/>
				<path class="st7" d="M4.79,4.33h0.06v0.04h0.04V4.33h0.06v0.04h0.04V4.33h0.06v0.09c0,0.01-0.01,0.02-0.03,0.02H4.81
					c-0.01,0-0.03-0.01-0.03-0.02L4.79,4.33L4.79,4.33z"/>
				<polygon class="st7" points="5.01,4.46 5.02,4.76 4.82,4.76 4.83,4.46 				"/>
				<path class="st7" d="M5.04,4.48H5.1v0.04h0.04V4.48H5.2v0.04h0.04V4.48H5.3v0.09c0,0.01-0.01,0.02-0.03,0.02h-0.2
					c-0.01,0-0.03-0.01-0.03-0.02L5.04,4.48L5.04,4.48z"/>
				<polygon class="st7" points="5.26,4.6 5.26,4.76 5.07,4.76 5.08,4.6 				"/>
				<path class="st7" d="M4.55,4.48h0.06v0.04h0.04V4.48h0.06v0.04h0.04V4.48h0.06v0.09c0,0.01-0.01,0.02-0.03,0.02h-0.2
					c-0.01,0-0.03-0.01-0.03-0.02L4.55,4.48L4.55,4.48z"/>
				<polygon class="st7" points="4.76,4.6 4.77,4.76 4.58,4.76 4.58,4.6 				"/>
				<g>
					<path class="st8" d="M4.9,4.55v0.07h0.04V4.55C4.94,4.52,4.9,4.52,4.9,4.55z"/>
					<path class="st8" d="M5.15,4.66v0.05h0.04V4.65C5.19,4.63,5.15,4.63,5.15,4.66z"/>
					<path class="st8" d="M4.65,4.66v0.05h0.04V4.65C4.69,4.63,4.65,4.63,4.65,4.66z"/>
					<path class="st8" d="M5.31,5.17L5.28,4.9c0.02,0,0.04-0.02,0.04-0.04c0-0.01,0-0.02-0.01-0.02C5.33,4.83,5.34,4.82,5.34,4.8
						c0-0.02-0.02-0.04-0.04-0.04H5.28L5.27,4.62c0.02,0,0.04-0.02,0.04-0.04V4.47H5.23v0.04H5.21V4.47H5.13v0.04H5.11V4.47H5.03
						v0.1c0,0.02,0.02,0.03,0.03,0.04v0.14H5.03L5.02,4.46h0.01c0.02,0,0.04-0.02,0.04-0.04V4.31H4.99v0.04H4.97V4.31H4.89v0.04
						H4.87V4.31H4.79v0.1c0,0.02,0.02,0.04,0.04,0.04l0,0L4.82,4.74H4.79L4.78,4.6c0.02,0,0.04-0.02,0.04-0.04V4.45H4.74v0.04H4.72
						V4.45H4.64v0.04H4.62V4.45H4.54v0.1c0,0.02,0.02,0.03,0.03,0.04v0.14H4.55c-0.02,0-0.04,0.02-0.04,0.04
						c0,0.02,0.01,0.03,0.02,0.04c0,0.01-0.01,0.02-0.01,0.02c0,0.02,0.02,0.04,0.04,0.04L4.53,5.14l0,0
						c-0.02,0-0.04,0.02-0.04,0.05s0.02,0.05,0.04,0.05h0.79c0.02,0,0.04-0.02,0.04-0.05C5.36,5.19,5.34,5.17,5.31,5.17z M5.29,5.17
						H5.12c-0.01-0.12-0.06-0.19-0.1-0.23C5,4.92,4.98,4.91,4.97,4.9h0.29L5.29,5.17z M4.92,4.97L4.92,4.97
						C4.91,4.97,4.89,4.99,4.88,5C4.85,5.03,4.81,5.08,4.81,5.17H4.75c0.01-0.23,0.18-0.26,0.18-0.26S5.1,4.96,5.11,5.17H5.05
						C5.03,5.02,4.93,4.97,4.92,4.97z M5.02,5.17H4.83C4.84,5.05,4.91,5.01,4.92,5C4.94,5,5.01,5.05,5.02,5.17z M5.05,4.57V4.49
						h0.03v0.04h0.06V4.49h0.03v0.04h0.06V4.49h0.03v0.08c0,0.01-0.01,0.01-0.01,0.01h-0.2C5.06,4.59,5.05,4.58,5.05,4.57z
						 M5.25,4.75H5.08V4.61h0.16L5.25,4.75z M4.82,4.44c-0.01,0-0.01-0.01-0.02-0.01V4.35h0.03v0.04H4.9V4.35h0.04v0.04h0.07V4.35
						h0.04v0.08c0,0.01-0.01,0.01-0.01,0.01H4.82z M5.01,4.75H4.83l0.01-0.28h0.15L5.01,4.75z M4.56,4.57V4.49h0.03v0.04h0.06V4.49
						h0.03v0.04h0.06V4.49h0.03v0.08c0,0.01-0.01,0.01-0.01,0.01h-0.2C4.56,4.59,4.56,4.58,4.56,4.57z M4.76,4.75H4.59V4.61h0.16
						L4.76,4.75z M4.52,4.79c0-0.01,0.01-0.02,0.02-0.02H5.3c0.01,0,0.02,0.01,0.02,0.02S5.31,4.81,5.3,4.81H4.54
						C4.53,4.81,4.52,4.8,4.52,4.79z M4.54,4.86c0-0.01,0.01-0.02,0.02-0.02h0.72c0.01,0,0.02,0.01,0.02,0.02S5.29,4.88,5.28,4.88
						l0,0H4.56l0,0C4.55,4.88,4.54,4.87,4.54,4.86z M4.58,4.9h0.29C4.86,4.91,4.84,4.92,4.83,4.93c-0.05,0.04-0.1,0.11-0.1,0.24
						H4.56L4.58,4.9z M5.31,5.24H4.52c-0.01,0-0.02-0.01-0.02-0.02S4.51,5.2,4.52,5.2h0.79c0.01,0,0.02,0.01,0.02,0.02
						S5.32,5.24,5.31,5.24z"/>
				</g>
			</g>
			<g>
				<path class="st7" d="M6.86,5.2c0.01-0.26,0.19-0.32,0.19-0.32s0.2,0.07,0.2,0.32H6.86L6.86,5.2z"/>
				<path class="st7" d="M6.7,4.88l-0.03,0.3h0.19c0-0.24,0.19-0.29,0.19-0.28c0,0,0.19,0.05,0.19,0.28h0.19L7.4,4.88H6.7L6.7,4.88z
					"/>
				<path class="st7" d="M6.66,5.18h0.79c0.02,0,0.03,0.02,0.03,0.04l0,0c0,0.02-0.01,0.04-0.03,0.04H6.66
					c-0.02,0-0.03-0.02-0.03-0.04l0,0C6.63,5.2,6.64,5.18,6.66,5.18L6.66,5.18z"/>
				<path class="st7" d="M6.94,5.18c0-0.15,0.11-0.2,0.11-0.2s0.11,0.05,0.11,0.2H6.94L6.94,5.18z"/>
				<path class="st7" d="M6.67,4.76h0.76c0.02,0,0.03,0.01,0.03,0.03l0,0c0,0.02-0.01,0.03-0.03,0.03H6.67
					c-0.02,0-0.03-0.01-0.03-0.03l0,0C6.64,4.78,6.66,4.76,6.67,4.76L6.67,4.76z"/>
				<path class="st7" d="M6.69,4.83h0.72c0.02,0,0.03,0.01,0.03,0.03l0,0c0,0.02-0.01,0.03-0.03,0.03H6.69
					c-0.02,0-0.03-0.01-0.03-0.03l0,0C6.66,4.84,6.67,4.83,6.69,4.83L6.69,4.83z"/>
				<path class="st7" d="M6.92,4.33h0.06v0.04h0.04V4.33h0.06v0.04h0.04V4.33h0.06v0.09c0,0.01-0.01,0.02-0.03,0.02H6.94
					c-0.01,0-0.03-0.01-0.03-0.02L6.92,4.33L6.92,4.33z"/>
				<polygon class="st7" points="7.14,4.46 7.15,4.76 6.95,4.76 6.96,4.46 				"/>
				<path class="st7" d="M7.17,4.48h0.06v0.04h0.04V4.48h0.06v0.04h0.04V4.48h0.06v0.09c0,0.01-0.01,0.02-0.03,0.02H7.2
					c-0.01,0-0.03-0.01-0.03-0.02L7.17,4.48L7.17,4.48z"/>
				<polygon class="st7" points="7.39,4.6 7.39,4.76 7.2,4.76 7.21,4.6 				"/>
				<path class="st7" d="M6.68,4.48h0.06v0.04h0.04V4.48h0.06v0.04h0.04V4.48h0.06v0.09c0,0.01-0.01,0.02-0.03,0.02h-0.2
					c-0.01,0-0.03-0.01-0.03-0.02L6.68,4.48L6.68,4.48z"/>
				<polygon class="st7" points="6.89,4.6 6.9,4.76 6.71,4.76 6.71,4.6 				"/>
				<g>
					<path class="st8" d="M7.03,4.55v0.07h0.04V4.55C7.07,4.52,7.03,4.52,7.03,4.55z"/>
					<path class="st8" d="M7.28,4.66v0.05h0.04V4.65C7.32,4.63,7.28,4.63,7.28,4.66z"/>
					<path class="st8" d="M6.78,4.66v0.05h0.04V4.65C6.82,4.63,6.78,4.63,6.78,4.66z"/>
					<path class="st8" d="M7.45,5.17L7.42,4.9c0.02,0,0.04-0.02,0.04-0.04c0-0.01,0-0.02-0.01-0.02C7.47,4.83,7.48,4.82,7.48,4.8
						c0-0.02-0.02-0.04-0.04-0.04H7.42L7.41,4.62c0.02,0,0.04-0.02,0.04-0.04V4.47H7.37v0.04H7.35V4.47H7.27v0.04H7.25V4.47H7.17
						v0.1c0,0.02,0.02,0.03,0.03,0.04v0.14H7.17L7.16,4.46h0.01c0.02,0,0.04-0.02,0.04-0.04V4.31H7.13v0.04H7.11V4.31H7.03v0.04
						H7.01V4.31H6.93v0.1c0,0.02,0.02,0.04,0.04,0.04l0,0L6.96,4.74H6.93L6.92,4.6c0.02,0,0.04-0.02,0.04-0.04V4.45H6.88v0.04H6.86
						V4.45H6.78v0.04H6.76V4.45H6.68v0.1c0,0.02,0.02,0.03,0.03,0.04v0.14H6.67c-0.02,0-0.04,0.02-0.04,0.04
						c0,0.02,0.01,0.03,0.02,0.04c0,0.01-0.01,0.02-0.01,0.02c0,0.02,0.02,0.04,0.04,0.04L6.65,5.14l0,0
						c-0.02,0-0.04,0.02-0.04,0.05s0.02,0.05,0.04,0.05h0.79c0.02,0,0.04-0.02,0.04-0.05C7.49,5.19,7.47,5.17,7.45,5.17z M7.42,5.17
						H7.25c-0.01-0.12-0.06-0.19-0.1-0.23C7.13,4.92,7.11,4.91,7.1,4.9h0.29L7.42,5.17z M7.05,4.97L7.05,4.97
						C7.04,4.97,7.02,4.99,7.01,5C6.98,5.03,6.94,5.08,6.94,5.17H6.88c0.01-0.23,0.18-0.26,0.18-0.26s0.17,0.05,0.18,0.26H7.18
						C7.16,5.02,7.06,4.97,7.05,4.97z M7.15,5.17H6.96C6.97,5.05,7.04,5.01,7.05,5C7.07,5,7.14,5.05,7.15,5.17z M7.18,4.57V4.49
						h0.03v0.04h0.06V4.49H7.3v0.04h0.06V4.49h0.03v0.08c0,0.01-0.01,0.01-0.01,0.01h-0.2C7.19,4.59,7.18,4.58,7.18,4.57z
						 M7.38,4.75H7.21V4.61h0.16L7.38,4.75z M6.95,4.44c-0.01,0-0.01-0.01-0.02-0.01V4.35h0.03v0.04h0.07V4.35h0.04v0.04h0.07V4.35
						h0.04v0.08c0,0.01-0.01,0.01-0.01,0.01H6.95z M7.14,4.75H6.96l0.01-0.28h0.15L7.14,4.75z M6.69,4.57V4.49h0.03v0.04h0.06V4.49
						h0.03v0.04h0.06V4.49H6.9v0.08c0,0.01-0.01,0.01-0.01,0.01h-0.2C6.7,4.59,6.69,4.58,6.69,4.57z M6.89,4.75H6.72V4.61h0.16
						L6.89,4.75z M6.65,4.79c0-0.01,0.01-0.02,0.02-0.02h0.76c0.01,0,0.02,0.01,0.02,0.02S7.44,4.81,7.43,4.81H6.67
						C6.66,4.81,6.65,4.81,6.65,4.79z M6.67,4.86c0-0.01,0.01-0.02,0.02-0.02h0.72c0.01,0,0.02,0.01,0.02,0.02S7.42,4.88,7.41,4.88
						l0,0H6.69l0,0C6.68,4.88,6.67,4.87,6.67,4.86z M6.71,4.9H7C6.99,4.91,6.97,4.92,6.96,4.93c-0.05,0.04-0.1,0.11-0.1,0.24H6.69
						L6.71,4.9z M7.45,5.24H6.66c-0.01,0-0.02-0.01-0.02-0.02S6.65,5.2,6.66,5.2h0.79c0.01,0,0.02,0.01,0.02,0.02
						S7.46,5.24,7.45,5.24z"/>
				</g>
			</g>
			<g>
				<path class="st7" d="M8.96,5.2c0.01-0.26,0.19-0.32,0.19-0.32s0.2,0.07,0.2,0.32H8.96L8.96,5.2z"/>
				<path class="st7" d="M8.81,4.88l-0.03,0.3h0.19c0-0.24,0.19-0.29,0.19-0.28c0,0,0.19,0.05,0.19,0.28h0.19l-0.03-0.3H8.81
					L8.81,4.88z"/>
				<path class="st7" d="M8.76,5.18h0.79c0.02,0,0.03,0.02,0.03,0.04l0,0c0,0.02-0.01,0.04-0.03,0.04H8.76
					c-0.02,0-0.03-0.02-0.03-0.04l0,0C8.73,5.2,8.75,5.18,8.76,5.18L8.76,5.18z"/>
				<path class="st7" d="M9.05,5.18c0-0.15,0.11-0.2,0.11-0.2s0.11,0.05,0.11,0.2H9.05L9.05,5.18z"/>
				<path class="st7" d="M8.78,4.76h0.76c0.02,0,0.03,0.01,0.03,0.03l0,0c0,0.02-0.01,0.03-0.03,0.03H8.78
					c-0.02,0-0.03-0.01-0.03-0.03l0,0C8.75,4.78,8.76,4.76,8.78,4.76L8.78,4.76z"/>
				<path class="st7" d="M8.8,4.83h0.72c0.02,0,0.03,0.01,0.03,0.03l0,0c0,0.02-0.01,0.03-0.03,0.03H8.8
					c-0.02,0-0.03-0.01-0.03-0.03l0,0C8.77,4.84,8.78,4.83,8.8,4.83L8.8,4.83z"/>
				<path class="st7" d="M9.03,4.33h0.06v0.04h0.04V4.33h0.06v0.04h0.04V4.33h0.06v0.09c0,0.01-0.01,0.02-0.03,0.02H9.05
					c-0.01,0-0.03-0.01-0.03-0.02L9.03,4.33L9.03,4.33z"/>
				<polygon class="st7" points="9.24,4.46 9.26,4.76 9.06,4.76 9.07,4.46 				"/>
				<path class="st7" d="M9.28,4.48h0.06v0.04h0.04V4.48h0.06v0.04h0.04V4.48h0.06v0.09c0,0.01-0.01,0.02-0.03,0.02h-0.2
					c-0.01,0-0.03-0.01-0.03-0.02L9.28,4.48L9.28,4.48z"/>
				<polygon class="st7" points="9.49,4.6 9.5,4.76 9.31,4.76 9.31,4.6 				"/>
				<path class="st7" d="M8.78,4.48h0.06v0.04h0.04V4.48h0.06v0.04h0.04V4.48h0.06v0.09c0,0.01-0.01,0.02-0.02,0.02h-0.2
					c-0.01,0-0.03-0.01-0.03-0.02L8.78,4.48L8.78,4.48z"/>
				<polygon class="st7" points="9,4.6 9.01,4.76 8.81,4.76 8.82,4.6 				"/>
				<g>
					<path class="st8" d="M9.14,4.55v0.07h0.04V4.55C9.18,4.53,9.14,4.53,9.14,4.55z"/>
					<path class="st8" d="M9.39,4.66v0.05h0.04V4.65C9.42,4.63,9.39,4.63,9.39,4.66z"/>
					<path class="st8" d="M8.89,4.66v0.05h0.04V4.65C8.93,4.63,8.89,4.63,8.89,4.66z"/>
					<path class="st8" d="M9.55,5.17L9.52,4.9c0.02,0,0.04-0.02,0.04-0.04c0-0.01,0-0.02-0.01-0.02C9.56,4.83,9.58,4.82,9.58,4.8
						c0-0.02-0.02-0.04-0.04-0.04H9.52L9.51,4.62c0.02,0,0.04-0.02,0.04-0.04V4.47H9.47v0.04H9.45V4.47H9.37v0.04H9.35V4.47H9.27
						v0.1c0,0.02,0.02,0.03,0.03,0.04v0.14H9.27L9.26,4.46h0.01c0.02,0,0.04-0.02,0.04-0.04V4.31H9.23v0.04H9.21V4.31H9.13v0.04
						H9.11V4.31H9.03v0.1c0,0.02,0.02,0.04,0.04,0.04l0,0L9.06,4.74H9.03L9.02,4.6c0.02,0,0.04-0.02,0.04-0.04V4.45H8.98v0.04H8.96
						V4.45H8.88v0.04H8.86V4.45H8.78v0.1c0,0.02,0.02,0.03,0.03,0.04v0.14H8.79c-0.02,0-0.04,0.02-0.04,0.04
						c0,0.02,0.01,0.03,0.02,0.04c0,0.01-0.01,0.02-0.01,0.02c0,0.02,0.02,0.04,0.04,0.04L8.77,5.14l0,0
						c-0.02,0-0.04,0.02-0.04,0.05s0.02,0.05,0.04,0.05h0.79c0.02,0,0.04-0.02,0.04-0.05C9.59,5.19,9.58,5.17,9.55,5.17z M9.53,5.17
						H9.36C9.35,5.05,9.3,4.98,9.26,4.94C9.24,4.92,9.22,4.91,9.21,4.9H9.5L9.53,5.17z M9.16,4.97L9.16,4.97
						C9.15,4.97,9.13,4.99,9.12,5C9.09,5.03,9.05,5.08,9.05,5.17H8.99C9,4.94,9.17,4.91,9.17,4.91s0.17,0.05,0.18,0.26H9.29
						C9.27,5.02,9.17,4.97,9.16,4.97z M9.25,5.17H9.06C9.07,5.05,9.14,5.01,9.15,5C9.18,5.01,9.25,5.05,9.25,5.17z M9.29,4.57V4.49
						h0.03v0.04h0.06V4.49h0.03v0.04h0.06V4.49H9.5v0.08c0,0.01-0.01,0.01-0.01,0.01h-0.2C9.3,4.59,9.29,4.58,9.29,4.57z M9.49,4.75
						H9.32V4.61h0.16L9.49,4.75z M9.06,4.44c-0.01,0-0.02-0.01-0.02-0.01V4.35h0.03v0.04h0.07V4.35h0.04v0.04h0.07V4.35h0.04v0.08
						c0,0.01-0.01,0.01-0.01,0.01H9.06z M9.25,4.75H9.07l0.01-0.28h0.15L9.25,4.75z M8.8,4.57V4.49h0.03v0.04h0.06V4.49h0.03v0.04
						h0.06V4.49h0.03v0.08C9.01,4.58,9,4.58,9,4.58H8.8C8.8,4.59,8.8,4.58,8.8,4.57z M8.99,4.75H8.82V4.61h0.16L8.99,4.75z
						 M8.76,4.79c0-0.01,0.01-0.02,0.02-0.02h0.76c0.01,0,0.02,0.01,0.02,0.02S9.55,4.81,9.54,4.81H8.78
						C8.77,4.82,8.76,4.81,8.76,4.79z M8.78,4.86c0-0.01,0.01-0.02,0.02-0.02h0.72c0.01,0,0.02,0.01,0.02,0.02S9.53,4.88,9.52,4.88
						l0,0H8.8l0,0C8.79,4.88,8.78,4.87,8.78,4.86z M8.82,4.91h0.29C9.1,4.92,9.08,4.93,9.07,4.94c-0.05,0.04-0.1,0.11-0.1,0.24H8.8
						L8.82,4.91z M9.55,5.24H8.76c-0.01,0-0.02-0.01-0.02-0.02S8.75,5.2,8.76,5.2h0.79c0.01,0,0.02,0.01,0.02,0.02
						S9.56,5.24,9.55,5.24z"/>
				</g>
			</g>
			<g>
				<path class="st7" d="M8.96,7.36C8.97,7.1,9.15,7.04,9.15,7.04s0.2,0.07,0.2,0.32H8.96L8.96,7.36z"/>
				<path class="st7" d="M8.81,7.04l-0.03,0.3h0.19c0-0.24,0.19-0.29,0.19-0.28c0,0,0.19,0.05,0.19,0.28h0.19l-0.03-0.3H8.81
					L8.81,7.04z"/>
				<path class="st7" d="M8.76,7.34h0.79c0.02,0,0.03,0.02,0.03,0.04l0,0c0,0.02-0.01,0.04-0.03,0.04H8.76
					c-0.02,0-0.03-0.02-0.03-0.04l0,0C8.73,7.36,8.75,7.34,8.76,7.34L8.76,7.34z"/>
				<path class="st7" d="M9.05,7.34c0-0.15,0.11-0.2,0.11-0.2s0.11,0.05,0.11,0.2H9.05L9.05,7.34z"/>
				<path class="st7" d="M8.78,6.92h0.76c0.02,0,0.03,0.01,0.03,0.03l0,0c0,0.02-0.01,0.03-0.03,0.03H8.78
					c-0.02,0-0.03-0.01-0.03-0.03l0,0C8.75,6.93,8.76,6.92,8.78,6.92L8.78,6.92z"/>
				<path class="st7" d="M8.8,6.99h0.72c0.02,0,0.03,0.01,0.03,0.03l0,0c0,0.02-0.01,0.03-0.03,0.03H8.8
					c-0.02,0-0.03-0.01-0.03-0.03l0,0C8.77,7,8.78,6.99,8.8,6.99L8.8,6.99z"/>
				<path class="st7" d="M9.03,6.49h0.06v0.04h0.04V6.49h0.06v0.04h0.04V6.49h0.06v0.09c0,0.01-0.01,0.02-0.03,0.02H9.05
					c-0.01,0-0.03-0.01-0.03-0.02L9.03,6.49L9.03,6.49z"/>
				<polygon class="st7" points="9.24,6.62 9.26,6.92 9.06,6.92 9.07,6.62 				"/>
				<path class="st7" d="M9.28,6.64h0.06v0.04h0.04V6.64h0.06v0.04h0.04V6.64h0.06v0.09c0,0.01-0.01,0.02-0.03,0.02h-0.2
					c-0.01,0-0.03-0.01-0.03-0.02L9.28,6.64L9.28,6.64z"/>
				<polygon class="st7" points="9.49,6.76 9.5,6.92 9.31,6.92 9.31,6.76 				"/>
				<path class="st7" d="M8.78,6.64h0.06v0.04h0.04V6.64h0.06v0.04h0.04V6.64h0.06v0.09c0,0.01-0.01,0.02-0.02,0.02h-0.2
					c-0.01,0-0.03-0.01-0.03-0.02L8.78,6.64L8.78,6.64z"/>
				<polygon class="st7" points="9,6.76 9.01,6.92 8.81,6.92 8.82,6.76 				"/>
				<g>
					<path class="st8" d="M9.14,6.71v0.07h0.04V6.71C9.18,6.68,9.14,6.68,9.14,6.71z"/>
					<path class="st8" d="M9.39,6.82v0.06h0.04V6.82C9.42,6.79,9.39,6.79,9.39,6.82z"/>
					<path class="st8" d="M8.89,6.82v0.06h0.04V6.82C8.93,6.79,8.89,6.79,8.89,6.82z"/>
					<path class="st8" d="M9.55,7.33L9.52,7.06c0.02,0,0.04-0.02,0.04-0.04c0-0.01,0-0.02-0.01-0.02c0.01-0.01,0.03-0.02,0.03-0.04
						c0-0.02-0.02-0.04-0.04-0.04H9.52L9.51,6.78c0.02,0,0.04-0.02,0.04-0.04V6.63H9.47v0.04H9.45V6.63H9.37v0.04H9.35V6.63H9.27
						v0.1c0,0.02,0.02,0.03,0.03,0.04v0.14H9.27L9.26,6.62h0.01c0.02,0,0.04-0.02,0.04-0.04V6.47H9.23v0.04H9.21V6.47H9.13v0.04
						H9.11V6.47H9.03v0.1c0,0.02,0.02,0.04,0.04,0.04l0,0L9.06,6.9H9.03L9.02,6.76c0.02,0,0.04-0.02,0.04-0.04V6.61H8.98v0.04H8.96
						V6.61H8.88v0.04H8.86V6.61H8.78v0.1c0,0.02,0.02,0.03,0.03,0.04v0.14H8.79c-0.02,0-0.04,0.02-0.04,0.04
						c0,0.02,0.01,0.03,0.02,0.04c0,0.01-0.01,0.02-0.01,0.02c0,0.02,0.02,0.04,0.04,0.04L8.77,7.3l0,0c-0.02,0-0.04,0.02-0.04,0.05
						S8.75,7.4,8.77,7.4h0.79c0.02,0,0.04-0.02,0.04-0.05C9.59,7.35,9.58,7.33,9.55,7.33z M9.53,7.33H9.36
						C9.35,7.21,9.3,7.14,9.26,7.1C9.24,7.08,9.22,7.07,9.21,7.06H9.5L9.53,7.33z M9.16,7.13L9.16,7.13c-0.01,0-0.03,0.02-0.04,0.03
						C9.09,7.19,9.05,7.24,9.05,7.33H8.99C9,7.1,9.17,7.07,9.17,7.07s0.17,0.05,0.18,0.26H9.29C9.27,7.18,9.17,7.13,9.16,7.13z
						 M9.25,7.33H9.06c0.01-0.12,0.08-0.16,0.09-0.17C9.18,7.16,9.25,7.21,9.25,7.33z M9.29,6.73V6.65h0.03v0.04h0.06V6.65h0.03
						v0.04h0.06V6.65H9.5v0.08c0,0.01-0.01,0.01-0.01,0.01h-0.2C9.3,6.74,9.29,6.74,9.29,6.73z M9.49,6.91H9.32V6.77h0.16L9.49,6.91
						z M9.06,6.6c-0.01,0-0.02-0.01-0.02-0.01V6.51h0.03v0.04h0.07V6.51h0.04v0.04h0.07V6.51h0.04v0.08c0,0.01-0.01,0.01-0.01,0.01
						H9.06z M9.25,6.91H9.07l0.01-0.28h0.15L9.25,6.91z M8.8,6.73V6.65h0.03v0.04h0.06V6.65h0.03v0.04h0.06V6.65h0.03v0.08
						C9.01,6.74,9,6.74,9,6.74H8.8C8.8,6.74,8.8,6.74,8.8,6.73z M8.99,6.91H8.82V6.77h0.16L8.99,6.91z M8.76,6.95
						c0-0.01,0.01-0.02,0.02-0.02h0.76c0.01,0,0.02,0.01,0.02,0.02S9.55,6.97,9.54,6.97H8.78C8.77,6.97,8.76,6.96,8.76,6.95z
						 M8.78,7.02C8.78,7.01,8.79,7,8.8,7h0.72c0.01,0,0.02,0.01,0.02,0.02S9.53,7.04,9.52,7.04l0,0H8.8l0,0
						C8.79,7.04,8.78,7.03,8.78,7.02z M8.82,7.06h0.29C9.1,7.07,9.08,7.08,9.07,7.09c-0.05,0.04-0.1,0.11-0.1,0.24H8.8L8.82,7.06z
						 M9.55,7.4H8.76c-0.01,0-0.02-0.01-0.02-0.02s0.01-0.02,0.02-0.02h0.79c0.01,0,0.02,0.01,0.02,0.02S9.56,7.4,9.55,7.4z"/>
				</g>
			</g>
			<g>
				<path class="st7" d="M4.73,7.36C4.74,7.1,4.92,7.04,4.92,7.04s0.2,0.07,0.2,0.32H4.73L4.73,7.36z"/>
				<path class="st7" d="M4.57,7.04l-0.03,0.3h0.19c0-0.24,0.19-0.29,0.19-0.28c0,0,0.19,0.05,0.19,0.28H5.3l-0.03-0.3H4.57
					L4.57,7.04z"/>
				<path class="st7" d="M4.52,7.34h0.79c0.02,0,0.03,0.02,0.03,0.04l0,0c0,0.02-0.01,0.04-0.03,0.04H4.52
					c-0.02,0-0.03-0.02-0.03-0.04l0,0C4.49,7.36,4.51,7.34,4.52,7.34L4.52,7.34z"/>
				<path class="st7" d="M4.81,7.34c0-0.15,0.11-0.2,0.11-0.2s0.11,0.05,0.11,0.2H4.81L4.81,7.34z"/>
				<path class="st7" d="M4.54,6.92H5.3c0.02,0,0.03,0.01,0.03,0.03l0,0c0,0.02-0.01,0.03-0.03,0.03H4.54
					c-0.02,0-0.03-0.01-0.03-0.03l0,0C4.51,6.93,4.52,6.92,4.54,6.92L4.54,6.92z"/>
				<path class="st7" d="M4.56,6.99h0.72C5.3,6.99,5.31,7,5.31,7.02l0,0c0,0.02-0.01,0.03-0.03,0.03H4.56
					c-0.02,0-0.03-0.01-0.03-0.03l0,0C4.53,7,4.54,6.99,4.56,6.99L4.56,6.99z"/>
				<path class="st7" d="M4.79,6.49h0.06v0.04h0.04V6.49h0.06v0.04h0.04V6.49h0.06v0.09c0,0.01-0.01,0.02-0.03,0.02H4.81
					c-0.01,0-0.03-0.01-0.03-0.02L4.79,6.49L4.79,6.49z"/>
				<polygon class="st7" points="5.01,6.62 5.02,6.92 4.82,6.92 4.83,6.62 				"/>
				<path class="st7" d="M5.04,6.64H5.1v0.04h0.04V6.64H5.2v0.04h0.04V6.64H5.3v0.09c0,0.01-0.01,0.02-0.03,0.02h-0.2
					c-0.01,0-0.03-0.01-0.03-0.02L5.04,6.64L5.04,6.64z"/>
				<polygon class="st7" points="5.26,6.76 5.26,6.92 5.07,6.92 5.08,6.76 				"/>
				<path class="st7" d="M4.55,6.64h0.06v0.04h0.04V6.64h0.06v0.04h0.04V6.64h0.06v0.09c0,0.01-0.01,0.02-0.03,0.02h-0.2
					c-0.01,0-0.03-0.01-0.03-0.02L4.55,6.64L4.55,6.64z"/>
				<polygon class="st7" points="4.76,6.76 4.77,6.92 4.58,6.92 4.58,6.76 				"/>
				<g>
					<path class="st8" d="M4.9,6.71v0.07h0.04V6.71C4.94,6.68,4.9,6.68,4.9,6.71z"/>
					<path class="st8" d="M5.15,6.82v0.06h0.04V6.82C5.19,6.79,5.15,6.79,5.15,6.82z"/>
					<path class="st8" d="M4.65,6.82v0.06h0.04V6.82C4.69,6.79,4.65,6.79,4.65,6.82z"/>
					<path class="st8" d="M5.31,7.33L5.28,7.06c0.02,0,0.04-0.02,0.04-0.04c0-0.01,0-0.02-0.01-0.02c0.02-0.01,0.03-0.02,0.03-0.04
						c0-0.02-0.02-0.04-0.04-0.04H5.28L5.27,6.78c0.02,0,0.04-0.02,0.04-0.04V6.63H5.23v0.04H5.21V6.63H5.13v0.04H5.11V6.63H5.03
						v0.1c0,0.02,0.02,0.03,0.03,0.04v0.14H5.03L5.02,6.62h0.01c0.02,0,0.04-0.02,0.04-0.04V6.47H4.99v0.04H4.97V6.47H4.89v0.04
						H4.87V6.47H4.79v0.1c0,0.02,0.02,0.04,0.04,0.04l0,0L4.82,6.9H4.79L4.78,6.76c0.02,0,0.04-0.02,0.04-0.04V6.61H4.74v0.04H4.72
						V6.61H4.64v0.04H4.62V6.61H4.54v0.1c0,0.02,0.02,0.03,0.03,0.04v0.14H4.55c-0.02,0-0.04,0.02-0.04,0.04
						c0,0.02,0.01,0.03,0.02,0.04c0,0.01-0.01,0.02-0.01,0.02c0,0.02,0.02,0.04,0.04,0.04L4.53,7.3l0,0c-0.02,0-0.04,0.02-0.04,0.05
						S4.51,7.4,4.53,7.4h0.79c0.02,0,0.04-0.02,0.04-0.05C5.36,7.35,5.34,7.33,5.31,7.33z M5.29,7.33H5.12
						C5.11,7.21,5.06,7.14,5.02,7.1C5,7.08,4.98,7.07,4.97,7.06h0.29L5.29,7.33z M4.92,7.13L4.92,7.13c-0.01,0-0.03,0.02-0.04,0.03
						C4.85,7.19,4.81,7.24,4.81,7.33H4.75C4.76,7.1,4.93,7.07,4.93,7.07S5.1,7.12,5.11,7.33H5.05C5.03,7.18,4.93,7.13,4.92,7.13z
						 M5.02,7.33H4.83c0.01-0.12,0.08-0.16,0.09-0.17C4.94,7.16,5.01,7.21,5.02,7.33z M5.05,6.73V6.65h0.03v0.04h0.06V6.65h0.03
						v0.04h0.06V6.65h0.03v0.08c0,0.01-0.01,0.01-0.01,0.01h-0.2C5.06,6.74,5.05,6.74,5.05,6.73z M5.25,6.91H5.08V6.77h0.16
						L5.25,6.91z M4.82,6.6c-0.01,0-0.01-0.01-0.02-0.01V6.51h0.03v0.04H4.9V6.51h0.04v0.04h0.07V6.51h0.04v0.08
						c0,0.01-0.01,0.01-0.01,0.01H4.82z M5.01,6.91H4.83l0.01-0.28h0.15L5.01,6.91z M4.56,6.73V6.65h0.03v0.04h0.06V6.65h0.03v0.04
						h0.06V6.65h0.03v0.08c0,0.01-0.01,0.01-0.01,0.01h-0.2C4.56,6.74,4.56,6.74,4.56,6.73z M4.76,6.91H4.59V6.77h0.16L4.76,6.91z
						 M4.52,6.95c0-0.01,0.01-0.02,0.02-0.02H5.3c0.01,0,0.02,0.01,0.02,0.02S5.31,6.97,5.3,6.97H4.54
						C4.53,6.97,4.52,6.96,4.52,6.95z M4.54,7.02C4.54,7.01,4.55,7,4.56,7h0.72C5.29,7,5.3,7.01,5.3,7.02S5.29,7.04,5.28,7.04l0,0
						H4.56l0,0C4.55,7.04,4.54,7.03,4.54,7.02z M4.58,7.06h0.29C4.86,7.07,4.84,7.08,4.83,7.09c-0.05,0.04-0.1,0.11-0.1,0.24H4.56
						L4.58,7.06z M5.31,7.4H4.52C4.51,7.4,4.5,7.39,4.5,7.38s0.01-0.02,0.02-0.02h0.79c0.01,0,0.02,0.01,0.02,0.02
						S5.32,7.4,5.31,7.4z"/>
				</g>
			</g>
			<g>
				<path class="st7" d="M5.57,9.6C5.39,9.41,5.48,9.24,5.48,9.24s0.19-0.09,0.37,0.09L5.57,9.6L5.57,9.6z"/>
				<path class="st7" d="M5.23,9.49l0.19,0.23l0.14-0.14C5.39,9.41,5.49,9.25,5.49,9.24c0,0,0.17-0.09,0.34,0.07l0.14-0.14
					L5.73,8.98L5.23,9.49L5.23,9.49z"/>
				<path class="st7" d="M5.41,9.74l0.56-0.56c0.01-0.01,0.03-0.01,0.05,0l0,0c0.01,0.01,0.02,0.04,0,0.05L5.46,9.79
					c-0.01,0.01-0.03,0.01-0.05,0l0,0C5.4,9.77,5.4,9.75,5.41,9.74L5.41,9.74z"/>
				<path class="st7" d="M5.61,9.53C5.5,9.42,5.54,9.32,5.54,9.32s0.11-0.05,0.22,0.06L5.61,9.53L5.61,9.53z"/>
				<path class="st7" d="M5.13,9.43l0.54-0.54c0.01-0.01,0.03-0.01,0.04,0l0,0c0.01,0.01,0.01,0.03,0,0.04L5.17,9.47
					c-0.01,0.01-0.03,0.01-0.04,0l0,0C5.12,9.46,5.12,9.44,5.13,9.43L5.13,9.43z"/>
				<path class="st7" d="M5.18,9.46l0.51-0.51c0.01-0.01,0.03-0.01,0.04,0l0,0c0.01,0.01,0.01,0.03,0,0.04L5.22,9.5
					c-0.01,0.01-0.03,0.01-0.04,0l0,0C5.18,9.49,5.17,9.47,5.18,9.46L5.18,9.46z"/>
				<path class="st7" d="M5,8.95l0.04-0.04l0.03,0.03L5.1,8.91L5.07,8.88l0.04-0.04l0.03,0.03l0.03-0.03L5.14,8.81l0.04-0.04
					l0.07,0.07c0.01,0.01,0.01,0.03,0,0.04L5.1,9.03c-0.01,0.01-0.03,0.01-0.04,0L5,8.95L5,8.95z"/>
				<polygon class="st7" points="5.24,8.88 5.46,9.09 5.32,9.23 5.12,9.01 				"/>
				<path class="st7" d="M5.28,8.88l0.04-0.04l0.03,0.03l0.03-0.03L5.35,8.81l0.04-0.04L5.42,8.8l0.03-0.03L5.42,8.74L5.46,8.7
					l0.07,0.07c0.01,0.01,0.01,0.03,0,0.03L5.39,8.94c-0.01,0.01-0.03,0.01-0.04,0L5.28,8.88L5.28,8.88z"/>
				<polygon class="st7" points="5.52,8.81 5.64,8.92 5.5,9.05 5.39,8.93 				"/>
				<path class="st7" d="M4.93,9.23l0.04-0.04L5,9.22l0.03-0.03L5,9.16l0.04-0.04l0.03,0.03L5.1,9.12L5.07,9.09l0.04-0.04l0.07,0.07
					c0.01,0.01,0.01,0.03,0,0.03L5.04,9.29C5.03,9.3,5.01,9.3,5,9.29L4.93,9.23L4.93,9.23z"/>
				<polygon class="st7" points="5.17,9.16 5.29,9.27 5.15,9.4 5.04,9.28 				"/>
				<g>
					<path class="st8" d="M5.23,9.03l0.05,0.05l0.03-0.03L5.26,9C5.24,8.98,5.21,9.01,5.23,9.03z"/>
					<path class="st8" d="M5.48,8.92l0.04,0.04l0.03-0.03L5.51,8.89C5.49,8.88,5.46,8.91,5.48,8.92z"/>
					<path class="st8" d="M5.13,9.28l0.04,0.04L5.2,9.29L5.16,9.25C5.14,9.23,5.11,9.26,5.13,9.28z"/>
					<path class="st8" d="M5.96,9.17L5.75,9c0.01-0.02,0.01-0.04,0-0.06C5.74,8.93,5.74,8.93,5.73,8.93c0.01-0.02,0-0.03-0.01-0.05
						c-0.02-0.02-0.04-0.02-0.06,0L5.64,8.9l-0.1-0.1c0.01-0.01,0.01-0.04,0-0.05L5.47,8.68L5.41,8.74l0.03,0.03L5.43,8.78L5.4,8.75
						L5.34,8.81l0.03,0.03L5.36,8.85L5.33,8.82L5.27,8.88l0.07,0.07c0.01,0.01,0.03,0.01,0.05,0l0.1,0.1L5.47,9.07L5.26,8.88l0,0
						c0.01-0.01,0.02-0.04,0-0.05L5.19,8.76L5.13,8.82l0.03,0.03L5.15,8.86L5.12,8.83L5.06,8.89l0.03,0.03L5.08,8.93L5.05,8.9
						L4.99,8.96l0.07,0.07c0.01,0.01,0.04,0.01,0.05,0l0,0L5.3,9.24L5.28,9.26l-0.1-0.1c0.01-0.01,0.01-0.04,0-0.05L5.11,9.04
						L5.05,9.1l0.03,0.03L5.07,9.14L5.04,9.11L4.98,9.17L5.01,9.2L5,9.21L4.97,9.18L4.91,9.24l0.07,0.07c0.01,0.01,0.03,0.01,0.05,0
						l0.1,0.1L5.11,9.43c-0.02,0.02-0.01,0.04,0,0.06C5.12,9.5,5.14,9.51,5.16,9.5c0,0.01,0.01,0.02,0.01,0.02
						c0.02,0.02,0.04,0.02,0.06,0L5.4,9.73l0,0c-0.02,0.02-0.01,0.04,0,0.06c0.02,0.02,0.05,0.02,0.06,0l0.56-0.56
						c0.02-0.02,0.01-0.04,0-0.06C6.01,9.15,5.98,9.15,5.96,9.17z M5.95,9.18L5.83,9.3C5.74,9.22,5.66,9.21,5.6,9.21
						c-0.03,0-0.05,0.01-0.07,0.01l0.21-0.21L5.95,9.18z M5.54,9.31L5.54,9.31C5.53,9.32,5.53,9.34,5.53,9.36
						c0,0.04,0.01,0.11,0.07,0.18L5.56,9.58C5.4,9.41,5.5,9.27,5.5,9.27s0.15-0.09,0.31,0.06L5.77,9.37
						C5.66,9.26,5.55,9.3,5.54,9.31z M5.75,9.38L5.61,9.52C5.53,9.43,5.55,9.35,5.55,9.33C5.58,9.32,5.66,9.3,5.75,9.38z M5.35,8.93
						L5.29,8.87l0.02-0.02l0.03,0.03l0.05-0.05L5.36,8.8l0.02-0.02l0.03,0.03l0.05-0.05L5.43,8.73l0.02-0.02l0.06,0.06
						c0.01,0.01,0,0.01,0,0.02L5.37,8.93C5.37,8.94,5.36,8.94,5.35,8.93z M5.62,8.92L5.5,9.04l-0.09-0.1l0.11-0.11L5.62,8.92z
						 M5.09,9C5.08,9.01,5.08,9.01,5.07,9L5.01,8.94l0.02-0.02l0.03,0.03L5.11,8.9L5.08,8.87l0.03-0.02l0.03,0.03l0.05-0.05
						L5.16,8.8l0.03-0.02l0.06,0.06c0.01,0.01,0,0.01,0,0.02L5.09,9z M5.45,9.09L5.32,9.21l-0.19-0.2L5.24,8.9L5.45,9.09z
						 M5.01,9.28L4.95,9.22L4.97,9.2L5,9.23l0.05-0.05L5.02,9.15l0.02-0.02l0.03,0.03l0.05-0.05L5.09,9.08l0.02-0.02l0.06,0.06
						c0.01,0.01,0,0.01,0,0.02L5.03,9.28C5.02,9.29,5.01,9.29,5.01,9.28z M5.27,9.27L5.15,9.39l-0.09-0.1l0.11-0.11L5.27,9.27z
						 M5.14,9.46c-0.01-0.01-0.01-0.02,0-0.03l0.54-0.54c0.01-0.01,0.02-0.01,0.03,0s0.01,0.02,0,0.03L5.17,9.46
						C5.16,9.47,5.15,9.47,5.14,9.46z M5.2,9.5c-0.01-0.01-0.01-0.02,0-0.03l0.51-0.51c0.01-0.01,0.02,0,0.03,0
						c0.01,0.01,0.01,0.02,0,0.03l0,0L5.23,9.5l0,0C5.22,9.51,5.2,9.5,5.2,9.5z M5.25,9.5l0.2-0.2c0,0.01-0.01,0.03-0.01,0.05
						C5.43,9.41,5.45,9.5,5.53,9.59L5.41,9.71L5.25,9.5z M6.01,9.22L5.45,9.78c-0.01,0.01-0.02,0.01-0.03,0s-0.01-0.02,0-0.03
						l0.56-0.56c0.01-0.01,0.02-0.01,0.03,0C6.02,9.2,6.02,9.21,6.01,9.22z"/>
				</g>
			</g>
			<g>
				<path class="st7" d="M8.25,9.33c0.19-0.18,0.36-0.09,0.36-0.09S8.7,9.43,8.52,9.61L8.25,9.33L8.25,9.33z"/>
				<path class="st7" d="M8.36,9L8.13,9.19l0.14,0.14C8.44,9.16,8.6,9.26,8.61,9.26c0,0,0.09,0.17-0.07,0.34l0.14,0.14L8.87,9.5
					L8.36,9L8.36,9z"/>
				<path class="st7" d="M8.12,9.18l0.56,0.56c0.01,0.01,0.01,0.03,0,0.05l0,0c-0.01,0.01-0.04,0.02-0.05,0L8.07,9.23
					c-0.01-0.01-0.01-0.03,0-0.05l0,0C8.08,9.17,8.11,9.16,8.12,9.18L8.12,9.18z"/>
				<path class="st7" d="M8.32,9.38c0.11-0.11,0.21-0.07,0.21-0.07s0.05,0.11-0.06,0.22L8.32,9.38L8.32,9.38z"/>
				<path class="st7" d="M8.43,8.89l0.54,0.54c0.01,0.01,0.01,0.03,0,0.04l0,0c-0.01,0.01-0.03,0.01-0.04,0L8.39,8.93
					c-0.01-0.01-0.01-0.03,0-0.04l0,0C8.39,8.88,8.41,8.88,8.43,8.89L8.43,8.89z"/>
				<path class="st7" d="M8.39,8.95L8.9,9.46c0.01,0.01,0.01,0.03,0,0.04l0,0c-0.01,0.01-0.03,0.01-0.04,0L8.35,8.99
					c-0.01-0.01-0.01-0.03,0-0.04l0,0C8.36,8.94,8.38,8.94,8.39,8.95L8.39,8.95z"/>
				<path class="st7" d="M8.9,8.77l0.04,0.04L8.91,8.84l0.03,0.03l0.03-0.03l0.04,0.04L8.98,8.91l0.03,0.03l0.03-0.03l0.04,0.04
					L9.01,9.02C9,9.03,8.98,9.03,8.97,9.02L8.82,8.87c-0.01-0.01-0.01-0.03,0-0.04L8.9,8.77L8.9,8.77z"/>
				<polygon class="st7" points="8.97,9.01 8.76,9.23 8.62,9.09 8.85,8.88 				"/>
				<path class="st7" d="M8.98,9.05l0.04,0.04L8.99,9.12l0.03,0.03l0.03-0.03l0.04,0.04L9.06,9.19l0.03,0.03l0.03-0.03l0.04,0.04
					L9.09,9.3c-0.01,0.01-0.03,0.01-0.03,0L8.92,9.16c-0.01-0.01-0.01-0.03,0-0.04L8.98,9.05L8.98,9.05z"/>
				<polygon class="st7" points="9.05,9.28 8.94,9.4 8.8,9.26 8.92,9.15 				"/>
				<path class="st7" d="M8.63,8.7l0.04,0.04L8.64,8.77L8.67,8.8L8.7,8.77l0.04,0.04L8.71,8.84l0.03,0.03l0.03-0.03l0.04,0.04
					L8.74,8.95c-0.01,0.01-0.03,0.01-0.03,0L8.57,8.81c-0.01-0.01-0.01-0.03,0-0.04L8.63,8.7L8.63,8.7z"/>
				<polygon class="st7" points="8.7,8.93 8.59,9.05 8.45,8.92 8.57,8.8 				"/>
				<g>
					<path class="st8" d="M8.83,9L8.78,9.05l0.03,0.03l0.05-0.05C8.88,9.01,8.85,8.98,8.83,9z"/>
					<path class="st8" d="M8.93,9.25L8.89,9.29l0.03,0.03l0.04-0.04C8.98,9.25,8.95,9.23,8.93,9.25z"/>
					<path class="st8" d="M8.58,8.9L8.54,8.94l0.03,0.03l0.04-0.04C8.62,8.9,8.6,8.88,8.58,8.9z"/>
					<path class="st8" d="M8.68,9.73l0.17-0.21c0.02,0.01,0.04,0.01,0.06,0C8.92,9.51,8.92,9.51,8.92,9.5
						c0.02,0.01,0.03,0,0.05-0.01c0.02-0.02,0.02-0.04,0-0.06L8.95,9.41l0.1-0.1c0.01,0.01,0.04,0.01,0.05,0l0.07-0.07L9.11,9.18
						L9.08,9.21L9.07,9.2L9.1,9.17L9.04,9.11L9.01,9.14L9,9.13L9.03,9.1L8.97,9.04L8.9,9.11c-0.01,0.01-0.01,0.03,0,0.05l-0.1,0.1
						L8.78,9.24l0.19-0.21l0,0c0.01,0.01,0.04,0.02,0.05,0l0.07-0.07L9.03,8.9L9,8.93L8.99,8.92l0.03-0.03L8.96,8.83L8.93,8.86
						L8.92,8.85l0.03-0.03L8.89,8.76L8.82,8.83c-0.01,0.01-0.01,0.04,0,0.05l0,0L8.61,9.07L8.59,9.05l0.1-0.1
						c0.01,0.01,0.04,0.01,0.05,0l0.07-0.07L8.75,8.82L8.72,8.85L8.71,8.84l0.03-0.03L8.68,8.75L8.65,8.78L8.64,8.77l0.03-0.03
						L8.61,8.68L8.54,8.75c-0.01,0.01-0.01,0.03,0,0.05l-0.1,0.1L8.42,8.88c-0.02-0.02-0.04-0.01-0.06,0
						C8.35,8.89,8.34,8.91,8.35,8.93c-0.01,0-0.02,0.01-0.02,0.01C8.31,8.96,8.31,8.98,8.33,9L8.12,9.17l0,0
						c-0.02-0.02-0.04-0.01-0.06,0c-0.02,0.02-0.02,0.05,0,0.06l0.56,0.56c0.02,0.02,0.04,0.01,0.06,0C8.7,9.77,8.7,9.74,8.68,9.73z
						 M8.67,9.71L8.55,9.59C8.63,9.5,8.64,9.42,8.64,9.36c0-0.03-0.01-0.05-0.01-0.07L8.84,9.5L8.67,9.71z M8.55,9.31L8.55,9.31
						C8.54,9.3,8.52,9.3,8.5,9.3c-0.04,0-0.11,0.01-0.18,0.07L8.28,9.33c0.17-0.16,0.31-0.06,0.31-0.06s0.09,0.15-0.06,0.31
						L8.49,9.54C8.59,9.42,8.55,9.31,8.55,9.31z M8.47,9.51L8.33,9.37C8.42,9.29,8.5,9.31,8.52,9.31C8.53,9.34,8.55,9.43,8.47,9.51z
						 M8.92,9.12l0.06-0.06L9,9.08L8.97,9.11l0.05,0.05l0.03-0.03l0.02,0.02L9.04,9.18l0.05,0.05L9.12,9.2l0.02,0.02L9.08,9.28
						c-0.01,0.01-0.01,0-0.02,0L8.92,9.14C8.92,9.13,8.91,9.12,8.92,9.12z M8.94,9.38L8.82,9.26l0.1-0.09l0.11,0.11L8.94,9.38z
						 M8.85,8.86c-0.01-0.01-0.01-0.01,0-0.02l0.06-0.06L8.93,8.8L8.9,8.83l0.05,0.05l0.03-0.03L9,8.88L8.97,8.91l0.05,0.05
						l0.03-0.03l0.02,0.02L9.01,9.01C9,9.02,9,9.01,8.99,9.01L8.85,8.86z M8.76,9.21L8.64,9.08l0.2-0.19L8.95,9L8.76,9.21z
						 M8.57,8.77l0.06-0.06l0.02,0.02L8.62,8.76l0.05,0.05L8.7,8.78L8.72,8.8L8.69,8.83l0.05,0.05l0.03-0.03l0.02,0.02L8.73,8.93
						c-0.01,0.01-0.01,0-0.02,0L8.57,8.79C8.57,8.78,8.56,8.78,8.57,8.77z M8.59,9.03L8.47,8.91l0.1-0.09l0.11,0.11L8.59,9.03z
						 M8.39,8.9c0.01-0.01,0.02-0.01,0.03,0l0.54,0.54c0.01,0.01,0.01,0.02,0,0.03s-0.02,0.01-0.03,0L8.39,8.93
						C8.38,8.92,8.38,8.91,8.39,8.9z M8.36,8.96c0.01-0.01,0.02-0.01,0.03,0L8.9,9.47c0.01,0.01,0,0.02,0,0.03
						c-0.01,0.01-0.02,0.01-0.03,0l0,0L8.36,8.99l0,0C8.35,8.98,8.35,8.97,8.36,8.96z M8.35,9.02l0.2,0.2
						c-0.01,0-0.03-0.01-0.05-0.01C8.44,9.2,8.35,9.22,8.26,9.3L8.14,9.18L8.35,9.02z M8.63,9.78L8.07,9.22
						c-0.01-0.01-0.01-0.02,0-0.03s0.02-0.01,0.03,0l0.56,0.56c0.01,0.01,0.01,0.02,0,0.03C8.65,9.78,8.64,9.79,8.63,9.78z"/>
				</g>
			</g>
		</g>
	</g>
	<g>
		<path class="st0" d="M70.61,11.27v4.16c-0.54,0.39-1.12,0.69-1.74,0.88s-1.29,0.29-2.03,0.29c-0.87,0-1.66-0.13-2.36-0.4
			s-1.3-0.65-1.8-1.13c-0.5-0.49-0.88-1.07-1.15-1.75s-0.4-1.43-0.4-2.24c0-0.83,0.13-1.58,0.39-2.26c0.26-0.68,0.63-1.26,1.11-1.75
			s1.06-0.86,1.75-1.13c0.69-0.27,1.45-0.4,2.3-0.4c0.43,0,0.83,0.03,1.19,0.09c0.37,0.06,0.71,0.15,1.02,0.27s0.6,0.26,0.87,0.43
			c0.27,0.17,0.52,0.36,0.75,0.57l-0.42,0.67c-0.07,0.1-0.15,0.17-0.25,0.19c-0.1,0.03-0.22,0-0.34-0.07
			c-0.12-0.07-0.26-0.16-0.42-0.26s-0.35-0.2-0.57-0.29c-0.22-0.09-0.49-0.17-0.79-0.24c-0.3-0.07-0.67-0.1-1.08-0.1
			c-0.61,0-1.16,0.1-1.66,0.3s-0.91,0.48-1.26,0.85c-0.35,0.37-0.61,0.82-0.8,1.35s-0.28,1.12-0.28,1.77c0,0.68,0.1,1.29,0.29,1.83
			c0.19,0.54,0.47,0.99,0.83,1.37c0.36,0.38,0.8,0.66,1.31,0.86c0.51,0.2,1.09,0.29,1.73,0.29c0.5,0,0.95-0.06,1.34-0.17
			s0.77-0.27,1.15-0.47V12.4H67.6c-0.1,0-0.17-0.03-0.23-0.08c-0.06-0.06-0.09-0.12-0.09-0.2v-0.83h3.33V11.27z"/>
		<path class="st0" d="M82.86,11.06c0,0.81-0.13,1.56-0.39,2.23c-0.26,0.68-0.62,1.26-1.09,1.75c-0.47,0.49-1.03,0.87-1.69,1.14
			c-0.66,0.27-1.38,0.4-2.18,0.4s-1.52-0.13-2.18-0.4s-1.22-0.65-1.69-1.14c-0.47-0.49-0.83-1.07-1.09-1.75s-0.39-1.42-0.39-2.23
			s0.13-1.56,0.39-2.23c0.26-0.68,0.62-1.26,1.09-1.75c0.47-0.49,1.03-0.87,1.69-1.15c0.66-0.27,1.38-0.41,2.18-0.41
			s1.52,0.14,2.18,0.41s1.22,0.65,1.69,1.15c0.47,0.49,0.83,1.08,1.09,1.75C82.73,9.51,82.86,10.25,82.86,11.06z M81.36,11.06
			c0-0.67-0.09-1.26-0.27-1.79s-0.44-0.98-0.77-1.34c-0.33-0.37-0.74-0.65-1.21-0.84c-0.47-0.2-1-0.29-1.59-0.29
			c-0.58,0-1.11,0.1-1.58,0.29c-0.47,0.2-0.88,0.48-1.21,0.84c-0.34,0.37-0.59,0.81-0.77,1.34s-0.27,1.13-0.27,1.79
			s0.09,1.26,0.27,1.79s0.44,0.97,0.77,1.34c0.34,0.37,0.74,0.65,1.21,0.84c0.47,0.19,1,0.29,1.58,0.29s1.11-0.1,1.59-0.29
			c0.47-0.19,0.88-0.47,1.21-0.84s0.59-0.81,0.77-1.34C81.27,12.32,81.36,11.73,81.36,11.06z"/>
		<path class="st0" d="M93.46,5.64l-4.41,10.83h-1.32L83.32,5.64h1.17c0.13,0,0.24,0.03,0.32,0.1s0.14,0.15,0.18,0.25l3.05,7.64
			c0.07,0.17,0.13,0.36,0.19,0.56s0.12,0.41,0.17,0.63c0.05-0.22,0.1-0.43,0.16-0.63s0.12-0.39,0.18-0.56l3.05-7.64
			c0.03-0.09,0.09-0.16,0.18-0.24c0.09-0.07,0.2-0.11,0.32-0.11L93.46,5.64L93.46,5.64z"/>
		<path class="st0" d="M101.57,15.28l-0.01,1.19h-6.67V5.64h6.67v1.19h-5.21v3.6h4.22v1.15h-4.22v3.7L101.57,15.28L101.57,15.28z"/>
		<path class="st0" d="M111.62,16.47h-1.3c-0.27,0-0.46-0.1-0.59-0.31l-2.81-3.87c-0.09-0.12-0.18-0.21-0.28-0.26
			c-0.1-0.05-0.25-0.08-0.46-0.08h-1.11v4.52h-1.46V5.64h3.06c0.69,0,1.28,0.07,1.78,0.21c0.5,0.14,0.91,0.34,1.24,0.6
			s0.57,0.58,0.72,0.95s0.23,0.78,0.23,1.24c0,0.38-0.06,0.74-0.18,1.07c-0.12,0.33-0.3,0.63-0.53,0.9
			c-0.23,0.26-0.51,0.49-0.84,0.68s-0.7,0.33-1.12,0.42c0.19,0.11,0.35,0.26,0.48,0.46L111.62,16.47z M106.62,10.89
			c0.42,0,0.8-0.05,1.12-0.15s0.6-0.25,0.82-0.44c0.22-0.19,0.38-0.41,0.49-0.68c0.11-0.26,0.17-0.55,0.17-0.87
			c0-0.64-0.21-1.13-0.63-1.46s-1.06-0.49-1.9-0.49h-1.6v4.09L106.62,10.89L106.62,10.89z"/>
		<path class="st0" d="M121.86,5.64v10.83h-0.73c-0.12,0-0.21-0.02-0.29-0.06c-0.08-0.04-0.15-0.11-0.23-0.2l-6.27-8.16
			c0.01,0.13,0.02,0.25,0.02,0.37s0.01,0.23,0.01,0.34v7.72h-1.28V5.65h0.76c0.07,0,0.12,0,0.17,0.01s0.09,0.02,0.12,0.04
			c0.04,0.02,0.07,0.04,0.11,0.08c0.04,0.03,0.07,0.07,0.11,0.12l6.27,8.16c-0.01-0.13-0.02-0.26-0.03-0.38s-0.01-0.24-0.01-0.35
			V5.66h1.27V5.64z"/>
		<path class="st0" d="M134.64,11.06c0,0.81-0.13,1.56-0.39,2.23c-0.26,0.68-0.62,1.26-1.09,1.75c-0.47,0.49-1.03,0.87-1.69,1.14
			c-0.66,0.27-1.38,0.4-2.18,0.4s-1.52-0.13-2.18-0.4s-1.22-0.65-1.69-1.14c-0.47-0.49-0.83-1.07-1.09-1.75s-0.39-1.42-0.39-2.23
			s0.13-1.56,0.39-2.23c0.26-0.68,0.62-1.26,1.09-1.75c0.47-0.49,1.03-0.87,1.69-1.15c0.66-0.27,1.38-0.41,2.18-0.41
			s1.52,0.14,2.18,0.41s1.22,0.65,1.69,1.15c0.47,0.49,0.83,1.08,1.09,1.75C134.51,9.51,134.64,10.25,134.64,11.06z M133.13,11.06
			c0-0.67-0.09-1.26-0.27-1.79s-0.44-0.98-0.77-1.34c-0.33-0.37-0.74-0.65-1.21-0.84c-0.47-0.2-1-0.29-1.59-0.29
			c-0.58,0-1.11,0.1-1.58,0.29c-0.47,0.2-0.88,0.48-1.21,0.84c-0.34,0.37-0.59,0.81-0.77,1.34s-0.27,1.13-0.27,1.79
			s0.09,1.26,0.27,1.79s0.44,0.97,0.77,1.34c0.34,0.37,0.74,0.65,1.21,0.84c0.47,0.19,1,0.29,1.58,0.29s1.11-0.1,1.59-0.29
			c0.47-0.19,0.88-0.47,1.21-0.84s0.59-0.81,0.77-1.34C133.04,12.32,133.13,11.73,133.13,11.06z"/>
		<path class="st0" d="M70.52,26.18c0,0.81-0.13,1.55-0.39,2.21c-0.26,0.67-0.62,1.23-1.09,1.71s-1.03,0.84-1.69,1.1
			s-1.38,0.39-2.18,0.39h-4.04V20.76h4.04c0.8,0,1.52,0.13,2.18,0.39s1.22,0.63,1.69,1.1c0.47,0.48,0.83,1.05,1.09,1.71
			C70.39,24.63,70.52,25.37,70.52,26.18z M69.02,26.18c0-0.67-0.09-1.26-0.27-1.78s-0.44-0.97-0.77-1.33s-0.74-0.64-1.21-0.83
			c-0.47-0.19-1-0.29-1.59-0.29H62.6v8.46h2.58c0.58,0,1.11-0.1,1.59-0.29c0.47-0.19,0.88-0.47,1.21-0.83s0.59-0.8,0.77-1.33
			C68.93,27.44,69.02,26.84,69.02,26.18z"/>
		<path class="st0" d="M82.64,26.18c0,0.81-0.13,1.56-0.39,2.23c-0.26,0.68-0.62,1.26-1.09,1.75c-0.47,0.49-1.03,0.87-1.69,1.14
			c-0.66,0.27-1.38,0.4-2.18,0.4s-1.52-0.13-2.18-0.4s-1.22-0.65-1.69-1.14c-0.47-0.49-0.83-1.07-1.09-1.75s-0.39-1.42-0.39-2.23
			s0.13-1.56,0.39-2.23c0.26-0.68,0.62-1.26,1.09-1.75s1.03-0.87,1.69-1.15c0.66-0.27,1.38-0.41,2.18-0.41s1.52,0.14,2.18,0.41
			s1.22,0.65,1.69,1.15s0.83,1.08,1.09,1.75C82.51,24.62,82.64,25.37,82.64,26.18z M81.13,26.18c0-0.67-0.09-1.26-0.27-1.79
			s-0.44-0.98-0.77-1.34c-0.33-0.37-0.74-0.65-1.21-0.84c-0.47-0.2-1-0.29-1.59-0.29c-0.58,0-1.11,0.1-1.58,0.29
			c-0.47,0.2-0.88,0.48-1.21,0.84c-0.34,0.37-0.59,0.81-0.77,1.34s-0.27,1.13-0.27,1.79s0.09,1.26,0.27,1.79s0.44,0.97,0.77,1.34
			c0.34,0.37,0.74,0.65,1.21,0.84c0.47,0.19,1,0.29,1.58,0.29s1.11-0.1,1.59-0.29c0.47-0.19,0.88-0.47,1.21-0.84
			s0.59-0.81,0.77-1.34S81.13,26.84,81.13,26.18z"/>
		<path class="st0" d="M90.27,22.45c-0.05,0.08-0.09,0.13-0.15,0.17c-0.05,0.04-0.12,0.06-0.19,0.06c-0.09,0-0.19-0.04-0.3-0.13
			c-0.12-0.09-0.26-0.18-0.43-0.28s-0.38-0.2-0.63-0.28c-0.24-0.09-0.54-0.13-0.89-0.13c-0.33,0-0.62,0.04-0.87,0.13
			s-0.46,0.21-0.63,0.36s-0.3,0.33-0.38,0.53c-0.09,0.2-0.13,0.42-0.13,0.66c0,0.3,0.07,0.55,0.22,0.75
			c0.15,0.2,0.35,0.37,0.59,0.51c0.24,0.14,0.52,0.26,0.83,0.37c0.31,0.1,0.63,0.21,0.95,0.32c0.32,0.11,0.64,0.24,0.95,0.37
			c0.31,0.14,0.59,0.31,0.83,0.53c0.24,0.21,0.44,0.47,0.59,0.78s0.22,0.69,0.22,1.13c0,0.47-0.08,0.92-0.24,1.33
			c-0.16,0.42-0.4,0.78-0.71,1.08c-0.31,0.31-0.69,0.55-1.14,0.73c-0.45,0.18-0.96,0.26-1.54,0.26c-0.71,0-1.35-0.13-1.92-0.38
			s-1.07-0.6-1.47-1.03l0.42-0.7c0.04-0.06,0.09-0.1,0.15-0.14s0.12-0.06,0.19-0.06s0.14,0.03,0.22,0.08
			c0.08,0.05,0.18,0.12,0.28,0.2c0.11,0.08,0.23,0.17,0.36,0.26c0.14,0.1,0.29,0.18,0.46,0.26s0.37,0.15,0.59,0.2
			c0.22,0.05,0.47,0.08,0.75,0.08c0.35,0,0.66-0.05,0.93-0.14c0.27-0.1,0.5-0.23,0.69-0.4c0.19-0.17,0.33-0.38,0.43-0.62
			s0.15-0.51,0.15-0.81c0-0.33-0.07-0.6-0.22-0.8c-0.15-0.21-0.34-0.38-0.59-0.53c-0.24-0.14-0.52-0.26-0.83-0.36
			s-0.63-0.2-0.95-0.3c-0.32-0.1-0.64-0.22-0.95-0.36c-0.31-0.14-0.59-0.31-0.83-0.53s-0.44-0.49-0.59-0.81
			c-0.15-0.33-0.22-0.73-0.22-1.21c0-0.38,0.07-0.75,0.22-1.11c0.15-0.36,0.37-0.68,0.65-0.95s0.64-0.5,1.05-0.67
			c0.42-0.17,0.89-0.25,1.43-0.25c0.6,0,1.16,0.1,1.65,0.29c0.5,0.19,0.93,0.47,1.31,0.83L90.27,22.45z"/>
		<path class="st0" d="M106.16,31.59h-1.76c-0.2,0-0.36-0.05-0.48-0.14c-0.12-0.09-0.22-0.21-0.28-0.36L102.9,29h-4.37l-0.74,2.09
			c-0.05,0.13-0.14,0.24-0.26,0.34c-0.13,0.1-0.28,0.15-0.48,0.15h-1.78l4.29-10.97h2.32L106.16,31.59z M102.36,27.43l-1.19-3.36
			c-0.07-0.18-0.15-0.38-0.22-0.62c-0.08-0.24-0.15-0.49-0.22-0.77c-0.07,0.28-0.14,0.54-0.22,0.78c-0.08,0.24-0.15,0.45-0.22,0.62
			l-1.18,3.34L102.36,27.43L102.36,27.43z"/>
		<path class="st0" d="M115.52,29.99c-0.39,0.5-0.87,0.9-1.44,1.19c-0.56,0.29-1.23,0.46-2,0.51l-0.09,0.32
			c0.24,0.06,0.44,0.12,0.6,0.2c0.16,0.08,0.29,0.16,0.39,0.26c0.1,0.1,0.17,0.2,0.21,0.32c0.04,0.12,0.06,0.24,0.06,0.36
			c0,0.18-0.05,0.33-0.14,0.47s-0.22,0.26-0.39,0.35c-0.17,0.1-0.37,0.17-0.61,0.22s-0.5,0.08-0.79,0.08c-0.21,0-0.4-0.01-0.58-0.03
			s-0.36-0.06-0.53-0.11l0.19-0.64c0.03-0.12,0.11-0.18,0.23-0.18c0.07,0,0.15,0.01,0.23,0.04c0.08,0.03,0.19,0.04,0.32,0.04
			c0.15,0,0.26-0.03,0.33-0.08c0.07-0.06,0.11-0.12,0.11-0.2c0-0.13-0.08-0.22-0.25-0.28s-0.44-0.11-0.81-0.17l0.34-0.99
			c-0.73-0.07-1.39-0.26-1.97-0.56c-0.58-0.3-1.07-0.7-1.48-1.19s-0.72-1.06-0.93-1.71s-0.32-1.35-0.32-2.11
			c0-0.54,0.06-1.06,0.18-1.55s0.29-0.94,0.52-1.36c0.23-0.41,0.5-0.79,0.82-1.12s0.68-0.62,1.08-0.85s0.84-0.41,1.32-0.54
			c0.48-0.12,0.98-0.19,1.52-0.19c0.4,0,0.78,0.04,1.15,0.11c0.36,0.07,0.7,0.17,1.01,0.29c0.31,0.13,0.6,0.28,0.87,0.46
			c0.26,0.18,0.5,0.37,0.71,0.59l-0.76,1.04c-0.05,0.07-0.1,0.12-0.17,0.17c-0.07,0.05-0.17,0.08-0.29,0.08s-0.24-0.04-0.37-0.13
			c-0.12-0.09-0.27-0.18-0.45-0.29c-0.18-0.11-0.4-0.2-0.67-0.29c-0.27-0.09-0.61-0.13-1.02-0.13c-0.46,0-0.88,0.08-1.26,0.25
			s-0.71,0.41-0.99,0.72c-0.27,0.32-0.49,0.7-0.64,1.16s-0.23,0.98-0.23,1.56c0,0.59,0.08,1.11,0.25,1.58
			c0.16,0.46,0.39,0.85,0.67,1.17c0.28,0.32,0.62,0.56,1,0.72s0.79,0.25,1.22,0.25c0.26,0,0.49-0.01,0.7-0.04s0.4-0.07,0.58-0.13
			s0.35-0.14,0.51-0.23c0.16-0.1,0.32-0.22,0.48-0.36c0.06-0.05,0.11-0.08,0.17-0.11s0.13-0.05,0.2-0.05c0.13,0,0.23,0.05,0.32,0.14
			L115.52,29.99z"/>
		<path class="st0" d="M127.15,26.1c0,0.8-0.13,1.54-0.4,2.23s-0.65,1.28-1.14,1.78s-1.08,0.89-1.77,1.18
			c-0.69,0.28-1.46,0.43-2.3,0.43c-0.84,0-1.61-0.14-2.3-0.43c-0.69-0.28-1.28-0.68-1.78-1.18c-0.49-0.5-0.88-1.09-1.15-1.78
			s-0.4-1.43-0.4-2.23s0.13-1.54,0.4-2.23c0.27-0.68,0.65-1.27,1.15-1.77c0.49-0.5,1.09-0.89,1.78-1.18
			c0.69-0.28,1.46-0.43,2.3-0.43c0.84,0,1.61,0.14,2.3,0.43c0.69,0.28,1.28,0.68,1.77,1.18s0.87,1.09,1.14,1.78
			C127.02,24.57,127.15,25.31,127.15,26.1z M124.83,26.1c0-0.57-0.08-1.09-0.23-1.55c-0.15-0.46-0.37-0.84-0.65-1.16
			s-0.63-0.56-1.04-0.73s-0.87-0.25-1.38-0.25s-0.97,0.08-1.38,0.25c-0.41,0.17-0.75,0.41-1.04,0.73c-0.28,0.32-0.5,0.71-0.65,1.16
			c-0.15,0.46-0.23,0.97-0.23,1.55s0.08,1.1,0.23,1.55c0.15,0.46,0.37,0.84,0.65,1.16s0.63,0.56,1.04,0.73s0.87,0.25,1.38,0.25
			s0.97-0.08,1.38-0.25c0.41-0.17,0.75-0.41,1.04-0.73c0.28-0.32,0.5-0.7,0.65-1.16C124.76,27.2,124.83,26.68,124.83,26.1z"/>
		<path class="st0" d="M137.56,31.59h-2.05c-0.38,0-0.66-0.15-0.83-0.44l-2.09-3.36c-0.09-0.13-0.18-0.23-0.28-0.29
			c-0.1-0.06-0.26-0.09-0.46-0.09h-0.77v4.18h-2.27V20.62h3.45c0.77,0,1.42,0.08,1.97,0.24c0.54,0.16,0.99,0.38,1.34,0.66
			c0.35,0.28,0.6,0.62,0.76,1.01c0.16,0.39,0.24,0.82,0.24,1.29c0,0.36-0.05,0.71-0.15,1.03c-0.1,0.32-0.25,0.62-0.45,0.89
			c-0.2,0.27-0.44,0.5-0.73,0.71s-0.61,0.37-0.98,0.5c0.15,0.08,0.28,0.18,0.41,0.29c0.13,0.11,0.24,0.25,0.34,0.4L137.56,31.59z
			 M132.25,25.82c0.37,0,0.69-0.05,0.95-0.14c0.27-0.09,0.49-0.22,0.66-0.39c0.17-0.16,0.3-0.36,0.38-0.58s0.12-0.46,0.12-0.73
			c0-0.52-0.17-0.92-0.52-1.21c-0.35-0.29-0.87-0.43-1.58-0.43h-1.18v3.47h1.17V25.82z"/>
		<path class="st0" d="M140.92,22.4v2.82h3.66v1.72h-3.66v2.88h4.7v1.78h-6.98V20.63h6.98v1.78h-4.7V22.4z"/>
		<path class="st0" d="M153.25,22.72c-0.07,0.12-0.14,0.2-0.22,0.25c-0.07,0.05-0.17,0.08-0.28,0.08c-0.11,0-0.23-0.04-0.36-0.12
			s-0.28-0.16-0.45-0.25s-0.37-0.17-0.59-0.25c-0.22-0.08-0.48-0.12-0.78-0.12c-0.52,0-0.92,0.12-1.18,0.35S149,23.2,149,23.58
			c0,0.24,0.07,0.44,0.22,0.6c0.14,0.16,0.33,0.3,0.57,0.41c0.23,0.12,0.5,0.22,0.8,0.31s0.6,0.19,0.91,0.3s0.62,0.24,0.91,0.38
			c0.3,0.15,0.56,0.33,0.8,0.55c0.23,0.22,0.42,0.49,0.57,0.81c0.14,0.32,0.22,0.71,0.22,1.17c0,0.5-0.09,0.97-0.26,1.4
			c-0.17,0.44-0.42,0.82-0.75,1.14s-0.73,0.58-1.21,0.77c-0.48,0.19-1.03,0.28-1.64,0.28c-0.35,0-0.69-0.04-1.04-0.11
			c-0.35-0.07-0.68-0.17-1-0.29c-0.32-0.13-0.62-0.28-0.9-0.45c-0.28-0.18-0.53-0.37-0.74-0.59l0.67-1.07
			c0.06-0.08,0.13-0.15,0.22-0.2c0.09-0.05,0.19-0.08,0.29-0.08c0.14,0,0.28,0.05,0.43,0.15c0.15,0.1,0.33,0.21,0.52,0.33
			c0.2,0.12,0.42,0.23,0.68,0.33c0.26,0.1,0.57,0.15,0.93,0.15c0.53,0,0.94-0.12,1.23-0.36s0.43-0.6,0.43-1.08
			c0-0.28-0.07-0.5-0.22-0.67c-0.14-0.17-0.33-0.31-0.56-0.43s-0.5-0.22-0.79-0.3c-0.3-0.08-0.6-0.17-0.91-0.28
			c-0.31-0.1-0.62-0.22-0.91-0.36c-0.3-0.14-0.56-0.33-0.79-0.56s-0.42-0.52-0.56-0.86s-0.22-0.77-0.22-1.28
			c0-0.41,0.08-0.8,0.24-1.19c0.16-0.38,0.4-0.72,0.71-1.02s0.7-0.54,1.15-0.72c0.46-0.18,0.98-0.27,1.57-0.27
			c0.66,0,1.27,0.1,1.83,0.31c0.56,0.2,1.04,0.49,1.42,0.85L153.25,22.72z"/>
	</g>
</g>
</svg>
