<?xml version="1.0" encoding="utf-8"?>
<!-- Generator: Adobe Illustrator 24.0.2, SVG Export Plug-In . SVG Version: 6.00 Build 0)  -->
<svg version="1.1" id="Layer_1" xmlns="http://www.w3.org/2000/svg" xmlns:xlink="http://www.w3.org/1999/xlink" x="0px" y="0px"
	 viewBox="0 0 1952.1 469.9" style="enable-background:new 0 0 1952.1 469.9;" xml:space="preserve">
<style type="text/css">
	.st0{fill:url(#SVGID_1_);}
	.st1{fill:url(#SVGID_2_);}
	.st2{fill:url(#SVGID_3_);}
	.st3{fill:url(#SVGID_4_);}
	.st4{fill:url(#SVGID_5_);}
	.st5{fill:url(#SVGID_6_);}
	.st6{fill:url(#SVGID_7_);}
	.st7{fill:url(#SVGID_8_);}
	.st8{fill:url(#SVGID_9_);}
	.st9{fill:#2875A5;}
	.st10{fill:url(#SVGID_10_);}
	.st11{fill:url(#SVGID_11_);}
	.st12{fill:url(#SVGID_12_);}
	.st13{fill:url(#SVGID_13_);}
	.st14{fill:url(#SVGID_14_);}
	.st15{fill:url(#SVGID_15_);}
	.st16{fill:url(#SVGID_16_);}
	.st17{fill:url(#SVGID_17_);}
	.st18{fill:#026085;}
	.st19{fill:#026085;stroke:#026085;stroke-width:3;stroke-miterlimit:10;}
	.st20{fill:none;}
</style>
<title>okeanos_logo_color_horizontal</title>
<linearGradient id="SVGID_1_" gradientUnits="userSpaceOnUse" x1="106369.8281" y1="-143513.3281" x2="110480.7578" y2="-136746.6875" gradientTransform="matrix(3.600000e-02 1.480000e-02 8.000000e-03 -1.940000e-02 -2539.0076 -4091.5198)">
	<stop  offset="0" style="stop-color:#0B9BA1"/>
	<stop  offset="1" style="stop-color:#1C75AE"/>
</linearGradient>
<path class="st0" d="M144.6,199.7c-0.1,0.3-0.2,0.6-0.4,0.8c-4.8,11-6.4,23.1-4.4,34.9c1.3,9.1,5.5,21.1,12.9,36.4
	c11,13.5,26,22.2,45.2,26.8c7.3,0.5,14.2,3.5,19.7,8.5c9.4-3.5,18.6-7.6,27.5-12.3c2.8-1.2,5.6-2.7,8.2-4.2
	c-16.7-10.1-28.5-21.8-35.1-33.8c-6.7-1.5-13.2-3.5-19.4-6.1c-9.3-3.6-18-8.6-25.8-14.8c0.2,11.2,3.4,23,9.1,35.7
	c-11.6-17.1-18.6-32.6-20.3-46.3C154.7,217.7,149,209,144.6,199.7z"/>
<linearGradient id="SVGID_2_" gradientUnits="userSpaceOnUse" x1="463531.7188" y1="-145611.7656" x2="465283.9688" y2="-139495.2656" gradientTransform="matrix(8.600000e-03 3.500000e-03 7.900000e-03 -1.920000e-02 -2543.4333 -4169.6919)">
	<stop  offset="0" style="stop-color:#0B9BA1"/>
	<stop  offset="1" style="stop-color:#1C75AE"/>
</linearGradient>
<path class="st1" d="M357.2,169.5c2.5-5.9,4.7-11.6,6.8-17.5c-5.7-10.6-13.3-20.1-22.4-29.2c1.9,9.9,2.3,18,1.5,24.1
	c-0.5,2.4-1.1,4.7-1.9,7c0.2,10.5-1.3,21-4.4,31.1c1.9,5.1,3.8,10.6,5.5,16.1C347.8,190.7,352.8,180.2,357.2,169.5z"/>
<linearGradient id="SVGID_3_" gradientUnits="userSpaceOnUse" x1="139883.1562" y1="-45341.9688" x2="138356.0312" y2="-43814.8398" gradientTransform="matrix(2.830000e-02 1.170000e-02 2.380000e-02 -5.780000e-02 -2579.1587 -3936.9929)">
	<stop  offset="0" style="stop-color:#0AC4D6"/>
	<stop  offset="1" style="stop-color:#0994C6"/>
</linearGradient>
<path class="st2" d="M364,151.9c-2.1,5.9-4.2,11.6-6.8,17.5c-4.4,10.8-9.4,21.3-15,31.5c4.9,17.3,7,35.7,7,55.4
	c-10.6-11.2-18.4-14.6-23.7-9.7c-26.2,44.8-49.7,59.8-70.4,45c-0.6-0.4-1.3-0.6-1.9-1.1c-2.7,1.6-5.4,3-8.2,4.2
	c-8.9,4.7-18.1,8.8-27.5,12.3c2.4,1.9,4.4,4.1,6.1,6.6c3,23,21.6,27.7,56,14.2c44.4-15.4,75.5-57.9,92.4-127.3
	c3.6-14,1.3-29-6.3-44.8C365.1,154.2,364.4,153.2,364,151.9z"/>
<linearGradient id="SVGID_4_" gradientUnits="userSpaceOnUse" x1="-9819.4512" y1="-16844.9785" x2="-9820.5078" y2="-16843.9219" gradientTransform="matrix(2.900000e-03 1.200000e-03 3.300000e-03 -8.100000e-03 -2541.0667 -4221.7754)">
	<stop  offset="0" style="stop-color:#0AC4D6"/>
	<stop  offset="1" style="stop-color:#0994C6"/>
</linearGradient>
<path class="st3" d="M341.2,153.8c-2.3,6.4-5.9,12.3-10.6,17.3c2.3,4.4,4.2,9.1,6.1,13.7C339.9,174.8,341.4,164.3,341.2,153.8z"/>
<linearGradient id="SVGID_5_" gradientUnits="userSpaceOnUse" x1="130248.3828" y1="-63331.5508" x2="129981.0234" y2="-66785.9297" gradientTransform="matrix(3.000000e-02 1.240000e-02 1.650000e-02 -4.010000e-02 -2554.854 -4039.1509)">
	<stop  offset="0" style="stop-color:#054877"/>
	<stop  offset="1" style="stop-color:#063259"/>
</linearGradient>
<path class="st4" d="M240.8,257.4c0.8,0.4,1.5,0.7,2.7,1.3c11.7-0.8,23.1-3.6,33.8-8.2c26.4-11,45-29.6,55.8-56
	c1.3-3.2,2.5-6.3,3.6-9.5c-1.9-4.7-3.8-9.3-6.1-13.7c-4.7-9.7-10-19.2-15.9-28.3c-6.5-9.2-14.1-17.6-22.8-24.7
	c-17.8-12.9-33.8-14-47.8-3l10.6,8c7.4,6.3,14.2,13.4,20.1,21.1c17.3,23.5,18.6,45.2,3.6,65.1c-16.5,21.8-29,31.1-37.6,27.5
	c-8.7-3.4-14-20.1-15.9-49.7c-9.1,31.5-4,54.8,15,69.6"/>
<linearGradient id="SVGID_6_" gradientUnits="userSpaceOnUse" x1="159005.3125" y1="-75678.2266" x2="156548.3594" y2="-78117.3672" gradientTransform="matrix(2.500000e-02 1.030000e-02 1.420000e-02 -3.460000e-02 -2555.7278 -4049.5535)">
	<stop  offset="0" style="stop-color:#032D55"/>
	<stop  offset="1" style="stop-color:#041434"/>
</linearGradient>
<path class="st5" d="M333.1,194.4c-10.8,26.4-29.4,45-55.8,56c-10.7,4.6-22.2,7.4-33.8,8.2c18.4,7.8,35.7,5.7,52-6.6
	c-8.5,11.4-19,17.8-31.3,19.2c-13.7,1.7-27.9-3-41.6-14c-1.5-0.1-3-0.3-4.4-0.6c6.6,12,18.4,23.7,35.1,33.8
	c37.4-21.1,67.1-51,89-89.6c-1.7-5.5-3.6-11-5.5-16.1C335.7,188.1,334.4,191.2,333.1,194.4z"/>
<linearGradient id="SVGID_7_" gradientUnits="userSpaceOnUse" x1="194599.0469" y1="-85117.3203" x2="198063.1875" y2="-85117.3203" gradientTransform="matrix(2.020000e-02 8.300000e-03 1.300000e-02 -3.150000e-02 -2549.5071 -4059.375)">
	<stop  offset="0" style="stop-color:#032D55"/>
	<stop  offset="1" style="stop-color:#063259"/>
</linearGradient>
<path class="st6" d="M325.5,246.6c5.3-4.9,13.1-1.5,23.7,9.7c0-19.7-2.1-38.1-7-55.4c-22,38.7-51.7,68.6-89,89.6
	c0.6,0.4,1.3,0.6,1.9,1.1C275.8,306.4,299.3,291.4,325.5,246.6z"/>
<linearGradient id="SVGID_8_" gradientUnits="userSpaceOnUse" x1="447805.7188" y1="-127980.1719" x2="445761.6875" y2="-125936.1094" gradientTransform="matrix(8.800000e-03 3.600000e-03 8.900000e-03 -2.150000e-02 -2629.874 -4148.6245)">
	<stop  offset="0" style="stop-color:#0AC4D6"/>
	<stop  offset="1" style="stop-color:#0994C6"/>
</linearGradient>
<path class="st7" d="M161.7,210.5c3.6-24.7,16.3-43.8,37.6-56.9c-24.7,5.3-42.9,20.7-54.8,46.1c4.4,9.3,10.2,18,17.1,25.6
	C161.1,220.4,161.1,215.4,161.7,210.5z"/>
<linearGradient id="SVGID_9_" gradientUnits="userSpaceOnUse" x1="182178.3281" y1="-108128.1719" x2="179769.75" y2="-105719.6016" gradientTransform="matrix(2.160000e-02 8.900000e-03 1.040000e-02 -2.520000e-02 -2576.1292 -4105.8828)">
	<stop  offset="0" style="stop-color:#0AC4D6"/>
	<stop  offset="1" style="stop-color:#0994C6"/>
</linearGradient>
<path class="st8" d="M222.6,165.4c-13.3,1.9-25.6,11.2-37,27.9c-8.9,13.3-13.1,27.5-12.7,42.5c7.8,6.2,16.5,11.2,25.8,14.8
	c6.3,2.6,12.8,4.7,19.4,6.1c-0.8-1.9-1.7-3.6-2.7-5.5c2.3,2.2,4.7,4.2,7.2,6.1c6.9,1.2,13.9,1.6,20.9,1.3c-0.9-0.4-1.8-0.9-2.6-1.4
	c-0.4-0.2-0.8-0.4-0.9-0.5c-7.7-0.8-15.2-3.3-22-7.2c-16.9-9.9-22.8-24.7-18.2-44.8c3.8-15.9,13.1-25.6,27.5-29
	c13.7-3.4,29.8-0.8,48.4,7.4C254.5,169.2,237,163.3,222.6,165.4z"/>
<path class="st9" d="M215.4,251.3c1.1,1.9,1.9,3.6,2.7,5.5c1.5,0.3,2.9,0.5,4.4,0.6C220.1,255.5,217.7,253.4,215.4,251.3z"/>
<linearGradient id="SVGID_10_" gradientUnits="userSpaceOnUse" x1="223715.1094" y1="-299658.0938" x2="227948.7969" y2="-285178.0625" gradientTransform="matrix(1.750000e-02 7.200000e-03 3.900000e-03 -9.500000e-03 -2540.7803 -4157.7744)">
	<stop  offset="0" style="stop-color:#0B9BA1"/>
	<stop  offset="1" style="stop-color:#1C75AE"/>
</linearGradient>
<path class="st10" d="M243.5,258.7c-7,0.3-14-0.1-20.9-1.3c13.7,11,27.9,15.6,41.6,14c12.3-1.5,22.8-7.8,31.3-19.2
	C279.2,264.4,261.9,266.5,243.5,258.7z"/>
<linearGradient id="SVGID_11_" gradientUnits="userSpaceOnUse" x1="336.0069" y1="72.233" x2="709.7877" y2="176.7902" gradientTransform="matrix(1 0 0 -1 0 472)">
	<stop  offset="0" style="stop-color:#024C74"/>
	<stop  offset="1" style="stop-color:#023C6B"/>
</linearGradient>
<path class="st11" d="M679.4,309.2c11.6-0.3,23.2,0.4,34.7,2.3c-11.4-2.6-23-4.4-34.7-5.5c-63-5.9-131.1,7-204.4,38.7
	c-36.1,13.7-67.9,24.3-94.9,32.1c-0.5,0.2-0.8,0.6-1.1,1.1c-4.4,5.5-8.9,10.6-13.5,15.4c-12.5,12.7-25.6,23-39.5,30.9
	c24.9-7.9,49-18.3,71.9-30.9c1.7-0.8,3-1.7,4.7-2.5C518.7,336.7,611.1,309.5,679.4,309.2z"/>
<linearGradient id="SVGID_12_" gradientUnits="userSpaceOnUse" x1="40646.0117" y1="-45339.1797" x2="41960.2109" y2="-42135.3164" gradientTransform="matrix(6.300000e-02 0 0 -9.180000e-02 -2434.2524 -3838.8433)">
	<stop  offset="0.5302" style="stop-color:#025E83"/>
	<stop  offset="1" style="stop-color:#054877"/>
</linearGradient>
<path class="st12" d="M229.3,61c20.9,0,39.5,5.5,56,16.3h5.1c-36.4-34-79.5-43.8-129.6-28.3c-15,4.5-29.1,11.3-42.1,20.1
	c-31.1,42.1-46.5,92.4-46.5,150.5c0,50.9,12,95.6,35.9,134.4c14.8,4,30.1,6,45.5,5.9c11.3-0.1,22.5-1.2,33.6-3.4
	c-10.6-11.8-22.2-19.7-34.9-24.1c-48.6-35.5-73.1-72.4-73.4-110.6c-0.4-42.7,18.6-77.8,57.3-105.9c0.4-0.2,0.8-0.2,1.1-0.4
	c4.8-8.8,10.9-16.9,18.2-23.9C176.1,71.2,200.6,61,229.3,61z"/>
<linearGradient id="SVGID_13_" gradientUnits="userSpaceOnUse" x1="61231.7305" y1="-275461.2188" x2="64379.6992" y2="-274011.9375" gradientTransform="matrix(4.270000e-02 0 0 -1.570000e-02 -2476.3374 -4229.6455)">
	<stop  offset="0" style="stop-color:#054877"/>
	<stop  offset="1" style="stop-color:#032D55"/>
</linearGradient>
<path class="st13" d="M285.4,77.3c-16.5-10.8-35.1-16.3-56-16.3c-28.8,0-53.3,10.1-73.8,30.7c-7.3,7-13.4,15-18.2,23.9
	C176.3,87.9,225.7,75.2,285.4,77.3z"/>
<linearGradient id="SVGID_14_" gradientUnits="userSpaceOnUse" x1="120588.5234" y1="-50968.6797" x2="121673.3516" y2="-49002.0664" gradientTransform="matrix(2.210000e-02 0 0 -8.230000e-02 -2595.2068 -3876.1416)">
	<stop  offset="0" style="stop-color:#063259"/>
	<stop  offset="1" style="stop-color:#032D55"/>
</linearGradient>
<path class="st14" d="M72.3,219.6c0-58.1,15.4-108.4,46.5-150.5c-18.8,12.9-34.7,30.7-48,52.6C50.9,155,41,193.3,42.3,232
	c0.6,39.5,8.2,73.8,22.2,103c13.6,8.5,28.3,14.9,43.8,19C84.3,315.1,72.3,270.5,72.3,219.6z"/>
<linearGradient id="SVGID_15_" gradientUnits="userSpaceOnUse" x1="54587.4219" y1="-143155.0469" x2="58053.6484" y2="-143155.0469" gradientTransform="matrix(4.690000e-02 0 0 -3.080000e-02 -2495.7007 -4020.9229)">
	<stop  offset="0" style="stop-color:#041434"/>
	<stop  offset="1" style="stop-color:#00102A"/>
</linearGradient>
<path class="st15" d="M98.3,383.4c3.6,3.4,7.2,6.8,10.6,9.9C142,422.9,181.6,439,227,441.5c-33-5.3-62.4-21.4-88.2-48.2
	c-5-4.8-9.6-10-14-15.4c-6.1-7.6-11.7-15.6-16.7-23.9c-15.5-4.1-30.2-10.5-43.8-19C73.1,352.8,84.5,369.1,98.3,383.4z"/>
<linearGradient id="SVGID_16_" gradientUnits="userSpaceOnUse" x1="63792.0742" y1="143624.1562" x2="67255.6406" y2="143624.1562" gradientTransform="matrix(-1.750000e-02 4.300000e-02 2.880000e-02 1.170000e-02 -2765.0833 -4073.0315)">
	<stop  offset="0" style="stop-color:#016C8E"/>
	<stop  offset="1" style="stop-color:#016087"/>
</linearGradient>
<path class="st16" d="M108.2,354c5,8.3,10.6,16.3,16.7,23.9c4.3,5.4,9,10.6,14,15.4c25.8,26.8,55.2,42.9,88.2,48.2
	c2.5,0,5.5,0,8.2,0.2c30.8-2.3,61.2-8.2,90.7-17.5c14-7.8,27.1-18.2,39.5-30.9c4.7-4.9,9.1-9.9,13.5-15.4c0.2-0.5,0.6-0.8,1.1-1.1
	c-48.6,13.5-83.3,17.8-103.6,12.3c34.5-2.1,72.7-11.2,114.8-27.9c5.8-8.7,11-17.9,15.6-27.3c-29.6,5.1-57.9,11.2-85.4,18.4
	c-16.7,3.8-34.2,10.8-52.8,20.9c-14.8,8.2-29.2,11.6-43.5,10.6c-12.7-0.6-21.4-4.4-25.8-11.2c-3.7-5.6-7.7-10.9-12-16.1
	c-11.1,2.2-22.3,3.3-33.6,3.4C138.3,360,123,358,108.2,354z"/>
<linearGradient id="SVGID_17_" gradientUnits="userSpaceOnUse" x1="80294.4062" y1="-379335.4062" x2="83160.7422" y2="-377391.0625" gradientTransform="matrix(3.460000e-02 0 0 -1.180000e-02 -2385.2756 -4127.1694)">
	<stop  offset="0" style="stop-color:#024C74"/>
	<stop  offset="1" style="stop-color:#023C6B"/>
</linearGradient>
<path class="st17" d="M454.1,335.4c21.6-7.8,40.4-12.7,56.9-14.8c-35.9,3-70.6,7.6-104,13.3c-4.6,9.4-9.9,18.5-15.6,27.3
	c3.2-1.2,6.3-2.5,9.3-4C431.2,344.5,449,337.3,454.1,335.4z"/>
<path class="st18" d="M618.8,175c0,29.6-8.1,51.9-24.4,67c-17.7,16.4-38.6,24.5-62.7,24.5c-26.7,0-48.9-8.9-66.5-26.6
	c-14-14.1-20.9-35.7-20.9-64.9c0-29.1,7.1-50.7,21.2-64.9c17.5-17.5,39.5-26.3,66.2-26.3c26.4,0,48.5,8.9,66.1,26.6
	C611.8,124.6,618.8,146.1,618.8,175z M606.7,174.8c0-26.2-5.7-45.3-17.1-57.1C574.4,101.9,555.1,94,531.7,94
	c-23.6,0-43,7.9-58.2,23.6c-11.5,11.8-17.2,30.9-17.2,57.2c0,26.3,5.7,45.4,17.2,57.4c15.2,15.9,34.6,23.8,58.2,23.8
	c23.4,0,42.7-8,57.9-23.9C601,220.1,606.7,201,606.7,174.8L606.7,174.8z"/>
<path class="st18" d="M753,263.3l-14.7,0l-75.7-95.3l-20.5,18.8v76.5h-11.4V86.6h11.4v84.9l91.2-84.2h17l-79.2,73L753,263.3z"/>
<path class="st18" d="M856.2,263.5h-68.3c-6,0.2-11.8-2-16.3-5.9c-4.4-3.8-6.8-9.3-6.7-15V107.8h0.1c0-6.4,2.1-11.5,6.4-15.3
	c4.2-3.8,9.7-5.7,16.5-5.7h68.3v10.1h-69.4c-6.9,1-10.4,4.6-10.4,10.7v62.4H845v9.7h-68.7v62.8c0,6.2,3.5,9.8,10.4,10.7h69.4
	L856.2,263.5z"/>
<path class="st18" d="M989.8,263.5h-11.4v-87.8h-98.9v87.8h-11.4V149.2c0-19.3,5-34.8,15.1-46.5c10.8-12.6,26.1-18.9,45.8-18.9
	c19.4,0,34.6,6.4,45.5,19.1c10.2,11.8,15.3,27.2,15.3,46.3V263.5z M978.4,165.9v-12.8c0-39.4-16.4-59.1-49.3-59.1
	c-33,0-49.6,19.7-49.6,59.1v12.8H978.4z"/>
<path class="st18" d="M1126.7,248.2c0,10.6-4.9,15.9-14.8,15.9c-6.7,0-12.1-4.1-16.1-12.2L1020.2,98c-0.9-1.7-2-2.6-3.5-2.6
	c-2.4,0-3.5,1.5-3.5,4.6v163.4h-11.4V101.2c0-10.6,4.9-15.9,14.8-15.9c6.8,0,12.1,4,16,12.1l75.8,153.7c0.9,1.7,2,2.6,3.4,2.6
	c2.4,0,3.5-1.4,3.5-4.3V86.8h11.4V248.2z"/>
<path class="st18" d="M1313.1,175c0,29.6-8.1,51.9-24.4,67c-17.7,16.4-38.6,24.5-62.7,24.5c-26.7,0-48.9-8.9-66.5-26.6
	c-14-14.1-20.9-35.7-20.9-64.9c0-29.1,7.1-50.7,21.2-64.9c17.5-17.5,39.5-26.3,66.2-26.3c26.4,0,48.5,8.9,66.1,26.6
	C1306.1,124.6,1313.1,146.1,1313.1,175z M1301,174.8c0-26.2-5.7-45.3-17.1-57.1c-15.2-15.8-34.5-23.7-57.9-23.7
	c-23.6,0-43,7.9-58.2,23.6c-11.5,11.8-17.2,30.9-17.2,57.2c0,26.3,5.7,45.4,17.2,57.4c15.2,15.9,34.6,23.8,58.2,23.8
	c23.4,0,42.7-8,57.9-23.9C1295.3,220.1,1301,201,1301,174.8L1301,174.8z"/>
<path class="st18" d="M1440.4,217.9c0,15.8-5.9,27.6-17.7,35.5c-10.3,6.9-23.9,10.2-41,10h-10.7c-29,0-43.5-15.3-43.5-46v-7h10v7
	c0,23.6,11.5,35.4,34.4,35.4h4.1c12.3,0,22.9-1.7,31.6-5.1c13.4-5.2,20.2-14.9,20.2-29c0-10.7-4.7-19.4-14-26.1
	c-5-3.5-14.7-8.1-29.1-13.7l-11.8-4.5c-16.6-6.4-27.8-11.9-33.5-16.5c-9.6-7.6-14.4-18.1-14.4-31.4c0-26.5,19.4-39.7,58.2-39.7h13.2
	c28.9,0,43.4,15.2,43.4,45.5v7h-10v-7c0-23.9-11.5-35.8-34.6-35.8h-15.3c-29,0-43.5,9.8-43.5,29.3c0,10.1,3.8,18.1,11.5,24
	c4.7,3.6,13.4,7.8,26,12.6l18.2,6.9c16.2,6.2,26.7,11.2,31.5,15C1434.8,193.5,1440.4,204.7,1440.4,217.9z"/>
<path class="st18" d="M1536.4,207.3h-84v-10.1h84V207.3z"/>
<path class="st18" d="M1670,201c0,19.2-5,34.6-15.1,46.4c-10.9,12.7-26.1,19.1-45.6,19.1c-19.9,0-35.2-6.3-46-18.9
	c-10-11.6-15-27.1-15-46.6V86.8h11.4v109.9c0,39.5,16.5,59.2,49.6,59.2c32.9,0,49.3-19.7,49.3-59.2V86.8h11.4L1670,201z"/>
<path class="st18" d="M1798.9,263.5h-11.4v-87.8h-98.9v87.8h-11.4V149.2c0-19.3,5-34.8,15.1-46.5c10.8-12.6,26.1-18.9,45.8-18.9
	c19.4,0,34.6,6.4,45.5,19.1c10.2,11.8,15.3,27.2,15.3,46.3V263.5z M1787.5,165.9v-12.8c0-39.4-16.4-59.1-49.3-59.1
	c-33,0-49.6,19.7-49.6,59.1v12.8H1787.5z"/>
<path class="st19" d="M1890.1,183.9l-4.5,3.4c-8-8-17.8-12.1-29.4-12.1c-12.6,0-22.7,4-30.5,12.1c-7.6,7.8-11.4,17.8-11.4,30
	c0,12.2,3.8,22.3,11.3,30.1c7.8,8.1,18,12.1,30.6,12.1c11.4,0,21.2-4.2,29.4-12.5l3.2,5.3c-8.8,8.3-20.5,12.9-32.6,12.8
	c-14.4,0-26.1-4.5-35-13.5c-8.8-8.9-13.2-20.2-13.2-34.2c0-13.8,4.5-25.1,13.4-34.1c8.9-8.9,20.5-13.4,34.8-13.4
	C1868.9,169.8,1881.1,174.8,1890.1,183.9z"/>
<path class="st18" d="M1826.2,80.6c0,5.4-1.5,9.4-4.4,12.1c-6.7,6.1-16.9,5.9-23.4-0.4c-2.5-2.5-3.8-6.5-3.8-11.7
	c0-5.3,1.3-9.2,3.8-11.7c6.7-6.4,17.3-6.3,24,0.1C1825,71.5,1826.2,75.4,1826.2,80.6z M1824,80.6c0-4.7-1-8.2-3.1-10.3
	c-5.8-5.7-15.2-5.7-21,0c-2.1,2.1-3.1,5.6-3.1,10.4c0,4.8,1,8.2,3.1,10.4c5.8,5.8,15.2,5.7,21,0C1823,88.8,1824,85.3,1824,80.6z
	 M1815.7,90.3l-3.1-8c-0.8,0.2-1.6,0.3-2.4,0.3h-3.8v7.8h-1.7V73c0-1.7,0.9-2.5,2.7-2.5h3.7c1.7-0.1,3.3,0.5,4.6,1.7
	c1.2,1.1,1.8,2.7,1.7,4.4c0.1,2.2-1.2,4.3-3.2,5.3l3.3,8.6L1815.7,90.3z M1811,72h-3.8c-0.6,0.1-0.9,0.4-0.9,0.9V81h4.2
	c3.4,0,5-1.5,5-4.5c0.1-1.2-0.4-2.4-1.2-3.3C1813.5,72.4,1812.3,71.9,1811,72z"/>
<a xlink:href="okeanos.uac.pt" >
	<rect class="st20" width="1952.1" height="469.9"/>
</a>
</svg>
