<svg id="Layer_1" data-name="Layer 1" xmlns="http://www.w3.org/2000/svg" xmlns:xlink="http://www.w3.org/1999/xlink" viewBox="0 0 1952.07177 469.90112"><defs><style>.cls-1{fill:url(#linear-gradient);}.cls-2{fill:url(#linear-gradient-2);}.cls-3{fill:url(#linear-gradient-3);}.cls-4{fill:url(#linear-gradient-4);}.cls-5{fill:url(#linear-gradient-5);}.cls-6{fill:url(#linear-gradient-6);}.cls-7{fill:url(#linear-gradient-7);}.cls-8{fill:url(#linear-gradient-8);}.cls-9{fill:url(#linear-gradient-9);}.cls-10{fill:#2875a5;}.cls-11{fill:url(#linear-gradient-10);}.cls-12{fill:url(#linear-gradient-11);}.cls-13{fill:url(#linear-gradient-12);}.cls-14{fill:url(#linear-gradient-13);}.cls-15{fill:url(#linear-gradient-14);}.cls-16{fill:url(#linear-gradient-15);}.cls-17{fill:url(#linear-gradient-16);}.cls-18{fill:url(#linear-gradient-17);}.cls-19,.cls-20{fill:#026085;}.cls-20{stroke:#026085;stroke-miterlimit:10;stroke-width:3px;}</style><linearGradient id="linear-gradient" x1="122750.10175" y1="130227.53396" x2="126861.03069" y2="123460.89198" gradientTransform="matrix(0.036, 0.0148, -0.008, 0.0194, -3234.98365, -4076.20348)" gradientUnits="userSpaceOnUse"><stop offset="0" stop-color="#0b9ba1"/><stop offset="1" stop-color="#1c75ae"/></linearGradient><linearGradient id="linear-gradient-2" x1="534541.98643" y1="132291.67924" x2="536294.27987" y2="126175.17488" gradientTransform="matrix(0.0086, 0.0035, -0.0079, 0.0192, -3259.35043, -4162.48177)" xlink:href="#linear-gradient"/><linearGradient id="linear-gradient-3" x1="160904.93761" y1="41183.51976" x2="159377.80396" y2="39656.3861" gradientTransform="matrix(0.0283, 0.0117, -0.0238, 0.0578, -3273.04617, -3942.58949)" gradientUnits="userSpaceOnUse"><stop offset="0" stop-color="#0ac4d6"/><stop offset="1" stop-color="#0994c6"/></linearGradient><linearGradient id="linear-gradient-4" x1="9704.69618" y1="-3936.30129" x2="9703.63918" y2="-3937.35829" gradientTransform="matrix(0.0029, 0.0012, -0.0033, 0.0081, -3263.35733, -4210.84072)" xlink:href="#linear-gradient-3"/><linearGradient id="linear-gradient-5" x1="150040.71414" y1="57123.60686" x2="149773.3534" y2="60577.98319" gradientTransform="matrix(0.03, 0.0124, -0.0165, 0.0401, -3251.05491, -4035.6369)" gradientUnits="userSpaceOnUse"><stop offset="0" stop-color="#054877"/><stop offset="1" stop-color="#063259"/></linearGradient><linearGradient id="linear-gradient-6" x1="182922.63637" y1="68423.60024" x2="180465.67996" y2="70862.74136" gradientTransform="matrix(0.025, 0.0103, -0.0142, 0.0346, -3256.67663, -4044.89139)" gradientUnits="userSpaceOnUse"><stop offset="0" stop-color="#032d55"/><stop offset="1" stop-color="#041434"/></linearGradient><linearGradient id="linear-gradient-7" x1="224358.12557" y1="77126.29894" x2="227822.26895" y2="77126.29894" gradientTransform="matrix(0.0202, 0.0083, -0.013, 0.0315, -3254.52399, -4054.65813)" gradientUnits="userSpaceOnUse"><stop offset="0" stop-color="#032d55"/><stop offset="1" stop-color="#063259"/></linearGradient><linearGradient id="linear-gradient-8" x1="517068.88925" y1="116095.89368" x2="515024.83768" y2="114051.84211" gradientTransform="matrix(0.0088, 0.0036, -0.0089, 0.0215, -3345.15994, -4142.46015)" xlink:href="#linear-gradient-3"/><linearGradient id="linear-gradient-9" x1="209950.00237" y1="97993.96296" x2="207541.42638" y2="95585.38697" gradientTransform="matrix(0.0216, 0.0089, -0.0104, 0.0252, -3281.39295, -4097.66863)" xlink:href="#linear-gradient-3"/><linearGradient id="linear-gradient-10" x1="258199.30698" y1="271984.77963" x2="262433.00199" y2="257504.75069" gradientTransform="matrix(0.0175, 0.0072, -0.0039, 0.0095, -3252.17996, -4143.16403)" xlink:href="#linear-gradient"/><linearGradient id="linear-gradient-11" x1="336.00803" y1="399.77105" x2="709.78889" y2="295.21387" gradientUnits="userSpaceOnUse"><stop offset="0" stop-color="#024c74"/><stop offset="1" stop-color="#023c6b"/></linearGradient><linearGradient id="linear-gradient-12" x1="51443.82491" y1="45672.67398" x2="52758.02233" y2="42468.81339" gradientTransform="translate(-3114.5145 -3869.45792) scale(0.063 0.0918)" gradientUnits="userSpaceOnUse"><stop offset="0.53023" stop-color="#025e83"/><stop offset="1" stop-color="#054877"/></linearGradient><linearGradient id="linear-gradient-13" x1="77508.05989" y1="275055.47036" x2="80656.02998" y2="273606.18915" gradientTransform="translate(-3171.33705 -4223.27574) scale(0.0427 0.0157)" gradientUnits="userSpaceOnUse"><stop offset="0" stop-color="#054877"/><stop offset="1" stop-color="#032d55"/></linearGradient><linearGradient id="linear-gradient-14" x1="152713.65523" y1="51284.81885" x2="153798.48787" y2="49318.20785" gradientTransform="translate(-3305.16215 -3902.13938) scale(0.0221 0.0823)" gradientUnits="userSpaceOnUse"><stop offset="0" stop-color="#063259"/><stop offset="1" stop-color="#032d55"/></linearGradient><linearGradient id="linear-gradient-15" x1="69341.16448" y1="143186.49327" x2="72807.39321" y2="143186.49327" gradientTransform="translate(-3187.65135 -4021.89152) scale(0.0469 0.0308)" gradientUnits="userSpaceOnUse"><stop offset="0" stop-color="#041434"/><stop offset="1" stop-color="#00102a"/></linearGradient><linearGradient id="linear-gradient-16" x1="56900.8132" y1="-164600.23534" x2="60364.38073" y2="-164600.23534" gradientTransform="matrix(-0.0175, 0.043, -0.0288, -0.0117, -3489.7915, -4022.12731)" gradientUnits="userSpaceOnUse"><stop offset="0" stop-color="#016c8e"/><stop offset="1" stop-color="#016087"/></linearGradient><linearGradient id="linear-gradient-17" x1="100551.08794" y1="378634.9876" x2="103417.42066" y2="376690.65308" gradientTransform="translate(-3086.1559 -4118.90445) scale(0.0346 0.0118)" xlink:href="#linear-gradient-11"/></defs><title>okeanos_logo_color_horizontal</title><path class="cls-1" d="M144.56963,199.68422a1.60266,1.60266,0,0,1-.4228.8456,61.73059,61.73059,0,0,0-4.43938,34.88089c1.26839,9.09018,5.49638,21.13994,12.89536,36.3607,10.99277,13.52956,26.00212,22.19693,45.23947,26.84772a32.51593,32.51593,0,0,1,19.66014,8.456,238.721,238.721,0,0,0,27.48192-12.26117,76.11675,76.11675,0,0,0,8.24458-4.228c-16.70056-10.14717-28.53892-21.77413-35.0923-33.8239a114.78651,114.78651,0,0,1-19.44875-6.13058,99.04021,99.04021,0,0,1-25.79072-14.798c.2114,11.20417,3.38239,23.04254,9.09017,35.7265-11.627-17.12335-18.60314-32.55551-20.29434-46.29647A102.17889,102.17889,0,0,1,144.56963,199.68422Z"/><path class="cls-2" d="M357.23741,169.45411c2.5368-5.91919,4.65079-11.627,6.76478-17.54615-5.70778-10.57-13.31816-20.083-22.40833-29.17312,1.90259,9.93577,2.32539,17.96895,1.47979,24.09953a49.48648,49.48648,0,0,1-1.90259,6.97618,98.71271,98.71271,0,0,1-4.43939,31.07571c1.9026,5.07359,3.80519,10.57,5.49639,16.06635A310.17833,310.17833,0,0,0,357.23741,169.45411Z"/><path class="cls-3" d="M364.00219,151.908c-2.114,5.91918-4.228,11.627-6.76478,17.54615a310.17833,310.17833,0,0,1-15.00935,31.4985c4.86218,17.33475,6.97618,35.7265,6.97618,55.38664-10.57-11.20416-18.39175-14.58655-23.67673-9.72437q-39.32029,67.225-70.396,45.02807c-.6342-.4228-1.2684-.6342-1.90259-1.057a76.11675,76.11675,0,0,1-8.24458,4.228,238.721,238.721,0,0,1-27.48192,12.26117,30.426,30.426,0,0,1,6.13058,6.55338c2.95959,23.04253,21.56274,27.69332,56.02084,14.16376,44.39387-15.43216,75.46958-57.92344,92.38153-127.26243,3.59379-13.95236,1.2684-28.96172-6.342-44.81667C365.05919,154.23335,364.425,153.17635,364.00219,151.908Z"/><path class="cls-4" d="M341.17106,153.81055a50.44222,50.44222,0,0,1-10.57,17.33475c2.32539,4.43939,4.228,9.09017,6.13058,13.741A98.71271,98.71271,0,0,0,341.17106,153.81055Z"/><path class="cls-5" d="M240.75635,257.39625c.8456.4228,1.50363.69324,2.74819,1.2684a104.21913,104.21913,0,0,0,33.82391-8.24458c26.42492-10.99277,45.02806-29.59591,55.80943-56.02084,1.2684-3.171,2.5368-6.342,3.59379-9.513-1.90259-4.65079-3.80519-9.30157-6.13058-13.741a279.84093,279.84093,0,0,0-15.85495-28.32752A124.40567,124.40567,0,0,0,291.915,118.08405c-17.75755-12.89536-33.8239-13.95235-47.77626-2.95959l10.57,8.03318a133.795,133.795,0,0,1,20.08294,21.13994c17.33475,23.46533,18.60315,45.23947,3.59379,65.111-16.48915,21.77414-28.96171,31.07571-37.62909,27.48192-8.66737-3.38239-13.95236-20.08294-15.855-49.67886-9.09018,31.49851-4.01659,54.75244,15.00935,69.5504"/><path class="cls-6" d="M333.13788,194.39923c-10.78137,26.42493-29.38451,45.02807-55.80943,56.02084a104.21913,104.21913,0,0,1-33.82391,8.24458c18.39175,7.82177,35.7265,5.70778,52.00425-6.55338-8.456,11.41556-19.02594,17.75754-31.28711,19.23734-13.741,1.69119-27.90472-2.95959-41.64568-13.95236a32.0701,32.0701,0,0,1-4.43938-.6342c6.55338,12.04977,18.39174,23.67673,35.0923,33.8239q56.12654-31.70991,88.99914-89.63334c-1.6912-5.49638-3.59379-10.99276-5.49639-16.06635C335.67468,188.05725,334.40628,191.22824,333.13788,194.39923Z"/><path class="cls-7" d="M325.52751,246.61488c5.285-4.86218,13.10676-1.47979,23.67673,9.72437,0-19.66014-2.114-38.05189-6.97618-55.38664q-32.97831,58.02914-88.99914,89.63334c.63419.4228,1.26839.6342,1.90259,1.057Q286.20722,313.83989,325.52751,246.61488Z"/><path class="cls-8" d="M161.693,210.46559c3.59379-24.73373,16.27775-43.75968,37.62909-56.86644-24.73373,5.285-42.91407,20.71714-54.75244,46.08507A102.17889,102.17889,0,0,0,161.693,225.26354,57.759,57.759,0,0,1,161.693,210.46559Z"/><path class="cls-9" d="M222.576,165.43752c-13.31816,1.90259-25.57932,11.20416-36.99489,27.90472q-13.31816,19.97724-12.684,42.49127a99.04021,99.04021,0,0,0,25.79072,14.798,114.78651,114.78651,0,0,0,19.44875,6.13058c-.8456-1.90259-1.6912-3.59379-2.74819-5.49638a86.033,86.033,0,0,0,7.18757,6.13058,99.48288,99.48288,0,0,0,20.92854,1.2684,23.3057,23.3057,0,0,1-2.64564-1.36272c-.38115-.20476-.76629-.4194-.94809-.53985a56.13385,56.13385,0,0,1-21.98559-7.18761c-16.91195-9.93577-22.83114-24.73373-18.18035-44.81667,3.80519-15.855,13.10676-25.57932,27.48192-28.96171,13.741-3.38239,29.80731-.8456,48.41046,7.399C254.49731,169.24271,236.95116,163.32352,222.576,165.43752Z"/><path class="cls-10" d="M215.38843,251.26567c1.057,1.90259,1.90259,3.59379,2.74819,5.49638a32.0701,32.0701,0,0,0,4.43938.6342A86.033,86.033,0,0,1,215.38843,251.26567Z"/><path class="cls-11" d="M243.50454,258.66465a99.48288,99.48288,0,0,1-20.92854-1.2684c13.741,10.99277,27.90472,15.64355,41.64568,13.95236,12.26117-1.4798,22.83114-7.82178,31.28711-19.23734C279.231,264.37243,261.89629,266.48642,243.50454,258.66465Z"/><path class="cls-12" d="M679.41008,309.1891a181.30634,181.30634,0,0,1,34.6695,2.32539,269.12775,269.12775,0,0,0-34.6695-5.49638q-94.49553-8.87877-204.42321,38.68609c-36.14929,13.741-67.8592,24.31093-94.91832,32.1327a2.54743,2.54743,0,0,0-1.057,1.057c-4.43939,5.49638-8.87877,10.57-13.52956,15.43215-12.47256,12.684-25.57933,23.04254-39.53169,30.86431a404.68513,404.68513,0,0,0,71.87579-30.86431c1.6912-.84559,2.9596-1.69119,4.65079-2.53679Q576.88137,309.6119,679.41008,309.1891Z"/><path class="cls-13" d="M229.34078,61.00622c20.92854,0,39.53169,5.49638,56.02084,16.27775h5.07359C254.07451,43.24867,210.949,33.5243,160.84738,48.95646A154.4156,154.4156,0,0,0,118.77891,69.0394C87.7032,111.10788,72.271,161.42093,72.271,219.55576c0,50.94725,12.04977,95.55252,35.9379,134.45A168.51034,168.51034,0,0,0,153.6598,359.925a177.689,177.689,0,0,0,33.61251-3.38239c-10.57-11.83836-22.19694-19.66014-34.8809-24.09953Q79.45862,279.17038,79.03582,221.88115c-.4228-42.70267,18.60315-77.795,57.28924-105.91109.42279-.2114.84559-.2114,1.057-.4228A97.99557,97.99557,0,0,1,155.5624,91.65913C176.06814,71.15339,200.59047,61.00622,229.34078,61.00622Z"/><path class="cls-14" d="M285.36162,77.284c-16.48915-10.78137-35.0923-16.27775-56.02084-16.27775-28.75031,0-53.27264,10.14717-73.77838,30.65291a97.99557,97.99557,0,0,0-18.18035,23.88813C176.27954,87.85394,225.747,75.17,285.36162,77.284Z"/><path class="cls-15" d="M72.271,219.55576c0-58.13483,15.43216-108.44788,46.50787-150.51636-18.81455,12.89536-34.6695,30.65291-47.98766,52.63844A202.287,202.287,0,0,0,42.25233,232.02832c.6342,39.53169,8.24457,73.77839,22.19693,102.9515a159.96006,159.96006,0,0,0,43.75968,19.02595C84.32081,315.10828,72.271,270.503,72.271,219.55576Z"/><path class="cls-16" d="M98.27317,383.39028c3.59379,3.38239,7.18757,6.76478,10.57,9.93577,33.18971,29.59592,72.72139,45.66227,118.17226,48.19906q-49.46745-7.92747-88.15354-48.19906a161.23,161.23,0,0,1-13.95236-15.43215,221.14586,221.14586,0,0,1-16.70055-23.88813,159.96006,159.96006,0,0,1-43.75968-19.02595A189.72119,189.72119,0,0,0,98.27317,383.39028Z"/><path class="cls-17" d="M108.20894,354.00577a221.14586,221.14586,0,0,0,16.70055,23.88813,161.23,161.23,0,0,0,13.95236,15.43215q38.68608,40.2716,88.15354,48.19906c2.53679,0,5.49639,0,8.24458.2114a397.99887,397.99887,0,0,0,90.69033-17.54615c13.95236-7.82177,27.05913-18.18034,39.53169-30.86431,4.65079-4.86218,9.09017-9.93577,13.52956-15.43215a2.54743,2.54743,0,0,1,1.057-1.057c-48.62186,13.52956-83.29136,17.75755-103.5857,12.26117,34.4581-2.114,72.72139-11.20417,114.78986-27.90472a246.55508,246.55508,0,0,0,15.64356-27.27052c-29.59592,5.07358-57.92343,11.20416-85.40535,18.39174-16.70055,3.80519-34.2467,10.78137-52.84985,20.92854-14.798,8.24458-29.17311,11.627-43.54827,10.57-12.684-.6342-21.35134-4.43938-25.79073-11.20417a176.54573,176.54573,0,0,0-12.04976-16.06635A177.689,177.689,0,0,1,153.6598,359.925,168.51034,168.51034,0,0,1,108.20894,354.00577Z"/><path class="cls-18" d="M454.05833,335.40262c21.56274-7.82177,40.37728-12.684,56.86644-14.798-35.9379,2.95959-70.6074,7.61037-104.0085,13.31816a246.55508,246.55508,0,0,1-15.64356,27.27052,88.212,88.212,0,0,0,9.30158-4.01659C431.2272,344.4928,448.98475,337.30522,454.05833,335.40262Z"/><path class="cls-19" d="M618.76553,175.01254q0,44.40607-24.3934,66.97925Q567.796,266.53935,531.718,266.53845q-40.05714,0-66.50515-26.64382-20.9286-21.09263-20.92771-64.88209,0-43.66534,21.184-64.8812Q491.66089,83.85765,531.718,83.85766q39.67268,0,66.12068,26.64382Q618.76329,131.59411,618.76553,175.01254Zm-12.06854-.24646q0-39.346-17.07574-57.11094Q566.76755,93.972,531.718,93.97243q-35.43532,0-58.16041,23.55993-17.20614,17.76135-17.20391,57.23372,0,39.4737,17.20391,57.3574,22.851,23.80817,58.16041,23.80638,35.05086,0,57.90321-23.92917Q606.69565,214.117,606.697,174.76608Z"/><path class="cls-19" d="M752.96871,263.304l-14.673.02689L662.641,168.057,642.13277,186.8391v76.49177H630.70592V86.57142h11.42685v84.86429L733.28854,87.188H750.324l-79.21,73.03683Z"/><path class="cls-19" d="M856.15629,263.45455h-68.303a23.70168,23.70168,0,0,1-16.30589-5.92045,19.227,19.227,0,0,1-6.676-15.04938v-134.697h.12816q0-9.6214,6.35512-15.29585,6.356-5.67174,16.49858-5.674h68.303V96.93266h-69.443q-10.41724,1.48011-10.415,10.73138v62.41479h68.68746v9.74464H776.2983v62.7679q0,9.26784,10.415,10.7484h69.443Z"/><path class="cls-19" d="M989.8056,263.45455h-11.426V175.63H879.51993v87.82451H868.09309V149.23267q0-28.98521,15.14976-46.50234,16.17773-18.87312,45.83465-18.87267,29.14384,0,45.45018,19.11913,15.277,17.64036,15.27792,46.25588Zm-11.426-97.56915V153.05686q0-59.08353-49.30215-59.08443-49.56025,0-49.55757,59.08443V165.8854Z"/><path class="cls-19" d="M1126.667,248.1596q0,15.91155-14.80471,15.91155-10.04487,0-16.09348-12.1725L1020.22252,98.04846q-1.30669-2.59591-3.52484-2.59636-3.52753,0-3.52664,4.56447v163.438h-11.42685V101.24977q0-15.91155,14.76438-15.91245,10.14167,0,16.04868,12.08826l75.75148,153.69425q1.30669,2.59053,3.40028,2.59008,3.53022,0,3.53112-4.3171V86.81788H1126.667Z"/><path class="cls-19" d="M1313.08323,175.01254q0,44.40607-24.39341,66.97925-26.57616,24.54756-62.65408,24.54666-40.05716,0-66.50515-26.64382-20.92862-21.09263-20.92771-64.88209,0-43.66534,21.184-64.8812,26.19168-26.27368,66.24883-26.27368,39.67267,0,66.12067,26.64382Q1313.081,131.59411,1313.08323,175.01254Zm-12.06854-.24646q0-39.346-17.07575-57.11094-22.8537-23.68315-57.9032-23.68271-35.43533,0-58.16041,23.55993-17.20616,17.76135-17.20391,57.23372,0,39.4737,17.20391,57.3574,22.851,23.80817,58.16041,23.80638,35.05084,0,57.9032-23.92917Q1301.01335,214.117,1301.01469,174.76608Z"/><path class="cls-19" d="M1440.44554,217.939q0,23.68316-17.71834,35.5245-15.40608,10.3608-40.95562,9.9911h-10.65609q-43.52419,0-43.5242-46.00942v-7.03087h10.0144v7.03087q0,35.40306,34.40871,35.40172h4.10829q18.48729,0,31.58381-5.06366,20.15427-7.77967,20.157-29.0233,0-16.05405-13.98288-26.05769-7.4409-5.31147-29.12009-13.70953l-11.8418-4.4865q-24.91188-9.61872-33.51338-16.52725-14.38439-11.46854-14.3817-31.44848,0-39.71031,58.16042-39.71256h13.22378q43.39513,0,43.39513,45.5156v7.03177h-10.0135V132.3532q0-35.79022-34.58526-35.79068h-15.29853q-43.457,0-43.45519,29.3074,0,15.148,11.46628,24.01251,7.08332,5.41767,26.02275,12.56058l18.23187,6.89554q24.26524,9.25171,31.45475,15.04848Q1440.44509,198.07909,1440.44554,217.939Z"/><path class="cls-19" d="M1536.3504,207.33035h-83.96627V197.21558h83.96627Z"/><path class="cls-19" d="M1670.0024,201.03976q0,28.74189-15.14976,46.37956-16.30679,19.12049-45.57834,19.11913-29.78643,0-45.96281-18.87267-15.0216-17.39166-15.0216-46.626V86.81788h11.42685V196.72265q0,59.20721,49.55756,59.20721,49.30215,0,49.30215-59.20721V86.81788h11.426Z"/><path class="cls-19" d="M1798.90621,263.45455h-11.426V175.63h-98.85972v87.82451H1677.1937V149.23267q0-28.98521,15.14976-46.50234,16.17773-18.87312,45.83465-18.87267,29.14384,0,45.45018,19.11913,15.277,17.64036,15.27792,46.25588Zm-11.426-97.56915V153.05686q0-59.08353-49.30215-59.08443-49.56026,0-49.55757,59.08443V165.8854Z"/><path class="cls-20" d="M1890.07184,183.91562l-4.54385,3.40207q-11.96189-12.0681-29.40061-12.06855-18.84219,0-30.53612,12.06855-11.35963,11.685-11.35963,29.97956,0,18.36093,11.29241,30.10863,11.62716,12.13262,30.60334,12.13307,17.03945,0,29.40061-12.51845l3.20758,5.26352a46.47622,46.47622,0,0,1-32.60819,12.77567q-21.58329,0-35.01276-13.48189-13.16507-13.28741-13.16372-34.15239,0-20.66914,13.36358-34.05559,13.364-13.38555,34.8129-13.3851A46.55632,46.55632,0,0,1,1890.07184,183.91562Z"/><path class="cls-19" d="M1826.22937,80.60526q0,8.03913-4.41569,12.125a17.07084,17.07084,0,0,1-23.38068-.38q-3.78832-3.8179-3.78833-11.745,0-7.90469,3.83494-11.745a17.37846,17.37846,0,0,1,23.96142.06721Q1826.22937,72.74539,1826.22937,80.60526Zm-2.1841-.04481q0-7.12229-3.09107-10.33793a15.04239,15.04239,0,0,0-21.01106-.02241q-3.11347,3.21565-3.11438,10.36034,0,7.1465,3.11438,10.38365a14.93319,14.93319,0,0,0,21.01106-.02241Q1824.04483,87.68453,1824.04527,80.56045Zm-8.386,9.7787-3.12961-8.01045a10.383,10.383,0,0,1-2.43593.26439h-3.80537v7.77025h-1.71985V72.96586q0-2.52063,2.74244-2.49778h3.71843a6.43078,6.43078,0,0,1,4.55551,1.67415,5.72261,5.72261,0,0,1,1.74315,4.35475,5.61147,5.61147,0,0,1-3.23088,5.26979l3.32409,8.57417ZM1811.042,72.00869h-3.8215q-.93162.13443-.93207.93745v8.08393h4.24093q5.03184,0,5.03229-4.51069a4.46523,4.46523,0,0,0-1.22334-3.26046A4.40083,4.40083,0,0,0,1811.042,72.00869Z"/></svg>