<svg id="Layer_1" data-name="Layer 1" xmlns="http://www.w3.org/2000/svg" viewBox="0 0 440.12 151.54"><defs><style>.cls-1{isolation:isolate;}</style></defs><title>okeanos_dark</title><path d="M17,78.23a45,45,0,0,1,9.51-28.74,33.72,33.72,0,0,1,19-12.3,32.77,32.77,0,0,1,7.17-1.06A26.17,26.17,0,0,1,66.2,39.41a31.45,31.45,0,0,1,5.88,4.23,1.39,1.39,0,0,1,.31.45.35.35,0,0,1-.12.3,4.7,4.7,0,0,1-.92.09c-2.29-.11-4.59,0-6.88,0a48.28,48.28,0,0,0-5.37.5,50.72,50.72,0,0,0-8.52,1.92,45.52,45.52,0,0,0-12,5.88,34.12,34.12,0,0,0-7.35,6.79,25.66,25.66,0,0,0-5.5,13.22A22.48,22.48,0,0,0,28.9,87.61a36.51,36.51,0,0,0,3.88,5.21,57,57,0,0,0,8.29,7.46,6.36,6.36,0,0,0,1.46.82,19.19,19.19,0,0,1,8,6.22c.57.73,1.12,1.49,1.63,2.26A5.68,5.68,0,0,0,56,112a15.46,15.46,0,0,0,8.94-.89,29.59,29.59,0,0,0,3-1.45A47.11,47.11,0,0,1,77,105.85c2.14-.62,4.31-1.12,6.48-1.65,3.85-1,7.73-1.76,11.63-2.49,2.55-.48,5.13-.87,7.7-1.27l6.44-1c1.47-.2,3-.34,4.43-.5,1.79-.2,3.58-.41,5.36-.59.62-.07,1.24-.07,1.86-.09a.16.16,0,0,1,.13.07c0,.07-.14.21-.24.25a3,3,0,0,1-.71.21,57.16,57.16,0,0,0-9.87,2.6c-2.81,1-5.53,2.18-8.3,3.27-3,1.18-5.92,2.54-8.94,3.68a96.51,96.51,0,0,1-14.24,4.2,56.28,56.28,0,0,1-6.06,1,.16.16,0,0,0-.14.1c0,.1,0,.18.15.2a27.64,27.64,0,0,0,5.38-.13A104.1,104.1,0,0,0,96,109.6q8.34-2.58,16.5-5.71c1.68-.64,3.34-1.33,5-2a107.66,107.66,0,0,1,15.76-5,87.23,87.23,0,0,1,9.88-1.72,88.44,88.44,0,0,1,8.91-.58,61.73,61.73,0,0,1,8.91.58c1.16.17,2.33.31,3.5.49a5.31,5.31,0,0,1,1.75.49c.12.06.12.1,0,.14s-.11.09-.16.08a19.54,19.54,0,0,1-2.42-.16,38,38,0,0,0-7.61-.07c-.56,0-1.12.12-1.68.12a38,38,0,0,0-5,.51c-3.43.49-6.84,1.17-10.21,2-5.48,1.35-10.86,3-16.18,4.88-8.49,3-16.75,6.51-24.91,10.26a17.9,17.9,0,0,0-1.81,1,90.23,90.23,0,0,1-17.66,7.32,85.94,85.94,0,0,1-11.23,2.51c-2.21.34-4.42.63-6.65.78H60a42.52,42.52,0,0,1-19.49-4.8,43.73,43.73,0,0,1-8.12-5.56,41.47,41.47,0,0,1-10.15-13,45.31,45.31,0,0,1-3.54-9.77,55.26,55.26,0,0,1-1.58-11.22C17.06,80.16,17,79.11,17,78.23Z"/><path d="M46.41,84.24a3.25,3.25,0,0,0,0-1.64,15.49,15.49,0,0,1-.34-4.24A15,15,0,0,1,47.75,72a19.23,19.23,0,0,1,3.83-5.21,14.32,14.32,0,0,1,1.85-1.53,9.32,9.32,0,0,1,7.43-1.42,16.34,16.34,0,0,1,3.35,1.07,31.46,31.46,0,0,1,4.25,2.26c.2.13.42.27.45.55h0a1.3,1.3,0,0,1-1.07-.13A19.15,19.15,0,0,0,64,66.34a13.25,13.25,0,0,0-6.07.17,7.14,7.14,0,0,0-4.6,3.78,10.91,10.91,0,0,0-1.16,5.94,7.21,7.21,0,0,0,2.45,4.86,11,11,0,0,0,4.89,2.54.5.5,0,0,0,.34-.09.25.25,0,0,0,0-.17c-.22-.3-.43-.6-.67-.88a11.67,11.67,0,0,1-2.48-6.87,19.46,19.46,0,0,1,.52-5.16c.1-.49.24-1,.36-1.44.06-.2.32-.45.37-.37a.61.61,0,0,1,.14.29,37.72,37.72,0,0,0,.77,5.7,19.24,19.24,0,0,0,.73,2.49,6.28,6.28,0,0,0,.78,1.47,2.33,2.33,0,0,0,3.11.82,6.36,6.36,0,0,0,1.87-1.2,23.59,23.59,0,0,0,2-2c.86-1,1.67-2,2.46-3a10.59,10.59,0,0,0,1.74-3.47,9.46,9.46,0,0,0-.16-5.67,15.45,15.45,0,0,0-2-4,26.24,26.24,0,0,0-5.58-5.94c-.44-.34-.9-.66-1.32-1-.64-.54-.58-.61.1-1.07a7.42,7.42,0,0,1,6.92-.79,12.21,12.21,0,0,1,4,2.34,25.3,25.3,0,0,1,5.27,6.21c.72,1.23,1.39,2.49,2.09,3.73a5.64,5.64,0,0,0,.5.77s.23,0,.33,0A.7.7,0,0,0,82,64.1,9.57,9.57,0,0,0,84,57c-.09-.73-.15-1.48-.21-2.22A1,1,0,0,1,84,54.1h0c.23.29.44.59.69.87a40.64,40.64,0,0,1,3.51,4.56A18.32,18.32,0,0,1,91,66.86a10.54,10.54,0,0,1,0,3.88,57,57,0,0,1-6.22,16.65A31,31,0,0,1,78,95.68a24.29,24.29,0,0,1-6.64,4,35.92,35.92,0,0,1-4.75,1.62,12.89,12.89,0,0,1-3.85.54,9.14,9.14,0,0,1-1.28-.16,4.63,4.63,0,0,1-3.76-3.45,1.45,1.45,0,0,1-.12-.35A3.68,3.68,0,0,0,56,95.49a7.57,7.57,0,0,0-3.65-1.74,17.16,17.16,0,0,1-13.18-12,17.88,17.88,0,0,1-.68-3.84,12.77,12.77,0,0,1,.87-5.47,19.12,19.12,0,0,1,6.36-8.54,16,16,0,0,1,6.21-2.81.78.78,0,0,1,.36.06c-.06.11-.09.25-.18.31-.5.38-1,.72-1.5,1.1a16.47,16.47,0,0,0-3.74,3.85A17,17,0,0,0,44,74a13,13,0,0,0,.5,5.51A25.13,25.13,0,0,0,46,83.13c.19.39.36.78.53,1.17-.06-.16,0-.19.08-.09Z"/><g class="cls-1"><path d="M139.54,67.26q0,9.31-4.87,14a18.14,18.14,0,0,1-25.76-.44q-4.18-4.43-4.18-13.61T109,53.65a18.47,18.47,0,0,1,26.4.08Q139.55,58.16,139.54,67.26Zm-2.41-.05q0-8.25-3.4-12a16,16,0,0,0-23.16,0q-3.43,3.72-3.43,12t3.43,12a15.9,15.9,0,0,0,23.16,0Q137.14,75.46,137.13,67.21Z"/><path d="M168.82,85.78H165.9l-15.09-20-4.1,3.94v16h-2.27V48.71h2.27v17.8L164.9,48.84h3.4L152.5,64.16Z"/><path d="M191.92,85.81H178.3a4.56,4.56,0,0,1-3.25-1.24,4.13,4.13,0,0,1-1.34-3.16V53.16h0A4.16,4.16,0,0,1,175,50a4.58,4.58,0,0,1,3.29-1.2h13.62v2.13H178.07A2.11,2.11,0,0,0,176,53.14V66.23H189.7v2H176V81.43a2.12,2.12,0,0,0,2.08,2.26h13.85Z"/><path d="M221.1,85.81h-2.28V67.39H199.1V85.81h-2.28v-24q0-6.09,3-9.76,3.22-4,9.14-4a11,11,0,0,1,9.07,4,14.79,14.79,0,0,1,3,9.71Zm-2.28-20.46V62.66q0-12.39-9.84-12.39T199.1,62.66v2.69Z"/><path d="M250.91,82.6q0,3.34-2.95,3.34c-1.34,0-2.4-.85-3.21-2.55L229.68,51.12a.79.79,0,0,0-.7-.54c-.47,0-.71.31-.71,1V85.81H226v-34c0-2.22,1-3.34,2.94-3.34,1.35,0,2.42.85,3.2,2.54l15.11,32.23c.18.37.4.55.68.55.47,0,.7-.31.7-.91V48.76h2.28Z"/><path d="M290.62,67.26q0,9.31-4.87,14A18.14,18.14,0,0,1,260,80.87q-4.19-4.43-4.18-13.61T260,53.65a18.47,18.47,0,0,1,26.4.08Q290.61,58.16,290.62,67.26Zm-2.41-.05q0-8.25-3.41-12a16,16,0,0,0-23.15,0q-3.43,3.72-3.43,12t3.43,12a15.89,15.89,0,0,0,23.15,0Q288.21,75.46,288.21,67.21Z"/><path d="M318.54,76.26q0,5-3.54,7.45a13.51,13.51,0,0,1-8.17,2.1h-2.12q-8.68,0-8.68-9.65V74.69h2v1.47q0,7.43,6.87,7.43h.82a16.74,16.74,0,0,0,6.3-1.07,6,6,0,0,0,4-6.08A6.53,6.53,0,0,0,313.24,71a29.62,29.62,0,0,0-5.81-2.87l-2.36-.94a27.49,27.49,0,0,1-6.69-3.47,8.15,8.15,0,0,1-2.87-6.6q0-8.33,11.61-8.33h2.63q8.65,0,8.66,9.55v1.48h-2V58.31q0-7.5-6.9-7.5h-3.05q-8.67,0-8.67,6.15a6.13,6.13,0,0,0,2.29,5,21.43,21.43,0,0,0,5.19,2.63l3.64,1.45a26.64,26.64,0,0,1,6.27,3.16A8.91,8.91,0,0,1,318.54,76.26Z"/><path d="M340.18,74H323.43V71.92h16.75Z"/><g class="cls-1"><path d="M369.35,72.72q0,6-3,9.73a11.06,11.06,0,0,1-9.09,4q-5.94,0-9.17-4-3-3.65-3-9.78v-24h2.28V71.81q0,12.42,9.88,12.42t9.84-12.42V48.76h2.28Z"/></g><path d="M397.58,85.81H395.3V67.39H375.58V85.81H373.3v-24q0-6.09,3-9.76,3.23-4,9.15-4a11,11,0,0,1,9.06,4,14.79,14.79,0,0,1,3.05,9.71ZM395.3,65.35V62.66q0-12.39-9.83-12.39t-9.89,12.39v2.69Z"/><path d="M423.81,64.08l-1.56,1.37A9.58,9.58,0,0,0,415,62.29a9.71,9.71,0,0,0-7.54,3.13,11.31,11.31,0,0,0-2.71,7.84,11.3,11.3,0,0,0,2.71,7.84A9.62,9.62,0,0,0,415,84.23,9.49,9.49,0,0,0,422.25,81l1.51,1.45A11.72,11.72,0,0,1,415,86.28a11.9,11.9,0,0,1-9-3.66,13,13,0,0,1-3.48-9.31A13,13,0,0,1,406,64a12.59,12.59,0,0,1,17.85.08Z"/></g></svg>