<svg id="Layer_1" data-name="Layer 1" xmlns="http://www.w3.org/2000/svg" xmlns:xlink="http://www.w3.org/1999/xlink" viewBox="0 0 1366 768"><defs><style>.cls-1{fill:url(#linear-gradient);}.cls-2{fill:url(#linear-gradient-2);}.cls-3{fill:url(#linear-gradient-3);}.cls-4{fill:url(#linear-gradient-4);}.cls-5{fill:url(#linear-gradient-5);}.cls-6{fill:url(#linear-gradient-6);}.cls-7{fill:url(#linear-gradient-7);}.cls-8{fill:url(#linear-gradient-8);}.cls-9{fill:url(#linear-gradient-9);}.cls-10{fill:#2875a5;}.cls-11{fill:url(#linear-gradient-10);}.cls-12{fill:url(#linear-gradient-11);}.cls-13{fill:url(#linear-gradient-12);}.cls-14{fill:url(#linear-gradient-13);}.cls-15{fill:url(#linear-gradient-14);}.cls-16{fill:url(#linear-gradient-15);}.cls-17{fill:url(#linear-gradient-16);}.cls-18{fill:url(#linear-gradient-17);}.cls-19{fill:#026085;}</style><linearGradient id="linear-gradient" x1="123725.29536" y1="85310.68073" x2="127529.77197" y2="79048.46325" gradientTransform="matrix(0.036, 0.0148, -0.008, 0.0194, -3228.154, -3239.0587)" gradientUnits="userSpaceOnUse"><stop offset="0" stop-color="#0b9ba1"/><stop offset="1" stop-color="#1c75ae"/></linearGradient><linearGradient id="linear-gradient-2" x1="537650.63709" y1="87154.89536" x2="539272.30447" y2="81494.35049" gradientTransform="matrix(0.0086, 0.0035, -0.0079, 0.0192, -3252.60615, -3325.16625)" xlink:href="#linear-gradient"/><linearGradient id="linear-gradient-3" x1="161755.04466" y1="26683.42081" x2="160341.75235" y2="25270.1285" gradientTransform="matrix(0.0283, 0.0117, -0.0238, 0.0578, -3252.72795, -3138.22705)" gradientUnits="userSpaceOnUse"><stop offset="0" stop-color="#0ac4d6"/><stop offset="1" stop-color="#0994c6"/></linearGradient><linearGradient id="linear-gradient-4" x1="7587.44955" y1="-3974.78859" x2="7586.47134" y2="-3975.76679" gradientTransform="matrix(0.0029, 0.0012, -0.0033, 0.0081, -3260.5401, -3364.04905)" xlink:href="#linear-gradient-3"/><linearGradient id="linear-gradient-5" x1="151013.76716" y1="36174.40706" x2="150766.33703" y2="39371.27426" gradientTransform="matrix(0.03, 0.0124, -0.0165, 0.0401, -3236.96875, -3216.16385)" gradientUnits="userSpaceOnUse"><stop offset="0" stop-color="#054877"/><stop offset="1" stop-color="#063259"/></linearGradient><linearGradient id="linear-gradient-6" x1="183932.60343" y1="43860.3204" x2="181658.80272" y2="46117.63389" gradientTransform="matrix(0.025, 0.0103, -0.0142, 0.0346, -3244.554, -3220.72295)" gradientUnits="userSpaceOnUse"><stop offset="0" stop-color="#032d55"/><stop offset="1" stop-color="#041434"/></linearGradient><linearGradient id="linear-gradient-7" x1="225704.27765" y1="49965.44402" x2="228910.18382" y2="49965.44402" gradientTransform="matrix(0.0202, 0.0083, -0.013, 0.0315, -3243.4258, -3227.8432)" gradientUnits="userSpaceOnUse"><stop offset="0" stop-color="#032d55"/><stop offset="1" stop-color="#063259"/></linearGradient><linearGradient id="linear-gradient-8" x1="520865.77303" y1="75865.01245" x2="518974.09685" y2="73973.33627" gradientTransform="matrix(0.0088, 0.0036, -0.0089, 0.0215, -3337.56195, -3307.10815)" xlink:href="#linear-gradient-3"/><linearGradient id="linear-gradient-9" x1="211323.72314" y1="63777.79505" x2="209094.69629" y2="61548.7682" gradientTransform="matrix(0.0216, 0.0089, -0.0104, 0.0252, -3272.5144, -3265.47535)" xlink:href="#linear-gradient-3"/><linearGradient id="linear-gradient-10" x1="260005.25786" y1="179263.22281" x2="263923.34884" y2="165862.61869" gradientTransform="matrix(0.0175, 0.0072, -0.0039, 0.0095, -3248.8505, -3297.56755)" xlink:href="#linear-gradient"/><linearGradient id="linear-gradient-11" x1="722.83189" y1="370.05768" x2="1068.74897" y2="273.29479" gradientUnits="userSpaceOnUse"><stop offset="0" stop-color="#024c74"/><stop offset="1" stop-color="#023c6b"/></linearGradient><linearGradient id="linear-gradient-12" x1="57831.8533" y1="36965.17164" x2="59048.08287" y2="34000.14529" gradientTransform="translate(-3114.5145 -3094.1215) scale(0.063 0.0918)" gradientUnits="userSpaceOnUse"><stop offset="0.53023" stop-color="#025e83"/><stop offset="1" stop-color="#054877"/></linearGradient><linearGradient id="linear-gradient-13" x1="86912.40078" y1="221087.02648" x2="89825.70304" y2="219745.78304" gradientTransform="translate(-3171.33705 -3382.97225) scale(0.0427 0.0157)" gradientUnits="userSpaceOnUse"><stop offset="0" stop-color="#054877"/><stop offset="1" stop-color="#032d55"/></linearGradient><linearGradient id="linear-gradient-14" x1="171114.9143" y1="41477.90348" x2="172118.87726" y2="39657.89501" gradientTransform="translate(-3305.16215 -3118.69275) scale(0.0221 0.0823)" gradientUnits="userSpaceOnUse"><stop offset="0" stop-color="#063259"/><stop offset="1" stop-color="#032d55"/></linearGradient><linearGradient id="linear-gradient-15" x1="78020.64034" y1="115385.60901" x2="81228.4764" y2="115385.60901" gradientTransform="translate(-3187.65135 -3194.479) scale(0.0469 0.0308)" gradientUnits="userSpaceOnUse"><stop offset="0" stop-color="#041434"/><stop offset="1" stop-color="#00102a"/></linearGradient><linearGradient id="linear-gradient-16" x1="36159.29578" y1="-164784.41939" x2="39364.66902" y2="-164784.41939" gradientTransform="matrix(-0.0175, 0.043, -0.0288, -0.0117, -3465.20475, -3158.43225)" gradientUnits="userSpaceOnUse"><stop offset="0" stop-color="#016c8e"/><stop offset="1" stop-color="#016087"/></linearGradient><linearGradient id="linear-gradient-17" x1="111608.3692" y1="304943.4035" x2="114261.02896" y2="303144.01088" gradientTransform="translate(-3086.1559 -3275.2715) scale(0.0346 0.0118)" xlink:href="#linear-gradient-11"/></defs><title>okeanos_logo_color_vertical</title><path class="cls-1" d="M545.66442,184.88647a1.48321,1.48321,0,0,1-.39129.78256,57.12892,57.12892,0,0,0-4.10845,32.28068c1.17385,8.41254,5.08666,19.564,11.93407,33.65016,10.17331,12.521,24.06378,20.54224,41.86706,24.84633a30.092,30.092,0,0,1,18.19456,7.82562,220.92643,220.92643,0,0,0,25.43326-11.34714,70.44386,70.44386,0,0,0,7.63-3.91281c-15.4556-9.39075-26.41146-20.151-32.47632-31.30248a106.22951,106.22951,0,0,1-17.99892-5.67357A91.65733,91.65733,0,0,1,571.88024,218.341c.19564,10.36894,3.13024,21.32481,8.41254,33.06324-10.76023-15.84688-17.21636-30.12863-18.78149-42.84526A94.562,94.562,0,0,1,545.66442,184.88647Z"/><path class="cls-2" d="M742.47871,156.90989c2.34769-5.47794,4.30409-10.76023,6.2605-16.23816-5.28229-9.782-12.32535-18.58585-20.73789-26.99839,1.76076,9.19511,2.15205,16.62944,1.36948,22.303a45.79924,45.79924,0,0,1-1.76076,6.45613,91.354,91.354,0,0,1-4.10845,28.75915c1.76076,4.69537,3.52153,9.782,5.08665,14.86867A287.05641,287.05641,0,0,0,742.47871,156.90989Z"/><path class="cls-3" d="M748.73921,140.67173c-1.95641,5.47793-3.91281,10.76022-6.2605,16.23816a287.05641,287.05641,0,0,1-13.89047,29.15042c4.49973,16.04252,6.45614,33.06324,6.45614,51.2578-9.782-10.36894-17.02072-13.49919-21.91173-8.99946q-36.38913,62.21367-65.14828,41.67142c-.58692-.39128-1.17384-.58692-1.76076-.9782a70.44386,70.44386,0,0,1-7.63,3.91281,220.92643,220.92643,0,0,1-25.43326,11.34714,28.15828,28.15828,0,0,1,5.67358,6.06486c2.739,21.32481,19.95532,25.6289,51.84472,13.10791,41.08449-14.28176,69.84364-53.60549,85.49488-117.77556,3.32588-12.91227,1.17384-26.80274-5.86922-41.47577C749.71741,142.82377,749.13049,141.84557,748.73921,140.67173Z"/><path class="cls-4" d="M727.61,142.43249a46.682,46.682,0,0,1-9.782,16.04252c2.152,4.10845,3.91281,8.41254,5.67357,12.71663A91.354,91.354,0,0,0,727.61,142.43249Z"/><path class="cls-5" d="M634.68082,238.29631c.78256.39129,1.39154.64157,2.54333,1.17385a96.45,96.45,0,0,0,31.30247-7.63c24.45506-10.1733,41.67142-27.38966,51.64908-51.84472,1.17385-2.93461,2.34769-5.86921,3.32589-8.80382-1.76076-4.30409-3.52153-8.60818-5.67357-12.71663a258.97929,258.97929,0,0,0-14.673-26.21582,115.13151,115.13151,0,0,0-21.12917-22.88994c-16.43379-11.93406-31.30247-12.91227-44.21474-2.739l9.782,7.43434a123.82135,123.82135,0,0,1,18.58585,19.564c16.04251,21.71609,17.21636,41.86706,3.32588,60.25726-15.26,20.151-26.80274,28.75915-34.824,25.43326-8.02126-3.13025-12.91227-18.58584-14.673-45.97551-8.41254,29.15043-3.71717,50.67088,13.89047,64.36571"/><path class="cls-6" d="M720.1757,179.99546c-9.97766,24.45506-27.194,41.67142-51.64908,51.84472a96.45,96.45,0,0,1-31.30247,7.63c17.02072,7.23869,33.06324,5.28229,48.12755-6.06486-7.82562,10.56459-17.60764,16.4338-28.95479,17.80329-12.71663,1.56512-25.82454-2.739-38.54117-12.91228a29.67987,29.67987,0,0,1-4.10845-.58692c6.06486,11.15151,17.02072,21.91173,32.47632,31.30248q51.94254-29.34607,82.36463-82.95156c-1.56512-5.08665-3.32589-10.1733-5.08665-14.86867C722.52339,174.12625,721.34955,177.06085,720.1757,179.99546Z"/><path class="cls-7" d="M713.13265,228.31865c4.891-4.49973,12.1297-1.36948,21.91173,8.99946,0-18.19456-1.95641-35.21528-6.45614-51.2578q-30.51992,53.70332-82.36463,82.95156c.58692.39128,1.17384.58692,1.76076.9782Q676.74353,290.53232,713.13265,228.31865Z"/><path class="cls-8" d="M561.51129,194.86413c3.32589-22.88993,15.06432-40.49757,34.824-52.62728-22.88993,4.891-39.715,19.17277-50.67087,42.64962a94.562,94.562,0,0,0,15.84687,23.6725A53.45371,53.45371,0,0,1,561.51129,194.86413Z"/><path class="cls-9" d="M617.85574,153.19272c-12.32535,1.76076-23.67249,10.36894-34.23708,25.82454q-12.32535,18.488-11.73842,39.32373a91.65733,91.65733,0,0,0,23.86813,13.69483,106.22951,106.22951,0,0,0,17.99892,5.67357c-.78256-1.76076-1.56512-3.32588-2.54332-5.08665a79.61636,79.61636,0,0,0,6.65177,5.67357,92.0667,92.0667,0,0,0,19.36841,1.17385,21.56767,21.56767,0,0,1-2.44842-1.26113c-.35274-.1895-.70917-.38814-.87742-.49961a51.94935,51.94935,0,0,1-20.34666-6.6518c-15.65123-9.1951-21.12917-22.88994-16.82508-41.47578,3.52153-14.673,12.12971-23.67249,25.43326-26.80274,12.71663-3.13025,27.58531-.78256,44.80167,6.84741C647.39745,156.71424,631.15929,151.23631,617.85574,153.19272Z"/><path class="cls-10" d="M611.204,232.62274c.9782,1.76077,1.76076,3.32589,2.54332,5.08665a29.67987,29.67987,0,0,0,4.10845.58692A79.61636,79.61636,0,0,1,611.204,232.62274Z"/><path class="cls-11" d="M637.22415,239.47016a92.0667,92.0667,0,0,1-19.36841-1.17385c12.71663,10.17331,25.82454,14.4774,38.54117,12.91228,11.34715-1.36949,21.12917-7.2387,28.95479-17.80329C670.28739,244.75245,654.24487,246.70885,637.22415,239.47016Z"/><path class="cls-12" d="M1040.63477,286.22823a167.79085,167.79085,0,0,1,32.085,2.152,249.06653,249.06653,0,0,0-32.085-5.08665q-87.45129-8.21689-189.18432,35.8022c-33.45452,12.71663-62.80059,22.49866-87.84257,29.73735a2.35748,2.35748,0,0,0-.9782.97821c-4.10845,5.08665-8.2169,9.782-12.521,14.28175a164.29713,164.29713,0,0,1-36.58476,28.56351,374.51876,374.51876,0,0,0,66.51775-28.56351c1.56513-.78256,2.739-1.56513,4.30409-2.34769Q945.74915,286.61952,1040.63477,286.22823Z"/><path class="cls-13" d="M624.11624,56.54633c19.3684,0,36.58476,5.08665,51.84472,15.06432h4.69537c-33.65016-31.49812-73.56081-40.49758-119.9276-26.21583a142.905,142.905,0,0,0-38.93245,18.58585c-28.75915,38.93245-43.0409,85.49488-43.0409,139.296,0,47.14935,11.15151,88.42949,33.25888,124.42733a155.9486,155.9486,0,0,0,42.06269,5.47794,164.44388,164.44388,0,0,0,31.10684-3.13025c-9.782-10.95587-20.54225-18.19456-32.28068-22.303q-67.49595-49.3014-67.88724-102.32c-.39128-39.51937,17.21636-71.99569,53.01857-98.01587.39128-.19564.78256-.19564.9782-.39128A90.69,90.69,0,0,1,555.83772,84.9142C574.81484,65.93707,597.50914,56.54633,624.11624,56.54633Z"/><path class="cls-14" d="M675.961,71.61065c-15.26-9.97767-32.47632-15.06432-51.84472-15.06432-26.6071,0-49.3014,9.39074-68.27852,28.36787a90.69,90.69,0,0,0-16.82508,22.10737C575.01048,81.39267,620.79035,69.65424,675.961,71.61065Z"/><path class="cls-15" d="M478.75538,203.27667c0-53.80112,14.28175-100.36355,43.0409-139.296-17.412,11.93407-32.085,28.36786-44.41038,48.71447a187.20733,187.20733,0,0,0-26.41147,102.12432c.58693,36.58477,7.63,68.27852,20.54225,95.2769A148.03574,148.03574,0,0,0,512.01426,327.704C489.90689,291.70616,478.75538,250.426,478.75538,203.27667Z"/><path class="cls-16" d="M502.81916,354.898c3.32588,3.13024,6.65177,6.26049,9.782,9.1951,30.71555,27.38966,67.30032,42.25834,109.363,44.606q-45.77986-7.33652-81.58207-44.606a149.21181,149.21181,0,0,1-12.91227-14.28175A204.66149,204.66149,0,0,1,512.01426,327.704a148.03574,148.03574,0,0,1-40.49758-17.60764A175.57816,175.57816,0,0,0,502.81916,354.898Z"/><path class="cls-17" d="M512.01426,327.704a204.66149,204.66149,0,0,0,15.45559,22.10738,149.21181,149.21181,0,0,0,12.91227,14.28175q35.80221,37.26951,81.58207,44.606c2.34769,0,5.08666,0,7.63.19564a368.33015,368.33015,0,0,0,83.92976-16.23815,164.29713,164.29713,0,0,0,36.58476-28.56351c4.30409-4.49973,8.41254-9.1951,12.521-14.28175a2.35748,2.35748,0,0,1,.9782-.97821c-44.9973,12.521-77.08234,16.4338-95.86382,11.34715,31.88939-1.95641,67.30032-10.36894,106.23277-25.82454a228.17575,228.17575,0,0,0,14.47739-25.23762c-27.38966,4.69537-53.60548,10.36894-79.03874,17.02072-15.4556,3.52153-31.69376,9.97766-48.91012,19.36841-13.69483,7.63-26.99838,10.76022-40.30193,9.782-11.73843-.58692-19.75969-4.10845-23.86814-10.36895a163.38453,163.38453,0,0,0-11.1515-14.86867,164.44388,164.44388,0,0,1-31.10684,3.13025A155.9486,155.9486,0,0,1,512.01426,327.704Z"/><path class="cls-18" d="M832.082,310.48764c19.95533-7.23869,37.36733-11.73842,52.62729-13.69483-33.25888,2.739-65.34392,7.04306-96.25511,12.32535a228.17575,228.17575,0,0,1-14.47739,25.23762,81.63827,81.63827,0,0,0,8.60818-3.71717C810.95287,318.90018,827.38667,312.24841,832.082,310.48764Z"/><path class="cls-19" d="M275.38867,541.09668q0,32.40234-17.10107,48.87305-18.63135,17.9121-43.92285,17.91113-28.08252,0-46.62354-19.44141-14.67187-15.39111-14.6709-47.34277,0-31.86328,14.85108-47.34375,18.36108-19.17187,46.44336-19.17188,27.81152,0,46.353,19.44141Q275.38746,509.41357,275.38867,541.09668Zm-8.46045-.18066q0-28.71094-11.9707-41.67286-16.02173-17.28075-40.59277-17.28125-24.84229,0-40.77295,17.19141-12.06227,12.96094-12.061,41.7627,0,28.80321,12.061,41.85351,16.01952,17.37159,40.77295,17.37109,24.57129,0,40.59277-17.46093Q266.92675,569.62939,266.92822,540.916Z"/><path class="cls-19" d="M369.47119,605.52148l-10.28613.01954-53.0376-69.52051L291.77,549.72559V605.541h-8.01025V476.56152H291.77v61.92481l63.90478-61.47461h11.94288l-55.52979,53.29394Z"/><path class="cls-19" d="M441.81055,605.63086H393.92676a16.23484,16.23484,0,0,1-11.43067-4.32031,14.28618,14.28618,0,0,1-4.68017-10.98047V492.043h.08984q0-7.021,4.45508-11.16113,4.45531-4.13819,11.56592-4.14063h47.88379v7.38086H393.12793q-7.303,1.07959-7.30176,7.83105v45.543H433.98v7.11036H385.82617v45.80078q0,6.76319,7.30176,7.84277h48.68262Z"/><path class="cls-19" d="M535.50488,605.63086h-8.01074v-64.085H458.189v64.085h-8.01025v-83.3457q0-21.15089,10.62061-33.93262,11.34081-13.771,32.13232-13.77149,20.43018,0,31.86231,13.95118,10.70946,12.873,10.71093,33.75293Zm-8.01074-71.19531V525.0752q0-43.11183-34.5625-43.11329-34.7439,0-34.74268,43.11329v9.36035Z"/><path class="cls-19" d="M631.4502,594.46973q0,11.61181-10.37891,11.61132-7.04151,0-11.28223-8.88281L556.82812,484.93652a2.776,2.776,0,0,0-2.47167-1.89453q-2.47121,0-2.47168,3.33008V605.63086H543.874V487.27246q0-11.61034,10.35059-11.61133,7.10889,0,11.251,8.82129l53.10546,112.14746q.91554,1.89111,2.38379,1.89063,2.47413,0,2.47461-3.15039V476.74121h8.01075Z"/><path class="cls-19" d="M762.13672,541.09668q0,32.40234-17.10059,48.87305-18.63135,17.9121-43.92383,17.91113-28.08105,0-46.623-19.44141-14.67187-15.39111-14.6709-47.34277,0-31.86328,14.85059-47.34375,18.36181-19.17187,46.44335-19.17188,27.813,0,46.35352,19.44141Q762.13623,509.41357,762.13672,541.09668Zm-8.46-.18066q0-28.71094-11.97168-41.67286-16.021-17.28075-40.59278-17.28125-24.84081,0-40.77246,17.19141-12.063,12.96094-12.06152,41.7627,0,28.80321,12.06152,41.85351,16.01954,17.37159,40.77246,17.37109,24.57276,0,40.59278-17.46093Q753.67579,569.62939,753.67676,540.916Z"/><path class="cls-19" d="M851.42383,572.419q0,17.28075-12.4209,25.92187-10.80176,7.56006-28.71289,7.29h-7.46973q-30.51268,0-30.51269-33.57227v-5.13086h7.0205v5.13086q0,25.83252,24.12208,25.832h2.87988q12.96093,0,22.1416-3.69433,14.12988-5.67774,14.13086-21.17871,0-11.71436-9.80176-19.01367-5.21777-3.876-20.415-10.00391l-8.30176-3.27344q-17.46385-7.01806-23.49414-12.05957-10.084-8.36865-10.082-22.94726,0-28.97609,40.77246-28.97852h9.27051q30.42188,0,30.42285,33.21289V515.084h-7.02051v-5.11621q0-26.11523-24.24609-26.11523H808.98242q-30.46581,0-30.46387,21.38476,0,11.05372,8.03809,17.52149,4.96582,3.95361,18.24316,9.165l12.78125,5.03222q17.01124,6.75,22.05176,10.98047Q851.42334,557.92823,851.42383,572.419Z"/><path class="cls-19" d="M918.65723,564.67773H859.793v-7.37988h58.86426Z"/><path class="cls-19" d="M1012.35352,560.08789q0,20.97217-10.6211,33.8418-11.43164,13.95264-31.95215,13.95117-20.8828,0-32.22265-13.77051-10.53077-12.69141-10.53028-34.02246V476.74121h8.01075V556.9375q0,43.20264,34.74218,43.20312,34.563,0,34.5625-43.20312V476.74121h8.01075Z"/><path class="cls-19" d="M1102.7207,605.63086H1094.71v-64.085h-69.30469v64.085h-8.01074v-83.3457q0-21.15089,10.62012-33.93262,11.34082-13.771,32.13281-13.77149,20.43018,0,31.86231,13.95118,10.70946,12.873,10.71093,33.75293ZM1094.71,534.43555V525.0752q0-43.11183-34.5625-43.11329-34.74462,0-34.74219,43.11329v9.36035Z"/><path class="cls-19" d="M1166.63086,547.5918l-3.18457,2.4834a27.34781,27.34781,0,0,0-20.61133-8.80665q-13.21,0-21.40723,8.80665-7.96436,8.52538-7.96386,21.875,0,13.39746,7.917,21.96972,8.15039,8.85352,21.4541,8.85352,11.94433,0,20.61133-9.13477l2.248,3.8418a31.89315,31.89315,0,0,1-22.85938,9.32129q-15.13183,0-24.5459-9.83692-9.22851-9.69579-9.22851-24.92089,0-15.082,9.36914-24.84961,9.36767-9.76758,24.40527-9.76758A31.99784,31.99784,0,0,1,1166.63086,547.5918Z"/><path class="cls-19" d="M1121.876,472.209q0,5.86524-3.09571,8.84766a11.62785,11.62785,0,0,1-16.39062-.27734q-2.65576-2.78613-2.65625-8.57032,0-5.76708,2.68848-8.57031a11.84029,11.84029,0,0,1,16.79882.04883Q1121.87646,466.47363,1121.876,472.209Zm-1.53125-.03222q0-5.19728-2.167-7.54395a10.25081,10.25081,0,0,0-14.72949-.0166q-2.18262,2.34667-2.18262,7.56055,0,5.21337,2.18262,7.57617a10.17808,10.17808,0,0,0,14.72949-.0166Q1120.34424,477.375,1120.34473,472.17676Zm-5.87891,7.13476-2.19336-5.84472a7.02291,7.02291,0,0,1-1.708.19238h-2.668v5.66992h-1.20507V466.63477q0-1.83985,1.92187-1.82325h2.60742a4.40955,4.40955,0,0,1,3.19336,1.22266,4.26333,4.26333,0,0,1,1.22168,3.17676,4.11632,4.11632,0,0,1-2.26465,3.8457l2.33008,6.25586Zm-3.2373-13.375h-2.67872q-.65331.09669-.65332.6836v5.89843h2.97266q3.52881,0,3.52832-3.291a3.3306,3.3306,0,0,0-.85742-2.37891A3.01855,3.01855,0,0,0,1111.22852,465.93652Z"/></svg>