<svg id="Layer_1" data-name="Layer 1" xmlns="http://www.w3.org/2000/svg" viewBox="0 0 1389.3012 389.00434"><defs><style>.cls-1{fill:#fff;}</style></defs><title>fct_horizontal_light</title><path class="cls-1" d="M634.83956,136.48146V75.5171h39.21631v8.21045H644.62178v17.73h26.72657v8.21H644.62178v26.814Z"/><path class="cls-1" d="M715.27608,128.79542h-.43652c-1.92139,4.71631-5.58985,8.73389-13.01416,8.73389-9.0835,0-15.19727-6.20117-15.19727-17.11865V91.4131h9.52051v27.6001c0,7.16211,3.23144,10.74316,9.34521,10.74316,4.89112,0,9.78223-2.5332,9.78223-7.77344V91.4131h9.52v45.06836h-9.52Z"/><path class="cls-1" d="M739.46407,136.48146V91.4131h9.52051v7.68652h.43652c1.92187-4.71679,5.58984-8.73437,13.01416-8.73437,9.0835,0,15.19727,6.20117,15.19727,17.11914v28.99707h-9.52V108.88185c0-7.16211-3.23194-10.74317-9.34571-10.74317-4.89111,0-9.78222,2.53272-9.78222,7.77344v30.56934Z"/><path class="cls-1" d="M820.51192,128.79542H819.988c-2.62011,5.415-6.9873,8.73389-13.625,8.73389-10.56836,0-17.38086-8.12256-17.38086-23.582s6.8125-23.582,17.38086-23.582c6.6377,0,11.00489,3.31884,13.625,8.73437h.52393v-27.251h9.52051v64.63281h-9.52051Zm0-7.33642v-15.023c0-5.50244-4.71631-8.29737-10.21875-8.29737-7.16211,0-11.26709,4.80372-11.26709,12.14063v7.33643c0,7.33642,4.105,12.14062,11.26709,12.14062C815.79561,129.75636,820.51192,126.96144,820.51192,121.459Z"/><path class="cls-1" d="M879.89864,136.48146c-5.415,0-8.12256-3.05713-8.64649-7.59863h-.43652c-1.74707,5.415-6.46338,8.64648-13.53809,8.64648-9.17089,0-15.11035-5.15283-15.11035-13.625,0-8.73438,6.376-13.45068,19.73926-13.45068h8.647V106.96c0-6.02636-3.23193-9.17089-9.69482-9.17089-5.76465,0-9.1709,2.4458-11.6167,6.20117l-5.67725-4.62891c2.53321-4.89111,8.647-8.99609,18.167-8.99609,11.35449,0,18.34179,5.67724,18.34179,15.9834v22.62158h5.67725v7.51123Zm-9.34522-13.45069v-6.55029h-8.47216c-6.98731,0-10.30616,2.1836-10.30616,6.20117v1.74659c0,4.01806,3.144,6.11377,8.21,6.11377C866.09883,130.542,870.55342,127.48536,870.55342,123.03077Z"/><path class="cls-1" d="M934.65694,101.021l-7.42383,4.01758c-1.57226-4.19239-4.89111-6.8125-10.13183-6.8125-7.16163,0-11.354,4.80371-11.354,11.96582v7.51123c0,7.0747,4.105,11.96582,11.52881,11.96582,5.58984,0,8.99609-2.79492,11.09229-7.16211l6.9873,4.27978c-2.79492,6.20118-8.38477,10.481-17.38086,10.74268l-.87353,4.01807.3496.34912a14.06685,14.06685,0,0,1,3.75538-.61133c3.40625,0,6.11425,1.92139,6.11425,5.93945,0,5.32764-4.97851,7.51123-10.481,7.51123-5.24073,0-8.21045-2.00879-9.52051-3.66845l3.58105-4.105a6.85365,6.85365,0,0,0,5.50244,2.4458c2.1836,0,3.84327-.78614,3.84327-2.53321,0-1.39746-1.04834-2.88232-6.20118-3.49365l-2.18359-.26221,1.22266-5.939c-10.91748-1.65967-17.29346-10.39356-17.29346-23.23291,0-14.41113,8.03516-23.582,21.311-23.582C926.35958,90.36525,931.862,94.73243,934.65694,101.021Z"/><path class="cls-1" d="M984.69844,136.48146c-5.415,0-8.12256-3.05713-8.64648-7.59863h-.43652c-1.74707,5.415-6.46338,8.64648-13.53809,8.64648-9.1709,0-15.11035-5.15283-15.11035-13.625,0-8.73438,6.376-13.45068,19.73926-13.45068h8.647V106.96c0-6.02636-3.23194-9.17089-9.69483-9.17089-5.76464,0-9.17089,2.4458-11.61669,6.20117l-5.67725-4.62891c2.5332-4.89111,8.647-8.99609,18.167-8.99609,11.35449,0,18.3418,5.67724,18.3418,15.9834v22.62158h5.67724v7.51123Zm-18.2539-54.76319c-2.62061-1.31005-4.6294-2.00878-6.46338-2.00878-1.92139,0-3.31885.78613-5.06592,2.271l-3.58105-4.542a10.4384,10.4384,0,0,1,8.99609-4.978,14.25232,14.25232,0,0,1,6.813,2.00879c2.62011,1.31006,4.6289,2.00879,6.46289,2.00879,1.92187,0,3.31933-.78613,5.06592-2.271l3.58105,4.542a10.43814,10.43814,0,0,1-8.99609,4.97851A14.24862,14.24862,0,0,1,966.44454,81.71827Zm8.90869,41.3125v-6.55029h-8.47217c-6.9873,0-10.30615,2.1836-10.30615,6.20117v1.74659c0,4.01806,3.144,6.11377,8.21,6.11377C970.89864,130.542,975.35323,127.48536,975.35323,123.03077Z"/><path class="cls-1" d="M998.92989,113.94728c0-14.41113,8.12305-23.582,21.39844-23.582,13.27636,0,21.39892,9.1709,21.39892,23.582,0,14.41162-8.12256,23.582-21.39892,23.582C1007.05294,137.52931,998.92989,128.3589,998.92989,113.94728Zm32.84033,3.40625V110.541c0-8.38477-4.5415-12.66455-11.44189-12.66455-6.89991,0-11.44141,4.27978-11.44141,12.66455v6.8125c0,8.38476,4.5415,12.66455,11.44141,12.66455C1027.22872,130.01808,1031.77022,125.73829,1031.77022,117.35353Z"/><path class="cls-1" d="M634.22823,196.21486h9.52v7.68554h.52441c2.62012-5.415,6.98731-8.73388,13.625-8.73388,10.56836,0,17.38086,8.12256,17.38086,23.582s-6.8125,23.58252-17.38086,23.58252c-6.63769,0-11.00488-3.31934-13.625-8.73438h-.52441V258.751h-9.52ZM665.23458,222.417v-7.33692c0-7.33642-4.105-12.14014-11.26709-12.14014-5.50245,0-10.21924,2.79493-10.21924,8.29737v15.02246c0,5.50293,4.71679,8.29785,10.21924,8.29785C661.1296,234.55763,665.23458,229.75392,665.23458,222.417Z"/><path class="cls-1" d="M722.7004,241.28273c-5.41553,0-8.123-3.05713-8.647-7.59864h-.437c-1.74658,5.415-6.46289,8.647-13.5376,8.647-9.17089,0-15.10986-5.15332-15.10986-13.62549,0-8.73389,6.37549-13.45068,19.73877-13.45068h8.647v-3.49366c0-6.02636-3.23144-9.1709-9.69482-9.1709-5.76465,0-9.1709,2.44581-11.6167,6.20167l-5.67676-4.6294c2.53272-4.89111,8.64649-8.99609,18.167-8.99609,11.354,0,18.34131,5.67724,18.34131,15.9834V233.7715H728.552v7.51123ZM713.35469,227.832v-6.55029h-8.47216c-6.98731,0-10.30616,2.18311-10.30616,6.20117v1.74659c0,4.01757,3.144,6.11425,8.21,6.11425C708.9001,235.34376,713.35469,232.28663,713.35469,227.832Z"/><path class="cls-1" d="M738.76583,233.59669h11.96533V203.9004H738.76583v-7.68554h21.48584v11.96533h.52392c1.74707-6.28858,5.67725-11.96533,14.84815-11.96533h5.415v9.083h-8.9087c-7.77343,0-11.87841,5.15332-11.87841,11.4419v16.85693h16.33252v7.686H738.76583Z"/><path class="cls-1" d="M827.49922,241.28273c-5.415,0-8.12255-3.05713-8.64648-7.59864h-.43652c-1.74707,5.415-6.46338,8.647-13.53809,8.647-9.1709,0-15.11035-5.15332-15.11035-13.62549,0-8.73389,6.376-13.45068,19.73926-13.45068h8.647v-3.49366c0-6.02636-3.23193-9.1709-9.69482-9.1709-5.76465,0-9.1709,2.44581-11.6167,6.20167l-5.67725-4.6294c2.5332-4.89111,8.647-8.99609,18.167-8.99609,11.35449,0,18.3418,5.67724,18.3418,15.9834V233.7715h5.67725v7.51123ZM818.154,227.832v-6.55029h-8.47217c-6.9873,0-10.30615,2.18311-10.30615,6.20117v1.74659c0,4.01757,3.144,6.11425,8.21,6.11425C813.69942,235.34376,818.154,232.28663,818.154,227.832Z"/><path class="cls-1" d="M932.299,241.28273c-5.41553,0-8.12305-3.05713-8.647-7.59864h-.437c-1.74658,5.415-6.46289,8.647-13.53759,8.647-9.1709,0-15.10987-5.15332-15.10987-13.62549,0-8.73389,6.37549-13.45068,19.73877-13.45068h8.647v-3.49366c0-6.02636-3.23145-9.1709-9.69483-9.1709-5.76465,0-9.1709,2.44581-11.6167,6.20167l-5.67676-4.6294c2.53272-4.89111,8.64649-8.99609,18.167-8.99609,11.354,0,18.34131,5.67724,18.34131,15.9834V233.7715h5.67724v7.51123Zm-9.3457-13.45069v-6.55029h-8.47217c-6.98731,0-10.30615,2.18311-10.30615,6.20117v1.74659c0,4.01757,3.144,6.11425,8.21,6.11425C918.49874,235.34376,922.95333,232.28663,922.95333,227.832Z"/><path class="cls-1" d="M999.1921,210.80079c0-20.17578,7.42382-31.53027,22.8833-31.53027,11.791,0,17.20605,6.8125,20.001,15.10986l-8.82129,2.96973c-1.834-5.58984-4.36718-9.957-11.26709-9.957-8.647,0-12.40234,7.07471-12.40234,18.25439v10.30616c0,11.17968,3.75537,18.25439,12.40234,18.25439,6.89991,0,9.43311-4.36719,11.26709-9.957l8.82129,2.96973c-2.79492,8.29736-8.21,15.11035-20.001,15.11035C1006.61592,242.33107,999.1921,230.97658,999.1921,210.80079Z"/><path class="cls-1" d="M1055.34737,233.59669h15.37207V203.9004h-15.37207v-7.68554H1080.24v37.38183h14.41113v7.686h-39.30371Zm13.62549-50.74511V181.0171c0-2.88232,1.74658-5.15283,6.46338-5.15283,4.80371,0,6.55029,2.27051,6.55029,5.15283v1.83448c0,2.88183-1.74658,5.15283-6.46289,5.15283C1070.71944,188.00441,1068.97286,185.73341,1068.97286,182.85158Z"/><path class="cls-1" d="M1104.16622,218.836c0-14.49853,8.38476-23.66943,21.22412-23.66943,12.66455,0,20.6997,9.08349,20.6997,22.35937V221.107h-32.31591v1.48486c0,7.07471,4.71631,12.05273,12.48974,12.05273a13.93175,13.93175,0,0,0,12.48975-6.8999l5.939,5.24072c-3.05664,5.24024-9.34521,9.34571-18.60351,9.34571C1112.28926,242.33107,1104.16622,233.16017,1104.16622,218.836Zm25.85351-45.15527,10.48047,13.10107-5.06543,3.66846-10.30664-10.13184-10.39355,10.13184-4.80371-3.66846,10.481-13.10107Zm-16.2456,40.70117v.61133h22.62109v-.87354c0-7.07471-4.3667-11.70361-11.00488-11.70361C1118.57784,202.416,1113.77413,207.39454,1113.77413,214.38185Z"/><path class="cls-1" d="M1158.66231,241.28273V196.21486h9.52v7.68554h.43652c1.92139-4.71631,5.58985-8.73388,13.01416-8.73388,9.0835,0,15.19727,6.20117,15.19727,17.11865v28.99756h-9.52051v-27.6001c0-7.16162-3.23144-10.74268-9.34521-10.74268-4.89112,0-9.78223,2.53272-9.78223,7.77344v30.56934Z"/><path class="cls-1" d="M1210.18868,218.74855c0-14.41113,8.03515-23.582,21.311-23.582,9.2583,0,14.76075,4.36718,17.55567,10.65576l-7.42383,4.01758c-1.57227-4.19239-4.89111-6.8125-10.13184-6.8125-7.16162,0-11.354,4.80371-11.354,11.96582v7.51123c0,7.0747,4.105,11.96582,11.52881,11.96582,5.58984,0,8.99609-2.79492,11.09228-7.16211l6.98731,4.27978c-2.88233,6.28858-8.73389,10.74317-18.167,10.74317C1218.13643,242.33107,1210.18868,233.16017,1210.18868,218.74855Z"/><path class="cls-1" d="M1264.94649,233.59669h15.37207V203.9004h-15.37207v-7.68554h24.89258v37.38183h14.41113v7.686h-39.30371Zm13.62549-50.74511V181.0171c0-2.88232,1.74658-5.15283,6.46338-5.15283,4.80371,0,6.55029,2.27051,6.55029,5.15283v1.83448c0,2.88183-1.74658,5.15283-6.46338,5.15283C1280.31856,188.00441,1278.572,185.73341,1278.572,182.85158Z"/><path class="cls-1" d="M1351.49629,241.28273c-5.415,0-8.12255-3.05713-8.64648-7.59864h-.43652c-1.74707,5.415-6.46338,8.647-13.53809,8.647-9.1709,0-15.11035-5.15332-15.11035-13.62549,0-8.73389,6.376-13.45068,19.73926-13.45068h8.647v-3.49366c0-6.02636-3.23193-9.1709-9.69482-9.1709-5.76465,0-9.1709,2.44581-11.6167,6.20167l-5.67725-4.6294c2.5332-4.89111,8.647-8.99609,18.167-8.99609,11.35449,0,18.3418,5.67724,18.3418,15.9834V233.7715h5.67725v7.51123Zm-9.34521-13.45069v-6.55029h-8.47217c-6.9873,0-10.30615,2.18311-10.30615,6.20117v1.74659c0,4.01757,3.144,6.11425,8.21,6.11425C1337.69649,235.34376,1342.15108,232.28663,1342.15108,227.832Z"/><path class="cls-1" d="M632.56856,323.63673c0-14.49853,8.38477-23.66943,21.22412-23.66943,12.66455,0,20.69971,9.08349,20.69971,22.35937v3.58106H642.17647v1.48486c0,7.07471,4.71631,12.05274,12.48975,12.05274a13.93171,13.93171,0,0,0,12.48974-6.89991l5.939,5.24073c-3.05664,5.24023-9.34522,9.3457-18.60352,9.3457C640.69161,347.13185,632.56856,337.961,632.56856,323.63673Zm9.60791-4.4541v.61133h22.62109v-.87354c0-7.0747-4.36669-11.70361-11.00488-11.70361C646.98018,307.21681,642.17647,312.19533,642.17647,319.18263Z"/><path class="cls-1" d="M775.09981,346.08351c-5.41553,0-8.12305-3.05713-8.647-7.59863h-.437c-1.74659,5.415-6.46289,8.647-13.5376,8.647-9.1709,0-15.10986-5.15332-15.10986-13.62549,0-8.73389,6.37548-13.45068,19.73876-13.45068h8.647V316.562c0-6.02636-3.23145-9.17089-9.69483-9.17089-5.76465,0-9.1709,2.4458-11.6167,6.20166l-5.67675-4.6294c2.53271-4.89111,8.64648-8.99609,18.167-8.99609,11.354,0,18.34131,5.67724,18.34131,15.9834v22.62158h5.67724v7.51123Zm-9.3457-13.45068v-6.5503h-8.47217c-6.98731,0-10.30615,2.18311-10.30615,6.20117v1.74659c0,4.01757,3.144,6.11425,8.21,6.11425C761.29952,340.14454,765.75411,337.08742,765.75411,332.63283Z"/><path class="cls-1" d="M868.02071,293.32911v52.7544h-9.78223v-52.7544H839.11055v-8.21h48.0376v8.21Z"/><path class="cls-1" d="M894.56758,323.63673c0-14.49853,8.38477-23.66943,21.22364-23.66943,12.66455,0,20.70019,9.08349,20.70019,22.35937v3.58106H904.175v1.48486c0,7.07471,4.7163,12.05274,12.48974,12.05274a13.93174,13.93174,0,0,0,12.48975-6.89991l5.93945,5.24073c-3.05713,5.24023-9.3457,9.3457-18.604,9.3457C902.69014,347.13185,894.56758,337.961,894.56758,323.63673Zm9.60743-4.4541v.61133H926.7961v-.87354c0-7.0747-4.3667-11.70361-11.00488-11.70361C908.97872,307.21681,904.175,312.19533,904.175,319.18263Z"/><path class="cls-1" d="M948.19014,323.54933c0-14.41113,8.03516-23.582,21.311-23.582,9.2583,0,14.76074,4.36719,17.55566,10.65576l-7.42383,4.01758c-1.57226-4.19238-4.89111-6.8125-10.13183-6.8125-7.16211,0-11.35449,4.80371-11.35449,11.96582v7.51123c0,7.07471,4.10546,11.96582,11.52929,11.96582,5.58985,0,8.9961-2.79492,11.09229-7.16211l6.9873,4.27978c-2.88232,6.28858-8.73388,10.74317-18.167,10.74317C956.1379,347.13185,948.19014,337.961,948.19014,323.54933Z"/><path class="cls-1" d="M1001.46309,346.08351V301.01564h9.52v7.68554h.43652c1.92139-4.7163,5.58985-8.73388,13.01416-8.73388,9.0835,0,15.19727,6.20117,15.19727,17.11865v28.99756h-9.52051v-27.6001c0-7.16162-3.23144-10.74267-9.34521-10.74267-4.89112,0-9.78223,2.53271-9.78223,7.77343v30.56934Z"/><path class="cls-1" d="M1051.32979,323.54933c0-14.41113,8.12256-23.582,21.39893-23.582,13.27539,0,21.39843,9.1709,21.39843,23.582,0,14.41162-8.123,23.58252-21.39843,23.58252C1059.45235,347.13185,1051.32979,337.961,1051.32979,323.54933Zm32.84033,3.40625v-6.8125c0-8.38477-4.5415-12.66455-11.4414-12.66455-6.90039,0-11.4419,4.27978-11.4419,12.66455v6.8125c0,8.38476,4.54151,12.66455,11.4419,12.66455C1079.62862,339.62013,1084.17012,335.34034,1084.17012,326.95558Z"/><path class="cls-1" d="M1105.47676,338.39747h14.93506V289.13673h-14.93506v-7.68555h24.45557v56.94629h14.93506v7.686h-39.39063Z"/><path class="cls-1" d="M1156.12911,323.54933c0-14.41113,8.123-23.582,21.39843-23.582,13.27637,0,21.39893,9.1709,21.39893,23.582,0,14.41162-8.12256,23.58252-21.39893,23.58252C1164.25215,347.13185,1156.12911,337.961,1156.12911,323.54933Zm32.84033,3.40625v-6.8125c0-8.38477-4.5415-12.66455-11.4419-12.66455-6.8999,0-11.4414,4.27978-11.4414,12.66455v6.8125c0,8.38476,4.5415,12.66455,11.4414,12.66455C1184.42794,339.62013,1188.96944,335.34034,1188.96944,326.95558Z"/><path class="cls-1" d="M1229.84053,364.59962c-15.54687,0-20.96191-4.105-20.96191-10.83008,0-4.89111,2.88232-7.42382,7.86035-8.73437v-.873c-3.05664-1.13574-4.978-3.14453-4.978-6.55078,0-4.4541,3.40625-6.46338,8.12256-7.59863v-.43653a14.49028,14.49028,0,0,1-8.647-13.80029c0-9.60742,7.24951-15.80859,18.3418-15.80859a23.26227,23.26227,0,0,1,8.47216,1.48486V299.9673c0-3.49365,2.00879-6.11377,6.02637-6.11377h8.21045v7.51123h-10.48144V303.461c3.93066,2.70752,6.11425,6.8999,6.11425,12.31494,0,9.60791-7.24951,15.72168-18.34179,15.72168a28.28673,28.28673,0,0,1-5.58985-.52392c-2.09619.52392-4.71631,1.92138-4.71631,4.36669,0,2.79493,3.05664,3.14454,6.98731,3.14454h10.13135c12.14062,0,17.11914,5.06591,17.11914,12.48974C1253.51,360.23292,1245.73653,364.59962,1229.84053,364.59962Zm6.28858-17.99219h-15.63428a5.2815,5.2815,0,0,0-3.31885,5.06592c0,3.40625,2.62012,6.20117,9.25781,6.20117h7.07471c7.16211,0,11.09229-2.18359,11.09229-6.28857C1244.60079,348.52931,1242.50508,346.60743,1236.12911,346.60743Zm2.44531-29.6958v-2.35839c0-4.80372-2.88232-8.03516-8.99609-8.03516s-8.9961,3.23144-8.9961,8.03516v2.35839c0,4.80371,2.88233,8.03516,8.9961,8.03516S1238.57442,321.71534,1238.57442,316.91163Z"/><path class="cls-1" d="M1264.94649,338.39747h15.37207V308.70118h-15.37207v-7.68554h24.89258v37.38183h14.41113v7.686h-39.30371Zm13.62549-50.74511v-1.83448c0-2.88232,1.74658-5.15283,6.46338-5.15283,4.80371,0,6.55029,2.27051,6.55029,5.15283v1.83448c0,2.88183-1.74658,5.15283-6.46338,5.15283C1280.31856,292.80519,1278.572,290.53419,1278.572,287.65236Z"/><path class="cls-1" d="M1351.49629,346.08351c-5.415,0-8.12255-3.05713-8.64648-7.59863h-.43652c-1.74707,5.415-6.46338,8.647-13.53809,8.647-9.1709,0-15.11035-5.15332-15.11035-13.62549,0-8.73389,6.376-13.45068,19.73926-13.45068h8.647V316.562c0-6.02636-3.23193-9.17089-9.69482-9.17089-5.76465,0-9.1709,2.4458-11.6167,6.20166l-5.67725-4.6294c2.5332-4.89111,8.647-8.99609,18.167-8.99609,11.35449,0,18.3418,5.67724,18.3418,15.9834v22.62158h5.67725v7.51123Zm-9.34521-13.45068v-6.5503h-8.47217c-6.9873,0-10.30615,2.18311-10.30615,6.20117v1.74659c0,4.01757,3.144,6.11425,8.21,6.11425C1337.69649,340.14454,1342.15108,337.08742,1342.15108,332.63283Z"/><path class="cls-1" d="M121.36055,159.87811h67.48076v29.0238H121.36055V318.22353h67.48076v29.0238H32.85717v-29.0238H88.46941V188.90191H32.85717v-29.0238H76.48544a11.984,11.984,0,0,0,11.984-11.984V129.6414a27.96259,27.96259,0,0,1,8.19006-19.77255l31.17832-31.17832A27.81208,27.81208,0,0,1,147.61033,70.659h41.231V99.52427H121.36055Z"/><path class="cls-1" d="M280.82666,70.659h70.47966v29.0238H254.07847v141.523h97.22785v29.0238H280.82666a27.96262,27.96262,0,0,1-19.77255-8.19l-31.68-31.68a27.96257,27.96257,0,0,1-8.19006-19.77254V130.30164a27.96257,27.96257,0,0,1,8.19006-19.77254l31.68-31.68A27.96262,27.96262,0,0,1,280.82666,70.659Z"/><path class="cls-1" d="M436.52143,213.28712V99.68285H381.84317V70.659h42.69429a11.984,11.984,0,0,0,11.984-11.984V24.22285h32.89114V70.659h70.91682v29.0238H469.41257v141.523h70.91682v29.0238H489.84071a27.96258,27.96258,0,0,1-21.04426-9.5494l-25.35668-28.9799A27.96256,27.96256,0,0,1,436.52143,213.28712Z"/><rect class="cls-1" x="221.18406" y="318.22822" width="319.14533" height="29.01911"/></svg>