<svg id="Layer_1" data-name="Layer 1" xmlns="http://www.w3.org/2000/svg" viewBox="0 0 752.42908 678.04895"><defs><style>.cls-1{fill:#fff;}</style></defs><title>fct_vertical_light</title><path class="cls-1" d="M239.35516,472.39494v-38.5511h24.79671v5.19059H245.54038v11.21273h16.90137v5.19206H245.54038v16.95572Z"/><path class="cls-1" d="M290.23263,467.53492h-.27621a8.18981,8.18981,0,0,1-8.22737,5.52262c-5.74446,0-9.61133-3.92122-9.61133-10.82487V443.89592h6.02067v17.45231c0,4.52946,2.04215,6.79346,5.909,6.79346,3.09408,0,6.18522-1.6014,6.18522-4.91586V443.89592h6.02067v28.499h-6.02067Z"/><path class="cls-1" d="M305.54729,472.39494v-28.499H311.568v4.86h.2762a8.19212,8.19212,0,0,1,8.23031-5.52409c5.74153,0,9.60839,3.92269,9.60839,10.82633v18.33675h-6.02067V454.94117c0-4.528-2.04215-6.79346-5.909-6.79346-3.09408,0-6.18522,1.60287-6.18522,4.91585v19.33138Z"/><path class="cls-1" d="M356.81261,467.53492h-.32909a9.00294,9.00294,0,0,1-8.61817,5.52262c-6.6818,0-10.98942-5.13623-10.98942-14.91211s4.30762-14.91357,10.98942-14.91357a9.00416,9.00416,0,0,1,8.61817,5.52409h.32909V431.524h6.02067v40.87092h-6.02067Zm0-4.63965V453.3956c0-3.48047-2.98242-5.24789-6.46142-5.24789-4.528,0-7.12549,3.03825-7.12549,7.6779v4.63965c0,4.63965,2.5975,7.67643,7.12549,7.67643C353.83019,468.14169,356.81261,466.37427,356.81261,462.89527Z"/><path class="cls-1" d="M394.38231,472.39494c-3.42318,0-5.13623-1.93343-5.46826-4.80566h-.27621c-1.10482,3.42464-4.08724,5.46826-8.5594,5.46826-5.8003,0-9.5555-3.25863-9.5555-8.6167,0-5.52262,4.03141-8.505,12.48209-8.505h5.46826v-2.20964c0-3.811-2.04509-5.79883-6.13233-5.79883a8.05146,8.05146,0,0,0-7.34586,3.92123l-3.58772-2.9266c1.6014-3.09407,5.46532-5.6901,11.486-5.6901,7.18132,0,11.60059,3.59066,11.60059,10.10791v14.30534h3.58773v4.74983Zm-5.909-8.505v-4.14307h-5.35954c-4.41633,0-6.51725,1.381-6.51725,3.92123v1.10481c0,2.5402,1.98926,3.86687,5.19206,3.86687C385.65542,468.63974,388.47329,466.70631,388.47329,463.8899Z"/><path class="cls-1" d="M429.02835,449.971l-4.69548,2.5402a6.334,6.334,0,0,0-6.40853-4.30761c-4.528,0-7.17838,3.03825-7.17838,7.56624v4.74984c0,4.47363,2.59456,7.56771,7.29,7.56771a7.25744,7.25744,0,0,0,7.01384-4.52946l4.41927,2.70621c-1.76889,3.92123-5.30372,6.62744-10.99235,6.79346l-.55241,2.5402.22331.22185a8.84805,8.84805,0,0,1,2.37419-.3864,3.53581,3.53581,0,0,1,3.86686,3.75521c0,3.36881-3.14991,4.74984-6.62891,4.74984-3.31445,0-5.19206-1.27084-6.02067-2.31983l2.26546-2.596a4.32918,4.32918,0,0,0,3.479,1.547c1.381,0,2.43-.49658,2.43-1.6014,0-.88444-.66113-1.82324-3.91976-2.20963l-1.381-.166.77279-3.75521c-6.90512-1.05045-10.93653-6.57308-10.93653-14.69173,0-9.11328,5.0804-14.91357,13.47526-14.91357C423.78046,443.23186,427.25946,445.9939,429.02835,449.971Z"/><path class="cls-1" d="M460.68609,472.39494c-3.42317,0-5.13623-1.93343-5.46826-4.80566h-.27621c-1.10482,3.42464-4.08724,5.46826-8.5594,5.46826-5.8003,0-9.5555-3.25863-9.5555-8.6167,0-5.52262,4.03141-8.505,12.48209-8.505h5.46827v-2.20964c0-3.811-2.04509-5.79883-6.13233-5.79883a8.05147,8.05147,0,0,0-7.34587,3.92123l-3.58772-2.9266c1.6014-3.09407,5.46532-5.6901,11.486-5.6901,7.18131,0,11.60059,3.59066,11.60059,10.10791v14.30534h3.58772v4.74983Zm-11.54182-34.62988a9.47041,9.47041,0,0,0-4.08724-1.27083,4.70622,4.70622,0,0,0-3.20574,1.43685l-2.26253-2.87223a6.59883,6.59883,0,0,1,5.68864-3.14844,9.02676,9.02676,0,0,1,4.30762,1.26937,9.459,9.459,0,0,0,4.08724,1.27083,4.70971,4.70971,0,0,0,3.20279-1.43538l2.26547,2.87223a6.60091,6.60091,0,0,1-5.68864,3.147A9.00635,9.00635,0,0,1,449.14427,437.76506Zm5.63281,26.12484v-4.14307h-5.35661c-4.41927,0-6.52019,1.381-6.52019,3.92123v1.10481c0,2.5402,1.98926,3.86687,5.19206,3.86687C451.9592,468.63974,454.77708,466.70631,454.77708,463.8899Z"/><path class="cls-1" d="M469.70387,458.14543c0-9.11328,5.13623-14.91357,13.53109-14.91357s13.53108,5.80029,13.53108,14.91357-5.13623,14.91211-13.53108,14.91211S469.70387,467.25871,469.70387,458.14543Zm20.7653,2.15381v-4.30761c0-5.30225-2.87077-8.00847-7.23421-8.00847s-7.23421,2.70622-7.23421,8.00847v4.30761c0,5.30225,2.87076,8.00846,7.23421,8.00846S490.46917,465.60149,490.46917,460.29924Z"/><path class="cls-1" d="M238.9673,510.19971H244.988v4.86h.332a8.99732,8.99732,0,0,1,8.61524-5.52409c6.6818,0,10.98941,5.1377,10.98941,14.91358s-4.30761,14.9121-10.98941,14.9121A8.9961,8.9961,0,0,1,245.32,533.8387h-.332v15.90674H238.9673ZM258.57488,526.769v-4.63965c0-4.63965-2.59749-7.6779-7.12548-7.6779-3.479,0-6.46143,1.76742-6.46143,5.24789v9.49967c0,3.479,2.98242,5.24642,6.46143,5.24642C255.97739,534.44547,258.57488,531.40869,258.57488,526.769Z"/><path class="cls-1" d="M294.9281,538.69873c-3.42317,0-5.13623-1.93344-5.46826-4.80567h-.2762c-1.10482,3.42464-4.08724,5.46826-8.55941,5.46826-5.80029,0-9.5555-3.25862-9.5555-8.6167,0-5.52262,4.03141-8.505,12.4821-8.505h5.46826v-2.20964c0-3.811-2.04509-5.79882-6.13233-5.79882a8.05145,8.05145,0,0,0-7.34586,3.92122l-3.58773-2.92659c1.6014-3.09408,5.46533-5.69011,11.486-5.69011,7.18132,0,11.60059,3.59066,11.60059,10.10791v14.30534h3.58772v4.74984Zm-5.909-8.505v-4.14307h-5.35661c-4.41927,0-6.52019,1.381-6.52019,3.92123v1.10482c0,2.5402,1.98926,3.86686,5.19206,3.86686C286.20122,534.94352,289.01909,533.01009,289.01909,530.19368Z"/><path class="cls-1" d="M305.10653,533.8387h7.56625v-18.779h-7.56625v-4.86h13.58692V517.766h.32909c1.10482-3.977,3.59066-7.56624,9.391-7.56624h3.42317v5.743h-5.63281c-4.91585,0-7.51041,3.25863-7.51041,7.23568V533.8387h10.32828v4.86h-23.9152Z"/><path class="cls-1" d="M361.23189,538.69873c-3.42318,0-5.13623-1.93344-5.46827-4.80567h-.2762c-1.10482,3.42464-4.08724,5.46826-8.5594,5.46826-5.8003,0-9.55551-3.25862-9.55551-8.6167,0-5.52262,4.03142-8.505,12.4821-8.505h5.46826v-2.20964c0-3.811-2.04509-5.79882-6.13233-5.79882a8.05146,8.05146,0,0,0-7.34586,3.92122l-3.58772-2.92659c1.6014-3.09408,5.46532-5.69011,11.486-5.69011,7.18132,0,11.60059,3.59066,11.60059,10.10791v14.30534h3.58772v4.74984Zm-5.909-8.505v-4.14307h-5.35954c-4.41634,0-6.51725,1.381-6.51725,3.92123v1.10482c0,2.5402,1.98926,3.86686,5.192,3.86686C352.505,534.94352,355.32287,533.01009,355.32287,530.19368Z"/><path class="cls-1" d="M427.53567,538.69873c-3.42318,0-5.13623-1.93344-5.46826-4.80567h-.27621c-1.10482,3.42464-4.08724,5.46826-8.5594,5.46826-5.8003,0-9.5555-3.25862-9.5555-8.6167,0-5.52262,4.03141-8.505,12.48209-8.505h5.46826v-2.20964c0-3.811-2.04509-5.79882-6.13233-5.79882a8.05148,8.05148,0,0,0-7.34586,3.92122l-3.58772-2.92659c1.6014-3.09408,5.46532-5.69011,11.486-5.69011,7.18132,0,11.60059,3.59066,11.60059,10.10791v14.30534h3.58773v4.74984Zm-5.909-8.505v-4.14307h-5.3566c-4.41927,0-6.52019,1.381-6.52019,3.92123v1.10482c0,2.5402,1.98926,3.86686,5.19206,3.86686C418.80878,534.94352,421.62665,533.01009,421.62665,530.19368Z"/><path class="cls-1" d="M469.86842,519.42317c0-12.75829,4.69548-19.93961,14.47136-19.93961,7.45752,0,10.88069,4.30908,12.64664,9.5555l-5.577,1.8776c-1.16065-3.53483-2.76205-6.2954-7.12549-6.2954-5.46826,0-7.84245,4.47363-7.84245,11.54329v6.51725c0,7.06966,2.37419,11.54329,7.84245,11.54329,4.36344,0,5.96484-2.762,7.12549-6.29687l5.577,1.8776c-1.766,5.24789-5.18912,9.5555-12.64664,9.5555C474.5639,539.36132,469.86842,532.18147,469.86842,519.42317Z"/><path class="cls-1" d="M505.393,533.8387h9.723v-18.779h-9.723v-4.86h15.74366v23.639h9.11181v4.86H505.393ZM514.0112,501.749v-1.16064c0-1.82178,1.10481-3.25863,4.08724-3.25863,3.03825,0,4.14306,1.43685,4.14306,3.25863V501.749c0,1.82178-1.10481,3.25863-4.08724,3.25863C515.116,505.00765,514.0112,503.5708,514.0112,501.749Z"/><path class="cls-1" d="M536.28092,524.50357c0-9.16764,5.30078-14.96793,13.41943-14.96793,8.00993,0,13.09033,5.74447,13.09033,14.13932v2.26547h-20.4362v.9388c0,4.47363,2.98536,7.62207,7.89828,7.62207a8.81032,8.81032,0,0,0,7.89827-4.36345l3.75815,3.31446c-1.93343,3.313-5.912,5.909-11.76514,5.909C541.41715,539.36132,536.28092,533.5625,536.28092,524.50357Zm16.349-28.55484,6.626,8.28613-3.2028,2.31836-6.51725-6.4056-6.57308,6.4056-3.03825-2.31836,6.62891-8.28613Zm-10.2754,25.73844v.38639h14.30681v-.55241c0-4.47363-2.762-7.40022-6.96094-7.40022C545.39273,514.12093,542.35448,517.26937,542.35448,521.68717Z"/><path class="cls-1" d="M570.75948,538.69873v-28.499h6.02067v4.86h.2762a8.19212,8.19212,0,0,1,8.23031-5.52409c5.74153,0,9.60839,3.92269,9.60839,10.82634v18.33675h-6.02067V521.245c0-4.528-2.04215-6.79346-5.909-6.79346-3.09408,0-6.18522,1.60287-6.18522,4.91586v19.33138Z"/><path class="cls-1" d="M603.35749,524.44922c0-9.11329,5.0804-14.91358,13.47525-14.91358,5.85613,0,9.33513,2.762,11.104,6.7391l-4.69547,2.5402a6.334,6.334,0,0,0-6.40854-4.30762c-4.528,0-7.17838,3.03825-7.17838,7.56624v4.74984c0,4.47363,2.59456,7.56771,7.29,7.56771a7.25742,7.25742,0,0,0,7.01383-4.52946l4.41928,2.70622c-1.82178,3.97705-5.52409,6.79345-11.48894,6.79345C608.38206,539.36132,603.35749,533.5625,603.35749,524.44922Z"/><path class="cls-1" d="M637.99765,533.8387h9.723v-18.779h-9.723v-4.86h15.74366v23.639h9.11181v4.86H637.99765Zm8.61817-32.08968v-1.16064c0-1.82178,1.10482-3.25863,4.08724-3.25863,3.03825,0,4.14307,1.43685,4.14307,3.25863V501.749c0,1.82178-1.10482,3.25863-4.08724,3.25863C647.72064,505.00765,646.61582,503.5708,646.61582,501.749Z"/><path class="cls-1" d="M692.74786,538.69873c-3.42318,0-5.13623-1.93344-5.46827-4.80567h-.2762c-1.10482,3.42464-4.08724,5.46826-8.5594,5.46826-5.8003,0-9.5555-3.25862-9.5555-8.6167,0-5.52262,4.03141-8.505,12.48209-8.505h5.46826v-2.20964c0-3.811-2.04509-5.79882-6.13233-5.79882a8.05146,8.05146,0,0,0-7.34586,3.92122l-3.58772-2.92659c1.6014-3.09408,5.46532-5.69011,11.486-5.69011,7.18132,0,11.60059,3.59066,11.60059,10.10791v14.30534h3.58772v4.74984Zm-5.909-8.505v-4.14307H681.4793c-4.41634,0-6.51725,1.381-6.51725,3.92123v1.10482c0,2.5402,1.98926,3.86686,5.192,3.86686C684.021,534.94352,686.83884,533.01009,686.83884,530.19368Z"/><path class="cls-1" d="M237.91831,590.80736c0-9.16764,5.30078-14.96794,13.41943-14.96794,8.00993,0,13.09033,5.74447,13.09033,14.13932v2.26547h-20.4362v.9388c0,4.47363,2.98242,7.62207,7.89828,7.62207a8.81034,8.81034,0,0,0,7.89827-4.36344l3.75815,3.31445c-1.93344,3.313-5.912,5.909-11.76514,5.909C243.05454,605.6651,237.91831,599.86628,237.91831,590.80736Zm6.07356-2.81641v.38639h14.30681v-.5524c0-4.47364-2.762-7.40023-6.96094-7.40023C247.03012,580.42471,243.99187,583.57315,243.99187,587.991Z"/><path class="cls-1" d="M328.08146,605.00251c-3.42317,0-5.13623-1.93343-5.46826-4.80567h-.2762c-1.10482,3.42464-4.08724,5.46826-8.55941,5.46826-5.80029,0-9.5555-3.25862-9.5555-8.6167,0-5.52262,4.03141-8.505,12.4821-8.505h5.46826v-2.20964c0-3.811-2.04509-5.79882-6.13233-5.79882a8.05145,8.05145,0,0,0-7.34586,3.92122l-3.58773-2.92659c1.6014-3.09408,5.46533-5.69011,11.486-5.69011,7.18132,0,11.60059,3.59066,11.60059,10.10791v14.30534h3.58772v4.74984Zm-5.909-8.505V592.3544h-5.35954c-4.41634,0-6.51726,1.381-6.51726,3.92122v1.10482c0,2.5402,1.98926,3.86686,5.19206,3.86686C319.35458,601.2473,322.17245,599.31387,322.17245,596.49746Z"/><path class="cls-1" d="M386.87189,571.642v33.36052h-6.18815V571.642H368.5895v-5.19058h30.37663V571.642Z"/><path class="cls-1" d="M403.6763,590.80736c0-9.16764,5.30077-14.96794,13.41942-14.96794,8.00994,0,13.09034,5.74447,13.09034,14.13932v2.26547h-20.4362v.9388c0,4.47363,2.98242,7.62207,7.89827,7.62207a8.81035,8.81035,0,0,0,7.89828-4.36344l3.75814,3.31445c-1.93343,3.313-5.91195,5.909-11.76514,5.909C408.81253,605.6651,403.6763,599.86628,403.6763,590.80736Zm6.07356-2.81641v.38639h14.30681v-.5524c0-4.47364-2.762-7.40023-6.961-7.40023C412.78811,580.42471,409.74986,583.57315,409.74986,587.991Z"/><path class="cls-1" d="M437.5995,590.753c0-9.11328,5.0804-14.91358,13.47526-14.91358,5.85612,0,9.33512,2.762,11.104,6.7391l-4.69548,2.5402a6.334,6.334,0,0,0-6.40853-4.30762c-4.528,0-7.17838,3.03825-7.17838,7.56624v4.74984c0,4.47363,2.59456,7.56771,7.29,7.56771a7.25742,7.25742,0,0,0,7.01383-4.52946l4.41927,2.70622c-1.82177,3.977-5.52409,6.79345-11.48893,6.79345C442.62408,605.6651,437.5995,599.86628,437.5995,590.753Z"/><path class="cls-1" d="M471.30527,605.00251v-28.499h6.02067v4.86h.27621a8.19212,8.19212,0,0,1,8.23031-5.52409c5.74152,0,9.60839,3.92269,9.60839,10.82634v18.33675h-6.02067V587.54873c0-4.528-2.04215-6.79346-5.909-6.79346-3.09408,0-6.18522,1.60287-6.18522,4.91586v19.33138Z"/><path class="cls-1" d="M502.8543,590.753c0-9.11328,5.13622-14.91358,13.53108-14.91358s13.53108,5.8003,13.53108,14.91358-5.13623,14.9121-13.53108,14.9121S502.8543,599.86628,502.8543,590.753Zm20.76529,2.15381v-4.30762c0-5.30225-2.87077-8.00846-7.23421-8.00846s-7.23421,2.70621-7.23421,8.00846v4.30762c0,5.30224,2.87077,8.00846,7.23421,8.00846S523.61959,598.20905,523.61959,592.90681Z"/><path class="cls-1" d="M537.10954,600.14248h9.44384V568.99161h-9.44384v-4.86h15.46451v36.0109h9.44385v4.86H537.10954Z"/><path class="cls-1" d="M569.15808,590.753c0-9.11328,5.13623-14.91358,13.53108-14.91358s13.53109,5.8003,13.53109,14.91358-5.13623,14.9121-13.53109,14.9121S569.15808,599.86628,569.15808,590.753Zm20.76529,2.15381v-4.30762c0-5.30225-2.87076-8.00846-7.23421-8.00846s-7.23421,2.70621-7.23421,8.00846v4.30762c0,5.30224,2.87077,8.00846,7.23421,8.00846S589.92337,598.20905,589.92337,592.90681Z"/><path class="cls-1" d="M615.78375,616.71182c-9.8317,0-13.25487-2.596-13.25487-6.84929,0-3.09261,1.82177-4.694,4.97168-5.52262v-.55241c-1.93343-.71842-3.14991-1.98779-3.14991-4.14307,0-2.8164,2.15381-4.08724,5.13623-4.80419V594.564a9.16216,9.16216,0,0,1-5.46533-8.72689c0-6.075,4.58383-9.99772,11.59766-9.99772a14.68566,14.68566,0,0,1,5.3566.94027v-.94027a3.55283,3.55283,0,0,1,3.811-3.86539h5.19206v4.74983H623.35v1.3252a8.98558,8.98558,0,0,1,3.86686,7.78808c0,6.075-4.58382,9.9419-11.59765,9.9419a17.81286,17.81286,0,0,1-3.53483-.332c-1.3252.332-2.98242,1.215-2.98242,2.762,0,1.76742,1.93343,1.98779,4.41927,1.98779h6.40559c7.6779,0,10.82487,3.20427,10.82487,7.89828C630.75169,613.94977,625.83584,616.71182,615.78375,616.71182Zm3.97853-11.37728h-9.88754a3.3378,3.3378,0,0,0-2.098,3.2028c0,2.15381,1.65723,3.92122,5.85319,3.92122h4.4751c4.528,0,7.01383-1.381,7.01383-3.97705C625.11888,606.54955,623.79369,605.33454,619.76228,605.33454Zm1.54557-18.779v-1.49121c0-3.03825-1.82178-5.08187-5.68864-5.08187s-5.68864,2.04362-5.68864,5.08187v1.49121c0,3.03678,1.82177,5.0804,5.68864,5.0804S621.30785,589.59235,621.30785,586.55557Z"/><path class="cls-1" d="M637.99765,600.14248h9.723v-18.779h-9.723v-4.86h15.74366v23.639h9.11181v4.86H637.99765Zm8.61817-32.08968v-1.16064c0-1.82178,1.10482-3.25863,4.08724-3.25863,3.03825,0,4.14307,1.43685,4.14307,3.25863v1.16064c0,1.82178-1.10482,3.25863-4.08724,3.25863C647.72064,571.31143,646.61582,569.87458,646.61582,568.0528Z"/><path class="cls-1" d="M692.74786,605.00251c-3.42318,0-5.13623-1.93343-5.46827-4.80567h-.2762c-1.10482,3.42464-4.08724,5.46826-8.5594,5.46826-5.8003,0-9.5555-3.25862-9.5555-8.6167,0-5.52262,4.03141-8.505,12.48209-8.505h5.46826v-2.20964c0-3.811-2.04509-5.79882-6.13233-5.79882a8.05146,8.05146,0,0,0-7.34586,3.92122l-3.58772-2.92659c1.6014-3.09408,5.46532-5.69011,11.486-5.69011,7.18132,0,11.60059,3.59066,11.60059,10.10791v14.30534h3.58772v4.74984Zm-5.909-8.505V592.3544H681.4793c-4.41634,0-6.51725,1.381-6.51725,3.92122v1.10482c0,2.5402,1.98926,3.86686,5.192,3.86686C684.021,601.2473,686.83884,599.31387,686.83884,596.49746Z"/><path class="cls-1" d="M134.4515,168.66938H202.157v29.12047H134.4515V327.5422H202.157v29.12047H45.65335V327.5422h55.79747V197.78985H45.65335V168.66938H89.42693a12.02389,12.02389,0,0,0,12.02389-12.02389V138.332a28.05574,28.05574,0,0,1,8.21733-19.8384l31.28217-31.28217a27.90474,27.90474,0,0,1,19.8384-8.05823H202.157v28.96137H134.4515Z"/><path class="cls-1" d="M294.44875,79.15315h70.71441v29.12047H267.61147V250.268h97.55169v29.12047H294.44875a28.05573,28.05573,0,0,1-19.8384-8.21734l-31.78552-31.78551a28.05574,28.05574,0,0,1-8.21733-19.8384V138.9944a28.05574,28.05574,0,0,1,8.21733-19.8384l31.78552-31.78551A28.05573,28.05573,0,0,1,294.44875,79.15315Z"/><path class="cls-1" d="M450.66209,222.25628V108.27362H395.80171V79.15315h42.8365a12.02387,12.02387,0,0,0,12.02388-12.02388v-34.567h33.00069V79.15315h71.153v29.12047h-71.153V250.268h71.153v29.12047H504.159a28.05573,28.05573,0,0,1-21.11436-9.58121L457.60347,240.7308A28.05575,28.05575,0,0,1,450.66209,222.25628Z"/><rect class="cls-1" x="234.6075" y="327.54691" width="320.2083" height="29.11576"/></svg>