<svg id="Layer_1" data-name="Layer 1" xmlns="http://www.w3.org/2000/svg" viewBox="0 0 1000 1000"><defs><style>.cls-1{fill:#fff;}.cls-2{fill:#feea09;}</style></defs><title>logo_marcacao_light@svg</title><path class="cls-1" d="M731.22,587.9c1.82,2.38,4.39,4.15,6.36,6.52,2.84,3.42,5.29,7.08,7.88,10.66,2.74,3.78,2.83,7.79,1.94,11.94a17.51,17.51,0,0,0-.24,6,33.17,33.17,0,0,1-.54,10.7c-.8,3.89-3,7-5.75,9.75-.42.42-.91.78-1.35,1.18s-.91.85-.75,1.52c.21.87,1,1,1.69,1,3.1.2,6.21.31,9.32.5,10.62.65,21.25,1.13,31.73,3.11a155.8,155.8,0,0,1,37.9,12.85c5.82,2.77,11.26,6.34,17,9.3,13.48,6.93,27.07,13.63,41.2,19.24,9.53,3.79,19,7.8,28.51,11.65,5.12,2.06,10.53,3.1,15.83,4.52,10.77,2.88,21.81,3.94,32.91,4.66,5.47.35,10.93.56,16.41.38.89,0,2.06-.24,2.35,1.05s-.47,2-1.41,2.67a5.28,5.28,0,0,1-3.09.68,174.6,174.6,0,0,1-24.74.05,242.46,242.46,0,0,1-30.09-4.53c-10-2-19.63-5.1-29.32-8.11-2.54-.79-4.76-2.29-7.24-3.1C861.78,696.85,847,689,832,681.54c-8.33-4.15-16.89-7.87-25.47-11.5-10.8-4.57-22.11-7.47-33.62-9.71a174.5,174.5,0,0,0-31.65-3.53,24.79,24.79,0,0,0-4.63.36c-13.93,2.56-27.48,6.15-40,13.21-6.65,3.76-13.81,6.52-20.82,9.56-9.76,4.22-19.27,9-29,13.27-6.66,2.93-13.53,5.39-20.31,8.08-4.54,1.8-9,3.82-13.7,5.21-8.13,2.39-16.16,5.09-24.32,7.37-5.74,1.61-11.67,2.55-17.43,4.1-16,4.33-32.36,7.5-48.71,10.3-10.71,1.83-21.42,3.93-32.3,4.63a8.6,8.6,0,0,0-1.43.18c-1.54.38-1.81,1-.86,2.22a52.89,52.89,0,0,0,7.13,7.45c5.34,4.78,10.84,9.36,16.19,14.13a62.61,62.61,0,0,0,8.63,6.35c8,5,16.13,9.84,24.23,14.71,2.09,1.25,2.19,1.24,3.32-.83a4.62,4.62,0,0,1,4.12-2.43c3.14-.18,6.09-1.22,9-2.07a28.34,28.34,0,0,0,13.85-9.05c5.83-6.74,12.76-11.85,21.9-13.28a56,56,0,0,0,6.94-1.77,7.2,7.2,0,0,0,4.22-2.56c4.34-6.18,10.85-9.25,17.48-12.07a47.59,47.59,0,0,0,12.41-7.7c1.9-1.63,3.72-3.37,5.51-5.13a26.62,26.62,0,0,1,11-6.62,14.8,14.8,0,0,0,8.41-6.15c3.28-4.87,7.44-8.94,13.15-11.22,7.61-3,14.15-8,21-12.35,1.61-1,3.14-2.21,5.16-2.35s2.64.76,1.89,2.61a5.61,5.61,0,0,1-2.12,2.38c-.87.62-1.71,1.29-2.63,1.84-7.82,4.62-14.12,11.41-22.5,15.3a21.51,21.51,0,0,0-10.3,9.61,9.18,9.18,0,0,1-4.54,3.92c-7.77,3.6-14.52,8.67-20.87,14.37a54.34,54.34,0,0,1-17.53,10.18c-3,1.14-6,2.62-7.8,5.46-3,4.82-7.93,6.73-12.84,8.59a29.78,29.78,0,0,1-7.28,1.88c-6.26.68-10.58,4.23-13.94,9.11-5.52,8-13.16,12.69-22.51,14.68-1.93.41-2.66,1.29-2.78,3,0,.24,0,.48,0,.72-.21,4.77-1.12,5.19-6,3.9-9.53-2.51-17.74-7.69-26-12.68-7.61-4.57-14.35-10.36-21.21-16S489.18,750.06,482.91,744c-2.83-2.74-5.81-5.37-7.81-8.83a2,2,0,0,0-2.09-1c-3.59.07-7.2,0-10.77.27-11.69.91-23.4,1.72-35.12,1.56-11-.16-22.05.3-33-.43-14.66-1-29.39-1.15-44-3.2-1.78-.25-3.59-.18-5.37-.39-1.16-.15-2.42-.24-3.25-1.29a2.1,2.1,0,0,1-.56-2c.27-.86,1-.88,1.77-.85,3.1.14,6.17.68,9.23,1.11,11.54,1.58,23.13,1.7,34.74,1.7,10.9,0,21.79.22,32.69,0,8.27-.15,16.47-1.05,24.69-1.74,6.08-.51,12.15-1,18.25-1.34,8-.39,15.92-1.73,23.83-3,3.31-.52,6.59-1.31,9.91-1.6a25.27,25.27,0,0,0,10.09-3.47,104.4,104.4,0,0,0,15-10.21c-3.66-.33-6.8-.59-9.94-.9-6.05-.59-12.19-.3-18.14-1.94-5.18-1.43-10.34-3-15.59-4.09-9.16-1.94-17.74-5.56-26.46-8.77-5.83-2.13-11.74-4-17.57-6.16-4.7-1.72-9.34-3.61-14-5.47-8-3.19-16-6.37-23.94-9.64-4.42-1.81-8.78-3.76-13.15-5.7a106.08,106.08,0,0,0-22.54-6.93c-7.52-1.48-15.05-2.93-22.78-2.41a101.07,101.07,0,0,0-18.75,2.79c-10.88,2.81-20.74,7.83-30.58,13a220,220,0,0,1-22.58,10,206.29,206.29,0,0,1-25.91,8.23,184.2,184.2,0,0,1-33.7,4.65,49.46,49.46,0,0,1-5-.19c-1.83-.08-2.79-1.3-2.91-3.68-.08-1.71.61-2.45,2.62-2.53,12.87-.49,25.33-3.41,37.74-6.51,4-1,7.86-2.87,11.89-3.91,10.42-2.68,19.87-7.53,29.2-12.64a236.27,236.27,0,0,1,27.58-13,74.87,74.87,0,0,1,25.17-5c12.33-.36,24.25,1.56,36.13,4.75a368.72,368.72,0,0,1,40.6,13.92c12.08,4.81,24.23,9.48,36.3,14.31,12.8,5.11,26.07,8.62,39.13,12.79,7.16,2.29,14.78,2.83,22.25,3.8,5,.65,9.91,1.57,15,1.71a52.58,52.58,0,0,0,13.46-1.6c1.46-.34,3.37-1.39,4.17.28a4.88,4.88,0,0,1-.65,5.41,59.72,59.72,0,0,1-6.93,6.75,91.67,91.67,0,0,1-8.66,6.4,1.43,1.43,0,0,0-.86,1.35,10.39,10.39,0,0,0,4.37-.24,196.21,196.21,0,0,0,21.36-4.64c9.8-2.71,19.76-4.71,29.58-7.27,11.54-3,23.18-5.68,34.48-9.61q11.35-3.94,22.4-8.59c8.47-3.57,17-7.06,25.42-10.69,15.92-6.84,31.64-14.12,47.22-21.72,4.93-2.41,10.16-4.26,14.74-7.34,6.06-4.08,11.71-8.65,15.86-14.8,2.51-3.73,3.86-7.61,2.21-12.15a5.37,5.37,0,0,1,.76-5.43,3.53,3.53,0,0,0,.09-4,35.32,35.32,0,0,0-7.34-10.07c-5.15-4.8-10.15-9.77-16-13.66s-11.38-8.3-17.63-11.65c-7.79-4.19-15.33-8.84-23.35-12.61-4.1-1.93-8.22-3.84-12.32-5.78-6.59-3.13-13.58-5.23-20.33-8-10.54-4.26-21.54-7-32.59-9.57-6.05-1.39-12.21-2.28-18.23-3.85-12-3.13-24.33-3.54-36.58-4.53-10.12-.81-20.28-1.54-30.45-1.51-9.48,0-18.78,1.48-28.11,3.14a228.74,228.74,0,0,0-27.76,7c-6.26,1.94-12.35,4.43-18.53,6.65-11.94,4.29-23,10.5-34.78,15.2-10.28,4.12-19.64,9.87-29.14,15.4-3.81,2.22-7.93,3.9-11.91,5.83-9.46,4.58-19,9.05-28.74,13-7.88,3.16-15.86,6.09-24.35,7.08a62.74,62.74,0,0,1-24.2-1.61c-11.12-3.06-21.32-8.39-31.83-13-11.18-4.86-22.55-9.36-34.36-12.35-8.55-2.16-17.42-3.09-26.14-4.59-2.12-.37-4.23-.81-6.34-1.24a2.07,2.07,0,0,1-1.71-1.08c-1.16-2.35-.47-3.68,2.18-3.71a137.18,137.18,0,0,1,27.53,2c6.21,1.19,12.45,2.17,18.59,3.86a151.76,151.76,0,0,1,22.44,8.43c9.37,4.24,18.85,8.14,28.59,11.48a45.5,45.5,0,0,0,26.78.94c6.58-1.69,13.23-3.16,19.63-5.52a234.66,234.66,0,0,0,34.95-15.67c10.5-6,21-12,31.85-17.24,8.08-3.86,16.32-7.39,24.5-11,9.39-4.18,19.06-7.63,28.72-11.07,6.07-2.16,12.26-3.94,18.52-5.55a149,149,0,0,1,19.69-3.78,257,257,0,0,1,40.1-1.86c9.21.35,18.38,1.21,27.58,1.49a144.1,144.1,0,0,1,17.79,2.11A253.16,253.16,0,0,1,614.16,531c1.14.31,2.24.77,3.45,1.2a42,42,0,0,0,4.52-13.79c-1.31,2-2.62,4-4,5.93a11.61,11.61,0,0,1-1.06,1.44,3.32,3.32,0,0,1-3.48,1.1,2.9,2.9,0,0,1-2.21-3.22c.15-3.95.25-7.9.18-11.85a132.17,132.17,0,0,0-2-21.38c-.23-1.29-.66-2.53-1.2-4.51-1.88,9.55-6.22,17.34-10.13,25.32-1,2.13-2.37,3.84-5.15,3.72-1.58-.07-2.42-.4-2.39-2.24a33,33,0,0,1,1-6.74,107.94,107.94,0,0,0,1.83-38.83,5,5,0,0,0-.38-.95c-1.08-.05-1.05.85-1.28,1.39a249.66,249.66,0,0,1-12,24.5c-1.29,2.3-2.79,4.47-4.17,6.7a3.36,3.36,0,0,1-3.25,1.78c-2.49-.11-3.27-.66-3.25-3.18a83.74,83.74,0,0,0-.74-10.73c-.06-.52.18-1.2-.94-1.77-.68,1.87-1.44,3.66-2,5.52a20.78,20.78,0,0,1-1.82,4.66c-1.43,2.49-3.51,2.69-5.68.6-.25-.24-.49-.71-.74-.71-3.42-.06-3.33-2.74-3.91-5-.89-3.54-1.95-7.05-3-10.72-1.73,2.24-2.08,4.8-3.08,7.07-.58,1.34-.86,3.29-3,2.76s-2.61-2.24-1.77-4.59c1.76-4.95,3.51-9.9,5.31-14.83.48-1.32.85-3.06,2.56-3.14,2-.08,2.33,1.77,2.82,3.22,1,2.94,1.45,6,2.29,9,1.05,3.8,2.13,7.58,3.38,11.32a17,17,0,0,1,.44,3.06c1.07-.29,1.27-1.2,1.51-2a116,116,0,0,0,4.85-20.89,8.77,8.77,0,0,1,.34-2.09c.32-.84.13-1.95,1.56-2s2.33.15,2.89,1.52a31.91,31.91,0,0,1,2.64,9.63c.3,4,.65,8.07,1,12.86a44.6,44.6,0,0,0,5-9.11c3.31-7.8,6.73-15.56,8.91-23.8a53.63,53.63,0,0,0,1.7-10.21c.06-.94,0-2,1.19-2.35a2.49,2.49,0,0,1,3,1.33,31.48,31.48,0,0,1,4.68,14.51,190,190,0,0,1,.19,30.83c-.1,1.52,0,3.06,0,4.6a2.07,2.07,0,0,0,1.21-1.64c1.81-6.82,3.49-13.67,3.84-20.75.06-1.37,0-2.67,1.41-3.42.71-.38,3.8.68,4.41,1.61a17.7,17.7,0,0,1,2.22,4.09c2.34,7.52,5.13,14.94,5.54,22.92.17,3.35.29,6.69.47,10a5.18,5.18,0,0,0,.6,3,12.23,12.23,0,0,0,2.45-4.5,65.71,65.71,0,0,0,2.9-8.84c.26-1.23.63-2.28,2.26-2.24a2.66,2.66,0,0,1,2.74,2.33,18.17,18.17,0,0,1,.47,3.9,69.42,69.42,0,0,1-1.93,17.77c-.9,4.08-1.74,8.18-2.74,12.23-.37,1.5.15,1.79,1.48,2.07,10,2.09,19.42,5.91,28.83,9.71,17,6.86,33,15.73,49,24.64,4.81,2.68,9.67,5.26,14.56,7.78a19.52,19.52,0,0,0,5.05,1.7c12.7,2.65,24.59-.08,36.34-4.83a208.36,208.36,0,0,0,28.21-14.07c2.25-1.34,4.69-2.38,7-3.6,14.19-7.49,28-15.72,41.39-24.46,8.42-5.49,16.63-11.3,25.19-16.57A274.55,274.55,0,0,1,897,496.44c6-2.6,12.09-5.21,18.3-7.27,8.6-2.86,17.32-5.53,26.52-5.81,2.87-.09,5.73-.23,8.6-.33,6.23-.23,9.8,3.26,10,9.5a26.66,26.66,0,0,1-1.69,9.09,92.88,92.88,0,0,1-12.1,24.26c-6.66,9.64-13.66,19-20.93,28.18-3.5,4.41-7.57,8.32-11.18,12.61-6.37,7.56-13.14,14.88-17.62,23.83a22,22,0,0,0-2.47,13.85,40.19,40.19,0,0,0,8.44,19.48,16.53,16.53,0,0,1,1.38,2.1c6.16,10.76,14.32,20,22.68,29,4.29,4.65,8.19,9.66,12.8,14a4.25,4.25,0,0,1,1,1.49c.36.9.63,1.91-.27,2.65s-1.64,0-2.26-.42A124.54,124.54,0,0,1,924,661.2c-6.43-6.29-12.06-13.23-18.13-19.81a122.57,122.57,0,0,1-16.69-22.31c-6.65-11.68-5.83-23.31.29-34.85a85.13,85.13,0,0,1,12.94-18c3.81-4.1,7-8.75,10.57-13.11,4-5,8.26-9.89,12.22-15a307.72,307.72,0,0,0,19.88-29c2.55-4.18,4.88-8.52,5.86-13.42.54-2.67.23-3.11-2.27-2.88-9.77.91-19.45,2.22-28.86,5.25-15.78,5.09-30.41,12.59-44.93,20.47a270.2,270.2,0,0,0-24.34,15.14c-8.17,5.64-16.64,10.78-24.95,16.17-14.75,9.56-29.8,18.66-45.87,25.91-4.9,2.21-9.7,4.73-14.78,6.39-6.81,2.22-13.8,4-21.05,4.12-3.71.08-7.37.88-11.1.63A1.63,1.63,0,0,0,731.22,587.9Z"/><path class="cls-1" d="M362.41,424.5c11.6-.26,23.17.86,34.78,1,6.65.08,13.3,1.32,20,1.95,15.23,1.44,30.46,3.07,45.3,7,8.2,2.18,16.08,5.37,24,8.54,8.52,3.45,17.11,6.71,25.63,10.15,2.66,1.07,5.19,2.45,7.79,3.65,5.1,2.36,10.2,4.72,15.33,7,1.22.54,2.47,1,3,2.32s-.08,2.29-1.58,2.29a24.58,24.58,0,0,1-7.68-1.59,172.6,172.6,0,0,1-17.21-7.05c-10.68-4.8-21.6-9-32.65-12.87a150,150,0,0,0-18.91-5.39,230.18,230.18,0,0,0-22.93-4.09c-12.13-1.3-24.22-3-36.37-4-9.29-.74-18.63-1-28-.87-11.13.15-22.26-.21-33.38-.68-4.79-.2-9.57.19-14.35.31-9.8.24-19.61.23-29.37,1.48-12.47,1.61-24.76,4.08-37,6.79-9,2-17.75,4.81-26.54,7.45-5.46,1.64-10.59,4.36-15.89,6.57-1.76.74-3.56,1.38-5.34,2.08-11,4.34-21.89,9.12-32,15.24-8.69,5.25-17.43,10.45-26,15.95-5.93,3.83-12,7.42-17.71,11.62-1.25.91-2.53,1.8-3.72,2.78-7.21,5.92-14.61,11.62-21.52,17.87-7.27,6.57-14.11,13.62-21,20.56-5.31,5.31-10.73,10.51-15.7,16.16a210.09,210.09,0,0,0-17,21.62c-3.73,5.56-7.64,11-11.05,16.76-4,6.73-7.41,13.65-9.29,21.28a20.77,20.77,0,0,0-.71,7.81c.26,2,.2,4.06.47,6.07.75,5.55,3,10.17,7.87,13.43A124.51,124.51,0,0,0,64,655c5.7,2.45,11.17,5.46,16.79,8.13,6.92,3.29,14.31,5.37,21.44,8.11,6.81,2.6,13.61,5.22,20.49,7.61,5,1.73,10,3.26,14.94,5.07,6.72,2.45,13.47,4.89,20.31,7,7.07,2.18,14.34,3.73,21.4,5.94,11.06,3.46,22.13,6.9,33.34,9.82,9,2.35,18.1,4.48,27.1,6.88,17,4.54,34.19,8,51.49,11,3.94.69,6.08,2.1,7.72,5.53a55.71,55.71,0,0,0,5.23,8.14,121.7,121.7,0,0,0,28.38,28,143.63,143.63,0,0,0,19.67,12.42c4.26,2.14,8.76,3.81,13.15,5.68a1.66,1.66,0,0,0,1.68-.16,86.68,86.68,0,0,1-9.06-4.46,210.21,210.21,0,0,1-22.38-13.45c-6.95-4.79-12.2-11.07-17.77-17.11-4-4.3-6.66-9.61-9.77-14.56a6.49,6.49,0,0,1-.8-4.48c.22-1.68,1.32-2.17,2.68-1.13a6.42,6.42,0,0,1,1.4,1.62,140.79,140.79,0,0,0,11,14.6,84.26,84.26,0,0,0,17.2,16.09c10.27,7.12,21.3,12.84,32.33,18.59a111.5,111.5,0,0,0,16,7.16c1,.33,1.89,1,3,.65.37-1.08-.47-1.61-1-2.16-2.71-3-5-6.43-7.7-9.46-2.19-2.45-2.78-5.72-5.64-8.46a7.93,7.93,0,0,1,5.95,3.44c5.3,6.5,11.82,11.84,17,18.48a16.7,16.7,0,0,0,5.34,4.66,1.77,1.77,0,0,1,1.12,2,2.13,2.13,0,0,1-1.69,2,7.66,7.66,0,0,1-2.14.12,61,61,0,0,1-13.81-2c-8.15-2.36-16.35-4.52-24.52-6.8-5.17-1.45-10.14-3.5-15.17-5.38-6.21-2.33-11.7-5.91-17.48-9-5.53-3-9.95-7.46-14.7-11.46-2.09-1.76-4.35-3.26-6.35-5.17a192.38,192.38,0,0,1-19.63-21.82,4.44,4.44,0,0,0-3.14-2.06c-6.34-.63-12.35-2.71-18.53-4.07-9.1-2-18.12-4.44-27.32-6-7-1.2-13.69-3.35-20.55-4.94-7.34-1.71-14.69-3.38-21.9-5.51-12.94-3.82-26-7.31-38.72-11.76C150,698.81,139.63,695,129.11,692c-12.47-3.62-24.2-8.88-36.1-13.83-12.93-5.37-25.55-11.39-37.93-17.92-3.27-1.73-6.62-3.31-9.93-5A38.43,38.43,0,0,1,30,641.37a20.17,20.17,0,0,1-3.46-11.14,5.64,5.64,0,0,1,.93-3.75,3.3,3.3,0,0,0,.29-3.71c-2.22-5.09-1.62-10,.61-14.9,3-6.63,5.67-13.44,9.46-19.71,6.77-11.19,14.8-21.44,23-31.57,5.27-6.5,10.95-12.63,16.08-19.26a96.32,96.32,0,0,1,15.52-15.88c4.73-3.83,9.23-7.94,14-11.78,6.78-5.5,13.73-10.77,20.79-15.9,4.26-3.09,8.45-6.29,12.7-9.39,4.84-3.54,9.74-6.95,14.78-10.19A373.38,373.38,0,0,1,192.6,452.4c7.29-3.57,15-6.24,22.54-9.22,10-4,20.43-6.62,30.78-9.51,2.87-.8,5.61-2,8.62-2.34a3.37,3.37,0,0,0,3.28-2.79c1.44-7.05,4.1-13.71,6.73-20.38a123.94,123.94,0,0,1,12.63-24.49,27.75,27.75,0,0,1,4.19-4.91,3.26,3.26,0,0,1,4-.72c1.16.71,1.37,2.12,1.18,3.51s-.34,3.08-.5,4.63c1.25.27,1.36-.8,1.8-1.36,7.46-9.65,14.79-19.41,24.42-27.1,1.12-.89,1.84-2.23,3.17-2.88,2.3-1.11,3.69-.34,3.75,2.2a59.68,59.68,0,0,0,.73,8.56c.26,1.56,1.08,1.8,2.08.6,5.07-6.1,11.34-11,16.81-16.67,3.75-3.89,8.22-6.94,12.22-10.55a8.81,8.81,0,0,1,4.82-2.24c1.88-.22,2.75.55,2.44,2.42s-.17,3.81-.86,5.64a7.63,7.63,0,0,0-.29,3.91c.39,2.66,1,3.16,3.75,2.63,6.8-1.33,13.59-2.77,20.39-4.12a27.43,27.43,0,0,1,6.77-.5c2.93.16,3.78.82,4.7,3.48a2.54,2.54,0,0,1,.19.69c0,3.8,2.08,5.58,5.6,6.08a29.3,29.3,0,0,1-4.32,5.53,15.31,15.31,0,0,1-5-7.68c-.9-2.7-1.64-2.95-4.3-2.34-5,1.15-10,2.36-15,3.46-3.6.78-7.11,2-10.89,1.9-4.07-.09-5.67-1.25-6.33-5.24-.17-1-.08-2.13-.87-2.94a1.71,1.71,0,0,0-1.35.49c-5.37,5.1-10.72,10.22-16.13,15.28-2.54,2.36-5.19,4.61-7.8,6.89a8.2,8.2,0,0,1-5.53,2.23c-2.77,0-3.46-.48-4.58-3.08-.69-1.61-.39-3.5-1.42-5.16-2.49,1.41-3.77,3.83-5.7,5.56a103.33,103.33,0,0,0-11.56,12.66c-3.67,4.58-7.61,8.91-11.4,13.37-2.63,3.1-4.85,3.09-7.86.21a139.16,139.16,0,0,0-11.62,30.37,7.27,7.27,0,0,0,1.46.21c9.37-1.14,18.75-2.14,28.18-2.73,8.59-.53,17.14-1.65,25.77-1.54,7.06.09,14.12,0,21.18-.07C349.76,424.88,356.08,424.48,362.41,424.5Z"/><path class="cls-1" d="M373.44,257c-1.32.53-1.76,1.92-2,3.29-.75,5.33-2.41,10.49-2.9,15.86-.3,3.18-1.35,4.21-4.54,4.44-1.66.13-3.36-.2-5-.05-2.2.19-2.9-1-3.31-2.84-1.5-6.66-2.47-13.4-3.62-20.12-.45-2.59-1-5.17-1.5-7.74a10.85,10.85,0,0,0-.8-2.37c-.35-.74-.74-1.77-1.67-1.66-1.19.15-1.25,1.35-1.22,2.27.19,6.09-.3,12.21.46,18.29.36,3,.8,5.94,1,8.92.28,5-1.41,6.7-6.47,6.69a13.55,13.55,0,0,1-1.43-.09c-4.13-.44-5.06-1.11-5.28-5.23-.34-6.57-.34-13.16-.46-19.74-.29-16.64.95-33.26.92-49.89,0-3.11.11-3.15,3.12-3.58a36.23,36.23,0,0,1,10-.1c3.51.48,4.27,1.14,4.93,4.64.77,4.11,1.28,8.26,1.94,12.4,1,6.25,2,12.52,3,18.76.33,2,.64,4,2.46,5.35,1.49-.66,1.66-1.95,1.83-3.29q2.15-16.72,4.91-33.36c.53-3.2.53-3.16,3.63-3.63a59.18,59.18,0,0,1,10.39-.43c2.89.08,3.13.36,3.64,3.3a10.54,10.54,0,0,1,.19,1.78c.12,20.1,2.15,40.16,1.65,60.28-.06,2.51-.18,5-.08,7.54a2.81,2.81,0,0,1-2.51,3.29,18.14,18.14,0,0,1-6.77.38c-2.73-.48-3.14-.77-3.48-3.62a35.39,35.39,0,0,1,.19-8.6c.42-3.33.73-6.67-.25-10C374.34,257.76,374.35,257.21,373.44,257Zm-17.09,16.76a14.58,14.58,0,0,0,.27,2.27c.31,1.08.88,2,2.18,2a2.15,2.15,0,0,0,2.14-1,2.55,2.55,0,0,0-.06-3,10.3,10.3,0,0,0-1.54-1.48c-1.8-1.6-2.07-2.51-1.18-4.65.41-1,1.06-1.88,1.46-2.88.81-2,.31-3.25-1.39-3.7s-2.71.42-3.1,2.55a8.56,8.56,0,0,0,.53,4.93C356.36,270.46,357.2,272.05,356.35,273.77Zm-17.84-6c.3-3.16.46-6.15,2-8.93.64-1.15-.75-2.75-2.28-3s-1.73,1.16-1.85,2.05A12.91,12.91,0,0,0,338.51,267.79ZM349,205.7a1.6,1.6,0,0,0-1.84,2,7.12,7.12,0,0,0,1.64,3.52,1.9,1.9,0,0,0,3.06-.26C352.86,209.14,351.05,205.82,349,205.7Zm31.59-.38a2,2,0,0,0-1.8,2.14,2.77,2.77,0,0,0,2.81,2.66,1.75,1.75,0,0,0,1.72-1.9A2.79,2.79,0,0,0,380.58,205.32Zm-42.35,30.82c1.19-.06,2.44-1.66,2.39-3-.05-1.13-.68-1.86-1.75-1.71a2.57,2.57,0,0,0-2.18,2.79C336.69,235.16,337,236.07,338.23,236.14Zm45.54,35.93c-.82.06-1.33.46-1.33,1.32s.76,1.15,1.46,1.14a1.11,1.11,0,0,0,1.15-1.1C385.1,272.55,384.58,272.17,383.77,272.07Zm1.4-15.79c-.09-.48-.17-1-.8-.95a1.51,1.51,0,0,0-1.63,1.45.86.86,0,0,0,1,1.09C384.69,257.83,385.11,257.18,385.17,256.28Zm-13.66-47.11c-.06-.52-.25-1-.81-.82-.76.24-.9,1-.85,1.67,0,.32.18.77.61.66A1.42,1.42,0,0,0,371.51,209.17Zm11.17,6.17c0-.48-.32-.63-.67-.66a.91.91,0,0,0-1.05.74.65.65,0,0,0,.79.83A1,1,0,0,0,382.68,215.34Zm-44.21,3c-.57.19-.7.52-.66.87s.22.71.69.55A.69.69,0,0,0,339,219C338.92,218.62,338.74,218.33,338.47,218.39Zm46,47.81c0-.36-.13-.7-.52-.71a.62.62,0,0,0-.71.6.67.67,0,0,0,.57.71C384.28,266.89,384.38,266.53,384.48,266.2Z"/><path class="cls-1" d="M132.28,525c13.95-1,26.3,11.74,28.28,23,1.56,8.83-2.64,23.89-13.4,29.67-7.59,6.77-23.32,5.22-30.6-1.75-7.8-7.46-12-16.5-10.75-27.69A25.76,25.76,0,0,1,132.28,525Z"/><path class="cls-1" d="M411.65,364A41.65,41.65,0,0,1,417,357.4c3.43.09,5.87,2.17,7.85,4.53,2.36,2.82,5.33,3.9,8.73,4.36,5.44.75,10.93,1.2,16.31,2.43a11.59,11.59,0,0,1,5.36,2.68,22.78,22.78,0,0,0,14.51,6.24,17.16,17.16,0,0,1,9.09,2.91c.7.47,1.44.85,2.18,1.26,4.35,2.4,9.12,1.21,12.05-3,1.93-2.77,2.76-3.12,5.91-1.76,4,1.75,8,3.64,12,5.56,12.39,6,24.46,12.55,36.59,19,11.43,6.11,22,13.58,32.57,21,2.65,1.84,5.41,3.54,7.94,5.53,10.12,8,20.52,15.65,29.49,25,1.4,1.47,3,2.73,4.5,4.11,5.9,5.41,11,11.54,16.5,17.38,4.4,4.71,9.08,9.14,13.26,14.05,4.48,5.26,9,10.52,13.5,15.73,2.67,3.06,5.45,6,8.17,9.05,1.11,1.25,2.25,2.5,2.11,4.59a3.19,3.19,0,0,1-3.08-1,323,323,0,0,1-25.41-24.11c-7.71-8.29-15.43-16.58-23.72-24.36-7.22-6.77-14.26-13.74-21.66-20.32-2.31-2.06-4.86-3.85-7.27-5.8a356.8,356.8,0,0,0-44.92-30.82c-9.39-5.48-18.89-10.74-28.72-15.46-6.79-3.25-13.69-6.18-20.6-9.12a2.87,2.87,0,0,0-3.47.35c-4.48,3.43-12.14,4.34-17.28-.13-1.08-.94-2.34-1.67-3.5-2.51a7.59,7.59,0,0,0-5.4-1.43c-2,.21-4.07,0-6.1.18a8.86,8.86,0,0,1-8.27-4.13c-2.8-4.07-6.51-5.57-11.39-5.22-3.92.28-7.89-.05-11.84-.1a8.7,8.7,0,0,1-7.58-4.05,24.12,24.12,0,0,0-3.9-4.1,7.9,7.9,0,0,0-5.95-2.07C414.27,364,413,363.94,411.65,364Z"/><path class="cls-1" d="M477.91,281.44a10.17,10.17,0,0,0-3.51.35c-5.53.87-7.63-.35-9.4-5.45,0-5,0-10,0-15.07a16.88,16.88,0,0,0-.68-5.32,5.86,5.86,0,0,0-4-3.82c-2.83-.94-4.9.28-5.65,3.21-.83,3.19-.47,6.43-.27,9.65a87.09,87.09,0,0,1-.65,13.6,2.4,2.4,0,0,1-2.33,2.55,30.91,30.91,0,0,1-6.44.36c-3.23-.2-4.23-1.13-4.47-4.41-.42-5.74-.28-11.48-.27-17.23,0-8.73,0-17.47,0-26.2s-.16-17.47.65-26.19c.19-2,.79-2.85,2.89-3.2,7.87-1.32,15.7-1.8,23.51.17,7.22,1.83,10,5.23,10.52,12.57a67.21,67.21,0,0,1-.84,16.46,21.88,21.88,0,0,1-3.09,8.72c-.95,1.38-1.43,3-.21,4.31,3.52,3.84,3.74,8.65,4.22,13.4-.44,7,.21,13.93.68,20.88l0,0c-.38.12-.76.25-.8.74Zm-2.18-18.16c-.28-1.12-.74-1.57-1.49-.32a2.69,2.69,0,0,0-.43,2,4.72,4.72,0,0,0-.14,1c0,.52-.2,1.29.63,1.37a1.25,1.25,0,0,0,1.24-1A5,5,0,0,0,475.73,263.28ZM464.7,228c0-1.19.07-2.39,0-3.57a34.28,34.28,0,0,0-.51-3.91c-.6-3.19-2.27-4.41-5.57-4.14s-4.44,1.47-4.46,4.8c0,3.94.08,7.88.17,11.81a13.27,13.27,0,0,0,.92,4.54c.86,2.18,2.15,2.78,4.23,1.89a7.44,7.44,0,0,0,4.81-5.37A19,19,0,0,0,464.7,228Zm-22.89-9.6a15,15,0,0,0,1,5.55c.23.53.56,1.11,1.26,1s.88-.81.82-1.34a8.29,8.29,0,0,1,1.57-5.33,6.5,6.5,0,0,0,.48-.95c.71-1.93.14-3.73-1.33-4.2-1.77-.57-3.34.57-3.69,2.75A20.39,20.39,0,0,0,441.81,218.43Zm3.89,29.29c0-.94-.4-1.82-1.63-1.76a1.79,1.79,0,0,0-1.81,2.18c.1.92.37,2.07,1.63,2S445.68,249.08,445.7,247.72Zm30.11-29.89c0-.92-.24-1.67-1.26-1.84a2.12,2.12,0,0,0-2.31,2.1,1.5,1.5,0,0,0,1.52,1.6A1.82,1.82,0,0,0,475.81,217.83Zm-9.31,19.54a1.33,1.33,0,0,0,.35,0c1.1-.27,2.4-1.94,2.23-2.85a.85.85,0,0,0-1.05-.69c-1.37.22-1.8,1.36-2.13,2.5A.8.8,0,0,0,466.5,237.37Zm2.4,37.73a1.13,1.13,0,0,0-1.16,1.26c0,.81.42,1.39,1.25,1.22a1.12,1.12,0,0,0,.75-1.38C469.63,275.63,469.42,275.08,468.9,275.1Zm-12.59-27.68c-.64.13-1.31.31-1.27,1,.07,1,.9,1.27,1.76,1.24a1,1,0,0,0,1-1.16C457.68,247.6,457,247.46,456.31,247.42Zm-11.78,15.41a10.39,10.39,0,0,0,.25-1.42c0-.52.26-1.33-.52-1.36-.94,0-1,.74-.82,1.48A1.78,1.78,0,0,0,444.53,262.83Zm6.68,14.67a.65.65,0,0,0-.77-.57c-.49.06-.95.28-1,.84s.4.84.93.75A1,1,0,0,0,451.21,277.5Zm-7.37-3.18a1.52,1.52,0,0,0,1.46-1.55.55.55,0,0,0-.7-.57,1.37,1.37,0,0,0-1.19,1.49C443.41,274,443.6,274.38,443.84,274.32Z"/><path class="cls-1" d="M592.9,288.29c-1.36-1.43-2.61-2.55-2.94-4.3-.22-1.17-1.2-1.68-2.19-2.19-1.59-.82-3.17-1.68-4.7-2.61-4.61-2.79-7.42-6.77-7.57-12.26-.31-11-.52-22-.7-33A55.74,55.74,0,0,1,576.36,219a30,30,0,0,1,2.35-6.38,17.2,17.2,0,0,1,26.3-5.72c7.14,5.53,9,14.46,7.35,22.65-.24,1.15-1,1.46-2,1.75a15.88,15.88,0,0,1-7.81-.21,2,2,0,0,1-1.72-2c-.19-1.67-.44-3.32-.72-5a18.66,18.66,0,0,0-.63-2.78c-1-2.9-2.41-4.06-4.82-3.95-2.26.1-3.83,1.57-4.33,4.5a72.57,72.57,0,0,0-.86,8.2c-.57,10.4-1,20.8-.24,31.21a18.44,18.44,0,0,0,1.21,5.94c.86,2,2.15,2.65,4.32,2.2a6,6,0,0,0,4.64-4,15.06,15.06,0,0,0,.71-4.95,13.26,13.26,0,0,1,.69-4.24c.31-.93.78-1.82,1.89-1.92,2.62-.21,5.24-.67,7.87-.18a2.55,2.55,0,0,1,2.46,2.57c.3,5.93-.24,11.71-2.88,17.15a19.88,19.88,0,0,1-4.62,5.89c-2.48,2.29-3.56,3.54-1.46,7.46,2,3.66.66,7.39-3.17,9.33-4.74,2.4-9.49,1.94-14-.68a4.84,4.84,0,0,1-1.56-1.46c-1.94-2.93-1.47-4.06,1.66-4.86.92-.24,1.9-.23,2.84-.39A6.21,6.21,0,0,0,592.9,288.29Zm-16.44-61.86c0,1.19.17,2.29,1.06,2.7s1.78-.32,2.42-1.06a6.9,6.9,0,0,0,1.75-3.82,2.14,2.14,0,0,0-1.32-2.3,2,2,0,0,0-2.51.73A6.72,6.72,0,0,0,576.46,226.43Zm1.91,25.29a6.41,6.41,0,0,0-1.1,5.32,1.59,1.59,0,0,0,3.16-.06A5.32,5.32,0,0,0,578.37,251.72Zm20.9,19.15c3.41-1.32,4.42-3,3.48-6C601.43,266.86,599.38,268.19,599.27,270.87Zm-22.89-37.28c.07,1-.07,2.44,1.32,2.43s1.41-1.42,1.38-2.48-.2-2.43-1.58-2.32C576.38,231.31,576.42,232.59,576.38,233.59Z"/><path class="cls-1" d="M703.57,240.41c0,5.5.09,11,0,16.5a45.57,45.57,0,0,1-2.15,13.4c-1.79,5.43-5.35,9-11,10.22-4.68,1-9.37,2-14.2,1a7.82,7.82,0,0,1-4.64-2.49c-2.92-3.45-5.26-7.3-5.26-11.9,0-11.73-1.45-23.38-1.54-35.11,0-8.13,2.81-15.18,6.49-22.07a11.06,11.06,0,0,1,7.18-5.53,37.3,37.3,0,0,1,12.79-1.15,10.22,10.22,0,0,1,8,4.81,29.29,29.29,0,0,1,4.86,18c-.18,4.78-.41,9.56-.62,14.34ZM690.79,242c0-5.26,0-10.52,0-15.78a14.46,14.46,0,0,0-.67-5.3c-.88-2.32-2.07-3.35-4.07-3.42-2.18-.07-3.63.93-4.48,3.37a19.88,19.88,0,0,0-.92,4.18q-1.27,11-2.45,22.09a48.08,48.08,0,0,0,1.44,18.1c.54,1.95,1.56,3.56,3.86,3.65a4.86,4.86,0,0,0,4.6-2.85,15.26,15.26,0,0,0,1.89-6.85C690.25,253.42,690.7,247.7,690.79,242ZM681,212.81c-.82.77-1.5,1.43-2.19,2.07-1.76,1.62-3,3.35-1.79,5.92a3.84,3.84,0,0,1-.3,3.11c-.26.61-.25,1.2.56,1.34a.86.86,0,0,0,1-.77c0-2.92,1.89-5,3-7.48C681.87,215.73,682.56,214.35,681,212.81ZM675.27,279a2.2,2.2,0,0,0,2.14-2c0-1.54-1.86-3-3.88-2.92-.95,0-1.6.29-1.63,1.41A3.56,3.56,0,0,0,675.27,279Zm17.91-24a2,2,0,0,0-1.34,1.52c-.51,1.54-.08,3.45.9,3.86a1.36,1.36,0,0,0,1.61-.43,3.22,3.22,0,0,0,.19-3.94A1.75,1.75,0,0,0,693.18,255.06Zm3.32,13.23c0,1.14.49,1.84,1.34,1.94,1.11.12,2.24-1.11,2.33-2.61.07-1-.08-2-1.42-1.91C697.15,265.85,696.77,267.15,696.5,268.29Zm-24.62-43.81a1.17,1.17,0,0,0-1.34-.84c-1.36.1-2.83,1.68-2.6,2.85a1.08,1.08,0,0,0,1.26,1C670.4,227.31,672,225.57,671.88,224.48Zm27.54-6.83a1.55,1.55,0,0,0,1.11-1.72c-.14-1.08-.47-2.13-1.89-2.05a1.43,1.43,0,0,0-1.42,1.66C697.27,216.74,697.91,217.49,699.42,217.65Zm-29.55,46.48a2.08,2.08,0,0,0,1.38-2c0-.68-.38-1.21-1.06-1.08a1.89,1.89,0,0,0-1.65,2C668.54,263.68,669,264.08,669.87,264.13Z"/><path class="cls-1" d="M258.48,488.51c1.14-1.61,2.33-3.05,3.25-4.64,1.95-3.34,4.83-5.93,7.11-9a1.73,1.73,0,0,1,.52-.49c1-.57,2.13-1.6,3.19-.42s-.14,2-.85,2.72c-2.71,2.87-4.24,6.63-7.14,9.37-1.51,1.43-.16,2.17,1.21,3.27-.23-2.14,0-3.69,2.45-3.26,1,.18,1.38-.61,1.87-1.34,1.2-1.78,2.48-3.5,3.8-5.19a15.85,15.85,0,0,1,2.22-2.34c.81-.68,1.86-1.51,2.82-.41s.15,2.15-.63,2.81c-2.08,1.74-2.92,4.31-4.79,6.27,1.24.62,2.59.53,3.28,1.91,1.32-.92,2.11-2.39,3.75-2.65,1.44-.22,2.12.37,1.63,1.77a11.16,11.16,0,0,1-1.47,2.85c-.89,1.25-1.17,2.57.14,3.46,1.1.74,2.27.21,3-1a3.76,3.76,0,0,1,.39-.59,1.93,1.93,0,0,1,2.53-.72c1,.53.59,1.61.19,2.24-1.46,2.28-.33,4,.89,5.87,2.07,3.08,4.41,5.95,6.76,8.81.8,1,2.2,2.25,1,3.35s-2.34-.44-3.34-1.22a12.61,12.61,0,0,1-2.71-3.5,6.13,6.13,0,0,0-1.91,3.09c-.48,1.42-.54,3,.83,3.92,2.11,1.32,1.57,2.82.48,4.2a43.84,43.84,0,0,0-4.16,6.69c-1.37,2.56-3.86,3.78-5.77,5.66-.88.86-1.49-.26-2.24-.4s-1.44-1.1-2.25-.2-.14,1.57.1,2.34,1,1,.66,2.11c-3.46-.1-4.88-3.32-7.31-4.94-.28-.13-.44,0-.55.27a4.92,4.92,0,0,1-1.75,2.21c-1.27,1,.06,1.62.43,2.37s1.06,1.57.84,2.61c-1.32.8-2.41.15-3.25-.69-2.26-2.25-4.31-4.7-7.21-6.24-1.1-.59-1-2.14-1.79-3a.77.77,0,0,0-1-.18.63.63,0,0,0-.33.87,9.4,9.4,0,0,1,.94,3.54c-1.77.8-3.2.11-4.49-1.06-1-1-2-2-3.06-3-1.17-1.18-1.93-3.07-4.3-1.68-.77.46-1.74-.44-1.72-1.68a18.47,18.47,0,0,0-.11-3.57c-.17-.92-.6-1.5-2-1.2-2.63.57-3.46-.58-2.61-3.18.26-.79.72-1.51,1-2.28.23-.52.52-1.06-.22-1.51-1.91-1.14-1.06-2.73-.47-4.1,1.94-4.55,5-8.41,8-12.24.37-.47,1-1.13,1.45-.88,2.13,1.1,2.16-.71,3.09-1.76a22.31,22.31,0,0,0,4.49-6.75,2.94,2.94,0,0,1,1.61-1.35,3.16,3.16,0,0,0,2.08-2.26,2.65,2.65,0,0,1,1.36-1.58,1.58,1.58,0,0,1,2,.22c.51.48.17,1.13-.19,1.62-.62.86-1.36,1.65-1.95,2.53C257.42,486.23,257.46,486.29,258.48,488.51ZM254,505.31c-.16-.28.51-.7-.15-.89l.15.85c1,.35.83,1.88,2.44,2.19C255.6,506.45,255.81,504.9,254,505.31Zm24.52,21.4a6.08,6.08,0,0,1,1-3c1.93-2.28,3.29-5,5.46-7.06A4.1,4.1,0,0,0,286.6,514a1.35,1.35,0,0,0-.9-1.41c-.49-.16-.84.3-1.05.71-.63,1.26-.92,2.94-1.92,3.72-2.44,1.92-3.44,4.75-5.19,7.08C276.78,525.1,276.94,526.12,278.56,526.71Zm5.8-20.54c2.57-2.42,2.65-3,1.05-4.62a1.88,1.88,0,0,0-2.59-.26,1.59,1.59,0,0,0-.41,2.48A30.47,30.47,0,0,0,284.36,506.17ZM247,517.87a.79.79,0,0,0-.47.85c.18,1.49,5.18,7.4,6.5,7.69a1,1,0,0,0,.63-.2.65.65,0,0,0,.13-.93,2.83,2.83,0,0,0-1.75-1.65c-1.59-.38-2.24-1.53-2.74-3a12.83,12.83,0,0,0-1.41-2.45A.71.71,0,0,0,247,517.87Zm21.15-8.08c-2.28,2.72-2.26,3,1.15,5.71C270.76,513.31,270.76,513.31,268.12,509.79Zm2.58-5.16c-.63,2.46.49,4.08,2.46,5.6C274.77,507.07,272.38,506,270.7,504.63Zm-14.12,12.25c-1.45,2.77-1.45,2.77.61,4.75C258.62,519,258.62,519,256.58,516.88Zm-5.47-6.83c-1.72,1.92-1.17,3.58.55,5.17C253.15,512.57,253.15,512.57,251.11,510.05ZM246.63,504c-1,1.22-1,2.6-1.59,3.75-.24.51.21.83.62,1.1a.77.77,0,0,0,1.17-.34C247.76,507,248.47,505.53,246.63,504Zm15.07,24.19a8.22,8.22,0,0,0,1.9-3.42c.26-.77-.47-1.3-1.09-1.66a.61.61,0,0,0-.89.28C260.92,524.86,260,526.35,261.7,528.16Zm-2.92-26.4c2.25-2,.7-3.53-.52-5.09C256.33,498.52,257.53,500,258.78,501.76Zm4.65,6.65c.62-1,1.23-1.79,1-2.82-.15-.72-.48-1.41-1.31-1.41-1.11,0-1.37,1-1.3,1.76A4.44,4.44,0,0,0,263.43,508.41Zm17.09,2.67c1.67-2.25,1.67-2.25-.18-4.23C278.61,508.2,279.67,509.51,280.52,511.08Zm-3.59-16.48c.63,2.86.78,3.07,3,4.37C279.46,497.13,278,496.05,276.93,494.6Zm-2.62,4.76c-.65,2,.75,2.81,1.34,4,.22.46.44,1.29,1.19.72s.62-1.19,0-1.83C276,501.31,275.17,500.33,274.31,499.36Zm4.23,14.51c-.32-.63-.46-1.57-1.34-1.44a1.32,1.32,0,0,0-1.05,1.61c.14.67.53,1.55,1.34,1.46S278.4,514.55,278.54,513.87Zm-24.06-18.93c1.25-1.88,1.25-1.88-.15-3.8C253.07,492.47,252.78,493.74,254.48,494.94Zm12,25.64c.26-1.77-.89-2.53-1.74-3.43a.88.88,0,0,0-.56.33c-.43,1.48,1.17,1.82,1.63,2.81C265.81,520.37,266,520.39,266.44,520.58ZM259,510.94a6.19,6.19,0,0,0,2,3.16A3.52,3.52,0,0,0,259,510.94Zm16.2,6.74c-1.95,2.12-1.94,2.13-1.67,4A6.67,6.67,0,0,0,275.2,517.68Zm-7.51-16a3.53,3.53,0,0,0-1.62-3.61C265.68,499.72,266.45,500.54,267.69,501.68Zm-6.55-9.57c.43,1.06.54,2.45,2.38,2.88C262.83,493.64,262.57,492.47,261.14,492.11Zm-9.69,9a2.3,2.3,0,0,0-1.39-2.66c-.12-.06-.52.16-.56.31-.35,1.29.64,1.82,1.47,2.42C251,501.26,251.16,501.19,251.45,501.15ZM272.65,488c-.71,1.52-.71,1.52.75,3C272.68,490.21,273.07,489.08,272.65,488Zm-1.89,36.14a.58.58,0,0,0-.66.62c0,.33.14.91.31.94.55.1.86-.34.94-.83S271.11,524.25,270.76,524.14Zm0-28.18c.21-1.13-.8-1.33-1.29-1.88C269.65,494.84,269.71,495.68,270.77,496ZM243.5,515a2.46,2.46,0,0,0-1.33-2.87C241.81,513.52,242.36,514.19,243.5,515Z"/><path class="cls-1" d="M484.29,252.76c0-6.33-.42-12.65,0-19a96.16,96.16,0,0,1,2.21-15.58,33,33,0,0,1,1.54-4.76c4.8-11.71,17.44-12,24.28-8.11,7.34,4.18,11.8,15.18,9.44,23.31-.46,1.6-1.11,2.89-2.91,3.19-2-.24-4,.29-6,.31-3.16,0-4.29-.88-4.92-3.93-.24-1.16-.43-2.33-.64-3.5a10.12,10.12,0,0,0-.75-5.22,3.06,3.06,0,0,0-2.66-2.08,2.93,2.93,0,0,0-3.16,1.8,13.43,13.43,0,0,0-1.18,3.34,40.9,40.9,0,0,0-.56,11.69c0,5.61-.05,11.22,0,16.84a12.66,12.66,0,0,0,.5,4.61c-.43,3.89,1,7.28,3,10.5.78,1.27,1.7,2.41,3.37,2.26s2.6-1.49,3.18-3c.88-2.3.67-4.73.91-7.1.57-5.77.53-5.77,6.29-6.86a12.74,12.74,0,0,1,2.14-.23c2.84-.06,3.9.84,4.08,3.76a44.4,44.4,0,0,1-.17,5,18.78,18.78,0,0,0-.2,3.57c1,7.12-6.69,17.74-15,18.15a33.36,33.36,0,0,1-9.27-.45,13.5,13.5,0,0,1-8.86-6.8c-.58-1-1.12-2.11-1.68-3.16-.06-2-1.3-3.79-.77-5.84,1.39.82.73,3,2.4,3.62.94,1.1,1.89.79,2.66-.13s1.4-2.2.18-3.39c-1.14-1.47-2-3-.95-4.9a1,1,0,0,0-.4-1.27,1.29,1.29,0,0,0-1.35.13,3.73,3.73,0,0,0-1.8,2.55c-.25,1.15-.46,2.3-.69,3.45-.69-.27-.64-.91-.71-1.48Q485,258.43,484.29,252.76Zm4.55-20.91c0-.49-.23-1-.75-1a1.56,1.56,0,0,0-1.39,1.7.9.9,0,0,0,.83,1C488.55,233.51,488.87,232.77,488.84,231.85Zm-1.68,11.84c1-1.64,1.93-2.58,1.26-4.18C486.68,240.29,486.36,241.43,487.16,243.69Zm7.47,28.95a.75.75,0,0,0-1-.69c-.88.21-1.52.7-1.42,1.7a.85.85,0,0,0,1,.74C494.24,274.27,494.51,273.5,494.63,272.64Zm15.19-1.8a4.45,4.45,0,0,0,.22-.57s-.2-.18-.25-.15a3.1,3.1,0,0,0-.46.35Z"/><path class="cls-1" d="M393.07,277.07c.65-6.09,1.79-12.93,2.81-19.78,1.54-10.41,2.88-20.84,4.38-31.25.93-6.39,2.3-12.7,3.76-19,.48-2,1.44-3.06,3.55-3.31a52.16,52.16,0,0,1,11.09-.53c3.89.37,4.81,1.11,5.39,4.93.81,5.32,1.33,10.67,2.07,16,1.34,9.71,2.8,19.4,4.1,29.11a4.8,4.8,0,0,0,2.46,4.07c2,1.06,2,2.65,1.53,4.6-.56,2.19-1.54,4.28-1.66,6.59a34.53,34.53,0,0,0,1,8.17c.16.82.32,1.64.47,2.46a1.73,1.73,0,0,1-1.31,2.2,13,13,0,0,1-7.78.09c-1.81-.6-2.53-2.12-3-3.75-.54-1.83-1-3.69-1.34-5.57a3.46,3.46,0,0,0-2.83-2.84,24.57,24.57,0,0,0-7.07-1c-3.58.11-4.88,1.28-5.41,4.87-.26,1.78-.48,3.56-.72,5.33a3.07,3.07,0,0,1-3.1,2.89,44.29,44.29,0,0,1-5,.31C393,281.52,392.82,281.3,393.07,277.07Zm20-48.47a16.92,16.92,0,0,0-2.76,7.06c-1.09,5.77-.89,11.64-1.43,17.45-.26,2.72.94,3.76,3.84,3.74,2.25,0,4.24-.83,4.13-4.16A151.29,151.29,0,0,0,415,236.37C414.61,234,414.56,231.43,413.08,228.6ZM399,280a3.78,3.78,0,0,0,3.11-1.43c.8-1.18.55-2.49-.55-3s-2.9.06-3.52-1.28,1-2.26.87-3.64A10,10,0,0,1,401,264a8.68,8.68,0,0,0,.91-1.92,1.63,1.63,0,0,0-.27-1.68c-.52-.6-1.06-.11-1.6.07-2.91,1-3.91,3.19-4.06,6.05-.16,3.2.15,6.42-.49,9.61C394.92,278.81,396.18,280.07,399,280Zm4.48-55.13c3.41-3.09,3.76-6.59,3.9-10.14,0-1-.79-1-1.52-.84a3.23,3.23,0,0,0-2,2.33C402.88,218.83,402.87,221.47,403.44,224.87Zm18.34,23.87c.38-2-.14-2.86-1.38-3.09s-1.88.79-2.09,1.91a9.59,9.59,0,0,0,.08,3.92,7.34,7.34,0,0,0,1.81,3.83,1.17,1.17,0,0,0,1.3.34c.5-.19.89-.68.61-1.1C420.67,252.4,421.29,250.24,421.78,248.74Zm5.7,31.38c2.11.05,4.12-1.37,4.21-3.07.08-1.45-.72-2.15-2.17-2.21-2.16-.08-4.58,1.46-4.69,3.05C424.75,279.14,425.86,280.08,427.48,280.12Zm-7.76-62.61c.09-2.11-.32-3.41-1.92-3.58s-2.24,1.16-2.46,2.52c-.27,1.65-.44,3.34.81,4.76a1,1,0,0,0,1.28.19A4.48,4.48,0,0,0,419.72,217.51Zm1.43-9.49a2.46,2.46,0,0,0-2.38-2.72,2,2,0,0,0-2.37,1.59c-.21,1,1.12,2.09,2.69,2.21C420.09,209.18,421,209,421.15,208ZM423,229.39c-1.19.27-1.35,1.18-1.21,2.15a1.84,1.84,0,0,0,2.12,1.82,1.62,1.62,0,0,0,1.37-1.76A2.41,2.41,0,0,0,423,229.39Zm2.48,35.2a.83.83,0,0,0-.87-.34,2.53,2.53,0,0,0-1.95,2.58.9.9,0,0,0,1,.83C424.63,267.63,425.6,266.24,425.45,264.59Zm-5.69-25.23c-.09-.45-.17-1-.8-.91s-.95.64-1,1.26.24,1,.8.92S419.73,240,419.76,239.36Zm-19,13c-.09-.46-.22-1-.76-1s-.94.56-1,1.15.34,1.19.92,1.13S400.82,253,400.8,252.39Z"/><path class="cls-1" d="M640.37,203.13a25.34,25.34,0,0,1,5.35.4,4.06,4.06,0,0,1,3.34,3.27,46,46,0,0,1,1.07,7.81c1,10.12,3.07,20.09,4.25,30.19.31,2.61.79,5.21,1,7.83.14,2.05.65,3.74,2.6,4.74s2.06,2.47,1.6,4.26a8.72,8.72,0,0,1-.42,1.37c-1.88,4.28-1.53,8.61-.5,13,1.2,5.1.55,5.86-4.65,6-4.53.12-6.17-1.19-7.2-5.74-.11-.47-.19-.94-.3-1.41-1.17-5.14-1.54-5.51-6.71-6.29a23.87,23.87,0,0,0-3.58-.27c-3.81,0-5.14,1.14-5.75,4.92-.28,1.77-.27,3.56-.68,5.33a3.23,3.23,0,0,1-3.16,2.84,26.09,26.09,0,0,1-6.43.18c-1.67-.25-2.27-1-2.06-2.64.56-4.26.87-8.57,1.61-12.81,2.24-12.84,3.7-25.79,5.57-38.68a198,198,0,0,1,4.11-20.74,3.28,3.28,0,0,1,3.11-2.87A53,53,0,0,1,640.37,203.13Zm-2.09,25.69c-2,2.45-2.41,5.26-2.94,8-1.09,5.66-.59,11.43-1.22,17.11a2.24,2.24,0,0,0,1.79,2.64c3.55,1.25,6.31-.58,6.15-4.3a151.09,151.09,0,0,0-2.17-17.73C639.59,232.71,639.65,230.76,638.28,228.82ZM624,280c.23,0,.47,0,.71,0,1.79-.24,3.11-1.45,3.09-2.94,0-1.78-1.58-1.42-2.62-1.77a4.11,4.11,0,0,0-.7-.13c-1.41-.26-1.46-.83-1.06-2.24,1-3.51,1.1-7.3,3.55-10.31a1.54,1.54,0,0,0,.24-.67c.23-1.3-.56-1.9-1.84-1.5-3.32,1-4.15,3.64-4.3,6.67s-.11,6-.36,8.93S621.35,280,624,280Zm19.28-30.66a11.06,11.06,0,0,0,1.76,5.54c.43.56.95,1.13,1.77.72s.67-1.19.29-1.79a4.54,4.54,0,0,1-.26-4.37,8.1,8.1,0,0,0,.35-1.37,1.88,1.88,0,0,0-1.5-2.42c-1.42-.36-1.83.76-2.16,1.79A10.71,10.71,0,0,0,643.31,249.35Zm-14.42-24.53c3-3.09,3.67-6.41,3.62-9.95,0-1.32-.93-1.18-1.77-.87a2.53,2.53,0,0,0-1.39,1.57A12.76,12.76,0,0,0,628.89,224.82Zm11.51-6.25c.06.89,0,2.73,1.7,2.92s2.25-1.47,2.61-2.89a4.87,4.87,0,0,0,.25-2.78,2.43,2.43,0,0,0-1.85-1.91c-1.14-.22-1.71.51-2.19,1.39A6,6,0,0,0,640.4,218.57Zm14,56.28c-2.34,0-4.48,1.7-4.24,3.36s1.47,2,2.89,1.89c2.18-.11,4-1.65,3.83-3.37C656.78,275.21,655.76,274.8,654.42,274.85Zm-10.65-69.56a1.81,1.81,0,0,0-2.09,1.7c-.11,1.09,1.23,2.1,2.77,2.13,1,0,1.94-.23,2.06-1.43S645.31,205.38,643.77,205.29Zm6.64,26.58a2.32,2.32,0,0,0-2-2.47c-1,0-1.44.67-1.51,1.59a2.27,2.27,0,0,0,2,2.43C649.91,233.41,650.25,232.68,650.41,231.87Zm-.31,32.39c-1-.15-2.27,1.1-2.28,2.29a1,1,0,0,0,.76,1.08c.92.2,2.15-1.06,2.24-2.33A.86.86,0,0,0,650.1,264.26Zm-5.06-25c-.13-.54-.46-.88-1-.73a1.21,1.21,0,0,0-.81,1.41.68.68,0,0,0,.95.69C644.86,240.4,645,239.81,645,239.21Zm-19,13.17c-.11-.43-.12-1-.75-.95s-.87.66-.87,1.25.19,1,.74,1S626,253,626,252.38Z"/><path class="cls-1" d="M548.39,203.12c8.32-.11,9.46.88,10.09,8.35.77,9.31,2.56,18.47,3.8,27.71.6,4.51,1.31,9,1.75,13.52.21,2.07.74,3.72,2.66,4.71s2,2.52,1.51,4.29a17.62,17.62,0,0,1-.6,2.07,16.07,16.07,0,0,0-.66,10.2c.18.7.26,1.41.41,2.12,1.08,5.06.48,5.81-4.76,5.91-4.43.08-6.07-1.19-7.08-5.47-.11-.46-.16-.94-.27-1.4-1.25-5.49-1.69-5.89-7.22-6.65l-.36,0c-5.21-.47-8.38-.86-8.72,7a13.49,13.49,0,0,1-.21,1.78c-.66,3.55-1,3.9-4.59,4.29a18.65,18.65,0,0,1-4.29.17c-3.08-.39-3.28-.49-3-3.52.42-4,.82-8.1,1.52-12.1,2.26-12.84,3.71-25.8,5.58-38.69,1-6.86,2.36-13.66,4-20.4a3.64,3.64,0,0,1,3.61-3.2A58.26,58.26,0,0,1,548.39,203.12Zm-1.17,25.52c-2.27,2.56-2.64,5.27-3.15,7.9-1.13,5.76-.64,11.65-1.28,17.46-.19,1.75.88,2.3,2.22,2.68,3.32.94,5.63-.74,5.68-4.14a75.29,75.29,0,0,0-1.22-12.08C548.92,236.7,548.69,232.87,547.22,228.64ZM532.76,280c.24,0,.48,0,.71-.05,1.78-.25,3.11-1.49,3-3-.07-1.76-1.63-1.38-2.67-1.72-.34-.11-.71-.12-1.05-.22-.79-.23-1.26-.65-.91-1.55,1.37-3.5.94-7.61,3.66-10.64a1.37,1.37,0,0,0,.16-.32,1.75,1.75,0,0,0-.11-2c-.66-.86-1.28-.15-1.89.05-3,1-3.73,3.45-3.9,6.21-.18,3.09.09,6.2-.37,9.28C529,278.84,530,280,532.76,280Zm4.87-55.26c3-3,3.62-6.43,3.56-10.07,0-1-.87-.94-1.6-.75a2,2,0,0,0-1.3,1.16A11.92,11.92,0,0,0,537.63,224.75Zm14.42,24.4a9.84,9.84,0,0,0,1.89,6,1.26,1.26,0,0,0,1.54.52.94.94,0,0,0,.49-1.45c-1.21-1.77-.89-3.55-.28-5.38a4.68,4.68,0,0,0,.26-1.39c0-1-.68-1.46-1.49-1.75-1-.35-1.53.28-2,1.06A4.68,4.68,0,0,0,552.05,249.15Zm1.68-32.36c-.08-1.24-.32-2.61-2-2.85s-2.25,1.16-2.54,2.43a5.15,5.15,0,0,0,.78,4.77,1.12,1.12,0,0,0,1.6.15C553.23,220.28,553.44,218.59,553.73,216.79Zm7.87,63.33c2.17,0,4-1.52,4-3.26,0-1.53-1-2-2.35-2-2.25,0-4.53,1.63-4.46,3.24C558.83,279.35,559.94,280.15,561.6,280.12ZM550.35,206.9c-.05,1.16,1.19,2.16,2.75,2.22,1,0,1.93-.22,2.08-1.4s-1.15-2.33-2.54-2.41C551.44,205.24,550.58,205.66,550.35,206.9Zm6.55,22.5a1.54,1.54,0,0,0-1.32,1.73,2.17,2.17,0,0,0,2.12,2.29,1.59,1.59,0,0,0,1.41-1.73A2.29,2.29,0,0,0,556.9,229.4Zm.48,38.29c.92,0,2.13-1.39,2.12-2.53a.86.86,0,0,0-.87-.92,2.53,2.53,0,0,0-2.14,2.46A1.11,1.11,0,0,0,557.38,267.69Zm-3.67-28.25c0-.48-.15-1-.73-1s-1,.49-1.07,1.14c0,.47,0,1,.67,1S553.58,240.1,553.71,239.44Zm-19.06,13c-.1-.39,0-1-.64-1s-.93.56-1,1.16.09,1,.66,1C534.44,253.67,534.64,253.11,534.65,252.44Z"/><path class="cls-1" d="M198.15,261.44a37.91,37.91,0,0,0-.26,10.94,40.73,40.73,0,0,1,.47,6.79c-.11,2-1,2.69-3.35,2.8s-3.86-.63-4-2.47a37.15,37.15,0,0,1-.09-9.31c1.41.59.36,2.44,2,3,.34-1.15-.06-2.47.62-3.53.55-.87.75-1.82-.37-2.45s-1.35,1-2.33,1.31a19.36,19.36,0,0,1-.29-5.74c.14-7.65.34-15.3.54-22.95.08-2.94.11-3,3-3.14a28.51,28.51,0,0,1,3.58,0c3.15.18,3.64.65,4.12,3.77.77,5,1.45,9.94,2.34,14.88.29,1.61,0,3.59,1.71,4.72,1.1-.56.94-1.47,1.07-2.27.91-6,1.9-12,2.68-18.09.23-1.79.94-2.57,2.66-2.62,1.55,0,3.11-.21,4.66-.18,2.65.05,2.84.26,3,2.88.36,9.08.73,18.16,1,27.25.11,3.46.08,6.93,0,10.4-.07,3.22-.51,3.57-3.84,3.61-3,0-3.58-.42-3.64-3.45a38.46,38.46,0,0,1,.28-4.29,9.64,9.64,0,0,0-.46-5.29c-1.25-.13-1.28.85-1.43,1.62-.53,2.7-1,5.39-1.5,8.1a4.56,4.56,0,0,1-6.77,3.1c-.76-.5-.82-1.39-1-2.22-.71-4-1.4-8-2.18-12C200,264.81,200,262.82,198.15,261.44Zm5.56,8.61c-1.05.17-1.13,1-1.27,1.85-.34,2,1.31,3.8.81,5.88a1.37,1.37,0,0,0,1,1.69,1.23,1.23,0,0,0,1.51-.62,1.35,1.35,0,0,0-.5-1.87c-1.65-1.12-1.65-2.41-.72-4a3.76,3.76,0,0,0,.58-1.65C205.11,270.55,204.57,270.09,203.71,270.05Zm-5-31.82c-.57.13-1,.41-.82,1,.3,1,.39,2.2,1.75,2.29.69,0,1-.56.92-1.22C200.4,239.11,199.92,238.26,198.67,238.23Zm19.76,1.36a1.31,1.31,0,0,0-1.15-1.53,1,1,0,0,0-1.14,1,1.24,1.24,0,0,0,1.16,1.43C217.94,240.54,218.41,240.26,218.43,239.59Zm-25.55,15.87a1.54,1.54,0,0,0,1.05-1.39c0-.66-.32-1.21-1-1.09a1.39,1.39,0,0,0-1.12,1.53C191.86,255,192.11,255.38,192.88,255.46Zm26,12.52a4.71,4.71,0,0,0,.69-.58c.06-.06-.11-.41-.25-.5a.55.55,0,0,0-.8.26C218.29,267.49,218.46,267.76,218.83,268Zm.62,8.82a.73.73,0,0,0-.87-.32c-.28.09-.33.32-.22.6s.42.55.77.31C219.29,277.28,219.35,277,219.45,276.8Z"/><path class="cls-1" d="M683.82,589.18c-.14,10.56-7.15,15-15.79,15.47s-16-7.3-16-15.64c0-9.3,9.35-16.52,16.47-16.16C677.51,573.29,683.59,577.16,683.82,589.18Z"/><path class="cls-1" d="M137.8,259.2c0-6.22-.06-12.44,0-18.66,0-3,.18-3.16,2.91-3.48,4.28-.5,8.57-.77,12.83.39,3.07.83,5.05,2.64,5.45,5.89.64,5.18.44,10.29-1.77,15.1-.68,1.47-1,2.67.12,3.94,1.53,1.76,1.62,4,1.76,6.09.24,3.7.21,7.42.44,11.12.08,1.4-.45,1.84-1.72,2.12-4.1.91-5.85-.32-6.12-4.55-.19-2.86.28-5.73-.09-8.6a4.29,4.29,0,0,0-1.15-2.92,3.15,3.15,0,0,0-3.33-.71,2.25,2.25,0,0,0-1.38,2.31c-.05,2.15,0,4.31,0,6.46,0,1.79-.16,3.58-.23,5.37s-.92,2.39-2.69,2.55c-4.38.38-5.13-.1-5.19-4.47-.08-6,0-12,0-17.95Zm7.81-8.91h.18c0,1.54-.06,3.09,0,4.63.06,1.07.36,2.24,1.51,2.6,1.31.42,2.24-.55,3.07-1.38a2.93,2.93,0,0,0,.87-1.53,21.48,21.48,0,0,0-.17-8.49,2.48,2.48,0,0,0-3-1.87c-1.41.17-2.48.8-2.47,2.47C145.62,247.91,145.61,249.1,145.61,250.29Zm-5.71-.62c.21-2.35,1.06-3.77,1.54-5.31.25-.81.05-1.73-1-1.86a1.43,1.43,0,0,0-1.78,1.3A7.63,7.63,0,0,0,139.9,249.67Zm-.26,13.82a1.05,1.05,0,0,0,1-1.21c0-.53-.31-.94-.85-.92a1,1,0,0,0-1,1.17A1,1,0,0,0,139.64,263.49ZM157,244.09c-.55.24-1.08.55-.89,1.29a.8.8,0,0,0,1.07.62,1.06,1.06,0,0,0,.77-1.07C157.9,244.34,157.48,244.15,157,244.09ZM154,255c0-.43-.25-.77-.6-.61a2.33,2.33,0,0,0-.89,1,.47.47,0,0,0,.38.72C153.53,256.07,153.77,255.51,154,255Zm3.72,15.84c-.33.25-.45.29-.5.38-.33.6-.7,1.22-.19,1.88.09.13.52.19.58.11a2.16,2.16,0,0,0,.32-1.94A2.24,2.24,0,0,0,157.67,270.81Zm-10.26-7.93c0-.5-.22-.73-.58-.75a.66.66,0,0,0-.52.33.62.62,0,0,0,.42.78A.52.52,0,0,0,147.41,262.88Z"/><path class="cls-1" d="M902.76,259.28c0-6.34-.06-12.69,0-19,0-2.63.25-2.87,2.82-3.18a35.67,35.67,0,0,1,12.49.25c3.59.83,5.7,3,6,6.65.41,5.05.3,10.08-2,14.73-.68,1.37-.76,2.49.21,3.61,1.52,1.77,1.67,4,1.8,6.08.23,3.7.16,7.43.42,11.12.12,1.67-.66,2-2,2.26-3.79.73-5.43-.38-5.8-4.18a36.29,36.29,0,0,1,0-4.3,24.31,24.31,0,0,0-.31-5.72,3.23,3.23,0,0,0-3.56-2.82c-1.92.2-2.17,1.63-2.2,3.13-.06,3.35,0,6.71-.12,10.05-.06,1.2.33,2.95-1.29,3.38a7.84,7.84,0,0,1-5.62-.1,1.91,1.91,0,0,1-.91-1.83c-.08-1.44-.18-2.87-.18-4.31,0-5.26,0-10.53,0-15.79Zm7.81-8.8c.15,1.78-.17,3.59.38,5.32.63,2,1.78,2.33,3.51,1.15a3.69,3.69,0,0,0,1.71-2.2,20.2,20.2,0,0,0-.06-8.48c-.35-1.64-1.65-2.24-3.27-2a2.37,2.37,0,0,0-2.28,2.65C910.6,248.11,910.57,249.3,910.57,250.48Zm-5.55-.83a12.07,12.07,0,0,1,1.32-5.07c.28-.75.29-1.73-.78-2a1.45,1.45,0,0,0-2,1.36A6.65,6.65,0,0,0,905,249.65Zm-.43,13.83a1.05,1.05,0,0,0,1-1.21c0-.53-.29-.94-.84-.91a1.07,1.07,0,0,0-.14,2.12Zm17-17.45a1,1,0,0,0,1.27-1,.75.75,0,0,0-.73-.94,1.08,1.08,0,0,0-1.16,1A.82.82,0,0,0,921.58,246Zm-3.51,10a1.26,1.26,0,0,0,.83-1.24.5.5,0,0,0-.74-.38,1.41,1.41,0,0,0-.76,1.41C917.45,256.1,917.69,256.17,918.07,256Zm4.46,14.91c-.59.1-.6.64-.74,1s-.19,1.1.27,1.21c.82.2.78-.59.84-1.11S923,271.18,922.53,270.93Zm-10.75-8.79c-.43.08-.62.33-.47.7a.74.74,0,0,0,.46.41.51.51,0,0,0,.62-.55A.59.59,0,0,0,911.78,262.14Z"/><path class="cls-1" d="M60.26,257.58c.1-4.29-.28-10.64.3-17,.29-3.25.36-3.36,3.6-3.65,4-.36,8.12-.69,12.11.5s5.36,2.85,5.58,6.91c.27,5,.4,10.08-2.15,14.71a2.5,2.5,0,0,0,.24,3c1.7,2.11,1.9,4.58,1.91,7.13,0,3.23.12,6.45.45,9.67.26,2.49.1,2.57-2.35,3-3.6.59-5.2-.63-5.37-4.28-.12-2.5,0-5,0-7.53a7.41,7.41,0,0,0-.65-3.5,3.22,3.22,0,0,0-3.25-1.78c-1.54.08-1.84,1.24-2.12,2.47a11.28,11.28,0,0,0,0,3.93c.35,2.89-.16,5.73-.36,8.59a1.62,1.62,0,0,1-1.78,1.75c-.6,0-1.19.15-1.78.19-3.36.17-4-.4-4.27-3.74,0-.36,0-.71,0-1.07C60.26,271.12,60.26,265.38,60.26,257.58Zm8-7.33a24.35,24.35,0,0,0,.5,5.32c.62,2.25,1.73,2.62,3.62,1.31a4.61,4.61,0,0,0,1.89-3.3,19.67,19.67,0,0,0-.29-7.09,2.9,2.9,0,0,0-5.72.54C68.22,248.1,68.24,249.18,68.24,250.25Zm-5.6-.72a16.53,16.53,0,0,1,1.5-4.78,1.4,1.4,0,0,0-.92-2.24c-1.21-.29-1.78.56-1.95,1.58A7,7,0,0,0,62.64,249.53Zm.74,12.7c-.11-.53-.43-.89-.93-.86-.71,0-.89.59-.84,1.22s.33.9.85.84S63.36,262.84,63.38,262.23ZM79.72,244.1a1,1,0,0,0-.82,1.3c.07.33.18.69.66.66a1.09,1.09,0,0,0,1.1-1.12C80.69,244.39,80.25,244.16,79.72,244.1Zm.13,29.23c.32-.18.45-.21.5-.29.35-.6.71-1.22.23-1.9-.09-.14-.51-.25-.57-.18a2.32,2.32,0,0,0-.37,1.93A2.55,2.55,0,0,0,79.85,273.33Zm-3.16-18.51c-.15-.17-.34-.49-.43-.47a1.13,1.13,0,0,0-1,1.29c0,.17.32.49.38.46A1.28,1.28,0,0,0,76.69,254.82Zm.47,23.93a1.94,1.94,0,0,0-.35-.54c-.24-.17-.47-.06-.56.23s0,.67.43.66C76.84,279.09,77,278.87,77.16,278.75ZM68.8,262c.41,1.13.74,1.31,1,1.21a.56.56,0,0,0,.24-.81.69.69,0,0,0-.54-.24C69.22,262.23,68.91,262.37,68.8,262Z"/><path class="cls-1" d="M833.63,231.93c.85,0,1.33,0,1.81,0,3.56.16,4.29.87,4.77,4.43,1.19,9,2.42,18,3.59,27a3.32,3.32,0,0,0,1.41,2.74,2.43,2.43,0,0,1,1.11,3.36c-1.29,3-1.05,6-.37,9.14.58,2.65.1,3.11-2.6,3.33-3.12.25-4.33-.71-5.17-4.14-.91-3.69-1.29-4-4.9-4.42-4-.43-4.83.21-5.34,4.23-.17,1.3-.05,3-1.3,3.54a8.37,8.37,0,0,1-5.64.33c-1.19-.33-.88-1.31-.79-2.07.42-3.44.78-6.9,1.41-10.3,1.7-9.3,2.29-18.76,4.17-28,.34-1.64.63-3.29,1-4.91.86-3.66.88-3.66,4.68-4.1C832.33,232,833.16,232,833.63,231.93Zm-.5,16.83c-.8.11-.88.63-1,1-1.79,4.69-1.29,9.65-1.73,14.5-.08.87.49,1.25,1.24,1.49,2.22.7,3.68-.34,3.68-2.76a66.9,66.9,0,0,0-1.34-11C833.76,250.91,834,249.63,833.13,248.76ZM826,268.2c-2.77.37-3.69,1.76-3.78,4a46,46,0,0,1-.32,6.08c-.32,1.88,1.43,3,3.21,2.18a1.89,1.89,0,0,0,1.21-1.65c0-.73-.64-.94-1.26-1-1.86-.15-1.32-1.26-1.26-2.51C823.86,272.85,825.45,270.91,826,268.2Zm1-22.54a8.66,8.66,0,0,0,2.33-5.67c0-.46,0-1-.63-1.06a1.09,1.09,0,0,0-1.17.63A8,8,0,0,0,827,245.66Zm11.47,19.4a6,6,0,0,1,.12-4.55,1,1,0,0,0-.73-1.39c-.93-.27-1.39.3-1.49,1.06C836.13,262.09,836.28,263.91,838.47,265.06ZM844.63,279a1.39,1.39,0,0,0-1.28-1.55c-1.31-.08-3,1.18-2.82,2.15a1.44,1.44,0,0,0,1.55,1.16C843.39,280.7,844.37,280.23,844.63,279Zm-10.27-37.67c.11.82-.1,1.8,1,2.11.81.24,1.87-1.2,1.91-2.58,0-.92-.25-1.79-1.28-1.81C834.42,239,834.49,240.25,834.36,241.28Zm2.07-7.92c-.66.11-1.22.4-1.19,1.09,0,1.13,1,1.16,1.81,1.23a.86.86,0,0,0,1-.82C838,233.85,837.29,233.48,836.43,233.36Zm4.18,16.71c-.11-.78-.54-1.37-1.33-1.38-.49,0-.73.56-.72,1.05a1.21,1.21,0,0,0,1.25,1.36C840.29,251.09,840.48,250.52,840.61,250.07Zm.2,21.52c.05-.45-.09-.76-.52-.76-.71,0-1,.57-1.16,1.14s.19.68.55.69C840.41,272.69,840.61,272.1,840.81,271.59Zm-4.33-16.11c.21-.07.49-.08.59-.23a.59.59,0,0,0-.12-.57c-.33-.17-.6,0-.76.34S836.2,255.41,836.48,255.48Z"/><path class="cls-1" d="M860.49,286.34a7,7,0,0,0-4-4.64c-3.83-1.8-5.63-4.86-5.61-9.2,0-5.14-.34-10.28-.44-15.43A39.66,39.66,0,0,1,851.73,245c1.84-6.2,5.77-8.92,11.65-8.21,5.23.63,9.15,5.22,9.41,11,0,.6,0,1.2,0,1.8-.13,3.34-1.1,4.1-4.47,3.69-1.65-.2-2.61-.91-2.75-2.66a18.32,18.32,0,0,0-.64-3.52,2.63,2.63,0,0,0-2.56-2.14,2.6,2.6,0,0,0-2.6,2.5c-.34,2.25-.57,4.52-.7,6.79a152.9,152.9,0,0,0-.09,15.44,23.21,23.21,0,0,0,.46,3.18c.22,1.25.72,2.44,2.14,2.5a3.32,3.32,0,0,0,3.17-2,8.63,8.63,0,0,0,.63-3.51c.11-1.3,0-2.94,1.51-3.33a7.73,7.73,0,0,1,5.28.11c.85.41.91,1.35.89,2.21-.07,4.64-.67,9.12-4.42,12.43a3.29,3.29,0,0,0-1,4.39c1.1,2.42.38,4.2-1.73,5.49a8.42,8.42,0,0,1-8.52-.54,2.7,2.7,0,0,1-1.31-2.4c.17-1,1.18-1,2-1.23A5.41,5.41,0,0,0,860.49,286.34Zm-8.8-36.69c.09.83-.27,1.72.62,2s1.27-.47,1.65-1.07a5.19,5.19,0,0,0,.57-1.3,1.22,1.22,0,0,0-.62-1.5c-.8-.39-1.37,0-1.76.7A7,7,0,0,0,851.69,249.65Zm1.18,15.71a2.14,2.14,0,0,0-.84,2.44c.06.48.43,1,.89.95.66,0,.94-.56.93-1.23A2.43,2.43,0,0,0,852.87,265.36Zm12,10.95a3.31,3.31,0,0,0,2.39-3.36A4.83,4.83,0,0,0,864.86,276.31Zm-12.69-20.74c.61,0,.83-.4.87-.89s0-1.15-.68-1.4c-.54-.19-.62.26-.64.53C851.65,254.44,851.34,255.18,852.17,255.57Z"/><path class="cls-1" d="M745.42,277c-1.79,4.32-5.77,4.68-9.54,4.83-2.47.1-5-.25-7.51-.26s-2.53-.14-2.74-2.68c-.6-7.05-.38-14.12-.49-21.18-.1-5.86,0-11.72-.53-17.57-.26-3.19.08-3.44,3.31-3.48a51,51,0,0,1,12.78,1.65c3.22.79,5.34,2.65,5.8,6,1.32,9.75,1.88,19.52.37,29.31-.19,1.26-.23,2.64-1.53,3.43-.39-1.6,1.53-3.41-.42-4.89a2.86,2.86,0,0,0-2.26,2.47c-.27,1.27-1.83,2.77-.48,3.8S744.19,277.27,745.42,277Zm-12.25-17.79v4.7c0,1.8,0,3.59,0,5.39,0,1.19.17,2.37.32,3.56a1.74,1.74,0,0,0,2,1.62,3.77,3.77,0,0,0,3.9-2.57,9.55,9.55,0,0,0,.45-3.88c-.22-5.14-.34-10.28-.47-15.42a22.05,22.05,0,0,0-.71-5.68c-.65-2.25-2.47-3.46-4.26-3-2,.56-1.9,2.27-1.84,3.81C732.69,251.52,732.94,255.21,733.17,259.24ZM732,279.91c.94,0,2.37-1.85,2.28-2.9a1.13,1.13,0,0,0-1.22-1c-1.34,0-2.28.66-2.27,2.14C730.78,279,730.93,279.81,732,279.91Zm11-15.61a2.18,2.18,0,0,0-2.16,2.29c0,.63.21,1.16.93,1.3,1,.21,2.21-.86,2.37-2.14A1.2,1.2,0,0,0,743,264.3Zm1.14-21.83a1.68,1.68,0,0,0-1.4-1.81,1,1,0,0,0-.9.27c-.33.53.77,2,1.52,2C743.66,243,743.93,242.63,744.17,242.47Zm-3.72,32.27c1.12-1,1.63-1.73,1.32-2.9C740.82,272.44,740.59,273.28,740.45,274.74Zm4.7-19.9a1.28,1.28,0,0,0-1.37,1.2c0,.47.16.92.77.87a1.44,1.44,0,0,0,1.43-1.23C746.07,255.15,745.72,254.86,745.15,254.84ZM743,260.77c.15-.53-.09-.82-.4-.89a1.24,1.24,0,0,0-1.54,1c-.11.42-.05,1,.56,1C742.47,261.93,742.8,261.31,743,260.77Z"/><path class="cls-1" d="M290.39,275.51a5.25,5.25,0,0,1-2.71,4.32,13,13,0,0,1-7.86,2.07,51.46,51.46,0,0,0-6.08-.29c-3.58.1-3.53,0-3.76-3.49-.68-10.4-.41-20.83-.65-31.24-.05-2.4-.1-4.78-.35-7.17s.22-3,2.7-3a48.74,48.74,0,0,1,13.85,1.79c2.76.74,4.74,2.38,5.19,5.31,1.5,9.74,2.07,19.52.68,29.33-.12.83,0,2-1.08,2.48-.06-.58-.11-1.16-.17-1.74s-.06-1.25-.71-1.49c-.83-.3-1.31.35-1.72.89a14.42,14.42,0,0,0-1.54,3.92c-.16.43-.36,1,.1,1.29a1.58,1.58,0,0,0,1.66-.1C289.17,277.78,289.23,276.17,290.39,275.51ZM277,258.89h.61c0,4.19-.08,8.38.06,12.56,0,1.14-.17,2.78,1.77,3a3.8,3.8,0,0,0,4.13-2.19,7.48,7.48,0,0,0,.71-3.83c-.55-6-.56-11.95-.67-17.93a9.85,9.85,0,0,0-1.2-4.82A3.25,3.25,0,0,0,278.8,244c-1.75.29-1.68,1.77-1.82,3.06a11.39,11.39,0,0,0,0,1.43Zm1.62,17.71c0-.27-.58-.54-1.15-.62a2.13,2.13,0,0,0-2.38,2.06c0,.88.18,1.71,1.22,1.86C277.2,280,278.61,278.25,278.64,276.6Zm7.8-8.63c1.33-.11,1.88-1.16,2.17-2.31a1.09,1.09,0,0,0-1.2-1.35c-1.41,0-2.08.89-2.22,2.21C285.11,267.32,285.49,267.85,286.44,268Zm.34-27.38c-.42.14-.72.34-.56.76.29.79.68,1.57,1.65,1.61a.72.72,0,0,0,.71-1A1.93,1.93,0,0,0,286.78,240.59Zm3.58,15.1a.76.76,0,0,0-.84-.86,1.33,1.33,0,0,0-1.42,1.24.7.7,0,0,0,.8.86A1.47,1.47,0,0,0,290.36,255.69Zm-3.34,4.1c-1.07.14-1.56.56-1.63,1.33a.69.69,0,0,0,.87.76,1.42,1.42,0,0,0,1.12-1.49C287.36,260,287.14,259.77,287,259.79Zm-2,14.5c1.06-.32,1.09-1.32,1.31-2.14.07-.27-.21-.31-.46-.17-.8.46-.74,1.36-1.08,2C284.8,274.07,285,274.19,285.05,274.29Z"/><path class="cls-1" d="M32.12,259.5c0-10,0-17.17,0-24.34,0-2.68.15-2.89,2.76-3.1a40.15,40.15,0,0,1,14.83,2A5.88,5.88,0,0,1,53,237.21a27.54,27.54,0,0,1,2.77,18.43c-.73,4-3.69,6.52-8,7.07-7.24.92-5.94.93-6.32,6.88-.21,3.34-.45,6.68-.55,10,0,1.32-.52,2-1.81,2.13a19,19,0,0,1-2.49.21c-3.22-.08-3.62-.46-3.68-3.77C32.74,271,32,263.86,32.12,259.5Zm9.11-9.18a17.3,17.3,0,0,0,0,2.26c.2,2,1.12,2.67,3.1,2.38a2.57,2.57,0,0,0,2.26-2A15.59,15.59,0,0,0,46,242.84a3.59,3.59,0,0,0-.8-1.17A3.1,3.1,0,0,0,42,240.59c-1.21.43-1.13,1.67-1.16,2.75C40.75,245.49,41.62,247.56,41.23,250.32Zm12.05-.18c.3,0,.43.1.53.07,1.26-.28,1.39-1.31,1.16-2.23-.34-1.34-.19-2.93-1.43-3.92a1.28,1.28,0,0,0-1.65.2c-.51.43-.67,1.33-.26,1.57C53.36,246.87,53,248.69,53.28,250.14Zm-18.9,4.15a1.58,1.58,0,0,0,1.34-2c-.1-.67-.48-1.14-1.15-1a1.84,1.84,0,0,0-1.45,2.07C33.13,254,33.66,254.29,34.38,254.29Zm5.79-2.9c0-.89.06-2.08-1.16-2.14-1-.05-1.19,1-1.19,1.85s0,2.14,1.17,2.21C40,253.37,40.11,252.29,40.17,251.39ZM35.4,246c-.18-.7-.36-1.44-1.29-1.32a1.12,1.12,0,0,0-1,1.19,1.35,1.35,0,0,0,1.12,1.49C35.12,247.46,35.27,246.67,35.4,246Zm12.67,10.64c-.07-.67-.39-1-.93-.9-1,.26-1.78.76-1.79,1.91,0,.61.57.8,1,.76A1.71,1.71,0,0,0,48.07,256.64Zm2.33-20a1,1,0,0,0-1.12,1,.88.88,0,0,0,.69,1,1.14,1.14,0,0,0,1.32-.82C51.49,237.22,51,236.84,50.4,236.65Zm-4.77-.54c.47-.06.92-.2,1-.74a1,1,0,0,0-2-.32C44.51,235.8,45,236,45.63,236.11ZM50,243.37a1.49,1.49,0,0,0-1.17-1.52.74.74,0,0,0-1,.72c0,.9.16,1.66,1.23,1.69C49.6,244.28,49.91,243.89,50,243.37ZM34.67,265.69a.91.91,0,0,0-.69,1,1,1,0,0,0,.7.66.89.89,0,0,0,.93-.85C35.65,266,35.26,265.71,34.67,265.69Zm4.16,5.89c.17-.16.47-.31.47-.47,0-.4-.23-.67-.65-.38a.72.72,0,0,0-.3.56C38.35,271.4,38.67,271.49,38.83,271.58Z"/><path class="cls-1" d="M773.31,257.81c-.27,3.94.06,7.89-.5,11.82,0,.35,0,.71-.1,1.07-1,8.55-4.16,11.32-14.26,11.12-3.52-.07-6.1-3.05-6.68-7.3a90,90,0,0,1-.57-9.3c-.15-4.66-.67-9.3-.42-14,.2-4,1.85-7.38,3.63-10.77a6.49,6.49,0,0,1,4.5-3.28,22.21,22.21,0,0,1,7.84-.38,5,5,0,0,1,3.48,2.3,15.31,15.31,0,0,1,3.07,9C773.32,251.36,773.31,254.58,773.31,257.81Zm-12.8-12.38c-.93-.84.57-2-.41-2.87-3.35,1.21-2.32,3.94-2.34,6.52,1.42-1.07.65-3.5,2.83-3.71.06,1.34-.91,2.41-.9,3.77,0,4-.75,7.84-1.2,11.75a28.88,28.88,0,0,0,.64,11c.32,1.14.82,2.31,2.33,2.37a2.9,2.9,0,0,0,2.77-1.91,11.35,11.35,0,0,0,1.09-4.86c.11-6.09.24-12.18.21-18.27C765.51,245.17,764.41,244.42,760.51,245.43Zm-2.72,33.5c-.22-1.14-1.16-1.39-2.11-1.48a.87.87,0,0,0-.86.94,1.84,1.84,0,0,0,2.27,1.63A1,1,0,0,0,757.79,278.93Zm10.34-11.05c-.16-.5-.43-1.26-1-1.22-.85.06-1,.9-.91,1.65s.32,1.19,1.07,1S768.14,268.61,768.13,267.88Zm1.59,7.1c.68.11,1.06-.4,1.25-1s.07-1.25-.74-1.27-1,.45-1.14,1.12C769,274.37,769.05,274.81,769.72,275Zm-16.2-24.51c.4-.32,1.11-.57,1.05-1.46a.55.55,0,0,0-.75-.5,1.55,1.55,0,0,0-1.15,1.23C752.58,250.2,752.89,250.34,753.52,250.47ZM771.14,244c-.07-.52-.25-.92-.78-1s-.78.43-.83.83a.83.83,0,0,0,.76.95C770.86,244.8,771.11,244.48,771.14,244Zm-16.85,26.76c.12-.43-.11-.63-.49-.67s-.63.23-.7.6.08.7.48.71A.73.73,0,0,0,754.29,270.74Z"/><path class="cls-1" d="M108.42,258.06c-.19,4.77.21,9.56-.69,14.31a11.91,11.91,0,0,1-16,9A7.76,7.76,0,0,1,87,274.28c-.37-8.11-1.49-16.23-.83-24.36.3-3.74,2-7.09,4.06-10.23a6.37,6.37,0,0,1,3.5-2.36,12.71,12.71,0,0,1,3.17-.56c7.26-.62,11,2.46,11.5,9.81C108.63,250.39,108.42,254.23,108.42,258.06Zm-8,1.17h.5c0-3.23.07-6.46,0-9.69s-1.14-4.71-2.83-4.69-2.58,1.23-3,4.28c-.63,4.86-1.21,9.74-1.57,14.63a22.41,22.41,0,0,0,1,8.51c.34,1.08.88,2,2.19,2a2.72,2.72,0,0,0,2.59-1.62,8.42,8.42,0,0,0,1.12-4.11ZM93.22,249c.12-2.33,3-3.76,2.13-6.59A5.36,5.36,0,0,0,93,244.8C92.34,246.2,93.59,247.53,93.22,249Zm-.14,29.7a2,2,0,0,0-2-1.23c-.69,0-1,.57-.82,1.25A1.68,1.68,0,0,0,92.37,280C92.89,279.93,93.18,279.58,93.08,278.7Zm9.08-12.13a1.93,1.93,0,0,0-.73,1.8c.14.59.39,1.19,1.17,1s.77-.82.72-1.44A1.47,1.47,0,0,0,102.16,266.57Zm-13.3-16.11a1.61,1.61,0,0,0,.93-1.6.66.66,0,0,0-.52-.37A1.37,1.37,0,0,0,88,249.9C87.94,250.27,88.31,250.44,88.86,250.46Zm17.37,23.09c0-.44-.24-.83-.82-.77a1.36,1.36,0,0,0-1.13,1.18.74.74,0,0,0,.68,1C105.9,275,106.12,274.38,106.23,273.55Zm.08-29.47c0-.53-.13-1-.62-1.14s-.84.25-.91.75a.86.86,0,0,0,.66,1C106,244.89,106.25,244.54,106.31,244.08Zm-17.7,27.26a.73.73,0,0,0,.9-.54c.14-.4-.09-.64-.46-.7s-.59.27-.72.59S88.41,271.29,88.61,271.34Z"/><path class="cls-1" d="M898.46,257.77c-.19,4.65.18,9.32-.63,14a19.62,19.62,0,0,1-1.38,4.81,7.74,7.74,0,0,1-4.94,4.35,26.93,26.93,0,0,1-4.57.89c-5.6.8-9.17-1-9.88-7.58a138.32,138.32,0,0,1-.93-24c.26-3.77,2-7.1,3.89-10.28a6.48,6.48,0,0,1,4.09-2.73,14.61,14.61,0,0,1,2.47-.39c7.6-.71,11.41,2.5,11.84,10.21C898.63,250.58,898.46,254.18,898.46,257.77Zm-8,1h.38c0-2.27,0-4.55,0-6.82,0-1.43-.08-2.87-.22-4.29s-.75-2.61-2.32-2.77-2.4.89-2.8,2.26a16.89,16.89,0,0,0-.58,2.81c-.47,4-.93,8.08-1.33,12.13a26,26,0,0,0,.95,10.29,2.33,2.33,0,0,0,1.92,1.9,2.64,2.64,0,0,0,2.7-1.39,9.08,9.08,0,0,0,1.3-4.79C890.51,265,890.49,261.87,890.49,258.76Zm-4.93-16.55c-2.54,2.17-2.54,2.17-2.23,6.77C883.57,246.72,885.92,245.22,885.56,242.21ZM882,280.09c.65,0,1.24-.3,1.14-1-.14-1.15-1.11-1.46-2.07-1.59a.84.84,0,0,0-.93.86A1.78,1.78,0,0,0,882,280.09ZM895.1,275c.79,0,1.09-.61,1.15-1.36,0-.54-.2-.93-.76-.91-.83,0-1.15.62-1.24,1.36C894.18,274.66,894.48,275,895.1,275Zm-1.76-7c-.09-.63-.29-1.4-1.11-1.35-.58.05-.87.73-.87,1.35s.26,1.44,1.11,1.38C893.1,269.36,893.35,268.74,893.34,268Zm-14.4-19.48a1.39,1.39,0,0,0-1,1.51c0,.14.64.4.88.31a1.29,1.29,0,0,0,1-1.33C879.75,248.68,879.54,248.39,878.94,248.55Zm16.53-3.79c.91-.09.91-.55.82-1s-.36-.9-.9-.82-.65.58-.59,1.05A.81.81,0,0,0,895.47,244.76Zm-15.88,25.75c.09-.36-.29-.42-.6-.43a.61.61,0,0,0-.67.58c-.05.34,0,.75.37.78S879.5,271.16,879.59,270.51Z"/><path class="cls-1" d="M119.92,259.82c0,3.11,0,6.21,0,9.32a8.15,8.15,0,0,0,1,4.14,2,2,0,0,0,3.51.37c2.34-2.59,2.11-7.63-.46-10a4.65,4.65,0,0,1-.95-5.19,1.57,1.57,0,0,1,1.4-1c2-.08,4.06-.21,6.09-.21,1.42,0,2.12.9,2.3,2.27a47.07,47.07,0,0,1-.19,15.71c-.93,4.51-3,6.19-7.65,6.63a21.87,21.87,0,0,1-6.74-.77,7,7,0,0,1-5.34-5.25,23.22,23.22,0,0,1-1-7.08l.18-21.16c0-.24,0-.48,0-.72.62-9.69,7-12.06,15-9.23a6.79,6.79,0,0,1,3.72,3.22,25.89,25.89,0,0,1,2.77,8.84c.37,2.61-.53,3.46-3.21,3.45a23.33,23.33,0,0,1-2.48-.31,1.77,1.77,0,0,1-1.76-1.84,34,34,0,0,0-.65-4.26,2.53,2.53,0,0,0-2.06-2.21,2.81,2.81,0,0,0-3,1.46,8,8,0,0,0-1.17,4.43c0,3.11,0,6.21,0,9.32Zm.24,18.57c-.33,0-.69.07-1,.13s-.93.33-1,.86.42.8.79,1a2.22,2.22,0,0,0,1,.28c1.15.05,2.37.46,3.38-.47a.7.7,0,0,0,.05-.65C122.63,278.34,121.34,278.54,120.16,278.39Zm-1.66-29.13c-.13-.6-.11-1.54-1.12-1.29-1.32.34-1.71,1.5-1.75,2.71a1.18,1.18,0,0,0,1.1,1.16C117.71,252,118.55,250.74,118.5,249.26Zm2.7,26.65a1.92,1.92,0,0,0-1.75-1.46,1.22,1.22,0,0,0-1.43,1.2c0,1.12,1.06,1.07,1.84,1.12A1.16,1.16,0,0,0,121.2,275.91Zm7.94-7.74c-.08-.77-.47-1.48-1.22-1.51-.93,0-.93.89-1,1.58s.09,1.28.86,1.29S129.08,269,129.14,268.17Zm-1-17.61a1.26,1.26,0,0,0,.35-1.22c0-.39.12-1-.47-1s-.72.5-.72,1S127.45,250.43,128.16,250.56Zm-11,13.3a1.2,1.2,0,0,0,1.11-1.05.53.53,0,0,0-.56-.67c-.7-.06-1,.46-1.17,1C116.48,263.53,116.8,263.75,117.2,263.86Zm10.41,11.79a.53.53,0,0,0-.74-.47c-.52.18-1.19.29-1.18,1a.49.49,0,0,0,.71.5C126.94,276.53,127.54,276.39,127.61,275.65Zm2.88-5.11c.4,0,.69-.16.69-.58,0-.16-.21-.46-.33-.47a.7.7,0,0,0-.71.63C130.12,270.24,130.37,270.4,130.49,270.54Z"/><path class="cls-1" d="M456.73,512.27c2.22.25,4.58.07,6.55-2,4-4.21,9.09-4.64,14.27-3.51a8.33,8.33,0,0,0,8.13-2.29,42.94,42.94,0,0,1,5-4.07c2.49-1.69,5.19-3,8.36-2.65.83.09,1.68,0,2.51,0a8.72,8.72,0,0,0,8.08-3.64,32.73,32.73,0,0,1,4.49-4.63c2.26-2,4.41-2,6.76-.1,1.57,1.27,2.66,3.05,4.42,4.15a1.26,1.26,0,0,1,.5,1.57,1.44,1.44,0,0,1-1.58,1.15c-1.17-.06-2.53.38-3.44-.56-1.61-1.67-2.5-.3-3.48.66-1.88,1.82-3.34,4-5.48,5.63a9.28,9.28,0,0,1-8.82,1.3c-3.19-1-5.38-.26-7.53,2.24-1.76,2.06-4.08,3.64-6.13,5.45s-4.71,2.2-7.4,1.85a16.9,16.9,0,0,1-4.18-.94,5.61,5.61,0,0,0-6,.93c-.75.59-1.59,1.07-2.33,1.67-3,2.44-6.28,4-10.23,3.37-4.52-.7-7.8,1.47-10.8,4.42-.85.84-1.7,1.68-2.57,2.48a8.84,8.84,0,0,1-1.42,1.1c-1.71,1-3.87,1.11-4.68.22s-.64-3.39.86-4.85q3.72-3.62,7.66-7C450.56,512.22,453.48,512.2,456.73,512.27Z"/><path class="cls-1" d="M224.13,277.75c.59-3.87,1.4-8.94,2.13-14,1.11-7.68,1.84-15.41,3.62-23,.89-3.74.88-3.77,4.66-4,7.42-.45,7.26.29,7.84,6.31.67,7,1.84,14,2.84,20.94.21,1.5.28,3.09,1.91,4a2,2,0,0,1,.55,2.59,13.52,13.52,0,0,0-.19,8.79c.43,1.59-.26,2.17-1.66,2.46-3,.63-4.6-.36-5.47-3.47-1-3.58-3.65-5.08-7.22-4.17a2.24,2.24,0,0,0-1.76,1.6,24.84,24.84,0,0,0-.47,2.46c-.55,3.13-1,3.55-4.14,3.61C224.35,281.91,223.94,281.48,224.13,277.75ZM235.52,252c-2.52,4.36-2,9.17-2.23,13.86,0,.88.54,1.26,1.28,1.45,1.74.44,3.13-.47,3.09-2.32A49.15,49.15,0,0,0,235.52,252Zm-6.32,17.53a2.88,2.88,0,0,0-2.35.76c-1,.9-1.89,8.56-1.2,9.66.54.86,1.41.78,2.25.69a1.57,1.57,0,0,0,1.46-1.35c.13-.76-.47-1.11-1.05-1.18-1.7-.17-1.18-1.13-1.12-2.26C227.31,273.68,228.7,271.94,229.2,269.56Zm11.33-2.94c-.66-1.43-.28-2.78.05-4.13a.92.92,0,0,0-.84-1.26,1.07,1.07,0,0,0-1.17,1C238.36,264,238.59,265.51,240.53,266.62ZM230,248.53c2.2-2.26,2.35-2.87,1.42-5.87C229.6,244.35,229.67,246.32,230,248.53Zm14.63,32.19a1.81,1.81,0,0,0,1.5-1.7c.08-.81-.62-1.18-1.41-1.14-1.14.07-2.11.55-2.25,1.76C242.42,280.46,243.13,280.79,244.67,280.72Zm-7.85-35.36c.26.45-.08,1.52.89,1.5,1.38,0,1.51-1.23,1.56-2.28,0-.87-.22-1.84-1.27-1.65S236.91,244.29,236.82,245.36Zm3.25-6.4a1.33,1.33,0,0,0-1.63-1,.84.84,0,0,0-.79,1c.16.92.91,1,1.64,1C239.85,239.91,240.11,239.55,240.07,239Zm1.9,33c-.55.08-.74.49-.8,1a.5.5,0,0,0,.64.58,1.12,1.12,0,0,0,.83-1C242.68,272.12,242.39,271.9,242,272Zm-.49-20c-.67,0-.89.43-.84.91a1.07,1.07,0,0,0,.81,1c.65.17.81-.35.86-.76A.91.91,0,0,0,241.48,251.93Z"/><path class="cls-1" d="M168.24,245.49c1.35.67.16,2.22,1.53,3a6.16,6.16,0,0,0,1.5-5.6,1.49,1.49,0,0,0-1.59.85c-.35.48-.64,1.2-1.31.67a1.15,1.15,0,0,1-.05-1.62,3.87,3.87,0,0,0,.79-2c.7-4.33,1.55-3.86,5.37-4.1,6.07-.39,6.49.12,7.16,6,.86,7.49,2,15,3,22.42a3,3,0,0,0,1.26,2.45c1.48.87,1.4,2.11.93,3.43a12.3,12.3,0,0,0-.29,7.4c.29,1.1,1.11,2.61-.84,3.3-2.15.76-4.64.22-5.42-1.4a19.6,19.6,0,0,1-.88-3.09c-.68-2.34-2.65-3.32-6.07-3.06-2.13.16-2.68.8-3.08,3.59-.53,3.69-.53,3.69-3.31,4-3.43.42-4-.13-3.5-3.59q2-14.22,4-28.44C167.6,248.31,168,246.93,168.24,245.49Zm11.56,21.16a11,11,0,0,1,0-4.43.78.78,0,0,0-.76-1,1.41,1.41,0,0,0-.91.37c-.48.43-.11,1.42-1.27,1.65-.55-3.84-.7-7.74-1.9-11.58-.39.37-.78.56-.88.85-1.54,4.34-1.52,8.88-1.64,13.41,0,1.15.92,1.33,1.69,1.47,1.57.27,2.34-.54,3.28-3.23C178.48,264.68,178,266.57,179.8,266.65Zm-11.83,3a2.35,2.35,0,0,0-2.6,1.73,63.13,63.13,0,0,0-.73,8.13c0,.94,1,1.22,1.87,1.26a1.9,1.9,0,0,0,2.05-1.1c.43-1.16-.53-1.41-1.35-1.57-1.13-.22-1.08-.72-.84-1.74.4-1.72.45-3.51,1.59-5A1.18,1.18,0,0,0,168,269.61Zm10.68-24.93c0-1-.32-1.83-1.29-1.76-1.14.08-1.31,1.15-1.35,2.1s0,1.93,1,1.94C178.32,247,178.33,245.59,178.65,244.68Zm6.69,34.48c0-.78-.33-1.18-1-1.28-1.18-.16-2.6.75-2.62,1.73s.66,1.15,1.41,1.15C184.28,280.76,185.15,280.32,185.34,279.16Zm-6-40.17a1.44,1.44,0,0,0-1.55-1.06c-.52,0-1.23.35-1,1.13s1,.91,1.71.86A.79.79,0,0,0,179.38,239Zm2.25,14.21c.07-.81-.31-1.24-.93-1.32a.81.81,0,0,0-.92.79,1.15,1.15,0,0,0,1,1.22C181.25,254,181.54,253.56,181.63,253.2ZM181.22,272a.92.92,0,0,0-.81,1,.46.46,0,0,0,.71.43,1.34,1.34,0,0,0,.6-.74A.51.51,0,0,0,181.22,272Zm-13.77-6.94a3.43,3.43,0,0,0-.43-.32s-.18.15-.17.2a2.86,2.86,0,0,0,.2.48Zm10.79-7.22.32-.51c-.1-.05-.23-.15-.3-.12s-.45.2-.48.34S178,257.9,178.24,257.83Z"/><path class="cls-1" d="M962.19,236.69c6.35,0,10.8,4.59,10.47,10.65-.08,1.41-.54,2.19-2,2.48-3.25.63-4.17.17-5.52-3.07-.69-1.67-1.84-2.36-3.32-2-.8.19-1.45.77-1.31,1.46.52,2.68-.25,5.58,2.29,7.92s4.46,5.3,6.59,8c2.81,3.6,3.57,7.73,3.12,12.2a7.18,7.18,0,0,1-4.28,6.15c-8.17,4-17.1-1.14-17-9.8,0-2.7.51-3.36,2.5-3.52,3.05-.24,4.79.69,5.31,2.86.14.59.24,1.18.32,1.77a2.34,2.34,0,0,0,2.13,2.1,2.71,2.71,0,0,0,2.91-1.64,4.22,4.22,0,0,0-.76-5c-2.63-2.43-4.66-5.38-7.24-7.9-4.63-4.51-5.82-10.35-3.76-16.57C954.06,238.69,957.38,236.68,962.19,236.69Zm-.55,43.58c3.88,1.45,6.06-.63,8.2-2.74.87-.86,1.74-1.81,1-3.08-.71-.07-1,.26-1.06.56-.51,1.72-1.43,2.37-3.38,2.16S963,278.38,961.64,280.27Zm3.71-5.3c1-.85,2.16-1.14,2.4-2.3a1.7,1.7,0,0,0-.38-1.26c-.39-.46-.9-.13-1.16.22A3.41,3.41,0,0,0,965.35,275Zm-1.82-12.46c-.41-.76-.79-1.82-2-1.92-.65,0-1,.43-.82,1.17.31,1.07.83,2,2.1,1.93C963.28,263.67,963.56,263.25,963.53,262.51Zm-2.95,17.4c-1-1.5-2-2.31-3.58-2.12-.35,0-.49.6-.32.89C957.52,280.16,958.84,280.23,960.58,279.91Zm.82-37.09c1.17,0,2.31.74,4.41.47C963.9,242.39,962.88,241.43,961.4,242.82ZM954,253.13c0,.07.36.23.68.29,1.18.19,1.74-.55,2-1.53a.57.57,0,0,0-.47-.77C955.15,251.08,954.47,251.69,954,253.13Zm4.72,5.42c-1-.74-1-2.34-2.5-2.56C956.6,257.24,956.91,258.52,958.71,258.55Z"/><path class="cls-1" d="M798.56,271.66c.2,3.74-.4,7-4.2,8.79-4.31,2-8.58,2.24-12.59-.66-3.5-2.54-4.83-6.11-4.4-10.38a2.2,2.2,0,0,1,2.3-2.22c3.37-.3,4.89.7,5.63,4.17.36,1.66,1.16,2.72,2.84,2.59a3,3,0,0,0,2.71-2.91,4.2,4.2,0,0,0-1.29-3.92c-2.67-2.39-4.72-5.33-7.26-7.87-4.46-4.46-5.63-10.21-3.64-16.29,1.64-5,6.57-7.32,12.28-6.06a10,10,0,0,1,7.73,10.67,2.15,2.15,0,0,1-1.86,2.22c-3.24.74-4.41.19-5.6-2.93-.53-1.37-1.32-2.24-2.9-2.16-1.13.05-1.95.64-1.8,1.75.39,2.85.13,5.73,2.7,8.13a43.19,43.19,0,0,1,6.73,8.38C797.66,265.64,798.88,268.45,798.56,271.66Zm-11,8.68c2.8.75,4.9.57,6.61-1.27,1.24-1.34,3.45-2.21,2.8-4.74-1.13.1-1.27.87-1.55,1.5-.41.92-.89,1.59-2.12,1.35C790.83,276.7,789.3,278.14,787.54,280.34Zm3.73-5.59a3.6,3.6,0,0,0,2.49-2,1.12,1.12,0,0,0-.59-1.47c-.46-.2-.84.17-1.11.57A3.51,3.51,0,0,0,791.27,274.75Zm-3.82-14.18c-.51.1-.9.4-.8.93.21,1.07.66,2,1.9,2.2a.84.84,0,0,0,1-.74A2.63,2.63,0,0,0,787.45,260.57Zm-.93,19.29a3.82,3.82,0,0,0-2.94-2.14.69.69,0,0,0-.86.41,1.21,1.21,0,0,0,.19,1A3.34,3.34,0,0,0,786.52,279.86Zm.46-37,4,.54C789.9,242.36,788.83,241.29,787,242.91Zm-6.05,10.61c1.12-.25,1.81-.81,1.78-1.94,0-.37-.37-.54-.77-.46a1.91,1.91,0,0,0-1.76,1.9C780.17,253.19,780.69,253.37,780.93,253.52Zm4.22,5.62c-1.86-2.66-2.09-2.88-3.16-3A4.5,4.5,0,0,0,785.15,259.14Z"/><path class="cls-1" d="M928,258.83c0-5.74,0-11.49,0-17.23,0-1.08,0-2.16.1-3.23a1.48,1.48,0,0,1,1.57-1.58,141.81,141.81,0,0,1,15.43.1,2,2,0,0,1,2.11,2c.07.72.14,1.43.15,2.15,0,3.06-.43,3.6-3.45,3.7-2,.07-4.07,0-6.1,0-1.63,0-2.37.77-2.17,2.49a42.17,42.17,0,0,1,.29,5.38,2.24,2.24,0,0,0,2.28,2.6c1.07.11,2.15.09,3.23.17,2.84.22,3.11.51,3.05,3.2-.07,3.11-.57,3.64-3.49,3.66-5.2,0-5.17,0-5.19,5.46a18.45,18.45,0,0,1-.45,2.81c-.41,2.51.22,3.32,2.79,3.28,1.67,0,3.34-.36,5-.4,1.24,0,2.83-.51,3.47,1.06a7.46,7.46,0,0,1,.24,5.93c-.32.73-1.15.83-1.86.87-4.42.26-8.84.62-13.27.7-2.87.05-3.71-.91-3.71-4.07C928,271.52,928.45,265.18,928,258.83Zm2.38-9.16a1.34,1.34,0,0,0,1.2-1.41c0-.63-.21-1.2-.93-1.16a1.3,1.3,0,0,0-1.24,1.38A1.07,1.07,0,0,0,930.36,249.67Zm10.16,28.27a1.38,1.38,0,0,0-1.3,1.36.67.67,0,0,0,.57.74,1.17,1.17,0,0,0,1.46-1.08C941.34,278.48,941,278.13,940.52,277.94Zm-4.71,1.74a1.1,1.1,0,0,0-1.38-.71c-.6.11-1.21.46-.94,1.21s.92.61,1.52.52A.86.86,0,0,0,935.81,279.68Zm-5.95-35.92c1.36.72,2.24.07,2.9-1a.56.56,0,0,0-.36-.83,2,2,0,0,0-2.46,1.49A2.65,2.65,0,0,0,929.86,243.76Zm-.1,32.91c0,.52.41.8.68.72a1.12,1.12,0,0,0,.76-1,.53.53,0,0,0-.67-.54A1,1,0,0,0,929.76,276.67Zm15.69-37.86a.68.68,0,0,0-.76-.57c-.35,0-.7.19-.7.64,0,.61.39.81.92.71A.75.75,0,0,0,945.45,238.81Zm-14.17,28.75a.49.49,0,0,0-.72-.4,1.24,1.24,0,0,0-.58.69.46.46,0,0,0,.53.61A.82.82,0,0,0,931.28,267.56Z"/><path class="cls-1" d="M294.91,258.86c0-6-.17-12,0-17.94.18-4.74-.29-4.07,4.11-4.2,3.95-.11,7.9,0,11.84.11,2.94.12,2.93.23,3.24,3.1a11.36,11.36,0,0,1,.15,1.43c0,2.5-.59,3.23-3.09,3.36-2,.1-4.07-.11-6.1,0-2.46.11-2.64.39-2.6,2.77a9.45,9.45,0,0,0,.07,1.07c.26,2-.28,4.35.93,5.89s3.6.84,5.47.93,2.38,1.05,2.37,2.76c0,3.7-.42,4.16-4.09,4.06-.72,0-1.44-.14-2.15-.09-2,.16-2.79.89-2.64,3a25,25,0,0,1-.23,6c-.31,1.87.4,2.59,2.43,2.61,1.66,0,3.33-.31,5-.37,1.38-.06,3.12-.59,3.86,1a8.43,8.43,0,0,1,.24,6c-.19.64-.92.77-1.49.81-4.66.28-9.31.65-14,.73-2.43,0-3.13-.74-3.22-3.32-.12-3.34.09-6.69.11-10s0-6.46,0-9.7Zm3.68-10.76c-.22-.52-.38-1.17-1.16-1a1.45,1.45,0,0,0-1.19,1.52,1,1,0,0,0,1.15,1C298.23,249.53,298.44,248.83,298.59,248.1Zm4.21,31.65a1.23,1.23,0,0,0-1.34-.8c-.6.05-1.13.34-1.1,1s.7.76,1.26.75A1.07,1.07,0,0,0,302.8,279.75Zm-3-37.47c.09-.19-.33-.41-.61-.44a2.22,2.22,0,0,0-2.31,1.33c-.25.52.1.88.66.89C298.58,244.1,299.31,243.61,299.77,242.28ZM307.22,278c-.68.28-1.22.71-1.06,1.52a.78.78,0,0,0,1.07.51,1.11,1.11,0,0,0,.9-1.24C308.08,278.23,307.72,278,307.22,278Zm-9.15-1.67c-.07-.4-.32-.67-.71-.45a1.39,1.39,0,0,0-.62.77c-.08.3.09.75.51.68A.9.9,0,0,0,298.07,276.33Zm13.52-38c-.36.1-.66.27-.53.71s.16.74.67.56c.35-.11.67-.3.61-.73S312,238.29,311.59,238.29Zm-13.5,29.56a.48.48,0,0,0-.46-.7c-.4,0-.61.27-.75.6-.2.48.14.61.48.68S298,268.17,298.09,267.85Z"/><path class="cls-1" d="M393.8,498.63a18.65,18.65,0,0,1,12.34,4.8c9.47,8.33,17.79,17.57,24.2,28.46a21.27,21.27,0,0,1,3,7.27,4.06,4.06,0,0,1-5.47,4.72c-1-.33-1-1.25-1.28-2a118.65,118.65,0,0,0-4.83-11.54c-2.45-4.69-5.9-8.61-9.21-12.69-5.43-6.68-12.43-11.35-19.39-16.12-.09-.07-.21-.1-.31-.17a2.12,2.12,0,0,1-1.09-2.1C391.82,498.59,392.06,498.53,393.8,498.63Z"/><path class="cls-1" d="M648.4,202.56a14,14,0,0,1-5.87-1.41c-1.64-.73-3.27-1.5-5-2.07a5.32,5.32,0,0,0-5.92,1.28c-2.2,2.18-3.83,2.09-5.72.07-1.71-1.83-1.75-3.78.16-5.69a51.49,51.49,0,0,1,5.42-4.69,6.18,6.18,0,0,1,7.06-.6c2.21,1.18,4.44,2.36,6.74,3.34,3.51,1.47,5,1,7.5-1.89,1.61-1.87,1.61-1.87,3.63-.17,4,3.4,4,3.39-.08,7-1,.86-1.85,1.86-2.81,2.76A6.31,6.31,0,0,1,648.4,202.56Zm-3.33-2c.7-.16,1.44-.14,1.48-.86a1.64,1.64,0,0,0-.75-1.11,4.23,4.23,0,0,0-1.62-.6,1.18,1.18,0,0,0-1.43.75,1.13,1.13,0,0,0,.76,1.4A9.4,9.4,0,0,0,645.07,200.52Zm9.72-7.08a.79.79,0,0,0,.61.75c.49.21.59-.19.68-.51s-.24-.59-.57-.7S654.89,193.07,654.79,193.44Z"/><path class="cls-1" d="M381.63,513.79c5.48,1.24,10,3.91,14.36,6.76,8.1,5.32,14.3,12.56,19.61,20.58a9.26,9.26,0,0,1,.89,1.55c.84,2.14.37,4.09-1.09,4.72a4,4,0,0,1-5.21-1.66c-3.73-7.18-8.95-13.21-14.78-18.69a54.41,54.41,0,0,0-11.07-7.77C381.66,517.78,381.66,517.61,381.63,513.79Z"/><path class="cls-1" d="M374.3,531.93a6.11,6.11,0,0,1,3.46.75c3.6,2.11,7.27,4.11,10.24,7.15,2.42,2.47,5.05,4.75,7.45,7.24,1.92,2,3.63,4.13,3.35,7.21-.1,1.14-.2,2.18-1.37,2.67a2.64,2.64,0,0,1-3.21-.9c-2.07-2.46-4.11-5-6.17-7.45-4.28-5.16-8.77-10.08-14.84-13.25a4.24,4.24,0,0,1-1.12-.86,1.73,1.73,0,0,1-.44-2c.29-.64,1-.55,1.57-.59C373.58,531.91,373.94,531.93,374.3,531.93Z"/><path class="cls-1" d="M360.69,547.05a9.24,9.24,0,0,1,3,.49c5.08,2.63,10.62,4.48,14.95,8.42,1.94,1.77,4.33,3,5.95,5.16.82,1.08,1.67,2.26,1,3.58a4.17,4.17,0,0,1-3.5,2.21,2.86,2.86,0,0,1-2.76-1.3c-4.65-6.51-11.67-10.06-18-14.4-.49-.34-1.07-.54-1.59-.83-.92-.5-2.21-.86-1.88-2.24S359.48,547.24,360.69,547.05Z"/><path class="cls-1" d="M349.88,559.74a5.22,5.22,0,0,1,2.41.33c4.67,2.37,9.68,4,14.13,6.87a14.61,14.61,0,0,1,2.77,2.24,4.08,4.08,0,0,1,.39,5.2,3.75,3.75,0,0,1-5.13.31c-4-3.05-8.3-5.59-12.48-8.34-1.49-1-3-1.93-4.58-2.78-1-.54-2.05-1-1.86-2.31s1.48-1.35,2.52-1.51A15.06,15.06,0,0,1,349.88,559.74Z"/><path class="cls-1" d="M533.6,487a21.49,21.49,0,0,0-1.94,4.32,3.42,3.42,0,0,1-1.72,2.18,1.62,1.62,0,0,1-2.47-1.47,10,10,0,0,1,.14-3.2c1-3.67,2.12-7.3,3.19-10.95.35-1.19.73-2.29,2.28-2.31s2,.89,2.37,2.16a43.07,43.07,0,0,0,5.12,10.95c.81,1.25,1.32,2.7.06,3.88-1,.89-3.52.19-4.49-1.07A10.26,10.26,0,0,1,535,489.3C534.64,488.55,534.63,487.65,533.6,487Z"/><path class="cls-1" d="M887.94,810.7a2.65,2.65,0,0,1,.94-.33c.27,0,.72.25.38.69a.68.68,0,0,1-.94.21C888.17,811.17,888.09,810.94,887.94,810.7Z"/><path class="cls-1" d="M439.68,317.16a8.59,8.59,0,0,1,.73-3.8,2.66,2.66,0,0,1,2.58-1.55,2.32,2.32,0,0,1,2.06,1.72,11,11,0,0,1,0,7.64,2.49,2.49,0,0,1-2.31,1.91c-1.43.05-2.07-.95-2.58-2.07A9.5,9.5,0,0,1,439.68,317.16Z"/><path class="cls-2" d="M394.18,362.5A29.3,29.3,0,0,0,398.5,357c6.4-7.73,12.78-15.49,19.22-23.18,3.22-3.85,6.14-7.94,9.67-11.52.06.47.14.93.17,1.4.05.89.25,1.7,1.38,1.56.9-.11.9-.93,1-1.62.16-1.75-.23-3.52.25-5.25q11.78-14.26,23.56-28.54c3.74-4.51,7.52-9,11.29-13.48,1.77,5.1,3.87,6.32,9.4,5.45a10.17,10.17,0,0,1,3.51-.35c-.18,1.81-1.66,2.81-2.67,4.06-5.91,7.35-11.91,14.62-17.86,21.94-.6.73-1.09,1.56-1.62,2.34l.14-.19-7.51,8.6c-.22-1.54-.34-3.09-.68-4.59-.63-2.69-2.25-4.07-4.63-4.19a5,5,0,0,0-5.34,3.82,14.34,14.34,0,0,0-.38,6.71c.56,2.95,1.86,5.13,5,5.85q-11.71,14.5-23.43,29c-.67.83-1.27,1.73-1.9,2.6a41.65,41.65,0,0,0-5.34,6.58c-4.89,5.24-9.18,11-13.71,16.51q-17.15,20.91-34.15,41.94c-.52.64-.92,1.38-1.38,2.07-6.33,0-12.65.38-19-.15.85-1,1.72-2,2.55-3Q370.1,391.94,394.18,362.5Z"/><path class="cls-2" d="M507.29,224.72c.21,1.17.4,2.34.64,3.5.63,3.05,1.76,4,4.92,3.93,2,0,4-.55,6-.31-6.27,8.12-12.67,16.13-19.42,23.85a12.58,12.58,0,0,1-.5-4.6c0-5.62,0-11.23,0-16.84C502.11,231.39,504.24,227.66,507.29,224.72Z"/><path class="cls-2" d="M484.29,252.76q.73,5.65,1.46,11.32c.07.57,0,1.21.71,1.49l0-.07c-.53,2.05.71,3.87.77,5.84a74.5,74.5,0,0,0-5.85,6.69c-.82,1-1.42,2.21-2.7,2.75-.47-6.95-1.12-13.9-.68-20.88Z"/><path class="cls-2" d="M477.87,281.47c0-.49.42-.62.8-.74C478.63,281.22,478.45,281.55,477.87,281.47Z"/><path class="cls-2" d="M475.73,263.28a5,5,0,0,1-.19,3.09,1.25,1.25,0,0,1-1.24,1c-.83-.08-.59-.85-.63-1.37a4.72,4.72,0,0,1,.14-1Z"/><path class="cls-2" d="M468.9,275.1c.52,0,.73.53.84,1.1a1.12,1.12,0,0,1-.75,1.38c-.83.17-1.25-.41-1.25-1.22A1.13,1.13,0,0,1,468.9,275.1Z"/><path class="cls-2" d="M488.81,269.12c-1.67-.63-1-2.8-2.4-3.62l0,.07c.23-1.16.44-2.31.69-3.46a3.73,3.73,0,0,1,1.8-2.55,1.29,1.29,0,0,1,1.35-.13,1,1,0,0,1,.4,1.27c-1,1.91-.19,3.43.95,4.9Z"/><polygon class="cls-2" points="420.53 330.32 443.82 301.79 451 295 459.17 305.23 426.19 345.76 420.53 330.32"/></svg>