<svg id="Layer_1" data-name="Layer 1" xmlns="http://www.w3.org/2000/svg" viewBox="0 0 1275.40243 456.79999"><defs><style>.cls-1,.cls-2{stroke:#000;stroke-miterlimit:10;}.cls-1{stroke-width:2px;}</style></defs><title>adsr_ATLAS_logo_dark_byadsr</title><path d="M268.678,50.48484A177.91516,177.91516,0,1,0,446.59309,228.4,177.87805,177.87805,0,0,0,268.678,50.48484Zm4.51008,341.989a24.84464,24.84464,0,0,1-5.59874-13.84129c0-4.19907,1.71073-5.28768,1.71073-10.10882,0-6.53187-3.26593-8.24255-1.5552-11.50849s5.28768-.46654,10.88641-4.51007c1.86627-1.24415,8.39809-5.28768,10.41988-5.28768h.31106c.46654.15553.93313.31106,3.1104,1.08866,2.95488,1.08866,3.42147.7776,4.19907.31106.7776-.62207,1.24414-1.71073-.46654-3.26594-1.86627-1.5552-4.51008-.93313-4.82114-1.86626s1.5552-1.5552,2.64386-3.888a2.70449,2.70449,0,0,0-.62207-2.79935c-1.08866-.93313-2.17727-.62207-3.73247,1.24414s-.93314,2.33281-2.33281,4.51008-4.97666,3.73248-5.90975,3.11041.31106-2.33281,1.86626-8.39809a25.76856,25.76856,0,0,1,1.71074-5.90977c.15553-.46657,3.26593-6.22081,6.68735-6.22081,2.17727,0,2.02174,1.39967,4.6656,1.5552s4.19907-.93313,6.22081-.311c1.08866.311,1.39968,1.39967,2.33281,3.42144,1.24414,2.79937.93313,3.888,1.86626,4.199a3.417,3.417,0,0,0,3.888-2.3328c.31106-1.86624-4.35454-2.95488-4.82113-6.53185v-.7776c.46654-2.48833,4.97666-3.26594,5.28768-4.66561s-1.55521-3.42144-3.11041-3.1104-.93313,3.26593-3.73248,5.28768a9.05521,9.05521,0,0,1-7.46495,1.39967c-.46654-.15553-3.1104-1.08864-3.26593-2.17728-.15553-1.24416,1.5552-1.86623,5.59874-4.82113,2.95487-2.17728,2.3328-2.02177,4.04353-3.11041,4.97667-3.26593,8.55361-3.73247,8.39808-4.6656,0-.93313-2.17727-2.17728-4.82113-1.71074-2.48834.46657-2.79935,3.11041-4.66561,3.11041a4.03547,4.03547,0,0,1-3.73247-3.888q.46658-1.63295.93313-3.26593h0a2.86815,2.86815,0,0,0-3.11041-2.79937c-.7776.15553-.93313.7776-1.71073,2.64384a9.10884,9.10884,0,0,0-1.08866,4.82114c.46654,2.3328,3.73247,2.3328,4.19906,3.888.46655,1.71073-2.02174,3.26594-8.24255,8.55361s-6.84288,6.06528-7.46495,6.99841c-1.71073,2.79937-.93313,3.42144-3.26594,8.70915a89.52529,89.52529,0,0,0-2.79934,9.1757c-1.71073,4.35455-1.08866,4.66561-2.48833,5.75427s-4.51008,2.64387-6.06528,1.08866c-2.64387-2.79934-.93313-9.64227,1.24414-16.32962a26.53576,26.53576,0,0,1,2.64386-6.06528c1.39967-1.86624,2.02175-2.3328,4.35455-5.44321a23.66092,23.66092,0,0,0,3.73248-5.90977c1.08866-3.11041,0-4.199,1.08866-6.06528,1.24414-1.86624,2.3328-1.5552,3.888-3.888a5.47435,5.47435,0,0,0,1.24414-5.44321c-.7776-1.5552-1.71073-2.3328-2.64386-2.3328s-1.5552.7776-2.3328,3.42144-2.95488,5.44321-4.04354,5.28768-1.86626-2.64384-1.24414-4.82114a4.795,4.795,0,0,0,.62207-3.26593,1.988,1.988,0,0,0-1.86626-1.71073,4.17369,4.17369,0,0,0-3.42146,2.3328,5.32293,5.32293,0,0,0,.15553,4.35457c1.5552,4.199,3.73247,4.97664,4.6656,8.55361a6.21836,6.21836,0,0,1-.62207,4.97665c-.31106.15553-.7776-1.24417-2.3328-2.33281a6.25909,6.25909,0,0,0-3.73248-.7776c-2.02174.311-2.79934,1.39967-2.02174,3.11041s4.82113.311,5.44321,2.02176c.7776,1.71074-5.13215,4.19905-7.776,9.64225-1.86626,4.19905-.46654,4.82114-2.02174,11.19748-1.08866,4.51008-1.24414,7.93154-1.5552,9.02015a5.59663,5.59663,0,0,1-1.71073,2.17728c-2.48834-.31106-3.42147-4.97667-4.51008-7.62048-1.5552-3.26594-4.35455-4.66561-3.11041-7.15394.62208-1.39968,1.55521-1.39968,2.64387-3.42144.7776-1.39968.62207-2.02177,1.08866-4.35458.7776-3.42144.62207-3.73247,1.39967-6.99841a14.01935,14.01935,0,0,1,1.39967-4.97664,9.78837,9.78837,0,0,0,1.39968-5.13217c.15552-1.86624-.31106-2.48833.62207-3.42144s5.75426-.62207,6.22081-1.24417.15553-1.86624-1.24415-2.48833-3.42146,1.39967-4.35454.46656c-1.08867-.93313,1.08866-3.26593,0-4.35457a3.73339,3.73339,0,0,0-4.35455-.15553c-1.39967.93313.31106,3.26594.31106,7.93154-.15553,2.95488-.62207,5.75425-1.08866,5.75425s-1.39968-1.24417-3.26594-5.44321c-.7776-1.86624-1.24414-2.95487-2.64386-3.42144a3.43443,3.43443,0,0,0-2.48833,0,1.85029,1.85029,0,0,0-.62207,1.71073,12.81368,12.81368,0,0,0,3.42146,6.37634,12.91383,12.91383,0,0,1,2.17727,9.17568c-.31106,4.35458-2.17727,10.26435-4.19906,10.26435s-4.66561-3.888-6.22081-7.465c-1.39967-3.577-1.08866-4.51007-.62207-5.59873.62207-1.08864,1.08866-1.08864,2.3328-2.64384.7776-1.08864,2.3328-3.42144,1.39967-4.82114a2.52982,2.52982,0,0,0-2.64386-.93313c-1.86626.62207-1.39967,4.97664-2.3328,5.13217s-1.55521-4.35457-2.95488-4.51008-3.42146,3.11041-2.79934,4.19905c.46654.93313,2.48833,1.08863,2.95487,1.86623.62207.62208.62207.93313.62207,3.42144s.62207,3.73248,0,3.888-2.02174-.62207-4.19906-1.71073c-1.71073-.7776-2.48834-.93313-3.11041-.46657a2.03693,2.03693,0,0,0-.7776,2.64384c1.39967,3.26594,7.776,1.86624,11.19748,5.75425,1.39967,1.71073,1.5552,1.86623,3.42146,4.35457,2.33281,3.1104,3.26594,2.95487,4.35455,5.4432s1.39967,4.04354,2.64386,6.68736a22.95859,22.95859,0,0,0,2.48834,4.19906c1.08866,1.71073,1.86626,2.48833,1.39967,3.26594-.46654.62207-1.71073.7776-3.11041,0a9.20255,9.20255,0,0,1-4.6656-5.28768,62.488,62.488,0,0,0-3.73248-7.15394,26.32147,26.32147,0,0,0-4.35455-4.97667,12.56641,12.56641,0,0,1-2.48833-2.48833,13.33921,13.33921,0,0,0-2.02174-3.11041,4.155,4.155,0,0,0-4.35455-1.5552c-.31106,0-.46654.15553-.7776.311a2.5318,2.5318,0,0,0-.62207,3.577c.62207.7776,1.5552.46654,3.73247,1.5552,1.39967.62207,3.11041,1.5552,3.42147,2.95487.31106,1.24415,0,2.33281-.93314,2.64387a4.28736,4.28736,0,0,1-3.42146-.46655c-2.02174-1.08866-2.79934-1.71073-3.888-1.71073s-1.5552.93313-1.5552,2.02175,2.17728,1.86626,3.42147,2.48833a22.73513,22.73513,0,0,0,3.1104.7776,51.84026,51.84026,0,0,1,8.55361,1.5552c1.55521,1.08866,2.17728,2.33281,2.95488,5.75427a4.74043,4.74043,0,0,0,1.86626,3.42146,9.22306,9.22306,0,0,0,4.19907,2.64387,11.419,11.419,0,0,1,5.13214,2.95487c1.86627,2.02175,2.33281,9.02016,1.39968,9.64228s-2.95488-3.73248-3.888-4.19907q-1.39969-.93311-2.79934-1.86626a30.51327,30.51327,0,0,0-4.97667-2.64386,37.20651,37.20651,0,0,1-3.26593-2.02175,28.6094,28.6094,0,0,1-3.42147-2.64386c-1.24414-1.24414-1.39967-1.86626-2.48833-2.3328a4.31539,4.31539,0,0,0-2.79935,0,2.57756,2.57756,0,0,0-.93313,3.42146c.62207.7776,1.5552.46654,3.73248,1.39967,1.08866.46654,3.26593,1.71073,3.26593,2.48834s-1.39967,1.39967-2.79934,2.48833c-1.24415,1.08866-2.79935,2.64386-2.17728,3.42146a2.2385,2.2385,0,0,0,2.33281.62207c1.39967-.46654,1.08866-1.71073,2.64386-3.26593a4.99477,4.99477,0,0,1,3.42146-1.5552c1.24415.15553,1.24415,1.5552,3.42147,3.1104a19.02837,19.02837,0,0,0,3.73247,1.5552,20.04032,20.04032,0,0,1,5.13215,2.64387,6.64588,6.64588,0,0,1,.7776,5.13215c-.31106,2.48833-.93313,2.64386-1.39967,5.75426a9.14256,9.14256,0,0,0,.31106,5.75427,5.49042,5.49042,0,0,0,2.3328,2.64386c.15553.15553.31106.15553.62208.31106a162.5104,162.5104,0,0,1-79.00426-26.28291c14.15235-41.36839,29.70437-83.20332,44.7898-123.63858,15.3965-41.21286,31.10405-83.66989,45.41193-125.81587,14.46336,40.27974,28.46018,82.11468,42.146,122.70547,14.30788,42.457,28.92678,86.15819,44.16774,128.45972A169.39173,169.39173,0,0,1,273.188,392.47381Z"/><path class="cls-1" d="M665.7933,297.47559H655.53744V215.43066H566.8099v82.04493H556.554V190.77148q0-27.07763,13.59668-43.44238,14.51954-17.6294,41.13769-17.62988,26.15772,0,40.792,17.86035,13.7124,16.481,13.71289,43.21191Zm-10.25586-91.14747V194.34375q0-55.19531-44.249-55.19629-44.48,0-44.47851,55.19629v11.98437Z"/><path class="cls-1" d="M783.93978,141.91309H737.1556v155.5625H726.90072V141.91309H680.46224v-9.44825H783.93978Z"/><path class="cls-1" d="M893.67416,297.47559H832.37045a21.9968,21.9968,0,0,1-13.13575-4.03321q-7.49266-5.29833-7.49023-15.55566V132.46484h10.25586V278.002q0,8.64112,9.34765,10.02442h62.32618Z"/><path class="cls-1" d="M1030.59994,297.47559h-10.25586V215.43066H931.61654v82.04493H921.36068V190.77148q0-27.07763,13.59668-43.44238,14.51954-17.6294,41.1377-17.62988,26.15771,0,40.792,17.86035,13.7124,16.481,13.71289,43.21191Zm-10.25586-91.14747V194.34375q0-55.19531-44.249-55.19629-44.48,0-44.47852,55.19629v11.98437Z"/><path class="cls-1" d="M1161.88021,254.95508q0,22.125-15.90234,33.18652-13.82667,9.6797-36.75879,9.334h-9.56348q-39.06445,0-39.06347-42.98145v-6.56836h8.98828v6.56836q0,33.07325,30.88183,33.07129h3.6875q16.59229,0,28.34668-4.72949,18.08936-7.26857,18.09082-27.11328,0-14.99707-12.54883-24.34278-6.67968-4.96142-26.13574-12.80664l-10.6289-4.19238q-22.35937-8.98536-30.07911-15.43848-12.90966-10.71387-12.90722-29.3789,0-37.09717,52.19922-37.09864h11.86914q38.94726,0,38.94824,42.51954v6.56835h-8.98828v-6.5498q0-33.43506-31.04-33.43555h-13.73047q-39.00439,0-39.00195,27.37891,0,14.15186,10.291,22.43164,6.35742,5.061,23.35645,11.73437l16.3623,6.44141q21.7793,8.64258,28.23145,14.05859Q1161.87972,236.40333,1161.88021,254.95508Z"/><path d="M958.11654,354.22559a15.04616,15.04616,0,0,1-4.00879,10.85351,14.08319,14.08319,0,0,1-10.67383,4.18848,14.72229,14.72229,0,0,1-5.374-.99024,14.07059,14.07059,0,0,1-6.60645-4.9541v5.4043H928.932l-.03027-.03027V325.85156h2.55175v19.72656a13.92721,13.92721,0,0,1,12.11719-6.42578q6.74853,0,10.67676,4.20411Q958.11605,347.439,958.11654,354.22559Zm-2.67188-.06055a13.08413,13.08413,0,0,0-3.17968-9.12793,11.3507,11.3507,0,0,0-8.84571-3.60254,10.65818,10.65818,0,0,0-9.11621,4.293q-2.84911,3.81446-2.84961,9.96875v3.93359a15.22494,15.22494,0,0,0,6.59766,6.03516,11.93288,11.93288,0,0,0,5.36816,1.23047,11.385,11.385,0,0,0,8.876-3.60254A13.02412,13.02412,0,0,0,955.44466,354.165Z"/><path d="M989.2308,367.82715q0,6.75585-3.69336,10.749-3.813,4.14258-10.50879,4.14356a17.85708,17.85708,0,0,1-9.69824-2.88282l.87109-2.52246a14.32756,14.32756,0,0,0,5.49414,2.46289,17.01771,17.01771,0,0,0,3.45313.41993q5.55468,0,8.61718-3.45313,2.94288-3.30322,2.94239-8.917v-2.94238a10.895,10.895,0,0,1-9.27735,4.38281q-5.76562,0-8.88769-3.7832-2.91359-3.48193-2.91211-9.36719V339.69336h2.46191v17.23437a10.4592,10.4592,0,0,0,2.43164,7.17579,8.711,8.711,0,0,0,6.90625,2.9121,8.60432,8.60432,0,0,0,6.84571-2.94238,10.48564,10.48564,0,0,0,2.43164-7.14551V339.69336h2.52246Z"/><path d="M1051.22006,368.72754h-2.67188V347.34961h-23.12012v21.37793h-2.67187V340.92383q0-7.05469,3.543-11.31934,3.78369-4.59375,10.71875-4.59375,6.81591,0,10.62988,4.65332,3.57276,4.29492,3.57227,11.25977Zm-2.67188-23.75v-3.123q0-14.38184-11.53027-14.38183-11.58986,0-11.58985,14.38183v3.123Z"/><path d="M1090.38216,346.86914q0,9.45849-4.26367,15.25293-4.80468,6.51563-13.96191,6.51563h-8.28711a5.58175,5.58175,0,0,1-3.42285-1.1709,4.62581,4.62581,0,0,1-1.95117-3.9336V329.75488h.02929a4.84466,4.84466,0,0,1,1.4834-3.72363,5.4297,5.4297,0,0,1,3.85156-1.38086l7.3125-.03027a17.25977,17.25977,0,0,1,14.3545,6.72558Q1090.38118,337.501,1090.38216,346.86914Zm-2.82226-.06055q0-8.31591-4.01856-13.6914a14.74735,14.74735,0,0,0-12.50683-6.00489h-7.4375a2.45658,2.45658,0,0,0-2.42969,2.61426v33.86426a2.45873,2.45873,0,0,0,2.43457,2.61426h8.38672q8.05663,0,12.084-5.915Q1087.55892,355.21728,1087.5599,346.80859Z"/><path d="M1124.59017,357.64844q0,5.76416-4.14355,8.64746-3.60352,2.521-9.57813,2.43164h-2.49218q-10.17921,0-10.17872-11.19922v-1.71191h2.3418v1.71191q0,8.61768,8.04688,8.61719h.96093a19.79417,19.79417,0,0,0,7.38672-1.23242,7.00264,7.00264,0,0,0,4.71387-7.06543,7.55789,7.55789,0,0,0-3.27051-6.34278,34.83052,34.83052,0,0,0-6.80957-3.33691l-2.76953-1.0918q-5.82569-2.34228-7.83789-4.02344a9.4144,9.4144,0,0,1-3.36328-7.65527q0-9.665,13.60156-9.666h3.09277q10.14845,0,10.14844,11.0791v1.71093h-2.3418v-1.70605q0-8.71288-8.08789-8.71191H1110.432q-10.16309,0-10.16309,7.13378a7.10726,7.10726,0,0,0,2.68164,5.84473,25.799,25.799,0,0,0,6.08594,3.05762l4.26367,1.67871q5.67481,2.25147,7.35645,3.66309A10.315,10.315,0,0,1,1124.59017,357.64844Z"/><path d="M1158.25716,338.16113a12.55669,12.55669,0,0,1-4.38378,9.78907,12.18177,12.18177,0,0,1-2.70215,1.80078l7.08593,18.94629-2.69726-.0127-6.78809-18.06348a20.76365,20.76365,0,0,1-5.59668.69141h-8.69824v17.38477H1131.805V330.23145a4.64429,4.64429,0,0,1,1.95214-4.05079,5.82268,5.82268,0,0,1,3.42286-1.0498l8.04687.0293a12.28,12.28,0,0,1,13.03027,13.001Zm-2.82226.06055a10.82206,10.82206,0,0,0-2.73633-7.70117,9.7483,9.7483,0,0,0-7.48633-2.92774h-8.2998a2.45844,2.45844,0,0,0-2.43555,2.61231v18.64551h9.62207a11.72156,11.72156,0,0,0,8.14844-2.73243A10.0514,10.0514,0,0,0,1155.4349,338.22168Z"/><path class="cls-2" d="M1051.85189,368.72656H1049.18V347.34863H1026.0599v21.37793H1023.388V340.92285q0-7.05468,3.543-11.31933,3.78369-4.59375,10.71875-4.59375,6.81593,0,10.62989,4.65332,3.57274,4.29492,3.57226,11.25976Zm-2.67187-23.75v-3.123q0-14.38185-11.53028-14.38184-11.58984,0-11.58984,14.38184v3.123Z"/><path class="cls-2" d="M1091.014,346.86816q0,9.45851-4.26367,15.25293-4.8047,6.51563-13.96192,6.51563h-8.2871a5.58178,5.58178,0,0,1-3.42286-1.1709,4.62582,4.62582,0,0,1-1.95117-3.93359V329.75391h.0293a4.84467,4.84467,0,0,1,1.4834-3.72364,5.42968,5.42968,0,0,1,3.85156-1.38086l7.3125-.03027a17.25973,17.25973,0,0,1,14.35449,6.72559Q1091.013,337.5,1091.014,346.86816Zm-2.82227-.06054q0-8.31592-4.01855-13.69141a14.74736,14.74736,0,0,0-12.50684-6.00488h-7.4375a2.45657,2.45657,0,0,0-2.42968,2.61426v33.86425a2.45873,2.45873,0,0,0,2.43457,2.61426h8.38672q8.05664,0,12.084-5.915Q1088.19076,355.21632,1088.19173,346.80762Z"/><path class="cls-2" d="M1125.222,357.64746q0,5.76415-4.14356,8.64746-3.60351,2.521-9.57812,2.43164h-2.49219q-10.17919,0-10.17871-11.19922v-1.71191h2.3418v1.71191q0,8.61768,8.04687,8.61719h.96094a19.79421,19.79421,0,0,0,7.38672-1.23242,7.00263,7.00263,0,0,0,4.71387-7.06543,7.55788,7.55788,0,0,0-3.27051-6.34277,34.831,34.831,0,0,0-6.80957-3.33692L1109.43,347.0752q-5.82569-2.3423-7.83789-4.02344a9.41443,9.41443,0,0,1-3.36329-7.65528q0-9.665,13.60157-9.666h3.09277q10.14845,0,10.14844,11.0791v1.71094h-2.3418v-1.70606q0-8.71289-8.08789-8.71191h-3.57812q-10.1631,0-10.16309,7.13379a7.10723,7.10723,0,0,0,2.68164,5.84472,25.79879,25.79879,0,0,0,6.08594,3.05762l4.26367,1.67871q5.6748,2.25147,7.35644,3.66309A10.31507,10.31507,0,0,1,1125.222,357.64746Z"/><path class="cls-2" d="M1158.889,338.16016a12.5567,12.5567,0,0,1-4.38379,9.78906,12.1813,12.1813,0,0,1-2.70215,1.80078l7.08594,18.94629-2.69727-.0127-6.78808-18.06347a20.76407,20.76407,0,0,1-5.59668.6914h-8.69824v17.38477h-2.67188V330.23047a4.64426,4.64426,0,0,1,1.95215-4.05078,5.82258,5.82258,0,0,1,3.42285-1.04981l8.04688.0293a12.28,12.28,0,0,1,13.03027,13.001Zm-2.82227.06054a10.82207,10.82207,0,0,0-2.73632-7.70117,9.7483,9.7483,0,0,0-7.48633-2.92773h-8.29981a2.45843,2.45843,0,0,0-2.43554,2.6123v18.64551h9.62207a11.72156,11.72156,0,0,0,8.14843-2.73242A10.05144,10.05144,0,0,0,1156.06673,338.2207Z"/></svg>