<svg id="Layer_1" data-name="Layer 1" xmlns="http://www.w3.org/2000/svg" viewBox="0 0 1347.78537 456.79999"><defs><style>.cls-1{stroke:#000;stroke-miterlimit:10;stroke-width:2px;}.cls-2{opacity:0.22;}</style></defs><title>adsr_ATLAS_logo_dark</title><path d="M268.678,50.48484A177.91516,177.91516,0,1,0,446.59309,228.4,177.87805,177.87805,0,0,0,268.678,50.48484Zm4.51008,341.989a24.84464,24.84464,0,0,1-5.59874-13.84129c0-4.19907,1.71073-5.28768,1.71073-10.10882,0-6.53187-3.26593-8.24255-1.5552-11.50849s5.28768-.46654,10.88641-4.51007c1.86627-1.24415,8.39809-5.28768,10.41988-5.28768h.31106c.46654.15553.93313.31106,3.1104,1.08866,2.95488,1.08866,3.42147.7776,4.19907.31106.7776-.62207,1.24414-1.71073-.46654-3.26594-1.86627-1.5552-4.51008-.93313-4.82114-1.86626s1.5552-1.5552,2.64386-3.888a2.70449,2.70449,0,0,0-.62207-2.79935c-1.08866-.93313-2.17727-.62207-3.73247,1.24414s-.93314,2.33281-2.33281,4.51008-4.97666,3.73248-5.90975,3.11041.31106-2.33281,1.86626-8.39809a25.76856,25.76856,0,0,1,1.71074-5.90977c.15553-.46657,3.26593-6.22081,6.68735-6.22081,2.17727,0,2.02174,1.39967,4.6656,1.5552s4.19907-.93313,6.22081-.311c1.08866.311,1.39968,1.39967,2.33281,3.42144,1.24414,2.79937.93313,3.888,1.86626,4.199a3.417,3.417,0,0,0,3.888-2.3328c.31106-1.86624-4.35454-2.95488-4.82113-6.53185v-.7776c.46654-2.48833,4.97666-3.26594,5.28768-4.66561s-1.55521-3.42144-3.11041-3.1104-.93313,3.26593-3.73248,5.28768a9.05521,9.05521,0,0,1-7.46495,1.39967c-.46654-.15553-3.1104-1.08864-3.26593-2.17728-.15553-1.24416,1.5552-1.86623,5.59874-4.82113,2.95487-2.17728,2.3328-2.02177,4.04353-3.11041,4.97667-3.26593,8.55361-3.73247,8.39808-4.6656,0-.93313-2.17727-2.17728-4.82113-1.71074-2.48834.46657-2.79935,3.11041-4.66561,3.11041a4.03547,4.03547,0,0,1-3.73247-3.888q.46658-1.63295.93313-3.26593h0a2.86815,2.86815,0,0,0-3.11041-2.79937c-.7776.15553-.93313.7776-1.71073,2.64384a9.10884,9.10884,0,0,0-1.08866,4.82114c.46654,2.3328,3.73247,2.3328,4.19906,3.888.46655,1.71073-2.02174,3.26594-8.24255,8.55361s-6.84288,6.06528-7.46495,6.99841c-1.71073,2.79937-.93313,3.42144-3.26594,8.70915a89.52529,89.52529,0,0,0-2.79934,9.1757c-1.71073,4.35455-1.08866,4.66561-2.48833,5.75427s-4.51008,2.64387-6.06528,1.08866c-2.64387-2.79934-.93313-9.64227,1.24414-16.32962a26.53576,26.53576,0,0,1,2.64386-6.06528c1.39967-1.86624,2.02175-2.3328,4.35455-5.44321a23.66092,23.66092,0,0,0,3.73248-5.90977c1.08866-3.11041,0-4.199,1.08866-6.06528,1.24414-1.86624,2.3328-1.5552,3.888-3.888a5.47435,5.47435,0,0,0,1.24414-5.44321c-.7776-1.5552-1.71073-2.3328-2.64386-2.3328s-1.5552.7776-2.3328,3.42144-2.95488,5.44321-4.04354,5.28768-1.86626-2.64384-1.24414-4.82114a4.795,4.795,0,0,0,.62207-3.26593,1.988,1.988,0,0,0-1.86626-1.71073,4.17369,4.17369,0,0,0-3.42146,2.3328,5.32293,5.32293,0,0,0,.15553,4.35457c1.5552,4.199,3.73247,4.97664,4.6656,8.55361a6.21836,6.21836,0,0,1-.62207,4.97665c-.31106.15553-.7776-1.24417-2.3328-2.33281a6.25909,6.25909,0,0,0-3.73248-.7776c-2.02174.311-2.79934,1.39967-2.02174,3.11041s4.82113.311,5.44321,2.02176c.7776,1.71074-5.13215,4.19905-7.776,9.64225-1.86626,4.19905-.46654,4.82114-2.02174,11.19748-1.08866,4.51008-1.24414,7.93154-1.5552,9.02015a5.59663,5.59663,0,0,1-1.71073,2.17728c-2.48834-.31106-3.42147-4.97667-4.51008-7.62048-1.5552-3.26594-4.35455-4.66561-3.11041-7.15394.62208-1.39968,1.55521-1.39968,2.64387-3.42144.7776-1.39968.62207-2.02177,1.08866-4.35458.7776-3.42144.62207-3.73247,1.39967-6.99841a14.01935,14.01935,0,0,1,1.39967-4.97664,9.78837,9.78837,0,0,0,1.39968-5.13217c.15552-1.86624-.31106-2.48833.62207-3.42144s5.75426-.62207,6.22081-1.24417.15553-1.86624-1.24415-2.48833-3.42146,1.39967-4.35454.46656c-1.08867-.93313,1.08866-3.26593,0-4.35457a3.73339,3.73339,0,0,0-4.35455-.15553c-1.39967.93313.31106,3.26594.31106,7.93154-.15553,2.95488-.62207,5.75425-1.08866,5.75425s-1.39968-1.24417-3.26594-5.44321c-.7776-1.86624-1.24414-2.95487-2.64386-3.42144a3.43443,3.43443,0,0,0-2.48833,0,1.85029,1.85029,0,0,0-.62207,1.71073,12.81368,12.81368,0,0,0,3.42146,6.37634,12.91383,12.91383,0,0,1,2.17727,9.17568c-.31106,4.35458-2.17727,10.26435-4.19906,10.26435s-4.66561-3.888-6.22081-7.465c-1.39967-3.577-1.08866-4.51007-.62207-5.59873.62207-1.08864,1.08866-1.08864,2.3328-2.64384.7776-1.08864,2.3328-3.42144,1.39967-4.82114a2.52982,2.52982,0,0,0-2.64386-.93313c-1.86626.62207-1.39967,4.97664-2.3328,5.13217s-1.55521-4.35457-2.95488-4.51008-3.42146,3.11041-2.79934,4.19905c.46654.93313,2.48833,1.08863,2.95487,1.86623.62207.62208.62207.93313.62207,3.42144s.62207,3.73248,0,3.888-2.02174-.62207-4.19906-1.71073c-1.71073-.7776-2.48834-.93313-3.11041-.46657a2.03693,2.03693,0,0,0-.7776,2.64384c1.39967,3.26594,7.776,1.86624,11.19748,5.75425,1.39967,1.71073,1.5552,1.86623,3.42146,4.35457,2.33281,3.1104,3.26594,2.95487,4.35455,5.4432s1.39967,4.04354,2.64386,6.68736a22.95859,22.95859,0,0,0,2.48834,4.19906c1.08866,1.71073,1.86626,2.48833,1.39967,3.26594-.46654.62207-1.71073.7776-3.11041,0a9.20255,9.20255,0,0,1-4.6656-5.28768,62.488,62.488,0,0,0-3.73248-7.15394,26.32147,26.32147,0,0,0-4.35455-4.97667,12.56641,12.56641,0,0,1-2.48833-2.48833,13.33921,13.33921,0,0,0-2.02174-3.11041,4.155,4.155,0,0,0-4.35455-1.5552c-.31106,0-.46654.15553-.7776.311a2.5318,2.5318,0,0,0-.62207,3.577c.62207.7776,1.5552.46654,3.73247,1.5552,1.39967.62207,3.11041,1.5552,3.42147,2.95487.31106,1.24415,0,2.33281-.93314,2.64387a4.28736,4.28736,0,0,1-3.42146-.46655c-2.02174-1.08866-2.79934-1.71073-3.888-1.71073s-1.5552.93313-1.5552,2.02175,2.17728,1.86626,3.42147,2.48833a22.73513,22.73513,0,0,0,3.1104.7776,51.84026,51.84026,0,0,1,8.55361,1.5552c1.55521,1.08866,2.17728,2.33281,2.95488,5.75427a4.74043,4.74043,0,0,0,1.86626,3.42146,9.22306,9.22306,0,0,0,4.19907,2.64387,11.419,11.419,0,0,1,5.13214,2.95487c1.86627,2.02175,2.33281,9.02016,1.39968,9.64228s-2.95488-3.73248-3.888-4.19907q-1.39969-.93311-2.79934-1.86626a30.51327,30.51327,0,0,0-4.97667-2.64386,37.20651,37.20651,0,0,1-3.26593-2.02175,28.6094,28.6094,0,0,1-3.42147-2.64386c-1.24414-1.24414-1.39967-1.86626-2.48833-2.3328a4.31539,4.31539,0,0,0-2.79935,0,2.57756,2.57756,0,0,0-.93313,3.42146c.62207.7776,1.5552.46654,3.73248,1.39967,1.08866.46654,3.26593,1.71073,3.26593,2.48834s-1.39967,1.39967-2.79934,2.48833c-1.24415,1.08866-2.79935,2.64386-2.17728,3.42146a2.2385,2.2385,0,0,0,2.33281.62207c1.39967-.46654,1.08866-1.71073,2.64386-3.26593a4.99477,4.99477,0,0,1,3.42146-1.5552c1.24415.15553,1.24415,1.5552,3.42147,3.1104a19.02837,19.02837,0,0,0,3.73247,1.5552,20.04032,20.04032,0,0,1,5.13215,2.64387,6.64588,6.64588,0,0,1,.7776,5.13215c-.31106,2.48833-.93313,2.64386-1.39967,5.75426a9.14256,9.14256,0,0,0,.31106,5.75427,5.49042,5.49042,0,0,0,2.3328,2.64386c.15553.15553.31106.15553.62208.31106a162.5104,162.5104,0,0,1-79.00426-26.28291c14.15235-41.36839,29.70437-83.20332,44.7898-123.63858,15.3965-41.21286,31.10405-83.66989,45.41193-125.81587,14.46336,40.27974,28.46018,82.11468,42.146,122.70547,14.30788,42.457,28.92678,86.15819,44.16774,128.45972A169.39173,169.39173,0,0,1,273.188,392.47381Z"/><path class="cls-1" d="M765.7933,312.52447H755.53744V230.47955H666.8099v82.04492H656.554V205.82037q0-27.07764,13.59668-43.44238,14.51954-17.6294,41.13769-17.62989,26.15772,0,40.792,17.86036,13.7124,16.481,13.71289,43.21191ZM755.53744,221.377V209.39264q0-55.19532-44.249-55.19629-44.48,0-44.47851,55.19629V221.377Z"/><path class="cls-1" d="M883.93978,156.962H837.1556v155.5625H826.90072V156.962H780.46224v-9.44824H883.93978Z"/><path class="cls-1" d="M993.67416,312.52447H932.37045a21.99679,21.99679,0,0,1-13.13575-4.0332q-7.49266-5.29834-7.49023-15.55567V147.51373h10.25586V293.05084q0,8.64111,9.34765,10.02441h62.32618Z"/><path class="cls-1" d="M1130.59994,312.52447h-10.25586V230.47955h-88.72754v82.04492h-10.25586V205.82037q0-27.07764,13.59668-43.44238,14.51953-17.6294,41.1377-17.62989,26.1577,0,40.792,17.86036,13.7124,16.481,13.71289,43.21191ZM1120.34408,221.377V209.39264q0-55.19532-44.249-55.19629-44.48,0-44.47852,55.19629V221.377Z"/><path class="cls-1" d="M1261.88021,270.004q0,22.125-15.90234,33.18653-13.82667,9.67968-36.75879,9.334h-9.56348q-39.06445,0-39.06347-42.98144v-6.56836h8.98828V269.543q0,33.07323,30.88183,33.07129h3.6875q16.59229,0,28.34668-4.7295,18.08936-7.26855,18.09082-27.11328,0-14.99708-12.54883-24.34277-6.67968-4.96143-26.13574-12.80664l-10.6289-4.19239q-22.35937-8.98534-30.07911-15.43847-12.90966-10.71387-12.90722-29.37891,0-37.09716,52.19922-37.09863h11.86914q38.94726,0,38.94824,42.51953v6.56836h-8.98828v-6.5498q0-33.43506-31.04-33.43555h-13.73047q-39.00439,0-39.00195,27.3789,0,14.15186,10.291,22.43165,6.35742,5.061,23.35645,11.73437l16.3623,6.44141q21.7793,8.64258,28.23145,14.05859Q1261.87972,251.4522,1261.88021,270.004Z"/><g class="cls-2"><rect x="538.54623" y="105.32525" width="10" height="246.14941"/></g></svg>