<svg id="Layer_1" data-name="Layer 1" xmlns="http://www.w3.org/2000/svg" viewBox="0 0 441.31 155.84"><defs><style>.cls-1{fill:#fff;}</style></defs><title>adsr-logo-light</title><g id="xn5e5u.tif"><path class="cls-1" d="M143.62,61.56c0-30,24.75-51.83,52.21-51.46a51.47,51.47,0,1,1-52.21,51.46ZM202.7,88c1.39.9,2.18.78,3.15-.41.16-.18.28-.4.44-.58a.66.66,0,0,1,1.06,0,.7.7,0,0,1,0,1.08,3.94,3.94,0,0,1-.4.26c-.85.56-.9,1-.18,1.75.15.15.32.29.46.45a.67.67,0,0,1-.19,1.1.7.7,0,0,1-1.1-.26c-.13-.26-.24-.54-.35-.82a1.16,1.16,0,0,0-1.5-.85,3.94,3.94,0,0,1-1.37,0c-1.45-.19-1.89,0-2.58,1.33a14.83,14.83,0,0,0-1,3.32c-.06.19-.24.45,0,.57a.85.85,0,0,0,.61-.1,2.14,2.14,0,0,0,.76-.82c.23-.37.45-.74.7-1.09a.71.71,0,0,1,1-.18.62.62,0,0,1,.24,1c-.49.71-.27,1.09.48,1.37a.63.63,0,0,1,.41.85c-.17.45-.53.5-.93.42a1.46,1.46,0,0,1-.39-.12,2.48,2.48,0,0,0-2.45.27,10.64,10.64,0,0,1-3.94,1.81.77.77,0,0,0-.64,1,12.36,12.36,0,0,1,0,5.38,3.28,3.28,0,0,0,3.68,3.89,46.46,46.46,0,0,0,20.22-6.23c1-.61,1.17-1,.72-2.21-3.65-10-6.94-20.11-10.42-30.17-4.5-13-8.78-26.14-13.46-39.12a2.38,2.38,0,0,0-.45-1c-.17.43-.33.8-.46,1.18-3.83,11.13-7.91,22.16-12,33.19q-6.49,17.42-12.74,34.92c-.57,1.6-.4,2.17.89,2.91a50.13,50.13,0,0,0,12.51,5.17,42.36,42.36,0,0,0,7.16,1.22c.53,0,.65-.06.51-.61a4.66,4.66,0,0,1,.2-2.78,1.55,1.55,0,0,0-.77-2.25c-.75-.46-1.62-.75-2.35-1.24s-1.12-.37-1.53.28a1.39,1.39,0,0,1-.15.19c-.29.31-.62.64-1,.25s-.07-.74.2-1c.89-1,.89-1-.35-1.53a2.94,2.94,0,0,1-.44-.2.69.69,0,0,1,.16-1.23,1,1,0,0,1,1.14.19c1.57,1.59,3.81,2.2,5.4,3.82a2,2,0,0,0-1.32-2.76c-1-.38-1.9-.79-2.18-1.87a2.29,2.29,0,0,0-2.47-1.87,6.27,6.27,0,0,1-1.95-.48c-.39-.15-.89-.31-.68-.9s.67-.42,1.09-.26c.2.08.39.19.59.27s.67.29.89-.17,0-.67-.36-.86-.73-.35-1.09-.54a.69.69,0,0,1-.38-.88.77.77,0,0,1,.85-.59,1.28,1.28,0,0,1,1,.47c1.39,1.74,3,3.3,3.86,5.45a1.45,1.45,0,0,0,1,1c.18,0,.39.15.53,0s0-.31-.11-.45c-.36-.72-.74-1.44-1.07-2.17-1.06-2.31-2.4-4.3-5.09-4.92a.37.37,0,0,1-.14-.07c-.38-.23-.78-.49-.58-1s.65-.5,1.09-.35c.18.06.36.14.54.19.44.11.64,0,.68-.52a1.74,1.74,0,0,0-.71-1.46.75.75,0,0,1,0-1.15.63.63,0,0,1,1,0c.33.32.52.26.72-.12s.43-.55.85-.32a.73.73,0,0,1,.4,1c-.16.4-.4.76-.58,1.15a2.57,2.57,0,0,0,.88,3.36c.62.45.94.37,1.17-.38a5.26,5.26,0,0,0-.62-5.15,4.52,4.52,0,0,1-.49-.74.71.71,0,0,1,.32-1,.73.73,0,0,1,1.07.18,9.58,9.58,0,0,1,.55,1c.13.22.17.58.52.52s.32-.46.33-.73a10,10,0,0,0-.09-1.21,2.89,2.89,0,0,1,0-.72c.16-.79.63-1,1.24-.42.41.35.81.71,1.24,1,.79.59.8.71-.14,1.1a2,2,0,0,0-1.31,1.6c0,.24-.12.48-.17.71-.43,2-.67,4.06-1.83,5.82a.5.5,0,0,0-.06.54c.59,1.2,1.19,2.39,1.87,3.74a16,16,0,0,0,1-4c.27-1.7.62-3.38,2.13-4.47.61-.44.38-.62-.12-.83l-.3-.13c-.3-.15-.56-.35-.43-.75a.77.77,0,0,1,.82-.63,6.93,6.93,0,0,1,.79.17c.23.06.48.23.69,0s.06-.52,0-.77A11.74,11.74,0,0,0,196,84a2.09,2.09,0,0,1-.24-1.63.94.94,0,0,1,1.11-.72c.6.08.59.54.57,1s-.06.65-.07,1a.43.43,0,0,0,.3.44c.23.1.35-.12.43-.27.25-.44.47-.9.71-1.36s.37-.63.81-.5a.89.89,0,0,1,.67.81,2,2,0,0,1-.66,1.75,2.25,2.25,0,0,0-.91,1.3A6.77,6.77,0,0,1,197,89.31a10.76,10.76,0,0,0-2.35,6.16,1,1,0,0,0,.37,1,1.06,1.06,0,0,0,1.15,0,1.4,1.4,0,0,0,.68-.87c.34-1,.66-2,1-3.08a9.62,9.62,0,0,1,4.25-5.79,3.69,3.69,0,0,0,1-1c.31-.41.35-.71-.11-1.08a1.87,1.87,0,0,1-.06-2.72.59.59,0,0,1,.8-.09,1,1,0,0,1,.44,1.19c-.12.48-.17.9.31,1.22s.8,0,1.17-.23c.87-.52,1.38-.44,2.16.39A18.72,18.72,0,0,0,202.7,88Z"/><path class="cls-1" d="M80.93,75.93q0,15.75,0,31.5c0,1.42-.16,1.55-1.6,1.55h-3.4c-1.29,0-1.55-.27-1.55-1.58,0-2,0-3.89,0-5.83q0-18.63,0-37.25v-.8c0-.59-.28-.9-.89-.9s-1,0-1.54,0q-22.31,0-44.61,0c-2.73,0-2.5-.19-2.5,2.53q0,21.06,0,42.1c0,1.65-.08,1.73-1.74,1.75-1.19,0-2.38,0-3.56,0-1,0-1.29-.3-1.34-1.31,0-.1,0-.21,0-.32,0-20.32,0-40.64.09-61A37.69,37.69,0,0,1,22.86,28a26.83,26.83,0,0,1,20.67-14.3,41.54,41.54,0,0,1,9.19-.49,28.77,28.77,0,0,1,19.49,9.22,33.07,33.07,0,0,1,7.72,15.72,59.36,59.36,0,0,1,1,12.48q0,12.63,0,25.26ZM49.58,56.58v-.07q11.34,0,22.67,0c1.69,0,2-.31,2-2a88.44,88.44,0,0,0-.36-11.16,36.87,36.87,0,0,0-3.25-12.28,19.3,19.3,0,0,0-12-10.46A30.71,30.71,0,0,0,42.9,20a19.91,19.91,0,0,0-13.36,9.12,30.87,30.87,0,0,0-4,11.53,80.74,80.74,0,0,0-.73,13.55c0,2.13.23,2.35,2.36,2.35Z"/><path class="cls-1" d="M258.55,90.53v17.4c0,1.36-.17,1.51-1.54,1.54-1,0-1.93.13-2.9.15-1.59,0-2.43-.79-2.22-2.36a59.65,59.65,0,0,0,.21-7.44c0-24.4.07-48.8-.09-73.2a13.22,13.22,0,0,1,1.75-7.21,11.46,11.46,0,0,1,8.74-5.32,14.27,14.27,0,0,1,1.85-.15c6.24,0,12.47,0,18.7.14a28.52,28.52,0,0,1,14.64,4.09,25.76,25.76,0,0,1,12,17.82,30.57,30.57,0,0,1-1.64,18.1,27.27,27.27,0,0,1-10.16,12.19c-.6.41-1.22.8-1.83,1.19a1.28,1.28,0,0,0-.62,1.66c.89,2.43,1.78,4.86,2.69,7.29Q304,92,309.86,107.54c.65,1.73.63,1.76-1.18,1.76-1.3,0-2.6,0-3.89,0a1.29,1.29,0,0,1-1.37-1q-6.84-18.25-13.71-36.51c-.06-.17-.14-.35-.21-.52A1.21,1.21,0,0,0,288,70.5a63.24,63.24,0,0,1-13.6,1.16c-4.8,0-9.6,0-14.41,0-1.26,0-1.37.14-1.37,1.43,0,5.8,0,11.6,0,17.41ZM258.61,45h0V63.57c0,1.69.29,2,2,2h.16c5.75,0,11.5,0,17.24,0a36.08,36.08,0,0,0,10.49-1.26c7.29-2.26,12.1-7.06,14.08-14.42A27.45,27.45,0,0,0,302,33.66a19.79,19.79,0,0,0-18.24-13.43c-6.06-.25-12.14-.05-18.21-.08-.73,0-1.46,0-2.18.07a4.73,4.73,0,0,0-4.43,3.64,9,9,0,0,0-.33,2.47Z"/><path class="cls-1" d="M396.29,15.34a60,60,0,0,1,9.56.3c8.53,1.22,14.11,5.86,16.4,14.28a46.08,46.08,0,0,1,1.19,12.93.93.93,0,0,1-1,1c-1.29,0-2.59,0-3.89,0-.76,0-1-.53-1-1.21a47.66,47.66,0,0,0-.47-7.83c-.6-4-1.95-7.58-5.18-10.2a14.09,14.09,0,0,0-7.82-3,81,81,0,0,0-13.66-.36c-4,.32-7.91.71-11.6,2.33A12.55,12.55,0,0,0,371,33.6a15.72,15.72,0,0,0,5.61,15.13A29.82,29.82,0,0,0,384,52.9c6.17,2.77,12.57,5,18.8,7.66a62.25,62.25,0,0,1,11,5.52,21.57,21.57,0,0,1,9.66,15.59,26.21,26.21,0,0,1-1.3,12.9,20.19,20.19,0,0,1-7.33,9.35c-4.39,3.16-9.42,4.58-14.71,5.21a74.9,74.9,0,0,1-16.8,0,18.42,18.42,0,0,1-12.89-6.82,20,20,0,0,1-3.8-8.23,49.9,49.9,0,0,1-1.12-11.81c0-1.3.34-1.64,1.63-1.67,1.05,0,2.1,0,3.15,0a1.12,1.12,0,0,1,1.2,1.15,18.39,18.39,0,0,1,0,2.1A29.58,29.58,0,0,0,372.59,93c1.8,5.63,5.67,8.84,11.47,9.7a45.94,45.94,0,0,0,22.09-2.12c6.29-2.19,9.65-6.72,10.33-13.28a16.08,16.08,0,0,0-4-12.73,23.1,23.1,0,0,0-7.06-5.07c-5.79-3-11.91-5.2-17.92-7.66A86.09,86.09,0,0,1,375.38,56c-3.51-2.13-6.61-4.66-8.56-8.38a22.54,22.54,0,0,1-2.45-9.32,22.69,22.69,0,0,1,1.33-9.79,17.76,17.76,0,0,1,9.47-9.81,39.9,39.9,0,0,1,13-3.2A70.38,70.38,0,0,1,396.29,15.34Z"/><path class="cls-1" d="M117.64,109q-11.65,0-23.32,0a17.21,17.21,0,0,1-5.65-.84,6.37,6.37,0,0,1-4.29-7.54,18.28,18.28,0,0,1,3.33-6.95q16-22.86,32.08-45.71l16.14-23a8.4,8.4,0,0,0,.81-1.39,1.92,1.92,0,0,0-1.58-2.81,17.89,17.89,0,0,0-1.94,0H87.15c-2.12,0-2.2-.09-2.15-2.19,0-.76.08-1.51.12-2.26a1.28,1.28,0,0,1,1.26-1.33c.61-.06,1.23-.12,1.85-.12h45.26a15.09,15.09,0,0,1,5.89.83c3.41,1.42,4.93,4.78,4,8.47a16,16,0,0,1-2.53,5.21Q116.44,64,92,98.71a5.32,5.32,0,0,0-.83,1.47,2,2,0,0,0,1.36,2.54,5.22,5.22,0,0,0,1.52.17l47.86,0c2.44,0,2.48.06,2.45,2.5,0,.75,0,1.51,0,2.26,0,.92-.35,1.28-1.25,1.36-.4,0-.81,0-1.21,0h-24.3Z"/><path class="cls-1" d="M315.78,62.25q0-16.39,0-32.79a21.14,21.14,0,0,1,.91-7.11,10.63,10.63,0,0,1,9.55-7c6.64-.08,13.28-.07,19.92-.08H360.9c.27,0,.54,0,.81,0,1.1.07,1.36.31,1.4,1.43s0,2.32,0,3.48c0,.93-.3,1.17-1.24,1.22-.27,0-.54,0-.81,0H329.4a12.71,12.71,0,0,0-2.82.2c-2.62.57-3.78,1.88-4,4.54-.09.94-.14,1.88-.14,2.82q0,13.94,0,27.86c0,2.39,0,2.4,2.4,2.4h30.45c2.11,0,2.12,0,2.13,2.09,0,.84,0,1.68,0,2.51,0,1-.32,1.32-1.27,1.41-.43,0-.87.06-1.3.06H324.14c-1.62,0-1.72.11-1.72,1.76V96.64a11.85,11.85,0,0,0,.22,2.66,4.82,4.82,0,0,0,4.71,4c.79,0,1.57.08,2.35.08h30.61c.62,0,1.24,0,1.86.06a.79.79,0,0,1,.87.85c0,1.38,0,2.75,0,4.13,0,.78-.46,1.07-1.21,1.06H353.9q-13.15,0-26.32,0a11.68,11.68,0,0,1-11.79-11.26c0-.52,0-1,0-1.54V62.25Z"/><path class="cls-1" d="M17.59,134.32c0-2.24,0-4.48,0-6.72,0-2.53,1.06-3.75,3.55-4a48.13,48.13,0,0,1,11.06.13,16,16,0,0,1,8.08,3.2c2.84,2.25,4.32,5.17,3.81,8.83a9.77,9.77,0,0,1-6.27,8c-3.44,1.49-7,1.61-10.71,1.55-1.46,0-2.91,0-4.37,0A8.87,8.87,0,0,1,20.5,145c-2.22-.58-2.9-1.47-2.91-3.81S17.59,136.62,17.59,134.32Zm3.4,0V141c0,1.51.42,1.93,1.92,1.93,2.19,0,4.37.06,6.56,0a16.38,16.38,0,0,0,7.11-1.57c5-2.52,5-9,2-12a12.24,12.24,0,0,0-7.09-3.18,68.18,68.18,0,0,0-8.81-.24c-1.3,0-1.64.37-1.65,1.71Z"/><path class="cls-1" d="M326.58,135.4h-6.72c-1.54,0-1.84.29-1.84,1.85,0,2.21,0,4.43,0,6.64,0,1.12-.3,1.43-1.42,1.48a5.85,5.85,0,0,1-.73,0c-1-.1-1.25-.33-1.27-1.37s0-2.27,0-3.41c0-2.75,0-5.5,0-8.25,0-3.87,1.76-6.33,5.43-7.57a18.51,18.51,0,0,1,12.29-.18c2.58.89,4.8,2.2,5.75,5a13.34,13.34,0,0,1,.38,4.17c.05,3.32,0,6.64,0,10,0,.56.06,1.23-.56,1.49a2.6,2.6,0,0,1-2.41-.06c-.55-.33-.46-1-.47-1.47,0-2.22,0-4.43,0-6.64,0-1.32-.28-1.59-1.63-1.59Zm0-2.48h7.27c1,0,1.33-.35,1.28-1.24a5.57,5.57,0,0,0-4.1-5,17,17,0,0,0-8.46-.12c-2.45.59-4.1,2-4.44,4.67-.16,1.3.16,1.73,1.5,1.73Z"/><path class="cls-1" d="M188.21,135.4h-6.88c-1.41,0-1.7.3-1.7,1.72,0,2.26,0,4.53.05,6.8,0,1.14-.36,1.47-1.52,1.42-1.92-.09-1.94-.11-1.93-2.07,0-3.89,0-7.77.08-11.65a6.72,6.72,0,0,1,4.36-6.41A17.6,17.6,0,0,1,192,124a12.32,12.32,0,0,1,5.94,2.73,6.6,6.6,0,0,1,2.11,4.91c.06,4.1,0,8.2,0,12.3,0,1-.38,1.35-1.38,1.37h-.57c-1.21-.05-1.47-.31-1.47-1.51,0-2.29,0-4.58,0-6.88,0-1.19-.33-1.53-1.54-1.53Zm0-2.45v0c2.38,0,4.75,0,7.13,0,1.27,0,1.52-.32,1.38-1.57a5.27,5.27,0,0,0-4.13-4.71,17.46,17.46,0,0,0-7.37-.31c-3.29.54-4.88,1.94-5.44,4.77-.29,1.41.05,1.84,1.47,1.85Z"/><path class="cls-1" d="M363.79,145.1l-1.72.24a2.74,2.74,0,0,1-2.75-1.6c-1.2-1.9-2.44-3.78-3.61-5.7a1.77,1.77,0,0,0-1.81-.94c-2.59.2-5.17.2-7.76.2-1.34,0-1.56.23-1.56,1.54v5.1c0,1.11-.37,1.43-1.48,1.36-2-.11-2-.11-2-2.05,0-5.21,0-10.42,0-15.62,0-2.5,1.32-3.47,3.28-3.72a43.1,43.1,0,0,1,11.68.14,9.81,9.81,0,0,1,5.81,2.72,5.07,5.07,0,0,1-.44,7.57,10.21,10.21,0,0,1-2.59,1.61c-.54.21-.62.39-.29.9,1.58,2.43,3.12,4.88,4.67,7.32C363.42,144.44,363.57,144.73,363.79,145.1Zm-13.16-18.92c-1.95,0-3.3,0-4.64,0-1,0-1.37.36-1.38,1.22,0,2.16,0,4.31,0,6.47a.79.79,0,0,0,.91.88c2.51-.07,5,.18,7.51,0a12.17,12.17,0,0,0,5.17-1.4,3.16,3.16,0,0,0,.77-5.12,6.17,6.17,0,0,0-3.28-1.75A23.6,23.6,0,0,0,350.63,126.18Z"/><path class="cls-1" d="M222.14,135.48c0-2.62.07-5.24,0-7.85s1.32-3.5,3.18-3.7a37.39,37.39,0,0,1,13.34.49,7.74,7.74,0,0,1,4.94,3.37,5,5,0,0,1-.72,6.08,14.56,14.56,0,0,1-3.12,2.12c-.5.29-.43.54-.18.93,1.59,2.49,3.14,5,4.74,7.47.3.47.25.61-.27.76-1.7.51-2.69.21-3.67-1.29-1.18-1.79-2.35-3.6-3.44-5.44a2.46,2.46,0,0,0-2.6-1.31c-2.39.19-4.8.22-7.2.19-1.29,0-1.57.27-1.58,1.56,0,1.72,0,3.45,0,5.18,0,1-.25,1.24-1.23,1.29h-.49c-1.48,0-1.68-.21-1.68-1.68Zm8.37-.72v0c1.06,0,2.11,0,3.16,0a10.89,10.89,0,0,0,5.27-1.31,3.31,3.31,0,0,0,.33-5.82,7.28,7.28,0,0,0-2.82-1.13c-3.26-.6-6.56-.23-9.84-.25-.8,0-1.07.61-1.07,1.34,0,2,0,4,0,6.07,0,.93.21,1.11,1.17,1.12Z"/><path class="cls-1" d="M140.2,145.4a23.18,23.18,0,0,1-6.16-.78,5.19,5.19,0,0,1-3.72-5.18c0-.94.3-1.33,1.08-1.39,1.57-.12,1.89,0,2.08,1.12,0,.08,0,.15,0,.23.29,2.14,1.14,3,3.24,3.25a25.92,25.92,0,0,0,9-.4,6.32,6.32,0,0,0,2.22-.93,1.86,1.86,0,0,0,.36-2.82c-1.06-1.26-2.58-1.58-4.06-2-3.29-.88-6.6-1.7-9.88-2.64a6.75,6.75,0,0,1-3.91-2.55,3.92,3.92,0,0,1,1-5.36,9.47,9.47,0,0,1,4-1.53,37.21,37.21,0,0,1,10.95-.25c2.11.33,4.05.93,5.23,2.91a5.38,5.38,0,0,1,.64,3.43.76.76,0,0,1-.14.36c-.59.65-1.36.38-2.06.37a.87.87,0,0,1-.87-.89c0-.16-.07-.32-.1-.48-.44-2.45-1.28-3.3-3.82-3.38a49,49,0,0,0-8.48.14,5.85,5.85,0,0,0-2.65.89,1.87,1.87,0,0,0,0,3.21,13.09,13.09,0,0,0,4.22,1.52c3.32.88,6.73,1.43,10,2.62a6.51,6.51,0,0,1,3.45,2.67c1.4,2.31.33,4.67-2,6.06a14.15,14.15,0,0,1-6.59,1.62C142.32,145.31,141.37,145.34,140.2,145.4Z"/><path class="cls-1" d="M278.53,145.26a21.69,21.69,0,0,1-5.15-.31,5.71,5.71,0,0,1-4.78-5.44c-.05-1.13.26-1.46,1.39-1.46.32,0,.64,0,1,0a.83.83,0,0,1,.85.81c0,.1.05.21.06.31.09,2.39,1,3.15,3.59,3.45a24.52,24.52,0,0,0,9-.55,4.8,4.8,0,0,0,1.87-.91,1.92,1.92,0,0,0-.05-3.22,9.45,9.45,0,0,0-3.45-1.51c-3.6-1-7.3-1.61-10.82-2.89-1.75-.64-3.3-1.62-3.73-3.67a3.91,3.91,0,0,1,1.76-4.11,12.52,12.52,0,0,1,5.75-1.67,31.82,31.82,0,0,1,10,.21,6.1,6.1,0,0,1,4.15,2.55,5.23,5.23,0,0,1,.78,3.32,1,1,0,0,1-1.1,1c-1.62.11-1.88-.08-2.08-1.67s-.92-2.61-2.42-2.84a27,27,0,0,0-11.93.41,1.81,1.81,0,0,0-1.48,1.78,2,2,0,0,0,1.27,2c.42.18.84.36,1.27.51,3,1.06,6.2,1.57,9.28,2.41A15.5,15.5,0,0,1,288.7,136a4.26,4.26,0,0,1-.09,7.33,13.89,13.89,0,0,1-7.16,1.93C280.48,145.3,279.5,145.26,278.53,145.26Z"/><path class="cls-1" d="M399.62,134.56c0-3,0-6,0-9,0-.58-.12-1.25.63-1.5a2.69,2.69,0,0,1,2.41.14c.4.26.39.74.38,1.18,0,2,0,3.94,0,5.9,0,1.35.28,1.64,1.61,1.64h13.92c1.24,0,1.52-.3,1.52-1.53,0-2,0-3.94,0-5.91,0-.57,0-1.25.63-1.44a2.64,2.64,0,0,1,2.48.19c.45.36.37.93.37,1.43,0,4.75,0,9.5,0,14.25,0,1.42.1,2.85,0,4.28a1,1,0,0,1-1,1.06c-.21,0-.43.06-.64.06-1.52,0-1.8-.25-1.8-1.76,0-2.24,0-4.48,0-6.72,0-1.22-.27-1.47-1.48-1.47H404.67c-1.38,0-1.65.27-1.65,1.66,0,2.24,0,4.48,0,6.72,0,1.23-.28,1.5-1.52,1.52-.22,0-.44,0-.65,0-.93-.05-1.22-.3-1.23-1.24,0-3.15,0-6.31,0-9.47Z"/><path class="cls-1" d="M384,143.18a19.08,19.08,0,0,0,9.05-2,4.67,4.67,0,0,1,.51-.23c1.1-.47,1.32-.43,2.13.39,1,1,1,1-.18,1.69a21.73,21.73,0,0,1-8.69,2.55,26.93,26.93,0,0,1-10.57-.83,16.8,16.8,0,0,1-7.5-4.08,8.59,8.59,0,0,1,.83-12.78,20,20,0,0,1,10.08-4,27.68,27.68,0,0,1,12.07.81,16.78,16.78,0,0,1,4.64,2c.82.57.78.64,0,1.15A3.35,3.35,0,0,1,393,128a21.31,21.31,0,0,0-17.19-.45,9.94,9.94,0,0,0-4.31,2.73,6.62,6.62,0,0,0,1.23,9.79,17.57,17.57,0,0,0,10,3.1C383.16,143.19,383.6,143.18,384,143.18Z"/><path class="cls-1" d="M88.88,135.38c0-2.59.07-5.19,0-7.77-.08-2.28,1.07-3.3,3.2-3.72a28.38,28.38,0,0,1,6-.24,27.89,27.89,0,0,1,6.51.53c2.15.53,4.18,1.29,5.55,3.17a5,5,0,0,1-.91,6.93c-2.58,2.17-5.68,2.67-8.89,2.88-2.15.14-4.31.13-6.47.14-1.28,0-1.6.35-1.6,1.65,0,1.67,0,3.35,0,5,0,1.09-.26,1.33-1.34,1.31-2.05,0-2.05,0-2.05-2.06Zm9.22-9.2c-1.74,0-3.07,0-4.39,0-1,0-1.41.4-1.42,1.36,0,2,0,4.1,0,6.15,0,.73.35,1.07,1.1,1.06,1.94,0,3.88.06,5.82,0a15.79,15.79,0,0,0,5.85-1c2.53-1,3.39-3.56,1.83-5.44a5.88,5.88,0,0,0-3.4-1.87A25.56,25.56,0,0,0,98.1,126.18Z"/><path class="cls-1" d="M67.93,134.52c0-2.35,0-4.69,0-7a3.09,3.09,0,0,1,2.62-3.21,11.94,11.94,0,0,1,2.72-.36c3.86,0,7.72,0,11.58,0,1.14,0,1.57.6,1.27,1.67a1,1,0,0,1-.82.79,7.07,7.07,0,0,1-1.13.07h-11c-1.51,0-1.76.2-1.76,1.72,0,1.29,0,2.58,0,3.87,0,1,.44,1.4,1.47,1.4h9.87c1.11,0,1.52.54,1.31,1.59a1,1,0,0,1-1.09.86c-2.75.05-5.5.12-8.25,0a19.46,19.46,0,0,0-2,0c-.91.08-1.33.52-1.29,1.42q.07,2,0,4c0,1.2.51,1.65,1.86,1.66H84.51c.24,0,.49,0,.73,0a.92.92,0,0,1,.94,1c0,.6-.06,1.15-.78,1.31a.89.89,0,0,1-.32,0c-4.56,0-9.12,0-13.68-.09A3.37,3.37,0,0,1,68,141.8C67.78,139.38,67.93,137,67.93,134.52Z"/><path class="cls-1" d="M57.23,145.34a68.31,68.31,0,0,1-7.43-.24A3,3,0,0,1,47,141.84c0-1.75,0-3.51,0-5.26,0-2.93-.07-5.87-.1-8.8a3.25,3.25,0,0,1,2.61-3.51A8.52,8.52,0,0,1,52,123.9H63.58c.64,0,1.33,0,1.55.82.3,1.15-.18,1.73-1.51,1.73-3.21,0-6.43,0-9.64,0-.72,0-1.45,0-2.18,0-1.08,0-1.35.28-1.36,1.34,0,1.35,0,2.7,0,4.05s.25,1.57,1.54,1.57h9.64c1.07,0,1.48.38,1.48,1.27s-.35,1.21-1.5,1.23c-1.42,0-2.86,0-4.29,0-1.86,0-3.72,0-5.58,0-1.09,0-1.27.19-1.28,1.27,0,1.41,0,2.81,0,4.21,0,1.22.33,1.53,1.55,1.53H62c.59,0,1.19,0,1.78,0,1,0,1.39.35,1.39,1.16s-.35,1.21-1.42,1.21C61.6,145.35,59.41,145.34,57.23,145.34Z"/><path class="cls-1" d="M293.64,134.33c0-2.05.06-4.1,0-6.15-.1-2.74.89-3.59,3.66-4.13a14,14,0,0,1,2.67-.15h10.52c1.11,0,1.55.6,1.29,1.68a1,1,0,0,1-.87.81,14.34,14.34,0,0,1-2.27,0l-9.95,0c-1.41,0-1.58.19-1.58,1.58s0,2.81,0,4.21c0,1,.21,1.17,1.2,1.17h10.12c1.19,0,1.55.43,1.38,1.51-.12.75-.57,1-1.26.94h-9.87c-1.41,0-1.58.12-1.61,1.47a44,44,0,0,0,0,4.45,1,1,0,0,0,1.08,1.05l3.07,0,9.47.05a1,1,0,0,1,1.11,1.07c0,.88-.29,1.24-1.12,1.24-4.45,0-8.9,0-13.35-.06-2.51-.05-3.68-1.39-3.72-3.92v-7Z"/><path class="cls-1" d="M247.22,134.52c0-2.07.05-4.15,0-6.23-.09-2.81.73-3.72,3.8-4.26a11.35,11.35,0,0,1,1.85-.12h11c.72,0,1.37.1,1.51,1s-.3,1.55-1.41,1.55c-3.54,0-7.07,0-10.61,0-.51,0-1,0-1.54,0-.87,0-1.16.3-1.18,1.19,0,1.48,0,3,0,4.45,0,1,.31,1.32,1.39,1.32h9.07l1.05,0a1.07,1.07,0,0,1,1.14,1.18c0,.8-.34,1.24-1.13,1.29s-1.62,0-2.43,0H252c-1.13,0-1.38.24-1.4,1.37,0,1.41,0,2.81,0,4.21,0,1.09.31,1.41,1.41,1.42,2.72,0,5.45,0,8.17,0,1.33,0,2.65,0,4,0,.85,0,1.18.38,1.18,1.19s-.3,1.15-1.19,1.15c-4.48,0-9,.07-13.44-.09a3.21,3.21,0,0,1-3.47-3.43c-.06-2.43,0-4.86,0-7.29Z"/><path class="cls-1" d="M155.25,134.45v-6.63a3.31,3.31,0,0,1,2.88-3.61,10.31,10.31,0,0,1,2.4-.3H172c1.16,0,1.58.43,1.53,1.47a1,1,0,0,1-.94,1,7.38,7.38,0,0,1-1.05,0c-3.8,0-7.61,0-11.41,0-1.17,0-1.47.31-1.49,1.5,0,1.35,0,2.7,0,4,0,1.06.35,1.42,1.41,1.42h10.12c1,0,1.37.41,1.28,1.39-.06.79-.55,1-1.26,1h-5.83c-1.35,0-2.7,0-4,0s-1.68.38-1.68,1.69,0,2.37,0,3.56c0,1.45.37,1.81,1.83,1.82h11.74c1.06,0,1.44.45,1.3,1.43a.9.9,0,0,1-.8.87,5.3,5.3,0,0,1-1,.07q-6.1,0-12.22-.08c-2.83,0-4.09-1.23-4.17-4.08-.07-2.24,0-4.48,0-6.72Z"/><path class="cls-1" d="M118.57,139h-7c-1,0-1.4-.37-1.39-1.32s.37-1.15,1.38-1.15q7,0,14.06,0c1,0,1.4.36,1.4,1.24s-.36,1.23-1.39,1.23Z"/></g></svg>