<?xml version="1.0" encoding="utf-8"?>
<!-- Generator: Adobe Illustrator 24.0.2, SVG Export Plug-In . SVG Version: 6.00 Build 0)  -->
<svg version="1.1" id="Layer_1" xmlns="http://www.w3.org/2000/svg" xmlns:xlink="http://www.w3.org/1999/xlink" x="0px" y="0px"
	 viewBox="0 0 441.3 155.8" style="enable-background:new 0 0 441.3 155.8;" xml:space="preserve">
<style type="text/css">
	.st0{fill:#B3DFF3;}
	.st1{fill:#52B2C6;}
	.st2{fill:#4270AF;}
	.st3{fill:#385A7B;}
	.st4{fill:none;stroke:#FFFFFF;stroke-width:5;stroke-miterlimit:10;}
	.st5{fill:#FFFFFF;}
	.st6{fill:#FFFFFF;stroke:#FFFFFF;stroke-width:0.5;stroke-miterlimit:10;}
</style>
<title>adsr-logo-color</title>
<path class="st0" d="M223.6,23.8l-24.3,5.9l-6.6,1.6l-39,9.6v-0.1c0.6-1.2,1.3-2.4,2-3.6c1.2-2,2.5-3.8,4-5.6
	c8.6-10.4,21.3-14.7,21.3-14.7c4.8-1.6,9.8-2.4,14.9-2.5c4.6-0.2,9.2,0.4,13.6,1.7C214.7,17.8,219.5,20.4,223.6,23.8z"/>
<path class="st1" d="M241.3,69.7l-91.5-17c0.3-4.4,1.7-8.7,4.1-12.4c0.6-1,1.3-1.9,2.1-2.8c12.2-2.2,24.6-4.5,37.1-7
	c10.4-2.1,20.7-4.2,30.8-6.5c6.5,5,11.6,11.5,14.8,19.1c1.9,4.8,3.1,9.9,3.3,15.1C242.2,62,242,65.9,241.3,69.7z"/>
<path class="st2" d="M240.2,74L160,91.4c-8.8-10.8-12.5-24.9-10.3-38.7l92,11.5c0.1,1.3,0.1,2.7,0,4.1C241.5,70.2,241,72.2,240.2,74
	z"/>
<path class="st3" d="M232.1,90.2c-1.8,2.3-3.8,4.4-5.9,6.3c-4.2,3.4-8.8,6.2-13.8,8.2c-11.4,4.3-24,4.1-35.2-0.8
	c-3.5-1.5-6.8-3.4-9.9-5.7c-3-2.2-5.7-4.7-8.2-7.4l81.1-17.2c-0.7,2.7-1.7,5.3-2.8,7.8C235.9,84.5,234.2,87.5,232.1,90.2z"/>
<path class="st4" d="M242.9,60.6c0,1.5-0.1,3-0.2,4.4c-0.5,5.5-1.9,11-4.3,16c-5.3,11.3-14.9,20-26.6,24.3l0,0
	c-0.5,0.2-1.1,0.4-1.6,0.6c-24.9,8.1-51.6-5.5-59.7-30.4c-1.5-4.6-2.3-9.4-2.3-14.2c-0.1-7.3,1.6-14.6,4.9-21.2
	c0.6-1.2,1.3-2.4,2-3.6c1.2-2,2.5-3.8,4-5.6c16.7-20.2,46.5-23,66.7-6.3C236.6,33.4,242.9,46.6,242.9,60.6L242.9,60.6z"/>
<path class="st5" d="M201.6,43.1c-2.2-5.6-4.3-11.2-6.4-16.8l-6,16.6c1.9,1.1,4,1.7,6.1,1.8C197.5,44.8,199.6,44.2,201.6,43.1z"/>
<path class="st5" d="M201.5,42.9c-3.9,1.8-8.5,1.8-12.4,0l-21.2,55.7c16.2,10.6,37,11,53.7,1.1L201.5,42.9z"/>
<path class="st3" d="M193.6,102c-0.6,0.1-1.2,0.1-1.7-0.2c-0.3-0.2-0.5-0.4-0.7-0.7c-0.2-0.5-0.2-1.1-0.1-1.7
	c0.1-0.9,0.4-0.9,0.4-1.7c0.1-0.5,0.1-1-0.2-1.5c-0.4-0.4-0.9-0.6-1.5-0.8c-0.4-0.1-0.7-0.3-1.1-0.4c-0.6-0.4-0.6-0.8-1-0.9
	c-0.4,0-0.7,0.2-1,0.5c-0.5,0.4-0.4,0.8-0.8,0.9s-0.6,0.1-0.7,0s0.3-0.8,0.7-1.2s0.8-0.5,0.8-0.7s-0.6-0.6-0.9-0.7
	c-0.6-0.2-0.9-0.2-1.1-0.4c-0.2-0.3-0.1-0.8,0.3-1l0,0c0.3-0.1,0.6-0.1,0.8,0c0.3,0.1,0.4,0.3,0.7,0.7c0.3,0.3,0.6,0.5,1,0.8
	c0.3,0.2,0.6,0.4,0.9,0.6c0.8,0.4,1.1,0.3,1.5,0.7s0.3,0.4,0.7,0.7s0.8,0.4,1.1,0.2s0.1-1.2-0.4-1.8c-0.4-0.4-0.9-0.7-1.5-0.8
	c-0.7-0.2-1.1-0.1-1.4-0.3s-0.2-0.5-0.4-1.1c-0.2-1-0.4-1.5-0.8-1.8c-0.8-0.2-1.6-0.4-2.5-0.4c-0.3,0-0.6-0.1-0.9-0.2
	c-0.4-0.1-1-0.4-1-0.7s0.4-0.5,0.7-0.5s0.4,0.1,0.9,0.4s0.8,0.4,1,0.3c0.4-0.2,0.5-0.6,0.4-1s-0.6-0.7-1-0.8
	c-0.6-0.3-0.9-0.2-1.1-0.4c-0.2-0.4-0.1-1,0.4-1.2h0.1c0.5-0.1,1,0.1,1.3,0.4s0.2,0.6,0.5,1.1c0.2,0.3,0.4,0.5,0.7,0.7
	c0.5,0.4,0.9,0.9,1.2,1.4c0.4,0.7,0.8,1.4,1.1,2.1c0.5,1,0.7,1.4,1.2,1.6s1,0.3,1.2,0.1s-0.3-0.8-0.7-1.2c-0.7-0.8-1-0.8-1.2-1.2
	c-0.4-0.8,0.3-1.1,0-1.8s-0.9-0.6-1.6-1.5c-0.5-0.7-0.2-0.8-0.6-1.3c-1-1.1-2.8-0.7-3.2-1.7c-0.1-0.3-0.1-0.8,0.1-0.9s0.5,0,1,0.3
	c0.6,0.3,0.8,0.5,1,0.5s0.1-0.3,0.1-1s0.1-0.9,0-1.1s-0.7-0.2-0.9-0.5s0.4-1.2,0.8-1.2s0.6,1.3,0.9,1.3s0.1-1.3,0.6-1.5
	c0.3-0.1,0.6,0.1,0.8,0.3c0.3,0.4-0.2,1.1-0.4,1.4c-0.3,0.5-0.5,0.4-0.6,0.8s-0.3,0.6,0.2,1.6s0.7,1.9,1.3,1.9s1.5-1.5,1.6-2.7
	c0.1-0.9-0.1-1.9-0.6-2.7c-0.5-0.5-0.8-1.1-1-1.8c0-0.2,0-0.4,0.2-0.5s0.5-0.1,0.7,0c0.4,0.1,0.5,0.4,0.7,1c0.5,1.2,0.6,1.6,0.8,1.6
	s0.5-0.8,0.5-1.7c0.1-1.3-0.5-2-0.1-2.3c0.4-0.2,0.9-0.2,1.2,0.1c0.3,0.3-0.1,0.9,0.2,1.1s0.7-0.2,1.1,0s0.5,0.5,0.4,0.7
	s-1-0.1-1.3,0.2s0.2,0.6,0.2,1.1s-0.8,0.7-1.2,1.6c-0.2,0.5,0,0.5-0.2,1.5s-0.4,0.9-0.6,1.9c-0.1,0.7-0.1,0.9-0.3,1.3
	c-0.3,0.6-0.6,0.6-0.8,1c-0.2,0.6,0.6,0.8,0.9,2c0.1,0.6,0.3,1.1,0.6,1.6c0,0,0,0.1,0.1,0.1c0.3,0.1,1.2-1.3,1.5-2.6
	c0.5-1.8-0.5-2.2,0-3.3c0.7-1.6,3-2.1,2.8-2.6s-1.4-0.1-1.6-0.6s0.3-1,0.8-1.1c0.4,0,0.7,0.1,1,0.3c0.4,0.3,0.5,0.7,0.6,0.6
	s0.2-0.6,0-1.2c-0.3-1.1-0.9-1.2-1.3-2.5c-0.2-0.4-0.2-0.8-0.1-1.2c0,0,0.4-0.7,1-0.7c0.3,0,0.6,0.2,0.7,0.6
	c0.1,0.3-0.2,0.5-0.4,0.9c-0.2,0.6,0.1,1.3,0.4,1.4s0.9-0.8,1.2-1.5s0.1-1,0.3-1.1s0.9,0.2,1.1,0.7c0.2,0.6,0,1.2-0.4,1.6
	c-0.4,0.6-0.8,0.6-1.1,1.1s0,0.9-0.3,1.8c-0.3,0.6-0.6,1.2-1.1,1.7c-0.6,0.9-0.8,1-1.2,1.6c-0.3,0.5-0.6,1.1-0.8,1.8
	c-0.6,1.9-1,3.2-0.3,4c0.4,0.5,1.1,0.7,1.7,0.5c0.5-0.3,0.1-1,0.6-2.4c0.2-0.8,0.4-0.7,1-2c0.7-1.5,0.4-1.7,0.9-2.5
	c0.2-0.3,0.3-0.5,2.1-2s2.5-2,2.4-2.5s-1-0.5-1.2-1.1c-0.1-0.3,0.1-0.6,0.4-1.3s0.4-0.8,0.6-0.9c0.5,0,0.9,0.4,1,0.9
	c0,0.4-0.4,0.5-0.5,0.9c0,0.6,0.5,1,1,1.1c0.6,0,0.6-0.7,1.4-0.9s1.4,0.2,1.4,0.5s-1,0.4-2.4,1.4c-0.5,0.3-0.3,0.3-1.1,0.9
	c-1.1,0.9-1.6,1.1-1.6,1.4s0.8,0.6,0.9,0.7c0.7,0.2,1.5,0,2.1-0.4c0.8-0.6,0.6-1.5,1.1-1.5s1,0.5,0.9,0.9s-1.4,0.6-1.6,1.3
	c0,0.1,0,0.2,0,0.2c0.1,1,1.4,1.3,1.4,1.9c-0.2,0.5-0.7,0.7-1.1,0.7c-0.3-0.1-0.2-0.4-0.5-1.2c-0.3-0.6-0.4-0.9-0.7-1
	c-0.6-0.2-1,0.7-1.8,0.6s-0.8-0.8-1.5-0.8c-1,0-1.9,1.7-1.9,1.8c-0.2,0.6-0.4,1.1-0.5,1.7c-0.5,1.8-0.8,2.2-0.6,2.4s1.4-0.1,1.8-0.7
	s-0.2-1.2,0.3-1.8c0.4-0.4,1-0.6,1.6-0.3c0.4,0.3,0,1,0,1.1c-0.3,0.7-0.9,0.9-0.8,1.1s0.8,0.1,1.4,0.6s0.6,1,0.3,1.2s-0.6,0-1.4-0.3
	c-0.6-0.2-0.8-0.3-0.9-0.3H201c-0.6,0-2.3,1.4-2.8,1.7c-1.6,1.2-3.1,0.1-3.6,1.1s0.7,1.5,0.7,3.4c0,1.4-0.5,1.7-0.5,2.9
	c0.1,1.4,0.6,2.7,1.5,3.7L193.6,102z"/>
<path class="st6" d="M81.5,108.6h-5.8V62.2H25.5v46.4h-5.8V48.2c0-10.2,2.6-18.4,7.7-24.6c5.5-6.7,13.2-10,23.3-10
	c9.9,0,17.6,3.4,23.1,10.1c5.2,6.2,7.8,14.4,7.8,24.4v60.5H81.5z M75.7,57v-6.8c0-20.8-8.3-31.2-25-31.2S25.6,29.4,25.5,50.2V57
	H75.7z"/>
<path class="st6" d="M144.8,108.6H94.9c-6.2,0-9.3-2.2-9.3-6.7c0-2.2,1-4.7,3.1-7.6l48.9-69.7c0.4-0.6,0.7-1.4,0.7-2.2
	c0-1.4-1.1-2-3.3-2H86.4v-5.1h48.9c5.9,0,8.8,2.3,8.8,6.9c0,2.3-0.8,4.5-2.1,6.3l-49.2,70c-0.6,0.8-1,1.7-1.1,2.7
	c0,1.4,1.2,2.2,3.4,2.2h49.8v5.2H144.8z"/>
<path class="st6" d="M310.5,42.7c0.2,8.2-3.3,16-9.5,21.3c-1.8,1.6-3.7,2.9-5.9,3.9l15.4,41.1h-5.9l-14.7-39.2
	c-4,1-8.1,1.6-12.1,1.5h-18.9V109h-5.8V25.5c0-3.9,1.4-6.8,4.2-8.8c2.2-1.5,4.8-2.3,7.4-2.3l17.5,0.1c8.5,0,15.3,2.6,20.5,7.7
	C307.9,27.4,310.5,34.2,310.5,42.7z M304.4,42.9c0-6.9-2-12.5-5.9-16.7c-4-4.2-9.4-6.4-16.2-6.4h-18c-3.5,0.5-5.3,2.4-5.3,5.7V66
	h20.9c7.4,0,13.3-2,17.7-5.9C302.1,55.9,304.4,50.2,304.4,42.9L304.4,42.9z"/>
<path class="st6" d="M363.1,109.1h-34.7c-3.1,0.1-6-1-8.3-3.1c-2.2-2-3.5-5-3.4-8V26.8h0.1c-0.1-3,1-6,3.2-8.1c2.3-2,5.3-3.1,8.4-3
	h34.7v5.4h-35.2c-3.5,0.5-5.3,2.4-5.3,5.7v33h34.9v5.1h-34.9v33.2c0,3.3,1.8,5.2,5.3,5.7h35.2L363.1,109.1L363.1,109.1z"/>
<path class="st6" d="M423.7,85c0,8.3-3,14.6-9,18.8c-5.2,3.7-12.1,5.4-20.8,5.3h-5.4c-14.7,0-22.1-8.1-22.1-24.3v-3.7h5.1v3.7
	c0,12.5,5.8,18.7,17.5,18.7h2.1c5.5,0.1,10.9-0.8,16-2.7c6.8-2.7,10.2-7.9,10.2-15.3c0.1-5.5-2.6-10.7-7.1-13.8
	c-2.5-1.9-7.4-4.3-14.8-7.2l-6-2.4c-8.4-3.4-14.1-6.3-17-8.7c-4.9-4-7.3-9.6-7.3-16.6c0-14,9.8-21,29.5-21h6.7c14.7,0,22,8,22,24
	v3.7h-5.1v-3.6c0-12.6-5.9-18.9-17.5-18.9H393c-14.7,0-22,5.2-22.1,15.5c-0.2,4.9,2,9.6,5.8,12.7c2.4,1.9,6.8,4.1,13.2,6.6l9.3,3.7
	c8.2,3.3,13.5,5.9,16,8C420.9,72.1,423.7,78,423.7,85z"/>
<g>
	<path class="st6" d="M38.6,130.3c0,3.1-0.9,6.1-2.6,7.9c-1.9,2.2-4.7,3.4-8.4,3.4h-5.1c-0.7,0-1.4-0.2-2.1-0.6
		c-0.8-0.5-1.2-1.2-1.2-2v-17.4l0,0c0-0.9,0.4-1.6,0.9-1.9c0.7-0.5,1.5-0.8,2.3-0.7H27c3.6,0,6.5,1.2,8.7,3.5
		C37.5,124,38.6,127,38.6,130.3z M36.9,130.3c0-2.8-0.9-5.5-2.4-7.1c-1.8-2.1-4.3-3.1-7.6-3.1h-4.5c-1,0.1-1.5,0.6-1.5,1.4V139
		c0,0.8,0.5,1.2,1.5,1.4h5.1c3.3,0,5.7-1,7.3-3C36.2,135.6,37,133,36.9,130.3L36.9,130.3z"/>
	<path class="st6" d="M61,141.6h-9.7c-0.8,0-1.6-0.2-2.3-0.7c-0.6-0.5-0.9-1.1-0.9-1.9v-17l0,0c0-0.9,0.4-1.6,0.9-1.9
		c0.7-0.5,1.5-0.8,2.3-0.7H61v1.3h-9.8c-1,0.1-1.5,0.6-1.5,1.4v7.8h9.7v1.2h-9.7v7.9c0,0.8,0.5,1.2,1.5,1.4H61V141.6z"/>
	<path class="st6" d="M83.4,141.6h-9.7c-0.8,0-1.6-0.2-2.3-0.7c-0.6-0.5-0.9-1.1-0.9-1.9v-17l0,0c0-0.9,0.4-1.6,0.9-1.9
		c0.7-0.5,1.5-0.8,2.3-0.7h9.7v1.3h-9.8c-1,0.1-1.5,0.6-1.5,1.4v7.8h9.7v1.2h-9.7v7.9c0,0.8,0.5,1.2,1.5,1.4h9.8V141.6z"/>
	<path class="st6" d="M108.9,125.8c0,2-0.9,3.7-2.7,5c-1.5,1.2-3.7,1.7-6.5,1.7h-5.3v9h-1.6v-19.8c0-0.9,0.4-1.6,1.2-2.1
		c0.7-0.4,1.4-0.6,2.1-0.5h4.9c2-0.1,3.9,0.5,5.7,1.8C108.2,122.2,108.9,123.8,108.9,125.8z M107.2,125.8c0-1.7-0.6-3.2-1.6-4
		c-1.4-1.1-3-1.6-4.6-1.5h-5c-1,0.1-1.5,0.6-1.5,1.3v9.6h5.8c1.7,0.1,3.4-0.4,4.9-1.4C106.6,128.9,107.2,127.6,107.2,125.8
		L107.2,125.8z"/>
	<path class="st6" d="M127.4,134.5h-11.9v-1.3h11.9V134.5z"/>
	<path class="st6" d="M153.2,135.9c0,2-0.8,3.5-2.5,4.5c-1.9,1-3.8,1.4-5.8,1.3h-1.5c-4.1,0-6.2-1.9-6.2-5.8V135h1.4v0.9
		c0,2.9,1.6,4.4,4.9,4.4h0.6c1.5,0,3-0.2,4.5-0.6c1.9-0.7,2.8-1.9,2.8-3.7c0-1.3-0.7-2.4-2-3.3c-1.3-0.7-2.7-1.3-4.1-1.7l-1.7-0.6
		c-1.6-0.5-3.2-1.2-4.7-2.1c-1.4-1-2-2.3-2-3.9c0-3.3,2.7-5,8.2-5h1.9c4.1,0,6.1,1.9,6.1,5.7v0.9h-1.4v-0.9c0-3-1.6-4.5-4.9-4.5
		h-2.2c-4.1,0-6.1,1.2-6.1,3.7c0,1.3,0.5,2.3,1.6,3c1.2,0.7,2.4,1.2,3.7,1.6l2.6,0.9c1.5,0.4,3,1.1,4.5,1.9
		C152.4,132.8,153.2,134.2,153.2,135.9z"/>
	<path class="st6" d="M175.6,141.6h-9.7c-0.8,0-1.6-0.2-2.3-0.7c-0.6-0.5-0.9-1.1-0.9-1.9v-17l0,0c0-0.9,0.4-1.6,0.9-1.9
		c0.7-0.5,1.5-0.8,2.3-0.7h9.7v1.3h-9.8c-1,0.1-1.5,0.6-1.5,1.4v7.8h9.7v1.2h-9.7v7.9c0,0.8,0.5,1.2,1.5,1.4h9.8V141.6z"/>
	<path class="st6" d="M202.3,141.6h-1.6v-11h-14v11H185v-14.3c0-2.4,0.8-4.6,2.1-5.8c1.5-1.6,3.7-2.4,6.5-2.4s4.9,0.8,6.4,2.4
		c1.3,1.2,2.2,3.4,2.2,5.8L202.3,141.6z M200.7,129.3v-1.6c0-4.9-2.3-7.4-7-7.4s-7,2.5-7,7.4v1.6H200.7z"/>
	<path class="st6" d="M242.4,125.8c0,2-0.9,3.7-2.7,5c-0.5,0.4-1.1,0.7-1.6,0.9l4.3,9.8h-1.6l-4.1-9.3c-1.1,0.3-2.3,0.4-3.4,0.4H228
		v9h-1.6v-19.8c0-0.9,0.4-1.6,1.2-2.1c0.7-0.4,1.4-0.6,2.1-0.5h4.9c2-0.1,3.9,0.5,5.7,1.8C241.7,122.2,242.4,123.8,242.4,125.8z
		 M240.7,125.8c0-1.7-0.7-3.2-1.7-3.9c-1.4-1.1-3-1.6-4.5-1.5h-5c-1,0.1-1.5,0.6-1.5,1.3v9.6h5.8c1.7,0.1,3.4-0.4,4.9-1.4
		C240.1,128.9,240.7,127.6,240.7,125.8L240.7,125.8z"/>
	<path class="st6" d="M264.8,141.6h-9.7c-0.8,0-1.6-0.2-2.3-0.7c-0.6-0.5-0.9-1.1-0.9-1.9v-17l0,0c0-0.9,0.4-1.6,0.9-1.9
		c0.7-0.5,1.5-0.8,2.3-0.7h9.7v1.3H255c-1,0.1-1.5,0.6-1.5,1.4v7.8h9.7v1.2h-9.7v7.9c0,0.8,0.5,1.2,1.5,1.4h9.8L264.8,141.6
		L264.8,141.6z"/>
	<path class="st6" d="M290.7,135.9c0,2-0.8,3.5-2.5,4.5c-1.9,1-3.8,1.4-5.8,1.3h-1.5c-4.1,0-6.1-1.9-6.2-5.8V135h1.4v0.9
		c0,3,1.6,4.4,4.9,4.4h0.6c1.5,0,3-0.2,4.5-0.6c1.9-0.7,2.9-1.9,2.9-3.7c0-1.3-0.7-2.4-2-3.3c-1.3-0.7-2.7-1.3-4.1-1.7l-1.7-0.6
		c-1.6-0.5-3.2-1.2-4.7-2.1c-1.4-1-2-2.3-2-3.9c0-3.3,2.7-5,8.2-5h1.9c4.1,0,6.1,1.9,6.1,5.7v0.9h-1.4v-0.9c0-3-1.6-4.5-4.9-4.5H282
		c-4.1,0-6.1,1.2-6.1,3.7c0,1.3,0.5,2.3,1.6,3c1.2,0.7,2.4,1.2,3.7,1.6l2.6,0.9c1.5,0.4,3,1.1,4.5,1.9
		C289.9,132.8,290.7,134.2,290.7,135.9z"/>
	<path class="st6" d="M313.1,141.6h-9.7c-0.8,0-1.6-0.2-2.3-0.7c-0.6-0.5-0.9-1.1-0.9-1.9v-17l0,0c0-0.9,0.4-1.6,0.9-1.9
		c0.7-0.5,1.5-0.8,2.3-0.7h9.7v1.3h-9.8c-1,0.1-1.5,0.6-1.5,1.4v7.8h9.7v1.2h-9.7v7.9c0,0.8,0.5,1.2,1.5,1.4h9.8V141.6z"/>
	<path class="st6" d="M339.8,141.6h-1.6v-11h-14v11h-1.6v-14.3c0-2.4,0.8-4.6,2.1-5.8c1.5-1.6,3.7-2.4,6.5-2.4s4.9,0.8,6.4,2.4
		c1.3,1.2,2.2,3.4,2.2,5.8V141.6z M338.1,129.3v-1.6c0-4.9-2.3-7.4-7-7.4s-7,2.5-7,7.4v1.6H338.1z"/>
	<path class="st6" d="M365.2,125.8c0,2-0.9,3.7-2.7,5c-0.5,0.4-1.1,0.7-1.6,0.9l4.3,9.8h-1.6l-4.1-9.3c-1.1,0.3-2.3,0.4-3.4,0.4
		h-5.3v9h-1.6v-19.8c0-0.9,0.4-1.6,1.2-2.1c0.7-0.4,1.4-0.6,2.1-0.5h4.9c2-0.1,3.9,0.5,5.7,1.8C364.5,122.2,365.2,123.8,365.2,125.8
		z M363.5,125.8c0-1.7-0.7-3.2-1.7-4c-1.4-1.1-3-1.6-4.5-1.5h-5c-1,0.1-1.5,0.6-1.5,1.3v9.6h5.8c1.7,0.1,3.4-0.4,4.9-1.4
		C362.9,128.9,363.5,127.6,363.5,125.8L363.5,125.8z"/>
	<path class="st6" d="M397.1,122.4l-1.2,0.8c-2.5-2-5.2-3-8-2.9c-3.4,0-6.2,1-8.3,2.9c-2.1,1.9-3.1,4.3-3.1,7.2c0,3,1,5.4,3.1,7.3
		c2,1.9,4.8,2.9,8.3,2.9c2.8,0.1,5.6-0.9,8-3l0.9,1.3c-2.7,2.1-5.8,3.2-8.9,3.1c-3.9,0-7.1-1.1-9.5-3.2s-3.6-4.9-3.6-8.2
		s1.2-6.1,3.6-8.2s5.6-3.2,9.4-3.2C391,118.9,394.2,120,397.1,122.4z"/>
	<path class="st6" d="M423.8,141.6h-1.7v-11h-14v11h-1.6v-22.2h1.6v9.9h14v-9.9h1.7V141.6z"/>
</g>
</svg>
