<svg id="Layer_1" data-name="Layer 1" xmlns="http://www.w3.org/2000/svg" viewBox="0 0 440.12 151.54"><defs><style>.cls-1,.cls-2,.cls-3,.cls-7{fill:#fff;}.cls-1,.cls-3,.cls-7,.cls-9{stroke:#fff;stroke-miterlimit:10;}.cls-3{font-size:160px;stroke-width:0.5px;}.cls-3,.cls-7{font-family:Asenine;}.cls-4{letter-spacing:-0.01em;}.cls-5{letter-spacing:0em;}.cls-6{letter-spacing:-0.03em;}.cls-7{font-size:53px;letter-spacing:0.03em;}.cls-8{letter-spacing:-0.03em;}.cls-9{fill:none;stroke-width:4px;}</style></defs><path class="cls-1" d="M246.77,58.72c0,1.53-.06,3.07-.18,4.57a48.67,48.67,0,0,1-4.45,16.53c-3.82,8.09-11.23,16.13-18.62,21.06-9-24.74-17.07-50.72-26-75.46-8.5,25.19-18.64,50.05-27.14,75.24-14.23-8.47-21.58-23.53-21.7-41.26a48.41,48.41,0,0,1,5-21.92c.62-1.28,1.31-2.52,2-3.73a47.45,47.45,0,0,1,4.14-5.81,49.08,49.08,0,0,1,86.9,30.78Z"/><path class="cls-2" d="M195.93,106.68a3.11,3.11,0,0,1-1.81-.35,1.63,1.63,0,0,1-.66-.74,2.5,2.5,0,0,1-.1-1.67c.15-.89.35-.92.42-1.65a1.88,1.88,0,0,0-.22-1.47,4.32,4.32,0,0,0-1.47-.78,6.38,6.38,0,0,1-1.06-.45c-.64-.43-.63-.85-1-.89a1.42,1.42,0,0,0-1,.47c-.46.43-.38.78-.78.94a.62.62,0,0,1-.68-.18c-.19-.24.25-.71.63-1s.8-.48.8-.7-.65-.59-.95-.71c-.62-.25-.88-.16-1.06-.39a.74.74,0,0,1,.26-1,1.06,1.06,0,0,1,.81,0c.32.12.35.3.72.67a7.6,7.6,0,0,0,1,.77,9.15,9.15,0,0,0,.94.59,8.19,8.19,0,0,1,1.44.76,4.53,4.53,0,0,0,.81.56c.27.15.84,1.38,1.12,1.2s.14-2.17-.4-2.76a3.19,3.19,0,0,0-1.47-.84A2.66,2.66,0,0,1,191,96.3a1.37,1.37,0,0,1-.56-1c-.24-1-.41-1.34-.87-1.65a14.24,14.24,0,0,0-2.46-.44,4.36,4.36,0,0,1-.9-.22c-.39-.14-1-.38-1-.7s.15-.57.47-.59.56.2,1.13.49a1.23,1.23,0,0,0,1,.14c.31-.1.4-.4.29-.77s-.61-.66-1-.84c-.62-.3-.89-.2-1.07-.45a.74.74,0,0,1,.4-1.13,1.26,1.26,0,0,1,1.24.47,3.94,3.94,0,0,1,.57.88,3.59,3.59,0,0,0,.73.73,7.38,7.38,0,0,1,1.24,1.43,15,15,0,0,1,1.09,2.06,2.71,2.71,0,0,0,1.34,1.51c.43.21.77.19.92,0s-.07-.43-.39-.93a6,6,0,0,1-.71-1.2c-.36-.75-.45-1.19-.76-1.92s-.56-.67-1.25-1.58c-.53-.69-.59-.75-1-1.24-1-1.13-2.82-.7-3.24-1.66a.6.6,0,0,1,.21-.77c.19-.1.42-.07.9.16.65.31,1.06.54,1.22.48s0-.41,0-1.14,0-.8-.16-1-.71-.24-.86-.53.42-1.24.83-1.2.61,1.31.86,1.28.1-1.31.65-1.49a.78.78,0,0,1,.77.29c.31.43-.16,1.11-.38,1.41-.32.45-.49.43-.65.74s-.26.57.16,1.6,1.18,2.14,1.78,2.14,1.1-1.69,1.21-2.94a3.85,3.85,0,0,0-.63-2.66,3.76,3.76,0,0,1-1-1.83.53.53,0,0,1,.17-.51.89.89,0,0,1,.73,0c.37.14.51.44.74,1,.54,1.22.79,1.58.93,1.57s.28-.82.32-1.66c0-1.34-.5-2-.09-2.29a1.11,1.11,0,0,1,1.25.06c.32.33-.29,1,0,1.25s.86-.33,1.27-.14.5.54.37.71-1.5.08-1.77.37-.11.44-.18,1a3,3,0,0,1-.4,1.48,4,4,0,0,0-.42,1.42c-.21.92-.2,1-.41,2-.15.69-.08.86-.32,1.27-.33.59-.6.58-.78,1-.35.71.46,1.11.89,2.07.32.74.59,2.12,1.29,2.2a1.85,1.85,0,0,0,.48-.64c.08-.27.12-1.26.45-2.58.45-1.82.06-2,.6-3.21.73-1.57,2.44-2.27,2.23-2.78s-1.36-.09-1.59-.58,0-.79.57-.9a1.74,1.74,0,0,1,1.07.2c.45.3.55.68.66.65a1.77,1.77,0,0,0,.18-1.44c-.28-1.06-.91-1.24-1.34-2.47a1.44,1.44,0,0,1-.05-1.24s.38-.68,1-.65a.56.56,0,0,1,.55.5c.08.32,0,.52-.19.95-.19.62.06,1.35.36,1.39s.93-.78,1.16-1.54.42-1,.67-1,.54.2.76.66a1.67,1.67,0,0,1-.36,1.58c-.44.64-.78.56-1.13,1.11s0,.87-.33,1.77a6.44,6.44,0,0,1-1.08,1.72c-.65.88-.84,1-1.23,1.55a7.27,7.27,0,0,0-.78,1.75c-.62,1.94-1.12,3.91-.34,4.7.43.45,1.36,0,1.75-.29s.21-.38.7-1.64a26.65,26.65,0,0,1,.83-2.63c.66-1.5.42-1.69.92-2.51.16-.25.34-.49,2.14-2s2.52-2,2.39-2.47-1.05-.46-1.21-1.12a2.42,2.42,0,0,1,.3-1.41c.24-.54.28-.72.49-.76a.85.85,0,0,1,.88.83,8.91,8.91,0,0,1-.25.95,1.15,1.15,0,0,0,1.07,1.13c.55,0,.64-.73,1.37-.88s1.35.2,1.37.48-1,.41-2.43,1.36c-.49.33-.31.3-1.15.92-1.15.87-1.65,1.07-1.61,1.41s.82.61.94.65a2.64,2.64,0,0,0,2.15-.4c.81-.62.63-1.47,1.09-1.54s1,.49.9.9-1.42.63-1.55,1.34a.59.59,0,0,0,0,.23c.11,1,1.45,1.3,1.38,1.86a1.07,1.07,0,0,1-1.14.65c-.28-.09-.19-.44-.53-1.23-.26-.6-.39-.9-.68-1-.56-.16-1,.15-1.79.1S204.61,87,204,87c-1,0-1.88,1.68-1.94,1.81a8.45,8.45,0,0,0-.49,1.72c-.48,1.75-.83,2.23-.56,2.42s1.31-.27,1.71-.9.21-.74.67-1.28.74-.6,1.07-.35a.71.71,0,0,1,.18.8c-.31.68-.86.87-.77,1.13s.84.11,1.37.55.38.77.15.93-.38.23-1.23-.08c-.61-.22-.75-.3-.89-.33h-.1c-.59,0-2.45,1.16-3,1.54-1.63,1.17-2.66.37-3.15,1.31s.44,1.44.45,3.32c0,1.4-.47,1.71-.47,2.93a7.43,7.43,0,0,0,1.72,4.11A25.55,25.55,0,0,1,195.93,106.68Z"/><text class="cls-3" transform="translate(18.05 106.18)"><tspan class="cls-4">A</tspan><tspan x="65.92" y="0">Z</tspan></text><text class="cls-3" transform="translate(251.47 106.7)"><tspan class="cls-5">R</tspan><tspan class="cls-6" x="63.7" y="0">E</tspan><tspan x="112.03" y="0">S</tspan></text><text class="cls-7" transform="translate(19.6 142.34) scale(1.1 0.65)">DEE<tspan class="cls-8" x="64.78" y="0">P</tspan><tspan x="84.05" y="0">-SEA RESEARCH</tspan></text><circle class="cls-9" cx="197.35" cy="59.21" r="49.31"/></svg>