<svg id="Layer_1" data-name="Layer 1" xmlns="http://www.w3.org/2000/svg" viewBox="0 0 1000 526"><defs><style>.cls-1{fill:#d75038;}.cls-2{fill:#fff;}</style></defs><title>azor-drift-cam-color@svg</title><g id="_0vo5iO.tif" data-name="0vo5iO.tif"><path class="cls-1" d="M533.13,261.65c.11,17.77-1.19,35.38-6.12,52.57-7,24.56-22.59,40.57-47.67,46.5-20.72,4.89-41.57,4.86-62.1-1-26.83-7.63-40.59-27.1-45.77-53.22-6.4-32.23-6.59-64.51,1.43-96.6,7.85-31.43,28.41-49.32,60.84-52.72a140.06,140.06,0,0,1,39.42,1.09c29.13,5.2,46.76,22.51,54.3,50.7C532.08,226.25,533.4,243.86,533.13,261.65Zm-40.87,3.29c-.15-19.42-.52-34.62-5.59-49.21-3.47-10-9-18.77-19.7-22-24.6-7.39-49.13-2-55.46,29.6-4.74,23.61-4.64,47.44-.88,71.07,3.44,21.6,13.51,32,31,34.45,28,4,43.44-7.18,48.22-34.91A163.49,163.49,0,0,0,492.26,264.94Z"/><path class="cls-2" d="M711.82,356.12h-43c-7.43-21.33-14.8-42.47-22.26-63.9H608.85V356H569.59V163.41a14.65,14.65,0,0,1,2.95-.67c28.18.34,56.4-1.27,84.54.89,35.64,2.72,54.93,23.57,55.83,59.53.62,24.42-6.63,45.19-28.47,59.44C693.49,306.89,702.47,331,711.82,356.12ZM608.93,257.57c14.32,0,28.17.74,41.89-.24,10.17-.73,16.63-7.75,19.76-17.39a42.45,42.45,0,0,0,.53-23.49c-2.48-10.25-8.81-17.09-19.24-18.75-14.11-2.24-28.37-.73-42.94-.94Z"/><path class="cls-2" d="M63.63,162.84c25.12-.46,49.45-1,74.89.11,14.48,64,29,128.18,43.74,193.1-13.5,1.45-26.3.74-39.65.31l-7.81-34.22c-22.53-1-44.69-1.06-67.26-.1l-8.1,34.09H20.36C34.79,291.66,49.12,227.65,63.63,162.84ZM74.85,287.06h52.78c-6.7-30.78-13.26-60.95-19.84-91.15-4.79-.27-8.78-.67-13.25.41C88,226.33,81.52,256.32,74.85,287.06Z"/><path class="cls-2" d="M286.44,197.28H206.3V163c42.8-.6,84.95-.63,128.16-.08-1.22,16.81,2.64,32.67-8.87,48.36-24.43,33.3-46.55,68.3-69.6,102.61-1.5,2.23-3.49,4.37-1.43,8.13h79.25c1.34,11.66.35,22.63.65,34.08H206.29c0-11.09-.1-21.91.11-32.72,0-1.61,1.36-3.31,2.35-4.79q37.16-55.42,74.35-110.83C285.06,204.87,288.05,202.25,286.44,197.28Z"/><path class="cls-1" d="M545.56,171.8A36,36,0,0,1,535,155.65C521.6,111.2,499.86,71.06,472.16,34c-2.57-3.45-2.56-3.46-8.19-5.49,15.53,34.64,28.63,69,37.73,105.13-3.08.91-4.92-.76-7.07-2.15-9.87-35.26-21.85-69.77-38.24-102.58l-2.27.42v94.4c-2.67,2.33-4.33,2.07-7.32.45V29.21c-4.87.57-4.93,3.87-6,6.08a575.34,575.34,0,0,0-33.62,91.31c-1,3.8-2,7.61-8.28,6.6,8.62-36,22-70,36.92-103.33-3.59-2.51-5.18-.29-6.67,1.7-27.36,36.69-49.44,76.2-62.74,120.17-2.45,8.08-6.66,14.71-12.54,22.61a353.9,353.9,0,0,1,27.46-77.67A445,445,0,0,1,426.3,24.49c4.22-5.57,9.26-8.51,16.28-7.86a10.84,10.84,0,0,0,2.73,0c16.5-2.94,26.74,4.66,36,18,27.89,40.33,50.64,82.9,62.79,130.67.55,2.18.91,4.42,1.37,6.63Z"/><path class="cls-1" d="M456.38,491.94c16.54-32.82,28.39-67.48,38.36-102.68a9.54,9.54,0,0,1,6.82-2.55c-8.66,36.43-22.2,70.72-37.27,104.57,4.49,1.54,5.47-1.41,6.82-3.2,27.43-36.13,49.12-75.33,62.4-118.83,2.46-8.06,7.07-14.39,12.7-22.74a334.79,334.79,0,0,1-22.62,66.81,419.54,419.54,0,0,1-51,83.61c-3.66,4.74-8.05,7.1-13.86,7.26-.46,0-.91,0-1.37,0-29,.21-23.89,1.75-39.18-19.19-28.4-38.9-49.5-81.42-61.91-128.08a43.66,43.66,0,0,1-1.35-8.18c3.73,4.76,8,9,9.82,15.17,13.32,45.16,35,86.09,63.19,123.7,1.79,2.38,3.22,6,8.07,3.25-15.16-33.4-28.23-67.56-37.09-103.27,2.91-1.25,4.47.17,6.63,1.35,9.91,35.18,21.69,70,38.49,102.8l2.58-.66v-93.8c2.25-2.9,4-2.46,7-1.79v95.82Z"/><path class="cls-2" d="M926.28,290.85c7.66-3.61,15.17-6.06,23.22-6.53,13.28-.78,21.06,4.9,23.13,17.74,2.79,17.33.77,34.78,1.39,52.37-4.46,1.1-8.22.83-13.07.27,0-8.37.07-16.67,0-25-.08-7-.1-14.07-.59-21.08-.67-9.57-4.59-12.86-14-12.48a30.14,30.14,0,0,0-15.18,4.43c1.34,17.65.53,35.5.74,53.51-4.18,1.79-8.11,1-12.94.7V332.24c0-8.4.22-16.79-.85-25.16-1-8-4.49-11-12.64-10.93-5.76.08-10.06,1.3-16.06,4.77v53.46c-4.49,1.48-8.43.51-12.77.7V286.37c5-.13,9.91-2.35,13.78,2.93C902.34,283.72,914.4,280.9,926.28,290.85Z"/><path class="cls-2" d="M800.29,164V262.1c-5-.3-10.1,2.48-14-2.87-6.93,3-14,5.14-21.73,4.59-10.25-.74-17-5.84-19.89-15.68-3.14-10.66-3.25-21.48-1.54-32.38,2.68-17,12.33-25,29.58-24.34,4.69.18,9.36.92,14.82,1.49V164.55C792,163.12,795.75,163.8,800.29,164Zm-13,40.22c-4.93-.58-9.38-1.5-13.85-1.54-9.77-.09-14.5,3.85-16.64,13.51a55.32,55.32,0,0,0,.41,25.62c1.79,7.18,6.26,10.75,13.13,10.43,5.87-.28,11.63-1.45,16.95-4.73Z"/><path class="cls-2" d="M863.47,347.83c-.15,2.86-.29,5.31-.44,8.14-6.67,1.43-12.17-.9-17.55-4.17-8.24,2.88-16.47,5.35-25.3,4.79-10.7-.69-16.79-6.51-18.1-17.55-1.45-12.28,2.75-19.82,13-23.08,8.95-2.83,18.46-1.85,27.51-3.77,2.77-12.18-1-17-13-16.55-7.48.29-14.94.82-22.38,1.24-1.87-2.68-1-5.4-1.08-8.86,12.74-3.16,25.51-5.79,38.61-1.85,8.42,2.53,11.35,9.46,11.66,17.4.41,10.66.2,21.34.25,32C856.72,343.42,856.71,343.42,863.47,347.83Zm-20.12-25.92c-7.37.86-14.17,1.19-20.75,2.56-6.11,1.28-8.12,5.73-7.27,12.65.76,6.12,4.13,8.78,10.13,8.51s12.19-.73,17.89-3.94Z"/><path class="cls-2" d="M910.26,262.1H897.5V205.2l-8.25-1.57v-9.4c2-2.33,5-.48,7.44-2.58,1.88-8.86-2.16-20.31,8.13-26.85,8-5.05,16.71-1.85,25.27-1.69,1.35,3.8.88,7,.27,10.27-5.81,1.89-12.6-2.54-17.14,2.51-3.83,4.26-3.09,10.2-3,15.92,5.85,2.45,12.14,0,18.36,1.6,1.1,3.26.7,6.56.34,10.07-5.94,2.09-12.29-1-18.7,1.74Z"/><path class="cls-2" d="M933.73,193.6l8.74-1.34v-19c4.37-1.43,8.1-.87,12.54-.52.32,6.7.63,13.12,1,20.31h19.71v11h-20.2c.23,14.6-.81,28.34.83,42.07.51,4.29,3.36,6.23,7.55,6.29,3.82,0,7.64,0,11.53,0,1.48,2.84.93,5.84,1.6,9.46-8.23,2.19-16.18,3.1-24.2.73-6-1.78-8.11-6.72-9.1-12.41-2.08-12-.83-24-1.17-36-.08-2.93,0-5.87,0-8.47-2.66-2.31-5.7-1-8.58-2.33C932.7,200.32,933.27,197.1,933.73,193.6Z"/><path class="cls-2" d="M790.9,286.82v9.43c-6.22,1.23-12.27-.46-18.29-.17-10.2.5-14.59,3.8-16.3,13.78a61,61,0,0,0,.15,21.65c1.8,9.51,6.78,13.53,16.62,13.46,5.64,0,11.27-.69,17-1.07,1.84,3.49.93,6.76,1.11,10.23-9.88,2.43-19.34,3.33-28.82,1.95-9.22-1.34-15.26-7.08-17.54-15.95-3.21-12.46-3.69-25.15-.24-37.67,3.3-12,10.07-17.37,22.47-18a105.23,105.23,0,0,1,14.93.73C784.84,285.42,787.68,286.21,790.9,286.82Z"/><path class="cls-2" d="M849.55,204.55c-7.85,2.25-15.48,4.39-23.28,8.59v48.31c-4.54,1.52-8.33.67-12.67.91V193.75c4-1.41,7.53-.61,10.7-.77,2.49,2.24,1.32,5.08,2.35,7.73,7.55-3.27,14.39-7.94,23.05-8.73C850.6,196.4,850.92,200.48,849.55,204.55Z"/><path class="cls-2" d="M862.59,193.42c4.32-.44,8.06-.91,12.09,0a34.71,34.71,0,0,1,.37,3.52c0,21.5,0,43,0,64.68a30.64,30.64,0,0,1-12.48.3Z"/><path class="cls-2" d="M874.75,165.68v13.14c-4,1.45-7.92.35-11.86.59-1.37-4.77-.66-8.95-.59-13.38C866.51,164.94,870.25,165.37,874.75,165.68Z"/><path d="M545.43,171.92c.21.37.43.73.16.28.06.47,0,0,0-.39Z"/></g></svg>