<?xml version="1.0" encoding="utf-8"?>
<!-- Generator: Adobe Illustrator 24.0.2, SVG Export Plug-In . SVG Version: 6.00 Build 0)  -->
<svg version="1.1" id="Layer_1" xmlns="http://www.w3.org/2000/svg" xmlns:xlink="http://www.w3.org/1999/xlink" x="0px" y="0px"
	 viewBox="0 0 200 200" style="enable-background:new 0 0 200 200;" xml:space="preserve">
<style type="text/css">
	.st0{fill:#B3DFF3;}
	.st1{fill:#52B2C6;}
	.st2{fill:#4270AF;}
	.st3{fill:#385A7B;}
	.st4{fill:#1D1D1B;}
	.st5{fill:#13120E;}
	.st6{fill:#F7E700;}
</style>
<title>adsr-logo-color</title>
<g>
	<g>
		<path class="st0" d="M155.6,26.5l-48.1,11.7l-13.1,3.2l-77.3,19v-0.2c1.2-2.4,2.6-4.8,4-7.1c2.4-4,5-7.5,7.9-11.1
			c17-20.6,42.2-29.1,42.2-29.1c9.5-3.2,19.4-4.8,29.5-5c9.1-0.4,18.2,0.8,26.9,3.4C137.7,14.5,147.3,19.6,155.6,26.5z"/>
	</g>
	<g>
		<path class="st1" d="M190.4,117.3L9.2,83.6c0.6-8.7,3.4-17.2,8.1-24.6c1.2-2,2.6-3.8,4.2-5.5c24.2-4.4,48.7-8.9,73.5-13.9
			c20.6-4.2,41-8.3,61-12.7c12.9,9.9,23,22.8,29.3,37.8c3.8,9.5,6.1,19.6,6.5,29.9C192.4,102.2,191.8,110,190.4,117.3z"/>
	</g>
	<g>
		<path class="st2" d="M188.5,126L29.4,160.5C11.9,139.1,4.6,111.1,9,83.8l182.3,22.8c0.2,2.6,0.2,5.3,0,8.1
			C191,118.5,190,122.2,188.5,126z"/>
	</g>
	<g>
		<path class="st3" d="M172.4,158.1c-3.6,4.6-7.5,8.7-11.7,12.5c-8.3,6.7-17.4,12.3-27.3,16.2c-22.6,8.5-47.5,8.1-69.7-1.6
			c-6.9-3-13.5-6.7-19.6-11.3c-5.9-4.4-11.3-9.3-16.2-14.7l160.7-34.1c-1.4,5.3-3.4,10.5-5.5,15.5
			C179.9,146.8,176.4,152.5,172.4,158.1z"/>
	</g>
	<g>
		<path class="st4" d="M99.9,198.6c-15.4,0-30.6-3.6-44.7-10.8c-23.5-12-40.9-32.4-49.1-57.5c-3.2-9.8-4.8-19.7-4.8-29.7
			C1,85.5,4.6,70.2,11.5,56.4c1.3-2.5,2.7-5,4.1-7.4c2.5-4.1,5.1-7.9,8.4-11.8C40.8,16.9,64.5,4.3,90.8,1.8
			c26.2-2.5,51.9,5.4,72.3,22.3c22.5,18.7,35.5,46.1,35.7,75.1v0c0,3.1-0.2,6.2-0.4,9.1c-1.1,11.9-4.2,23.5-9,33.5
			c-11.1,23.6-30.8,41.6-55.5,50.6c-0.4,0.2-1,0.4-1.6,0.6c-0.5,0.2-1,0.4-1.4,0.5l-0.3,0.1C120.5,197,110.1,198.6,99.9,198.6z
			 M100.2,11.3c-2.8,0-5.6,0.1-8.5,0.4c-23.6,2.2-45,13.5-60.1,31.9c-2.9,3.5-5.3,6.8-7.5,10.5c-1.3,2.2-2.7,4.6-3.8,6.8
			C14.1,73.2,11,87,11.2,100.6c0,8.9,1.5,17.9,4.3,26.7c15.1,46.6,65.3,72.2,111.9,57.1c0.5-0.2,1-0.4,1.6-0.6
			c0.5-0.2,1-0.4,1.4-0.5c22.4-8.2,40.1-24.4,50.1-45.6c4.3-9,7.1-19.4,8.1-30c0.2-2.7,0.4-5.5,0.4-8.2
			c-0.2-26.1-11.9-50.7-32.1-67.5C140.6,18.4,120.8,11.3,100.2,11.3z"/>
	</g>
	<g>
		<path class="st5" d="M111.8,64.8c-4.4-11.1-8.5-22.2-12.7-33.3L87.2,64.4c3.8,2.2,7.9,3.4,12.1,3.6C103.7,68,108,67,111.8,64.8z"
			/>
	</g>
	<g>
		<path class="st5" d="M111.6,64.4c-7.7,3.6-16.8,3.6-24.6,0L45,174.7c32.1,21,73.3,21.8,106.4,2.2L111.6,64.4z"/>
	</g>
	<g>
		<path class="st6" d="M96.1,181.5c-1.2,0.2-2.4,0.2-3.4-0.4c-0.6-0.4-1-0.8-1.4-1.4c-0.4-1-0.4-2.2-0.2-3.4
			c0.2-1.8,0.8-1.8,0.8-3.4c0.2-1,0.2-2-0.4-3c-0.8-0.8-1.8-1.2-3-1.6c-0.8-0.2-1.4-0.6-2.2-0.8c-1.2-0.8-1.2-1.6-2-1.8
			c-0.8,0-1.4,0.4-2,1c-1,0.8-0.8,1.6-1.6,1.8c-0.8,0.2-1.2,0.2-1.4,0c-0.2-0.2,0.6-1.6,1.4-2.4c0.8-0.8,1.6-1,1.6-1.4
			c0-0.4-1.2-1.2-1.8-1.4c-1.2-0.4-1.8-0.4-2.2-0.8c-0.4-0.6-0.2-1.6,0.6-2l0,0c0.6-0.2,1.2-0.2,1.6,0c0.6,0.2,0.8,0.6,1.4,1.4
			c0.6,0.6,1.2,1,2,1.6c0.6,0.4,1.2,0.8,1.8,1.2c1.6,0.8,2.2,0.6,3,1.4c0.8,0.8,0.6,0.8,1.4,1.4c0.8,0.6,1.6,0.8,2.2,0.4
			c0.6-0.4,0.2-2.4-0.8-3.6c-0.8-0.8-1.8-1.4-3-1.6c-1.4-0.4-2.2-0.2-2.8-0.6c-0.6-0.4-0.4-1-0.8-2.2c-0.4-2-0.8-3-1.6-3.6
			c-1.6-0.4-3.2-0.8-5-0.8c-0.6,0-1.2-0.2-1.8-0.4c-0.8-0.2-2-0.8-2-1.4c0-0.6,0.8-1,1.4-1c0.6,0,0.8,0.2,1.8,0.8s1.6,0.8,2,0.6
			c0.8-0.4,1-1.2,0.8-2s-1.2-1.4-2-1.6c-1.2-0.6-1.8-0.4-2.2-0.8c-0.4-0.8-0.2-2,0.8-2.4h0.2c1-0.2,2,0.2,2.6,0.8
			c0.6,0.6,0.4,1.2,1,2.2c0.4,0.6,0.8,1,1.4,1.4c1,0.8,1.8,1.8,2.4,2.8c0.8,1.4,1.6,2.8,2.2,4.2c1,2,1.4,2.8,2.4,3.2
			c1,0.4,2,0.6,2.4,0.2c0.4-0.4-0.6-1.6-1.4-2.4c-1.4-1.6-2-1.6-2.4-2.4c-0.8-1.6,0.6-2.2,0-3.6c-0.6-1.4-1.8-1.2-3.2-3
			c-1-1.4-0.4-1.6-1.2-2.6c-2-2.2-5.5-1.4-6.3-3.4c-0.2-0.6-0.2-1.6,0.2-1.8c0.4-0.2,1,0,2,0.6c1.2,0.6,1.6,1,2,1
			c0.4,0,0.2-0.6,0.2-2s0.2-1.8,0-2.2c-0.2-0.4-1.4-0.4-1.8-1c-0.4-0.6,0.8-2.4,1.6-2.4c0.8,0,1.2,2.6,1.8,2.6c0.6,0,0.2-2.6,1.2-3
			c0.6-0.2,1.2,0.2,1.6,0.6c0.6,0.8-0.4,2.2-0.8,2.8c-0.6,1-1,0.8-1.2,1.6c-0.2,0.8-0.6,1.2,0.4,3.2s1.4,3.8,2.6,3.8
			c1.2,0,3-3,3.2-5.3c0.2-1.8-0.2-3.8-1.2-5.3c-1-1-1.6-2.2-2-3.6c0-0.4,0-0.8,0.4-1s1-0.2,1.4,0c0.8,0.2,1,0.8,1.4,2
			c1,2.4,1.2,3.2,1.6,3.2s1-1.6,1-3.4c0.2-2.6-1-4-0.2-4.6c0.8-0.4,1.8-0.4,2.4,0.2c0.6,0.6-0.2,1.8,0.4,2.2c0.6,0.4,1.4-0.4,2.2,0
			c0.8,0.4,1,1,0.8,1.4c-0.2,0.4-2-0.2-2.6,0.4s0.4,1.2,0.4,2.2c0,1-1.6,1.4-2.4,3.2c-0.4,1,0,1-0.4,3s-0.8,1.8-1.2,3.8
			c-0.2,1.4-0.2,1.8-0.6,2.6c-0.6,1.2-1.2,1.2-1.6,2c-0.4,1.2,1.2,1.6,1.8,4c0.2,1.2,0.6,2.2,1.2,3.2c0,0,0,0.2,0.2,0.2
			c0.6,0.2,2.4-2.6,3-5.2c1-3.6-1-4.4,0-6.5c1.4-3.2,5.9-4.2,5.5-5.2c-0.4-1-2.8-0.2-3.2-1.2c-0.4-1,0.6-2,1.6-2.2
			c0.8,0,1.4,0.2,2,0.6c0.8,0.6,1,1.4,1.2,1.2c0.2-0.2,0.4-1.2,0-2.4c-0.6-2.2-1.8-2.4-2.6-5c-0.4-0.8-0.4-1.6-0.2-2.4
			c0,0,0.8-1.4,2-1.4c0.6,0,1.2,0.4,1.4,1.2c0.2,0.6-0.4,1-0.8,1.8c-0.4,1.2,0.2,2.6,0.8,2.8c0.6,0.2,1.8-1.6,2.4-3s0.2-2,0.6-2.2
			s1.8,0.4,2.2,1.4c0.4,1.2,0,2.4-0.8,3.2c-0.8,1.2-1.6,1.2-2.2,2.2c-0.6,1,0,1.8-0.6,3.6c-0.6,1.2-1.2,2.4-2.2,3.4
			c-1.2,1.8-1.6,2-2.4,3.2c-0.6,1-1.2,2.2-1.6,3.6c-1.2,3.8-2,6.3-0.6,7.9c0.8,1,2.2,1.4,3.4,1c1-0.6,0.2-2,1.2-4.8
			c0.4-1.6,0.8-1.4,2-4c1.4-3,0.8-3.4,1.8-5c0.4-0.6,0.6-1,4.2-4c3.6-3,5-4,4.8-5c-0.2-1-2-1-2.4-2.2c-0.2-0.6,0.2-1.2,0.8-2.6
			c0.6-1.4,0.8-1.6,1.2-1.8c1,0,1.8,0.8,2,1.8c0,0.8-0.8,1-1,1.8c0,1.2,1,2,2,2.2c1.2,0,1.2-1.4,2.8-1.8s2.8,0.4,2.8,1
			c0,0.6-2,0.8-4.8,2.8c-1,0.6-0.6,0.6-2.2,1.8c-2.2,1.8-3.2,2.2-3.2,2.8c0,0.6,1.6,1.2,1.8,1.4c1.4,0.4,3,0,4.2-0.8
			c1.6-1.2,1.2-3,2.2-3s2,1,1.8,1.8c-0.2,0.8-2.8,1.2-3.2,2.6c0,0.2,0,0.4,0,0.4c0.2,2,2.8,2.6,2.8,3.8c-0.4,1-1.4,1.4-2.2,1.4
			c-0.6-0.2-0.4-0.8-1-2.4c-0.6-1.2-0.8-1.8-1.4-2c-1.2-0.4-2,1.4-3.6,1.2c-1.6-0.2-1.6-1.6-3-1.6c-2,0-3.8,3.4-3.8,3.6
			c-0.4,1.2-0.8,2.2-1,3.4c-1,3.6-1.6,4.4-1.2,4.8c0.4,0.4,2.8-0.2,3.6-1.4c0.8-1.2-0.4-2.4,0.6-3.6c0.8-0.8,2-1.2,3.2-0.6
			c0.8,0.6,0,2,0,2.2c-0.6,1.4-1.8,1.8-1.6,2.2c0.2,0.4,1.6,0.2,2.8,1.2c1.2,1,1.2,2,0.6,2.4c-0.6,0.4-1.2,0-2.8-0.6
			c-1.2-0.4-1.6-0.6-1.8-0.6h-0.2c-1.2,0-4.6,2.8-5.5,3.4c-3.2,2.4-6.1,0.2-7.1,2.2s1.4,3,1.4,6.7c0,2.8-1,3.4-1,5.7
			c0.2,2.8,1.2,5.3,3,7.3L96.1,181.5z"/>
	</g>
</g>
</svg>
