<?xml version="1.0" encoding="utf-8"?>
<!-- Generator: Adobe Illustrator 24.0.2, SVG Export Plug-In . SVG Version: 6.00 Build 0)  -->
<svg version="1.1" id="Layer_1" xmlns="http://www.w3.org/2000/svg" xmlns:xlink="http://www.w3.org/1999/xlink" x="0px" y="0px"
	 viewBox="0 0 200 200" style="enable-background:new 0 0 200 200;" xml:space="preserve">
<style type="text/css">
	.st0{fill:#B3DFF3;}
	.st1{fill:#52B2C6;}
	.st2{fill:#4270AF;}
	.st3{fill:#385A7B;}
	.st4{fill:#FFFFFF;}
</style>
<title>adsr-logo-color</title>
<g>
	<g>
		<path class="st0" d="M155.6,26.5l-48.1,11.7l-13.1,3.2l-77.3,19v-0.2c1.2-2.4,2.6-4.8,4-7.1c2.4-4,5-7.5,7.9-11.1
			c17-20.6,42.2-29.1,42.2-29.1c9.5-3.2,19.4-4.8,29.5-5c9.1-0.4,18.2,0.8,26.9,3.4C137.7,14.5,147.3,19.6,155.6,26.5z"/>
	</g>
	<g>
		<path class="st1" d="M190.4,117.3L9.2,83.6c0.6-8.7,3.4-17.2,8.1-24.6c1.2-2,2.6-3.8,4.2-5.5c24.2-4.4,48.7-8.9,73.5-13.9
			c20.6-4.2,41-8.3,61-12.7c12.9,9.9,23,22.8,29.3,37.8c3.8,9.5,6.1,19.6,6.5,29.9C192.4,102.2,191.8,110,190.4,117.3z"/>
	</g>
	<g>
		<path class="st2" d="M188.5,126L29.4,160.5C11.9,139.1,4.6,111.1,9,83.8l182.3,22.8c0.2,2.6,0.2,5.3,0,8.1
			C191,118.5,190,122.2,188.5,126z"/>
	</g>
	<g>
		<path class="st3" d="M172.4,158.1c-3.6,4.6-7.5,8.7-11.7,12.5c-8.3,6.7-17.4,12.3-27.3,16.2c-22.6,8.5-47.5,8.1-69.7-1.6
			c-6.9-3-13.5-6.7-19.6-11.3c-5.9-4.4-11.3-9.3-16.2-14.7l160.7-34.1c-1.4,5.3-3.4,10.5-5.5,15.5
			C179.9,146.8,176.4,152.5,172.4,158.1z"/>
	</g>
	<g>
		<path class="st4" d="M163.1,24.1C142.7,7.3,117-0.6,90.8,1.8C64.5,4.3,40.8,16.9,24,37.2c-3.3,3.9-5.9,7.6-8.4,11.8
			c-1.4,2.4-2.9,4.9-4.1,7.4C4.6,70.2,1,85.5,1.2,100.6c0,9.9,1.6,19.9,4.8,29.7c8.2,25.1,25.6,45.5,49.1,57.5
			c14.1,7.2,29.3,10.8,44.7,10.8c10.3,0,20.6-1.6,30.7-4.9l0.3-0.1c0.5-0.2,0.9-0.4,1.4-0.5c0.6-0.2,1.2-0.4,1.6-0.6
			c24.7-9.1,44.4-27.1,55.5-50.6c4.8-10,7.9-21.6,9-33.5c0.2-2.9,0.4-6,0.4-9.1v0C198.5,70.2,185.6,42.8,163.1,24.1z M188.5,107.5
			c-1,10.7-3.8,21.1-8.1,30c-6.8,14.5-17.3,26.7-30.3,35.5L111.7,64.8c0,0,0,0,0,0c-4.4-11.1-8.5-22.2-12.7-33.3L87.2,64.4
			c0.2,0.1,0.5,0.3,0.7,0.4c-0.3-0.1-0.6-0.3-0.9-0.4L46.5,170.7c-14.1-10.6-25.2-25.5-31.1-43.5c-2.9-8.8-4.3-17.7-4.3-26.7
			c-0.2-13.6,3-27.3,9.2-39.7c1.1-2.2,2.5-4.6,3.8-6.8c2.2-3.6,4.6-7,7.5-10.5c15.2-18.3,36.5-29.6,60.1-31.9
			c2.8-0.3,5.7-0.4,8.5-0.4c20.6,0,40.4,7.1,56.6,20.5c20.2,16.8,31.9,41.4,32.1,67.5C188.9,102,188.7,104.8,188.5,107.5z"/>
	</g>
	<g>
		<path class="st3" d="M96.1,181.5c-1.2,0.2-2.4,0.2-3.4-0.4c-0.6-0.4-1-0.8-1.4-1.4c-0.4-1-0.4-2.2-0.2-3.4
			c0.2-1.8,0.8-1.8,0.8-3.4c0.2-1,0.2-2-0.4-3c-0.8-0.8-1.8-1.2-3-1.6c-0.8-0.2-1.4-0.6-2.2-0.8c-1.2-0.8-1.2-1.6-2-1.8
			c-0.8,0-1.4,0.4-2,1c-1,0.8-0.8,1.6-1.6,1.8c-0.8,0.2-1.2,0.2-1.4,0c-0.2-0.2,0.6-1.6,1.4-2.4c0.8-0.8,1.6-1,1.6-1.4
			c0-0.4-1.2-1.2-1.8-1.4c-1.2-0.4-1.8-0.4-2.2-0.8c-0.4-0.6-0.2-1.6,0.6-2l0,0c0.6-0.2,1.2-0.2,1.6,0c0.6,0.2,0.8,0.6,1.4,1.4
			c0.6,0.6,1.2,1,2,1.6c0.6,0.4,1.2,0.8,1.8,1.2c1.6,0.8,2.2,0.6,3,1.4c0.8,0.8,0.6,0.8,1.4,1.4c0.8,0.6,1.6,0.8,2.2,0.4
			c0.6-0.4,0.2-2.4-0.8-3.6c-0.8-0.8-1.8-1.4-3-1.6c-1.4-0.4-2.2-0.2-2.8-0.6c-0.6-0.4-0.4-1-0.8-2.2c-0.4-2-0.8-3-1.6-3.6
			c-1.6-0.4-3.2-0.8-5-0.8c-0.6,0-1.2-0.2-1.8-0.4c-0.8-0.2-2-0.8-2-1.4c0-0.6,0.8-1,1.4-1c0.6,0,0.8,0.2,1.8,0.8s1.6,0.8,2,0.6
			c0.8-0.4,1-1.2,0.8-2s-1.2-1.4-2-1.6c-1.2-0.6-1.8-0.4-2.2-0.8c-0.4-0.8-0.2-2,0.8-2.4h0.2c1-0.2,2,0.2,2.6,0.8
			c0.6,0.6,0.4,1.2,1,2.2c0.4,0.6,0.8,1,1.4,1.4c1,0.8,1.8,1.8,2.4,2.8c0.8,1.4,1.6,2.8,2.2,4.2c1,2,1.4,2.8,2.4,3.2
			c1,0.4,2,0.6,2.4,0.2c0.4-0.4-0.6-1.6-1.4-2.4c-1.4-1.6-2-1.6-2.4-2.4c-0.8-1.6,0.6-2.2,0-3.6c-0.6-1.4-1.8-1.2-3.2-3
			c-1-1.4-0.4-1.6-1.2-2.6c-2-2.2-5.5-1.4-6.3-3.4c-0.2-0.6-0.2-1.6,0.2-1.8c0.4-0.2,1,0,2,0.6c1.2,0.6,1.6,1,2,1
			c0.4,0,0.2-0.6,0.2-2s0.2-1.8,0-2.2c-0.2-0.4-1.4-0.4-1.8-1c-0.4-0.6,0.8-2.4,1.6-2.4c0.8,0,1.2,2.6,1.8,2.6c0.6,0,0.2-2.6,1.2-3
			c0.6-0.2,1.2,0.2,1.6,0.6c0.6,0.8-0.4,2.2-0.8,2.8c-0.6,1-1,0.8-1.2,1.6c-0.2,0.8-0.6,1.2,0.4,3.2s1.4,3.8,2.6,3.8
			c1.2,0,3-3,3.2-5.3c0.2-1.8-0.2-3.8-1.2-5.3c-1-1-1.6-2.2-2-3.6c0-0.4,0-0.8,0.4-1s1-0.2,1.4,0c0.8,0.2,1,0.8,1.4,2
			c1,2.4,1.2,3.2,1.6,3.2s1-1.6,1-3.4c0.2-2.6-1-4-0.2-4.6c0.8-0.4,1.8-0.4,2.4,0.2c0.6,0.6-0.2,1.8,0.4,2.2c0.6,0.4,1.4-0.4,2.2,0
			c0.8,0.4,1,1,0.8,1.4c-0.2,0.4-2-0.2-2.6,0.4s0.4,1.2,0.4,2.2c0,1-1.6,1.4-2.4,3.2c-0.4,1,0,1-0.4,3s-0.8,1.8-1.2,3.8
			c-0.2,1.4-0.2,1.8-0.6,2.6c-0.6,1.2-1.2,1.2-1.6,2c-0.4,1.2,1.2,1.6,1.8,4c0.2,1.2,0.6,2.2,1.2,3.2c0,0,0,0.2,0.2,0.2
			c0.6,0.2,2.4-2.6,3-5.2c1-3.6-1-4.4,0-6.5c1.4-3.2,5.9-4.2,5.5-5.2c-0.4-1-2.8-0.2-3.2-1.2c-0.4-1,0.6-2,1.6-2.2
			c0.8,0,1.4,0.2,2,0.6c0.8,0.6,1,1.4,1.2,1.2c0.2-0.2,0.4-1.2,0-2.4c-0.6-2.2-1.8-2.4-2.6-5c-0.4-0.8-0.4-1.6-0.2-2.4
			c0,0,0.8-1.4,2-1.4c0.6,0,1.2,0.4,1.4,1.2c0.2,0.6-0.4,1-0.8,1.8c-0.4,1.2,0.2,2.6,0.8,2.8c0.6,0.2,1.8-1.6,2.4-3s0.2-2,0.6-2.2
			s1.8,0.4,2.2,1.4c0.4,1.2,0,2.4-0.8,3.2c-0.8,1.2-1.6,1.2-2.2,2.2c-0.6,1,0,1.8-0.6,3.6c-0.6,1.2-1.2,2.4-2.2,3.4
			c-1.2,1.8-1.6,2-2.4,3.2c-0.6,1-1.2,2.2-1.6,3.6c-1.2,3.8-2,6.3-0.6,7.9c0.8,1,2.2,1.4,3.4,1c1-0.6,0.2-2,1.2-4.8
			c0.4-1.6,0.8-1.4,2-4c1.4-3,0.8-3.4,1.8-5c0.4-0.6,0.6-1,4.2-4c3.6-3,5-4,4.8-5c-0.2-1-2-1-2.4-2.2c-0.2-0.6,0.2-1.2,0.8-2.6
			c0.6-1.4,0.8-1.6,1.2-1.8c1,0,1.8,0.8,2,1.8c0,0.8-0.8,1-1,1.8c0,1.2,1,2,2,2.2c1.2,0,1.2-1.4,2.8-1.8s2.8,0.4,2.8,1
			c0,0.6-2,0.8-4.8,2.8c-1,0.6-0.6,0.6-2.2,1.8c-2.2,1.8-3.2,2.2-3.2,2.8c0,0.6,1.6,1.2,1.8,1.4c1.4,0.4,3,0,4.2-0.8
			c1.6-1.2,1.2-3,2.2-3s2,1,1.8,1.8c-0.2,0.8-2.8,1.2-3.2,2.6c0,0.2,0,0.4,0,0.4c0.2,2,2.8,2.6,2.8,3.8c-0.4,1-1.4,1.4-2.2,1.4
			c-0.6-0.2-0.4-0.8-1-2.4c-0.6-1.2-0.8-1.8-1.4-2c-1.2-0.4-2,1.4-3.6,1.2c-1.6-0.2-1.6-1.6-3-1.6c-2,0-3.8,3.4-3.8,3.6
			c-0.4,1.2-0.8,2.2-1,3.4c-1,3.6-1.6,4.4-1.2,4.8c0.4,0.4,2.8-0.2,3.6-1.4c0.8-1.2-0.4-2.4,0.6-3.6c0.8-0.8,2-1.2,3.2-0.6
			c0.8,0.6,0,2,0,2.2c-0.6,1.4-1.8,1.8-1.6,2.2c0.2,0.4,1.6,0.2,2.8,1.2c1.2,1,1.2,2,0.6,2.4c-0.6,0.4-1.2,0-2.8-0.6
			c-1.2-0.4-1.6-0.6-1.8-0.6h-0.2c-1.2,0-4.6,2.8-5.5,3.4c-3.2,2.4-6.1,0.2-7.1,2.2s1.4,3,1.4,6.7c0,2.8-1,3.4-1,5.7
			c0.2,2.8,1.2,5.3,3,7.3L96.1,181.5z"/>
	</g>
</g>
</svg>
