<svg id="Layer_1" data-name="Layer 1" xmlns="http://www.w3.org/2000/svg" viewBox="0 0 206.88 151.54"><defs><style>.cls-1{fill:#010101;}</style></defs><path class="cls-1" d="M64.26,68.6c1.73,3-.71,6.74,2.59,11,6.33-18.82,20.66-24.32,39-23.88-3.29-5.91-8.79-3.85-13.71-6.22,8.47-2.27,15.29-.7,22.14,1.68.9-3.42-2.39-4.45-2.69-6.9,4.45-1.94,7.83,3,11.88,1.69,2.16-1.52-.1-4,1.25-5.49,2.91-1,5,1.54,6.55,1.36,3.58-.24,2.44-3.26,4.21-4C138,37,140,39.24,142.43,39c2.41-.57,1.95-4.1,5.45-4.36l5.27,1.8A37.08,37.08,0,0,1,175.48,33c9.17,1.24,13.58,5.66,14.67,14.59.48,3.92-.61,7.22-3.79,9.5-11,7.9-23.67,11.76-36.74,14.44-2.37-.09-1.76,2.9-4,3.51l-4.41-.9c-2.79,1.1-2.5,4-4.36,5.33-2.36.25-2.26-3.3-5.08-3-2.22,3.65-2,9-6,12.25-2.44-2.46.41-5.66-2.26-8.66-4.83,7.19-7.42,16-16.14,19.67-8.37,3.53-17,3.08-26.11,1.68.42,5,4.29,4.72,6.63,6.69-4.54,3.41-8.78-.53-12.74-.23-2.71.61-1.09,3.28-2.34,4.44-3.15.45-6.51-1.37-9,1-1.15,2.2,1.87,2.51,1.51,4.22-.35.21-.68.56-1,.55-5.31-.25-8.41,2-12.32,6.15-5.72,6-12.44,11.76-20.35,15.37-3.1,1.41-6.17,1.52-9.12-1.12-4-7.66,5.82-12.74,3.78-20.06l4.55-3.69c.18-1.52.39-3.27.61-5.19l5-2.52c.44-1.77.91-3.66,1.41-5.71l5.08-1.87c.62-2.48,1.24-4.94,1.94-7.71L50.1,93.2c3.11-3.36.08-7.91,2.18-11.21,2.69-.08,2.25,2.86,4.6,3.58,2-5.83,3.54-12,7.5-17ZM91.15,96.12c3.88,3.33,10.08,3.34,15.59,0,4.71-2.83,6.56-6.7,5.43-11.32C105.48,92.48,105.48,92.48,91.15,96.12Zm3.06-33.73C83.58,61.2,78.68,64.38,78,72.71,82.75,68.34,87.54,65.43,94.21,62.39ZM96.59,76.9a2.35,2.35,0,0,0-2.7-1.21c-1.15.25-2.26.62-2.17,2.16A2.12,2.12,0,0,0,94,79.23a3,3,0,0,0,2.58-2.32Z"/><path class="cls-1" d="M130.22,39.11c-4-.49-7.67-3.17-12-2.48-1.28,2.51,2.2,3.27,1.54,6-7.78-.46-15.63-3.16-24.33-1.48,2.65,2.54,6.18,2,8.64,5.2-19.52.13-36.48,4.5-45.88,24.39-1.83-5,1.37-8.26,1.21-12.22C51.93,63,50.6,71.05,47.65,77.71c-3.35-.6-2.27-3.72-4.51-4.77-3.84,2.72-2.91,7.85-5.1,11.3-2,1.21-3.13-2-5.6-.24-1.87,1.7-1.13,5.18-2.72,7.55-1.46,1.85-3.53.36-5.44,1.3l-2.33,4a5.88,5.88,0,0,1-5.77.71c-3.2-4.62-1.68-9.78-1.5-14.13,1.1-2.63,3.42-.82,4.84-2.93C21.61,75.51,22,69,26.07,64.19c2.51-.45,1.38,2.78,3.88,2.94C37,58.14,42,46.73,53.46,39c-1.21,5.28-5.82,7-6.24,13,11.22-9.84,23-16.63,35.45-22.36-5-2.09-9.32.54-15.25.76,11.52-8.73,23.82-9.35,35.74-9.67,1.91-2.08-.92-3.08-.16-5.14,6.37-2,13-.7,19,.27,2.64-.46,2.49-3.13,5.44-4,7,.59,14.81,1.43,19.12,9.78-.81,3.09-2.08,5.86-1.19,9.07l-5.67,4.9c-1.46.67-3.84-.51-5.28-.46C131.43,35.62,132.67,38.33,130.22,39.11Z"/><path class="cls-1" d="M100.62,116.79a10.12,10.12,0,0,1,6.37-4.64c2.74.28,2.08,2.31,3.17,3.34,2.68-.78,4.51-4,8.58-3,2,6.33-3.15,11.79-2.94,18,1.54,1.75,2.44-1.56,4.3-.38-2,2.29-3.79,4.46-7.64,4.53-2.94-6.55,2.64-12.12,2.18-18.65C105,118.26,109,129.73,102,135c-.73-7.33,2.68-12.69,2.86-18.45-1.65-1.19-2.59.74-3.91.65Z"/><path class="cls-1" d="M138,130.47l5.15-1.56c-2.68,3.45-5.18,5-7.85,5.71-2.32-.13-2.21-1.92-2.84-3.05-2.56,1-4.35,3.27-7.55,3-4.4-2.67-2.94-6.59-1.51-10.33,3.22-8.4,8.73-11.87,18-11.49C140.79,118.64,137.57,124,138,130.47Zm-10.23.13c5.8-1.58,8.41-6.28,8-14.5C128.64,116.33,124.48,123.83,127.79,130.6Z"/><path class="cls-1" d="M154.57,115.62c3.08-.57,4-5.77,9.19-3.74-2.9,4.46-8.57,5.15-10.77,9.86-1.84,4-.3,9.84-6.35,12.86-.41-5.69,1.89-9.81,2.44-14.22.2-1.58,2.35-4-1.38-4.39l-.37-.36a7.38,7.38,0,0,1,5.67-3.36c2,.57,1.24,2.29,1.68,3.46l-.17.16Z"/><path class="cls-1" d="M87.51,112.37c-1.66,6.4-3.13,12.09-4.58,17.7,2,1.79,3-1.69,5.13-.47-2.23,2.64-4.35,4.77-8.49,5-2-6.6,2.14-12.28,2.69-18.72L77.42,118C79.85,113.88,82.39,112.06,87.51,112.37Z"/><path class="cls-1" d="M91.17,117c1.41-3.26,4.26-4.21,7.12-4.78,2.22,1.07.29,3.74,2.33,4.61l.31.38c-3.06,3.63-3.91,8.12-4.9,12.56-.45,2.05-.41,4.67-4.19,3.81-.41-5.85,3-11.23,2.77-17.13l-3.57.44Z"/><path class="cls-1" d="M64.38,68.57l.19.17-.31-.14Z"/><path class="cls-1" d="M146.14,116.82a1.18,1.18,0,0,1,1.2-1.2l.38.36L146.36,117Z"/><polygon class="cls-1" points="91.04 116.85 91 117.18 91.18 116.95 91.04 116.85"/><path class="cls-1" d="M146.36,117l-.62.8c-.69-.68-.21-.88.4-1Z"/></svg>